<svg xmlns="http://www.w3.org/2000/svg" xmlns:xlink="http://www.w3.org/1999/xlink" viewBox="0 0 772 375.17"><defs><style>.cls-1{isolation:isolate;}.cls-2{mix-blend-mode:multiply;}.cls-3{fill:url(#linear-gradient);}.cls-4{fill:url(#linear-gradient-2);}.cls-5{fill:url(#linear-gradient-3);}.cls-6{fill:url(#linear-gradient-4);}.cls-7{fill:#2e2e30;}.cls-8{fill:url(#linear-gradient-5);}.cls-9{fill:url(#New_Gradient_Swatch_3);}.cls-10{fill:url(#linear-gradient-6);}.cls-11{fill:url(#linear-gradient-7);}.cls-12{fill:url(#linear-gradient-8);}.cls-13{fill:url(#linear-gradient-9);}.cls-14{fill:url(#linear-gradient-10);}.cls-15{fill:url(#linear-gradient-11);}.cls-16{fill:url(#linear-gradient-12);}.cls-17{fill:url(#linear-gradient-13);}.cls-18{fill:url(#linear-gradient-14);}</style><linearGradient id="linear-gradient" x1="772" y1="322.11" x2="665.88" y2="322.11" gradientUnits="userSpaceOnUse"><stop offset="0" stop-color="#2e2e30" stop-opacity="0.07"/><stop offset="0.58" stop-color="#2e2e30" stop-opacity="0.28"/><stop offset="1" stop-color="#2e2e30" stop-opacity="0.5"/></linearGradient><linearGradient id="linear-gradient-2" x1="666.11" y1="308.63" x2="719.16" y2="361.68" gradientUnits="userSpaceOnUse"><stop offset="0" stop-color="#2e2e30" stop-opacity="0.21"/><stop offset="0.78" stop-color="#2e2e30" stop-opacity="0.42"/><stop offset="1" stop-color="#2e2e30" stop-opacity="0.5"/></linearGradient><linearGradient id="linear-gradient-3" x1="738.84" y1="308.85" x2="738.84" y2="375.17" xlink:href="#linear-gradient"/><linearGradient id="linear-gradient-4" x1="683.1" y1="259.11" x2="755.58" y2="384.65" xlink:href="#linear-gradient-2"/><linearGradient id="linear-gradient-5" x1="268.22" y1="177.12" x2="400.14" y2="45.2" gradientUnits="userSpaceOnUse"><stop offset="0" stop-color="#c99904"/><stop offset="0.33" stop-color="#feca02"/><stop offset="0.49" stop-color="#f3ec7c"/><stop offset="0.63" stop-color="#feca02"/><stop offset="1" stop-color="#c99904"/></linearGradient><linearGradient id="New_Gradient_Swatch_3" x1="209.12" y1="-13.82" x2="459.89" y2="236.95" gradientUnits="userSpaceOnUse"><stop offset="0" stop-color="#c99904"/><stop offset="0.33" stop-color="#feca02"/><stop offset="0.49" stop-color="#c99904"/><stop offset="0.63" stop-color="#feca02"/><stop offset="1" stop-color="#c99904"/></linearGradient><linearGradient id="linear-gradient-6" x1="131.56" y1="151.27" x2="151.45" y2="131.38" gradientUnits="userSpaceOnUse"><stop offset="0" stop-color="#c99904"/><stop offset="0.51" stop-color="#feca02"/><stop offset="1" stop-color="#c99904"/></linearGradient><linearGradient id="linear-gradient-7" x1="305.2" y1="371.99" x2="305.2" y2="309.85" gradientUnits="userSpaceOnUse"><stop offset="0" stop-color="#c99904"/><stop offset="0.87" stop-color="#feca02"/><stop offset="1" stop-color="#feca02"/></linearGradient><linearGradient id="linear-gradient-8" x1="357.17" y1="372.82" x2="357.17" y2="329.74" xlink:href="#linear-gradient-7"/><linearGradient id="linear-gradient-9" x1="404.84" y1="371.99" x2="404.84" y2="329.74" xlink:href="#linear-gradient-7"/><linearGradient id="linear-gradient-10" x1="437.74" y1="372.82" x2="437.74" y2="314.61" xlink:href="#linear-gradient-7"/><linearGradient id="linear-gradient-11" x1="481.22" y1="371.99" x2="481.22" y2="329.74" xlink:href="#linear-gradient-7"/><linearGradient id="linear-gradient-12" x1="532.56" y1="372.82" x2="532.56" y2="329.63" xlink:href="#linear-gradient-7"/><linearGradient id="linear-gradient-13" x1="578.83" y1="371.99" x2="578.83" y2="329.74" xlink:href="#linear-gradient-7"/><linearGradient id="linear-gradient-14" x1="611.38" y1="372.82" x2="611.38" y2="329.74" xlink:href="#linear-gradient-7"/></defs><g class="cls-1"><g id="Layer_2" data-name="Layer 2"><g id="Layer_1-2" data-name="Layer 1"><g class="cls-2"><path class="cls-3" d="M696.54,349.84a79.53,79.53,0,0,0-4.13,25.33H665.88a105.62,105.62,0,0,1,7.46-39.08A39.77,39.77,0,0,1,696.54,349.84Zm22.4-66.54a106.66,106.66,0,0,0-23.15,18.12,104.2,104.2,0,0,0-9.13,10.76,66,66,0,0,1,23.16,13.37,79.47,79.47,0,0,1,62.18-30V269.05A105.52,105.52,0,0,0,718.94,283.3Z"/><path class="cls-4" d="M718.94,335.43a65.86,65.86,0,0,0-13.26,39.74,39.83,39.83,0,0,0-39.8-39.79V308.85a65.9,65.9,0,0,1,43.94,16.7A65.18,65.18,0,0,1,718.94,335.43Z"/><path class="cls-5" d="M772,308.85v26.53a39.73,39.73,0,0,0-7.46.71,106.62,106.62,0,0,0-13.32-23.91A65.88,65.88,0,0,1,772,308.85Zm-43.94,16.7a65.18,65.18,0,0,0-9.12,9.88,65.86,65.86,0,0,0-13.26,39.74h26.53a39.6,39.6,0,0,1,9.13-25.33A79.38,79.38,0,0,0,728.06,325.55Z"/><path class="cls-6" d="M772,375.17H745.47a79.68,79.68,0,0,0-26.53-59.27,79.4,79.4,0,0,1,23.15-14.48,104.2,104.2,0,0,1,9.13,10.76,105.54,105.54,0,0,1,20.78,63ZM665.88,269.05v26.53a79.12,79.12,0,0,1,29.91,5.84,106.66,106.66,0,0,1,23.15-18.12A105.52,105.52,0,0,0,665.88,269.05Z"/></g><path class="cls-7" d="M141.05,282.54C63.43,282.46-.07,218.89,0,141.34.07,63.42,63.15.09,140.79,0,219-.09,282.7,63.54,282.54,141.62,282.38,219.05,218.55,282.63,141.05,282.54Zm.22-215.44c-41.64,0-74.23,32.45-74.24,74s32.52,74.29,74.06,74.32,74.38-32.77,74.35-74.14C215.41,99.67,182.9,67.15,141.27,67.1Z"/><path class="cls-7" d="M485.51,282.54c-77.61-.08-141.11-63.65-141-141.2C344.53,63.42,407.62.09,485.26,0,563.49-.09,627.17,63.54,627,141.62,626.85,219.05,563,282.63,485.51,282.54Zm.22-215.44c-41.63,0-74.22,32.45-74.23,74s32.51,74.29,74.06,74.32,74.38-32.77,74.35-74.14C559.88,99.67,527.37,67.15,485.73,67.1Z"/><path class="cls-8" d="M346.66,156.75c34.08-9.22,58.08-38.18,58.08-74.17,0-44.77-36.48-80.76-85.93-80.76H196.41v8.31a142.48,142.48,0,0,1,63.36,51v-8h49.44c20.16,0,35,13.17,35,31.16,0,18.44-14.88,31.16-35,31.16H282.28a140.88,140.88,0,0,1,2.32,25.81,139.24,139.24,0,0,1-1.79,22h2.4l71.05,101.82h71Z"/><path class="cls-9" d="M430.22,266.62H355.49l-71-101.82h-3.36l.27-1.7a138.66,138.66,0,0,0,1.78-21.8,140.16,140.16,0,0,0-2.3-25.54l-.32-1.73h28.69c19.77,0,33.58-12.21,33.58-29.7,0-17.2-14.12-29.69-33.58-29.69h-48V65.88L258.56,62a140.2,140.2,0,0,0-62.71-50.52l-.91-.38V.36H318.81c24.09,0,46.29,8.52,62.52,24A79.73,79.73,0,0,1,406.2,82.58c0,34.94-22.85,64.82-57.1,75ZM357,263.69h67.36L344.2,155.9l2.07-.57c34.1-9.22,57-38.45,57-72.75,0-44.46-37.1-79.29-84.46-79.29H197.87V9.15a143.28,143.28,0,0,1,60.44,47.44V51.71h50.9c21.16,0,36.51,13.72,36.51,32.62S330.37,117,309.21,117H284a142,142,0,0,1,.49,44.91H286Z"/><path class="cls-10" d="M141.89,155.11c-8.06.2-14.34-5.65-14.49-13.51-.15-7.57,6.53-14.69,14-14.14,7.88.58,13.26,4.57,13.68,13.19C155.53,148.93,150,154.9,141.89,155.11Z"/><path class="cls-11" d="M327.68,328.6c0,10.46-8.08,18.22-18.54,18.22H296.4V372H282.72V309.85h26.42A18.5,18.5,0,0,1,327.68,328.6Zm-13.06.1c0-4-3.31-6.84-7.66-6.84H296.4v13.68H307C311.31,335.54,314.62,332.84,314.62,328.7Z"/><path class="cls-12" d="M382.65,361.22V372a8.78,8.78,0,0,1-3.53.83,14.59,14.59,0,0,1-12.73-7,17.39,17.39,0,0,1-14.19,7c-11.5,0-20.51-9.53-20.51-21.54s9-21.54,20.51-21.54a17.12,17.12,0,0,1,11.8,4.45v-3.63h13.16v26.62c0,3.42,1.86,4,3.62,4Zm-18-9.94a9.84,9.84,0,1,0-9.83,9.84A9.83,9.83,0,0,0,364.62,351.28Z"/><path class="cls-13" d="M419,330.15v11.7a18.39,18.39,0,0,0-3.83-.41c-6.52,0-11.18,3.93-11.18,10.77V372H390.7V330.56H404v5.7a13.72,13.72,0,0,1,11.6-6.52A11.43,11.43,0,0,1,419,330.15Z"/><path class="cls-14" d="M442.87,340.82v14.81c0,3.42,2,5.59,4.77,5.59h5v10.26c-1,.72-3.83,1.34-6.63,1.34-8.8,0-16.26-6.83-16.26-15.64V340.82h-6.94V330.56h6.94V314.61h13.15v15.95h9.84v10.26Z"/><path class="cls-15" d="M501.16,345.79V372H488V348a6.31,6.31,0,0,0-6.52-6.52,6.66,6.66,0,0,0-6.94,6.52v24H461.28V330.56h13.26v5.08a15,15,0,0,1,11.81-5.9C494.53,329.74,501.16,336.67,501.16,345.79Z"/><path class="cls-16" d="M555.09,353.45H523.4c.52,5.91,3.62,9.53,9.63,9.53,4.56,0,7.56-2,8.7-5.28h12.74c-2.07,9-9.74,15.12-21.23,15.12-13.88,0-23.2-8.59-23.2-21.54s9.42-21.65,22.78-21.65,22.27,8.6,22.27,21.54Zm-30.86-8h17.19c-1.35-3.63-3.94-5.7-8.39-5.7C528.37,339.78,525.57,342,524.23,345.48Z"/><path class="cls-17" d="M593,330.15v11.7a18.47,18.47,0,0,0-3.83-.41c-6.52,0-11.19,3.93-11.19,10.77V372H564.7V330.56H578v5.7a13.75,13.75,0,0,1,11.6-6.52A11.46,11.46,0,0,1,593,330.15Z"/><path class="cls-18" d="M595.12,362.88l9.74-4.87a7.56,7.56,0,0,0,6.94,4.35c2.17,0,3.62-.93,3.62-2.59,0-1.45-1.24-2.48-5-3.93-4.77-1.77-13.05-4.56-13.05-12.85,0-7,6-13.25,15.43-13.25a20,20,0,0,1,14,5.49l-6.63,7.45a8.62,8.62,0,0,0-6.42-3c-2.28,0-3.31,1-3.31,2.38,0,1.55,1.45,2.18,4.45,3.42,5.91,2.28,12.74,5.59,12.74,13.88,0,7.76-5.69,13.46-15,13.46C605.27,372.82,597.61,369.3,595.12,362.88Z"/></g></g></g></svg>