<svg xmlns="http://www.w3.org/2000/svg" viewBox="0 0 1024.94 172.34"><defs><style>.cls-1{fill:#034ea2;}</style></defs><g id="Layer_2" data-name="Layer 2"><g id="Layer_1-2" data-name="Layer 1"><path class="cls-1" d="M853.8,44.88a7.43,7.43,0,0,1,.63-.93L898.34,0a6.89,6.89,0,0,1,2.21,1.86l36.5,36.49c.73.73,1.48,1.44,2.32,2.25a13.89,13.89,0,0,0,1.48-1.14c1.74-1.7,3.45-3.43,5.17-5.15Q962.25,18.1,978.46,1.87c.61-.61,1.25-1.2,1.9-1.83a8.25,8.25,0,0,1,2.4,2l40.37,40.36c.37.37.75.73,1.1,1.11.94,1,.94,1.37,0,2.41-.54.57-1.1,1.11-1.66,1.66L949.2,121c-.86.86-1.7,1.73-2.63,2.68a14.85,14.85,0,0,0,.83,1.33,14.53,14.53,0,0,0,1.1,1.12Q963.43,141,978.36,156a6.38,6.38,0,0,0,2.13,1.81c1.72-1.24,29.44-28.91,31-31-.25-1-1.1-1.48-1.75-2.14Q998.2,113,986.58,101.41c-.67-.67-1.32-1.35-2.08-2.13,2.07-2.4,4.28-4.44,6.53-6.66a16.64,16.64,0,0,1,1.43,1.15l31.15,31.15c.54.54,1.25,1,1.33,2.07-.35.41-.75,1-1.22,1.45-14.19,14.62-41.46,41.65-43.43,43l-20.22-20.23c-6.76-6.75-13.49-13.51-20.34-20.32a13.45,13.45,0,0,0-1.36,1c-.65.58-1.24,1.21-1.86,1.83l-36.13,36.12c-.54.55-1.12,1.07-1.61,1.54a1.74,1.74,0,0,1-.39-.05.44.44,0,0,1-.23-.1q-21.69-21.62-43.36-43.26a8.42,8.42,0,0,1-.69-.77,5.09,5.09,0,0,1-.33-.87l34.28-34.2a30.53,30.53,0,0,1,7,6.72l-14,14L867.27,126.6c.5.6.79,1,1.14,1.4,6.77,7.12,28,28.18,30.12,29.81a13.74,13.74,0,0,0,1.33-1l31.51-31.51c.37-.37.67-.78,1.08-1.27a12.7,12.7,0,0,0-.89-1.26c-.46-.52-1-1-1.46-1.49L855.63,46.78C855,46.17,854.44,45.54,853.8,44.88Zm78.68,2.75c-1.8-2.27-32.26-32.67-33.92-33.89a2.22,2.22,0,0,0-.68.31q-15,15-30,30.05a2.42,2.42,0,0,0-.35.72,11.37,11.37,0,0,0,2.23,2.51q33.45,33.47,66.91,66.91c.55.55,1.09,1.12,1.66,1.65.37.33.79.61,1.2.92a11,11,0,0,0,2.63-2.3q33.64-33.62,67.28-67.27c.43-.43.88-.84,1.28-1.29s.61-.79,1-1.3c-.73-.78-1.36-1.48-2-2.14L991.05,23.89q-4.51-4.52-9-9c-.47-.46-.85-1.13-1.66-1.07-2.21,1.76-32.49,32.12-33.66,33.75.23,1,1.09,1.53,1.75,2.19q9.93,10,19.9,19.91c.66.67,1.27,1.37,2,2.11-.45.53-.75.94-1.11,1.3-1.77,1.79-3.55,3.56-5.44,5.44-.8-.77-1.5-1.41-2.17-2.08q-9.95-9.94-19.91-19.89a6.24,6.24,0,0,0-2.16-1.82,6.93,6.93,0,0,0-2.2,1.87q-10.51,10.49-21,21a6.77,6.77,0,0,1-2.09,1.8,37.73,37.73,0,0,1-6.43-6.68c1.92-2.18,4.08-4.17,6.15-6.26S918,62.37,920,60.34s4.2-4.16,6.27-6.27S930.53,50,932.48,47.63Z"/><path class="cls-1" d="M621.59,1.53c4-.22,7.75-.08,11.64-.1.55.83,1.14,1.66,1.69,2.53L672,63.45q12.46,20,25,40a12.35,12.35,0,0,0,1.84,2.6c1-.48,1.3-1.43,1.78-2.19q6.71-10.71,13.38-21.45l48.92-78.5c.51-.8,1-1.59,1.5-2.3a60.62,60.62,0,0,1,11.51.08,1,1,0,0,1,.17.19.59.59,0,0,1,.07.25q0,84.32.07,168.64a11.24,11.24,0,0,1-.12,1.13c-1.93.71-3.93.29-5.89.35a47.9,47.9,0,0,1-6.08-.1c-.09-.62-.21-1.11-.23-1.6,0-.87,0-1.74,0-2.61q0-68.67,0-137.36a13.46,13.46,0,0,0-.21-3.56c-.42.26-.76.36-.91.59-.6.85-1.15,1.74-1.7,2.62L700.6,126.46c-.5.8-1,1.59-1.54,2.41a6,6,0,0,1-1.86-2.34Q682.58,103.42,668,80.27,652,55.06,636.09,29.83a9,9,0,0,0-2-2.61,5.4,5.4,0,0,0-.32,1.09c0,1,0,1.91,0,2.87q0,68.69,0,137.36a9.65,9.65,0,0,1-.26,3.47,11.17,11.17,0,0,1-3.82.27c-1.3,0-2.6,0-3.9,0a14.09,14.09,0,0,1-4-.25c-.06-.53-.14-1-.16-1.52,0-.69,0-1.39,0-2.08V1.53Z"/><path class="cls-1" d="M177.59,172.22a11.19,11.19,0,0,1-.19-1.34q0-84.18,0-168.36a4.43,4.43,0,0,1,.21-.9c.64-.07,1.31-.19,2-.2h12.25c11.12,0,22.24,0,33.36,0a84.76,84.76,0,0,1,39.85,9.71c19.8,10.53,32.67,26.82,39.28,48.13a93.17,93.17,0,0,1,3.91,29.31,88.4,88.4,0,0,1-6.93,34c-10.41,24.14-28.46,39.55-53.74,46.56a101.07,101.07,0,0,1-15.37,2.68,99.62,99.62,0,0,1-11.71.49H180.89C179.85,172.29,178.82,172.25,177.59,172.22ZM190.11,12.87a4.37,4.37,0,0,0-.32,1q0,72.72,0,145.45a5,5,0,0,0,.18,1,5.46,5.46,0,0,0,3.11.43c9.39,0,18.77,0,28.16,0a89.94,89.94,0,0,0,23.2-2.88c12-3.22,22.57-8.93,31.28-17.87,10.23-10.49,15.94-23.23,18.45-37.53a96,96,0,0,0,1.16-20.25,80.92,80.92,0,0,0-3.81-22c-5.95-18.27-17.39-31.83-34.84-40.11a78.68,78.68,0,0,0-32.82-7.27c-10.51-.19-21-.06-31.54-.06C191.61,12.75,190.92,12.83,190.11,12.87Z"/><path class="cls-1" d="M506.81,122.37c-.52,0-1.11-.12-1.71-.13-15.49-.3-79.32-.15-82.26.21-2.34,5.3-4.33,10.85-6.51,16.32s-4.38,11.14-6.57,16.72-4.31,11-6.48,16.52c-2.2.55-4.37.21-6.51.26s-4.3.08-6.39-.05c-.09-.39-.2-.58-.15-.71Q423.7,87.45,457.17,3.39c.26-.63.58-1.24.89-1.89h13.76c.45,1,.95,2,1.36,3q9.17,23,18.31,46,23.67,59.38,47.33,118.76a5.13,5.13,0,0,1,.77,2.7c-1.79.44-9,.54-12.87.17-.36-.85-.78-1.79-1.16-2.74Q517,147.43,508.35,125.5A8.78,8.78,0,0,0,506.81,122.37Zm-78.68-11.7a17,17,0,0,0,1.75.2c15.87.39,69.5.18,71.95-.29.17-1.27-.54-2.33-1-3.43Q486,68.81,471,30.47c-1.64-4.21-3.24-8.43-4.92-12.62-.27-.67-.28-1.6-1.27-1.86a7.55,7.55,0,0,0-1.34,2.78q-13.86,35.54-27.71,71.1c-2.33,6-4.68,12-7,18C428.41,108.69,427.83,109.52,428.13,110.67Z"/><path class="cls-1" d="M.29,1.41H93.93a47.27,47.27,0,0,1,.24,11,8.91,8.91,0,0,1-1.4.3c-.87,0-1.74,0-2.61,0h-74c-1.12,0-2.24,0-3.47.06a12,12,0,0,0-.34,1.58c-.06.6,0,1.21,0,1.82q0,29.58,0,59.16a9.38,9.38,0,0,0,.24,3.18,11.19,11.19,0,0,0,1.49.29c1,0,1.91,0,2.87,0H84.68a7.61,7.61,0,0,1,3.52.32A52,52,0,0,1,88.31,90a11.11,11.11,0,0,1-1.44.28c-.78,0-1.57,0-2.35,0H16a11.46,11.46,0,0,0-3.46.24,15,15,0,0,0-.19,1.54c0,1.65,0,3.3,0,5q0,30.1,0,60.2a9.88,9.88,0,0,0,.22,3.18,10.88,10.88,0,0,0,1.52.28c.95.05,1.91,0,2.87,0H92a9,9,0,0,1,3.52.29,46.12,46.12,0,0,1,0,11.08c-.45.06-1,.15-1.44.18s-1.22,0-1.83,0H3.64a11.45,11.45,0,0,1-3.31-.19,2.83,2.83,0,0,1-.3-.81Q0,87,0,2.67A6.49,6.49,0,0,1,.29,1.41Z"/></g></g></svg>