<svg xmlns="http://www.w3.org/2000/svg" xmlns:xlink="http://www.w3.org/1999/xlink" viewBox="0 0 1005.8 280.04"><defs><style>.cls-1{isolation:isolate;}.cls-2{fill:#1f3d85;}.cls-3{fill:#232850;}.cls-4{fill:#0472b9;}.cls-5{mix-blend-mode:multiply;}.cls-6{fill:url(#linear-gradient);}.cls-7{fill:url(#linear-gradient-2);}.cls-8{fill:url(#linear-gradient-3);}.cls-9{fill:url(#linear-gradient-4);}</style><linearGradient id="linear-gradient" x1="1005.8" y1="178.53" x2="930.8" y2="178.53" gradientUnits="userSpaceOnUse"><stop offset="0" stop-color="#2e2e30" stop-opacity="0.07"/><stop offset="0.58" stop-color="#2e2e30" stop-opacity="0.28"/><stop offset="1" stop-color="#2e2e30" stop-opacity="0.5"/></linearGradient><linearGradient id="linear-gradient-2" x1="930.96" y1="169" x2="968.46" y2="206.5" gradientUnits="userSpaceOnUse"><stop offset="0" stop-color="#2e2e30" stop-opacity="0.21"/><stop offset="0.78" stop-color="#2e2e30" stop-opacity="0.42"/><stop offset="1" stop-color="#2e2e30" stop-opacity="0.5"/></linearGradient><linearGradient id="linear-gradient-3" x1="982.37" y1="169.15" x2="982.37" y2="216.03" xlink:href="#linear-gradient"/><linearGradient id="linear-gradient-4" x1="942.97" y1="134" x2="994.2" y2="222.73" xlink:href="#linear-gradient-2"/></defs><g class="cls-1"><g id="Layer_2" data-name="Layer 2"><g id="Layer_1-2" data-name="Layer 1"><polygon class="cls-2" points="700.54 0 638.98 0 763.51 124.53 825.07 124.53 700.54 0"/><polygon class="cls-3" points="700.54 249.06 638.98 249.06 763.51 124.53 825.07 124.53 700.54 249.06"/><polygon class="cls-4" points="841.24 138.31 810.47 171.1 852.88 216.3 914.43 216.3 841.24 138.31"/><polygon class="cls-3" points="841.24 108.35 914.43 35.16 852.88 35.16 810.47 77.57 841.24 108.35"/><polygon class="cls-3" points="148.99 27.62 83.66 93.16 59.58 69.15 100.99 27.68 148.99 27.62"/><path class="cls-3" d="M149.18,180.68l-48,.06L39,118.7a2.85,2.85,0,0,0-3.1-.65,2.9,2.9,0,0,0-1.8,2.69l.07,60.09-34,0L0,27.81l34,0,0,36.83a3.16,3.16,0,0,0,.84,2Z"/><path class="cls-3" d="M200,64.38l.1,79.41a2.87,2.87,0,0,0,2.87,2.86l96.36-.12,0,34-133.19.17L166,27.6l133.19-.17,0,34-96.36.13A2.87,2.87,0,0,0,200,64.38Z"/><rect class="cls-3" x="215.74" y="87.02" width="63.75" height="33.96" transform="translate(-0.13 0.31) rotate(-0.07)"/><polygon class="cls-3" points="351.83 96.14 351.83 180.72 316.48 180.16 316.48 61.62 351.83 96.14"/><path class="cls-3" d="M469.49,27.21l.2,153.07-34,0-.13-99.79a2.84,2.84,0,0,0-1.76-2.64,2.75,2.75,0,0,0-3.1.61l-37.67,37.71L316.49,39.77V27.41l35.62-.05L391,66.18a2.85,2.85,0,0,0,4,0l38.82-38.91Z"/><path class="cls-3" d="M619.94,27l-49.62.06h-4.27l-79.3.1,0,34,46.74-.06A2.89,2.89,0,0,1,536.41,64l.15,116.23,34,0L570.36,61,620,61Z"/><polygon class="cls-3" points="673.98 60.45 674.12 180.19 638.76 179.59 638.58 27.11 673.98 60.45"/><path class="cls-3" d="M38.87,215.2H25.35v43.26H13.61V215.2H0V204.72H38.87Z"/><path class="cls-3" d="M75.86,242.43H48.46c.44,5.1,3.13,8.24,8.33,8.24,3.94,0,6.53-1.7,7.52-4.57h11c-1.79,7.79-8.42,13.07-18.36,13.07-12,0-20.07-7.43-20.07-18.62s8.15-18.72,19.71-18.72,19.25,7.43,19.25,18.63Zm-26.69-6.9H64c-1.16-3.13-3.4-4.93-7.25-4.93C52.76,230.6,50.34,232.48,49.17,235.53Z"/><path class="cls-3" d="M81.33,240.55c0-10.75,8-18.63,20-18.63,10.75,0,18.09,6.27,19.62,15.22H109.09a8.23,8.23,0,0,0-7.79-5.1,8.51,8.51,0,1,0,0,17,8.22,8.22,0,0,0,7.79-5.1h11.83c-1.53,9-8.87,15.22-19.62,15.22C89.3,259.17,81.33,251.29,81.33,240.55Z"/><path class="cls-3" d="M162.74,235.8v22.66H151.28V237.68a5.41,5.41,0,0,0-5.46-5.64,6.22,6.22,0,0,0-6.09,6.18v20.24H128.26V197.11h11.47v29.55a13.11,13.11,0,0,1,10-4.74C157,221.92,162.74,227.92,162.74,235.8Z"/><path class="cls-3" d="M207,235.8v22.66H195.62V237.68A5.46,5.46,0,0,0,190,232a5.76,5.76,0,0,0-6,5.64v20.78H172.51V222.63H184V227a13,13,0,0,1,10.21-5.1C201.26,221.92,207,227.92,207,235.8Z"/><path class="cls-3" d="M214.34,240.55c0-10.75,8-18.63,20-18.63s19.88,7.88,19.88,18.63-7.88,18.62-19.88,18.62S214.34,251.29,214.34,240.55Zm28.48,0a8.51,8.51,0,1,0-8.51,8.5A8.39,8.39,0,0,0,242.82,240.55Z"/><path class="cls-3" d="M262.34,197.11h11.47v61.35H262.34Z"/><path class="cls-3" d="M281.87,240.55c0-10.75,8-18.63,20-18.63s19.89,7.88,19.89,18.63-7.89,18.62-19.89,18.62S281.87,251.29,281.87,240.55Zm28.48,0a8.51,8.51,0,1,0-8.51,8.5A8.39,8.39,0,0,0,310.35,240.55Z"/><path class="cls-3" d="M367.85,258.82c0,13.25-7.79,21.22-20.87,21.22-9.4,0-16.12-4.21-19.07-11.55l10.48-4.21A8.78,8.78,0,0,0,347,270.1c5.83,0,9.5-4,9.5-10.66V254.7a16.48,16.48,0,0,1-11.38,4.47c-9.94,0-17.73-8.23-17.73-18.62s7.79-18.63,17.73-18.63a16.43,16.43,0,0,1,11.2,4.3v-3.59h11.46Zm-11.28-18.27a8.56,8.56,0,1,0-8.6,8.5A8.52,8.52,0,0,0,356.57,240.55Z"/><path class="cls-3" d="M378.15,210.36a6.27,6.27,0,1,1,6.27,6.27A6.29,6.29,0,0,1,378.15,210.36Zm.54,12.27h11.38v35.83H378.69Z"/><path class="cls-3" d="M437.36,242.43H410c.45,5.1,3.14,8.24,8.33,8.24,3.94,0,6.54-1.7,7.52-4.57h11c-1.79,7.79-8.42,13.07-18.36,13.07-12,0-20.06-7.43-20.06-18.62s8.15-18.72,19.7-18.72,19.26,7.43,19.26,18.63Zm-26.69-6.9h14.87c-1.17-3.13-3.41-4.93-7.26-4.93C414.25,230.6,411.83,232.48,410.67,235.53Z"/><path class="cls-3" d="M441.75,250.58l8.42-4.21a6.54,6.54,0,0,0,6,3.76c1.88,0,3.13-.81,3.13-2.24,0-1.25-1.07-2.15-4.3-3.4-4.12-1.53-11.28-3.94-11.28-11.11,0-6.09,5.19-11.46,13.34-11.46a17.34,17.34,0,0,1,12.09,4.74l-5.73,6.45a7.46,7.46,0,0,0-5.55-2.6c-2,0-2.87.9-2.87,2.06,0,1.35,1.26,1.89,3.85,3,5.11,2,11,4.84,11,12,0,6.72-4.93,11.64-13,11.64C450.52,259.17,443.9,256.13,441.75,250.58Z"/><g class="cls-5"><path class="cls-6" d="M952.47,198.12A56.16,56.16,0,0,0,949.56,216H930.8a74.59,74.59,0,0,1,5.28-27.62A28.09,28.09,0,0,1,952.47,198.12Zm15.83-47a75,75,0,0,0-16.36,12.81,73.33,73.33,0,0,0-6.45,7.6A46.88,46.88,0,0,1,961.86,181a57.68,57.68,0,0,1,6.44-6.82,56.18,56.18,0,0,1,37.5-14.35V141A74.55,74.55,0,0,0,968.3,151.1Z"/><path class="cls-7" d="M968.3,187.94A46.57,46.57,0,0,0,958.93,216a28.16,28.16,0,0,0-22.85-27.62,27.72,27.72,0,0,0-5.28-.51V169.15A46.69,46.69,0,0,1,961.86,181,45.85,45.85,0,0,1,968.3,187.94Z"/><path class="cls-8" d="M1005.8,169.15V187.9a27.7,27.7,0,0,0-5.27.51,75.22,75.22,0,0,0-9.41-16.9A46.64,46.64,0,0,1,1005.8,169.15Zm-31,11.8A46.84,46.84,0,0,0,958.93,216h18.75a28,28,0,0,1,6.46-17.91A56.35,56.35,0,0,0,974.75,181Z"/><path class="cls-9" d="M1005.8,216H987.06a56.29,56.29,0,0,0-18.76-41.9,56.22,56.22,0,0,1,16.36-10.22,72.21,72.21,0,0,1,6.46,7.6A74.62,74.62,0,0,1,1005.8,216Zm-75-75v18.75a55.66,55.66,0,0,1,21.14,4.13A75,75,0,0,1,968.3,151.1,74.49,74.49,0,0,0,930.8,141Z"/></g></g></g></g></svg>