<svg width="16" height="16" viewBox="0 0 16 16" fill="none" xmlns="http://www.w3.org/2000/svg">
<path d="M0.219727 8.04506C0.220149 9.84206 0.85758 11.58 2.01745 12.9465C3.17732 14.3129 4.78356 15.2184 6.54748 15.5V10.2259H4.64473V8.04506H6.54973V6.38488C6.50766 5.99632 6.55115 5.6032 6.67709 5.23345C6.80304 4.8637 7.00835 4.52639 7.27846 4.24547C7.54856 3.96455 7.87683 3.74692 8.23994 3.60803C8.60306 3.46914 8.99211 3.4124 9.37948 3.44184C9.94198 3.4509 10.5045 3.50146 11.0595 3.59277V5.44839H10.1115C9.95035 5.42716 9.78655 5.44263 9.63217 5.49366C9.47779 5.54468 9.33677 5.62997 9.21955 5.7432C9.10234 5.85643 9.0119 5.99472 8.95494 6.14785C8.89798 6.30098 8.87595 6.46503 8.89048 6.62787V8.04506H10.9687L10.6365 10.2267H8.89048V15.5C10.3062 15.2749 11.6282 14.6463 12.6998 13.6887C13.7715 12.7311 14.5481 11.4846 14.9375 10.0967C15.327 8.70888 15.3131 7.23779 14.8974 5.85765C14.4817 4.47751 13.6817 3.24612 12.592 2.30926C11.5024 1.3724 10.1687 0.769317 8.749 0.571405C7.32927 0.373493 5.88292 0.589043 4.58117 1.19254C3.27941 1.79603 2.17679 2.76219 1.40383 3.97663C0.630872 5.19107 0.219954 6.60293 0.219727 8.04506V8.04506Z" fill="#FBFBFB"/>
</svg>
