<svg width="149" height="115" viewBox="0 0 149 115" fill="none" xmlns="http://www.w3.org/2000/svg">
<path d="M22.2902 103.857C20.6312 103.857 19.0282 103.902 17.4296 103.841C16.3662 103.801 15.5669 103.17 14.8907 102.382C13.9952 101.334 13.3549 100.118 12.7235 98.9046C11.4339 96.4194 10.2205 93.8962 8.42264 91.7111C7.56963 90.6745 6.56437 90.1237 5.20985 90.0767C4.55386 90.0543 4.38147 90.211 4.38595 90.8558C4.41282 94.1179 4.38595 97.3777 4.41282 100.637C4.41282 101.34 4.25833 101.596 3.51727 101.533C2.57394 101.48 1.62842 101.48 0.685094 101.533C0.192542 101.551 0 101.437 0 100.895C0.017911 93.9768 0.017911 87.0595 0 80.1428C0 79.6234 0.154482 79.4712 0.671662 79.4712C1.64557 79.5048 2.62396 79.5204 3.59563 79.4712C4.22923 79.4354 4.42401 79.6122 4.41506 80.266C4.377 82.8563 4.44192 85.449 4.37923 88.0371C4.35908 88.8856 4.62999 89.058 5.40464 89.0177C6.65169 88.9528 7.90546 89.0177 9.15251 88.9931C10.6637 88.9506 11.8638 89.5506 12.8668 90.6342C13.6997 91.5297 14.3086 92.5932 14.9086 93.6522C15.1191 94.0216 15.3049 94.4044 15.502 94.7716C18.2446 100.046 18.2446 100.046 22.2902 103.857Z" fill="white"/>
<path d="M19.5652 77.017C17.5189 77.87 16.4308 79.529 15.4905 81.3492C14.9531 82.3903 14.371 83.4157 13.8359 84.4546C12.9672 86.1158 11.5478 86.8972 9.73208 86.9531C8.0171 87.0069 6.29988 86.9643 4.41699 86.9643C5.17149 86.3419 6.02674 86.1852 6.63347 85.621C7.71261 84.5956 8.40219 83.306 9.14101 82.05C9.64252 81.197 10.1396 80.3395 10.5963 79.4619C11.4269 77.8723 12.7792 77.1088 14.5098 77.0417C16.1912 76.9655 17.8793 77.017 19.5652 77.017Z" fill="#F7A41C"/>
<path d="M28.2523 89.4961V89.7535C28.2519 89.833 28.2459 89.9123 28.2344 89.9909H20.7991C20.8499 90.7197 21.144 91.4103 21.6342 91.9521C22.0998 92.4432 22.7424 92.6879 23.5618 92.6864C24.1125 92.7141 24.6571 92.5617 25.1134 92.2521C25.5273 91.9246 25.8452 91.4915 26.0335 90.9983L27.9948 91.2715C27.8662 91.7648 27.659 92.2343 27.3813 92.6618C27.11 93.0741 26.77 93.4368 26.3761 93.7343C25.9592 94.0453 25.4919 94.2823 24.9947 94.435C24.4358 94.6038 23.8546 94.6869 23.2708 94.6813C22.6121 94.6857 21.9584 94.5672 21.3431 94.332C20.7551 94.1082 20.221 93.7625 19.7759 93.3178C19.3164 92.8517 18.9561 92.2972 18.7169 91.6879C18.4451 90.9897 18.312 90.2452 18.3251 89.4961C18.3165 88.7707 18.4464 88.0503 18.7079 87.3736C18.9428 86.7648 19.3004 86.2108 19.7583 85.746C20.2162 85.2811 20.7648 84.9153 21.37 84.6713C21.9954 84.4171 22.6651 84.2892 23.3402 84.2952C24.0767 84.2793 24.8083 84.4189 25.4873 84.7049C26.0751 84.9609 26.5994 85.3431 27.0231 85.8243C27.4403 86.3033 27.7536 86.8636 27.9433 87.4699C28.1522 88.1248 28.2564 88.8086 28.2523 89.4961V89.4961ZM26.0134 88.4572C25.9102 87.8206 25.6185 87.2294 25.1761 86.7602C24.6956 86.3266 24.0713 86.0866 23.4241 86.0866C22.7769 86.0866 22.1527 86.3266 21.6722 86.7602C21.2341 87.2313 20.9458 87.822 20.8438 88.4572H26.0134Z" fill="white"/>
<path d="M45.2722 88.0812V94.5537H42.8094V88.6454C42.8192 88.2605 42.7639 87.8767 42.646 87.5102C42.5564 87.2407 42.4149 86.9912 42.2296 86.7759C42.0684 86.5968 41.8664 86.4594 41.6407 86.3751C41.4186 86.2963 41.1846 86.2562 40.9489 86.2565C40.6894 86.2543 40.4308 86.289 40.181 86.3595C39.9393 86.4242 39.7171 86.5472 39.534 86.7177C39.3289 86.9167 39.1752 87.1626 39.0862 87.4341C38.9655 87.8108 38.9102 88.2053 38.9227 88.6006V94.5537H36.4152V88.6095C36.4234 88.2513 36.372 87.8942 36.263 87.5528C36.1755 87.283 36.0304 87.0354 35.8376 86.8274C35.6605 86.6436 35.4449 86.5014 35.2062 86.411C34.9608 86.3184 34.7005 86.2721 34.4383 86.2744C34.1834 86.2725 33.93 86.3126 33.6883 86.3931C33.4501 86.4725 33.2338 86.6067 33.0569 86.7849C32.8576 86.9885 32.7049 87.2329 32.6091 87.5013C32.4842 87.8608 32.4265 88.2403 32.439 88.6207V94.5537H29.9561V84.4139H32.4815V86.0013C32.5504 85.8209 32.6447 85.6513 32.7614 85.4975C32.9205 85.2832 33.1106 85.0938 33.3256 84.9355C33.5846 84.7441 33.8686 84.5889 34.1696 84.4743C34.5344 84.3374 34.9218 84.2706 35.3114 84.2773C35.6785 84.2711 36.0443 84.3233 36.395 84.4318C36.6946 84.5276 36.9766 84.6712 37.2301 84.8572C37.4775 85.0433 37.6989 85.2617 37.8884 85.5065C38.0888 85.7687 38.2656 86.0482 38.4167 86.3416C38.7009 85.753 39.1253 85.2433 39.6526 84.8572C40.269 84.4455 41.0011 84.2423 41.7415 84.2773C42.2094 84.2759 42.6721 84.3752 43.0982 84.5684C43.5195 84.761 43.8996 85.0331 44.2177 85.3699C44.5466 85.7187 44.8064 86.1266 44.9834 86.5722C45.1774 87.0514 45.2755 87.5641 45.2722 88.0812V88.0812Z" fill="white"/>
<path d="M53.3745 92.3806V94.1359C53.1785 94.2732 52.9625 94.3797 52.7342 94.4516C52.52 94.5226 52.3007 94.5772 52.0782 94.615C51.5034 94.7196 50.913 94.702 50.3453 94.5635C50.0815 94.4948 49.8289 94.3885 49.5953 94.2478C49.3979 94.1293 49.2222 93.9779 49.0759 93.8001C48.9436 93.6368 48.8295 93.4596 48.7356 93.2717C48.5224 92.8304 48.4114 92.3468 48.4109 91.8567V86.2595H47.0811V84.7931C47.2486 84.7682 47.414 84.7308 47.5758 84.6811C47.7624 84.6236 47.9402 84.5407 48.1042 84.4348C48.3955 84.2571 48.6451 84.0189 48.8363 83.7363C49.0064 83.4886 49.1469 83.2219 49.255 82.9415C49.3411 82.7248 49.4041 82.4997 49.4431 82.2699C49.4699 82.0706 49.4856 81.943 49.4856 81.8848H50.8827C50.8827 82.3325 50.9006 82.7803 50.9006 83.2281C50.9006 83.6759 50.9006 84.1236 50.9185 84.5714H53.2805V86.2774H50.9342C50.97 89.3805 50.9871 91.2052 50.9856 91.7515C50.9891 91.8544 51.0003 91.957 51.0192 92.0582C51.046 92.2023 51.1182 92.3341 51.2252 92.4343C51.3543 92.5734 51.5309 92.6589 51.72 92.6739C51.9269 92.6963 52.1355 92.6963 52.3424 92.6739C52.545 92.6533 52.7447 92.6105 52.9379 92.5463L53.3745 92.3806Z" fill="white"/>
<path d="M64.1528 89.4961V89.7536C64.1524 89.833 64.1464 89.9123 64.1349 89.9909H56.6996C56.7515 90.7195 57.0454 91.4098 57.5347 91.9521C58.0018 92.4432 58.6444 92.688 59.4623 92.6865C60.013 92.7148 60.5579 92.5623 61.0139 92.2521C61.4286 91.9248 61.7473 91.4917 61.9363 90.9984L63.8975 91.2715C63.768 91.7645 63.5609 92.2338 63.2841 92.6619C63.0126 93.0747 62.6717 93.4375 62.2766 93.7343C61.86 94.0458 61.3926 94.2828 60.8952 94.435C60.3371 94.6039 59.7566 94.6869 59.1735 94.6813C58.5148 94.6857 57.8611 94.5673 57.2459 94.3321C56.658 94.1079 56.124 93.7623 55.6786 93.3178C55.2206 92.8514 54.8619 92.2969 54.6241 91.688C54.3523 90.9898 54.2192 90.2452 54.2323 89.4961C54.2237 88.7707 54.3537 88.0503 54.6152 87.3736C54.8491 86.7647 55.206 86.2104 55.6636 85.7455C56.1213 85.2806 56.6698 84.9149 57.275 84.6713C57.9005 84.4173 58.5701 84.2895 59.2452 84.2952C59.9824 84.2791 60.7148 84.4187 61.3945 84.7049C61.982 84.9615 62.5062 85.3436 62.9304 85.8243C63.3467 86.3039 63.66 86.8641 63.8505 87.4699C64.056 88.1255 64.158 88.8091 64.1528 89.4961V89.4961ZM61.9139 88.4573C61.8115 87.8208 61.5206 87.2297 61.0788 86.7602C60.5979 86.3264 59.9734 86.0864 59.3258 86.0864C58.6782 86.0864 58.0536 86.3264 57.5727 86.7602C57.1361 87.2321 56.8487 87.8225 56.7466 88.4573H61.9139Z" fill="white"/>
<path d="M70.5646 92.7631C70.8851 92.7768 71.2051 92.7242 71.5044 92.6087C71.8037 92.4931 72.076 92.317 72.3042 92.0915C72.7614 91.6249 73.0726 91.0351 73.1997 90.3944L75.2147 90.6183C75.118 91.1776 74.9424 91.7204 74.6931 92.2303C74.4555 92.7156 74.1254 93.1499 73.7214 93.5087C73.3003 93.8771 72.8145 94.1641 72.2885 94.355C71.6781 94.569 71.0345 94.6728 70.3877 94.6617C69.6962 94.669 69.0105 94.5349 68.3727 94.2676C67.7807 94.0162 67.2471 93.645 66.8055 93.1773C66.3582 92.7012 66.0084 92.1422 65.7756 91.5317C65.2831 90.2143 65.2831 88.7633 65.7756 87.4458C66.0083 86.8307 66.3615 86.2682 66.8145 85.7913C67.2639 85.3183 67.8017 84.938 68.3973 84.6718C69.032 84.3927 69.7191 84.253 70.4123 84.2621C71.0384 84.2551 71.6603 84.3652 72.246 84.5868C72.7801 84.793 73.2713 85.0967 73.6945 85.4823C74.1122 85.8661 74.4586 86.3209 74.7177 86.8256C74.9871 87.3523 75.1687 87.9195 75.255 88.5048L73.2602 88.6929C73.1796 88.0034 72.8807 87.3578 72.4072 86.8503C72.1704 86.615 71.8874 86.4314 71.576 86.3111C71.2646 86.1909 70.9316 86.1366 70.5981 86.1517C70.1817 86.1418 69.7685 86.226 69.3892 86.398C69.0525 86.5593 68.7575 86.796 68.5272 87.0898C68.2867 87.399 68.1102 87.7529 68.0078 88.1309C67.8892 88.558 67.8312 88.9996 67.8354 89.4429C67.8318 89.885 67.8952 90.325 68.0234 90.7481C68.1369 91.1298 68.3223 91.4862 68.5697 91.7982C68.7924 92.094 69.0756 92.339 69.4004 92.5169C69.7638 92.689 70.1626 92.7733 70.5646 92.7631V92.7631Z" fill="white"/>
<path d="M85.899 94.5539H83.4766V88.5089C83.4757 88.2529 83.4326 87.9987 83.349 87.7567C83.267 87.5097 83.1368 87.2814 82.9661 87.085C82.7814 86.883 82.5574 86.7207 82.3079 86.6081C82.01 86.4763 81.6865 86.412 81.3608 86.4201C80.8278 86.4211 80.3133 86.6152 79.9123 86.9663C79.7155 87.1417 79.5583 87.3569 79.4511 87.5977C79.3347 87.8605 79.2766 88.1454 79.2809 88.4328V94.5539H76.7891V80.9863H79.2787V86.3081C79.3322 86.029 79.4554 85.7679 79.6369 85.5492C79.8412 85.2942 80.0863 85.0748 80.3623 84.8999C80.6589 84.7088 80.9796 84.5582 81.3161 84.4521C82.1109 84.2086 82.9649 84.2418 83.7385 84.5461C84.16 84.712 84.5415 84.9653 84.858 85.2894C85.1886 85.6321 85.4468 86.038 85.6169 86.4828C85.8126 86.9973 85.9083 87.5444 85.899 88.0947V94.5539Z" fill="white"/>
<path d="M97.4238 93.1146L101.073 82.7441H103.984L98.635 96.3117H96.1946L90.8057 82.7441H93.7162L97.4238 93.1146Z" fill="white"/>
<path d="M110.611 94.7444C110.436 94.979 110.242 95.1991 110.031 95.4026C109.806 95.6203 109.55 95.8043 109.272 95.9489C108.958 96.1108 108.626 96.2334 108.282 96.3138C107.866 96.4105 107.44 96.4563 107.013 96.4504C106.615 96.4524 106.22 96.3865 105.844 96.2556C105.487 96.1319 105.157 95.9404 104.873 95.6914C104.591 95.4482 104.362 95.1494 104.201 94.8138C104.032 94.4572 103.947 94.0666 103.952 93.672C103.948 93.3096 104.024 92.9508 104.176 92.6219C104.31 92.3325 104.494 92.0694 104.72 91.8451C104.941 91.6311 105.191 91.4502 105.464 91.3077C105.726 91.1706 105.999 91.0568 106.281 90.9674C106.554 90.8823 106.807 90.8152 107.04 90.7637L107.613 90.6361C108.193 90.5107 108.717 90.4122 109.18 90.3361C109.644 90.2599 110.105 90.1793 110.537 90.0898C110.535 89.848 110.504 89.6074 110.443 89.3733C110.382 89.1277 110.275 88.8959 110.127 88.6905C109.969 88.4776 109.764 88.3031 109.529 88.18C109.234 88.0326 108.906 87.9617 108.576 87.974C108.275 87.9656 107.977 88.0269 107.705 88.1532C107.481 88.265 107.279 88.4167 107.109 88.6009C106.951 88.7739 106.829 88.9773 106.751 89.1987C106.674 89.4052 106.622 89.6202 106.597 89.839L105.477 89.736C105.119 89.7025 104.747 89.6733 104.358 89.651C104.411 89.1562 104.549 88.6744 104.767 88.227C104.981 87.791 105.279 87.4021 105.645 87.083C106.03 86.752 106.472 86.4947 106.95 86.324C107.493 86.1352 108.064 86.0428 108.638 86.0508C109.25 86.0379 109.859 86.1452 110.429 86.3665C110.907 86.5544 111.343 86.8361 111.71 87.1949C112.042 87.5236 112.305 87.9147 112.485 88.3457C112.657 88.753 112.747 89.1906 112.749 89.633V93.9317C112.741 94.0253 112.754 94.1194 112.787 94.2076C112.819 94.2957 112.871 94.3757 112.937 94.4422C113.057 94.5573 113.208 94.6351 113.371 94.666C113.535 94.6963 113.703 94.6963 113.866 94.666C114.004 94.6436 114.136 94.5909 114.251 94.5116V95.9444H114.267C114.081 96.1111 113.867 96.2438 113.636 96.3362C113.357 96.4363 113.062 96.4826 112.767 96.4728C112.458 96.4817 112.151 96.4181 111.871 96.287C111.419 96.0665 111.046 95.7114 110.803 95.2705C110.719 95.1034 110.654 94.9268 110.611 94.7444V94.7444ZM106.415 93.2779C106.407 93.432 106.431 93.586 106.483 93.7309C106.536 93.8759 106.617 94.0088 106.722 94.122C106.932 94.3349 107.198 94.4832 107.49 94.5496C107.812 94.6231 108.146 94.6292 108.47 94.5675C108.807 94.5091 109.126 94.3718 109.4 94.1668C109.809 93.8933 110.127 93.5034 110.313 93.0473C110.478 92.5418 110.554 92.0115 110.537 91.4801C110.087 91.609 109.628 91.7033 109.164 91.7622C108.712 91.8184 108.263 91.9036 107.821 92.0175C107.459 92.1055 107.114 92.2571 106.805 92.4652C106.678 92.5561 106.576 92.6768 106.507 92.8166C106.439 92.9564 106.405 93.111 106.411 93.2667L106.415 93.2779Z" fill="white"/>
<path d="M118.333 94.1713C118.462 94.31 118.639 94.3955 118.828 94.4109C119.034 94.4333 119.243 94.4333 119.45 94.4109C119.653 94.3901 119.854 94.3473 120.048 94.2833L120.482 94.1378V95.893C120.289 96.0299 120.076 96.1363 119.851 96.2087C119.64 96.2802 119.423 96.3349 119.204 96.3722C118.629 96.4768 118.038 96.4592 117.471 96.3207C117.207 96.2519 116.954 96.1456 116.721 96.005C116.522 95.8848 116.344 95.7336 116.192 95.5572C116.057 95.3947 115.94 95.2174 115.843 95.0288C115.631 94.5872 115.52 94.1038 115.519 93.6139V82.7441H118.044C118.044 83.177 118.044 83.7315 118.044 84.4076C118.044 85.0793 118.044 85.8069 118.062 86.5726C118.08 87.3383 118.073 88.1174 118.08 88.901C118.087 89.6846 118.08 90.4056 118.08 91.0593V93.4885C118.084 93.5915 118.096 93.694 118.116 93.7952C118.145 93.9409 118.221 94.0729 118.333 94.1713V94.1713Z" fill="white"/>
<path d="M124.456 94.1713C124.585 94.31 124.761 94.3955 124.95 94.4109C125.157 94.4333 125.366 94.4333 125.573 94.4109C125.776 94.3901 125.976 94.3473 126.171 94.2833L126.605 94.1378V95.893C126.411 96.029 126.198 96.1354 125.974 96.2087C125.763 96.2802 125.546 96.3349 125.326 96.3722C124.752 96.4735 124.162 96.4529 123.596 96.3117C123.332 96.243 123.079 96.1367 122.846 95.996C122.647 95.8764 122.468 95.7252 122.317 95.5483C122.18 95.3868 122.063 95.2094 121.968 95.0199C121.755 94.5786 121.644 94.095 121.644 93.6049V82.7441H124.169C124.169 83.177 124.169 83.7315 124.169 84.4076C124.169 85.0793 124.169 85.8069 124.187 86.5726C124.205 87.3383 124.198 88.1174 124.205 88.901C124.212 89.6846 124.205 90.4056 124.205 91.0593V93.4885C124.208 93.5916 124.22 93.6942 124.241 93.7952C124.27 93.9406 124.345 94.0726 124.456 94.1713V94.1713Z" fill="white"/>
<path d="M137.11 91.2539V91.5114C137.11 91.5907 137.105 91.67 137.094 91.7487H129.657C129.709 92.4777 130.003 93.1684 130.494 93.7099C130.96 94.201 131.602 94.4458 132.42 94.4443C132.971 94.4723 133.517 94.3198 133.973 94.0099C134.387 93.6818 134.705 93.2488 134.894 92.7562L136.855 93.0293C136.726 93.5226 136.519 93.9921 136.241 94.4196C135.97 94.8325 135.629 95.1953 135.234 95.4921C134.818 95.8041 134.35 96.0413 133.853 96.1928C133.294 96.3619 132.714 96.4449 132.131 96.4391C131.472 96.4435 130.818 96.3251 130.203 96.0898C129.615 95.8656 129.081 95.5201 128.636 95.0756C128.178 94.6088 127.818 94.0545 127.579 93.4457C127.307 92.7475 127.174 92.003 127.187 91.2539C127.179 90.5285 127.309 89.8081 127.57 89.1314C127.804 88.5221 128.161 87.9676 128.619 87.5026C129.077 87.0377 129.627 86.6722 130.232 86.4291C130.857 86.1751 131.526 86.0472 132.2 86.053C132.935 86.0371 133.665 86.176 134.343 86.4605C134.931 86.7165 135.455 87.0987 135.879 87.5799C136.296 88.0589 136.609 88.6192 136.799 89.2255C137.009 89.881 137.114 90.5656 137.11 91.2539ZM134.871 90.215C134.77 89.5783 134.479 88.9868 134.036 88.518C133.556 88.0844 132.931 87.8444 132.284 87.8444C131.637 87.8444 131.013 88.0844 130.532 88.518C130.094 88.9892 129.806 89.5798 129.704 90.215H134.871Z" fill="white"/>
<path d="M138.749 97.5654C138.865 97.6178 138.989 97.6526 139.116 97.6684C139.338 97.7026 139.564 97.7079 139.787 97.684C140.023 97.6763 140.253 97.6193 140.465 97.5167C140.677 97.4141 140.865 97.2682 141.017 97.0885C141.306 96.7195 141.456 96.2608 141.442 95.7922L137.589 86.165H140.334L142.796 93.7391L145.219 86.165H148L143.667 97.2184C143.386 97.9525 142.963 98.6242 142.423 99.1953C142.179 99.4381 141.888 99.6286 141.568 99.7549C141.248 99.8812 140.906 99.9406 140.562 99.9296C140.289 99.9296 139.973 99.914 139.617 99.8871C139.318 99.8699 139.025 99.7938 138.755 99.6632L138.749 97.5654Z" fill="white"/>
<path d="M31.4512 69.3293C31.4512 47.3704 31.5026 25.9467 31.384 4.52514C31.3706 2.01312 32.0288 1.44669 34.4512 1.47355C45.9792 1.60117 57.5116 1.53177 69.0553 1.53177C68.4261 6.42146 68.2179 6.61176 63.6148 6.614C55.7049 6.614 47.7882 6.76625 39.8827 6.53565C36.9968 6.45281 36.5491 7.39538 36.5737 10.0126C36.7058 24.7354 36.3744 39.465 36.7685 54.1789C36.9252 59.9484 35.161 64.5605 31.4512 69.3293Z" fill="white"/>
<path d="M118.951 69.3293C118.951 47.3704 118.899 25.9467 119.018 4.52514C119.031 2.01312 118.373 1.44669 115.953 1.47355C104.425 1.60117 92.8925 1.53177 81.3467 1.53177C81.9758 6.42146 82.1863 6.61176 86.7872 6.614C94.6971 6.614 102.614 6.76625 110.519 6.53565C113.405 6.45281 113.853 7.39538 113.828 10.0126C113.696 24.7354 114.028 39.465 113.633 54.1789C113.479 59.9484 115.252 64.5605 118.951 69.3293Z" fill="white"/>
<path d="M113.707 66.199C111.083 66.199 108.558 66.1811 106.023 66.2124C105.423 66.2124 105.219 65.8945 104.962 65.4512C99.1924 55.4681 93.3713 45.5073 87.6354 35.5018C87.0107 34.4115 86.3793 33.9615 85.1032 34.0309C83.6502 34.1092 82.4165 34.0712 80.9747 34.0309C80.5185 33.7528 80.0904 33.4311 79.6963 33.0704C78.559 32.083 77.1888 31.8233 75.7872 32.6002C74.3857 33.3771 73.8014 34.5615 73.9379 36.0996C74.0745 37.6377 75.0865 38.5019 76.4522 38.9676C77.6679 39.3773 78.8545 39.1915 79.7232 38.2041C80.0369 37.8381 80.4167 37.5343 80.8426 37.3086C81.7158 37.3086 82.5912 37.3086 83.4621 37.2839C84.333 37.2593 84.9106 37.528 85.3472 38.2847C90.6578 47.5335 95.9819 56.7733 101.438 66.2505C98.5969 66.2505 95.9371 66.2773 93.2773 66.2303C92.74 66.2303 92.6258 65.5788 92.3818 65.1781C88.6451 58.7391 84.8927 52.3068 81.2143 45.8364C80.7083 44.9409 80.1732 44.6857 79.1993 44.6633C77.5873 44.6274 75.8902 44.5737 72.8879 44.6454C72.5989 44.436 72.3209 44.2118 72.055 43.9737C70.9154 42.9864 69.5475 42.7266 68.146 43.5035C66.7444 44.2804 66.1601 45.4625 66.2967 47.0029C66.4332 48.5432 67.4452 49.4052 68.8109 49.8686C70.0266 50.2806 71.2132 50.0925 72.0797 49.1074C72.3989 48.7324 72.7893 48.4242 73.2282 48.2007C73.4297 48.2007 73.6312 48.1873 73.8327 48.1761C77.3791 48.0104 79.3112 48.8746 80.8851 52.0739C83.2315 56.8472 86.1308 61.3429 88.8331 66.0221C88.269 66.4318 87.6913 66.2908 87.154 66.293C71.0237 66.3244 54.8926 66.3505 38.7608 66.3714C37.1824 66.3714 37.1801 66.3714 37.9189 65.084C50.2163 43.761 62.5145 22.4395 74.8133 1.11944C75.0059 0.788083 75.223 0.470163 75.5208 0L88.7996 23.0604C86.1129 23.0604 83.6905 23.1096 81.2702 23.0335C80.3165 23.0044 79.8195 22.1917 79.3829 21.4171C78.1627 19.2454 76.9201 17.0804 75.5454 14.6266C74.2021 16.9192 72.9998 18.9543 71.8155 21.0051C64.7765 33.2025 57.7389 45.4021 50.7029 57.6039C49.9193 58.9652 49.9148 58.9652 51.4149 58.9764C57.874 59.0189 64.3354 58.9182 70.7968 59.0144C71.138 59.225 71.4453 59.4862 71.708 59.7891C72.5722 60.7764 73.7611 60.9623 74.9768 60.5526C76.3425 60.0891 77.3545 59.2249 77.491 57.6845C77.6276 56.1442 77.0097 54.9397 75.6417 54.1874C74.2738 53.4352 72.8722 53.6703 71.7326 54.6576C71.416 54.9402 71.0825 55.2034 70.7341 55.4457C66.3414 55.4457 61.951 55.4457 57.5628 55.4457H55.8031C62.4234 43.9961 68.9161 32.7502 75.5298 21.3096C76.3626 22.7425 77.1641 23.938 77.7686 25.2276C78.3037 26.3471 79.0649 26.6739 80.2672 26.6471C83.4016 26.5687 86.5361 26.6359 89.6548 26.6068C90.5034 26.6068 91.1034 26.8418 91.5444 27.6143C98.8476 40.3161 106.161 53.0135 113.485 65.7064C113.559 65.8206 113.6 65.9482 113.707 66.199Z" fill="#F7A41C"/>
<g style="mix-blend-mode:multiply">
<path style="mix-blend-mode:multiply" d="M137.528 10.2981C137.212 11.2359 137.051 12.2189 137.052 13.2086H134C133.999 11.6685 134.29 10.1422 134.857 8.71069C135.905 8.91266 136.85 9.47407 137.528 10.2981V10.2981ZM140.105 2.63887C139.125 3.20834 138.229 3.91052 137.441 4.7255C137.064 5.11489 136.713 5.52928 136.391 5.96583C137.375 6.29187 138.281 6.81525 139.055 7.50394C139.375 7.10302 139.726 6.72864 140.105 6.3845C141.786 4.87923 143.964 4.04903 146.22 4.05383V1.00002C144.073 0.996568 141.963 1.56204 140.105 2.63887V2.63887Z" fill="url(#paint0_linear_364_3503)"/>
<path style="mix-blend-mode:multiply" d="M140.105 8.63937C139.112 9.95721 138.576 11.5632 138.578 13.2134C138.577 12.1481 138.205 11.1166 137.526 10.2958C136.847 9.47501 135.904 8.91626 134.857 8.71549C134.575 8.66121 134.288 8.63423 134 8.63489V5.58107C135.864 5.57789 137.664 6.26178 139.055 7.50202C139.443 7.84412 139.795 8.22524 140.105 8.63937V8.63937Z" fill="url(#paint1_linear_364_3503)"/>
<path style="mix-blend-mode:multiply" d="M146.22 5.58106V8.63489C145.931 8.63423 145.643 8.66122 145.36 8.71548C144.967 7.73703 144.45 6.81304 143.822 5.96615C144.595 5.71006 145.405 5.58004 146.22 5.58106V5.58106ZM141.162 7.50201C140.352 8.21718 139.704 9.09618 139.26 10.0808C138.815 11.0654 138.585 12.1332 138.585 13.2134H141.639C141.638 12.15 142.011 11.1201 142.691 10.3028C142.347 9.28646 141.827 8.33843 141.155 7.50201H141.162Z" fill="url(#paint2_linear_364_3503)"/>
<path style="mix-blend-mode:multiply" d="M146.22 13.2131H143.159C143.158 11.9253 142.885 10.6521 142.359 9.47673C141.833 8.30132 141.065 7.24997 140.105 6.39122C140.89 5.686 141.792 5.1224 142.77 4.7255C143.148 5.11357 143.5 5.52724 143.822 5.96359C144.448 6.81155 144.963 7.73628 145.353 8.71517C145.924 10.1461 146.218 11.6724 146.22 13.2131ZM134.007 1.00002V4.05383C135.186 4.05291 136.355 4.28102 137.448 4.7255C138.236 3.91053 139.132 3.20834 140.112 2.63887C138.255 1.56202 136.146 0.996537 134 1.00002H134.007Z" fill="url(#paint3_linear_364_3503)"/>
</g>
<defs>
<linearGradient id="paint0_linear_364_3503" x1="146.213" y1="7.10766" x2="134" y2="7.10766" gradientUnits="userSpaceOnUse">
<stop stop-color="#2E2E30" stop-opacity="0.07"/>
<stop offset="0.93" stop-color="#2E2E30" stop-opacity="0.28"/>
<stop offset="1" stop-color="#2E2E30" stop-opacity="0.3"/>
</linearGradient>
<linearGradient id="paint1_linear_364_3503" x1="134.025" y1="5.5542" x2="140.132" y2="11.6618" gradientUnits="userSpaceOnUse">
<stop stop-color="#2E2E30" stop-opacity="0.21"/>
<stop offset="1" stop-color="#2E2E30" stop-opacity="0.3"/>
</linearGradient>
<linearGradient id="paint2_linear_364_3503" x1="142.396" y1="5.58106" x2="142.396" y2="13.2134" gradientUnits="userSpaceOnUse">
<stop stop-color="#2E2E30" stop-opacity="0.07"/>
<stop offset="0.93" stop-color="#2E2E30" stop-opacity="0.28"/>
<stop offset="1" stop-color="#2E2E30" stop-opacity="0.3"/>
</linearGradient>
<linearGradient id="paint3_linear_364_3503" x1="135.981" y1="-0.144048" x2="144.323" y2="14.3056" gradientUnits="userSpaceOnUse">
<stop stop-color="#2E2E30" stop-opacity="0.21"/>
<stop offset="1" stop-color="#2E2E30" stop-opacity="0.3"/>
</linearGradient>
</defs>
</svg>
