<svg xmlns="http://www.w3.org/2000/svg" viewBox="0 0 1254 341.49"><defs><style>.cls-1{fill:#996557;}.cls-2{fill:#996558;}.cls-3{fill:#9b6559;}.cls-4,.cls-5{fill:#42413f;}.cls-5{stroke:#42413f;stroke-miterlimit:10;stroke-width:0.69px;}</style></defs><g id="Layer_2" data-name="Layer 2"><g id="Layer_1-2" data-name="Layer 1"><path class="cls-1" d="M249.7.33c23.55-.58,47.14.11,70.71-.33,11.92.22,23.88,0,35.78.69,7.87,0,10.89,10.62,6.57,16.2-1.69,2.74-5,3.38-8,3.43-30.66,1.2-61.33-.13-92,.42-5.82.07-11.77.45-17.44-1.09-6.18-2.4-7.25-11.43-3.13-16.12C244,1.3,247,.67,249.7.33Z"/><path class="cls-2" d="M285.52,50a106.27,106.27,0,0,1,62.05,8.8,109.62,109.62,0,0,1,45.9,40.91,113.55,113.55,0,0,1,16.09,75.59,111.18,111.18,0,0,1-24.62,56.17c-17.57,21.41-43.65,35.86-71.27,38.62a106.7,106.7,0,0,1-59.41-10.76,109.73,109.73,0,0,1-50.71-53.76c-10-22.26-12-47.74-6.85-71.51C206.24,91.85,242.25,56.1,285.52,50Zm2.73,43.83c-29.28,6.33-50.9,35.2-50.86,64.82-.52,19,7.63,37.79,21.3,50.86a63.23,63.23,0,0,0,42.61,17.7,64.23,64.23,0,0,0,45-18A69.07,69.07,0,0,0,367,155.86c-1-24.55-16.46-48.29-39.16-58.13A62.13,62.13,0,0,0,288.25,93.8Z"/><path class="cls-3" d="M297.67,147c7.09-3.06,17.44.42,18.55,8.81,2.91,10.24-10.29,19.91-19.1,13.79C288.51,165.28,288.6,150.78,297.67,147Z"/><path class="cls-4" d="M52.37,156.74c20.86-9.47,44.68-11.82,67.19-8.06,21.92,3.7,42.87,14.76,56.75,32.36-10.9,10-21.78,19.92-32.79,29.73-7.67-8.74-17.1-16.52-28.59-19.42-17.49-4.82-37.76,0-50.28,13.37-17,19.27-17.33,50.91-.86,70.61C78.62,292.26,105.36,296,125,285.63c7.2-3.7,13-9.49,18.68-15.16,11.17,9.52,21.6,19.88,32.84,29.33a90.83,90.83,0,0,1-54.82,32.07c-24.6,4.27-50.92,1.93-73.32-9.62A86.9,86.9,0,0,1,8.71,281a99.11,99.11,0,0,1-.44-80.27C17,181.29,33.18,165.66,52.37,156.74Z"/><path class="cls-4" d="M431.79,151.41c29.23.22,58.45-.24,87.67.24,20.43.82,41.91,6.86,56.4,22,10.86,10.73,16,26.1,16.36,41.17.18,11.65-1.36,23.76-7.26,34-6.12,10.88-16,19.2-26.8,25.14,12.61,18.69,25.57,37.16,38.19,55.86-18.43-.14-36.86.35-55.28-.38-10.18-15.89-21.11-31.27-31.66-46.9-9,0-18.07-.15-27.1.15.6,15.7.13,31.41.27,47.13-16.89.09-33.79-.22-50.67.23-.08-32-.57-63.94-.41-95.93C432.08,206.6,431.69,179,431.79,151.41Zm50.48,40.35c.53,17.16.45,34.33.08,51.48,15.44-.55,31.74,2.43,46.38-3.88,16.68-8.14,16.5-36-.23-44C513.87,189.13,497.65,192.37,482.27,191.76Z"/><path class="cls-4" d="M627.81,151.44c46.6,0,93.21.13,139.81,0,.31,13.15.27,26.31.06,39.47-29.84-.33-59.67,0-89.51-.18.09,9.92,0,19.84,0,29.77,26.27-.47,52.53.2,78.8-.21.29,12.72.07,25.43.14,38.15q-39.46,0-78.94,0,0,15.9,0,31.85,46.31,0,92.61,0,0,19.8,0,39.62c-47.68-.1-95.36,0-143-.06Q627.83,240.66,627.81,151.44Z"/><path class="cls-2" d="M839,282.35H827.94l-4.4-11.45H803.38l-4.16,11.45h-10.8l19.64-50.43h10.77Zm-18.75-20-6.95-18.72-6.81,18.72Z"/><path class="cls-2" d="M844.53,282.35V231.92h9.9l20.65,33.68V231.92h9.46v50.43H874.32L854,249.46v32.89Z"/><path class="cls-2" d="M918.77,263.81v-8.5h22V275.4a27.62,27.62,0,0,1-9.28,5.46,33.69,33.69,0,0,1-12.29,2.35,27.53,27.53,0,0,1-13.8-3.32,21.06,21.06,0,0,1-8.84-9.49,30.75,30.75,0,0,1-3-13.44,29,29,0,0,1,3.3-14,22.27,22.27,0,0,1,9.67-9.39,26.14,26.14,0,0,1,12.08-2.51q9.39,0,14.67,3.94a17.75,17.75,0,0,1,6.79,10.89L930,247.78a10.71,10.71,0,0,0-4-5.87,12.13,12.13,0,0,0-7.34-2.15q-6.68,0-10.62,4.23T904,256.55q0,9,4,13.47a13.34,13.34,0,0,0,10.46,4.49,17.5,17.5,0,0,0,6.42-1.26,22,22,0,0,0,5.52-3v-6.4Z"/><path class="cls-2" d="M950.11,282.35V231.92H987.5v8.53H960.29v11.18h25.32v8.5H960.29v13.73h28.18v8.49Z"/><path class="cls-2" d="M997.38,282.35v-50h10.18v41.53h25.32v8.49Z"/><path class="cls-2" d="M1037.56,265.94l9.91-1q.88,5,3.63,7.33a11,11,0,0,0,7.38,2.34c3.28,0,5.75-.7,7.41-2.08a6.2,6.2,0,0,0,2.49-4.87,4.61,4.61,0,0,0-1.05-3.05,8.4,8.4,0,0,0-3.66-2.18c-1.19-.41-3.91-1.15-8.15-2.2q-8.19-2-11.49-5a13.13,13.13,0,0,1-4.65-10.15,13,13,0,0,1,2.19-7.21,13.68,13.68,0,0,1,6.29-5.11,25.24,25.24,0,0,1,9.93-1.75q9.49,0,14.29,4.16a14.7,14.7,0,0,1,5,11.11l-10.18.45q-.66-3.89-2.8-5.59t-6.46-1.7a11.65,11.65,0,0,0-6.94,1.82,3.67,3.67,0,0,0-1.62,3.13,3.86,3.86,0,0,0,1.51,3.06q1.93,1.62,9.36,3.37a49.38,49.38,0,0,1,11,3.63,14.09,14.09,0,0,1,5.57,5.13,15.84,15.84,0,0,1-.39,16.15,14.46,14.46,0,0,1-6.81,5.63,28.75,28.75,0,0,1-11,1.84q-9.55,0-14.69-4.42T1037.56,265.94Z"/><path class="cls-2" d="M791.86,331.71V298.45h6.63L806.36,322q1.1,3.28,1.59,4.92.57-1.82,1.77-5.33l8-23.14h5.92v33.26h-4.24V303.87l-9.66,27.84h-4l-9.62-28.32v28.32Z"/><path class="cls-2" d="M830.8,331.71V298.45h24.05v3.92H835.2v10.19h18.4v3.9H835.2v11.32h20.42v3.93Z"/><path class="cls-2" d="M858.05,331.71l12.77-33.26h4.74l13.61,33.26h-5l-3.88-10.08H866.37l-3.65,10.08Zm9.59-13.66h11.28l-3.47-9.21q-1.59-4.2-2.36-6.9a43.32,43.32,0,0,1-1.79,6.35Z"/><path class="cls-2" d="M906.28,331.71h-3.79V298.45h4.09v11.86a8.07,8.07,0,0,1,6.6-3.24,10.26,10.26,0,0,1,4.21.89,8.61,8.61,0,0,1,3.26,2.52,12,12,0,0,1,2,3.92,15.91,15.91,0,0,1,.73,4.9q0,6.19-3.07,9.57a9.55,9.55,0,0,1-7.35,3.38,7.66,7.66,0,0,1-6.69-3.56Zm0-12.23q0,4.33,1.18,6.26a5.84,5.84,0,0,0,9.84.83q1.95-2.32,2-6.93t-1.87-7a5.72,5.72,0,0,0-4.52-2.24,5.86,5.86,0,0,0-4.63,2.32Q906.24,315.08,906.24,319.48Z"/><path class="cls-2" d="M928.18,341l-.46-3.84a8.78,8.78,0,0,0,2.34.37,4.53,4.53,0,0,0,2.18-.46,3.59,3.59,0,0,0,1.33-1.27,19.15,19.15,0,0,0,1.25-3c.08-.23.2-.56.37-1L926,307.61h4.4l5,14q1,2.65,1.74,5.58a54.6,54.6,0,0,1,1.68-5.49L944,307.61h4.09L939,332.12a48,48,0,0,1-2.29,5.46,8.11,8.11,0,0,1-2.5,3,5.91,5.91,0,0,1-3.35.94A8.19,8.19,0,0,1,928.18,341Z"/><path class="cls-5" d="M963.68,315.51q0-8.28,4.45-13a15.12,15.12,0,0,1,11.48-4.68,15.87,15.87,0,0,1,8.3,2.2,14.3,14.3,0,0,1,5.64,6.13,20,20,0,0,1,1.94,8.93,19.65,19.65,0,0,1-2,9.06,13.92,13.92,0,0,1-5.79,6,16.47,16.47,0,0,1-8.07,2,15.78,15.78,0,0,1-8.4-2.26,14.66,14.66,0,0,1-5.6-6.2A18.74,18.74,0,0,1,963.68,315.51Zm4.54.07q0,6,3.23,9.47a11.27,11.27,0,0,0,16.29,0q3.21-3.48,3.21-9.91a17,17,0,0,0-1.37-7.09,10.57,10.57,0,0,0-4-4.7,11,11,0,0,0-5.94-1.66,11.25,11.25,0,0,0-8,3.21Q968.22,308.07,968.22,315.58Z"/><path class="cls-5" d="M1001.23,331.71V298.45H1016a19.84,19.84,0,0,1,6.76.89,7.47,7.47,0,0,1,3.7,3.17,9.44,9.44,0,0,1,1.38,5,8.36,8.36,0,0,1-2.29,6q-2.29,2.43-7.08,3.08a11.62,11.62,0,0,1,2.66,1.66,23.13,23.13,0,0,1,3.65,4.43l5.78,9H1025l-4.4-6.92q-1.93-3-3.18-4.59a10.2,10.2,0,0,0-2.23-2.22,6.56,6.56,0,0,0-2-.88,12.87,12.87,0,0,0-2.45-.16h-5.11v14.77Zm4.4-18.58h9.46a14,14,0,0,0,4.72-.63,5,5,0,0,0,2.59-2,5.41,5.41,0,0,0,.88-3,5,5,0,0,0-1.71-3.88c-1.14-1-3-1.52-5.41-1.52h-10.53Z"/><path class="cls-5" d="M1033.38,315.51q0-8.28,4.45-13a15.12,15.12,0,0,1,11.48-4.68,15.87,15.87,0,0,1,8.3,2.2,14.3,14.3,0,0,1,5.64,6.13,20,20,0,0,1,1.94,8.93,19.65,19.65,0,0,1-2,9.06,13.92,13.92,0,0,1-5.79,6,16.51,16.51,0,0,1-8.08,2,15.74,15.74,0,0,1-8.39-2.26,14.6,14.6,0,0,1-5.6-6.2A18.74,18.74,0,0,1,1033.38,315.51Zm4.54.07q0,6,3.23,9.47a11.27,11.27,0,0,0,16.29,0q3.21-3.48,3.21-9.91a17.11,17.11,0,0,0-1.37-7.09,10.59,10.59,0,0,0-4-4.7,10.89,10.89,0,0,0-5.93-1.66,11.23,11.23,0,0,0-8,3.21Q1037.92,308.07,1037.92,315.58Z"/><path class="cls-2" d="M1083.77,331.71V298.45h12.55a30.69,30.69,0,0,1,5.06.31,10,10,0,0,1,4.1,1.56,8,8,0,0,1,2.67,3.21,10.83,10.83,0,0,1-1.69,11.72q-2.7,2.94-9.76,2.94h-8.53v13.52Zm4.4-17.45h8.6q4.26,0,6.06-1.59a5.68,5.68,0,0,0,1.79-4.47,6,6,0,0,0-1-3.57,4.92,4.92,0,0,0-2.78-2,18.51,18.51,0,0,0-4.11-.3h-8.51Z"/><path class="cls-2" d="M1130,328.74a15.26,15.26,0,0,1-4.36,2.72,12.62,12.62,0,0,1-4.51.79,8.73,8.73,0,0,1-6.1-1.94,6.39,6.39,0,0,1-2.13-4.95,6.7,6.7,0,0,1,2.91-5.59,9.84,9.84,0,0,1,2.94-1.33,27.91,27.91,0,0,1,3.63-.62,37.32,37.32,0,0,0,7.28-1.4c0-.56,0-.92,0-1.07a4.53,4.53,0,0,0-1.16-3.52,6.85,6.85,0,0,0-4.65-1.38,7.27,7.27,0,0,0-4.26,1,6.18,6.18,0,0,0-2,3.57l-4-.54a9.86,9.86,0,0,1,1.79-4.14,7.9,7.9,0,0,1,3.61-2.43,16,16,0,0,1,5.47-.85,14.56,14.56,0,0,1,5,.72,6.72,6.72,0,0,1,2.84,1.83,6.44,6.44,0,0,1,1.27,2.78,23.93,23.93,0,0,1,.2,3.77v5.44a58.85,58.85,0,0,0,.26,7.21,9.13,9.13,0,0,0,1,2.89h-4.27A8.75,8.75,0,0,1,1130,328.74Zm-.34-9.12a30.54,30.54,0,0,1-6.67,1.54,15.56,15.56,0,0,0-3.56.81,3.66,3.66,0,0,0-1.61,1.33,3.6,3.6,0,0,0,.67,4.66,5.29,5.29,0,0,0,3.62,1.09,8.43,8.43,0,0,0,4.2-1,6.44,6.44,0,0,0,2.7-2.82,10.09,10.09,0,0,0,.65-4.09Z"/><path class="cls-2" d="M1140,331.71v-24.1h3.67v3.66a10,10,0,0,1,2.6-3.38,4.52,4.52,0,0,1,2.62-.82,8,8,0,0,1,4.2,1.31l-1.41,3.79a5.82,5.82,0,0,0-3-.88,3.92,3.92,0,0,0-2.41.8,4.39,4.39,0,0,0-1.52,2.24,16,16,0,0,0-.68,4.76v12.62Z"/><path class="cls-2" d="M1164.47,328.06l.59,3.6a15.36,15.36,0,0,1-3.08.37,7,7,0,0,1-3.45-.71,4,4,0,0,1-1.73-1.85,14.76,14.76,0,0,1-.49-4.82V310.79h-3v-3.18h3v-6l4.06-2.45v8.41h4.1v3.18h-4.1v14.09a7.38,7.38,0,0,0,.21,2.25,1.74,1.74,0,0,0,.71.79,2.67,2.67,0,0,0,1.39.29A14.05,14.05,0,0,0,1164.47,328.06Z"/><path class="cls-2" d="M1168.47,331.71v-24.1h3.67V311a8.66,8.66,0,0,1,7.67-4,10,10,0,0,1,4,.78,6.37,6.37,0,0,1,2.74,2,8,8,0,0,1,1.27,3,23.46,23.46,0,0,1,.23,4v14.82H1184V317.05a11.21,11.21,0,0,0-.47-3.73,3.94,3.94,0,0,0-1.69-2,5.31,5.31,0,0,0-2.85-.74,6.66,6.66,0,0,0-4.51,1.65c-1.26,1.11-1.89,3.2-1.89,6.29v13.16Z"/><path class="cls-2" d="M1210.8,324l4.22.52a10.25,10.25,0,0,1-3.7,5.74A12.54,12.54,0,0,1,1196,329q-3.09-3.25-3.09-9.14,0-6.08,3.13-9.43a10.59,10.59,0,0,1,8.12-3.36,10.34,10.34,0,0,1,7.9,3.29q3.06,3.28,3.06,9.26c0,.24,0,.6,0,1.08h-18a9.26,9.26,0,0,0,2.24,6.08,6.69,6.69,0,0,0,5,2.11,6.19,6.19,0,0,0,3.83-1.18A7.79,7.79,0,0,0,1210.8,324Zm-13.41-6.6h13.46a8.18,8.18,0,0,0-1.54-4.56,6.26,6.26,0,0,0-5.06-2.36,6.48,6.48,0,0,0-4.74,1.88A7.51,7.51,0,0,0,1197.39,317.35Z"/><path class="cls-2" d="M1220.1,331.71v-24.1h3.68v3.66a9.86,9.86,0,0,1,2.6-3.38,4.47,4.47,0,0,1,2.62-.82,8.07,8.07,0,0,1,4.2,1.31l-1.41,3.79a5.85,5.85,0,0,0-3-.88,3.92,3.92,0,0,0-2.4.8,4.39,4.39,0,0,0-1.52,2.24,15.69,15.69,0,0,0-.68,4.76v12.62Z"/><path class="cls-2" d="M1234,324.52l4-.64a5.63,5.63,0,0,0,1.89,3.72,6.64,6.64,0,0,0,4.35,1.29,6.41,6.41,0,0,0,4.17-1.14,3.43,3.43,0,0,0,1.36-2.69,2.49,2.49,0,0,0-1.2-2.18,17.94,17.94,0,0,0-4.17-1.38,38.37,38.37,0,0,1-6.23-2,6,6,0,0,1-3.53-5.53,6.21,6.21,0,0,1,.74-3,6.48,6.48,0,0,1,2-2.28,8.24,8.24,0,0,1,2.59-1.19,12.24,12.24,0,0,1,3.53-.49,13.83,13.83,0,0,1,5,.82,6.75,6.75,0,0,1,3.17,2.21,8.54,8.54,0,0,1,1.4,3.73l-4,.54a4.36,4.36,0,0,0-1.58-2.9,5.74,5.74,0,0,0-3.68-1,6.68,6.68,0,0,0-4,.93,2.7,2.7,0,0,0-1.2,2.17,2.21,2.21,0,0,0,.5,1.43,3.5,3.5,0,0,0,1.56,1.09c.41.15,1.61.5,3.61,1.05a51,51,0,0,1,6,1.89,6.15,6.15,0,0,1,2.68,2.14,6,6,0,0,1,1,3.5,6.87,6.87,0,0,1-1.19,3.84,7.65,7.65,0,0,1-3.44,2.8,12.65,12.65,0,0,1-5.08,1q-4.69,0-7.16-1.95A9.06,9.06,0,0,1,1234,324.52Z"/></g></g></svg>