<svg xmlns="http://www.w3.org/2000/svg" xmlns:xlink="http://www.w3.org/1999/xlink" viewBox="0 0 732.58 382.69"><defs><style>.cls-1{isolation:isolate;}.cls-2{mix-blend-mode:multiply;}.cls-3{fill:url(#linear-gradient);}.cls-4{fill:url(#linear-gradient-2);}.cls-5{fill:url(#linear-gradient-3);}.cls-6{fill:url(#linear-gradient-4);}.cls-7{fill:#2e2e30;}.cls-8{fill:url(#linear-gradient-5);}.cls-9{fill:url(#New_Gradient_Swatch_3);}.cls-10{fill:url(#linear-gradient-6);}.cls-11{fill:url(#linear-gradient-7);}.cls-12{fill:url(#linear-gradient-8);}.cls-13{fill:url(#linear-gradient-9);}.cls-14{fill:url(#linear-gradient-10);}.cls-15{fill:url(#linear-gradient-11);}.cls-16{fill:url(#linear-gradient-12);}.cls-17{fill:url(#linear-gradient-13);}</style><linearGradient id="linear-gradient" x1="732.58" y1="305.67" x2="631.88" y2="305.67" gradientUnits="userSpaceOnUse"><stop offset="0" stop-color="#2e2e30" stop-opacity="0.07"/><stop offset="0.58" stop-color="#2e2e30" stop-opacity="0.28"/><stop offset="1" stop-color="#2e2e30" stop-opacity="0.5"/></linearGradient><linearGradient id="linear-gradient-2" x1="632.09" y1="292.87" x2="682.44" y2="343.22" gradientUnits="userSpaceOnUse"><stop offset="0" stop-color="#2e2e30" stop-opacity="0.21"/><stop offset="0.78" stop-color="#2e2e30" stop-opacity="0.42"/><stop offset="1" stop-color="#2e2e30" stop-opacity="0.5"/></linearGradient><linearGradient id="linear-gradient-3" x1="701.11" y1="293.08" x2="701.11" y2="356.02" xlink:href="#linear-gradient"/><linearGradient id="linear-gradient-4" x1="648.22" y1="245.88" x2="717" y2="365.01" xlink:href="#linear-gradient-2"/><linearGradient id="linear-gradient-5" x1="254.53" y1="168.08" x2="379.71" y2="42.89" gradientUnits="userSpaceOnUse"><stop offset="0" stop-color="#c99904"/><stop offset="0.33" stop-color="#feca02"/><stop offset="0.49" stop-color="#f3ec7c"/><stop offset="0.63" stop-color="#feca02"/><stop offset="1" stop-color="#c99904"/></linearGradient><linearGradient id="New_Gradient_Swatch_3" x1="198.44" y1="-13.11" x2="436.41" y2="224.85" gradientUnits="userSpaceOnUse"><stop offset="0" stop-color="#c99904"/><stop offset="0.33" stop-color="#feca02"/><stop offset="0.49" stop-color="#c99904"/><stop offset="0.63" stop-color="#feca02"/><stop offset="1" stop-color="#c99904"/></linearGradient><linearGradient id="linear-gradient-6" x1="124.84" y1="143.55" x2="143.72" y2="124.67" gradientUnits="userSpaceOnUse"><stop offset="0" stop-color="#c99904"/><stop offset="0.51" stop-color="#feca02"/><stop offset="1" stop-color="#c99904"/></linearGradient><linearGradient id="linear-gradient-7" x1="319.26" y1="358.98" x2="319.26" y2="296.29" gradientUnits="userSpaceOnUse"><stop offset="0" stop-color="#c99904"/><stop offset="0.87" stop-color="#feca02"/><stop offset="1" stop-color="#feca02"/></linearGradient><linearGradient id="linear-gradient-8" x1="379.65" y1="358.98" x2="379.65" y2="316.64" xlink:href="#linear-gradient-7"/><linearGradient id="linear-gradient-9" x1="434.54" y1="382.69" x2="434.54" y2="316.64" xlink:href="#linear-gradient-7"/><linearGradient id="linear-gradient-10" x1="472.75" y1="358.16" x2="472.75" y2="296.39" xlink:href="#linear-gradient-7"/><linearGradient id="linear-gradient-11" x1="501.29" y1="358.98" x2="501.29" y2="301.78" xlink:href="#linear-gradient-7"/><linearGradient id="linear-gradient-12" x1="546.22" y1="358.98" x2="546.22" y2="316.64" xlink:href="#linear-gradient-7"/><linearGradient id="linear-gradient-13" x1="585.28" y1="358.16" x2="585.28" y2="288.45" xlink:href="#linear-gradient-7"/></defs><g class="cls-1"><g id="Layer_2" data-name="Layer 2"><g id="Layer_1-2" data-name="Layer 1"><g class="cls-2"><path class="cls-3" d="M661,332a75.24,75.24,0,0,0-3.92,24H631.88A100.32,100.32,0,0,1,639,318.93,37.72,37.72,0,0,1,661,332Zm21.25-63.15a101.09,101.09,0,0,0-22,17.2,98.23,98.23,0,0,0-8.67,10.21,62.92,62.92,0,0,1,22,12.68,76.38,76.38,0,0,1,8.65-9.15,75.3,75.3,0,0,1,50.35-19.28V255.32A100.1,100.1,0,0,0,682.23,268.83Z"/><path class="cls-4" d="M682.23,318.3A62.54,62.54,0,0,0,669.65,356a37.83,37.83,0,0,0-37.77-37.77V293.08a63.06,63.06,0,0,1,50.35,25.22Z"/><path class="cls-5" d="M732.58,293.08v25.17a37.44,37.44,0,0,0-7.08.68,101.6,101.6,0,0,0-12.63-22.69A62.41,62.41,0,0,1,732.58,293.08Zm-41.69,15.84A62.85,62.85,0,0,0,669.65,356h25.17a37.51,37.51,0,0,1,8.67-24A75.6,75.6,0,0,0,690.89,308.92Z"/><path class="cls-6" d="M732.58,356H707.41a75.17,75.17,0,0,0-16.52-47.1,76.46,76.46,0,0,0-8.66-9.15,75.28,75.28,0,0,1,22-13.74,99.47,99.47,0,0,1,8.67,10.21,101.6,101.6,0,0,1,12.63,22.69A100.32,100.32,0,0,1,732.58,356Zm-100.7-100.7v25.17A75.12,75.12,0,0,1,660.27,286a101.09,101.09,0,0,1,22-17.2A100.1,100.1,0,0,0,631.88,255.32Z"/></g><path class="cls-7" d="M133.85,268.12C60.19,268-.06,207.72,0,134.13.07,60.18,59.93.08,133.6,0c74.24-.08,134.67,60.29,134.52,134.39C268,207.87,207.39,268.2,133.85,268.12Zm.2-204.44c-39.51,0-70.43,30.79-70.44,70.24s30.86,70.49,70.28,70.52,70.58-31.1,70.55-70.36C204.41,94.58,173.56,63.72,134.05,63.68Z"/><path class="cls-7" d="M460.72,268.12c-73.65-.08-133.91-60.4-133.84-134C326.94,60.18,386.81.08,460.48,0,534.71-.08,595.15,60.29,595,134.39,594.84,207.87,534.27,268.2,460.72,268.12Zm.21-204.44c-39.51,0-70.43,30.79-70.45,70.24s30.86,70.49,70.29,70.52,70.58-31.1,70.55-70.36C531.29,94.58,500.44,63.72,460.93,63.68Z"/><path class="cls-8" d="M329,148.74c32.34-8.74,55.11-36.23,55.11-70.38,0-42.48-34.62-76.63-81.53-76.63H186.38V9.61a135.25,135.25,0,0,1,60.13,48.44V50.46h46.92c19.13,0,33.25,12.49,33.25,29.57,0,17.49-14.12,29.57-33.25,29.57H267.87a133.57,133.57,0,0,1,.5,45.39h2.28l67.42,96.62h67.41Z"/><path class="cls-9" d="M408.25,253H337.34l-67.42-96.62h-3.18l.26-1.61a132.19,132.19,0,0,0-.5-44.92l-.3-1.64h27.23c18.76,0,31.86-11.59,31.86-28.18,0-16.33-13.4-28.18-31.86-28.18H247.9V62.52l-2.54-3.68A133.23,133.23,0,0,0,185.85,10.9l-.86-.35V.34H302.54c22.85,0,43.92,8.09,59.32,22.77a75.65,75.65,0,0,1,23.6,55.25c0,33.16-21.69,61.52-54.19,71.17Zm-69.46-2.78h63.93l-76.1-102.28,2-.54c32.36-8.75,54.09-36.49,54.09-69,0-42.19-35.2-75.24-80.14-75.24H187.77V8.68a135.93,135.93,0,0,1,57.35,45V49.07h48.31c20.07,0,34.64,13,34.64,31s-14.57,31-34.64,31h-23.9A134.94,134.94,0,0,1,270,153.6h1.38Z"/><path class="cls-10" d="M134.65,147.19c-7.65.19-13.61-5.36-13.76-12.82-.14-7.18,6.21-13.94,13.34-13.42,7.48.55,12.58,4.34,13,12.51C147.59,141.33,142.34,147,134.65,147.19Z"/><path class="cls-11" d="M289.69,327.63a31.36,31.36,0,0,1,59.13-14.55l-11.6,6a18.22,18.22,0,1,0,0,17.1l11.6,6a31.36,31.36,0,0,1-59.13-14.55Z"/><path class="cls-12" d="M404.68,347.58v10.58a8.56,8.56,0,0,1-3.46.82,14.36,14.36,0,0,1-12.51-6.92A17.1,17.1,0,0,1,374.76,359c-11.29,0-20.15-9.37-20.15-21.17s8.86-21.17,20.15-21.17a16.85,16.85,0,0,1,11.6,4.38v-3.57h12.93v26.16c0,3.36,1.83,4,3.56,4ZM387,337.81a9.67,9.67,0,1,0-9.67,9.66A9.66,9.66,0,0,0,387,337.81Z"/><path class="cls-13" d="M456.88,337.81c0,11.8-8.85,21.17-20.05,21.17a16.85,16.85,0,0,1-11.6-4.38v28.09l-13-.1V317.45l13,.11V321a16.85,16.85,0,0,1,11.6-4.38C448,316.64,456.88,326,456.88,337.81Zm-12.92,0a9.67,9.67,0,1,0-9.67,9.66A9.6,9.6,0,0,0,444,337.81Z"/><path class="cls-14" d="M465.62,303.51a7.13,7.13,0,1,1,7.13,7.12A7.14,7.14,0,0,1,465.62,303.51Zm.61,13.94h12.93v40.71H466.23Z"/><path class="cls-15" d="M506.33,327.53v14.55c0,3.36,1.93,5.5,4.68,5.5h4.88v10.07c-1,.72-3.76,1.33-6.51,1.33-8.65,0-16-6.72-16-15.37V327.53h-6.82V317.45h6.82V301.78h12.93v15.67H516v10.08Z"/><path class="cls-16" d="M571.25,347.58v10.58a8.6,8.6,0,0,1-3.46.82,14.39,14.39,0,0,1-12.52-6.92A17.07,17.07,0,0,1,541.33,359c-11.3,0-20.15-9.37-20.15-21.17s8.85-21.17,20.15-21.17a16.85,16.85,0,0,1,11.6,4.38v-3.57h12.93v26.16c0,3.36,1.83,4,3.56,4Zm-17.71-9.77a9.67,9.67,0,1,0-9.67,9.66A9.66,9.66,0,0,0,553.54,337.81Z"/><path class="cls-17" d="M578.77,288.45h13v69.71h-13Z"/></g></g></g></svg>