<svg xmlns="http://www.w3.org/2000/svg" viewBox="0 0 1100.19 435.5"><defs><style>.cls-1{fill:#686868;}.cls-2{fill:#fe9801;}.cls-3{fill:#696969;}</style></defs><g id="Layer_2" data-name="Layer 2"><g id="Layer_1-2" data-name="Layer 1"><path class="cls-1" d="M642.94,116.65q0,36,0,72.09c0,25.08-19.13,44.21-44.19,44.22-33.41,0-66.82,0-100.23.08-3.07,0-3.69-.88-3.68-3.79q.12-112.69,0-225.4c0-3.23.89-3.86,4-3.85,33.19.12,66.38.06,99.57.08,25.54,0,44.57,19,44.59,44.49Q643,80.6,642.94,116.65Z"/><path class="cls-1" d="M585.51,347.16V266.93c0-4.64.65-5.31,5.22-5.3,20.24,0,40.47-.1,60.71.09,13.77.12,27.28,2.09,40.26,6.95,22.72,8.5,37,24.61,42.68,48.05,4.93,20.23,5.18,40.6-1.63,60.42-9.9,28.81-30.74,45.78-60,52.84a113.88,113.88,0,0,1-27.19,2.75c-18.38-.06-36.77,0-55.16,0-4.09,0-4.87-.81-4.87-5Zm41.75-.13c0,16,.06,32,0,48,0,2.45.62,3.15,3.07,3.05,7.28-.3,14.58.3,21.85-.59,16.53-2,29.07-9.91,36.39-25.09,5.76-12,6.43-24.7,4.66-37.62-2.49-18.21-14.72-31.82-32.44-36.38-10-2.58-20.3-1.86-30.51-2.08-2.54,0-3,.75-3,3.12C627.31,315.28,627.26,331.15,627.26,347Z"/><path class="cls-1" d="M127.13,324c1.32-1.41,2.13-2.23,2.89-3.1,14.49-16.53,39.15-17.12,53.73-10.21,11.35,5.38,16.86,15.21,19.66,26.9a85.52,85.52,0,0,1,2.07,20.05q0,35.22,0,70.44c0,3.88-.72,4.63-4.51,4.64q-15.84,0-31.67,0c-3.8,0-4.48-.72-4.48-4.66q0-31.16,0-62.29A50.5,50.5,0,0,0,163,350.93a17,17,0,0,0-28.2-7.51c-5.68,5.22-7.64,12-7.65,19.41-.05,21.52,0,43.05,0,64.57,0,4.83-.46,5.31-5.15,5.31q-15.51,0-31,0c-3.85,0-4.61-.75-4.62-4.54q0-57.24,0-114.47c0-3.63.8-4.43,4.39-4.44q16,0,32,0c3.61,0,4.37.79,4.39,4.43C127.14,316.83,127.13,320,127.13,324Z"/><path class="cls-1" d="M511.31,420c-12.64,14.81-28.74,18.12-46.54,13.62-15.44-3.9-24-14.76-25.83-30.46-2.19-18.76,4.36-35.28,24.11-43.28a66.92,66.92,0,0,1,16-4.23c10-1.38,20-2.73,30.06-3.94,2.32-.29,2.88-1.21,2.52-3.38-1.12-6.64-5.6-11.19-12.63-12.23-12-1.78-23.34.76-34.27,5.53-3.28,1.43-6.36,3.29-9.5,5-2.68,1.48-4.91.33-4.93-2.71,0-8.16.1-16.31-.08-24.46-.05-2.19,1.13-2.8,2.65-3.47,10.63-4.67,21.83-7.22,33.3-8.65a82.63,82.63,0,0,1,29.49,1.18c19.11,4.52,30.94,17.38,33.89,36.75a109.16,109.16,0,0,1,1.22,16.55q0,32.77,0,65.55c0,4.58-.72,5.31-5.24,5.31q-14.68,0-29.37,0c-3.51,0-4.42-.94-4.45-4.41,0-2.61-.05-5.22-.08-7.82C511.64,420.4,511.54,420.32,511.31,420Zm.71-37.94a13.21,13.21,0,0,1,0-2.27c.57-3.19-1-3.63-3.67-3.15-3.09.56-6.24.79-9.35,1.27-5.54.87-11.27,1-16.33,3.89-4.8,2.77-6.51,7.12-6.09,12.37a11.62,11.62,0,0,0,8.69,10.26,20.56,20.56,0,0,0,22.43-7.95A24.78,24.78,0,0,0,512,382.07Z"/><path class="cls-1" d="M836.48,383.78c-11.64,0-23.28.09-34.92-.07-2.84,0-3.12.82-2.55,3.29,2.27,9.77,10,16.16,21.42,17.55,14.21,1.72,27.72-.35,40.3-7.45,2.5-1.41,4.77-.12,4.79,2.77.06,7.93,0,15.87.07,23.8,0,2-1.1,2.58-2.51,3.29a76.81,76.81,0,0,1-25.22,7.3c-12.58,1.57-25.18,1.87-37.6-1.17-23.09-5.66-38.74-23.39-41.68-47.15-1.79-14.52-1.53-29,4.51-42.56,10.19-23,28.14-35.19,53.26-36.65,9.42-.55,18.71.53,27.5,4.19,18.12,7.54,27.4,21.92,30.91,40.61,1.78,9.47,1.21,19.05,1.24,28.61,0,2.75-1.69,3.67-4.28,3.66C860,383.75,848.23,383.78,836.48,383.78ZM818,356.89h17.26c1.22,0,2.42.19,2.31-1.73-.67-12.14-6.85-22.15-22.37-19-9.48,1.91-13.57,9.61-16.31,18.15-.77,2.42.12,2.67,2.18,2.63C806.74,356.83,812.39,356.89,818,356.89Z"/><path class="cls-1" d="M933.75,383.78c1.93,12.41,9.22,19.21,21.78,20.76,14.21,1.75,27.72-.33,40.32-7.4,2.52-1.42,4.83-.18,4.85,2.66.06,7.93,0,15.87.07,23.8,0,1.94-1,2.61-2.45,3.33a77.27,77.27,0,0,1-25.21,7.32c-12.59,1.57-25.18,1.88-37.61-1.15-23.07-5.61-38.75-23.31-41.73-47.09-1.83-14.63-1.54-29.2,4.58-42.88,10.22-22.8,28.13-34.93,53.11-36.4,10-.58,19.81.63,29,4.79,17.36,7.85,26.19,22.07,29.52,40.26,1.71,9.37,1.15,18.84,1.2,28.29,0,3-1.87,3.73-4.54,3.73q-34.59-.06-69.18,0Zm19.41-26.89h17.25c1.16,0,2.26.28,2.4-1.66.9-12.62-9.71-22.09-22-19.23-9.75,2.25-14,9.75-16.72,18.56-.62,2-.06,2.4,1.85,2.37C941.65,356.83,947.4,356.89,953.16,356.89Z"/><path class="cls-2" d="M481,156.94c0,24.24,0,48.47.07,72.71,0,2.7-.63,3.52-3.38,3.38-8.13-.42-16.31.55-24.43-.61-20.71-3-36.8-21.23-36.86-42.18-.1-35.43,0-70.86-.1-106.29,0-2.6.87-3,3.16-3q29.21.12,58.41,0c2.64,0,3.2.77,3.19,3.26C481,108.47,481,132.71,481,156.94Z"/><path class="cls-1" d="M229.36,412.84c0-4.45,0-8.91,0-13.37,0-3.37,2.13-4.51,5.08-2.79,10.41,6.1,21.48,9.94,33.68,9.76a32.31,32.31,0,0,0,12.13-2.18c2.75-1.14,4.93-2.86,5.24-6.07s-1.61-5-4-6.54A44.78,44.78,0,0,0,270.42,387a155,155,0,0,1-22.67-9c-24.33-11.92-24.16-47.76-2.59-61.48,9.85-6.26,20.69-8.93,32.09-9.67A113.08,113.08,0,0,1,315,311c2,.56,2.82,1.26,2.79,3.45-.13,8.15,0,16.31-.06,24.46,0,3.6-1.93,4.75-5.13,3.2-10.48-5.09-21.44-7.64-33.15-6.11a16.55,16.55,0,0,0-6.45,2.13c-4.38,2.59-4.83,7.13-1.05,10.53,2.81,2.53,6.28,3.85,9.79,5.05,8,2.72,16.13,5.19,23.65,9.18,9.76,5.17,17.09,12.37,18.91,23.8,3.27,20.56-6.52,36.67-26.71,43.92-12.93,4.66-26.35,5.33-39.9,4.29a106,106,0,0,1-25.78-5.32c-2.07-.71-2.64-1.71-2.58-3.73C229.45,421.54,229.36,417.19,229.36,412.84Z"/><path class="cls-1" d="M356.79,373.45c0-11.37-.07-20.62,0-29.85,0-2.27-.59-3-2.91-2.94-4.12.18-8.26,0-12.4.07-2.84,0-4.18-1.26-4.16-4.12,0-7.72,0-15.44,0-23.16,0-3,1.43-4.28,4.4-4.22,3.59.09,7.18,0,10.77,0,4.85,0,4.23.61,4.25-4.41,0-6,.13-12,0-17.94-.07-2.2.79-3,2.74-3.52,11-3,21.95-6.18,32.92-9.27,3.65-1,5.08,0,5.09,3.77,0,9.46.1,18.92-.05,28.37,0,2.48.68,3.12,3.1,3.06,6.42-.17,12.84-.07,19.26-.05,3.67,0,4.45.76,4.46,4.35,0,7.61-.05,15.22,0,22.83,0,3-1.19,4.34-4.26,4.3-6.52-.09-13,.05-19.58-.07-2.15,0-3,.37-3,2.8.12,14.68.06,29.35.07,44,0,.54,0,1.09.05,1.63.94,12.22,8.67,17,20.11,12.56.7-.28,1.38-.64,2.08-.94,2.43-1,4.49.27,4.5,2.94.05,8.27,0,16.53.06,24.79,0,1.73-.7,2.45-2.17,3.08a47.51,47.51,0,0,1-14.88,3.36c-8.81.74-17.63.88-26.18-1.84-14.24-4.53-21.35-14.95-23.5-29.2C356,393.07,357.22,382.17,356.79,373.45Z"/><path class="cls-1" d="M1034.17,328.87V257.79c0-4.6.69-5.3,5.24-5.3q15.35,0,30.68,0c4,0,4.7.69,4.7,4.77q0,64.89,0,129.77a47.57,47.57,0,0,0,.32,5.85c.89,7.21,5.15,10.77,12.44,10.27,2.8-.2,5.58-.85,8.37-1.28s4.21.64,4.22,3.3c.06,7.93,0,15.87,0,23.8,0,1.14,0,2-1.52,2.4-12,2.89-24.11,5.26-36.45,3.35-15.18-2.35-25.44-13.4-27.43-28.61a77.15,77.15,0,0,1-.64-10.07Q1034.2,362.45,1034.17,328.87Z"/><path class="cls-1" d="M43,351.85q0,17.76,0,35.53c0,1.09,0,2.18,0,3.26.67,9.85,5.57,13.74,15.33,12.19,2-.33,4.08-.66,6.11-1,2.48-.45,3.83.77,3.86,3.07.11,8.15,0,16.3,0,24.45,0,.91-.08,1.71-1.22,2-13.06,3.06-26.22,5.87-39.62,2.88S4.72,420,3,405.78a79,79,0,0,1-.6-10.08q0-40.57,0-81.17c0-4.58.69-5.27,5.26-5.28H38.3c4,0,4.69.68,4.69,4.77Q43,332.95,43,351.85Z"/><path class="cls-2" d="M448.34,64.11c-9.68,0-19.36,0-29,0-2.12,0-3.11-.31-3-2.77.5-9.41-.95-18.91,1.31-28.24A43.59,43.59,0,0,1,459.41.08c6.42,0,12.84.06,19.26,0,1.85,0,2.38.52,2.37,2.38q-.09,29.65,0,59.33c0,2.21-.89,2.42-2.69,2.41C468.36,64.08,458.35,64.11,448.34,64.11Z"/><path class="cls-3" d="M23.72,294.36c-12.13,0-21.59-6.95-23.35-16.85-2.3-13,6.31-23.92,19.74-24.91a31.55,31.55,0,0,1,11,.86c9.5,2.69,15.57,10.63,15.4,20.14a20.66,20.66,0,0,1-16.43,20A23.75,23.75,0,0,1,23.72,294.36Z"/></g></g></svg>