<svg width="115" height="114" viewBox="0 0 115 114" fill="none" xmlns="http://www.w3.org/2000/svg">
<g clip-path="url(#clip0_243_2100)">
<path d="M41.2534 90.5112C28.4724 84.3132 20.2139 71.1361 20.2139 56.9411C20.2139 44.3875 26.4738 32.753 36.9589 25.8185C38.2819 24.9436 38.6451 23.1617 37.7701 21.8387C36.8951 20.5157 35.1136 20.1525 33.7902 21.0275C33.1983 21.4194 32.6182 21.8233 32.0495 22.2404L26.3771 17.4803C23.1012 14.7319 18.1994 15.1605 15.4507 18.4364L12.221 22.286C10.8923 23.8691 10.2601 25.8795 10.4407 27.947C10.6217 30.0148 11.5933 31.885 13.1764 33.2128L18.8587 37.9812C17.4942 40.7628 16.4294 43.6967 15.691 46.732H8.25551C3.97919 46.732 0.5 50.2112 0.5 54.4875V59.5134C0.5 63.7897 3.97919 67.2689 8.25551 67.2689H15.721C16.4622 70.2768 17.5277 73.1969 18.9034 75.982L13.1774 80.7874C11.5937 82.1159 10.622 83.9858 10.4411 86.0539C10.2604 88.1214 10.8926 90.1318 12.2207 91.7139L15.451 95.5648C16.983 97.3901 19.1832 98.3308 21.3985 98.3308C23.158 98.3308 24.9274 97.7366 26.3778 96.5202L32.1248 91.6976C34.2 93.214 36.4152 94.5482 38.7472 95.6791C40.1746 96.3706 41.8923 95.7751 42.5844 94.3481C43.2766 92.9211 42.6805 91.203 41.2534 90.5112ZM8.25551 61.5253C7.1463 61.5253 6.24388 60.6229 6.24388 59.5137V54.4878C6.24388 53.3786 7.1463 52.4762 8.25551 52.4762H14.7001C14.5476 53.9498 14.4701 55.4397 14.4701 56.9411C14.4701 58.4792 14.5514 60.009 14.7126 61.5253H8.25551ZM16.8681 28.8121C16.4606 28.4703 16.2101 27.9853 16.1629 27.4466C16.116 26.9076 16.2784 26.3862 16.6211 25.9781L19.8511 22.1281C20.2484 21.6545 20.819 21.4104 21.3934 21.4104C21.85 21.4104 22.3089 21.5646 22.6851 21.8801L27.5913 25.9976C25.4013 28.1113 23.4564 30.4366 21.7776 32.932L16.8681 28.8121ZM22.6857 92.1201C21.8353 92.8333 20.5634 92.7219 19.8508 91.8731L16.6208 88.0218C16.2787 87.6143 16.116 87.0929 16.1632 86.554C16.2105 86.0153 16.461 85.5303 16.8691 85.1876L21.8344 81.0207C23.5365 83.5381 25.4903 85.857 27.6599 87.9462L22.6857 92.1201ZM106.744 46.732H99.3148C98.578 43.6916 97.5144 40.7555 96.1506 37.9739L101.824 33.2131C105.099 30.4647 105.528 25.5629 102.78 22.2864L99.5493 18.4364C96.8006 15.1605 91.8988 14.7316 88.6229 17.4803L82.9508 22.2401C82.2012 21.6909 81.43 21.1628 80.6395 20.6577C79.3028 19.8037 77.527 20.195 76.6731 21.5317C75.8191 22.8684 76.2104 24.6442 77.5471 25.4982C88.3411 32.3943 94.7854 44.1485 94.7854 56.9411C94.7854 71.4246 86.2886 84.7147 73.1387 90.7993C71.6992 91.4653 71.0721 93.1725 71.7381 94.6117C72.4041 96.0511 74.1116 96.6785 75.5505 96.0122C78.1566 94.8063 80.6041 93.3554 82.871 91.6941L88.6226 96.5202C90.0279 97.6996 91.7702 98.3302 93.5904 98.3302C93.8204 98.3302 94.0515 98.32 94.2835 98.2999C96.3509 98.1189 98.2212 97.1476 99.5493 95.5645L102.78 91.7148C105.528 88.4386 105.1 83.5372 101.824 80.7881L96.0724 75.9616C97.4375 73.1991 98.5107 70.2864 99.2615 67.2692H106.744C111.02 67.2692 114.5 63.79 114.5 59.5137V54.4878C114.5 50.2112 111.021 46.732 106.744 46.732ZM98.1319 85.1876C98.9816 85.9008 99.093 87.1724 98.3798 88.0225L95.1495 91.8722C94.8074 92.2797 94.3224 92.5302 93.7834 92.5771C93.2429 92.6236 92.7231 92.4619 92.3152 92.1195L87.3292 87.9357C89.5097 85.8293 91.4578 83.5027 93.1449 81.0022L98.1319 85.1876ZM93.2317 32.9253C91.5529 30.4318 89.6051 28.1068 87.4128 25.9944L92.3152 21.8808C93.165 21.1679 94.4363 21.279 95.1495 22.1284L98.3795 25.9781C99.0927 26.8282 98.9816 28.1001 98.1319 28.8133L93.2317 32.9253ZM108.756 59.5134C108.756 60.6226 107.854 61.525 106.744 61.525H100.282C100.446 60.0125 100.529 58.482 100.529 56.9408C100.529 55.4387 100.452 53.9485 100.301 52.4759H106.744C107.853 52.4759 108.756 53.3783 108.756 54.4875V59.5134H108.756ZM76.8339 56.9408C76.8339 50.2099 73.416 44.0665 67.6903 40.5075C66.3433 39.6702 65.9301 37.8995 66.7674 36.5522C67.6048 35.2056 69.3755 34.7917 70.7227 35.6294C78.146 40.2436 82.5778 48.2104 82.5778 56.9408C82.5778 62.8767 80.4656 68.635 76.6309 73.1554C76.0629 73.8249 75.254 74.1695 74.4397 74.1695C73.7829 74.1695 73.123 73.9455 72.5831 73.4876C71.3734 72.4617 71.225 70.6492 72.2509 69.4398C75.2061 65.9558 76.8339 61.5174 76.8339 56.9408ZM43.0727 69.8112C44.1292 70.9944 44.0261 72.8098 42.8429 73.8664C42.2953 74.3552 41.6118 74.5959 40.9312 74.5959C40.1414 74.5959 39.3551 74.272 38.7877 73.6366C34.6834 69.0387 32.4229 63.1094 32.4229 56.9411C32.4229 47.6587 37.5145 39.1759 45.7107 34.8029C47.11 34.0565 48.8497 34.5853 49.5964 35.9849C50.3431 37.3841 49.8141 39.1239 48.4145 39.8706C42.0936 43.2429 38.1671 49.7839 38.1671 56.9411C38.1668 61.6967 39.9091 66.2676 43.0727 69.8112ZM60.3238 66.1916C60.3557 66.0199 60.3723 65.8431 60.3723 65.6622V30.0933L70.7923 24.0772C71.681 23.5641 72.2283 22.616 72.2283 21.5901V7.89923C72.2283 6.87331 71.681 5.92494 70.7923 5.41214L64.8646 1.98974C63.4912 1.19677 61.7342 1.66713 60.9415 3.04087C60.1486 4.41462 60.6192 6.17097 61.9927 6.96394L66.4844 9.5573V19.9317L57.5003 25.1187L48.5156 19.932V9.55762L53.008 6.96426C54.3817 6.17128 54.8524 4.41493 54.0594 3.04119C53.2664 1.66745 51.5098 1.19677 50.1364 1.98974L44.2077 5.41214C43.319 5.92494 42.7717 6.87331 42.7717 7.89923V21.5901C42.7717 22.616 43.319 23.5644 44.2077 24.0772L54.6284 30.0933V65.6622C54.6284 65.8431 54.645 66.0199 54.6769 66.1916C50.7905 67.3978 47.9604 71.0267 47.9604 75.3043V105.747C47.9604 109.413 50.9427 112.396 54.6083 112.396H60.3904C64.057 112.396 67.0396 109.413 67.0396 105.747V75.3043C67.0399 71.0267 64.2098 67.3978 60.3238 66.1916ZM61.2961 105.747C61.2961 106.238 60.8816 106.652 60.3908 106.652H54.6086C54.1185 106.652 53.7046 106.238 53.7046 105.747V75.3043C53.7046 73.2116 55.4073 71.5092 57.5006 71.5092C59.594 71.5092 61.2967 73.2116 61.2967 75.3043V105.747H61.2961Z" fill="#EDA122"/>
</g>
<defs>
<clipPath id="clip0_243_2100">
<rect width="114" height="114" fill="white" transform="translate(0.5)"/>
</clipPath>
</defs>
</svg>
