<svg width="80" height="80" viewBox="0 0 80 80" fill="none" xmlns="http://www.w3.org/2000/svg">
<path d="M70.0784 48.1713L60.6402 41.9828L64.2742 35.3066C65.1507 33.6396 65.6098 31.7841 65.6122 29.8999V19.3163C65.6195 16.3404 64.7595 13.4272 63.1376 10.9343C61.5158 8.44143 59.2028 6.47745 56.4827 5.28354C53.7625 4.08962 50.7537 3.71775 47.8256 4.21357C44.8975 4.7094 42.1776 6.05134 40 8.07461L43.1901 11.5256C44.699 10.1275 46.5822 9.201 48.6089 8.85972C50.6355 8.51843 52.7175 8.77718 54.5996 9.60425C56.4816 10.4313 58.0819 11.7908 59.2043 13.5159C60.3267 15.241 60.9224 17.2569 60.9184 19.3163V29.8999C60.9179 30.9971 60.6556 32.0783 60.1534 33.0532L54.4451 43.541L67.5084 52.1069C68.3707 52.6725 69.0783 53.445 69.5669 54.3543C70.0555 55.2636 70.3096 56.2809 70.3061 57.3136V65.1785H59.7449V69.8824H75V57.3135C75.0047 55.4993 74.557 53.7128 73.6975 52.1162C72.838 50.5196 71.5939 49.1635 70.0784 48.1713Z" fill="#EDA122"/>
<path d="M48.5523 53.3152L39.2898 47.1259L42.856 40.4488C43.7162 38.7815 44.1668 36.9258 44.1692 35.0413V24.4562C44.1662 20.3989 42.5875 16.5085 39.7794 13.6385C36.9713 10.7685 33.1631 9.15316 29.1902 9.14697C20.9391 9.14697 14.2265 16.0148 14.2265 24.4562V35.0413C14.2177 36.9249 14.6634 38.7818 15.5243 40.4478L19.1099 47.161L9.90124 53.3152C8.41564 54.3061 7.19583 55.6601 6.35249 57.2544C5.50916 58.8487 5.06901 60.6328 5.07198 62.4449L5 75.0293H53.3823V62.4587C53.387 60.6443 52.9476 58.8575 52.104 57.2607C51.2605 55.6639 50.0396 54.3076 48.5523 53.3152ZM48.7758 70.3249H9.63334L9.67797 62.4587C9.67449 61.4258 9.92383 60.4084 10.4033 59.4989C10.8829 58.5895 11.5773 57.8169 12.4236 57.2513L25.1899 48.7201L19.5683 38.195C19.0809 37.2185 18.8289 36.1373 18.8331 35.0413V24.4562C18.8331 21.6489 19.9251 18.9565 21.8689 16.9714C23.8126 14.9864 26.4489 13.8711 29.1979 13.8711C31.9468 13.8711 34.5831 14.9864 36.5269 16.9714C38.4706 18.9565 39.5626 21.6489 39.5626 24.4562V35.0413C39.5622 36.1386 39.3048 37.22 38.8119 38.195L33.2097 48.6843L46.0301 57.2514C46.8764 57.817 47.5708 58.5897 48.0503 59.4991C48.5299 60.4085 48.7792 61.4259 48.7758 62.4588V70.3249Z" fill="#EDA122"/>
</svg>
