<svg width="80" height="80" viewBox="0 0 80 80" fill="none" xmlns="http://www.w3.org/2000/svg">
<g clip-path="url(#clip0_84_874)">
<path d="M40.0009 4.44434C32.9687 4.44434 26.0944 6.52963 20.2473 10.4365C14.4002 14.3434 9.84295 19.8964 7.15183 26.3934C4.46072 32.8903 3.7566 40.0393 5.12852 46.9364C6.50044 53.8335 9.88678 60.1689 14.8593 65.1415C19.8318 70.114 26.1672 73.5003 33.0643 74.8723C39.9614 76.2442 47.1105 75.5401 53.6074 72.8489C60.1043 70.1578 65.6574 65.6006 69.5643 59.7535C73.4711 53.9064 75.5564 47.0321 75.5564 39.9999C75.5564 30.57 71.8104 21.5263 65.1425 14.8583C58.4745 8.19036 49.4308 4.44434 40.0009 4.44434ZM40.0009 71.111C33.8477 71.111 27.8327 69.2864 22.7165 65.8678C17.6003 62.4493 13.6127 57.5904 11.258 51.9056C8.90324 46.2208 8.28714 39.9654 9.48756 33.9304C10.688 27.8955 13.651 22.352 18.002 18.001C22.353 13.65 27.8964 10.687 33.9314 9.48657C39.9664 8.28614 46.2218 8.90225 51.9066 11.257C57.5914 13.6117 62.4503 17.5993 65.8688 22.7155C69.2874 27.8317 71.112 33.8467 71.112 39.9999C71.112 48.2511 67.8342 56.1643 61.9998 61.9988C56.1653 67.8332 48.2521 71.111 40.0009 71.111Z" fill="#EDA122"/>
<path d="M42.0441 40.889V23.889C42.0441 23.2996 41.8099 22.7344 41.3932 22.3176C40.9764 21.9009 40.4112 21.6667 39.8218 21.6667C39.2325 21.6667 38.6672 21.9009 38.2505 22.3176C37.8337 22.7344 37.5996 23.2996 37.5996 23.889V43.2667L50.7107 52.1556C50.9522 52.3373 51.2283 52.4678 51.5219 52.5391C51.8156 52.6104 52.1207 52.6211 52.4187 52.5705C52.7166 52.5199 53.0011 52.4091 53.2547 52.2448C53.5083 52.0805 53.7258 51.8661 53.8938 51.6149C54.0618 51.3637 54.1767 51.0809 54.2317 50.7837C54.2866 50.4865 54.2804 50.1813 54.2133 49.8866C54.1463 49.5919 54.0198 49.314 53.8417 49.0699C53.6636 48.8258 53.4375 48.6205 53.1774 48.4667L42.0441 40.889Z" fill="#EDA122"/>
<path d="M17.7771 39.8666C17.7568 35.8689 18.8218 31.9406 20.8586 28.5006C22.8953 25.0606 25.8274 22.2378 29.3423 20.3333C32.8573 18.4287 36.8231 17.5137 40.8172 17.6859C44.8112 17.8581 48.6836 19.111 52.0216 21.311L53.9105 18.2888C50.7399 16.2119 47.1487 14.863 43.3948 14.339C39.6409 13.815 35.8176 14.1289 32.1995 15.2581C28.5813 16.3874 25.2582 18.3039 22.4688 20.8701C19.6794 23.4363 17.4929 26.5884 16.0666 30.1001C14.6402 33.6117 14.0092 37.3957 14.2191 41.1801C14.4289 44.9646 15.4743 48.6556 17.2801 51.988C19.086 55.3204 21.6075 58.2115 24.6635 60.4536C27.7195 62.6957 31.2341 64.2331 34.9549 64.9555L35.5549 61.5555C30.5504 60.534 26.0506 57.8197 22.8127 53.8695C19.5748 49.9192 17.7965 44.9742 17.7771 39.8666Z" fill="#EDA122"/>
</g>
<defs>
<clipPath id="clip0_84_874">
<rect width="80" height="80" fill="white"/>
</clipPath>
</defs>
</svg>
