<svg width="115" height="114" viewBox="0 0 115 114" fill="none" xmlns="http://www.w3.org/2000/svg">
<g clip-path="url(#clip0_243_2024)">
<path d="M95.2376 7.12891H89.2722C84.0763 7.12891 79.3573 9.2005 75.8892 12.5566C70.064 10.1392 63.8891 8.91105 57.5002 8.91105C45.0878 8.91105 33.7588 13.6385 25.2189 21.3869H24.6673V21.8988C20.9699 25.3596 17.8173 29.3952 15.355 33.863H13.834V36.8687C10.998 42.9962 9.41159 49.8157 9.41159 56.9995C9.41159 61.3804 9.99918 65.7049 11.1583 69.883C4.83712 73.132 0.5 79.7164 0.5 87.299C0.5 98.0911 9.27978 106.871 20.0719 106.871H25.419C30.6813 106.871 35.4613 104.779 38.9823 101.389C44.8456 103.842 51.0641 105.089 57.5002 105.089C71.7159 105.089 84.5087 98.8864 93.3198 89.0481H95.8194V86.0187C98.0254 83.1126 99.9096 79.9502 101.417 76.583C102.41 76.6384 103.358 77.0174 104.111 77.672L106.406 75.0328C105.362 74.1242 104.105 73.511 102.765 73.2375C104.591 68.1625 105.589 62.6959 105.589 57.0001C105.589 52.6623 105.009 48.3664 103.87 44.2225C110.168 41.0508 114.5 34.5285 114.5 27.0101V26.3918C114.5 15.7702 105.859 7.12891 95.2376 7.12891ZM26.5978 24.8853H30.0362V21.8941C34.197 18.6318 38.9503 16.093 44.1046 14.4661C42.0178 16.3322 40.0653 18.6487 38.2894 21.3874H33.6154V24.8853H36.2392C31.7857 33.2988 29.2556 43.9966 29.0343 55.3676H12.9605V58.8655H29.0394C29.1067 61.8596 29.3367 64.826 29.7241 67.7272H20.0719C18.109 67.7272 16.2137 68.0212 14.4245 68.5613C13.4196 64.8073 12.9093 60.9289 12.9093 56.9999C12.9093 44.3987 18.1649 33.0029 26.5978 24.8853ZM25.4188 103.373H20.0717C11.2087 103.373 3.99793 96.162 3.99793 87.299C3.99793 78.4359 11.2087 71.225 20.0719 71.225H41.4928V87.299C41.4928 96.162 34.2821 103.373 25.4188 103.373ZM41.3906 98.5894C41.634 98.2461 41.8691 97.8965 42.0904 97.5376C42.7579 98.2608 43.4408 98.9341 44.1377 99.5564C43.2135 99.2656 42.2977 98.9419 41.3906 98.5894ZM55.6366 101.465C51.403 100.897 47.3406 98.3955 43.755 94.1374C44.5521 92.0075 44.9905 89.7036 44.9905 87.299V76.5718H45.915V73.0739H44.9905V67.727H33.2512C32.8459 64.8325 32.6088 61.8636 32.5385 58.8653H55.69L55.6366 101.465ZM55.7377 21.3874H51.513V24.8853H55.7332L55.6949 55.3678H32.5331C32.7649 43.9066 35.4339 33.214 40.1108 25.1068C44.4078 17.659 49.9059 13.256 55.7488 12.5203L55.7377 21.3874ZM73.4918 15.3647C73.2609 15.694 73.0372 16.0283 72.827 16.372C72.1857 15.6827 71.5305 15.0399 70.8623 14.4434C71.7467 14.7217 72.623 15.0301 73.4918 15.3647ZM59.2467 12.5203C63.4959 13.0542 67.5759 15.5333 71.178 19.782C70.9858 20.3061 70.8195 20.8428 70.673 21.3871H69.4106V24.8851H70.0745C70.0358 25.3827 70.0099 25.8841 70.0099 26.3916V46.2728H81.749V46.273C82.1647 49.2428 82.4054 52.2903 82.4685 55.3676H59.1929L59.2467 12.5203ZM59.1345 101.492L59.1657 76.5716H62.9765V73.0737H59.1701L59.1882 58.8651H82.462C82.321 64.9547 81.4921 70.8237 80.0384 76.1987V73.0737H74.92V76.5716H79.9355C78.6835 81.09 76.9893 85.2525 74.8892 88.893C70.5637 96.3905 65.0207 100.801 59.1345 101.492ZM70.8954 99.5337C73.4667 97.2348 75.8344 94.2543 77.9191 90.641C80.3085 86.4998 82.2028 81.7381 83.5543 76.5721H88.5692V73.0741H84.3748C85.3133 68.5522 85.8513 63.7724 85.9604 58.8655H102.039V55.3676H85.967C85.9067 52.2941 85.6729 49.2492 85.2757 46.273H95.2373C97.0967 46.273 98.8936 46.0029 100.596 45.5088C101.588 49.2394 102.09 53.1007 102.09 56.9999C102.091 76.9218 88.9578 93.8326 70.8954 99.5337ZM111.002 27.0101C111.002 35.7028 103.93 42.7748 95.2376 42.7748H73.5072V26.3916C73.5072 17.6988 80.5794 10.6271 89.2719 10.6271H95.2373C103.93 10.6271 111.002 17.6991 111.002 26.3916V27.0101H111.002Z" fill="#EDA122"/>
<path d="M87.8155 19.6904H82.4521V23.1884H87.8155V19.6904Z" fill="#EDA122"/>
<path d="M102.04 25.0537H82.4521V28.5516H102.04V25.0537Z" fill="#EDA122"/>
<path d="M91.3134 30.1841H82.4521V33.682H91.3134V30.1841Z" fill="#EDA122"/>
<path d="M98.5421 30.1841H93.1787V33.682H98.5421V30.1841Z" fill="#EDA122"/>
<path d="M25.3209 80.3203H12.9619V83.8182H25.3209V80.3203Z" fill="#EDA122"/>
<path d="M16.4598 85.4502H12.9619V88.9481H16.4598V85.4502Z" fill="#EDA122"/>
<path d="M32.5494 85.4502H19.957V88.9481H32.5494V85.4502Z" fill="#EDA122"/>
<path d="M16.4598 90.8135H12.9619V94.3114H16.4598V90.8135Z" fill="#EDA122"/>
<path d="M32.5494 90.8135H19.957V94.3114H32.5494V90.8135Z" fill="#EDA122"/>
<path d="M103.366 84.9756C102.699 85.3514 101.939 85.5503 101.167 85.5503H99.2451V89.0482H101.167C102.539 89.0482 103.894 88.6935 105.084 88.0229L103.366 84.9756Z" fill="#EDA122"/>
<path d="M97.1018 73.0747H91.9834V76.5726H97.1018V73.0747Z" fill="#EDA122"/>
<path d="M108.777 78.6357L105.445 79.6971C105.584 80.1356 105.655 80.5944 105.655 81.0609C105.655 81.8322 105.457 82.5919 105.082 83.2581L108.13 84.9734C108.8 83.7844 109.153 82.4314 109.153 81.0605C109.153 80.2333 109.027 79.4175 108.777 78.6357Z" fill="#EDA122"/>
<path d="M54.4456 73.0747H49.3271V76.5726H54.4456V73.0747Z" fill="#EDA122"/>
<path d="M71.509 73.0747H66.3906V76.5726H71.509V73.0747Z" fill="#EDA122"/>
<path d="M21.0858 21.3882H15.7178V24.8861H21.0858V21.3882Z" fill="#EDA122"/>
<path d="M9.3845 29.9795L5.91797 30.4448C6.22768 32.7498 7.52711 34.8016 9.48425 36.0738L11.3911 33.1414C10.2894 32.4256 9.5584 31.2731 9.3845 29.9795Z" fill="#EDA122"/>
<path d="M11.6918 21.6782C9.44964 22.301 7.59492 23.8687 6.60254 25.9793L9.76782 27.4675C10.3262 26.2801 11.3687 25.3984 12.6281 25.0483L11.6918 21.6782Z" fill="#EDA122"/>
<path d="M47.9335 21.3882H42.5654V24.8861H47.9335V21.3882Z" fill="#EDA122"/>
<path d="M65.8309 21.3882H60.4629V24.8861H65.8309V21.3882Z" fill="#EDA122"/>
</g>
<defs>
<clipPath id="clip0_243_2024">
<rect width="114" height="114" fill="white" transform="translate(0.5)"/>
</clipPath>
</defs>
</svg>
