<svg width="101" height="100" viewBox="0 0 101 100" fill="none" xmlns="http://www.w3.org/2000/svg">
<path d="M87.75 18.75H56.5V12.5C56.5 10.8424 55.8415 9.25268 54.6694 8.08058C53.4973 6.90848 51.9076 6.25 50.25 6.25H12.75C11.0924 6.25 9.50268 6.90848 8.33058 8.08058C7.15848 9.25268 6.5 10.8424 6.5 12.5V75C6.5 76.6576 7.15848 78.2473 8.33058 79.4194C9.50268 80.5915 11.0924 81.25 12.75 81.25H44V87.5C44 89.1576 44.6585 90.7473 45.8306 91.9194C47.0027 93.0915 48.5924 93.75 50.25 93.75H87.75C89.4076 93.75 90.9973 93.0915 92.1694 91.9194C93.3415 90.7473 94 89.1576 94 87.5V25C94 23.3424 93.3415 21.7527 92.1694 20.5806C90.9973 19.4085 89.4076 18.75 87.75 18.75V18.75ZM12.75 46.875H32.0313L23.9688 54.9688L28.375 59.375L44 43.75L28.375 28.125L23.9688 32.5312L32.0313 40.625H12.75V12.5H50.25V75H12.75V46.875ZM50.25 87.5V81.25C51.9076 81.25 53.4973 80.5915 54.6694 79.4194C55.8415 78.2473 56.5 76.6576 56.5 75V25H87.75V53.125H68.4687L76.5312 45.0312L72.125 40.625L56.5 56.25L72.125 71.875L76.5312 67.4688L68.4687 59.375H87.75V87.5H50.25Z" fill="#EDA122"/>
</svg>
