<svg width="606" height="521" viewBox="0 0 606 521" fill="none" xmlns="http://www.w3.org/2000/svg">
<path d="M24.91 321.701C24.91 321.701 48.9264 419.718 146.243 471.366C243.56 523.014 360.215 508.279 455.205 498.772C550.195 489.266 611.011 424.909 605.182 344.104C599.353 263.299 522.926 252.103 465.086 168.771C407.247 85.4392 404.57 55.2686 310.768 13.7902C216.967 -27.6882 95.6209 27.8748 48.276 133.935C0.931054 239.995 24.91 321.701 24.91 321.701Z" fill="#F7A31C"/>
<path opacity="0.7" d="M24.91 321.701C24.91 321.701 48.9264 419.718 146.243 471.366C243.56 523.014 360.215 508.279 455.205 498.772C550.195 489.266 611.011 424.909 605.182 344.104C599.353 263.299 522.926 252.103 465.086 168.771C407.247 85.4392 404.57 55.2686 310.768 13.7902C216.967 -27.6882 95.6209 27.8748 48.276 133.935C0.931054 239.995 24.91 321.701 24.91 321.701Z" fill="white"/>
<path d="M71.8984 51.5537V489.554" stroke="#263238" stroke-miterlimit="10"/>
<path d="M71.8984 34.666V43.0468" stroke="#263238" stroke-miterlimit="10"/>
<path d="M231.395 34.666V489.553" stroke="#263238" stroke-miterlimit="10"/>
<path d="M390.891 34.666V489.553" stroke="#263238" stroke-miterlimit="10"/>
<path d="M550.387 99.5234V489.553" stroke="#263238" stroke-miterlimit="10"/>
<path d="M550.387 34.666V88.5904" stroke="#263238" stroke-miterlimit="10"/>
<path d="M466.097 96.8359H100.859V313.297H466.097V96.8359Z" fill="#263238"/>
<path d="M464.033 102.989H102.923V307.142H464.033V102.989Z" fill="white" stroke="#263238" stroke-linecap="round" stroke-linejoin="round"/>
<path d="M468.149 93.1328H96.6943V104.741H468.149V93.1328Z" fill="#263238"/>
<path d="M287.575 92.9694C293.343 92.9694 298.019 88.2932 298.019 82.5247C298.019 76.7563 293.343 72.0801 287.575 72.0801C281.806 72.0801 277.13 76.7563 277.13 82.5247C277.13 88.2932 281.806 92.9694 287.575 92.9694Z" fill="white" stroke="#263238" stroke-linecap="round" stroke-linejoin="round"/>
<path d="M293.08 82.5254C293.082 83.6145 292.762 84.6798 292.158 85.5866C291.555 86.4933 290.696 87.2007 289.691 87.6192C288.685 88.0377 287.578 88.1484 286.51 87.9375C285.442 87.7265 284.46 87.2033 283.689 86.4341C282.918 85.6649 282.392 84.6843 282.179 83.6163C281.966 82.5483 282.074 81.4411 282.49 80.4347C282.906 79.4282 283.612 78.5679 284.517 77.9626C285.422 77.3573 286.487 77.0342 287.576 77.0342C289.034 77.0342 290.432 77.6123 291.463 78.6418C292.495 79.6712 293.076 81.0679 293.08 82.5254V82.5254Z" fill="#F7A31C" stroke="#263238" stroke-miterlimit="10"/>
<path d="M168.494 235.567H123.863V190.311H199.765V235.567H176.987" stroke="#263238" stroke-miterlimit="10"/>
<path d="M244.331 257.233H183.752V293.358H244.331V257.233Z" stroke="#263238" stroke-miterlimit="10"/>
<path d="M311.188 190.311H318.831V235.567H242.929V190.311H303.908" stroke="#263238" stroke-miterlimit="10"/>
<path d="M249.248 124.154H338.334V169.423H223.442V124.154H240.754" stroke="#263238" stroke-miterlimit="10"/>
<path d="M437.215 190.311H361.313V235.567H437.215V190.311Z" stroke="#263238" stroke-miterlimit="10"/>
<path d="M217.173 146.444C217.173 146.444 176.896 152.036 153.229 186.159" stroke="#263238" stroke-miterlimit="10"/>
<path d="M191.407 240.443L196.736 256.004" stroke="#263238" stroke-miterlimit="10"/>
<path d="M246.418 239.044L241.54 253.666" stroke="#263238" stroke-miterlimit="10"/>
<path d="M190.883 250.878L196.737 256.007L198.2 249.052" stroke="#263238" stroke-miterlimit="10"/>
<path d="M239.152 249.049L241.341 254.903L247.558 251.238" stroke="#263238" stroke-miterlimit="10"/>
<path d="M154.318 179.217L153.229 186.159L160.897 181.406" stroke="#263238" stroke-miterlimit="10"/>
<path d="M321.056 211.752H359.082" stroke="#263238" stroke-miterlimit="10"/>
<path d="M351.044 206.998L359.462 211.751L351.782 216.505" stroke="#263238" stroke-miterlimit="10"/>
<path d="M201.028 211.752H239.054" stroke="#263238" stroke-miterlimit="10"/>
<path d="M231.006 206.998L239.412 211.751L231.744 216.505" stroke="#263238" stroke-miterlimit="10"/>
<path d="M280.604 173.037V184.608" stroke="#263238" stroke-miterlimit="10"/>
<path d="M285.349 176.551L280.596 184.969L275.855 177.289" stroke="#263238" stroke-miterlimit="10"/>
<path d="M358.722 225.423H322.147" stroke="#263238" stroke-miterlimit="10"/>
<path d="M329.876 220.671L321.796 225.424L329.176 230.177" stroke="#263238" stroke-miterlimit="10"/>
<path d="M247.196 138.263H315.943" stroke="#263238" stroke-miterlimit="10"/>
<path d="M247.196 144.843H315.943" stroke="#263238" stroke-miterlimit="10"/>
<path d="M247.196 151.423H315.943" stroke="#263238" stroke-miterlimit="10"/>
<path d="M130.913 206.998H192.718" stroke="#263238" stroke-miterlimit="10"/>
<path d="M130.913 213.589H192.718" stroke="#263238" stroke-miterlimit="10"/>
<path d="M130.913 220.169H192.718" stroke="#263238" stroke-miterlimit="10"/>
<path d="M250.859 206.998H312.652" stroke="#263238" stroke-miterlimit="10"/>
<path d="M250.859 213.589H312.652" stroke="#263238" stroke-miterlimit="10"/>
<path d="M250.859 220.169H312.652" stroke="#263238" stroke-miterlimit="10"/>
<path d="M366.402 206.998H428.195" stroke="#263238" stroke-miterlimit="10"/>
<path d="M366.402 213.589H428.195" stroke="#263238" stroke-miterlimit="10"/>
<path d="M366.402 220.169H428.195" stroke="#263238" stroke-miterlimit="10"/>
<path d="M191.618 269.529H238.788" stroke="#263238" stroke-miterlimit="10"/>
<path d="M191.618 276.109H238.788" stroke="#263238" stroke-miterlimit="10"/>
<path d="M191.618 282.7H238.788" stroke="#263238" stroke-miterlimit="10"/>
<path d="M400.788 144.004C400.654 144.001 400.525 143.955 400.419 143.873C400.313 143.791 400.236 143.678 400.2 143.549C400.164 143.42 400.17 143.283 400.217 143.158C400.264 143.033 400.35 142.926 400.463 142.853L400.938 142.553L400.763 142.653C400.624 142.713 400.468 142.721 400.323 142.675C400.179 142.628 400.056 142.531 399.978 142.401C399.9 142.271 399.872 142.117 399.899 141.968C399.926 141.819 400.006 141.684 400.125 141.59L402.627 140.001L400.438 141.252C400.298 141.323 400.136 141.338 399.986 141.294C399.835 141.251 399.706 141.153 399.624 141.02C399.542 140.886 399.514 140.726 399.544 140.572C399.574 140.419 399.661 140.282 399.787 140.189L404.265 137.262L400.025 139.764C399.885 139.843 399.719 139.865 399.563 139.826C399.407 139.786 399.272 139.688 399.187 139.551C399.105 139.412 399.078 139.247 399.113 139.089C399.148 138.931 399.241 138.792 399.375 138.701L406.354 134.035L399.55 137.95C399.413 138.03 399.25 138.053 399.097 138.016C398.943 137.979 398.809 137.883 398.724 137.75C398.679 137.684 398.648 137.611 398.632 137.533C398.616 137.455 398.615 137.375 398.63 137.297C398.646 137.219 398.676 137.145 398.72 137.079C398.764 137.013 398.821 136.956 398.887 136.912L409.356 129.407L398.899 135.448C398.759 135.528 398.594 135.55 398.437 135.51C398.281 135.47 398.147 135.372 398.061 135.236C397.975 135.101 397.945 134.938 397.978 134.781C398.011 134.624 398.103 134.487 398.236 134.398L405.741 129.194L398.361 133.459C398.225 133.537 398.065 133.561 397.912 133.527C397.759 133.492 397.625 133.401 397.536 133.272C397.45 133.137 397.42 132.974 397.453 132.817C397.485 132.661 397.578 132.523 397.711 132.434L401.964 129.569L397.949 131.883C397.808 131.963 397.643 131.985 397.487 131.945C397.331 131.906 397.196 131.807 397.11 131.671C397.026 131.534 396.998 131.37 397.033 131.213C397.068 131.057 397.163 130.92 397.298 130.833L400.037 128.981L397.536 130.42C397.399 130.484 397.244 130.496 397.099 130.454C396.954 130.413 396.829 130.321 396.747 130.194C396.665 130.068 396.631 129.916 396.652 129.767C396.673 129.617 396.747 129.481 396.86 129.382L404.178 123.965L396.935 128.143C396.798 128.217 396.638 128.237 396.487 128.199C396.336 128.161 396.204 128.068 396.118 127.938C396.032 127.808 395.998 127.65 396.022 127.496C396.046 127.342 396.126 127.203 396.247 127.105L402.727 122.102L396.285 125.767C396.145 125.844 395.982 125.866 395.827 125.829C395.672 125.792 395.536 125.699 395.447 125.567C395.36 125.433 395.328 125.271 395.358 125.115C395.389 124.958 395.479 124.82 395.609 124.728L398.774 122.389L395.847 124.091C395.708 124.168 395.544 124.19 395.389 124.153C395.234 124.116 395.098 124.022 395.009 123.89C394.924 123.758 394.892 123.597 394.919 123.442C394.947 123.286 395.033 123.147 395.159 123.052L397.748 121.088L395.409 122.439C395.272 122.519 395.11 122.543 394.956 122.506C394.802 122.468 394.669 122.373 394.584 122.239C394.496 122.109 394.46 121.951 394.483 121.796C394.506 121.641 394.587 121.5 394.709 121.401L395.96 120.388L394.959 120.963C394.836 121.037 394.69 121.064 394.549 121.041C394.407 121.019 394.278 120.947 394.183 120.838C394.095 120.726 394.047 120.587 394.047 120.444C394.047 120.301 394.095 120.163 394.183 120.05L396.16 117.549L394.359 118.587C394.256 118.654 394.137 118.69 394.015 118.69C393.892 118.69 393.773 118.654 393.671 118.587C393.575 118.514 393.502 118.415 393.46 118.302C393.418 118.189 393.408 118.067 393.433 117.949L393.621 117.186C393.515 117.179 393.412 117.147 393.32 117.092C393.229 117.038 393.152 116.963 393.095 116.873C393.017 116.728 392.999 116.559 393.043 116.4C393.087 116.241 393.191 116.106 393.333 116.022L394.233 115.497C394.339 115.438 394.46 115.411 394.581 115.42C394.701 115.428 394.817 115.471 394.914 115.544C395.01 115.617 395.084 115.716 395.125 115.83C395.167 115.944 395.174 116.067 395.147 116.185L394.984 116.823L398.286 114.922C398.412 114.852 398.557 114.828 398.699 114.853C398.84 114.879 398.968 114.952 399.062 115.06C399.156 115.169 399.209 115.306 399.214 115.449C399.218 115.593 399.174 115.733 399.087 115.847L397.123 118.349L403.04 114.934C403.176 114.859 403.336 114.837 403.488 114.871C403.64 114.906 403.774 114.995 403.865 115.122C403.952 115.253 403.986 115.412 403.96 115.568C403.935 115.723 403.852 115.863 403.728 115.96L402.477 116.986L405.604 115.172C405.741 115.098 405.901 115.078 406.052 115.117C406.203 115.155 406.335 115.248 406.421 115.378C406.507 115.507 406.541 115.665 406.517 115.819C406.494 115.973 406.413 116.112 406.292 116.21L403.702 118.174L407.968 115.672C408.107 115.595 408.271 115.572 408.426 115.609C408.581 115.646 408.717 115.74 408.806 115.872C408.891 116.005 408.923 116.165 408.896 116.321C408.868 116.476 408.782 116.616 408.656 116.71L405.479 119.05L410.244 116.298C410.312 116.252 410.387 116.221 410.467 116.205C410.546 116.189 410.628 116.189 410.708 116.205C410.787 116.22 410.863 116.252 410.931 116.296C410.998 116.341 411.056 116.399 411.101 116.467C411.146 116.534 411.178 116.609 411.194 116.689C411.21 116.768 411.21 116.85 411.194 116.93C411.179 117.009 411.147 117.085 411.103 117.153C411.058 117.22 411 117.278 410.932 117.323L404.453 122.327L412.996 117.323C413.136 117.246 413.299 117.224 413.454 117.261C413.609 117.298 413.745 117.391 413.834 117.524C413.92 117.656 413.952 117.817 413.924 117.972C413.896 118.127 413.811 118.267 413.684 118.362L406.354 123.778L415.385 118.574C415.524 118.494 415.689 118.47 415.845 118.507C416 118.544 416.136 118.64 416.224 118.774C416.31 118.911 416.34 119.076 416.308 119.235C416.275 119.394 416.182 119.533 416.048 119.625L413.297 121.464L416.849 119.412C416.987 119.346 417.145 119.333 417.292 119.375C417.44 119.418 417.566 119.513 417.648 119.643C417.73 119.772 417.761 119.928 417.736 120.079C417.711 120.23 417.631 120.367 417.512 120.463L413.272 123.327L418.275 120.425C418.413 120.359 418.571 120.346 418.718 120.389C418.866 120.431 418.992 120.526 419.074 120.656C419.156 120.786 419.187 120.941 419.162 121.092C419.137 121.243 419.057 121.38 418.938 121.476L411.433 126.68L419.964 121.751C420.102 121.685 420.26 121.672 420.407 121.715C420.554 121.757 420.681 121.852 420.763 121.982C420.844 122.111 420.876 122.267 420.851 122.418C420.826 122.569 420.746 122.706 420.627 122.802L410.157 130.307L421.815 123.565C421.955 123.486 422.12 123.464 422.277 123.503C422.433 123.543 422.568 123.641 422.653 123.778C422.697 123.844 422.728 123.919 422.743 123.997C422.758 124.075 422.757 124.156 422.741 124.234C422.725 124.312 422.693 124.386 422.648 124.451C422.603 124.517 422.545 124.573 422.478 124.616L415.486 129.307L423.078 124.916C423.218 124.846 423.38 124.831 423.531 124.874C423.681 124.917 423.81 125.015 423.892 125.149C423.974 125.283 424.002 125.442 423.972 125.596C423.942 125.75 423.855 125.887 423.729 125.979L419.251 128.906L424.041 126.142C424.181 126.059 424.347 126.035 424.504 126.075C424.661 126.115 424.796 126.216 424.879 126.355C424.923 126.422 424.953 126.497 424.967 126.575C424.981 126.654 424.98 126.735 424.962 126.813C424.945 126.891 424.912 126.965 424.865 127.03C424.819 127.095 424.76 127.151 424.692 127.193L422.19 128.794L424.779 127.293C424.919 127.21 425.085 127.186 425.242 127.226C425.399 127.266 425.534 127.366 425.618 127.505C425.7 127.644 425.726 127.81 425.691 127.968C425.657 128.126 425.563 128.264 425.43 128.356L424.955 128.656L425.492 128.343C425.631 128.277 425.788 128.264 425.936 128.307C426.083 128.349 426.21 128.444 426.291 128.574C426.373 128.703 426.405 128.859 426.379 129.01C426.354 129.161 426.275 129.298 426.155 129.394L418.95 134.523L426.456 130.182C426.593 130.099 426.759 130.073 426.916 130.11C427.073 130.148 427.208 130.245 427.294 130.382C427.38 130.519 427.41 130.684 427.378 130.843C427.345 131.002 427.252 131.141 427.119 131.233L426.956 131.333C427.095 131.254 427.259 131.231 427.415 131.269C427.57 131.307 427.705 131.403 427.792 131.538C427.878 131.673 427.91 131.836 427.88 131.993C427.85 132.15 427.761 132.29 427.631 132.384L426.23 133.372L427.556 132.621C427.682 132.54 427.834 132.508 427.982 132.531C428.13 132.554 428.265 132.631 428.36 132.746C428.456 132.862 428.506 133.008 428.501 133.158C428.495 133.308 428.435 133.451 428.332 133.559L425.955 136.299L428.257 134.973C428.368 134.907 428.497 134.879 428.626 134.892C428.754 134.906 428.875 134.96 428.97 135.048C429.068 135.132 429.137 135.245 429.169 135.37C429.2 135.496 429.192 135.628 429.145 135.748L428.895 136.336C429.016 136.323 429.139 136.345 429.248 136.401C429.357 136.456 429.447 136.543 429.508 136.649C429.59 136.792 429.612 136.961 429.57 137.121C429.528 137.28 429.425 137.416 429.283 137.5L427.957 138.263C427.845 138.33 427.714 138.36 427.584 138.348C427.454 138.336 427.332 138.283 427.234 138.196C427.136 138.11 427.069 137.994 427.041 137.867C427.014 137.739 427.028 137.606 427.081 137.487L427.294 136.962L423.353 139.238C423.226 139.306 423.078 139.328 422.936 139.299C422.795 139.27 422.667 139.193 422.576 139.081C422.484 138.969 422.434 138.829 422.435 138.684C422.435 138.539 422.486 138.399 422.578 138.288L424.955 135.548L415.836 140.777C415.698 140.854 415.537 140.876 415.384 140.839C415.231 140.801 415.097 140.708 415.01 140.577C414.965 140.511 414.934 140.437 414.918 140.36C414.902 140.282 414.902 140.202 414.917 140.124C414.932 140.046 414.962 139.972 415.006 139.906C415.05 139.84 415.107 139.783 415.173 139.739L416.574 138.738L411.383 141.728C411.243 141.807 411.077 141.829 410.921 141.789C410.765 141.75 410.63 141.651 410.545 141.515C410.46 141.379 410.432 141.214 410.467 141.058C410.502 140.901 410.597 140.764 410.732 140.677L410.882 140.564L407.418 142.566C407.281 142.645 407.118 142.669 406.964 142.632C406.811 142.594 406.677 142.499 406.592 142.366C406.547 142.3 406.516 142.226 406.5 142.148C406.484 142.071 406.483 141.99 406.498 141.913C406.513 141.835 406.544 141.76 406.588 141.694C406.632 141.628 406.689 141.572 406.755 141.527L413.997 136.436L401.101 143.879C401.012 143.952 400.903 143.995 400.788 144.004Z" fill="#F7A31C"/>
<path d="M381.511 161.518C378.683 159.113 376.407 156.128 374.836 152.765C373.264 149.403 372.435 145.741 372.404 142.03C372.404 127.27 385.201 115.312 400.986 115.312C416.772 115.312 429.581 127.27 429.581 142.03C429.581 156.79 416.785 168.748 400.986 168.748C396.85 168.749 392.758 167.897 388.966 166.246" stroke="#263238" stroke-miterlimit="10"/>
<path d="M347.225 136.261H365.274" stroke="#263238" stroke-miterlimit="10"/>
<path d="M347.225 142.479H365.274" stroke="#263238" stroke-miterlimit="10"/>
<path d="M347.225 148.708H365.274" stroke="#263238" stroke-miterlimit="10"/>
<path d="M129.038 242.396H160.785" stroke="#263238" stroke-miterlimit="10"/>
<path d="M129.038 248.625H160.785" stroke="#263238" stroke-miterlimit="10"/>
<path d="M122.447 161.465H154.194" stroke="#263238" stroke-miterlimit="10"/>
<path d="M129.038 254.843H160.785" stroke="#263238" stroke-miterlimit="10"/>
<path d="M129.038 267.914H160.785" stroke="#263238" stroke-miterlimit="10"/>
<path d="M129.038 274.143H160.785" stroke="#263238" stroke-miterlimit="10"/>
<path d="M129.038 280.371H160.785" stroke="#263238" stroke-miterlimit="10"/>
<path d="M393.381 115.986L401.099 143.918L429.331 137.476" stroke="#263238" stroke-miterlimit="10"/>
<path d="M122.782 123.139V154.235H172.716" stroke="#263238" stroke-miterlimit="10"/>
<path d="M138.332 127.38H127.963V154.236H138.332V127.38Z" fill="#F7A31C" stroke="#263238" stroke-miterlimit="10"/>
<path d="M164.712 133.495H154.343V154.222H164.712V133.495Z" fill="#F7A31C" stroke="#263238" stroke-miterlimit="10"/>
<path d="M151.531 118.898H141.161V154.235H151.531V118.898Z" fill="#F7A31C" stroke="#263238" stroke-miterlimit="10"/>
<path d="M62.6666 323.54C62.6666 323.54 62.6666 318.311 55.3491 311.031C48.0316 303.751 43.3284 299.536 43.3284 299.536C43.3284 299.536 39.6634 311.557 46.4681 318.874C51.4638 324.022 56.8823 328.742 62.6666 332.984V323.54Z" fill="#F7A31C"/>
<path d="M52.0473 356.186C52.0473 356.186 52.0473 350.958 44.7298 343.678C37.4123 336.398 32.7091 332.157 32.7091 332.157C32.7091 332.157 29.044 344.178 35.8362 351.495C40.8539 356.644 46.2932 361.363 52.0973 365.605L52.0473 356.186Z" fill="#F7A31C"/>
<path d="M62.2069 332.446C62.2069 332.446 62.7698 327.242 70.8128 320.738C78.8558 314.234 83.9843 310.581 83.9843 310.581C83.9843 310.581 86.361 322.914 78.8308 329.481C73.3113 334.069 67.4204 338.19 61.2188 341.802L62.2069 332.446Z" fill="#F7A31C"/>
<path d="M49.3812 370.996C49.3812 370.996 50.4695 365.893 59.1629 360.264C67.8564 354.635 73.3226 351.508 73.3226 351.508C73.3226 351.508 74.3858 364.016 66.2052 369.758C60.2503 373.741 53.9744 377.222 47.4424 380.165L49.3812 370.996Z" fill="#F7A31C"/>
<path d="M51.7825 413.036C51.7825 413.036 51.7825 407.808 59.1125 400.528C66.4425 393.248 71.1332 389.032 71.1332 389.032C71.1332 389.032 74.7857 401.053 67.9936 408.37C62.979 413.522 57.5394 418.242 51.7324 422.48L51.7825 413.036Z" fill="#F7A31C"/>
<path d="M51.672 423.295C51.672 423.295 52.41 418.129 46.2058 409.836C40.0015 401.543 35.9362 396.752 35.9362 396.752C35.9362 396.752 30.6076 408.135 36.299 416.34C40.5142 422.144 45.2089 427.583 50.3336 432.601L51.672 423.295Z" fill="#F7A31C"/>
<path d="M44.458 453.717C44.458 453.717 44.4581 448.488 51.7756 441.208C59.0931 433.928 63.7963 429.7 63.7963 429.7C63.7963 429.7 67.4613 441.721 60.6566 449.038C55.6432 454.195 50.2036 458.919 44.3955 463.161L44.458 453.717Z" fill="#F7A31C"/>
<path d="M49.3348 481.284C49.3348 481.284 48.0214 476.218 53.2375 467.286C58.4536 458.355 61.9935 453.114 61.9935 453.114C61.9935 453.114 68.573 463.822 63.8573 472.628C60.3192 478.873 56.2692 484.814 51.749 490.39L49.3348 481.284Z" fill="#F7A31C"/>
<path d="M63.3326 322.152C62.9638 327.605 62.2956 333.034 61.3312 338.413C58.4417 353.424 51.1993 363.005 48.3098 376.502C45.4203 389.999 53.726 407.398 51.4995 424.735C49.2729 442.072 42.5308 451.729 44.4572 463.299C46.3835 474.869 56.5154 506.203 56.5154 506.203" stroke="#263238" stroke-linecap="round" stroke-linejoin="round"/>
<path d="M62.1426 335.923L70.023 329.869" stroke="#263238" stroke-linecap="round" stroke-linejoin="round"/>
<path d="M62.5054 328.943L59.2031 323.076" stroke="#263238" stroke-linecap="round" stroke-linejoin="round"/>
<path d="M48.7441 375.937C48.7441 375.937 55.3487 370.934 62.1408 366.043" stroke="#263238" stroke-linecap="round" stroke-linejoin="round"/>
<path d="M52.0504 365.594C52.0504 365.594 46.5466 354.811 40.3174 347.656" stroke="#263238" stroke-linecap="round" stroke-linejoin="round"/>
<path d="M52.0449 420.482C55.8153 413.534 60.5721 407.167 66.1671 401.582" stroke="#263238" stroke-linecap="round" stroke-linejoin="round"/>
<path d="M50.7728 427.81C48.7671 423.096 46.3739 418.557 43.6179 414.238C39.7652 408.559 39.2148 407.821 39.2148 407.821" stroke="#263238" stroke-linecap="round" stroke-linejoin="round"/>
<path d="M44.4551 463.322C46.1256 459.165 48.1119 455.143 50.3966 451.289C52.683 447.722 55.2602 444.35 58.1019 441.207" stroke="#263238" stroke-linecap="round" stroke-linejoin="round"/>
<path d="M51.7221 490.393C51.3386 486.425 52.0208 482.426 53.6984 478.81C56.4503 473.494 59.565 466.514 60.8533 463.8" stroke="#263238" stroke-linecap="round" stroke-linejoin="round"/>
<path d="M14.7742 393.376C14.7742 393.376 14.1988 390.099 18.0014 384.72C21.804 379.342 24.2557 376.202 24.2557 376.202C24.2557 376.202 27.8582 383.345 24.3808 388.711C21.8068 392.483 18.9196 396.031 15.7499 399.318L14.7742 393.376Z" fill="#F7A31C"/>
<path d="M24.9568 412.7C24.9568 412.7 24.3814 409.422 28.184 404.031C31.9867 398.64 34.4383 395.525 34.4383 395.525C34.4383 395.525 38.0283 402.668 34.5634 408.034C31.9877 411.808 29.1006 415.361 25.9325 418.654L24.9568 412.7Z" fill="#F7A31C"/>
<path d="M16.0239 398.917C16.0239 398.917 15.1108 395.714 9.35682 392.512C3.60288 389.31 0.000410374 387.509 0.000410374 387.509C0.000410374 387.509 -0.149692 395.514 5.29153 398.766C9.2315 401.092 13.3616 403.08 17.6375 404.708L16.0239 398.917Z" fill="#F7A31C"/>
<path d="M28.2334 421.694C28.2334 421.694 26.9826 418.617 20.9284 416.027C14.8743 413.438 11.0967 412.1 11.0967 412.1C11.0967 412.1 11.7972 420.068 17.5511 422.769C21.7283 424.607 26.0501 426.096 30.4724 427.222L28.2334 421.694Z" fill="#F7A31C"/>
<path d="M31.2835 448.325C31.2835 448.325 30.7206 445.047 25.3294 441.245C19.9382 437.442 16.5734 435.341 16.5734 435.341C16.5734 435.341 15.5727 443.284 20.6387 447.136C24.3158 449.821 28.2113 452.194 32.2842 454.229L31.2835 448.325Z" fill="#F7A31C"/>
<path d="M32.4697 454.744C32.4697 454.744 31.444 451.579 34.4335 445.712C37.4231 439.846 39.4369 436.394 39.4369 436.394C39.4369 436.394 44.0151 442.948 41.3382 448.715C39.3311 452.813 36.9793 456.734 34.3084 460.435L32.4697 454.744Z" fill="#F7A31C"/>
<path d="M41.6551 481.184C41.6551 481.184 42.0429 477.881 47.1964 473.779C52.35 469.676 55.6397 467.387 55.6397 467.387C55.6397 467.387 57.0782 475.255 52.2499 479.382C48.7208 482.278 44.955 484.872 40.9922 487.138L41.6551 481.184Z" fill="#F7A31C"/>
<path d="M40.3026 473.029C40.3026 473.029 39.7897 469.752 34.3485 466C28.9072 462.247 25.5925 460.083 25.5925 460.083C25.5925 460.083 24.6043 468.026 29.6703 471.879C33.36 474.564 37.2679 476.937 41.3533 478.971L40.3026 473.029Z" fill="#F7A31C"/>
<path d="M40.229 490.854C40.229 490.854 40.5167 487.54 36.2638 482.499C32.0109 477.458 29.259 474.556 29.259 474.556C29.259 474.556 26.2944 481.986 30.2096 486.989C33.1209 490.53 36.3261 493.819 39.7912 496.821L40.229 490.854Z" fill="#F7A31C"/>
<path d="M14.1865 392.614C15.0087 396.002 16.0151 399.343 17.2011 402.621C20.6409 411.69 26.2198 416.943 29.5095 425.137C32.7993 433.33 29.5095 445.15 32.7367 455.733C35.9639 466.315 41.2926 471.681 41.3426 479.149C41.3927 486.616 38.4406 507.28 38.4406 507.28" stroke="#263238" stroke-linecap="round" stroke-linejoin="round"/>
<path d="M16.4242 401.08L10.8203 398.141" stroke="#263238" stroke-linecap="round" stroke-linejoin="round"/>
<path d="M15.4346 396.751L16.8731 392.711" stroke="#263238" stroke-linecap="round" stroke-linejoin="round"/>
<path d="M29.1604 424.721C29.1604 424.721 24.4822 422.332 19.6914 419.955" stroke="#263238" stroke-linecap="round" stroke-linejoin="round"/>
<path d="M26.0332 418.604C27.407 414.261 29.2219 410.069 31.4494 406.096" stroke="#263238" stroke-linecap="round" stroke-linejoin="round"/>
<path d="M31.9329 453.018C28.8111 449.072 25.1376 445.597 21.0254 442.698" stroke="#263238" stroke-linecap="round" stroke-linejoin="round"/>
<path d="M33.5371 457.482C34.2796 454.306 35.2837 451.197 36.5392 448.188C38.3404 444.21 38.6031 443.685 38.6031 443.685" stroke="#263238" stroke-linecap="round" stroke-linejoin="round"/>
<path d="M41.041 484.761C42.8643 482.505 44.8817 480.412 47.0701 478.507C48.4879 477.467 49.8183 476.312 51.0479 475.055" stroke="#263238" stroke-linecap="round" stroke-linejoin="round"/>
<path d="M41.3417 479.059C39.8511 476.634 38.1785 474.326 36.3382 472.154C34.5154 470.165 32.5324 468.328 30.4092 466.663" stroke="#263238" stroke-linecap="round" stroke-linejoin="round"/>
<path d="M39.7893 496.822C39.5955 494.29 38.7321 491.856 37.2876 489.767C34.986 486.74 32.2842 482.7 31.1709 481.111" stroke="#263238" stroke-linecap="round" stroke-linejoin="round"/>
<path d="M579.084 172.356C584.755 147.95 569.566 123.568 545.16 117.897C520.754 112.227 496.372 127.415 490.701 151.821C485.03 176.228 500.219 200.61 524.625 206.28C549.031 211.951 573.413 196.762 579.084 172.356Z" fill="#263238" stroke="#263238" stroke-miterlimit="10"/>
<path d="M549.883 197.577C569.483 189.278 578.643 166.661 570.344 147.062C562.045 127.462 539.428 118.301 519.828 126.601C500.229 134.9 491.068 157.517 499.367 177.116C507.667 196.716 530.283 205.877 549.883 197.577Z" fill="white" stroke="#263238" stroke-miterlimit="10"/>
<path d="M546.764 137.35L534.855 162.054H551.867" stroke="#263238" stroke-miterlimit="10"/>
<path d="M539.184 162.043C539.187 162.9 538.935 163.738 538.461 164.451C537.987 165.164 537.312 165.721 536.521 166.05C535.731 166.38 534.86 166.467 534.02 166.302C533.179 166.136 532.407 165.725 531.8 165.12C531.194 164.516 530.78 163.744 530.612 162.904C530.444 162.065 530.529 161.194 530.857 160.402C531.184 159.611 531.738 158.934 532.45 158.458C533.162 157.982 534 157.728 534.856 157.728C535.424 157.726 535.987 157.836 536.512 158.052C537.037 158.269 537.514 158.586 537.916 158.987C538.318 159.388 538.637 159.864 538.855 160.389C539.072 160.913 539.184 161.475 539.184 162.043Z" fill="#F7A31C" stroke="#263238" stroke-miterlimit="10"/>
<path d="M289.537 279.272L283.708 270.791C283.708 270.791 284.858 257.157 283.558 255.03C282.257 252.904 261.192 250.44 259.941 252.016C258.691 253.592 263.119 255.018 263.119 255.018C263.119 255.018 260.117 256.344 260.429 257.857C260.892 260.084 264.732 260.359 264.732 260.359C264.732 260.359 261.68 262.398 262.055 263.724C262.356 264.775 265.408 265.6 265.408 265.6C265.408 265.6 262.318 267.001 264.845 268.79C267.371 270.579 269.51 272.43 269.51 272.43C269.51 272.43 267.759 276.182 272.5 279.447C277.241 282.712 285.434 288.653 285.434 288.653L289.537 279.272Z" fill="white" stroke="#263238" stroke-linecap="round" stroke-linejoin="round"/>
<path d="M260.727 246.336L256.062 245.948V247.387L259.814 249.501C260.027 248.422 260.333 247.363 260.727 246.336V246.336Z" fill="#263238" stroke="#263238" stroke-linecap="round" stroke-linejoin="round"/>
<path d="M279.067 255.782C278.859 255.789 278.651 255.76 278.454 255.694L259.941 249.852C259.699 249.788 259.474 249.675 259.277 249.521C259.08 249.366 258.917 249.174 258.797 248.955C258.676 248.735 258.602 248.494 258.577 248.245C258.553 247.997 258.579 247.745 258.654 247.507C258.729 247.269 258.852 247.048 259.015 246.858C259.178 246.669 259.377 246.514 259.602 246.403C259.826 246.293 260.07 246.229 260.32 246.216C260.57 246.202 260.819 246.239 261.054 246.325L279.567 252.167C279.983 252.299 280.34 252.574 280.573 252.943C280.806 253.312 280.901 253.752 280.841 254.185C280.781 254.618 280.57 255.015 280.245 255.307C279.921 255.6 279.503 255.768 279.067 255.782V255.782Z" fill="white" stroke="#263238" stroke-linecap="round" stroke-linejoin="round"/>
<path d="M288.707 259.421C288.427 259.422 288.148 259.38 287.881 259.296L278.325 256.281C277.964 256.231 277.619 256.103 277.314 255.905C277.008 255.708 276.749 255.446 276.555 255.138C276.361 254.83 276.236 254.484 276.189 254.123C276.143 253.762 276.176 253.396 276.286 253.049C276.395 252.702 276.58 252.383 276.825 252.114C277.071 251.846 277.372 251.634 277.708 251.494C278.044 251.354 278.406 251.289 278.77 251.304C279.133 251.318 279.49 251.412 279.813 251.578L289.37 254.593C289.988 254.796 290.502 255.233 290.803 255.81C291.105 256.387 291.169 257.058 290.983 257.682C290.828 258.17 290.526 258.599 290.119 258.91C289.711 259.221 289.219 259.399 288.707 259.421Z" fill="#263238" stroke="#263238" stroke-linecap="round" stroke-linejoin="round"/>
<path d="M281 262.21C280.139 259.711 279.137 257.264 277.998 254.879C276.685 252.453 274.158 250.364 273.158 247.925C272.157 245.486 269.48 249.263 270.468 251.089C271.456 252.916 273.695 255.63 273.733 256.868C273.771 258.107 274.096 259.02 272.67 263.123C271.244 267.225 270.456 271.879 273.645 275.156" fill="white"/>
<path d="M281 262.21C280.139 259.711 279.137 257.264 277.998 254.879C276.685 252.453 274.158 250.364 273.158 247.925C272.157 245.486 269.48 249.263 270.468 251.089C271.456 252.916 273.695 255.63 273.733 256.868C273.771 258.107 274.096 259.02 272.67 263.123C271.244 267.225 270.456 271.879 273.645 275.156" stroke="#263238" stroke-linecap="round" stroke-linejoin="round"/>
<path d="M263.165 255.016L273.735 256.867" stroke="#263238" stroke-linecap="round" stroke-linejoin="round"/>
<path d="M264.78 260.371C266.031 260.021 272.673 263.073 272.673 263.073" stroke="#263238" stroke-linecap="round" stroke-linejoin="round"/>
<path d="M265.456 265.612L270.947 267.451" stroke="#263238" stroke-linecap="round" stroke-linejoin="round"/>
<path d="M363.547 262.974C363.547 262.974 360.395 261.11 359.006 266.101C357.618 271.092 353.54 279.86 351.739 281.761C349.938 283.663 332.226 301.2 332.226 301.2C332.226 301.2 324.62 295.233 322.832 297.447C322.079 298.545 321.035 299.411 319.817 299.949L289.446 276.12L278.188 293.144C278.188 293.144 319.467 330.87 322.919 332.008C326.371 333.147 328.811 332.759 330.037 332.108C331.262 331.458 353.928 314.396 353.928 314.396C353.928 314.396 367.75 269.791 368.938 268.215C370.126 266.639 363.547 262.974 363.547 262.974Z" fill="#F7A31C" stroke="#263238" stroke-linecap="round" stroke-linejoin="round"/>
<path d="M322.758 301.3C322.758 301.3 328.912 308.405 328.912 317.398Z" fill="#F7A31C"/>
<path d="M322.758 301.3C322.758 301.3 328.912 308.405 328.912 317.398" stroke="#263238" stroke-linecap="round" stroke-linejoin="round"/>
<path d="M332.703 304.139C332.703 304.139 334.591 308.879 331.752 319.287Z" fill="#F7A31C"/>
<path d="M332.703 304.139C332.703 304.139 334.591 308.879 331.752 319.287" stroke="#263238" stroke-linecap="round" stroke-linejoin="round"/>
<path d="M377.084 207.923C377.084 207.923 363.675 199.167 365.264 190.848C366.852 182.53 396.923 175.838 414.21 181.454C431.496 187.071 435.011 212.939 432.735 228.899C430.458 244.86 429.082 281.285 429.082 281.285L370.43 283.012C370.43 283.012 375.896 240.357 377.034 226.873C378.172 213.389 377.084 207.923 377.084 207.923Z" fill="#263238" stroke="#263238" stroke-linecap="round" stroke-linejoin="round"/>
<path d="M347.061 442.771C348.312 455.517 350.688 511.68 352.064 519.998H413.043C412.918 510.417 412.756 445.698 414.132 440.406C415.87 433.789 418.31 411.724 415.62 399.066C412.931 386.407 409.666 380.303 409.666 380.303L346.373 380.24L346.56 385.431C346.56 385.431 345.372 424.721 347.061 442.771Z" fill="#263238" stroke="#263238" stroke-linecap="round" stroke-linejoin="round"/>
<path d="M360.595 404.545C363.096 406.259 365.598 407.484 365.598 409.961C366.849 432.201 371.777 494.669 373.516 517.172" stroke="#4C4C4C" stroke-linecap="round" stroke-linejoin="round"/>
<path d="M378.769 262.109L409.715 263.26C409.715 263.26 384.873 301.499 385.086 322.513C385.299 343.528 389.464 387.082 389.464 387.082C389.464 387.082 375.855 397.852 361.783 395.838C360.256 395.613 359.443 383.005 359.443 383.005C359.443 383.005 358.543 395.251 357.505 395.063C349.624 393.649 346.56 385.506 346.56 385.506L348.198 343.415C348.198 343.415 348.198 315.809 351.275 307.878C354.352 299.948 375.142 264.724 375.142 264.724L378.769 262.109Z" fill="white" stroke="#263238" stroke-linecap="round" stroke-linejoin="round"/>
<path d="M377.519 286.476C377.519 286.476 367.95 306.364 364.448 318.022C360.945 329.68 359.444 382.954 359.444 382.954" stroke="#263238" stroke-linecap="round" stroke-linejoin="round"/>
<path d="M405.99 262.96C405.99 262.96 384.288 295.332 380.098 306.99C375.907 318.648 373.105 363.279 373.656 382.192C374.206 401.105 380.185 421.969 380.185 421.969C397.782 424.778 415.787 423.542 432.834 418.354C432.834 418.354 425.254 384.793 421.576 373.773C419.28 366.551 417.548 359.161 416.398 351.671C416.398 351.671 441.315 272.216 441.315 270.99C441.315 269.765 440.827 268.489 438.338 267.776C435.848 267.063 405.99 262.96 405.99 262.96Z" fill="#F7A31C" stroke="#263238" stroke-linecap="round" stroke-linejoin="round"/>
<path d="M386.099 386.796L418.308 384.219L418.734 389.372L404.999 391.086" fill="#F7A31C"/>
<path d="M386.099 386.796L418.308 384.219L418.734 389.372L404.999 391.086" stroke="#263238" stroke-linecap="round" stroke-linejoin="round"/>
<path d="M378.482 266.239C378.482 266.239 352.627 311.933 352.052 320.188C351.476 328.444 347.649 366.47 345.522 378.491C343.396 390.511 334.202 413.852 334.202 413.852C334.202 413.852 331.838 403.62 332.526 399.067C333.214 394.514 343.171 368.671 344.234 362.868C345.297 357.064 346.736 336.412 346.485 327.356C346.235 318.3 345.61 311.72 347.486 305.078C349.362 298.436 363.547 262.974 363.547 262.974L384.124 261.961L378.482 266.239Z" fill="#F7A31C" stroke="#263238" stroke-linecap="round" stroke-linejoin="round"/>
<path d="M372.877 262.46L368.574 282.161L379.632 273.58L372.877 262.46Z" fill="white" stroke="#263238" stroke-linecap="round" stroke-linejoin="round"/>
<path d="M386.051 252.903L372.88 262.46L377.846 275.456L377.571 286.476L392.506 264.324L386.051 252.903Z" fill="white" stroke="#263238" stroke-linecap="round" stroke-linejoin="round"/>
<path d="M385.288 247.724C385.288 247.724 382.787 266.149 381.999 271.053C381.211 275.956 377.521 286.476 377.521 286.476C377.521 286.476 400.999 263.773 402.162 261.897C403.326 260.02 407.378 241.883 407.378 241.883C407.378 241.883 392.318 247.524 385.288 247.724Z" fill="white" stroke="#263238" stroke-linecap="round" stroke-linejoin="round"/>
<path d="M384.575 252.89C387.777 254.892 390.267 254.892 393.969 254.316C397.672 253.741 402.725 250.264 406.127 247.524C406.878 244.334 407.378 241.883 407.378 241.883C407.378 241.883 392.268 247.524 385.238 247.724C385.288 247.724 385.026 249.876 384.575 252.89Z" fill="#263238" stroke="#263238" stroke-linecap="round" stroke-linejoin="round"/>
<path d="M392.807 191.874L375.483 205.521C375.483 205.521 373.731 218.717 373.081 227.911C372.736 231.693 373.299 235.503 374.725 239.024C376.15 242.544 378.395 245.673 381.274 248.15C386.278 252.591 389.054 252.816 393.92 252.053C398.786 251.29 405.966 245.586 408.643 243.059C411.32 240.532 416.298 233.052 416.298 233.052C416.298 233.052 420.288 233.853 421.464 231.989C422.051 231.114 422.534 230.174 422.903 229.187C422.903 229.187 406.429 219.893 399.662 208.173C392.895 196.452 392.807 191.874 392.807 191.874Z" fill="white" stroke="#263238" stroke-linecap="round" stroke-linejoin="round"/>
<path d="M387.413 216.177C387.16 218.107 386.594 219.983 385.736 221.731C384.573 223.594 380.02 224.645 382.522 226.734C384.424 228.047 386.69 228.73 389.001 228.685" stroke="#263238" stroke-linecap="round" stroke-linejoin="round"/>
<path d="M382.388 232.225C382.388 232.225 391.669 236.227 397.636 230.849" stroke="#263238" stroke-linecap="round" stroke-linejoin="round"/>
<path d="M385.488 233.665C385.488 233.665 386.864 238.818 389.891 237.805C392.918 236.792 395.545 232.802 395.545 232.802C392.216 233.318 388.856 233.606 385.488 233.665V233.665Z" stroke="#263238" stroke-linecap="round" stroke-linejoin="round"/>
<path d="M399.097 218.58C399.097 219.931 398.559 221.082 397.846 221.082C397.133 221.082 396.446 220.031 396.408 218.68C396.37 217.329 396.946 216.179 397.659 216.179C398.372 216.179 399.06 217.242 399.097 218.58Z" fill="#263238"/>
<path d="M384.522 216.879C384.522 218.23 383.984 219.381 383.271 219.381C382.558 219.381 381.87 218.33 381.833 216.979C381.795 215.628 382.371 214.478 383.084 214.478C383.797 214.478 384.485 215.528 384.522 216.879Z" fill="#263238"/>
<path d="M379.622 211.214C380.079 210.735 380.629 210.356 381.238 210.101C381.848 209.845 382.504 209.718 383.165 209.727C383.826 209.736 384.478 209.882 385.08 210.155C385.682 210.428 386.222 210.823 386.664 211.314" stroke="#263238" stroke-linecap="round" stroke-linejoin="round"/>
<path d="M393.705 212.074C393.705 212.074 400.66 209.435 403.587 215.452" stroke="#263238" stroke-linecap="round" stroke-linejoin="round"/>
<path d="M389.852 267.776L377.568 286.477L395.618 276.77L389.852 267.776Z" fill="white" stroke="#263238" stroke-linecap="round" stroke-linejoin="round"/>
<path d="M410.468 251.563L389.854 267.775L395.858 284.711L415.659 261.808L410.468 251.563Z" fill="white" stroke="#263238" stroke-linecap="round" stroke-linejoin="round"/>
<path d="M385.416 347.644C382.632 346.868 379.974 345.697 377.523 344.166C372.907 341.414 367.991 342.377 363.876 342.503C359.761 342.628 356.896 343.541 357.359 345.167C357.822 346.793 361.937 346.68 363.176 346.643C364.414 346.605 366.528 348.607 366.528 348.607L356.233 351.108C356.233 351.108 353.006 353.272 355.545 355.662C358.085 358.051 358.548 357.513 358.548 357.513C358.548 357.513 362.438 363.579 366.566 363.867C370.693 364.155 387.467 359.952 387.467 359.952L385.416 347.644Z" fill="white" stroke="#263238" stroke-linecap="round" stroke-linejoin="round"/>
<path d="M414.585 300.361C415.073 302.862 417.737 339.675 417.737 339.675L383.776 347.68L385.59 367.006C385.59 367.006 446.369 359.851 447.495 356.111C448.621 352.371 444.656 287.777 444.993 284.062C445.331 280.347 450.284 267.801 435.449 267.801" fill="#F7A31C"/>
<path d="M414.585 300.361C415.073 302.862 417.737 339.675 417.737 339.675L383.776 347.68L385.59 367.006C385.59 367.006 446.369 359.851 447.495 356.111C448.621 352.371 444.656 287.777 444.993 284.062C445.331 280.347 450.284 267.801 435.449 267.801" stroke="#263238" stroke-linecap="round" stroke-linejoin="round"/>
<path d="M420.263 294.205C420.263 294.205 430.194 281.421 441.089 281.897Z" fill="#F7A31C"/>
<path d="M420.263 294.205C420.263 294.205 430.194 281.421 441.089 281.897" stroke="#263238" stroke-linecap="round" stroke-linejoin="round"/>
<path d="M420.263 298.935C420.263 298.935 428.781 294.207 437.299 294.207Z" fill="#F7A31C"/>
<path d="M420.263 298.935C420.263 298.935 428.781 294.207 437.299 294.207" stroke="#263238" stroke-linecap="round" stroke-linejoin="round"/>
<path d="M40.6166 520.001V447.626C40.6166 447.055 40.39 446.508 39.9865 446.105C39.583 445.701 39.0358 445.475 38.4652 445.475H29.5966C29.0248 445.475 28.4763 445.701 28.0708 446.104C27.6654 446.507 27.4359 447.054 27.4326 447.626V520.001H40.6166Z" fill="#4C4C4C" stroke="#263238" stroke-linecap="round" stroke-linejoin="round"/>
<path d="M29.5706 520.001V447.626C29.5673 447.054 29.3378 446.507 28.9323 446.104C28.5269 445.701 27.9783 445.475 27.4066 445.475H18.5255C17.9549 445.475 17.4077 445.701 17.0042 446.105C16.6007 446.508 16.374 447.055 16.374 447.626V520.001H29.5706Z" fill="#263238" stroke="#263238" stroke-linecap="round" stroke-linejoin="round"/>
<path d="M34.5616 520.002H192.882C191.776 517.205 189.903 514.777 187.479 512.997C180.299 508.469 111.915 497.886 111.915 497.886L40.8784 496.748L37.476 497.886C37.476 497.886 33.7235 503.177 34.0862 505.817C34.2739 507.155 34.3614 513.635 34.5616 520.002Z" fill="#263238" stroke="#263238" stroke-linecap="round" stroke-linejoin="round"/>
<path d="M99.0693 360.728C99.0693 360.728 82.4455 370.172 76.7791 375.463C71.1127 380.755 61.6687 398.141 60.9057 408.711C60.1427 419.281 51.837 459.746 51.837 459.746C51.837 459.746 34.7878 492.969 37.4772 497.885C40.1665 502.801 110.027 497.885 111.916 497.885C113.804 497.885 110.027 477.108 110.027 477.108C110.027 477.108 136.47 436.293 137.546 425.335C138.621 414.378 130.741 384.532 129.228 377.727C127.714 370.923 102.472 359.215 99.0693 360.728Z" fill="white" stroke="#263238" stroke-linecap="round" stroke-linejoin="round"/>
<path d="M86.0742 418.469C86.0742 418.469 99.2958 430.977 104.837 435.168" stroke="#263238" stroke-linecap="round" stroke-linejoin="round"/>
<path d="M79.8184 428.188C79.8184 428.188 104.173 436.531 110.427 437.231" stroke="#263238" stroke-linecap="round" stroke-linejoin="round"/>
<path d="M150.83 318.399C150.83 318.399 152.719 332.383 152.344 336.536C151.969 340.689 148.191 355.049 147.053 358.076C145.915 361.103 144.789 364.493 140.636 364.118C138.217 363.928 135.881 363.151 133.831 361.854L129.678 375.826L100.909 359.202L104.661 351.697C104.661 351.697 100.508 344.905 99.3702 333.559C98.2319 322.214 104.661 309.38 112.98 304.477C121.298 299.573 135.645 301.45 139.798 304.852C143.951 308.254 150.83 318.399 150.83 318.399Z" fill="white" stroke="#263238" stroke-linecap="round" stroke-linejoin="round"/>
<path d="M99.4479 353.551C100.961 353.939 133.459 368.674 133.834 372.451C134.209 376.229 135.723 387.937 135.723 387.937C129.055 382.206 121.841 377.145 114.183 372.826C108.118 369.627 102.309 365.963 96.8086 361.869L99.4479 353.551Z" fill="white" stroke="#263238" stroke-linecap="round" stroke-linejoin="round"/>
<path d="M128.163 287.428C128.163 287.428 137.982 283.276 145.913 285.164C153.843 287.053 156.87 296.122 156.87 303.677C156.87 311.232 152.717 320.301 151.204 320.676C149.69 321.051 145.913 302.927 138.695 297.635C134.694 294.779 131.143 291.339 128.163 287.428V287.428Z" fill="#F7A31C" stroke="#263238" stroke-linecap="round" stroke-linejoin="round"/>
<path d="M116.094 289.703C116.094 289.703 131.592 281.385 145.189 293.093C158.785 304.801 154.257 316.522 151.23 320.675C148.203 324.828 148.216 332.77 145.939 334.284C143.662 335.798 143.3 328.242 140.66 326.779C138.021 325.315 138.359 330.907 135.344 338.412C132.33 345.917 118.72 356.925 111.578 356.174C104.436 355.424 95.7046 347.418 90.7888 330.857C85.8729 314.295 89.2877 296.471 98.2939 290.829C100.934 289.179 103.944 288.213 107.051 288.016C110.159 287.82 113.266 288.4 116.094 289.703Z" fill="#F7A31C" stroke="#263238" stroke-linecap="round" stroke-linejoin="round"/>
<path d="M146.114 296.821C146.114 296.821 149.116 305.502 141.435 315.171C133.755 324.84 123.423 330.182 115.755 325.516C108.088 320.85 107.737 315.509 107.737 315.509" stroke="#263238" stroke-linecap="round" stroke-linejoin="round"/>
<path d="M95.4289 317.15C95.4289 317.15 93.7528 343.206 109.439 345.92C125.124 348.634 133.793 332.161 133.793 332.161" stroke="#263238" stroke-linecap="round" stroke-linejoin="round"/>
<path d="M100.399 317.661C109.062 317.661 116.084 310.554 116.084 301.787C116.084 293.021 109.062 285.914 100.399 285.914C91.7356 285.914 84.7129 293.021 84.7129 301.787C84.7129 310.554 91.7356 317.661 100.399 317.661Z" fill="#F7A31C" stroke="#263238" stroke-linecap="round" stroke-linejoin="round"/>
<path d="M97.0947 299.498C97.0947 299.498 99.0961 289.154 104.762 287.815" stroke="#263238" stroke-linecap="round" stroke-linejoin="round"/>
<path d="M96.4307 300.887C96.4307 300.887 107.763 296.884 113.105 301.225" stroke="#263238" stroke-linecap="round" stroke-linejoin="round"/>
<path d="M95.7518 302.826C95.7518 302.826 90.7484 306.166 92.4245 313.846" stroke="#263238" stroke-linecap="round" stroke-linejoin="round"/>
<path d="M142.901 335.41C142.901 335.41 141.762 324.077 138.36 324.452C134.958 324.828 136.471 341.839 138.36 344.466C138.527 344.805 138.776 345.095 139.086 345.311C139.395 345.526 139.754 345.659 140.129 345.698C140.504 345.737 140.883 345.68 141.23 345.532C141.577 345.384 141.881 345.151 142.113 344.854" fill="white"/>
<path d="M142.901 335.41C142.901 335.41 141.762 324.077 138.36 324.452C134.958 324.828 136.471 341.839 138.36 344.466C138.527 344.805 138.776 345.095 139.086 345.311C139.395 345.526 139.754 345.659 140.129 345.698C140.504 345.737 140.883 345.68 141.23 345.532C141.577 345.384 141.881 345.151 142.113 344.854" stroke="#263238" stroke-linecap="round" stroke-linejoin="round"/>
<path d="M462.243 504.652H111.378L123.211 474.869H383.302L462.243 504.652Z" fill="#B5B5B5" stroke="#263238" stroke-linecap="round" stroke-linejoin="round"/>
<path d="M457.427 510.604H115.268V519.998H457.427V510.604Z" fill="#263238" stroke="#263238" stroke-linecap="round" stroke-linejoin="round"/>
<path d="M462.243 504.651H111.378V515.709H462.243V504.651Z" fill="#4C4C4C" stroke="#263238" stroke-linecap="round" stroke-linejoin="round"/>
<path d="M243.554 478.683L253.723 494.731H171.354L179.372 478.683H243.554Z" fill="white"/>
<path d="M228.045 483.499L238.214 499.535H155.833L163.864 483.499H228.045Z" fill="white"/>
<path d="M127.79 395.115L143.613 468.791L205.205 477.484C205.205 477.484 223.718 469.979 225.219 469.979C226.72 469.979 229.372 474.507 230.51 476.021C231.648 477.534 233.525 479.773 234.263 480.937C235.001 482.1 235.389 487.729 234.263 489.242C233.137 490.756 230.86 494.909 228.584 494.533C226.307 494.158 228.584 488.116 228.584 488.116C228.584 488.116 215.362 493.395 211.209 493.395C207.057 493.395 198.701 489.642 198.701 489.642C198.701 489.642 128.603 497.51 124.387 496.022C122.669 495.491 121.077 494.613 119.711 493.443C118.345 492.272 117.233 490.834 116.445 489.217C114.944 486.203 90.752 405.335 90.752 405.335" fill="white"/>
<path d="M127.79 395.115L143.613 468.791L205.205 477.484C205.205 477.484 223.718 469.979 225.219 469.979C226.72 469.979 229.372 474.507 230.51 476.021C231.648 477.534 233.525 479.773 234.263 480.937C235.001 482.1 235.389 487.729 234.263 489.242C233.137 490.756 230.86 494.909 228.584 494.533C226.307 494.158 228.584 488.116 228.584 488.116C228.584 488.116 215.362 493.395 211.209 493.395C207.057 493.395 198.701 489.642 198.701 489.642C198.701 489.642 128.603 497.51 124.387 496.022C122.669 495.491 121.077 494.613 119.711 493.443C118.345 492.272 117.233 490.834 116.445 489.217C114.944 486.203 90.752 405.335 90.752 405.335" stroke="#263238" stroke-linecap="round" stroke-linejoin="round"/>
<path d="M230.558 476.007C229.42 474.494 226.806 469.966 225.267 469.966C223.728 469.966 205.253 477.471 205.253 477.471L170.154 472.468C172.442 478.854 173.024 485.726 171.843 492.406C186.49 490.905 198.824 489.504 198.824 489.504C198.824 489.504 207.142 493.257 211.332 493.257C215.523 493.257 228.669 488.066 228.669 488.066C228.669 488.066 226.405 494.107 228.669 494.483C230.933 494.858 233.21 490.73 234.348 489.191C235.487 487.653 235.099 482.012 234.348 480.886C233.598 479.76 231.684 477.483 230.558 476.007Z" fill="white" stroke="#263238" stroke-linecap="round" stroke-linejoin="round"/>
<path d="M6.96875 519.999H605.178" stroke="#263238" stroke-linecap="round" stroke-linejoin="round"/>
<path d="M335.57 495.228H402.065V493.089L303.072 478.279L305.474 480.418L335.57 495.228Z" fill="white" stroke="#263238" stroke-linecap="round" stroke-linejoin="round"/>
<path d="M335.566 493.092H402.062L366.938 478.632L305.471 478.282L335.566 493.092Z" fill="white" stroke="#263238" stroke-linecap="round" stroke-linejoin="round"/>
<path d="M346.398 481.569H352.627L349.45 480.243L343.346 480.293L346.398 481.569Z" fill="white" stroke="#263238" stroke-width="0.75" stroke-linecap="round" stroke-linejoin="round"/>
<path d="M359.05 486.861L362.239 488.2H368.469L365.279 486.861H359.05Z" fill="white" stroke="#263238" stroke-width="0.75" stroke-linecap="round" stroke-linejoin="round"/>
<path d="M370.593 484.859H363.701L365.527 485.622H372.445L370.593 484.859Z" fill="white" stroke="#263238" stroke-width="0.75" stroke-linecap="round" stroke-linejoin="round"/>
<path d="M356.072 485.622H362.313L360.487 484.859H354.258L356.072 485.622Z" fill="white" stroke="#263238" stroke-width="0.75" stroke-linecap="round" stroke-linejoin="round"/>
<path d="M360.731 483.621H367.573L365.622 482.82H358.817L360.731 483.621Z" fill="white" stroke="#263238" stroke-width="0.75" stroke-linecap="round" stroke-linejoin="round"/>
<path d="M336.946 481.57H343.187L340.198 480.319L334.081 480.382L336.946 481.57Z" fill="white" stroke="#263238" stroke-width="0.75" stroke-linecap="round" stroke-linejoin="round"/>
<path d="M349.363 482.82L351.277 483.621H357.519L355.605 482.82H349.363Z" fill="white" stroke="#263238" stroke-width="0.75" stroke-linecap="round" stroke-linejoin="round"/>
<path d="M379.923 491.653H387.091L381.737 489.451H374.657L379.923 491.653Z" fill="white" stroke="#263238" stroke-width="0.75" stroke-linecap="round" stroke-linejoin="round"/>
<path d="M365.203 489.451L370.469 491.653H376.711L371.445 489.451H365.203Z" fill="white" stroke="#263238" stroke-width="0.75" stroke-linecap="round" stroke-linejoin="round"/>
<path d="M355.744 489.451L361.01 491.653H367.252L361.986 489.451H355.744Z" fill="white" stroke="#263238" stroke-width="0.75" stroke-linecap="round" stroke-linejoin="round"/>
<path d="M352.531 489.451H340.348L344.701 491.653H357.797L352.531 489.451Z" fill="white" stroke="#263238" stroke-width="0.75" stroke-linecap="round" stroke-linejoin="round"/>
<path d="M355.858 481.571H362.6L359.16 480.157L352.605 480.22L355.858 481.571Z" fill="white" stroke="#263238" stroke-width="0.75" stroke-linecap="round" stroke-linejoin="round"/>
<path d="M368.504 486.861L371.694 488.2H378.723L375.471 486.861H368.504Z" fill="white" stroke="#263238" stroke-width="0.75" stroke-linecap="round" stroke-linejoin="round"/>
<path d="M359.022 488.2L355.82 486.861H349.591L352.78 488.2H359.022Z" fill="white" stroke="#263238" stroke-width="0.75" stroke-linecap="round" stroke-linejoin="round"/>
<path d="M333.729 481.572L330.927 480.408L322.634 480.471L324.798 481.572H333.729Z" fill="white" stroke="#263238" stroke-width="0.75" stroke-linecap="round" stroke-linejoin="round"/>
<path d="M351.028 484.859H344.799L346.613 485.622H352.854L351.028 484.859Z" fill="white" stroke="#263238" stroke-width="0.75" stroke-linecap="round" stroke-linejoin="round"/>
<path d="M339.91 482.82L341.824 483.621H348.066L346.152 482.82H339.91Z" fill="white" stroke="#263238" stroke-width="0.75" stroke-linecap="round" stroke-linejoin="round"/>
<path d="M343.396 485.622L341.583 484.859H331.288L332.802 485.622H343.396Z" fill="white" stroke="#263238" stroke-width="0.75" stroke-linecap="round" stroke-linejoin="round"/>
<path d="M328.839 483.621H338.608L336.694 482.82H327.263L328.839 483.621Z" fill="white" stroke="#263238" stroke-width="0.75" stroke-linecap="round" stroke-linejoin="round"/>
<path d="M346.373 486.861H335.253L337.892 488.2H349.563L346.373 486.861Z" fill="white" stroke="#263238" stroke-width="0.75" stroke-linecap="round" stroke-linejoin="round"/>
<path d="M335.568 493.091H333.167L287.173 426.771L289.449 426.083H319.558L335.568 493.091Z" fill="white" stroke="#263238" stroke-linecap="round" stroke-linejoin="round"/>
<path d="M333.166 493.091L303.071 478.281L287.06 426.083H317.155L333.166 493.091Z" fill="white" stroke="#263238" stroke-linecap="round" stroke-linejoin="round"/>
<path d="M596.316 520V439.595C596.316 439.021 596.088 438.47 595.683 438.064C595.277 437.659 594.726 437.431 594.152 437.431H564.857C564.283 437.431 563.733 437.659 563.327 438.064C562.921 438.47 562.693 439.021 562.693 439.595V520H596.316Z" fill="#263238" stroke="#263238" stroke-linecap="round" stroke-linejoin="round"/>
<path d="M585.727 519.998V439.593C585.728 439.308 585.674 439.026 585.565 438.763C585.457 438.499 585.298 438.26 585.097 438.059C584.895 437.858 584.656 437.698 584.393 437.59C584.13 437.482 583.847 437.427 583.563 437.429H554.28C553.996 437.427 553.713 437.482 553.45 437.59C553.187 437.698 552.948 437.858 552.746 438.059C552.545 438.26 552.386 438.499 552.278 438.763C552.169 439.026 552.115 439.308 552.116 439.593V519.998H585.727Z" fill="#4C4C4C" stroke="#263238" stroke-linecap="round" stroke-linejoin="round"/>
<path d="M468.358 391.81C468.358 391.81 455.449 400.416 453.823 405.707C452.197 410.999 442.566 441.119 441.577 443.433C440.589 445.747 432.646 457.993 432.646 457.993L390.292 459.97C390.292 459.97 371.104 455.679 369.441 455.679C367.777 455.679 351.241 466.599 349.915 469.576C348.589 472.553 345.624 476.856 346.938 477.844C348.251 478.833 350.252 477.181 350.252 477.181C350.252 477.181 350.915 481.81 359.183 480.159C367.452 478.507 375.732 472.553 375.732 472.553C375.732 472.553 385.989 477.557 389.955 476.519L390.292 476.418V480.821C390.292 480.821 446.218 483.799 448.532 483.136C450.846 482.473 463.092 467.587 463.092 467.587L477.314 390.81C477.314 390.81 476.626 383.53 468.358 391.81Z" fill="#F7A31C" stroke="#263238" stroke-linecap="round" stroke-linejoin="round"/>
<path d="M391.178 461.121L390.378 459.97H390.265C390.265 459.97 371.077 455.68 369.413 455.68C367.75 455.68 351.213 466.6 349.887 469.577C348.561 472.554 345.597 476.857 346.91 477.845C348.224 478.833 350.225 477.182 350.225 477.182C350.225 477.182 350.888 481.81 359.156 480.159C367.424 478.508 375.705 472.554 375.705 472.554C375.705 472.554 385.962 477.557 389.927 476.519L390.265 476.419V480.822L391.178 461.121Z" fill="#4C4C4C" stroke="#263238" stroke-linecap="round" stroke-linejoin="round"/>
<path d="M469.932 519.999H471.245C470.232 517.598 469.344 515.396 468.981 514.195C467.931 510.668 455.222 464.736 453.796 458.032C452.37 451.327 453.083 441.771 456.623 428.349C460.163 414.927 468.356 391.812 468.356 391.812L456.623 408.223C456.623 408.223 446.729 446.374 446.729 451.315C446.729 456.256 451.669 481.335 456.623 493.706C459.487 500.874 465.441 511.944 469.932 519.999Z" fill="#F7A31C" stroke="#263238" stroke-linecap="round" stroke-linejoin="round"/>
<path d="M473.65 382.54C473.65 382.54 461.416 401.728 458.102 414.974C454.787 428.221 452.147 439.791 452.147 451.699C452.147 463.608 465.382 497.368 467.37 501.671C469.359 505.974 490.861 507.288 497.478 486.773C504.096 466.259 507.073 407.031 503.107 393.46C499.142 379.888 481.93 373.608 473.65 382.54Z" fill="white" stroke="#263238" stroke-linecap="round" stroke-linejoin="round"/>
<path d="M470.208 379.764C469.395 381.015 458.4 387.094 458.4 387.094L457.987 398.49L461.252 392.385L466.331 407.508L471.797 379.352L470.208 379.764Z" fill="#808080" stroke="#263238" stroke-linecap="round" stroke-linejoin="round"/>
<path d="M471.431 519.998H561.493C558.528 512.067 547.07 481.346 546.72 479.97C546.307 478.332 536.951 405.857 527.169 392.41C517.388 378.964 494.647 374.085 489.719 376.937C489.719 376.937 473.457 409.922 467.316 425.395C461.174 440.869 457.134 471.402 457.134 475.88C457.134 480.358 465.69 508.402 465.69 508.402L471.431 519.998Z" fill="#F7A31C" stroke="#263238" stroke-linecap="round" stroke-linejoin="round"/>
<path d="M536.303 495.77L497.364 507.365L499.853 512.331L521.393 505.714" stroke="#263238" stroke-linecap="round" stroke-linejoin="round"/>
<path d="M450.955 322.439C450.955 322.439 447.828 332.096 447.753 334.085C447.723 335.566 447.769 337.049 447.891 338.525C447.929 339.317 447.738 340.104 447.341 340.789C446.69 341.84 439.373 348.883 440.236 350.296C441.099 351.709 446.152 357.326 446.152 357.326C446.152 357.326 449.692 374.2 454.433 376.151C459.174 378.103 465.866 376.902 465.866 376.902L468.28 383.494L497.85 373.8L497.4 364.08C497.4 364.08 500.364 346.769 496.962 334.335C493.56 321.902 463.977 308.392 450.955 322.439Z" fill="white" stroke="#263238" stroke-linecap="round" stroke-linejoin="round"/>
<path d="M451.906 342.276C451.556 343.715 450.818 344.778 450.267 344.64C449.717 344.503 449.542 343.227 449.892 341.788C450.242 340.35 450.968 339.286 451.531 339.424C452.094 339.562 452.244 340.838 451.906 342.276Z" fill="#263238"/>
<path d="M449.803 335.723C450.4 335.558 451.024 335.512 451.638 335.589C452.253 335.666 452.846 335.863 453.385 336.17C453.923 336.477 454.395 336.887 454.774 337.377C455.153 337.867 455.432 338.427 455.594 339.025" fill="white"/>
<path d="M449.803 335.723C450.4 335.558 451.024 335.512 451.638 335.589C452.253 335.666 452.846 335.863 453.385 336.17C453.923 336.477 454.395 336.887 454.774 337.377C455.153 337.867 455.432 338.427 455.594 339.025" stroke="#263238" stroke-linecap="round" stroke-linejoin="round"/>
<path d="M446.918 359.677C446.918 359.677 450.22 362.992 456.012 360.928Z" fill="white"/>
<path d="M446.918 359.677C446.918 359.677 450.22 362.992 456.012 360.928" stroke="#263238" stroke-linecap="round" stroke-linejoin="round"/>
<path d="M469.082 298.772C468.142 296.464 466.643 294.427 464.719 292.844C462.795 291.261 460.507 290.181 458.062 289.703C449.631 288.077 443.602 299.835 445.716 304.35C447.83 308.866 448.781 309.892 444.728 310.117C440.675 310.342 432.908 320.887 439.725 327.354C446.542 333.821 454.81 324.577 455.223 327.879C455.636 331.181 454.522 334.133 458.488 334.271C462.453 334.409 468.97 333.996 467.944 336.56C466.918 339.124 466.693 345.066 470.446 345.979C474.198 346.892 476.55 342.226 479.202 342.889C481.854 343.552 485.456 351.996 483.092 356.649C480.728 361.302 479.164 361.315 478.889 362.453C478.614 363.591 485.956 371.359 493.499 369.958C501.042 368.557 510.848 366.13 511.999 358C513.15 349.869 510.748 348.093 513.875 345.241C517.003 342.389 519.992 341.488 519.104 336.885C518.216 332.282 515.351 330.781 516.277 326.991C517.203 323.201 513.438 305.889 497.227 298.384C481.015 290.879 469.082 298.772 469.082 298.772Z" fill="#263238" stroke="#263238" stroke-linecap="round" stroke-linejoin="round"/>
<path d="M500.968 364.654L463.692 386.282L466.369 407.509L506.146 375.887L500.968 364.654Z" fill="white" stroke="#263238" stroke-linecap="round" stroke-linejoin="round"/>
<path d="M403.435 465.273C403.435 465.273 395.93 462.484 391.177 461.12C383.021 458.781 375.378 455.304 372.526 456.117C369.674 456.93 355.79 466.486 355.79 466.486C355.79 466.486 350.899 478.294 351.312 479.933C351.725 481.572 354.702 478.932 354.702 478.932C354.702 478.932 352.938 481.146 354.564 482.785C356.19 484.424 357.829 481.146 357.829 481.146C357.829 481.146 357.416 485.224 359.855 484.811C360.482 484.787 361.084 484.556 361.568 484.156C362.051 483.756 362.39 483.209 362.532 482.597C362.532 482.597 362.707 484.811 364.746 484.811C366.785 484.811 371.263 476.268 371.263 476.268L378.993 476.668C378.993 476.668 385.11 479.933 388.775 480.333C392.44 480.734 396.918 478.294 396.918 478.294L401.796 479.545L405.874 467.737L403.435 465.273Z" fill="white" stroke="#263238" stroke-linecap="round" stroke-linejoin="round"/>
<path d="M354.701 478.932C354.701 478.932 358.867 468.925 359.529 468.275C360.192 467.625 368.523 462.946 368.523 462.946" stroke="#263238" stroke-linecap="round" stroke-linejoin="round"/>
<path d="M357.829 481.147C357.829 481.147 362.833 470.94 363.37 470.44C363.908 469.939 370.188 466.787 370.188 466.787" stroke="#263238" stroke-linecap="round" stroke-linejoin="round"/>
<path d="M362.508 482.597C362.508 482.597 367.336 473.278 368.174 472.778C369.012 472.278 371.164 471.114 371.164 471.114" stroke="#263238" stroke-linecap="round" stroke-linejoin="round"/>
<path d="M511.362 391.571C511.362 391.571 485.707 408.258 486.12 414.775C486.533 421.292 488.559 421.292 488.559 421.292L475.525 470.15C475.525 470.15 471.46 466.898 471.047 470.976L470.647 475.041L402.638 463.646L395.721 480.745C395.721 480.745 423.815 491.74 443.366 498.657C462.917 505.574 483.268 513.317 485.295 509.652C487.321 505.987 527.624 445.721 530.125 441.243C532.627 436.765 532.627 428.622 532.627 428.622" fill="#F7A31C"/>
<path d="M511.362 391.571C511.362 391.571 485.707 408.258 486.12 414.775C486.533 421.292 488.559 421.292 488.559 421.292L475.525 470.15C475.525 470.15 471.46 466.898 471.047 470.976L470.647 475.041L402.638 463.646L395.721 480.745C395.721 480.745 423.815 491.74 443.366 498.657C462.917 505.574 483.268 513.317 485.295 509.652C487.321 505.987 527.624 445.721 530.125 441.243C532.627 436.765 532.627 428.622 532.627 428.622" stroke="#263238" stroke-linecap="round" stroke-linejoin="round"/>
<path d="M488.531 421.293C488.531 421.293 496.262 405.419 514.999 404.193" stroke="#263238" stroke-linecap="round" stroke-linejoin="round"/>
</svg>
