<svg width="197" height="198" viewBox="0 0 197 198" fill="none" xmlns="http://www.w3.org/2000/svg">
<ellipse cx="98.5" cy="99" rx="98.5" ry="99" fill="#94C8F6"/>
<path fill-rule="evenodd" clip-rule="evenodd" d="M197 99.8375C197 126.259 186.735 150.268 170.002 168.042C167.115 149.096 157.135 135.103 141.927 127.366C131.1 139.212 115.716 146.77 98.5 146.77C81.2843 146.77 65.9005 139.212 55.0725 127.366C39.8652 135.103 29.8851 149.096 26.9985 168.042C10.2647 150.268 0 126.259 0 99.8375C0 45.0715 44.1 0.674805 98.5 0.674805C152.9 0.674805 197 45.0715 197 99.8375ZM144.553 87.1621C144.553 112.767 123.935 133.524 98.5012 133.524C73.0674 133.524 52.4492 112.767 52.4492 87.1621C52.4492 61.5572 73.0674 40.8003 98.5012 40.8003C123.935 40.8003 144.553 61.5572 144.553 87.1621Z" fill="#0046AD"/>
</svg>
