<svg width="119" height="118" viewBox="0 0 119 118" fill="none" xmlns="http://www.w3.org/2000/svg">
<g clip-path="url(#clip0_243_1958)">
<path d="M31.8373 80.0734C31.4517 79.7254 30.7714 79.3103 29.735 79.3103H19.467V74.5215H28.2934C29.1351 74.5215 29.906 74.2108 30.4704 73.6464C31.0171 73.1055 31.318 72.3839 31.318 71.6187C31.318 70.8243 31.0309 70.1143 30.3957 69.4869C29.8373 68.9794 29.1116 68.714 28.2934 68.714H19.4041L19.2822 64.7098H29.3416C30.1655 64.7098 30.9267 64.3992 31.4911 63.8348C32.0378 63.2939 32.3388 62.5663 32.3388 61.8071C32.3388 61.0245 32.0399 60.2909 31.4165 59.6753C30.8578 59.1678 30.1381 58.9023 29.3416 58.9023H18.3951C16.875 58.9023 15.5888 59.4608 14.6664 60.5209C13.8895 61.4255 13.4805 62.5898 13.4805 63.8799V80.1676C13.4805 81.446 13.8778 82.5649 14.6722 83.5032C15.3055 84.2347 16.4696 85.11 18.3951 85.11H29.7347C30.8361 85.11 31.5381 84.6262 31.8903 84.2623C32.4547 83.7214 32.7596 82.9899 32.7596 82.2052C32.7596 81.4204 32.4607 80.6889 31.8373 80.0734Z" fill="#EDA122"/>
<path d="M56.0686 74.7224C55.636 74.0282 54.9672 73.5659 54.1433 73.3832C53.9073 73.332 53.6773 73.3085 53.447 73.3085L52.4263 73.4304L51.9483 73.7019C51.1753 74.1465 50.6582 74.8936 50.5088 75.7473C50.1687 77.3029 49.5923 78.3748 48.7684 78.9961C48.0369 79.5428 47.0101 79.8203 45.7142 79.8203C43.9855 79.8203 42.723 79.2794 41.7338 78.1153C40.5873 76.7662 40.0051 74.715 40.0051 72.0128C40.0051 69.3795 40.593 67.3401 41.7279 65.9753C42.7643 64.7718 44.0327 64.2074 45.7142 64.2074C47.0339 64.2074 48.0585 64.4789 48.849 65.0313C49.6612 65.6017 50.1687 66.465 50.3987 67.6294C50.6052 68.8054 51.2463 69.4445 51.6828 69.7317C52.1726 70.0778 52.7427 70.2627 53.3309 70.2627L53.9937 70.188C54.7429 70.0209 55.3998 69.5881 55.86 68.9313C56.3046 68.2684 56.4756 67.4975 56.3497 66.6204C55.9052 64.2466 54.8453 62.3056 53.1698 60.8366C51.274 59.2181 48.7626 58.3999 45.7142 58.3999C42.2234 58.3999 39.3601 59.7078 37.2105 62.2782C35.0904 64.7679 34.0186 68.0463 34.0186 72.0151C34.0186 76.0722 35.0962 79.3723 37.2045 81.8051C39.3481 84.3459 42.2116 85.6301 45.7142 85.6301C48.7743 85.6301 51.2917 84.743 53.1933 82.9968C54.7842 81.5573 55.8778 79.6023 56.4599 77.1775C56.7194 76.0183 56.3735 75.1766 56.0686 74.7224Z" fill="#EDA122"/>
<path d="M80.2287 62.7373C78.0162 59.8503 74.9049 58.3931 70.9637 58.3931C66.999 58.3951 63.87 59.8602 61.6536 62.7629C59.8325 65.2174 58.9102 68.3284 58.9102 72.0101C58.9102 75.6916 59.8325 78.7969 61.6635 81.2336C63.8642 84.1481 66.993 85.623 70.9637 85.623C74.9049 85.623 78.022 84.1481 80.2227 81.2433C82.1008 78.8008 83.0468 75.6953 83.0468 72.0078C83.0468 68.3264 82.1028 65.2093 80.2287 62.7373ZM75.5343 77.725C74.4862 79.1705 73.0289 79.845 70.9658 79.845C68.8852 79.845 67.4337 79.1705 66.4033 77.7367C65.4063 76.3424 64.8988 74.4189 64.8988 72.0099C64.8988 69.5849 65.4063 67.6596 66.4093 66.2771C67.4339 64.8433 68.8872 64.1688 70.966 64.1688C73.0289 64.1688 74.4804 64.8433 75.5346 66.2948C76.5475 67.6831 77.0607 69.6087 77.0607 72.0099C77.0605 74.3954 76.5412 76.3249 75.5343 77.725Z" fill="#EDA122"/>
<path d="M115.89 1.93293C115.53 0.953456 114.67 0.233712 113.622 0.0428866L113.124 0.00163327C112.255 0.00163327 111.437 0.375218 110.876 1.02628C108.967 3.2565 103.681 4.18873 98.5516 5.09331C91.3143 6.37355 82.2778 8.08452 76.8969 14.364C74.0137 7.93495 68.0175 2.73519 62.741 0.27704C61.791 -0.167528 60.6781 -0.0709634 59.8145 0.522946C58.9669 1.11686 58.4714 2.12583 58.5539 3.17791C58.6975 5.02256 56.2824 7.98427 53.948 10.8478C51.0492 14.3977 47.586 18.7341 46.7363 23.6486C21.1191 24.1678 0.500977 45.0574 0.500977 70.8007C0.500977 96.8684 21.6326 118 47.7003 118C73.7681 118 94.8997 96.8684 94.8997 70.8007C94.8997 61.8584 92.3666 53.5277 88.0479 46.4006C90.0067 46.9099 92.0737 47.195 94.2408 47.195C102.522 47.195 108.89 44.1074 113.162 38.0049C120.761 27.1629 118.869 10.126 115.89 1.93293ZM58.5186 14.5744C60.4716 12.181 62.3614 9.86833 63.4667 7.47494C67.7382 10.4072 71.7128 15.0524 72.58 19.971C73.1483 23.1964 72.2576 26.2957 70.0647 29.2339C68.749 28.5238 67.3959 27.8709 66.0094 27.2869C66.5148 24.8207 66.8393 22.0733 66.4459 18.7459C66.2551 17.1273 64.788 15.9708 63.1696 16.1637C61.555 16.3624 60.3967 17.8275 60.5875 19.4403C60.8491 21.6506 60.6838 23.5723 60.3672 25.3736C57.903 24.6873 55.3739 24.162 52.7641 23.8829C53.4663 21.0743 55.6062 18.1478 58.5186 14.5744ZM88.9998 70.8007C88.9998 93.5723 70.4719 112.1 47.7003 112.1C24.9287 112.1 6.4009 93.5723 6.4009 70.8007C6.4009 48.029 24.9287 29.5012 47.7003 29.5012C70.4719 29.5012 88.9998 48.029 88.9998 70.8007ZM108.332 34.6245C105.232 39.0494 100.493 41.2974 94.2408 41.2974C89.7863 41.2974 85.8373 39.9383 82.9168 37.4311C85.1431 35.7496 87.678 34.371 90.4706 33.3406L91.0922 33.0986C96.176 31.3247 100.929 31.3698 101.301 31.4565L101.934 31.5254C103.323 31.5254 104.507 30.5814 104.815 29.2205C105.107 27.9069 104.469 26.599 103.338 25.9834C106.107 23.4838 108.296 20.579 109.877 17.3066C110.218 16.5986 110.263 15.7961 110.003 15.0529C109.744 14.3094 109.209 13.7097 108.499 13.3714C107.091 12.7028 105.244 13.3359 104.561 14.7422C102.211 19.6117 98.288 23.3383 92.6241 26.0641C92.9721 23.6038 92.5886 21.1611 91.4775 18.9369C90.7755 17.5189 88.8993 16.9369 87.5285 17.6115C86.8205 17.9634 86.2934 18.5672 86.0417 19.3165C85.788 20.0717 85.8491 20.8721 86.201 21.5702C87.9749 25.1258 85.735 28.3689 84.8675 29.4231C82.9265 30.3906 81.0975 31.5196 79.4062 32.7939C78.4011 30.6049 78.0176 28.1899 78.2969 25.6962C79.5438 14.4491 89.2708 12.7321 99.5779 10.911C103.979 10.1322 108.18 9.39472 111.464 7.77616C113.447 16.2324 113.286 27.5485 108.332 34.6245Z" fill="#EDA122"/>
</g>
<defs>
<clipPath id="clip0_243_1958">
<rect width="118" height="118" fill="white" transform="translate(0.5)"/>
</clipPath>
</defs>
</svg>
