<svg width="80" height="80" viewBox="0 0 80 80" fill="none" xmlns="http://www.w3.org/2000/svg">
<path d="M62.5 32.5C62.5 26.5326 60.1295 20.8097 55.9099 16.5901C51.6903 12.3705 45.9674 10 40 10C34.0326 10 28.3097 12.3705 24.0901 16.5901C19.8705 20.8097 17.5 26.5326 17.5 32.5C17.5 41.73 24.885 53.76 40 68.17C55.115 53.76 62.5 41.73 62.5 32.5ZM40 75C21.665 58.335 12.5 44.165 12.5 32.5C12.5 25.2065 15.3973 18.2118 20.5546 13.0546C25.7118 7.89731 32.7065 5 40 5C47.2935 5 54.2882 7.89731 59.4454 13.0546C64.6027 18.2118 67.5 25.2065 67.5 32.5C67.5 44.165 58.335 58.335 40 75Z" fill="#262424"/>
<path d="M40 35C41.3261 35 42.5979 34.4732 43.5355 33.5355C44.4732 32.5979 45 31.3261 45 30C45 28.6739 44.4732 27.4021 43.5355 26.4645C42.5979 25.5268 41.3261 25 40 25C38.6739 25 37.4021 25.5268 36.4645 26.4645C35.5268 27.4021 35 28.6739 35 30C35 31.3261 35.5268 32.5979 36.4645 33.5355C37.4021 34.4732 38.6739 35 40 35ZM40 40C37.3478 40 34.8043 38.9464 32.9289 37.0711C31.0536 35.1957 30 32.6522 30 30C30 27.3478 31.0536 24.8043 32.9289 22.9289C34.8043 21.0536 37.3478 20 40 20C42.6522 20 45.1957 21.0536 47.0711 22.9289C48.9464 24.8043 50 27.3478 50 30C50 32.6522 48.9464 35.1957 47.0711 37.0711C45.1957 38.9464 42.6522 40 40 40ZM67 55L75 75H52.5V70H27.5V75H5L13 55H67ZM61.615 55H18.385L12.385 70H67.615L61.615 55Z" fill="#262424"/>
</svg>
