<svg width="765" height="521" viewBox="0 0 765 521" fill="none" xmlns="http://www.w3.org/2000/svg">
<path d="M764.749 261.934C764.749 261.934 764.749 115.93 681.319 47.6691C641.356 15.0962 590.892 -1.79691 539.373 0.151564C543.182 6.69472 545.433 14.0272 545.951 21.5806C546.469 29.1339 545.24 36.7051 542.36 43.707C539.48 50.709 535.026 56.9535 529.344 61.9565C523.661 66.9595 516.903 70.5865 509.593 72.5563C502.282 74.526 494.616 74.7856 487.19 73.3148C479.763 71.8441 472.774 68.6826 466.766 64.0754C460.758 59.4683 455.892 53.5393 452.545 46.7482C449.198 39.9571 447.461 32.4863 447.467 24.9153V24.3464C441.071 27.8754 434.943 31.868 429.131 36.2922C372.246 79.9036 334.323 151.957 277.439 159.542C240.729 164.434 207.092 136.788 169.927 136.371C120.476 135.878 67.8955 155.75 34.7318 193.142C3.63497 228.163 -2.12932 275.719 0.60113 320.715C4.39343 383.287 67.8196 442.068 67.8196 442.068H723.034C723.034 442.068 766.645 388.976 764.749 261.934Z" fill="#F7A31C"/>
<path opacity="0.5" d="M764.749 261.934C764.749 261.934 764.749 115.93 681.319 47.6691C641.356 15.0962 590.892 -1.79691 539.373 0.151564C543.182 6.69472 545.433 14.0272 545.951 21.5806C546.469 29.1339 545.24 36.7051 542.36 43.707C539.48 50.709 535.026 56.9535 529.344 61.9565C523.661 66.9595 516.903 70.5865 509.593 72.5563C502.282 74.526 494.616 74.7856 487.19 73.3148C479.763 71.8441 472.774 68.6826 466.766 64.0754C460.758 59.4683 455.892 53.5393 452.545 46.7482C449.198 39.9571 447.461 32.4863 447.467 24.9153V24.3464C441.071 27.8754 434.943 31.868 429.131 36.2922C372.246 79.9036 334.323 151.957 277.439 159.542C240.729 164.434 207.092 136.788 169.927 136.371C120.476 135.878 67.8955 155.75 34.7318 193.142C3.63497 228.163 -2.12932 275.719 0.60113 320.715C4.39343 383.287 67.8196 442.068 67.8196 442.068H723.034C723.034 442.068 766.645 388.976 764.749 261.934Z" fill="white"/>
<path d="M687.649 113.562C676.898 107.684 672.006 112.576 668.1 107.684C664.194 102.792 678.851 90.0873 649.518 77.3452C649.518 77.3452 647.622 49.9648 607.48 48.903C567.339 47.8411 578.147 76.2834 567.377 83.0337C556.606 89.7839 553.686 79.1276 542.935 85.9727C532.184 92.8178 537.076 106.508 528.278 108.461C519.48 110.414 507.743 99.6629 496.973 106.565C486.202 113.467 486.221 119.269 481.329 119.269C476.437 119.269 466.672 115.363 460.794 119.269C454.916 123.175 448.09 128.067 448.09 128.067H695.48C695.48 128.067 698.382 119.421 687.649 113.562Z" fill="white"/>
<path d="M201.383 182.298C194.747 178.676 191.732 181.691 189.324 178.676C186.916 175.661 195.96 167.83 177.947 159.999C177.947 159.999 176.752 143.123 152.027 142.516C127.301 141.91 133.937 159.392 127.377 163.621C120.816 167.849 118.939 161.193 112.208 165.517C105.476 169.84 108.586 178.183 103.163 179.378C97.7399 180.572 90.4966 173.955 83.8791 178.183C77.2615 182.411 77.2426 186.014 74.2277 186.014C71.2128 186.014 65.183 183.606 61.5614 186.014C57.9398 188.422 53.6924 191.323 53.6924 191.323H206.2C206.2 191.323 208.02 185.9 201.383 182.298Z" fill="white"/>
<path d="M378.884 226.269L356.111 384.009H383.397L407.194 226.269H378.884Z" fill="#263238" stroke="#263238" stroke-miterlimit="10"/>
<path d="M390.278 226.269L367.505 384.009H384.551L408.329 226.269H390.278Z" fill="white" stroke="#263238" stroke-miterlimit="10"/>
<path d="M546.367 238.367H527.558V382.797H546.367V238.367Z" fill="white" stroke="#263238" stroke-miterlimit="10"/>
<path d="M538.674 238.367H519.864V382.797H538.674V238.367Z" fill="#263238" stroke="#263238" stroke-miterlimit="10"/>
<path d="M656.611 238.367H637.801V382.797H656.611V238.367Z" fill="white" stroke="#263238" stroke-miterlimit="10"/>
<path d="M648.912 238.367H630.103V382.797H648.912V238.367Z" fill="#263238" stroke="#263238" stroke-miterlimit="10"/>
<path d="M613.986 158.027H535.239V226.402H613.986V158.027Z" fill="#263238" stroke="#263238" stroke-miterlimit="10"/>
<path d="M686.512 158.027H607.765V226.402H686.512V158.027Z" fill="white" stroke="#263238" stroke-miterlimit="10"/>
<path d="M699.352 226.269H563.493V251.184H699.352V226.269Z" fill="white" stroke="#263238" stroke-miterlimit="10"/>
<path d="M415.854 233.342L482.58 98.8672L498.773 102.906L433.034 234.366L415.854 233.342Z" fill="white" stroke="#263238" stroke-miterlimit="10"/>
<path d="M405.73 233.342L472.475 98.8672L488.649 102.906L422.929 234.366L405.73 233.342Z" fill="#263238" stroke="#263238" stroke-miterlimit="10"/>
<path d="M561.462 233.342L494.718 98.8672L471.319 102.906L537.04 234.366L561.462 233.342Z" fill="#263238" stroke="#263238" stroke-miterlimit="10"/>
<path d="M571.569 233.342L504.843 98.8672L488.65 102.906L554.39 234.366L571.569 233.342Z" fill="white" stroke="#263238" stroke-miterlimit="10"/>
<path d="M356.014 287.422L372.396 303.482C375.068 306.098 378.255 308.128 381.755 309.443C385.255 310.758 388.991 311.328 392.724 311.118C396.457 310.907 400.105 309.92 403.435 308.22C406.765 306.52 409.704 304.144 412.064 301.245L430.893 278.055L443.824 295.367C446.288 298.673 449.479 301.369 453.151 303.245C456.824 305.12 460.878 306.125 465.002 306.182C469.125 306.239 473.206 305.346 476.928 303.572C480.651 301.799 483.915 299.192 486.469 295.954L500.045 278.775L511.422 294.077C513.889 297.422 517.098 300.15 520.797 302.046C524.496 303.942 528.584 304.954 532.74 305.004C536.896 305.053 541.007 304.139 544.75 302.332C548.494 300.525 551.767 297.874 554.313 294.589L567.112 278.055" stroke="#263238" stroke-miterlimit="10"/>
<path d="M313.886 292.823H299.836L282.543 275.17H305.6L313.886 292.823Z" fill="#263238" stroke="#263238" stroke-miterlimit="10"/>
<path d="M297.675 276.612L313.887 292.824H361.063V276.612H297.675Z" fill="white" stroke="#263238" stroke-miterlimit="10"/>
<path d="M641.348 257.612H270.253V277.844H641.348V257.612Z" fill="#263238" stroke="#263238" stroke-miterlimit="10"/>
<path d="M756.276 257.612H289.463V277.844H756.276V257.612Z" fill="white" stroke="#263238" stroke-miterlimit="10"/>
<path d="M582.493 226.269H437.097V246.5H582.493V226.269Z" fill="white" stroke="#263238" stroke-miterlimit="10"/>
<path d="M560.894 246.5H387.282L390.278 226.269H563.491L560.894 246.5Z" fill="white" stroke="#263238" stroke-miterlimit="10"/>
<path d="M517.987 83.6973H466.317V108.973H517.987V83.6973Z" fill="white" stroke="#263238" stroke-miterlimit="10"/>
<path d="M501.904 83.6973H455.297V108.973H501.904V83.6973Z" fill="#263238" stroke="#263238" stroke-miterlimit="10"/>
<path d="M563.493 226.269L540.701 384.009H568.006L591.802 226.269H563.493Z" fill="#263238" stroke="#263238" stroke-miterlimit="10"/>
<path d="M574.891 226.269L552.1 384.009H569.146L592.943 226.269H574.891Z" fill="white" stroke="#263238" stroke-miterlimit="10"/>
<path d="M631.826 182.81H621.567V197.334H631.826V182.81Z" fill="#263238" stroke="#263238" stroke-miterlimit="10"/>
<path d="M677.961 182.81H667.703V197.334H677.961V182.81Z" fill="#263238" stroke="#263238" stroke-miterlimit="10"/>
<path d="M485.92 84.248L289.46 257.613H274.575L471.206 84.248H485.92Z" fill="#263238" stroke="#263238" stroke-miterlimit="10"/>
<path d="M493.828 84.248L297.368 257.613H282.483L479.114 84.248H493.828Z" fill="white" stroke="#263238" stroke-miterlimit="10"/>
<path d="M121.957 254.35H127.759V211.061C127.759 210.292 127.454 209.554 126.91 209.01C126.365 208.466 125.628 208.16 124.858 208.16C124.089 208.16 123.351 208.466 122.807 209.01C122.263 209.554 121.957 210.292 121.957 211.061V254.35Z" fill="#F7A31C" stroke="#263238" stroke-miterlimit="10"/>
<path d="M183.521 254.35H189.342V211.061C189.337 210.29 189.027 209.552 188.48 209.009C187.933 208.465 187.193 208.16 186.422 208.16V208.16C185.654 208.165 184.919 208.472 184.376 209.015C183.833 209.558 183.525 210.293 183.521 211.061V254.35Z" fill="#F7A31C" stroke="#263238" stroke-miterlimit="10"/>
<path d="M158.135 202.339H160.638C161.408 202.339 162.146 202.645 162.69 203.189C163.234 203.733 163.54 204.471 163.54 205.24V254.35H155.234V205.24C155.234 204.471 155.54 203.733 156.084 203.189C156.628 202.645 157.366 202.339 158.135 202.339Z" fill="#F7A31C" stroke="#263238" stroke-miterlimit="10"/>
<path d="M238.468 254.312H198.876H112.317H72.7256V287.475H112.317V339.942H198.876V287.475H238.468V254.312Z" fill="#263238" stroke="#263238" stroke-miterlimit="10"/>
<path d="M248.065 254.314H208.474H121.933H82.3418V287.478H121.933V339.945H208.474V287.478H248.065V254.314Z" fill="white" stroke="#263238" stroke-miterlimit="10"/>
<path d="M248.084 264.457H82.3418V277.351H248.084V264.457Z" fill="#263238" stroke="#263238" stroke-miterlimit="10"/>
<path d="M82.3419 254.351V247.145C82.3394 246.758 82.4135 246.374 82.5601 246.015C82.7067 245.656 82.9228 245.33 83.1959 245.055C83.4691 244.78 83.794 244.562 84.1518 244.413C84.5096 244.264 84.8933 244.187 85.2809 244.188H245.202C245.59 244.187 245.973 244.264 246.331 244.413C246.689 244.562 247.014 244.78 247.287 245.055C247.56 245.33 247.776 245.656 247.923 246.015C248.069 246.374 248.144 246.758 248.141 247.145V254.351" stroke="#263238" stroke-miterlimit="10"/>
<path d="M93.1738 254.407V244.49" stroke="#263238" stroke-miterlimit="10"/>
<path d="M105.193 254.407V244.49" stroke="#263238" stroke-miterlimit="10"/>
<path d="M117.214 254.407V244.49" stroke="#263238" stroke-miterlimit="10"/>
<path d="M129.255 254.407V244.49" stroke="#263238" stroke-miterlimit="10"/>
<path d="M141.275 254.407V244.49" stroke="#263238" stroke-miterlimit="10"/>
<path d="M153.295 254.407V244.49" stroke="#263238" stroke-miterlimit="10"/>
<path d="M165.315 254.407V244.49" stroke="#263238" stroke-miterlimit="10"/>
<path d="M177.341 254.407V244.49" stroke="#263238" stroke-miterlimit="10"/>
<path d="M189.366 254.407V244.49" stroke="#263238" stroke-miterlimit="10"/>
<path d="M201.386 254.407V244.49" stroke="#263238" stroke-miterlimit="10"/>
<path d="M213.406 254.407V244.49" stroke="#263238" stroke-miterlimit="10"/>
<path d="M225.426 254.407V244.49" stroke="#263238" stroke-miterlimit="10"/>
<path d="M237.468 254.407V244.49" stroke="#263238" stroke-miterlimit="10"/>
<path d="M135.229 288.899H131.076V298.058H135.229V288.899Z" fill="#263238"/>
<path d="M144.801 288.899H140.648V298.058H144.801V288.899Z" fill="#263238"/>
<path d="M135.229 315.084H131.076V324.242H135.229V315.084Z" fill="#263238"/>
<path d="M144.801 315.084H140.648V324.242H144.801V315.084Z" fill="#263238"/>
<path d="M173.947 315.084H169.794V324.242H173.947V315.084Z" fill="#263238"/>
<path d="M183.519 315.084H179.366V324.242H183.519V315.084Z" fill="#263238"/>
<path d="M178.101 288.896H173.948V298.055H178.101V288.896Z" fill="#263238"/>
<path d="M136.062 391.291H90.2129V421.25H136.062V391.291Z" fill="white" stroke="#263238" stroke-miterlimit="10"/>
<path d="M112.832 391.291H66.9834V421.25H112.832V391.291Z" fill="#F7A31C" stroke="#263238" stroke-miterlimit="10"/>
<path d="M136.062 361.313H90.2129V391.273H136.062V361.313Z" fill="white" stroke="#263238" stroke-miterlimit="10"/>
<path d="M112.832 361.313H66.9834V391.273H112.832V361.313Z" fill="#263238" stroke="#263238" stroke-miterlimit="10"/>
<path d="M136.062 331.353H90.2129V361.312H136.062V331.353Z" fill="white" stroke="#263238" stroke-miterlimit="10"/>
<path d="M112.832 331.353H66.9834V361.312H112.832V331.353Z" fill="#F7A31C" stroke="#263238" stroke-miterlimit="10"/>
<path d="M550.578 300.692H474.902V338.009H550.578V300.692Z" fill="white" stroke="#263238" stroke-miterlimit="10"/>
<path d="M512.222 300.692H436.547V338.009H512.222V300.692Z" fill="#263238" stroke="#263238" stroke-miterlimit="10"/>
<path d="M533.42 309.339V302.153C533.511 301.289 533.937 300.495 534.608 299.942C535.278 299.389 536.138 299.12 537.004 299.195H731.776C732.642 299.12 733.502 299.389 734.172 299.942C734.842 300.495 735.269 301.289 735.36 302.153V309.339" stroke="#263238" stroke-miterlimit="10"/>
<path d="M546.672 309.359V299.423" stroke="#263238" stroke-miterlimit="10"/>
<path d="M561.333 309.359V299.423" stroke="#263238" stroke-miterlimit="10"/>
<path d="M575.968 309.359V299.423" stroke="#263238" stroke-miterlimit="10"/>
<path d="M590.624 309.359V299.423" stroke="#263238" stroke-miterlimit="10"/>
<path d="M605.265 309.359V299.423" stroke="#263238" stroke-miterlimit="10"/>
<path d="M619.899 309.359V299.423" stroke="#263238" stroke-miterlimit="10"/>
<path d="M634.561 309.359V299.423" stroke="#263238" stroke-miterlimit="10"/>
<path d="M649.195 309.359V299.423" stroke="#263238" stroke-miterlimit="10"/>
<path d="M663.852 309.359V299.423" stroke="#263238" stroke-miterlimit="10"/>
<path d="M678.492 309.359V299.423" stroke="#263238" stroke-miterlimit="10"/>
<path d="M693.148 309.359V299.423" stroke="#263238" stroke-miterlimit="10"/>
<path d="M707.789 309.359V299.423" stroke="#263238" stroke-miterlimit="10"/>
<path d="M722.424 309.359V299.423" stroke="#263238" stroke-miterlimit="10"/>
<path d="M210.166 397.946H149.395V427.905H210.166V397.946Z" fill="white" stroke="#263238" stroke-miterlimit="10"/>
<path d="M179.352 397.946H118.58V427.905H179.352V397.946Z" fill="white" stroke="#263238" stroke-miterlimit="10"/>
<path d="M210.166 367.985H149.395V397.945H210.166V367.985Z" fill="white" stroke="#263238" stroke-miterlimit="10"/>
<path d="M179.352 367.985H118.58V397.945H179.352V367.985Z" fill="#F7A31C" stroke="#263238" stroke-miterlimit="10"/>
<path d="M210.166 338.009H149.395V367.968H210.166V338.009Z" fill="white" stroke="#263238" stroke-miterlimit="10"/>
<path d="M179.352 338.009H118.58V367.968H179.352V338.009Z" fill="#263238" stroke="#263238" stroke-miterlimit="10"/>
<path d="M308.782 316.372H268.186V339.676H308.782V316.372Z" fill="white" stroke="#263238" stroke-miterlimit="10"/>
<path d="M288.188 316.372H247.592V339.676H288.188V316.372Z" fill="#263238" stroke="#263238" stroke-miterlimit="10"/>
<path d="M279.637 316.372H239.04V339.676H279.637V316.372Z" fill="white" stroke="#263238" stroke-miterlimit="10"/>
<path d="M259.064 316.372H218.468V339.676H259.064V316.372Z" fill="#F7A31C" stroke="#263238" stroke-miterlimit="10"/>
<path d="M359.139 338.009H298.367V367.968H359.139V338.009Z" fill="white" stroke="#263238" stroke-miterlimit="10"/>
<path d="M328.352 338.009H267.58V367.968H328.352V338.009Z" fill="#F7A31C" stroke="#263238" stroke-miterlimit="10"/>
<path d="M283.41 397.946H222.639V427.905H283.41V397.946Z" fill="white" stroke="#263238" stroke-miterlimit="10"/>
<path d="M252.596 397.946H191.824V427.905H252.596V397.946Z" fill="#F7A31C" stroke="#263238" stroke-miterlimit="10"/>
<path d="M283.41 367.985H222.639V397.945H283.41V367.985Z" fill="white" stroke="#263238" stroke-miterlimit="10"/>
<path d="M252.596 367.985H191.824V397.945H252.596V367.985Z" fill="#263238" stroke="#263238" stroke-miterlimit="10"/>
<path d="M359.139 397.946H298.367V427.905H359.139V397.946Z" fill="white" stroke="#263238" stroke-miterlimit="10"/>
<path d="M328.352 397.946H267.58V427.905H328.352V397.946Z" fill="#F7A31C" stroke="#263238" stroke-miterlimit="10"/>
<path d="M359.139 367.985H298.367V397.945H359.139V367.985Z" fill="white" stroke="#263238" stroke-miterlimit="10"/>
<path d="M328.352 367.985H267.58V397.945H328.352V367.985Z" fill="#F7A31C" stroke="#263238" stroke-miterlimit="10"/>
<path d="M283.41 338.009H222.639V367.968H283.41V338.009Z" fill="white" stroke="#263238" stroke-miterlimit="10"/>
<path d="M252.596 338.009H191.824V367.968H252.596V338.009Z" fill="#263238" stroke="#263238" stroke-miterlimit="10"/>
<path d="M436.559 397.946H375.787V427.905H436.559V397.946Z" fill="white" stroke="#263238" stroke-miterlimit="10"/>
<path d="M405.731 397.946H344.979V427.905H405.731V397.946Z" fill="#263238" stroke="#263238" stroke-miterlimit="10"/>
<path d="M436.559 367.985H375.787V397.945H436.559V367.985Z" fill="white" stroke="#263238" stroke-miterlimit="10"/>
<path d="M405.731 367.985H344.979V397.945H405.731V367.985Z" fill="#263238" stroke="#263238" stroke-miterlimit="10"/>
<path d="M436.559 338.009H375.787V367.968H436.559V338.009Z" fill="white" stroke="#263238" stroke-miterlimit="10"/>
<path d="M405.731 338.009H344.979V367.968H405.731V338.009Z" fill="#F7A31C" stroke="#263238" stroke-miterlimit="10"/>
<path d="M514.8 397.946H454.028V427.905H514.8V397.946Z" fill="white" stroke="#263238" stroke-miterlimit="10"/>
<path d="M484.007 397.946H423.235V427.905H484.007V397.946Z" fill="white" stroke="#263238" stroke-miterlimit="10"/>
<path d="M514.8 367.985H454.028V397.945H514.8V367.985Z" fill="#F7A31C" stroke="#263238" stroke-miterlimit="10"/>
<path d="M484.007 367.985H423.235V397.945H484.007V367.985Z" fill="#F7A31C" stroke="#263238" stroke-miterlimit="10"/>
<path d="M514.8 338.009H454.028V367.968H514.8V338.009Z" fill="#F7A31C" stroke="#263238" stroke-miterlimit="10"/>
<path d="M484.007 338.009H423.235V367.968H484.007V338.009Z" fill="#263238" stroke="#263238" stroke-miterlimit="10"/>
<path d="M514.798 339.676L533.93 309.717H735.358L752.006 343.828H513.129L514.798 339.676Z" fill="#F7A31C" stroke="#263238" stroke-miterlimit="10"/>
<path d="M131.489 425.61H124.625L125.308 401.264H130.806L131.489 425.61Z" fill="white" stroke="#263238" stroke-miterlimit="10"/>
<path d="M163.325 425.61H156.461L157.144 401.264H162.642L163.325 425.61Z" fill="white" stroke="#263238" stroke-miterlimit="10"/>
<path d="M195.166 425.61H188.302L188.984 401.264H194.483L195.166 425.61Z" fill="white" stroke="#263238" stroke-miterlimit="10"/>
<path d="M227.002 425.61H220.138L220.82 401.264H226.319L227.002 425.61Z" fill="white" stroke="#263238" stroke-miterlimit="10"/>
<path d="M258.837 425.61H251.973L252.655 401.264H258.154L258.837 425.61Z" fill="white" stroke="#263238" stroke-miterlimit="10"/>
<path d="M290.673 425.61H283.809L284.491 401.264H289.99L290.673 425.61Z" fill="white" stroke="#263238" stroke-miterlimit="10"/>
<path d="M322.508 425.61H315.644L316.326 401.264H321.825L322.508 425.61Z" fill="white" stroke="#263238" stroke-miterlimit="10"/>
<path d="M354.344 425.61H347.479L348.162 401.264H353.661L354.344 425.61Z" fill="white" stroke="#263238" stroke-miterlimit="10"/>
<path d="M386.184 425.61H379.32L380.003 401.264H385.502L386.184 425.61Z" fill="white" stroke="#263238" stroke-miterlimit="10"/>
<path d="M762.853 339.678H514.798L482.222 380.464H422.399L414.245 421.212H383.262L382.694 401.227H377.195L376.645 421.212H351.388L350.819 401.227H345.32L344.752 421.212H319.59L319.021 401.227H313.465L312.896 421.212H287.678L287.128 401.227H281.629L281.06 421.212H255.841L255.291 401.227H249.792L249.224 421.212H224.005L223.455 401.227H217.956L217.387 421.212H192.169L191.619 401.227H186.12L185.551 421.212H160.332L159.763 401.227H154.283L153.715 421.212H128.496L127.927 401.227H122.447L121.954 421.212H101.097V379.63H51.1709V409.247C51.1898 417.027 53.8658 424.566 58.7555 430.617L67.9139 441.994H691.254L696.582 434.409C703.75 424.455 717.023 407.067 729.537 396.259C747.854 380.464 766.171 352.154 762.853 339.678Z" fill="#263238" stroke="#263238" stroke-miterlimit="10"/>
<path d="M729.535 396.278C747.851 380.464 766.168 352.154 762.831 339.678H721.248C715.901 353.046 708.696 369.542 699.575 387.081C677.087 430.371 691.251 442.07 691.251 442.07L696.58 434.485C703.747 424.474 717.02 407.086 729.535 396.278Z" fill="white" stroke="#263238" stroke-miterlimit="10"/>
<path d="M730.845 455.701H749.408" stroke="#263238" stroke-miterlimit="10"/>
<path d="M530.777 455.699H709.395" stroke="#263238" stroke-miterlimit="10"/>
<path d="M469.326 455.699H513.62" stroke="#263238" stroke-miterlimit="10"/>
<path d="M313.558 455.699H449.322" stroke="#263238" stroke-miterlimit="10"/>
<path d="M93.4912 455.701H293.554" stroke="#263238" stroke-miterlimit="10"/>
<path d="M32.0518 455.701H72.0605" stroke="#263238" stroke-miterlimit="10"/>
<path d="M722.25 491.424H740.832" stroke="#263238" stroke-miterlimit="10"/>
<path d="M522.209 491.424H700.826" stroke="#263238" stroke-miterlimit="10"/>
<path d="M460.753 491.424H505.047" stroke="#263238" stroke-miterlimit="10"/>
<path d="M304.99 491.424H440.755" stroke="#263238" stroke-miterlimit="10"/>
<path d="M84.918 491.424H284.981" stroke="#263238" stroke-miterlimit="10"/>
<path d="M23.4834 491.424H63.4921" stroke="#263238" stroke-miterlimit="10"/>
<path d="M144.419 519.999H130.653" stroke="#263238" stroke-miterlimit="10"/>
<path d="M292.682 519.999H160.312" stroke="#263238" stroke-miterlimit="10"/>
<path d="M338.206 519.999H305.384" stroke="#263238" stroke-miterlimit="10"/>
<path d="M453.628 519.999H353.037" stroke="#263238" stroke-miterlimit="10"/>
<path d="M616.711 519.999H468.451" stroke="#263238" stroke-miterlimit="10"/>
<path d="M662.239 519.999H632.583" stroke="#263238" stroke-miterlimit="10"/>
<path d="M96.6942 472.84H80.6338" stroke="#263238" stroke-miterlimit="10"/>
<path d="M269.664 472.843H115.241" stroke="#263238" stroke-miterlimit="10"/>
<path d="M322.79 472.843H284.488" stroke="#263238" stroke-miterlimit="10"/>
<path d="M457.436 472.843H340.083" stroke="#263238" stroke-miterlimit="10"/>
<path d="M647.698 472.843H474.75" stroke="#263238" stroke-miterlimit="10"/>
<path d="M700.825 472.843H666.239" stroke="#263238" stroke-miterlimit="10"/>
<path d="M65.2586 464.27H49.1982" stroke="#263238" stroke-miterlimit="10"/>
<path d="M238.222 464.27H83.7998" stroke="#263238" stroke-miterlimit="10"/>
<path d="M291.355 464.27H253.053" stroke="#263238" stroke-miterlimit="10"/>
<path d="M426 464.27H308.647" stroke="#263238" stroke-miterlimit="10"/>
<path d="M616.257 464.27H443.31" stroke="#263238" stroke-miterlimit="10"/>
<path d="M669.388 464.27H634.803" stroke="#263238" stroke-miterlimit="10"/>
<path d="M82.4159 448.552H66.3555" stroke="#263238" stroke-miterlimit="10"/>
<path d="M255.364 448.552H100.941" stroke="#263238" stroke-miterlimit="10"/>
<path d="M308.491 448.552H270.188" stroke="#263238" stroke-miterlimit="10"/>
<path d="M443.16 448.552H325.788" stroke="#263238" stroke-miterlimit="10"/>
<path d="M633.417 448.552H460.45" stroke="#263238" stroke-miterlimit="10"/>
<path d="M686.53 448.552H651.944" stroke="#263238" stroke-miterlimit="10"/>
</svg>
