<svg xmlns="http://www.w3.org/2000/svg" viewBox="0 0 31.5 31.5"><defs><style>.cls-1,.cls-2{fill:#fff;}.cls-2{fill-rule:evenodd;}</style></defs><g id="Layer_2" data-name="Layer 2"><g id="Layer_1-2" data-name="Layer 1"><path class="cls-1" d="M21.8,31.5H9.7A9.71,9.71,0,0,1,0,21.8V9.7A9.71,9.71,0,0,1,9.7,0H21.8a9.71,9.71,0,0,1,9.7,9.7V21.8A9.71,9.71,0,0,1,21.8,31.5ZM9.7,1.5A8.21,8.21,0,0,0,1.5,9.7V21.8A8.21,8.21,0,0,0,9.7,30H21.8A8.21,8.21,0,0,0,30,21.8V9.7a8.21,8.21,0,0,0-8.2-8.2Z"/><path class="cls-2" d="M13.54,15.82V24a.22.22,0,0,0,.22.21h3A.21.21,0,0,0,17,24V15.68h2.21a.21.21,0,0,0,.22-.19L19.66,13a.21.21,0,0,0-.21-.23H17V11a.76.76,0,0,1,.76-.76h1.71A.21.21,0,0,0,19.7,10V7.46a.22.22,0,0,0-.21-.21H16.6a3.06,3.06,0,0,0-3.06,3.06v2.43H12a.21.21,0,0,0-.22.21v2.52a.21.21,0,0,0,.22.21h1.52Z"/></g></g></svg>