<svg width="36" height="36" viewBox="0 0 36 36" fill="none" xmlns="http://www.w3.org/2000/svg">
<path d="M0 18.1081C0.00101382 22.4209 1.53085 26.592 4.31453 29.8715C7.09822 33.1511 10.9532 35.3241 15.1866 36V23.3422H10.62V18.1081H15.192V14.1237C15.091 13.1912 15.1954 12.2477 15.4977 11.3603C15.7999 10.4729 16.2927 9.66333 16.941 8.98912C17.5892 8.31492 18.377 7.79261 19.2485 7.45927C20.12 7.12594 21.0537 6.98977 21.9834 7.06043C23.3334 7.08216 24.6834 7.2035 26.0154 7.42265V11.8761H23.7402C23.3535 11.8252 22.9604 11.8623 22.5899 11.9848C22.2193 12.1072 21.8809 12.3119 21.5996 12.5837C21.3183 12.8554 21.1012 13.1873 20.9645 13.5548C20.8278 13.9223 20.7749 14.3161 20.8098 14.7069V18.1081H25.7976L25.0002 23.344H20.8098V36C24.2075 35.4597 27.3802 33.9512 29.9523 31.6529C32.5244 29.3547 34.3881 26.3631 35.3228 23.0322C36.2575 19.7013 36.224 16.1707 35.2263 12.8584C34.2287 9.54603 32.3086 6.59068 29.6935 4.34223C27.0783 2.09377 23.8776 0.64636 20.4703 0.171371C17.0629 -0.303618 13.5917 0.213703 10.4675 1.66209C7.34325 3.11047 4.69695 5.42926 2.84185 8.34391C0.986749 11.2586 0.000546066 14.647 0 18.1081Z" fill="#0046AD"/>
</svg>
