<svg width="101" height="100" viewBox="0 0 101 100" fill="none" xmlns="http://www.w3.org/2000/svg">
<g clip-path="url(#clip0_243_2153)">
<path d="M69.2071 93.4051H7.34807V6.59453H69.2069V28.1128L75.8014 21.5181V3.29726C75.8016 1.47638 74.325 0 72.5043 0H4.0508C2.22972 0 0.75293 1.47638 0.75293 3.29726V96.7027C0.75293 98.5236 2.22951 100 4.0508 100H72.5043C74.325 100 75.8016 98.5236 75.8016 96.7027V60.4186L69.2071 67.0133V93.4051Z" fill="#EDA122"/>
<path d="M59.4857 14.5034H17.0692C15.6784 14.5034 14.5498 15.632 14.5498 17.0233C14.5498 18.4143 15.6784 19.5429 17.0692 19.5429H59.4855C60.8767 19.5429 62.0052 18.4143 62.0052 17.0233C62.0054 15.632 60.8767 14.5034 59.4857 14.5034Z" fill="#EDA122"/>
<path d="M62.0054 30.4617C62.0054 29.0707 60.8767 27.9419 59.4857 27.9419H17.0692C15.6784 27.9419 14.5498 29.0707 14.5498 30.4617C14.5498 31.853 15.6784 32.9816 17.0692 32.9816H59.4855C60.8767 32.9816 62.0054 31.8532 62.0054 30.4617Z" fill="#EDA122"/>
<path d="M55.9407 41.3809H17.0692C15.6784 41.3809 14.5498 42.5097 14.5498 43.9007C14.5498 45.2919 15.6784 46.4203 17.0692 46.4203H50.901L55.9407 41.3809Z" fill="#EDA122"/>
<path d="M41.8456 58.0855C42.1866 56.9437 42.674 55.8496 43.2677 54.8193H17.0692C15.6784 54.8193 14.5498 55.948 14.5498 57.3392C14.5498 58.7302 15.6784 59.859 17.0692 59.859H41.3173L41.8456 58.0855Z" fill="#EDA122"/>
<path d="M17.0692 68.2588C15.6784 68.2588 14.5498 69.3874 14.5498 70.7786C14.5498 72.1694 15.6784 73.2983 17.0692 73.2983H39.2028C38.5497 71.7138 38.3808 69.9632 38.842 68.2588H17.0692Z" fill="#EDA122"/>
<path d="M97.6869 19.0856C96.3666 17.7647 94.5764 17.0234 92.7114 17.0234C90.8465 17.0234 89.0567 17.7647 87.7378 19.0839L50.4592 56.3636C49.442 57.3804 48.6958 58.6322 48.2839 60.0102L45.3132 69.9681C45.1868 70.3896 45.3016 70.8457 45.6134 71.1575C45.8414 71.3857 46.1467 71.5085 46.4597 71.5085C46.5731 71.5085 46.6894 71.4922 46.8028 71.4579L56.76 68.4868C58.1384 68.075 59.3902 67.3285 60.4069 66.3117L97.6867 29.0335C99.0056 27.7144 99.7472 25.9248 99.7472 24.0596C99.7472 22.194 99.0058 20.4044 97.6869 19.0856Z" fill="#EDA122"/>
</g>
<defs>
<clipPath id="clip0_243_2153">
<rect width="100" height="100" fill="white" transform="translate(0.25)"/>
</clipPath>
</defs>
</svg>
