<svg xmlns="http://www.w3.org/2000/svg" xmlns:xlink="http://www.w3.org/1999/xlink" viewBox="0 0 829.47 373.19"><defs><style>.cls-1{fill:url(#linear-gradient);}.cls-2{fill:url(#linear-gradient-2);}.cls-3{fill:url(#linear-gradient-3);}.cls-4{fill:url(#linear-gradient-4);}.cls-5{fill:#2a3e6b;}</style><linearGradient id="linear-gradient" x1="221.03" y1="110.51" x2="0" y2="110.51" gradientUnits="userSpaceOnUse"><stop offset="0" stop-color="#e40935"/><stop offset="0.11" stop-color="#da0c38"/><stop offset="0.29" stop-color="#bf1440"/><stop offset="0.53" stop-color="#92204d"/><stop offset="0.81" stop-color="#56325e"/><stop offset="1" stop-color="#2a3e6b"/></linearGradient><linearGradient id="linear-gradient-2" x1="0.47" y1="82.42" x2="110.98" y2="192.93" gradientUnits="userSpaceOnUse"><stop offset="0" stop-color="#e40935"/><stop offset="1" stop-color="#e40935"/></linearGradient><linearGradient id="linear-gradient-3" x1="151.96" y1="82.89" x2="151.96" y2="221.03" xlink:href="#linear-gradient"/><linearGradient id="linear-gradient-4" x1="35.86" y1="-20.7" x2="186.83" y2="240.77" xlink:href="#linear-gradient-2"/></defs><g id="Layer_2" data-name="Layer 2"><g id="Layer_1-2" data-name="Layer 1"><path class="cls-1" d="M63.86,168.26A165.4,165.4,0,0,0,55.26,221H0a220.05,220.05,0,0,1,15.54-81.4A82.74,82.74,0,0,1,63.86,168.26ZM110.52,29.67A221.24,221.24,0,0,0,62.3,67.42a215.72,215.72,0,0,0-19,22.41,137.61,137.61,0,0,1,48.25,27.83,166.51,166.51,0,0,1,67.2-50.24A164.53,164.53,0,0,1,221,55.26V0A219.63,219.63,0,0,0,110.52,29.67Z"/><path class="cls-2" d="M110.52,138.25A137.18,137.18,0,0,0,82.89,221a82.45,82.45,0,0,0-19-52.77,82.74,82.74,0,0,0-48.32-28.63A81.81,81.81,0,0,0,0,138.14V82.89a137.09,137.09,0,0,1,43.27,6.94,137.61,137.61,0,0,1,48.25,27.83A136.79,136.79,0,0,1,110.52,138.25Z"/><path class="cls-3" d="M221,82.89v55.25a81.73,81.73,0,0,0-15.54,1.49,222.13,222.13,0,0,0-27.74-49.8A137.15,137.15,0,0,1,221,82.89Zm-91.52,34.77A138.17,138.17,0,0,0,82.89,221h55.26a82.44,82.44,0,0,1,19-52.77A165.49,165.49,0,0,0,129.51,117.66Z"/><path class="cls-4" d="M221,221H165.77a165.68,165.68,0,0,0-8.6-52.77,165.49,165.49,0,0,0-27.66-50.6,167.14,167.14,0,0,0-19-20.1,165.11,165.11,0,0,1,48.2-30.14,213.29,213.29,0,0,1,19,22.41,222.13,222.13,0,0,1,27.74,49.8A220.05,220.05,0,0,1,221,221ZM0,0V55.26A164.48,164.48,0,0,1,62.3,67.42a221.24,221.24,0,0,1,48.22-37.75A219.7,219.7,0,0,0,0,0Z"/><path class="cls-5" d="M260.33,221V0H343c59.44,0,88.54,24.15,88.54,73.68,0,50.45-29.41,75.53-87.92,75.53H317.91V221Zm83-119.18c23.22,0,33.13-8.36,33.13-27.86S366.82,47.05,343,47.05H317.91v54.8Z"/><path class="cls-5" d="M510.14,221V50.46H446.37V0h187V50.46H569.58V221Z"/><path class="cls-5" d="M721.61,130.26C673.58,121.12,653,101.67,653,66c0-42.43,30.35-66,84.58-66,52.75,0,83.69,22.69,88.11,64.25l-54.81,5.6c-3.83-17.69-13.56-25-33.6-25-18,0-28.29,6.18-28.29,18,0,9.73,7.07,15.33,23.58,18.57l28.58,5.6c46.86,9.13,68.37,29.47,68.37,65.13,0,44.5-31.82,69-88.7,69-57.47,0-88.71-25.05-91.95-74.56h56.29c2.36,20,14.44,29.17,37.72,29.17,19.75,0,30.06-7.07,30.06-20.33,0-10.91-7.66-17.09-23.28-19.75Z"/><path class="cls-5" d="M24.07,327.26V372H0V251.45H43.88q21.34,0,32.19,10.25t10.84,27.83q0,17.25-11.18,27.49T43.88,327.26Zm38.42-37.73q0-9-5-13.83t-16.22-4.78H24.07V308H41.32Q62.49,308,62.49,289.53Z"/><path class="cls-5" d="M165.45,372l-28.17-47H126.69v47H102.62V251.45h45.93q21,0,32,10.25t11,27q0,13.65-7.6,22.88T162,323.85L192.09,372Zm-38.76-63.52H146.5q20.66,0,20.66-18.27,0-8.7-5-13.57t-15.62-4.87H126.69Z"/><path class="cls-5" d="M295,257.6a57.09,57.09,0,0,1,21.69,21.94,68,68,0,0,1,0,63.77,56.85,56.85,0,0,1-21.69,22,63.76,63.76,0,0,1-61.3,0,56.76,56.76,0,0,1-21.68-22,68,68,0,0,1,0-63.77,57,57,0,0,1,21.68-21.94,63.76,63.76,0,0,1,61.3,0ZM245.7,276.72a32.74,32.74,0,0,0-12.55,13.75,50.65,50.65,0,0,0,0,41.83,32.74,32.74,0,0,0,12.55,13.75,38.62,38.62,0,0,0,37.22,0,32.67,32.67,0,0,0,12.55-13.75,50.55,50.55,0,0,0,0-41.83,32.67,32.67,0,0,0-12.55-13.75,38.62,38.62,0,0,0-37.22,0Z"/><path class="cls-5" d="M411.15,251.45v85q0,17.41-9.64,27.07t-26.73,9.64q-18.43,0-29.19-10.58t-10.76-30.22h23.73q0,9.21,3.84,14.17t11.36,4.95q6.83,0,10.07-4t3.25-11v-85Z"/><path class="cls-5" d="M456.23,270.58v31.24h42.68v18.44H456.23V352.7H504V372H432.15V251.45H504v19.13Z"/><path class="cls-5" d="M613.65,261.87q14.86,11.61,19.64,31.59H608a33.1,33.1,0,0,0-12.21-15.37q-8.28-5.64-19.89-5.64a31.46,31.46,0,0,0-29.2,18.45q-4.28,8.88-4.27,20.83a47.13,47.13,0,0,0,4.27,20.66,31.42,31.42,0,0,0,29.2,18.44q11.61,0,19.89-5.64A33.07,33.07,0,0,0,608,329.83h25.27q-4.78,20-19.64,31.58T576.26,373q-17.25,0-30.48-7.77a52.83,52.83,0,0,1-20.49-21.77q-7.26-14-7.25-31.75,0-17.94,7.25-31.93A53,53,0,0,1,545.7,258q13.14-7.77,30.56-7.77Q598.8,250.26,613.65,261.87Z"/><path class="cls-5" d="M733.34,251.45v19.13H700.05V372H676V270.58H642.85V251.45Z"/><path class="cls-5" d="M824.86,356A33,33,0,0,1,811.2,368.5q-9,4.69-22,4.69a57.17,57.17,0,0,1-22.88-4.35,38.68,38.68,0,0,1-16.14-12.55,36.12,36.12,0,0,1-6.91-19.12h25.61a19.59,19.59,0,0,0,5.89,12.21q5,4.86,13.4,4.86,7.51,0,11.53-4a14,14,0,0,0,4-10.33,13.55,13.55,0,0,0-3.24-9.31,23.87,23.87,0,0,0-8.2-5.89q-4.95-2.22-13.66-5.12a134.21,134.21,0,0,1-18.44-7.43,34,34,0,0,1-12.21-10.67q-5-7-5-18.27,0-15.54,11.18-24.5t29.62-9q19.13,0,30.48,9.22t12.89,24.58h-26a18.12,18.12,0,0,0-5.46-10.67q-4.45-4.19-12.13-4.18-6.66,0-10.75,3.5t-4.1,10.16a12.6,12.6,0,0,0,3.16,8.79,24,24,0,0,0,8,5.72,132.59,132.59,0,0,0,13.23,4.95A177.89,177.89,0,0,1,812,309.51a33.18,33.18,0,0,1,12.38,10.75q5.13,7.17,5.12,18.79A32.59,32.59,0,0,1,824.86,356Z"/></g></g></svg>