<svg width="116" height="68" viewBox="0 0 116 68" fill="none" xmlns="http://www.w3.org/2000/svg">
<path d="M11.1694 53.4814V67.8056H8.47208V62.0253H3.44663V67.8056H0.727539V53.4814H3.44663V59.2364H8.47208V53.4814H11.1694Z" fill="#293E6B"/>
<path d="M16.668 60.6381C16.668 59.1832 17.04 57.7611 17.7371 56.5514C18.4341 55.3417 19.4248 54.3989 20.584 53.8422C21.7431 53.2854 23.0186 53.1397 24.2491 53.4236C25.4797 53.7074 26.61 54.408 27.4971 55.4367C28.3843 56.4655 28.9885 57.7761 29.2332 59.203C29.478 60.6299 29.3524 62.1089 28.8723 63.4531C28.3921 64.7972 27.579 65.946 26.5359 66.7543C25.4927 67.5625 24.2662 67.9939 23.0115 67.9939C21.3292 67.9935 19.716 67.2184 18.5264 65.839C17.3368 64.4596 16.6684 62.5888 16.668 60.6381ZM26.6956 60.6381C26.7047 60.0738 26.6155 59.5132 26.4334 58.9899C26.2513 58.4665 25.9801 57.9911 25.6359 57.5921C25.2916 57.1931 24.8816 56.8788 24.4301 56.6678C23.9787 56.4569 23.4952 56.3537 23.0086 56.3644C20.929 56.3644 19.3435 58.2182 19.3435 60.6381C19.3435 63.058 20.929 64.9134 23.0086 64.9134C23.4956 64.9246 23.9795 64.8217 24.4314 64.6109C24.8832 64.4001 25.2937 64.0856 25.6383 63.6864C25.9828 63.2872 26.2543 62.8114 26.4365 62.2876C26.6187 61.7638 26.7078 61.2028 26.6985 60.6381H26.6956Z" fill="#293E6B"/>
<path d="M41.6718 65.0115V67.8056H34.8545V53.4814H37.5736V65.0115H41.6718Z" fill="#293E6B"/>
<path d="M46.4287 53.4848H50.5066C51.3337 53.4554 52.1574 53.6189 52.9289 53.9656C53.7004 54.3122 54.4041 54.8351 54.9981 55.503C55.5921 56.171 56.0643 56.9705 56.3868 57.8541C56.7093 58.7377 56.8755 59.6874 56.8755 60.6469C56.8755 61.6063 56.7093 62.556 56.3868 63.4396C56.0643 64.3232 55.5921 65.1227 54.9981 65.7907C54.4041 66.4587 53.7004 66.9815 52.9289 67.3282C52.1574 67.6749 51.3337 67.8383 50.5066 67.8089H46.4287V53.4848ZM50.4863 65.0132C52.4424 65.0132 53.9669 63.1258 53.9669 60.6418C53.9669 58.1578 52.4424 56.2721 50.4863 56.2721H49.1478V65.0132H50.4863Z" fill="#293E6B"/>
<path d="M62.2695 53.4814H64.9872V67.8056H62.2695V53.4814Z" fill="#293E6B"/>
<path d="M82.5764 53.4814V67.8056H79.7774L73.7215 58.3011V67.8056H71.001V53.4814H73.8029L79.8791 62.9623V53.4814H82.5764Z" fill="#293E6B"/>
<path d="M100.782 59.9642V60.6568C100.782 62.4508 100.216 64.1828 99.1904 65.5257C98.1647 66.8687 96.7505 67.7298 95.2147 67.9464C93.6789 68.1631 92.1279 67.7202 90.8545 66.7015C89.5811 65.6828 88.6733 64.1587 88.3026 62.4171C87.9319 60.6754 88.124 58.8366 88.8425 57.2478C89.561 55.6591 90.7562 54.4303 92.2025 53.7936C93.6489 53.1568 95.2462 53.156 96.693 53.7915C98.1398 54.4269 99.3358 55.6546 100.055 57.2426L97.7084 58.6515C97.3174 57.8001 96.6895 57.1273 95.9267 56.7424C95.164 56.3575 94.3115 56.2832 93.5077 56.5317C92.704 56.7801 91.9964 57.3367 91.5001 58.1107C91.0039 58.8848 90.7481 59.8308 90.7745 60.7949C90.8008 61.7589 91.1078 62.6843 91.6453 63.4203C92.1829 64.1564 92.9195 64.6598 93.7352 64.8487C94.5509 65.0376 95.3977 64.9009 96.1378 64.4607C96.878 64.0206 97.4679 63.3029 97.8116 62.4246H94.4182V59.9642H100.782Z" fill="#293E6B"/>
<path d="M105.396 64.8005L107.642 63.1777C107.852 63.7332 108.198 64.2051 108.637 64.5346C109.076 64.8641 109.589 65.0369 110.112 65.0314C111.06 65.0314 111.637 64.5056 111.637 63.7169C111.637 61.2094 105.933 62.3806 105.933 57.5087C105.933 54.6439 107.93 53.2822 109.887 53.2822C110.61 53.284 111.324 53.4654 111.981 53.8142C112.638 54.1631 113.223 54.6712 113.696 55.3045L111.884 57.3115C111.266 56.5229 110.566 56.0695 109.865 56.0695C109.207 56.0695 108.672 56.4504 108.672 57.2627C108.672 59.7466 114.356 58.4423 114.356 63.7355C114.356 66.4099 112.4 67.9855 110.092 67.9855C109.133 68.0012 108.189 67.7127 107.362 67.1514C106.534 66.59 105.855 65.7771 105.396 64.8005Z" fill="#293E6B"/>
<path d="M11.9809 37.4768C10.9105 41.177 10.3656 45.0543 10.3677 48.9571H1.5805e-05C-0.00456062 42.8926 0.984752 36.8823 2.9153 31.2462C6.47136 32.0332 9.67824 34.2372 11.9809 37.4768ZM20.7354 7.31807C17.4065 9.55796 14.3619 12.323 11.6888 15.534C10.4047 17.0635 9.21172 18.6925 8.11805 20.4096C11.4605 21.6918 14.5416 23.753 17.172 26.4666C20.5012 21.6325 24.8432 17.8685 29.7836 15.534C33.4953 13.7805 37.4659 12.8818 41.4738 12.888V0.863315C34.1908 0.853332 27.0354 3.08043 20.7354 7.31807Z" fill="url(#paint0_linear_229_2723)"/>
<path d="M20.7359 30.9387C17.3638 36.1281 15.5437 42.4518 15.5521 48.9497C15.5467 44.169 13.9067 39.5859 10.9916 36.2054C8.07656 32.8249 4.12445 30.923 0.00195312 30.9168V18.8921C4.02635 18.9011 7.99395 19.9939 11.592 22.0844C15.1901 24.175 18.3203 27.206 20.7359 30.9387Z" fill="url(#paint1_linear_229_2723)"/>
<path d="M41.4725 18.8921V30.9151C40.4941 30.915 39.5179 31.0234 38.5572 31.2387C37.2309 27.3824 35.4817 23.7403 33.353 20.4022C35.9721 19.3969 38.7137 18.8871 41.4725 18.8921ZM24.3005 26.4592C21.5524 29.2761 19.3514 32.7376 17.8432 36.6148C16.335 40.4919 15.5539 44.6963 15.5518 48.9497H25.9209C25.9177 44.7563 27.1817 40.6942 29.4931 37.4693C28.3313 33.4751 26.5738 29.7485 24.3005 26.4592Z" fill="url(#paint2_linear_229_2723)"/>
<path d="M41.4723 48.9571H31.1046C31.1001 43.886 30.1744 38.8728 28.3878 34.2442C26.6012 29.6155 23.9938 25.4753 20.7354 22.0932C23.4019 19.3168 26.4633 17.0975 29.7836 15.534C31.0685 17.0627 32.2615 18.6917 33.3543 20.4096C35.483 23.7477 37.2322 27.3899 38.5585 31.2462C40.4878 36.8827 41.4766 42.8928 41.4723 48.9571ZM0 0.863314V12.888C4.0074 12.882 7.9775 13.7807 11.6888 15.534C14.3619 12.323 17.4065 9.55795 20.7354 7.31807C14.4365 3.08055 7.28209 0.853445 0 0.863314Z" fill="url(#paint3_linear_229_2723)"/>
<path d="M52.3613 48.9254V1.0625H61.5722C65.1173 1.0625 67.6789 1.88999 69.2572 3.54496C70.8355 5.19994 71.6948 7.94251 71.8353 11.7727C71.8702 13.6827 71.8881 15.4382 71.8891 17.0393C71.8901 18.6403 71.8721 20.3554 71.8353 22.1845C71.6958 25.9742 70.8364 28.6966 69.2572 30.3516C67.678 32.0065 65.1163 32.8346 61.5722 32.8357H59.1511V48.9305L52.3613 48.9254ZM59.1511 26.0051H61.5722C63.7483 26.0051 64.8886 24.8484 64.9933 22.5351C65.0998 20.8599 65.1526 18.9948 65.1517 16.9398C65.1507 14.8849 65.0979 13.0204 64.9933 11.3463C64.8886 9.03291 63.7483 7.87566 61.5722 7.87453H59.1511V26.0051Z" fill="#293E6B"/>
<path d="M79.6789 48.9305V7.88296H73.2568V1.0625H92.8369V7.88296H86.4686V48.9305H79.6789Z" fill="#293E6B"/>
<path d="M105.047 48.9449C101.539 48.9449 99.039 48.0972 97.547 46.4017C96.0549 44.7063 95.2391 41.9042 95.0996 37.9954C95.0647 36.7988 95.056 35.5629 95.0735 34.2877C95.0909 33.0125 95.1524 31.7934 95.258 30.6306H101.626C101.555 32.1474 101.52 33.6641 101.522 35.1809C101.524 36.6977 101.558 38.0943 101.626 39.3706C101.802 41.5649 102.925 42.662 104.995 42.662C106.082 42.662 106.872 42.3812 107.364 41.8194C107.856 41.2576 108.155 40.4419 108.261 39.3723C108.332 38.1735 108.368 37.0561 108.367 36.0202C108.366 34.9843 108.33 33.8473 108.261 32.6091C108.205 31.6807 107.98 30.7765 107.601 29.9565C107.232 29.1778 106.591 28.6689 105.68 28.4296L101.785 27.2937C99.2231 26.5297 97.451 25.2702 96.4686 23.5152C95.4862 21.7602 94.9601 19.4064 94.8903 16.4537C94.8555 15.4965 94.8467 14.5611 94.8642 13.6426C94.8816 12.7241 94.8903 11.8073 94.8903 10.8888C95.0299 6.98113 95.8534 4.18913 97.3609 2.5128C98.8685 0.836479 101.413 -0.00112241 104.994 1.12881e-06C108.397 1.12881e-06 110.862 0.847713 112.389 2.54314C113.916 4.23856 114.749 7.04068 114.889 10.9495C114.889 11.8674 114.88 12.9943 114.863 14.3302C114.845 15.6661 114.819 16.9324 114.783 18.1289H108.261C108.295 16.693 108.322 15.2571 108.34 13.8213C108.359 12.3854 108.35 10.9495 108.314 9.5136C108.243 7.35977 107.137 6.28285 104.998 6.28285C103.909 6.28285 103.111 6.56374 102.603 7.12551C102.095 7.68728 101.788 8.485 101.682 9.51866C101.506 11.8275 101.506 14.1499 101.682 16.4588C101.723 17.3924 101.967 18.2987 102.392 19.0929C102.796 19.8097 103.454 20.2884 104.366 20.5288L107.841 21.4861C110.542 22.2445 112.401 23.5405 113.42 25.3741C114.438 27.2077 114.981 29.6233 115.05 32.6209C115.085 33.5793 115.094 34.4871 115.078 35.3444C115.061 36.2017 115.052 37.0893 115.05 38.0072C114.911 41.9171 114.087 44.7192 112.58 46.4135C111.072 48.1078 108.561 48.9516 105.047 48.9449Z" fill="#293E6B"/>
<defs>
<linearGradient id="paint0_linear_229_2723" x1="41.4723" y1="24.9111" x2="1.48317e-05" y2="24.9111" gradientUnits="userSpaceOnUse">
<stop stop-color="#E70033"/>
<stop offset="0.11" stop-color="#DD0336"/>
<stop offset="0.29" stop-color="#C20C3E"/>
<stop offset="0.52" stop-color="#951B4B"/>
<stop offset="0.8" stop-color="#592E5D"/>
<stop offset="1" stop-color="#293E6B"/>
</linearGradient>
<linearGradient id="paint1_linear_229_2723" x1="0.087697" y1="18.791" x2="23.8723" y2="39.301" gradientUnits="userSpaceOnUse">
<stop stop-color="#E70033"/>
<stop offset="1" stop-color="#E70033"/>
</linearGradient>
<linearGradient id="paint2_linear_229_2723" x1="28.5121" y1="18.8921" x2="28.5121" y2="48.9497" gradientUnits="userSpaceOnUse">
<stop stop-color="#E70033"/>
<stop offset="0.11" stop-color="#DD0336"/>
<stop offset="0.29" stop-color="#C20C3E"/>
<stop offset="0.52" stop-color="#951B4B"/>
<stop offset="0.8" stop-color="#592E5D"/>
<stop offset="1" stop-color="#293E6B"/>
</linearGradient>
<linearGradient id="paint3_linear_229_2723" x1="6.7287" y1="-3.64153" x2="41.7987" y2="48.7394" gradientUnits="userSpaceOnUse">
<stop stop-color="#E70033"/>
<stop offset="1" stop-color="#E70033"/>
</linearGradient>
</defs>
</svg>
