<svg width="115" height="114" viewBox="0 0 115 114" fill="none" xmlns="http://www.w3.org/2000/svg">
<path d="M89.3372 43.8757L81.893 36.4315C81.9617 36.0755 81.9989 35.7083 81.9989 35.3326C81.9989 32.7879 80.3467 30.6232 78.0593 29.8503V23.3909H80.1527C81.1725 23.3909 81.9993 22.5641 81.9993 21.5443V5.78618C81.9993 2.59565 79.4037 0 76.2132 0C73.0226 0 70.427 2.59565 70.427 5.78618V7.87905H66.2412V5.78618C66.2412 4.76633 65.4144 3.93952 64.3946 3.93952H52.576C49.3855 3.93952 46.7898 6.53518 46.7898 9.7257C46.7898 10.2504 46.8612 10.7584 46.9927 11.2422L26.8098 39.1293C26.7539 39.1852 26.7012 39.2436 26.648 39.3017C26.615 39.3376 26.5833 39.3746 26.5513 39.4113C26.458 39.5179 26.3678 39.6269 26.2829 39.74C26.2612 39.7688 26.2405 39.7986 26.2196 39.8276C26.1342 39.9458 26.0524 40.066 25.9763 40.1903C25.9227 40.2775 25.871 40.3658 25.822 40.456C25.787 40.521 25.7535 40.5865 25.721 40.6529C25.6654 40.7652 25.6132 40.8792 25.5649 40.9952C25.546 41.041 25.528 41.087 25.5105 41.1333C25.4563 41.2734 25.4073 41.416 25.364 41.5612C25.3561 41.5876 25.3487 41.6142 25.3413 41.6405C25.2958 41.8018 25.2569 41.9658 25.2254 42.1322C25.2237 42.1409 25.2209 42.149 25.2195 42.1576C25.2148 42.1827 25.2116 42.2081 25.2074 42.2332C25.1985 42.2846 25.1899 42.3363 25.1825 42.3885C25.1749 42.441 25.1687 42.4932 25.1626 42.5456C25.1582 42.5831 25.1537 42.6202 25.1503 42.6582C25.1429 42.7328 25.1375 42.8071 25.1333 42.8817C25.1323 42.8972 25.1313 42.9125 25.1306 42.9278C25.0663 44.1894 25.414 45.4308 26.1418 46.4896L44.8846 73.7518C44.8442 74.0717 44.8211 74.3967 44.8211 74.7274C44.8211 75.5251 44.9425 76.2951 45.167 77.0199L43.6907 77.9058C41.9578 78.9454 40.8815 80.8464 40.8815 82.8674V86.6695H40.7584C39.7386 86.6695 38.9118 87.4964 38.9118 88.5162V102.428H32.8794C31.8595 102.428 31.0327 103.254 31.0327 104.274V110.307H26.9701C25.9502 110.307 25.1234 111.134 25.1234 112.153C25.1234 113.173 25.9502 114 26.9701 114H78.1839C79.2038 114 80.0306 113.173 80.0306 112.153C80.0306 111.134 79.2038 110.307 78.1839 110.307H74.1213V104.274C74.1213 103.254 73.2945 102.428 72.2746 102.428H66.2422V88.5162C66.2422 87.4964 65.4154 86.6695 64.3956 86.6695H64.2725V82.8677C64.2725 80.8467 63.196 78.9456 61.4633 77.9061L59.987 77.0202C60.2118 76.2953 60.3329 75.5256 60.3329 74.7279C60.3329 71.0863 57.8094 68.0243 54.4197 67.195L37.6772 42.8421L52.5758 15.5119C52.5758 15.5119 52.576 15.5119 52.5763 15.5119H64.3948C65.4147 15.5119 66.2415 14.6851 66.2415 13.6652V11.5724H70.4272V21.5443C70.4272 22.5641 71.254 23.3909 72.2739 23.3909H74.3663V29.8503C72.0789 30.6229 70.4267 32.7877 70.4267 35.3326C70.4267 35.7083 70.4639 36.0755 70.5326 36.4315L63.0884 43.8757C62.5937 44.3704 62.4211 45.1019 62.6422 45.7655L64.612 51.6747C64.87 52.4486 65.5905 52.9379 66.3636 52.9379C66.5571 52.9379 66.7541 52.9071 66.9479 52.8426C67.9155 52.52 68.4383 51.4741 68.116 50.5067L66.5072 45.68L72.4578 39.7294C73.4693 40.5946 74.7807 41.1188 76.2129 41.1188C77.6452 41.1188 78.9566 40.5946 79.968 39.7294L85.9187 45.68L84.3099 50.5067C83.9873 51.4741 84.5103 52.52 85.4779 52.8426C85.6717 52.9071 85.8685 52.9379 86.0622 52.9379C86.8354 52.9379 87.5558 52.4486 87.8138 51.6747L89.7836 45.7655C90.0045 45.1019 89.8319 44.3704 89.3372 43.8757ZM29.1752 44.3829C29.1696 44.3746 29.1649 44.3657 29.1592 44.3573C29.1275 44.3091 29.0969 44.2601 29.0694 44.2094C29.0674 44.2057 29.0659 44.2017 29.0637 44.198C28.9379 43.9636 28.8549 43.7026 28.8266 43.4256C28.8266 43.4254 28.8266 43.4251 28.8266 43.4249C28.8197 43.3572 28.8165 43.2882 28.8163 43.2188C28.8163 43.2028 28.8177 43.1865 28.818 43.1705C28.819 43.1181 28.8209 43.0659 28.8259 43.0147C28.8288 42.9839 28.834 42.9531 28.8384 42.9224C28.8436 42.8852 28.8483 42.8478 28.8554 42.8111C28.8618 42.7786 28.8702 42.747 28.8781 42.7153C28.8869 42.6786 28.8953 42.6417 28.9064 42.6057C28.9133 42.5831 28.9219 42.5609 28.9293 42.5385C28.9445 42.4934 28.96 42.4484 28.9783 42.4048C28.9822 42.3952 28.9871 42.3858 28.9913 42.3762C29.124 42.0729 29.3259 41.8062 29.5781 41.5979C29.5788 41.5974 29.5795 41.597 29.5803 41.5965C29.631 41.5546 29.6839 41.515 29.7386 41.478C29.742 41.4758 29.7457 41.4738 29.7494 41.4714C30.0816 41.2495 30.4802 41.1195 30.9089 41.1195C30.9791 41.1195 31.0485 41.1232 31.1172 41.1301C31.1275 41.1311 31.1379 41.1331 31.1482 41.1343C31.2058 41.141 31.2632 41.1493 31.3193 41.1604C31.3368 41.1641 31.354 41.1688 31.3713 41.1727C31.4222 41.1843 31.4732 41.1966 31.5227 41.2119C31.5345 41.2156 31.5459 41.22 31.5574 41.2237C31.6131 41.2419 31.6685 41.2614 31.7221 41.284C31.7234 41.2845 31.7244 41.285 31.7256 41.2855C32.4751 41.6041 33.002 42.3479 33.002 43.2124C33.002 44.3664 32.0632 45.3053 30.9091 45.3053C30.1882 45.3045 29.5517 44.9387 29.1752 44.3829ZM35.2377 39.378C35.1783 39.311 35.1173 39.2453 35.0547 39.1813C34.9774 39.1015 34.8984 39.0239 34.8169 38.9491C34.7841 38.9191 34.7507 38.8903 34.7174 38.8612C34.6069 38.7642 34.4938 38.6709 34.3766 38.583C34.3569 38.5682 34.3368 38.5544 34.3171 38.5399C34.1893 38.4466 34.0588 38.3577 33.9238 38.2754C33.8571 38.2343 33.7889 38.1954 33.7205 38.1573C33.6343 38.1092 33.5474 38.063 33.4587 38.0194C33.3516 37.9667 33.2428 37.9167 33.132 37.8704C33.0803 37.849 33.0281 37.8285 32.9754 37.8086C32.8417 37.7574 32.706 37.7106 32.5679 37.6692C32.5337 37.6589 32.4992 37.6493 32.4645 37.6397C32.4598 37.6385 32.4551 37.637 32.4505 37.6358L48.0872 16.0299L35.314 39.46C35.2894 39.4314 35.2623 39.4061 35.2377 39.378ZM32.2395 48.8417C33.6633 48.5052 34.8858 47.6422 35.688 46.4692L50.0707 67.3895C48.7133 67.8544 47.5243 68.6841 46.6229 69.7633L32.2395 48.8417ZM70.4272 110.307H34.7253V106.121H70.4272V110.307ZM42.6043 102.428V90.3629H62.5482V102.428H42.6043ZM59.5623 81.0732C60.1892 81.4492 60.5784 82.1369 60.5784 82.8679V86.6695H44.5741V82.8677C44.5741 82.1369 44.9634 81.4492 45.5903 81.073L47.0708 80.1846C48.4769 81.6033 50.4255 82.4838 52.5763 82.4838C54.727 82.4838 56.6753 81.6033 58.0818 80.1846L59.5623 81.0732ZM56.6389 74.7279C56.6389 76.968 54.8164 78.7905 52.5763 78.7905C50.3362 78.7905 48.5136 76.968 48.5136 74.7279C48.5136 72.4877 50.3362 70.6652 52.5763 70.6652C54.8164 70.6652 56.6389 72.4877 56.6389 74.7279ZM62.5482 11.8186H52.5763C51.4222 11.8186 50.4834 10.8797 50.4834 9.7257C50.4834 8.57167 51.4222 7.63283 52.5763 7.63283H62.5482V11.8186ZM74.1205 5.78618C74.1205 4.63214 75.0594 3.6933 76.2134 3.6933C77.3675 3.6933 78.3063 4.63214 78.3063 5.78618V11.8186H74.1205V5.78618ZM74.1205 15.5119H78.3063V19.6976H74.1205V15.5119ZM76.2129 37.4255C75.0589 37.4255 74.12 36.4866 74.12 35.3326C74.12 34.1786 75.0589 33.2397 76.2129 33.2397C77.367 33.2397 78.3058 34.1786 78.3058 35.3326C78.3058 36.4866 77.367 37.4255 76.2129 37.4255Z" fill="#EDA122"/>
</svg>
