<svg width="16" height="16" viewBox="0 0 16 16" fill="none" xmlns="http://www.w3.org/2000/svg">
<path d="M5.22033 8C5.22033 6.61934 6.33931 5.4998 7.72003 5.4998C9.10074 5.4998 10.2203 6.61934 10.2203 8C10.2203 9.38066 9.10074 10.5002 7.72003 10.5002C6.33931 10.5002 5.22033 9.38066 5.22033 8M3.86871 8C3.86871 10.127 5.59294 11.8512 7.72003 11.8512C9.84711 11.8512 11.5713 10.127 11.5713 8C11.5713 5.873 9.84711 4.14884 7.72003 4.14884C5.59294 4.14884 3.86877 5.87288 3.86877 8M10.8238 3.99614C10.8238 4.17414 10.8765 4.34817 10.9753 4.49621C11.0742 4.64426 11.2147 4.75967 11.3791 4.82785C11.5435 4.89604 11.7245 4.91393 11.8991 4.87928C12.0737 4.84462 12.2341 4.75897 12.36 4.63315C12.486 4.50733 12.5717 4.347 12.6065 4.17243C12.6413 3.99787 12.6236 3.8169 12.5555 3.65242C12.4875 3.48794 12.3722 3.34733 12.2242 3.24838C12.0762 3.14942 11.9022 3.09657 11.7242 3.0965H11.7239C11.4853 3.09661 11.2565 3.19142 11.0877 3.3601C10.9189 3.52878 10.824 3.75754 10.8238 3.99614M4.68991 14.1049C3.95866 14.0716 3.5612 13.9498 3.29707 13.8469C2.9469 13.7106 2.69705 13.5482 2.43436 13.2859C2.17166 13.0236 2.00906 12.774 1.87333 12.4238C1.77037 12.1598 1.64856 11.7622 1.61532 11.031C1.57896 10.2405 1.5717 10.003 1.5717 8.00012C1.5717 5.99726 1.57956 5.76044 1.61532 4.96922C1.64862 4.238 1.77133 3.84122 1.87333 3.57644C2.00966 3.22628 2.17202 2.97644 2.43436 2.71376C2.69669 2.45108 2.9463 2.28848 3.29707 2.15276C3.56108 2.0498 3.95866 1.928 4.68991 1.89476C5.4805 1.8584 5.71799 1.85114 7.72003 1.85114C9.72207 1.85114 9.9598 1.85888 10.751 1.89488C11.4823 1.92818 11.8791 2.05088 12.1439 2.15288C12.4941 2.2886 12.7439 2.45156 13.0066 2.71388C13.2693 2.9762 13.4313 3.2264 13.5676 3.57656C13.6706 3.84056 13.7924 4.23812 13.8256 4.96934C13.862 5.76056 13.8693 5.99738 13.8693 8.00024C13.8693 10.0031 13.862 10.2399 13.8256 11.0311C13.7923 11.7624 13.6699 12.1598 13.5676 12.4239C13.4313 12.7741 13.2689 13.0239 13.0066 13.286C12.7443 13.5481 12.4941 13.7107 12.1439 13.847C11.8799 13.95 11.4823 14.0718 10.751 14.105C9.96046 14.1414 9.72297 14.1486 7.72003 14.1486C5.71709 14.1486 5.48026 14.1414 4.68991 14.105M4.6278 0.54542C3.82935 0.58178 3.28375 0.70838 2.80727 0.89378C2.31411 1.08524 1.89607 1.3421 1.47864 1.75886C1.0612 2.17562 0.80499 2.5937 0.613522 3.08744C0.428115 3.5642 0.30151 4.10948 0.265148 4.9079C0.228187 5.70758 0.219727 5.96324 0.219727 8C0.219727 10.0368 0.228187 10.2924 0.265148 11.0921C0.30151 11.8906 0.428115 12.4358 0.613522 12.9126C0.80499 13.4057 1.06126 13.8246 1.47864 14.2411C1.89601 14.6577 2.31351 14.9142 2.80727 15.1062C3.28465 15.2916 3.82935 15.4182 4.6278 15.4546C5.42794 15.4909 5.68319 15.5 7.72003 15.5C9.75687 15.5 10.0125 15.4915 10.8123 15.4546C11.6108 15.4182 12.156 15.2916 12.6328 15.1062C13.1259 14.9142 13.544 14.6579 13.9614 14.2411C14.3789 13.8244 14.6345 13.4057 14.8265 12.9126C15.0119 12.4358 15.1391 11.8905 15.1749 11.0921C15.2113 10.2918 15.2197 10.0368 15.2197 8C15.2197 5.96324 15.2113 5.70758 15.1749 4.9079C15.1385 4.10942 15.0119 3.5639 14.8265 3.08744C14.6345 2.5943 14.3782 2.17628 13.9614 1.75886C13.5446 1.34144 13.1259 1.08524 12.6334 0.89378C12.156 0.70838 11.6107 0.58118 10.8129 0.54542C10.013 0.50888 9.75747 0.5 7.72093 0.5C5.68439 0.5 5.42824 0.50846 4.6281 0.54542" fill="white"/>
</svg>
