<svg xmlns="http://www.w3.org/2000/svg" viewBox="0 0 31.5 31.5"><defs><style>.cls-1{fill:#fff;}</style></defs><g id="Layer_2" data-name="Layer 2"><g id="Layer_1-2" data-name="Layer 1"><path class="cls-1" d="M19,7.25H12.28a5.12,5.12,0,0,0-5.12,5.12v6.76a5.12,5.12,0,0,0,5.12,5.12H19a5.12,5.12,0,0,0,5.12-5.12V12.37A5.12,5.12,0,0,0,19,7.25Zm3.51,11.88A3.52,3.52,0,0,1,19,22.65H12.28a3.52,3.52,0,0,1-3.52-3.52V12.37a3.52,3.52,0,0,1,3.52-3.52H19a3.52,3.52,0,0,1,3.51,3.52Z"/><path class="cls-1" d="M20.13,10.38a1,1,0,1,0,1,1A1,1,0,0,0,20.13,10.38Z"/><path class="cls-1" d="M15.68,11.66a4.2,4.2,0,1,0,4.2,4.2A4.2,4.2,0,0,0,15.68,11.66Zm0,6.89a2.69,2.69,0,1,1,2.69-2.69A2.69,2.69,0,0,1,15.68,18.55Z"/><path class="cls-1" d="M21.8,31.5H9.7A9.71,9.71,0,0,1,0,21.8V9.7A9.71,9.71,0,0,1,9.7,0H21.8a9.71,9.71,0,0,1,9.7,9.7V21.8A9.71,9.71,0,0,1,21.8,31.5ZM9.7,1.5A8.21,8.21,0,0,0,1.5,9.7V21.8A8.21,8.21,0,0,0,9.7,30H21.8A8.21,8.21,0,0,0,30,21.8V9.7a8.21,8.21,0,0,0-8.2-8.2Z"/></g></g></svg>