<svg width="36" height="36" viewBox="0 0 36 36" fill="none" xmlns="http://www.w3.org/2000/svg">
<g clip-path="url(#clip0_250_2709)">
<path d="M9.12866 35.8727C6.98773 35.7753 5.82471 35.419 5.05115 35.1173C4.02615 34.7182 3.29539 34.2432 2.52611 33.475C1.75683 32.7067 1.28071 31.976 0.883764 30.951C0.582043 30.1774 0.225756 29.0144 0.128392 26.8735C0.0213986 24.5592 0 23.8648 0 18.0016C0 12.1384 0.0235385 11.4451 0.127322 9.12866C0.224686 6.98773 0.583113 5.82685 0.882694 5.05115C1.28178 4.02615 1.7579 3.29539 2.52504 2.52504C3.29325 1.75683 4.02401 1.27964 5.05008 0.882694C5.82364 0.580973 6.98666 0.224686 9.12759 0.127322C11.4429 0.0213986 12.1384 0 17.9995 0C23.8627 0 24.556 0.0235385 26.8724 0.127322C29.0133 0.224686 30.1742 0.583113 30.9499 0.882694C31.9749 1.27964 32.7057 1.75683 33.475 2.52504C34.2442 3.29325 34.7182 4.02508 35.1173 5.05008C35.419 5.82364 35.7753 6.98666 35.8727 9.12759C35.9786 11.444 36 12.1373 36 18.0005C36 23.8616 35.9786 24.5571 35.8727 26.8735C35.7753 29.0144 35.4169 30.1774 35.1173 30.951C34.7182 31.976 34.2432 32.7067 33.475 33.475C32.7067 34.2432 31.9749 34.7182 30.9499 35.1173C30.1764 35.419 29.0133 35.7753 26.8724 35.8727C24.5581 35.9786 23.8627 36 17.9995 36C12.1384 36 11.4429 35.9797 9.12866 35.8727Z" fill="url(#paint0_radial_250_2709)"/>
<path d="M13.5801 18.0768C13.5801 15.6148 15.5755 13.6184 18.0375 13.6184C20.4995 13.6184 22.4959 15.6148 22.4959 18.0768C22.4959 20.5388 20.4995 22.5352 18.0375 22.5352C15.5755 22.5352 13.5801 20.5388 13.5801 18.0768ZM11.17 18.0768C11.17 21.8697 14.2446 24.9443 18.0375 24.9443C21.8304 24.9443 24.9049 21.8697 24.9049 18.0768C24.9049 14.2839 21.8304 11.2093 18.0375 11.2093C14.2446 11.2093 11.1701 14.2837 11.1701 18.0768M23.572 10.937C23.5719 11.2544 23.6659 11.5648 23.8421 11.8288C24.0184 12.0928 24.269 12.2986 24.5622 12.4202C24.8554 12.5417 25.178 12.5737 25.4894 12.5118C25.8007 12.45 26.0868 12.2973 26.3113 12.073C26.5358 11.8486 26.6888 11.5627 26.7509 11.2514C26.8129 10.9401 26.7812 10.6174 26.6599 10.3241C26.5385 10.0308 26.3329 9.78005 26.0691 9.6036C25.8052 9.42714 25.495 9.33289 25.1776 9.33277H25.1769C24.7514 9.33297 24.3434 9.50203 24.0425 9.80282C23.7416 10.1036 23.5724 10.5116 23.572 10.937ZM12.6343 28.9631C11.3304 28.9037 10.6217 28.6866 10.1507 28.5031C9.52628 28.26 9.08076 27.9704 8.61234 27.5027C8.14393 27.0349 7.85397 26.5898 7.61196 25.9654C7.42835 25.4946 7.21116 24.7857 7.15188 23.4818C7.08705 22.072 7.0741 21.6485 7.0741 18.077C7.0741 14.5055 7.08812 14.0832 7.15188 12.6722C7.21127 11.3683 7.43007 10.6608 7.61196 10.1886C7.85504 9.56419 8.14457 9.11867 8.61234 8.65026C9.08012 8.18184 9.52521 7.89189 10.1507 7.64987C10.6215 7.46627 11.3304 7.24907 12.6343 7.1898C14.0441 7.12496 14.4675 7.11202 18.0375 7.11202C21.6074 7.11202 22.0313 7.12582 23.4422 7.19001C24.7462 7.2494 25.4537 7.4682 25.9259 7.65009C26.5503 7.8921 26.9958 8.1827 27.4642 8.65047C27.9326 9.11825 28.2215 9.56441 28.4646 10.1888C28.6482 10.6596 28.8654 11.3685 28.9247 12.6725C28.9895 14.0834 29.0025 14.5057 29.0025 18.0772C29.0025 21.6488 28.9895 22.0711 28.9247 23.482C28.8653 24.7859 28.647 25.4946 28.4646 25.9656C28.2215 26.59 27.932 27.0355 27.4642 27.5029C26.9964 27.9702 26.5503 28.2602 25.9259 28.5033C25.4551 28.6869 24.7462 28.9041 23.4422 28.9633C22.0325 29.0282 21.609 29.0411 18.0375 29.0411C14.4659 29.0411 14.0436 29.0282 12.6343 28.9633M12.5236 4.78363C11.0998 4.84847 10.1269 5.07422 9.2773 5.40483C8.39793 5.74625 7.65251 6.20429 6.90815 6.94746C6.1638 7.69064 5.70694 8.43616 5.36553 9.31661C5.03492 10.1668 4.80916 11.1391 4.74432 12.5629C4.67842 13.9889 4.66333 14.4448 4.66333 18.0768C4.66333 21.7088 4.67842 22.1647 4.74432 23.5907C4.80916 25.0145 5.03492 25.9868 5.36553 26.837C5.70694 27.7163 6.16391 28.4633 6.90815 29.2061C7.6524 29.949 8.39686 30.4064 9.2773 30.7487C10.1285 31.0793 11.0998 31.3051 12.5236 31.3699C13.9503 31.4348 14.4055 31.4509 18.0375 31.4509C21.6695 31.4509 22.1254 31.4358 23.5514 31.3699C24.9752 31.3051 25.9475 31.0793 26.7977 30.7487C27.677 30.4064 28.4225 29.9493 29.1668 29.2061C29.9112 28.4629 30.3671 27.7163 30.7094 26.837C31.04 25.9868 31.2669 25.0144 31.3306 23.5907C31.3955 22.1636 31.4106 21.7088 31.4106 18.0768C31.4106 14.4448 31.3955 13.9889 31.3306 12.5629C31.2658 11.139 31.04 10.1662 30.7094 9.31661C30.3671 8.43723 29.91 7.69181 29.1668 6.94746C28.4236 6.20311 27.677 5.74625 26.7987 5.40483C25.9475 5.07422 24.9751 4.8474 23.5524 4.78363C22.1262 4.71847 21.6705 4.70264 18.0391 4.70264C14.4076 4.70264 13.9509 4.71772 12.5241 4.78363" fill="white"/>
</g>
<defs>
<radialGradient id="paint0_radial_250_2709" cx="0" cy="0" r="1" gradientUnits="userSpaceOnUse" gradientTransform="translate(2.32988 35.2114) scale(45.7066)">
<stop offset="0.09" stop-color="#FA8F21"/>
<stop offset="0.78" stop-color="#D82D7E"/>
</radialGradient>
<clipPath id="clip0_250_2709">
<rect width="36" height="36" fill="white"/>
</clipPath>
</defs>
</svg>
