<svg width="595" height="521" viewBox="0 0 595 521" fill="none" xmlns="http://www.w3.org/2000/svg">
<path d="M61.589 519.798C61.589 519.798 -91.1728 368.203 84.4758 256.493C260.124 144.782 187.882 147.304 199.849 76.5243C211.815 5.74433 354.717 -43.3026 406.111 56.3072C457.506 155.917 408.204 207.124 504.621 266.93C601.038 326.736 623.254 453.727 556.633 519.784L61.589 519.798Z" fill="#F7A31C"/>
<path opacity="0.7" d="M61.589 519.798C61.589 519.798 -91.1728 368.203 84.4758 256.493C260.124 144.782 187.882 147.304 199.849 76.5243C211.815 5.74433 354.717 -43.3026 406.111 56.3072C457.506 155.917 408.204 207.124 504.621 266.93C601.038 326.736 623.254 453.727 556.633 519.784L61.589 519.798Z" fill="white"/>
<path d="M321.617 111.954H261.247V63.4707" stroke="#263238" stroke-linecap="round" stroke-linejoin="round"/>
<path d="M272.062 103.14H267.232V111.954H272.062V103.14Z" stroke="#263238" stroke-linecap="round" stroke-linejoin="round"/>
<path d="M282.099 100.347H277.27V111.951H282.099V100.347Z" stroke="#263238" stroke-linecap="round" stroke-linejoin="round"/>
<path d="M292.131 95.6924H287.302V111.952H292.131V95.6924Z" stroke="#263238" stroke-linecap="round" stroke-linejoin="round"/>
<path d="M302.18 91.0391H297.351V111.954H302.18V91.0391Z" stroke="#263238" stroke-linecap="round" stroke-linejoin="round"/>
<path d="M312.217 84.4639H307.388V111.952H312.217V84.4639Z" stroke="#263238" stroke-linecap="round" stroke-linejoin="round"/>
<path d="M261.247 103.446C261.247 103.446 299.951 95.1953 318.464 70.6719" stroke="#263238" stroke-linecap="round" stroke-linejoin="round"/>
<path d="M316.036 69.909L319.792 68.876V73.0079" stroke="#263238" stroke-linecap="round" stroke-linejoin="round"/>
<path d="M307.412 39.4013C305.695 39.0525 303.964 38.7574 302.207 38.5293" stroke="#263238" stroke-linecap="round" stroke-linejoin="round"/>
<path d="M322.73 139.038C337.085 146.417 356.94 146.994 356.94 146.994C346.945 140.139 340.077 130.077 336.602 124.094C347.214 114.944 353.76 102.508 353.76 88.7842C353.76 67.5878 338.185 49.4232 316.036 41.8301" stroke="#263238" stroke-linecap="round" stroke-linejoin="round"/>
<path d="M292.655 139.658C300.963 139.674 309.211 138.249 317.031 135.445" stroke="#263238" stroke-linecap="round" stroke-linejoin="round"/>
<path d="M238.174 111.951C246.854 126.037 263.207 136.327 282.646 138.97" stroke="#263238" stroke-linecap="round" stroke-linejoin="round"/>
<path d="M231.48 88.7832C231.482 91.4843 231.738 94.1793 232.245 96.8325" stroke="#263238" stroke-linecap="round" stroke-linejoin="round"/>
<path d="M292.657 37.9131C265.517 37.9131 242.496 52.6701 234.527 73.0079" stroke="#263238" stroke-linecap="round" stroke-linejoin="round"/>
<path d="M398.522 173.559C398.522 173.559 372.751 181.152 366.942 193.494C361.133 205.836 349.502 240.314 349.502 240.314C349.502 240.314 338.608 259.552 338.608 265.361C338.608 271.169 354.707 292.715 361.978 298.524C369.249 304.332 396.389 266.085 396.389 266.085L398.522 173.559Z" fill="white" stroke="#263238" stroke-linecap="round" stroke-linejoin="round"/>
<path d="M515.018 345.116C515.354 345.412 516.36 358.317 516.36 358.317C516.36 358.317 523.242 371.907 523.161 392.701C523.081 413.495 529.775 520 529.775 520H365.101C365.101 520 376.544 440.151 392.777 399.744C392.777 399.744 393.273 366.581 402.167 357.338C402.167 357.338 398.304 343.735 406.192 342.058C414.08 340.381 515.018 345.116 515.018 345.116Z" fill="#999999"/>
<path opacity="0.2" d="M529.775 519.998H365.101C365.101 519.998 376.544 440.149 392.777 399.741C392.777 399.741 392.871 393.436 393.716 385.548C401.295 389.197 411.29 394.456 414.08 398.064C418.762 404.101 402.141 412.915 402.141 412.915C403.647 414.547 405.505 415.815 407.573 416.624C409.642 417.432 411.867 417.761 414.08 417.584C421.446 416.846 450.423 410.232 450.423 410.232C450.423 410.232 439.597 416.846 440.911 421.541C442.226 426.237 454.126 441.531 460.592 445.287C467.058 449.043 447.445 441.531 447.445 441.531C447.445 441.531 469.741 477.564 483.157 484.769C496.572 491.973 523.98 469.676 520.049 467.825C516.118 465.973 500.181 444.281 503.079 440.632C504.742 438.525 514.602 444.066 525.469 446.83C527.428 481.898 529.775 519.998 529.775 519.998Z" fill="black"/>
<path d="M515.018 345.116C515.354 345.412 516.36 358.317 516.36 358.317C516.36 358.317 523.242 371.907 523.161 392.701C523.081 413.495 529.775 520 529.775 520H365.101C365.101 520 376.544 440.151 392.777 399.744C392.777 399.744 393.273 366.581 402.167 357.338C402.167 357.338 398.304 343.735 406.192 342.058C414.08 340.381 515.018 345.116 515.018 345.116Z" stroke="#263238" stroke-linecap="round" stroke-linejoin="round"/>
<path d="M405.684 345.599C405.113 349.441 405.113 353.347 405.684 357.19C417.89 365.35 432.062 370.085 446.722 370.9C470.414 371.906 504.194 365.534 513.464 360.168V347.423L405.684 345.599Z" fill="#263238"/>
<path d="M420.779 352.546C420.779 352.546 418.767 363.184 420.779 367.209C422.791 371.234 440.983 372.334 440.983 372.334L440.406 357.188L420.779 352.546Z" fill="#BFBFBF" stroke="#263238" stroke-linecap="round" stroke-linejoin="round"/>
<path d="M483.156 374.331C482.704 368.551 481.779 362.817 480.393 357.187L474.771 357.334C474.771 357.334 477.79 367.704 476.113 374.331" fill="#999999"/>
<path d="M483.156 374.331C482.704 368.551 481.779 362.817 480.393 357.187L474.771 357.334C474.771 357.334 477.79 367.704 476.113 374.331" stroke="#263238" stroke-linecap="round" stroke-linejoin="round"/>
<path opacity="0.2" d="M397.109 235.176L396.411 266.032C390.838 273.812 384.822 281.265 378.394 288.355C378.059 284.331 377.657 279.568 377.174 274.148C374.933 249.102 383.439 228.978 382.929 227.489L397.109 235.176Z" fill="#F7A31C"/>
<path d="M386.701 178.051C392.01 175.544 397.441 173.306 402.974 171.343C403.672 169.519 402.008 164.072 418.804 155.365C435.6 146.659 459.856 152.105 459.856 152.105L469.246 163.723C469.246 163.723 501.913 176.723 509.493 183.283C517.072 189.843 523.431 343.53 517.126 349.031C499.123 364.727 422.789 366.873 402.089 346.079C397.608 341.599 394.589 309.16 385.99 261.025C385.99 261.025 369.637 223.462 370.522 202.91" fill="white"/>
<path d="M386.701 178.051C392.01 175.544 397.441 173.306 402.974 171.343C403.672 169.519 402.008 164.072 418.804 155.365C435.6 146.659 459.856 152.105 459.856 152.105L469.246 163.723C469.246 163.723 501.913 176.723 509.493 183.283C517.072 189.843 523.431 343.53 517.126 349.031C499.123 364.727 422.789 366.873 402.089 346.079C397.608 341.599 394.589 309.16 385.99 261.025C385.99 261.025 369.637 223.462 370.522 202.91" stroke="#263238" stroke-linecap="round" stroke-linejoin="round"/>
<path opacity="0.2" d="M468.751 166.151C468.751 166.151 470.549 182.25 453.994 192.982C453.994 192.982 446.388 188.112 441.022 187.616C435.655 187.12 433.804 188.958 433.804 188.958C433.804 188.958 432.677 182.652 435.253 178.507C437.829 174.362 442.873 177.555 451.164 188.958C451.217 188.958 465.236 182.076 468.751 166.151Z" fill="#F7A31C"/>
<path opacity="0.2" d="M417.582 183.297C417.582 183.297 411.049 183.592 407.776 188.958C404.502 194.325 403.51 196.337 403.51 196.337C403.51 196.337 398.251 191.132 402.168 175.033C401.735 179.681 401.943 184.367 402.785 188.958C402.785 188.958 406.166 176.509 407.803 176.348C409.439 176.187 412.699 177.153 417.582 183.297Z" fill="#F7A31C"/>
<path d="M407.778 147.667C410.495 150.609 412.432 154.185 413.413 158.067C414.395 161.95 414.39 166.016 413.399 169.896L425.165 188.959L432.409 172.083C432.409 172.083 449.192 167.723 454.088 156.293C447.003 143.036 444.289 127.879 446.334 112.988C449.621 87.7129 407.778 147.667 407.778 147.667Z" fill="#BFBFBF" stroke="#263238" stroke-linecap="round" stroke-linejoin="round"/>
<path d="M447.382 124.712C452.574 85.9683 440.969 70.5137 410.503 72.687C380.036 74.8603 379.54 108.909 386.811 123.357C389.253 128.214 388.461 138.839 403.607 155.823C409.416 162.342 424.669 157.432 435.59 146.673" fill="#BFBFBF"/>
<path d="M447.382 124.712C452.574 85.9683 440.969 70.5137 410.503 72.687C380.036 74.8603 379.54 108.909 386.811 123.357C389.253 128.214 388.461 138.839 403.607 155.823C409.416 162.342 424.669 157.432 435.59 146.673" stroke="#263238" stroke-linecap="round" stroke-linejoin="round"/>
<path d="M402.062 115.346C402.062 115.346 405.054 110.047 413.224 115.346" stroke="#263238" stroke-linecap="round" stroke-linejoin="round"/>
<path d="M389.813 115.348C389.813 115.348 385.386 111.686 384.058 115.348" stroke="#263238" stroke-linecap="round" stroke-linejoin="round"/>
<path d="M409.267 123.344C409.616 124.685 409.267 125.92 408.408 126.134C407.55 126.349 406.637 125.45 406.302 124.122C405.967 122.794 406.302 121.546 407.161 121.331C408.019 121.117 408.931 122.016 409.267 123.344Z" fill="#263238"/>
<path d="M392.837 123.344C393.185 124.685 392.836 125.92 391.978 126.134C391.119 126.349 390.207 125.45 389.858 124.122C389.509 122.794 389.858 121.546 390.73 121.331C391.602 121.117 392.501 122.016 392.837 123.344Z" fill="#263238"/>
<path d="M393.514 118.312C396.882 122.941 393.769 128.777 392.669 133.284C391.569 137.792 398.384 137.51 400.289 135.967" stroke="#263238" stroke-linecap="round" stroke-linejoin="round"/>
<path d="M430.902 121.291C430.902 121.291 428.045 112.236 434.176 107.755C440.307 103.274 439.891 130.293 439.891 130.293L445.74 133.566C445.74 133.566 454.178 111.243 450.1 94.9031C446.022 78.5631 429.494 66.9855 406.688 73.1566C376.087 81.4206 382.969 106.481 382.969 106.481C382.969 106.481 384.311 99.3973 385.759 99.7729C387.208 100.149 392.065 104.804 415.797 96.6337C415.797 96.6337 418.48 98.9546 417.876 104.683C417.272 110.411 427.455 115.509 429.038 125.048L430.902 121.291Z" fill="#999999"/>
<path opacity="0.4" d="M430.902 121.291C430.902 121.291 428.045 112.236 434.176 107.755C440.307 103.274 439.891 130.293 439.891 130.293L445.74 133.566C445.74 133.566 454.178 111.243 450.1 94.9031C446.022 78.5631 429.494 66.9855 406.688 73.1566C376.087 81.4206 382.969 106.481 382.969 106.481C382.969 106.481 384.311 99.3973 385.759 99.7729C387.208 100.149 392.065 104.804 415.797 96.6337C415.797 96.6337 418.48 98.9546 417.876 104.683C417.272 110.411 427.455 115.509 429.038 125.048L430.902 121.291Z" fill="black"/>
<path d="M430.902 121.291C430.902 121.291 428.045 112.236 434.176 107.755C440.307 103.274 439.891 130.293 439.891 130.293L445.74 133.566C445.74 133.566 454.178 111.243 450.1 94.9031C446.022 78.5631 429.494 66.9855 406.688 73.1566C376.087 81.4206 382.969 106.481 382.969 106.481C382.969 106.481 384.311 99.3973 385.759 99.7729C387.208 100.149 392.065 104.804 415.797 96.6337C415.797 96.6337 418.48 98.9546 417.876 104.683C417.272 110.411 427.455 115.509 429.038 125.048L430.902 121.291Z" stroke="#263238" stroke-linecap="round" stroke-linejoin="round"/>
<path d="M391.451 137.55C393.465 138.31 395.643 138.532 397.769 138.194L399.111 139.683L400.332 138.342C400.332 138.342 407.817 139.321 411.493 138.342C415.169 137.362 418.979 139.683 420.884 139.683C420.884 139.683 429.041 129.89 428.236 124.846C427.957 122.637 427.508 120.453 426.894 118.312C426.894 118.313 428.437 119.721 429.255 119.453C429.526 119.394 429.772 119.253 429.96 119.049C430.147 118.845 430.267 118.587 430.302 118.312C430.302 118.312 438.23 134.411 438.056 147.451C438.056 147.451 428.987 162.516 416.967 163.375C403.484 164.328 396.481 159.082 396.481 159.082C395.097 154.85 394.698 150.358 395.314 145.948C394.383 144.989 393.305 144.183 392.121 143.56C391.601 141.601 391.375 139.576 391.451 137.55V137.55Z" fill="#263238"/>
<path d="M385.724 99.8124C383.749 98.8017 382.148 97.1873 381.154 95.204C380.16 93.2207 379.824 90.972 380.197 88.7849C381.458 80.9771 387.266 78.2538 391.439 75.9061C391.439 75.9061 399.944 68.6349 415.761 67.7361C434.811 66.6494 453.324 76.6305 448.978 91.3473C448.978 91.3473 422.147 79.9039 415.761 96.7134C415.761 96.6732 397.301 107.379 385.724 99.8124Z" fill="#263238"/>
<path d="M432.369 112.986C432.369 112.986 438.352 101.489 442.35 105.299C446.348 109.109 445.248 114.69 443.893 120.056C442.538 125.422 442.069 124.51 439.533 126.952C436.997 129.393 434.301 131.875 433.362 129.219C432.799 127.694 432.632 126.05 432.879 124.443" fill="#BFBFBF"/>
<path d="M432.369 112.986C432.369 112.986 438.352 101.489 442.35 105.299C446.348 109.109 445.248 114.69 443.893 120.056C442.538 125.422 442.069 124.51 439.533 126.952C436.997 129.393 434.301 131.875 433.362 129.219C432.799 127.694 432.632 126.05 432.879 124.443" stroke="#263238" stroke-linecap="round" stroke-linejoin="round"/>
<path d="M413.961 146.365C403.228 146.633 399.713 145.023 399.713 145.023C399.585 145.216 399.405 145.367 399.193 145.46C398.982 145.553 398.748 145.583 398.52 145.547L400.29 149.209C400.29 149.209 402.061 150.309 406.649 150.309C410.526 150.309 413.961 146.365 413.961 146.365Z" fill="white"/>
<path opacity="0.2" d="M404.786 96.9544C404.786 96.9544 400.426 88.2344 411.856 82.9353C423.286 77.6362 441.799 79.6619 446.294 85.6184" stroke="white" stroke-linecap="round" stroke-linejoin="round"/>
<path opacity="0.2" d="M392.966 98.5778C392.966 98.5778 380.409 98.0412 389.733 85.7929C399.057 73.5446 418.804 69.6943 418.804 69.6943" stroke="white" stroke-linecap="round" stroke-linejoin="round"/>
<path d="M469.288 163.737C468.239 168.983 466.085 173.945 462.969 178.294C459.853 182.643 455.848 186.278 451.218 188.958C451.218 188.958 442.551 176.053 437.99 176.348C435.763 176.482 432.369 183.297 432.369 183.297" stroke="#263238" stroke-linecap="round" stroke-linejoin="round"/>
<path d="M402.977 171.344C401.421 177.515 402.508 189.777 402.508 189.777C402.508 189.777 406.277 177.542 407.78 176.361C410.463 174.188 418.807 184.799 418.807 184.799" stroke="#263238" stroke-linecap="round" stroke-linejoin="round"/>
<path d="M425.126 188.96L418.767 193.132C418.767 193.132 425.93 201.114 425.085 208.372C424.24 215.63 426.816 231.608 426.816 231.608" stroke="#263238" stroke-linecap="round" stroke-linejoin="round"/>
<path d="M364.363 262.313C368.702 270.84 370.437 280.455 369.354 289.962C369.354 289.962 359.963 302.975 352.759 304.92C335.238 309.642 324.68 270.697 303.631 218.404C302.29 215.05 314.243 197.328 314.243 197.328L349.002 251.406C352.252 251.851 355.346 253.076 358.021 254.975C360.695 256.874 362.871 259.391 364.363 262.313V262.313Z" fill="#BFBFBF" stroke="#263238" stroke-linecap="round" stroke-linejoin="round"/>
<path d="M312.783 201.261L303.861 189.187C303.861 189.187 290.446 181.487 288.957 186.088C286.77 192.984 275.77 195.023 275.77 195.023C276.735 198.551 287.481 214.274 293.572 217.829C299.662 221.384 300.28 222.431 302.788 223.195C309.161 224.899 310.677 220.324 310.677 220.324" fill="#BFBFBF"/>
<path d="M312.783 201.261L303.861 189.187C303.861 189.187 290.446 181.487 288.957 186.088C286.77 192.984 275.77 195.023 275.77 195.023C276.735 198.551 287.481 214.274 293.572 217.829C299.662 221.384 300.28 222.431 302.788 223.195C309.161 224.899 310.677 220.324 310.677 220.324" stroke="#263238" stroke-linecap="round" stroke-linejoin="round"/>
<path d="M241.785 253.836C241.785 253.836 192.779 208.304 253.645 191.857C314.51 175.409 298.506 235.645 298.506 235.645L294.481 236.342C294.481 236.342 310.432 182.439 255.711 196.498C200.989 210.558 244.053 251.086 244.053 251.086L241.785 253.836Z" fill="#757575" stroke="#263238" stroke-linecap="round" stroke-linejoin="round"/>
<path d="M306.918 209.497C296.628 204.479 300.21 195.29 290.202 189.494C287.519 187.938 278.813 188.891 276.062 186.959C271.93 184.074 273.379 182.089 273.487 181.74C273.621 180.949 276.519 183.524 286.392 180.734C290.336 179.62 301.149 183.001 304.53 185.953C312.472 192.848 319.381 200.978 318.63 207.337C318.2 210.999 314.122 212.475 314.122 212.475" fill="#BFBFBF"/>
<path d="M306.918 209.497C296.628 204.479 300.21 195.29 290.202 189.494C287.519 187.938 278.813 188.891 276.062 186.959C271.93 184.074 273.379 182.089 273.487 181.74C273.621 180.949 276.519 183.524 286.392 180.734C290.336 179.62 301.149 183.001 304.53 185.953C312.472 192.848 319.381 200.978 318.63 207.337C318.2 210.999 314.122 212.475 314.122 212.475" stroke="#263238" stroke-linecap="round" stroke-linejoin="round"/>
<path d="M277.405 193.935C277.405 193.935 286.031 191.829 288.781 191.856C292.564 191.856 293.758 192.419 294.657 194.029C294.898 194.603 295.009 195.223 294.981 195.845C294.953 196.467 294.787 197.074 294.496 197.624C295.883 198.283 296.984 199.422 297.595 200.831C297.892 202.359 297.579 203.944 296.723 205.244C298.218 205.686 299.573 206.509 300.654 207.632C301.19 208.153 301.51 208.856 301.55 209.603C301.59 210.349 301.346 211.083 300.868 211.657C300.868 211.657 305.725 214.984 303.028 217.023C300.332 219.062 292.966 222 289.613 221.678C286.259 221.356 265.237 195.8 277.405 193.935Z" fill="#BFBFBF" stroke="#263238" stroke-linecap="round" stroke-linejoin="round"/>
<path d="M294.501 197.625C294.501 197.625 280.79 201.824 277.061 201.73" stroke="#263238" stroke-linecap="round" stroke-linejoin="round"/>
<path d="M296.681 205.242C296.681 205.242 285.01 209.441 282.608 209.911" stroke="#263238" stroke-linecap="round" stroke-linejoin="round"/>
<path d="M300.873 211.59C296.688 213.344 292.395 214.832 288.021 216.044" stroke="#263238" stroke-linecap="round" stroke-linejoin="round"/>
<path d="M240.876 246.898C240.876 246.898 255.901 221.194 293.196 225.796L323.851 289.6C323.851 289.6 304.613 326.09 250.186 317.45L240.876 246.898Z" fill="#757575" stroke="#263238" stroke-linecap="round" stroke-linejoin="round"/>
<path d="M255.308 297.92C255.308 297.92 222.507 273.585 200.305 298.376L210.393 305.929C210.393 305.929 220.736 284.183 255.67 311.027" fill="#757575"/>
<path d="M255.308 297.92C255.308 297.92 222.507 273.585 200.305 298.376L210.393 305.929C210.393 305.929 220.736 284.183 255.67 311.027" stroke="#263238" stroke-linecap="round" stroke-linejoin="round"/>
<path d="M244.004 247.167C244.004 247.167 279.38 250.655 290.341 227.54Z" fill="#757575"/>
<path d="M244.004 247.167C244.004 247.167 279.38 250.655 290.341 227.54" stroke="#263238" stroke-linecap="round" stroke-linejoin="round"/>
<path d="M181.619 300.549C181.619 300.549 195.544 290.769 207.887 297.973C211.344 299.941 214.105 302.934 215.787 306.539C217.469 310.144 217.99 314.182 217.277 318.096C217.277 318.096 198.751 319.545 181.619 300.549Z" fill="#757575" stroke="#263238" stroke-linecap="round" stroke-linejoin="round"/>
<path d="M188.437 300.603C188.437 300.603 210.089 306.385 217.333 318.123" stroke="#263238" stroke-linecap="round" stroke-linejoin="round"/>
<path d="M271.998 230.708L269.49 220.258C269.49 220.258 255.524 219.882 250.708 227.918L256.933 236.155" fill="#757575"/>
<path d="M271.998 230.708L269.49 220.258C269.49 220.258 255.524 219.882 250.708 227.918L256.933 236.155" stroke="#263238" stroke-linecap="round" stroke-linejoin="round"/>
<path d="M271.193 232.894C268.428 234.421 265.377 235.357 262.231 235.644" stroke="#263238" stroke-linecap="round" stroke-linejoin="round"/>
<path d="M259.508 299.998C259.508 299.998 262.661 304.278 258.703 309.724" stroke="#263238" stroke-linecap="round" stroke-linejoin="round"/>
<path opacity="0.2" d="M510.889 247.355C510.889 247.355 497.917 292.082 469.301 314.432C456.235 324.641 396.429 308.167 396.429 308.167L400.306 284.985L419.892 275.701C419.892 275.701 454.558 221.436 473.34 216.056C492.121 210.677 510.889 247.355 510.889 247.355Z" fill="#F7A31C"/>
<path d="M493.985 184.424C480.18 184.813 443.891 251.314 443.891 251.314C434.058 255.043 438.74 263.656 438.74 263.656C438.74 263.656 461.801 292.902 466.161 295.397C476.893 301.568 480.771 290.768 480.771 290.768C480.771 290.768 526.088 249.596 523.002 216.071C519.917 182.546 509.587 183.297 509.587 183.297" fill="white"/>
<path d="M493.985 184.424C480.18 184.813 443.891 251.314 443.891 251.314C434.058 255.043 438.74 263.656 438.74 263.656C438.74 263.656 461.801 292.902 466.161 295.397C476.893 301.568 480.771 290.768 480.771 290.768C480.771 290.768 526.088 249.596 523.002 216.071C519.917 182.546 509.587 183.297 509.587 183.297" stroke="#263238" stroke-linecap="round" stroke-linejoin="round"/>
<path d="M441.157 261.053L427.339 275.984C397.973 273.127 344.432 295.369 328.95 287.28C319.949 282.571 298.336 287.414 295.117 289.037C291.897 290.661 285.095 299.086 287.617 300.172C290.14 301.259 295.667 296.228 298.806 296.684C301.696 296.911 304.6 296.884 307.486 296.604C307.486 296.604 293.869 309.523 290.824 310.073C287.778 310.623 272.31 317.223 277.918 318.377C285.766 319.987 288.758 319.182 288.758 319.182C288.758 319.182 295.841 324.213 301.113 324.749C303.796 325.031 318.688 322.348 318.688 322.348L332.291 309.375C332.291 309.375 422.818 314.084 438.743 307.39C459.51 298.67 466.164 291.466 466.164 291.466C466.164 291.466 457.377 265.976 441.157 261.053Z" fill="#BFBFBF" stroke="#263238" stroke-linecap="round" stroke-linejoin="round"/>
<path d="M427.968 370.578C427.659 370.511 420.965 410.14 430.436 418.525C430.436 418.525 435.91 437.454 434.89 450.467C433.871 463.48 440.981 489.962 440.981 489.962L445.73 520" stroke="#263238" stroke-linecap="round" stroke-linejoin="round"/>
<path d="M434.865 371.745C434.865 371.745 431.511 391.359 432.853 398.402C434.195 405.445 431.283 412.676 427.205 412.917" stroke="#263238" stroke-linecap="round" stroke-linejoin="round"/>
<path d="M497.418 365.76C497.418 365.76 503.509 398.426 513.517 401.123" stroke="#263238" stroke-linecap="round" stroke-linejoin="round"/>
<path d="M509.654 361.251C512.752 377.605 514.03 394.253 513.464 410.888C512.673 439.651 519.179 497.337 519.783 504.38C520.124 509.58 520.124 514.796 519.783 519.996" stroke="#263238" stroke-linecap="round" stroke-linejoin="round"/>
<path d="M455.886 408.356C453.31 409.47 421.784 418.861 415.747 426.239" stroke="#263238" stroke-linecap="round" stroke-linejoin="round"/>
<path d="M434.865 426.988C434.865 426.988 456.638 453.403 467.21 456.086" stroke="#263238" stroke-linecap="round" stroke-linejoin="round"/>
<path d="M425.379 429.593C425.379 429.593 391.934 462.461 386.045 458.731" stroke="#263238" stroke-linecap="round" stroke-linejoin="round"/>
<path d="M435.818 467.824C435.818 467.824 426.589 504.314 427.206 508.366C427.823 512.417 424.066 519.997 424.066 519.997" stroke="#263238" stroke-linecap="round" stroke-linejoin="round"/>
<path d="M426.813 324.775C426.813 324.775 428.839 335.293 426.813 341.692C424.788 348.091 427.001 357.791 429.778 358.301" stroke="#263238" stroke-linecap="round" stroke-linejoin="round"/>
<path d="M349.002 251.407C349.002 251.407 359.734 262.998 359.734 272" stroke="#263238" stroke-linecap="round" stroke-linejoin="round"/>
<path d="M213.172 324.775C213.172 324.775 212.287 327.633 211.039 332.53" stroke="#263238" stroke-linecap="round" stroke-linejoin="round"/>
<path d="M209.121 340.499C208.33 344.081 207.485 348.146 206.68 352.573" stroke="#263238" stroke-linecap="round" stroke-linejoin="round" stroke-dasharray="6.11 6.11"/>
<path d="M205.983 356.61C205.567 359.173 205.151 361.829 204.789 364.579" stroke="#263238" stroke-linecap="round" stroke-linejoin="round"/>
<path d="M194.903 317.787C194.903 317.787 193.252 320.349 190.878 324.736" stroke="#263238" stroke-linecap="round" stroke-linejoin="round"/>
<path d="M185.629 335.107C183.173 340.357 180.993 345.73 179.096 351.206" stroke="#263238" stroke-linecap="round" stroke-linejoin="round" stroke-dasharray="8.66 8.66"/>
<path d="M177.289 356.786C176.538 359.335 175.858 361.933 175.25 364.581" stroke="#263238" stroke-linecap="round" stroke-linejoin="round"/>
<path d="M181.62 306.734C179.121 307.72 176.765 309.038 174.617 310.652" stroke="#263238" stroke-linecap="round" stroke-linejoin="round"/>
<path d="M167.373 316.229C163.897 319.201 160.666 322.449 157.714 325.942" stroke="#263238" stroke-linecap="round" stroke-linejoin="round" stroke-dasharray="6.82 6.82"/>
<path d="M154.869 329.523C153.268 331.674 151.79 333.913 150.442 336.231" stroke="#263238" stroke-linecap="round" stroke-linejoin="round"/>
<path d="M443.893 251.312C453.981 252.842 468.738 271.288 471.421 278.331" stroke="#263238" stroke-linecap="round" stroke-linejoin="round"/>
<path d="M519.786 227.54C519.786 227.54 495.571 242.297 471.423 243.786" stroke="#263238" stroke-linecap="round" stroke-linejoin="round"/>
<path d="M347.662 243.788C347.662 243.788 360.112 241.266 366.444 251.408C370.355 257.749 373.188 264.694 374.828 271.96" stroke="#263238" stroke-linecap="round" stroke-linejoin="round"/>
<path d="M365.101 221.598C365.101 221.598 371.124 234.812 378.181 240.299" stroke="#263238" stroke-linecap="round" stroke-linejoin="round"/>
<path d="M426.816 259.887C427.377 265.233 427.547 270.614 427.326 275.985" stroke="#263238" stroke-linecap="round" stroke-linejoin="round"/>
<path d="M407.362 321.596C407.362 321.596 433.858 351.418 474.775 343.382" stroke="#263238" stroke-linecap="round" stroke-linejoin="round"/>
<path d="M429.052 196.834C429.039 197.128 428.94 197.412 428.767 197.65C428.594 197.888 428.355 198.07 428.08 198.174C427.804 198.277 427.505 198.298 427.218 198.232C426.931 198.167 426.669 198.019 426.466 197.806C426.263 197.594 426.126 197.326 426.073 197.037C426.02 196.747 426.054 196.448 426.169 196.178C426.285 195.907 426.477 195.676 426.722 195.514C426.968 195.352 427.256 195.265 427.55 195.265C427.957 195.275 428.343 195.446 428.624 195.74C428.906 196.034 429.06 196.427 429.052 196.834V196.834Z" fill="#263238"/>
<path d="M430.922 236.341C430.908 236.635 430.809 236.919 430.636 237.157C430.463 237.395 430.224 237.577 429.949 237.681C429.674 237.784 429.374 237.804 429.087 237.739C428.8 237.674 428.539 237.526 428.335 237.313C428.132 237.1 427.995 236.833 427.942 236.543C427.89 236.254 427.923 235.955 428.038 235.685C428.154 235.414 428.346 235.183 428.592 235.021C428.837 234.858 429.125 234.772 429.419 234.771C429.621 234.775 429.82 234.818 430.005 234.899C430.191 234.98 430.358 235.097 430.497 235.243C430.637 235.389 430.747 235.561 430.819 235.75C430.892 235.938 430.927 236.139 430.922 236.341V236.341Z" fill="#263238"/>
<path d="M10.9287 519.999H585.11" stroke="#263238" stroke-linecap="round" stroke-linejoin="round"/>
<path d="M128.342 442.941C128.342 442.941 150.008 435.334 135.895 392.525C121.782 349.717 139.839 350.656 147.888 329.003C155.937 307.351 144.051 292.688 144.051 292.688" stroke="#263238" stroke-width="3" stroke-linecap="round" stroke-linejoin="round"/>
<path d="M139.052 432.357H75.999C75.999 432.357 84.5044 496.43 86.9594 514.97C87.4022 518.337 90.0852 520.001 93.3318 520.001H180.747C183.993 520.001 186.677 518.337 187.119 514.97C189.574 496.43 198.08 432.357 198.08 432.357H139.052Z" fill="#263238"/>
<path d="M73.6613 426.991H200.411C201.204 426.991 201.965 427.306 202.526 427.867C203.087 428.428 203.402 429.189 203.402 429.982V434.718C203.402 435.511 203.087 436.272 202.526 436.833C201.965 437.394 201.204 437.71 200.411 437.71H73.6613C72.8643 437.71 72.1 437.393 71.5364 436.829C70.9729 436.266 70.6563 435.502 70.6563 434.705V429.969C70.6562 429.574 70.734 429.184 70.885 428.819C71.036 428.454 71.2574 428.123 71.5364 427.844C71.8155 427.565 72.1467 427.344 72.5113 427.193C72.8759 427.042 73.2667 426.964 73.6613 426.964V426.991Z" fill="#263238"/>
<path d="M82.7197 437.722H146.671" stroke="white" stroke-linecap="round" stroke-linejoin="round"/>
<path d="M154.721 437.722H159.644" stroke="white" stroke-linecap="round" stroke-linejoin="round"/>
<path d="M189.156 437.722H180.208" stroke="white" stroke-linecap="round" stroke-linejoin="round"/>
<path d="M87.6406 458.731H112.687" stroke="white" stroke-linecap="round" stroke-linejoin="round"/>
<path d="M126.991 458.731H133.699" stroke="white" stroke-linecap="round" stroke-linejoin="round"/>
<path d="M187.356 458.731H163.208" stroke="white" stroke-linecap="round" stroke-linejoin="round"/>
<path d="M184.675 476.17H180.208" stroke="white" stroke-linecap="round" stroke-linejoin="round"/>
<path d="M112.688 476.173H103.297" stroke="white" stroke-linecap="round" stroke-linejoin="round"/>
<path d="M157.173 493.168H172.601" stroke="white" stroke-linecap="round" stroke-linejoin="round"/>
<path d="M121.178 493.168H97.0303" stroke="white" stroke-linecap="round" stroke-linejoin="round"/>
<path d="M92.1084 508.367H100.158" stroke="white" stroke-linecap="round" stroke-linejoin="round"/>
<path d="M112.686 508.367H159.64" stroke="white" stroke-linecap="round" stroke-linejoin="round"/>
<path d="M182.445 508.367H175.281" stroke="white" stroke-linecap="round" stroke-linejoin="round"/>
<path d="M160.073 473.487C160.075 478.043 158.727 482.498 156.197 486.288C153.668 490.077 150.071 493.032 145.862 494.777C141.654 496.523 137.022 496.981 132.553 496.094C128.084 495.206 123.978 493.014 120.755 489.793C117.533 486.572 115.337 482.467 114.447 477.999C113.558 473.53 114.013 468.898 115.756 464.688C117.499 460.479 120.451 456.88 124.24 454.349C128.028 451.817 132.482 450.466 137.038 450.466C143.145 450.466 149.002 452.891 153.321 457.208C157.641 461.525 160.069 467.38 160.073 473.487V473.487Z" fill="#F7A31C" stroke="#263238" stroke-linecap="round" stroke-linejoin="round"/>
<path d="M135.238 462.888V461.346H138.833V462.888C141.945 463.371 143.528 465.142 143.528 467.96V468.617H139.383V467.825C139.383 466.336 138.591 465.773 137.196 465.773C135.801 465.773 135.01 466.336 135.01 467.825C135.01 469.314 135.801 470.334 138.752 472.091C142.334 474.225 143.569 475.848 143.569 478.222C143.569 481.04 141.945 482.851 138.833 483.32V484.836H135.238V483.253C132.098 482.784 130.502 480.973 130.502 478.155V476.733H134.647V478.37C134.647 479.846 135.519 480.382 136.915 480.382C138.31 480.382 139.195 479.846 139.195 478.37C139.195 476.894 138.39 475.821 135.439 474.09C131.857 471.998 130.623 470.334 130.623 467.96C130.623 465.142 132.179 463.398 135.238 462.888Z" fill="white" stroke="#263238" stroke-linecap="round" stroke-linejoin="round"/>
<path d="M156.155 473.489C156.163 477.272 155.048 480.972 152.953 484.121C150.857 487.27 147.874 489.726 144.382 491.179C140.889 492.632 137.044 493.017 133.333 492.284C129.622 491.551 126.212 489.733 123.534 487.061C120.857 484.389 119.032 480.983 118.291 477.273C117.55 473.564 117.927 469.718 119.372 466.223C120.818 462.727 123.268 459.739 126.413 457.637C129.558 455.534 133.255 454.412 137.038 454.412C142.1 454.416 146.954 456.425 150.538 460.001C154.121 463.577 156.141 468.427 156.155 473.489V473.489Z" stroke="#263238" stroke-linecap="round" stroke-linejoin="round"/>
<path d="M134.165 386.959C134.165 386.959 138.767 363.12 158.031 361.255C177.296 359.39 179.496 344.298 179.496 344.298" stroke="#263238" stroke-width="3" stroke-linecap="round" stroke-linejoin="round"/>
<path d="M136.125 345.624C136.125 345.624 131.443 343.371 114.084 332.799C96.7243 322.228 97.3951 305.378 97.3951 305.378" stroke="#263238" stroke-width="3" stroke-linecap="round" stroke-linejoin="round"/>
<path d="M139.843 408.357C139.843 408.357 105.862 407.015 100.817 379.138" stroke="#263238" stroke-width="3" stroke-linecap="round" stroke-linejoin="round"/>
<path d="M161.317 280.774C160.95 283.782 159.699 286.614 157.722 288.91C155.746 291.207 153.132 292.866 150.213 293.678C147.293 294.489 144.199 294.417 141.32 293.47C138.442 292.523 135.909 290.743 134.042 288.356C132.175 285.97 131.058 283.083 130.832 280.061C130.606 277.04 131.28 274.019 132.771 271.38C134.262 268.742 136.501 266.605 139.206 265.24C141.912 263.875 144.961 263.342 147.969 263.71C152.001 264.203 155.673 266.278 158.177 269.478C160.68 272.678 161.81 276.741 161.317 280.774V280.774Z" fill="white"/>
<path d="M161.317 280.774C160.95 283.782 159.699 286.614 157.722 288.91C155.746 291.207 153.132 292.866 150.213 293.678C147.293 294.489 144.199 294.417 141.32 293.47C138.442 292.523 135.909 290.743 134.042 288.356C132.175 285.97 131.058 283.083 130.832 280.061C130.606 277.04 131.28 274.019 132.771 271.38C134.262 268.742 136.501 266.605 139.206 265.24C141.912 263.875 144.961 263.342 147.969 263.71C152.001 264.203 155.673 266.278 158.177 269.478C160.68 272.678 161.81 276.741 161.317 280.774V280.774Z" stroke="#263238" stroke-linecap="round" stroke-linejoin="round"/>
<path d="M158.395 280.413C158.097 282.842 157.085 285.129 155.486 286.983C153.888 288.838 151.775 290.176 149.416 290.828C147.056 291.481 144.556 291.419 142.232 290.65C139.908 289.881 137.865 288.44 136.36 286.508C134.856 284.577 133.958 282.243 133.781 279.801C133.604 277.359 134.156 274.92 135.366 272.792C136.577 270.664 138.391 268.943 140.58 267.847C142.769 266.751 145.234 266.329 147.663 266.635C150.912 267.04 153.868 268.719 155.88 271.303C157.893 273.886 158.797 277.163 158.395 280.413Z" stroke="#263238" stroke-linecap="round" stroke-linejoin="round"/>
<path d="M144.27 272.765C144.736 272.238 145.392 271.915 146.094 271.866L146.215 270.847L147.986 271.061L147.852 272.081C148.194 272.187 148.511 272.36 148.786 272.59C149.06 272.821 149.285 273.104 149.448 273.422C149.781 274.152 149.889 274.965 149.757 275.757V276.186L147.717 275.945L147.785 275.368C147.867 275.008 147.815 274.631 147.637 274.308C147.549 274.185 147.435 274.084 147.303 274.012C147.17 273.94 147.023 273.899 146.872 273.892C146.726 273.862 146.574 273.867 146.429 273.906C146.285 273.946 146.151 274.019 146.041 274.12C145.79 274.391 145.647 274.744 145.638 275.113C145.584 275.487 145.62 275.869 145.745 276.226C145.871 276.55 146.038 276.857 146.242 277.138C146.443 277.407 146.752 277.742 147.127 278.158C147.527 278.544 147.895 278.961 148.227 279.406C148.521 279.812 148.744 280.266 148.885 280.747C149.049 281.318 149.091 281.917 149.005 282.505C148.942 283.309 148.638 284.075 148.133 284.705C147.896 284.968 147.61 285.182 147.29 285.334C146.969 285.486 146.623 285.573 146.269 285.59L146.148 286.583L144.377 286.368L144.511 285.376C144.167 285.271 143.846 285.099 143.57 284.869C143.293 284.638 143.066 284.354 142.901 284.034C142.561 283.306 142.453 282.491 142.593 281.7L142.7 280.761L144.739 281.002L144.605 282.075C144.498 282.961 144.82 283.417 145.558 283.551C146.295 283.685 146.725 283.243 146.832 282.357C146.886 281.978 146.849 281.592 146.725 281.23C146.605 280.903 146.438 280.596 146.228 280.318C145.953 279.965 145.658 279.629 145.343 279.312C144.946 278.918 144.579 278.497 144.243 278.051C143.953 277.644 143.735 277.19 143.599 276.709C143.414 276.044 143.382 275.346 143.508 274.667C143.633 273.988 143.912 273.347 144.323 272.792L144.27 272.765Z" fill="#263238"/>
<path d="M113.102 292.943C113.51 295.945 113.018 299 111.689 301.723C110.36 304.445 108.253 306.713 105.636 308.238C103.018 309.764 100.007 310.479 96.9835 310.294C93.9596 310.108 91.0585 309.031 88.647 307.197C86.2356 305.363 84.4219 302.855 83.4355 299.991C82.449 297.126 82.334 294.033 83.1049 291.103C83.8759 288.174 85.4982 285.538 87.7668 283.53C90.0353 281.522 92.8483 280.232 95.8502 279.822C97.8446 279.55 99.873 279.674 101.82 280.186C103.766 280.698 105.593 281.589 107.195 282.807C108.797 284.026 110.144 285.548 111.157 287.287C112.171 289.026 112.832 290.948 113.102 292.943V292.943Z" fill="white"/>
<path d="M113.102 292.943C113.51 295.945 113.018 299 111.689 301.723C110.36 304.445 108.253 306.713 105.636 308.238C103.018 309.764 100.007 310.479 96.9835 310.294C93.9596 310.108 91.0585 309.031 88.647 307.197C86.2356 305.363 84.4219 302.855 83.4355 299.991C82.449 297.126 82.334 294.033 83.1049 291.103C83.8759 288.174 85.4982 285.538 87.7668 283.53C90.0353 281.522 92.8483 280.232 95.8502 279.822C97.8446 279.55 99.873 279.674 101.82 280.186C103.766 280.698 105.593 281.589 107.195 282.807C108.797 284.026 110.144 285.548 111.157 287.287C112.171 289.026 112.832 290.948 113.102 292.943V292.943Z" stroke="#263238" stroke-linecap="round" stroke-linejoin="round"/>
<path d="M110.205 293.331C110.523 295.754 110.118 298.216 109.039 300.408C107.96 302.6 106.256 304.424 104.142 305.649C102.028 306.873 99.5989 307.445 97.1606 307.291C94.7223 307.136 92.3843 306.264 90.4414 304.782C88.4986 303.301 87.038 301.277 86.2439 298.967C85.4498 296.656 85.3577 294.162 85.9793 291.799C86.6008 289.437 87.9083 287.311 89.7366 285.69C91.5648 284.069 93.8321 283.027 96.2524 282.693C97.8678 282.47 99.5112 282.569 101.088 282.984C102.665 283.399 104.145 284.122 105.441 285.11C106.738 286.099 107.826 287.334 108.644 288.745C109.461 290.156 109.992 291.715 110.205 293.331V293.331Z" stroke="#263238" stroke-linecap="round" stroke-linejoin="round"/>
<path d="M94.5918 289.494C94.9088 288.861 95.4634 288.379 96.1346 288.153L95.987 287.133L97.7444 286.892L97.892 287.911C98.6028 287.939 99.2735 288.248 99.7567 288.77C100.266 289.389 100.579 290.145 100.656 290.943V291.372L98.6164 291.641L98.5493 291.077C98.5301 290.712 98.3828 290.365 98.1335 290.098C97.8919 289.918 97.5898 289.84 97.2916 289.88C96.9933 289.921 96.7226 290.076 96.537 290.313C96.3652 290.638 96.3175 291.015 96.4029 291.372C96.4422 291.748 96.576 292.108 96.7919 292.419C96.9895 292.708 97.2292 292.965 97.5029 293.183C97.7712 293.385 98.1335 293.64 98.6164 293.935C99.0852 294.216 99.5335 294.53 99.958 294.874C100.344 295.184 100.671 295.562 100.924 295.987C101.234 296.492 101.427 297.061 101.487 297.651C101.641 298.444 101.543 299.265 101.206 299.998C101.044 300.316 100.821 300.598 100.549 300.828C100.277 301.059 99.9623 301.233 99.6226 301.34L99.7567 302.346L97.9993 302.574L97.8652 301.581C97.5086 301.571 97.1577 301.49 96.8329 301.343C96.5081 301.195 96.216 300.985 95.9736 300.723C95.4592 300.103 95.1499 299.339 95.0882 298.536L94.954 297.611L96.9931 297.329L97.1407 298.402C97.248 299.287 97.6908 299.744 98.4823 299.583C99.2738 299.422 99.5287 298.979 99.4079 298.094C99.3686 297.717 99.2348 297.357 99.0189 297.047C98.8213 296.758 98.5816 296.5 98.3079 296.282C98.0395 296.081 97.6773 295.826 97.1944 295.531C96.7262 295.254 96.2779 294.945 95.8528 294.605C95.4701 294.287 95.1436 293.906 94.8869 293.479C94.5398 292.873 94.3331 292.196 94.282 291.5C94.231 290.803 94.3368 290.104 94.5918 289.454V289.494Z" fill="#263238"/>
<path d="M112.216 366.218C112.456 369.239 111.795 372.262 110.316 374.907C108.837 377.552 106.608 379.699 103.909 381.076C101.21 382.454 98.1637 383 95.1544 382.646C92.1451 382.293 89.3084 381.054 87.0028 379.088C84.6972 377.122 83.0264 374.517 82.2016 371.601C81.3768 368.686 81.435 365.591 82.369 362.709C83.3029 359.826 85.0706 357.285 87.4485 355.407C89.8265 353.53 92.7078 352.399 95.7283 352.159C97.7344 351.997 99.7527 352.233 101.668 352.853C103.582 353.472 105.356 354.463 106.888 355.769C108.419 357.075 109.678 358.67 110.592 360.463C111.507 362.256 112.058 364.212 112.216 366.218V366.218Z" fill="white"/>
<path d="M112.216 366.218C112.456 369.239 111.795 372.262 110.316 374.907C108.837 377.552 106.608 379.699 103.909 381.076C101.21 382.454 98.1637 383 95.1544 382.646C92.1451 382.293 89.3084 381.054 87.0028 379.088C84.6972 377.122 83.0264 374.517 82.2016 371.601C81.3768 368.686 81.435 365.591 82.369 362.709C83.3029 359.826 85.0706 357.285 87.4485 355.407C89.8265 353.53 92.7078 352.399 95.7283 352.159C97.7344 351.997 99.7527 352.233 101.668 352.853C103.582 353.472 105.356 354.463 106.888 355.769C108.419 357.075 109.678 358.67 110.592 360.463C111.507 362.256 112.058 364.212 112.216 366.218V366.218Z" stroke="#263238" stroke-linecap="round" stroke-linejoin="round"/>
<path d="M109.279 366.446C109.481 368.885 108.954 371.329 107.767 373.469C106.579 375.609 104.783 377.348 102.606 378.467C100.429 379.586 97.9694 380.033 95.538 379.754C93.1066 379.474 90.8128 378.479 88.9471 376.895C87.0813 375.311 85.7273 373.209 85.0566 370.856C84.3858 368.502 84.4284 366.002 85.179 363.673C85.9295 361.343 87.3543 359.288 89.273 357.769C91.1916 356.25 93.5179 355.334 95.9574 355.137C99.2221 354.877 102.457 355.921 104.953 358.041C107.45 360.16 109.005 363.182 109.279 366.446V366.446Z" stroke="#263238" stroke-linecap="round" stroke-linejoin="round"/>
<path d="M93.8924 361.844C94.2442 361.233 94.8225 360.785 95.5023 360.597L95.4218 359.577L97.1926 359.43L97.2731 360.449C97.9789 360.515 98.63 360.857 99.0842 361.402C99.5602 362.05 99.8312 362.825 99.8623 363.629V364.058L97.8231 364.219V363.656C97.8324 363.289 97.7085 362.932 97.4743 362.649C97.2435 362.455 96.9457 362.359 96.6448 362.381C96.3438 362.404 96.0637 362.543 95.8645 362.77C95.6721 363.088 95.6006 363.464 95.6633 363.83C95.6911 364.205 95.806 364.567 95.9986 364.89C96.1814 365.19 96.4074 365.461 96.6694 365.695C97.0096 365.99 97.3681 366.263 97.7426 366.513C98.211 366.819 98.6591 367.155 99.0842 367.519C99.446 367.856 99.7497 368.251 99.983 368.686C100.26 369.214 100.42 369.795 100.453 370.39C100.556 371.188 100.41 371.998 100.037 372.711C99.8566 373.015 99.618 373.281 99.3349 373.493C99.0517 373.705 98.7294 373.858 98.3866 373.945L98.4671 374.951L96.6962 375.099L96.6158 374.093C96.2606 374.062 95.9151 373.961 95.5996 373.795C95.284 373.629 95.0047 373.402 94.7778 373.127C94.3066 372.477 94.0403 371.702 94.0132 370.9L93.9327 369.961L95.9852 369.786L96.0657 370.873C96.0657 371.772 96.5487 372.215 97.2865 372.121C98.0244 372.027 98.3732 371.584 98.3061 370.699C98.2784 370.32 98.1636 369.953 97.9707 369.625C97.7879 369.326 97.5619 369.054 97.2999 368.821C97.045 368.606 96.6962 368.338 96.2267 368.016C95.7548 367.709 95.3064 367.369 94.8852 366.996C94.519 366.66 94.2108 366.265 93.9729 365.829C93.7002 365.304 93.5403 364.729 93.5034 364.138C93.3907 363.352 93.5267 362.55 93.8924 361.844V361.844Z" fill="#263238"/>
<path d="M201.527 339.896C200.254 342.646 198.193 344.956 195.607 346.535C193.02 348.114 190.024 348.89 186.996 348.766C183.968 348.641 181.045 347.622 178.597 345.836C176.149 344.05 174.285 341.578 173.242 338.733C172.198 335.888 172.022 332.798 172.735 329.853C173.448 326.907 175.019 324.24 177.248 322.187C179.477 320.135 182.265 318.789 185.259 318.321C188.253 317.854 191.319 318.284 194.068 319.558C197.754 321.267 200.61 324.369 202.009 328.183C203.408 331.997 203.234 336.21 201.527 339.896V339.896Z" fill="white"/>
<path d="M201.527 339.896C200.254 342.646 198.193 344.956 195.607 346.535C193.02 348.114 190.024 348.89 186.996 348.766C183.968 348.641 181.045 347.622 178.597 345.836C176.149 344.05 174.285 341.578 173.242 338.733C172.198 335.888 172.022 332.798 172.735 329.853C173.448 326.907 175.019 324.24 177.248 322.187C179.477 320.135 182.265 318.789 185.259 318.321C188.253 317.854 191.319 318.284 194.068 319.558C197.754 321.267 200.61 324.369 202.009 328.183C203.408 331.997 203.234 336.21 201.527 339.896V339.896Z" stroke="#263238" stroke-linecap="round" stroke-linejoin="round"/>
<path d="M198.853 338.663C197.824 340.881 196.159 342.744 194.07 344.017C191.982 345.289 189.563 345.914 187.119 345.812C184.676 345.71 182.317 344.886 180.342 343.444C178.366 342.002 176.863 340.007 176.021 337.711C175.179 335.414 175.037 332.92 175.613 330.543C176.189 328.166 177.456 326.013 179.255 324.356C181.054 322.699 183.304 321.613 185.72 321.234C188.136 320.855 190.61 321.202 192.83 322.229C194.306 322.91 195.634 323.876 196.736 325.072C197.838 326.267 198.694 327.669 199.253 329.195C199.813 330.722 200.066 332.344 199.997 333.969C199.929 335.594 199.54 337.189 198.853 338.663V338.663Z" stroke="#263238" stroke-linecap="round" stroke-linejoin="round"/>
<path d="M187.721 327.046C188.327 326.687 189.049 326.581 189.733 326.751L190.162 325.825L191.772 326.576L191.343 327.502C191.926 327.905 192.327 328.522 192.456 329.219C192.552 330.017 192.408 330.825 192.04 331.54L191.853 331.929L190.001 331.071L190.229 330.547C190.416 330.228 190.483 329.852 190.417 329.488C190.374 329.344 190.299 329.212 190.196 329.103C190.094 328.993 189.967 328.909 189.827 328.857C189.691 328.792 189.542 328.758 189.391 328.758C189.24 328.758 189.091 328.792 188.955 328.857C188.64 329.043 188.398 329.332 188.271 329.675C188.103 330.017 188.02 330.395 188.029 330.776C188.042 331.123 188.106 331.466 188.217 331.795C188.338 332.117 188.512 332.533 188.754 333.029C189.006 333.524 189.225 334.035 189.411 334.559C189.562 335.036 189.635 335.534 189.626 336.034C189.608 336.625 189.466 337.206 189.21 337.738C188.899 338.485 188.371 339.121 187.694 339.563C187.388 339.739 187.051 339.854 186.701 339.9C186.351 339.946 185.995 339.923 185.655 339.831L185.225 340.743L183.616 339.992L183.991 339.039C183.698 338.84 183.448 338.584 183.255 338.287C183.061 337.99 182.928 337.657 182.864 337.309C182.765 336.507 182.91 335.693 183.28 334.975L183.683 334.116L185.547 334.988L185.091 335.967C184.716 336.772 184.863 337.309 185.547 337.658C186.232 338.006 186.755 337.658 187.13 336.906C187.289 336.566 187.367 336.195 187.358 335.82C187.352 335.468 187.288 335.119 187.171 334.787C187.018 334.364 186.838 333.952 186.634 333.553C186.377 333.06 186.157 332.549 185.977 332.023C185.824 331.551 185.756 331.056 185.775 330.561C185.783 329.969 185.926 329.386 186.191 328.857C186.508 328.114 187.041 327.482 187.721 327.046V327.046Z" fill="#263238"/>
<path d="M178.839 346.873C178.839 347.825 193.126 337.482 207.011 344.069C207.011 344.069 192.496 357.256 178.45 349.06C164.404 340.863 166.376 320.753 166.376 320.753C166.376 320.753 179.966 330.238 178.839 346.873Z" fill="#F7A31C" stroke="#263238" stroke-linecap="round" stroke-linejoin="round"/>
<path d="M146.131 294.592C146.587 295.424 153.026 278.936 168.32 276.924C168.32 276.924 163.276 295.88 147.029 296.604C130.783 297.329 121.54 279.365 121.54 279.365C121.54 279.365 138.041 280.009 146.131 294.592Z" fill="#F7A31C" stroke="#263238" stroke-linecap="round" stroke-linejoin="round"/>
<path d="M99.6467 311.887C100.237 312.638 103.993 295.332 118.764 290.932C118.764 290.932 116.778 310.451 100.868 313.738C84.9568 317.025 72.9902 300.738 72.9902 300.738C72.9902 300.738 89.3571 298.793 99.6467 311.887Z" fill="#F7A31C" stroke="#263238" stroke-linecap="round" stroke-linejoin="round"/>
<path d="M102.746 384.919C103.457 385.549 104.195 367.854 117.999 360.999C117.999 360.999 119.341 380.572 104.262 386.488C89.1827 392.405 74.5732 378.439 74.5732 378.439C74.5732 378.439 90.3766 373.73 102.746 384.919Z" fill="#F7A31C" stroke="#263238" stroke-linecap="round" stroke-linejoin="round"/>
<path d="M300.033 432.357H236.98C236.98 432.357 245.486 496.43 247.941 514.97C248.384 518.337 251.067 520.001 254.313 520.001H341.728C344.975 520.001 347.658 518.337 348.101 514.97C350.569 496.43 359.061 432.357 359.061 432.357H300.033Z" fill="#263238"/>
<path d="M234.649 426.99H361.398C362.195 426.99 362.959 427.307 363.523 427.87C364.086 428.434 364.403 429.198 364.403 429.995V434.731C364.403 435.524 364.088 436.285 363.527 436.846C362.966 437.407 362.205 437.723 361.411 437.723H234.649C233.852 437.723 233.087 437.406 232.524 436.842C231.96 436.279 231.644 435.515 231.644 434.718V429.982C231.644 429.588 231.721 429.198 231.873 428.834C232.024 428.47 232.245 428.14 232.525 427.862C232.804 427.584 233.135 427.364 233.5 427.214C233.864 427.065 234.255 426.988 234.649 426.99V426.99Z" fill="#263238"/>
<path d="M243.701 437.722H307.653" stroke="white" stroke-linecap="round" stroke-linejoin="round"/>
<path d="M315.702 437.722H320.626" stroke="white" stroke-linecap="round" stroke-linejoin="round"/>
<path d="M350.143 437.722H341.195" stroke="white" stroke-linecap="round" stroke-linejoin="round"/>
<path d="M248.628 458.731H273.675" stroke="white" stroke-linecap="round" stroke-linejoin="round"/>
<path d="M287.973 458.731H294.68" stroke="white" stroke-linecap="round" stroke-linejoin="round"/>
<path d="M348.342 458.731H324.194" stroke="white" stroke-linecap="round" stroke-linejoin="round"/>
<path d="M345.663 476.17H341.195" stroke="white" stroke-linecap="round" stroke-linejoin="round"/>
<path d="M273.674 476.17H264.283" stroke="white" stroke-linecap="round" stroke-linejoin="round"/>
<path d="M318.16 493.168H333.588" stroke="white" stroke-linecap="round" stroke-linejoin="round"/>
<path d="M282.164 493.168H258.017" stroke="white" stroke-linecap="round" stroke-linejoin="round"/>
<path d="M253.096 508.367H261.145" stroke="white" stroke-linecap="round" stroke-linejoin="round"/>
<path d="M273.673 508.367H320.627" stroke="white" stroke-linecap="round" stroke-linejoin="round"/>
<path d="M343.432 508.367H336.269" stroke="white" stroke-linecap="round" stroke-linejoin="round"/>
<path d="M321.054 473.487C321.057 478.043 319.708 482.498 317.179 486.288C314.649 490.077 311.053 493.032 306.844 494.777C302.635 496.523 298.003 496.981 293.534 496.094C289.065 495.206 284.959 493.014 281.737 489.793C278.514 486.572 276.319 482.467 275.429 477.999C274.539 473.53 274.994 468.898 276.737 464.688C278.48 460.479 281.433 456.88 285.221 454.349C289.009 451.817 293.463 450.466 298.02 450.466C304.126 450.466 309.983 452.891 314.303 457.208C318.622 461.525 321.051 467.38 321.054 473.487V473.487Z" fill="#F7A31C" stroke="#263238" stroke-linecap="round" stroke-linejoin="round"/>
<path d="M317.141 473.486C317.149 477.269 316.035 480.969 313.939 484.118C311.843 487.267 308.86 489.723 305.368 491.176C301.875 492.63 298.03 493.014 294.319 492.281C290.608 491.548 287.198 489.73 284.521 487.058C281.843 484.386 280.018 480.98 279.278 477.271C278.537 473.561 278.913 469.715 280.359 466.22C281.804 462.724 284.255 459.736 287.399 457.634C290.544 455.531 294.242 454.409 298.024 454.409C303.086 454.413 307.941 456.422 311.524 459.998C315.107 463.574 317.127 468.424 317.141 473.486V473.486Z" stroke="#263238" stroke-linecap="round" stroke-linejoin="round"/>
<path d="M298.023 462.688L292.389 468.269V464.473H290.605V470.04L287.546 473.072H290.229V482.288H305.818V473.072H308.501L298.023 462.688Z" fill="white" stroke="#263238" stroke-linecap="round" stroke-linejoin="round"/>
<path d="M299.216 438.984C299.216 438.984 307.265 423.556 287.974 410.141C268.683 396.725 264.497 382.827 267.596 372.336" stroke="#263238" stroke-width="3" stroke-linecap="round" stroke-linejoin="round"/>
<path d="M296.023 417.586C296.023 417.586 293.769 407.538 311.411 400.455C329.052 393.371 331.681 372.282 331.681 372.282" stroke="#263238" stroke-width="3" stroke-linecap="round" stroke-linejoin="round"/>
<path d="M277.417 355.485C280.248 355.485 279.752 373.247 266.685 376.601C266.685 376.601 260.326 374.602 259.32 366.043C258.934 363.731 259.195 361.357 260.073 359.184C260.951 357.011 262.413 355.122 264.297 353.728C265.112 356.521 266.222 359.22 267.611 361.777C267.611 361.777 272.051 355.512 277.417 355.485Z" fill="#F7A31C" stroke="#263238" stroke-linecap="round" stroke-linejoin="round"/>
<path d="M267.594 361.764C267.594 361.764 263.986 364.769 266.602 370.229Z" fill="#F7A31C"/>
<path d="M267.594 361.764C267.594 361.764 263.986 364.769 266.602 370.229" stroke="#263238" stroke-linecap="round" stroke-linejoin="round"/>
<path d="M330.772 376.602C330.772 376.602 321.381 368.056 324.198 361.764C326.106 357.824 329.222 354.595 333.093 352.548C333.093 352.548 335.105 356.452 336.272 358.316L341.088 355.486C341.088 355.486 350.935 374.589 330.772 376.602Z" fill="#F7A31C" stroke="#263238" stroke-linecap="round" stroke-linejoin="round"/>
<path d="M336.269 358.317C336.269 358.317 342.145 367.708 334.767 372.337Z" fill="#F7A31C"/>
<path d="M336.269 358.317C336.269 358.317 342.145 367.708 334.767 372.337" stroke="#263238" stroke-linecap="round" stroke-linejoin="round"/>
<path d="M302.264 405.567C302.264 405.567 293.182 382.76 300.708 357.19" stroke="#263238" stroke-width="3" stroke-linecap="round" stroke-linejoin="round"/>
<path d="M301.137 357.336C301.137 357.336 313.211 353.459 313.211 346.604C313.116 342.229 311.626 337.999 308.958 334.53C308.958 334.53 305.497 337.213 303.659 338.46L300.453 333.886C300.453 333.886 283.63 347.087 301.137 357.336Z" fill="#F7A31C" stroke="#263238" stroke-linecap="round" stroke-linejoin="round"/>
<path d="M303.71 338.421C303.71 338.421 294.467 344.552 299.269 351.836Z" fill="#F7A31C"/>
<path d="M303.71 338.421C303.71 338.421 294.467 344.552 299.269 351.836" stroke="#263238" stroke-linecap="round" stroke-linejoin="round"/>
<path d="M461.02 432.357H397.968C397.968 432.357 406.46 496.43 408.928 514.97C409.371 518.337 412.054 520.001 415.301 520.001H502.716C505.962 520.001 508.645 518.337 509.088 514.97C511.556 496.43 520.048 432.357 520.048 432.357H461.02Z" fill="#263238"/>
<path d="M395.63 426.99H522.379C523.173 426.99 523.934 427.305 524.495 427.867C525.056 428.428 525.371 429.188 525.371 429.982V434.718C525.371 435.511 525.056 436.272 524.495 436.833C523.934 437.394 523.173 437.709 522.379 437.709H395.63C394.833 437.709 394.069 437.393 393.505 436.829C392.942 436.265 392.625 435.501 392.625 434.704V429.968C392.627 429.576 392.706 429.187 392.858 428.825C393.01 428.462 393.232 428.134 393.511 427.857C393.79 427.58 394.121 427.362 394.484 427.213C394.848 427.064 395.237 426.988 395.63 426.99V426.99Z" fill="#263238"/>
<path d="M404.688 437.722H468.64" stroke="white" stroke-linecap="round" stroke-linejoin="round"/>
<path d="M476.689 437.722H481.613" stroke="white" stroke-linecap="round" stroke-linejoin="round"/>
<path d="M511.125 437.722H502.177" stroke="white" stroke-linecap="round" stroke-linejoin="round"/>
<path d="M409.609 458.731H434.656" stroke="white" stroke-linecap="round" stroke-linejoin="round"/>
<path d="M448.96 458.731H455.668" stroke="white" stroke-linecap="round" stroke-linejoin="round"/>
<path d="M509.329 458.731H485.182" stroke="white" stroke-linecap="round" stroke-linejoin="round"/>
<path d="M506.644 476.17H502.177" stroke="white" stroke-linecap="round" stroke-linejoin="round"/>
<path d="M434.656 476.17H425.266" stroke="white" stroke-linecap="round" stroke-linejoin="round"/>
<path d="M479.142 493.168H494.569" stroke="white" stroke-linecap="round" stroke-linejoin="round"/>
<path d="M443.152 493.168H419.004" stroke="white" stroke-linecap="round" stroke-linejoin="round"/>
<path d="M414.077 508.367H422.126" stroke="white" stroke-linecap="round" stroke-linejoin="round"/>
<path d="M434.66 508.367H481.614" stroke="white" stroke-linecap="round" stroke-linejoin="round"/>
<path d="M504.42 508.367H497.256" stroke="white" stroke-linecap="round" stroke-linejoin="round"/>
<path d="M482.041 473.487C482.044 478.043 480.695 482.498 478.166 486.288C475.636 490.077 472.04 493.032 467.831 494.777C463.622 496.523 458.991 496.981 454.521 496.094C450.052 495.206 445.947 493.014 442.724 489.793C439.501 486.572 437.306 482.467 436.416 477.999C435.526 473.53 435.982 468.898 437.725 464.688C439.468 460.479 442.42 456.88 446.208 454.349C449.997 451.817 454.451 450.466 459.007 450.466C465.114 450.466 470.971 452.891 475.29 457.208C479.609 461.525 482.038 467.38 482.041 473.487V473.487Z" fill="#F7A31C" stroke="#263238" stroke-linecap="round" stroke-linejoin="round"/>
<path d="M467.808 470.968V479.017C467.808 479.017 466.118 481.834 459.008 481.834C451.897 481.834 450.207 479.017 450.207 479.017V470.968" fill="white"/>
<path d="M467.808 470.968V479.017C467.808 479.017 466.118 481.834 459.008 481.834C451.897 481.834 450.207 479.017 450.207 479.017V470.968" stroke="#263238" stroke-linecap="round" stroke-linejoin="round"/>
<path d="M459.007 465.157L471.215 469.692L459.007 474.226L446.799 469.692L459.007 465.157Z" fill="white" stroke="#263238" stroke-linecap="round" stroke-linejoin="round"/>
<path d="M459.008 469.692L464.119 472.335V484.503" stroke="#263238" stroke-linecap="round" stroke-linejoin="round"/>
<path d="M478.124 473.486C478.132 477.269 477.017 480.969 474.921 484.118C472.826 487.267 469.843 489.723 466.35 491.176C462.858 492.63 459.013 493.014 455.302 492.281C451.591 491.548 448.181 489.73 445.503 487.058C442.826 484.386 441.001 480.98 440.26 477.271C439.519 473.561 439.895 469.715 441.341 466.22C442.787 462.724 445.237 459.736 448.382 457.634C451.526 455.531 455.224 454.409 459.007 454.409C464.069 454.413 468.923 456.422 472.506 459.998C476.09 463.574 478.109 468.424 478.124 473.486V473.486Z" stroke="#263238" stroke-linecap="round" stroke-linejoin="round"/>
<path d="M459.009 444.121C459.009 444.121 452.905 428.479 459.009 408.355" stroke="#263238" stroke-width="3" stroke-linecap="round" stroke-linejoin="round"/>
<path d="M459.005 391.36C459.005 391.36 478.122 404.333 456.322 417.292C456.322 417.292 434.656 404.333 459.005 391.36Z" fill="#F7A31C" stroke="#263238" stroke-linecap="round" stroke-linejoin="round"/>
<path d="M459.009 391.36C459.009 391.36 462.296 396.284 459.009 400.751C458.037 402.23 457.367 403.886 457.038 405.624C456.709 407.362 456.727 409.148 457.091 410.88" stroke="#263238" stroke-linecap="round" stroke-linejoin="round"/>
</svg>
