<svg width="341" height="89" viewBox="0 0 341 89" fill="none" xmlns="http://www.w3.org/2000/svg">
<path d="M102.792 63.0703H108.447V88.6776H102.792V63.0703Z" fill="#F9A32C"/>
<path d="M130.096 77.8525V88.677H124.684V78.7411C124.684 77.2062 123.553 76.0753 121.978 76.0753C120.402 76.0753 119.11 77.2062 119.11 78.7411V88.677H113.657V71.592H119.11V73.6923C120.322 72.1979 122.018 71.2285 123.997 71.2285C127.349 71.2285 130.096 74.0962 130.096 77.8525V77.8525Z" fill="#F9A32C"/>
<path d="M151.22 77.8525V88.677H145.808V78.7411C145.808 77.2062 144.677 76.0753 143.102 76.0753C141.526 76.0753 140.234 77.2062 140.234 78.7411V88.677H134.781V71.592H140.234V73.6923C141.446 72.1979 143.142 71.2285 145.121 71.2285C148.473 71.2285 151.22 74.0962 151.22 77.8525V77.8525Z" fill="#F9A32C"/>
<path fill-rule="evenodd" clip-rule="evenodd" d="M154.693 80.1143C154.693 74.9848 158.53 71.2285 164.225 71.2285C169.961 71.2285 173.717 74.9848 173.717 80.1143C173.717 85.2439 169.961 89.0001 164.225 89.0001C158.53 89.0001 154.693 85.2439 154.693 80.1143ZM168.305 80.1143C168.305 77.8121 166.528 76.1157 164.225 76.0753C161.883 76.1157 160.186 77.8121 160.186 80.1143C160.186 82.4166 161.883 84.1533 164.225 84.1937C166.528 84.1533 168.305 82.4166 168.305 80.1143Z" fill="#F9A32C"/>
<path d="M193.71 71.5928L186.803 88.6778H181.674L174.848 71.5928H180.664L184.299 82.8212L187.894 71.5928H193.71Z" fill="#F9A32C"/>
<path fill-rule="evenodd" clip-rule="evenodd" d="M215.844 84.2341V88.677C215.44 88.8386 214.955 89.0001 214.39 89.0001C212.087 89.0001 210.189 87.8692 209.139 86.092C207.766 87.9096 205.746 89.0001 203.282 89.0001C198.557 89.0001 194.841 85.0823 194.841 80.1143C194.841 75.1867 198.557 71.2285 203.282 71.2285C205.261 71.2285 206.877 71.9151 208.17 73.0865V71.592H213.582V82.5781C213.582 83.9514 214.349 84.2341 215.076 84.2341H215.844ZM208.412 80.1143C208.412 77.8525 206.594 76.0753 204.373 76.0753C202.111 76.0753 200.293 77.8525 200.293 80.1143C200.293 82.3762 202.111 84.1937 204.373 84.1937C206.594 84.1937 208.412 82.3762 208.412 80.1143Z" fill="#F9A32C"/>
<path d="M225.214 75.8333V81.9322C225.214 83.3459 226.021 84.2344 227.193 84.2344H229.253V88.435C228.808 88.7581 227.677 89.0005 226.506 89.0005C222.871 89.0005 219.801 86.1732 219.801 82.5784V75.8333H216.934V71.5924H219.801V65.0088H225.214V71.5924H229.293V75.8333H225.214Z" fill="#F9A32C"/>
<path d="M232.484 65.7359C232.484 64.0799 233.858 62.7471 235.473 62.7471C237.089 62.7471 238.462 64.0799 238.462 65.7359C238.462 67.3515 237.089 68.7248 235.473 68.7248C233.858 68.7248 232.484 67.3515 232.484 65.7359ZM232.727 71.5925H238.179V88.6775H232.727V71.5925Z" fill="#F9A32C"/>
<path fill-rule="evenodd" clip-rule="evenodd" d="M242.138 80.1143C242.138 74.9848 245.934 71.2285 251.629 71.2285C257.365 71.2285 261.121 74.9848 261.121 80.1143C261.121 85.2439 257.365 89.0001 251.629 89.0001C245.934 89.0001 242.138 85.2439 242.138 80.1143ZM255.709 80.1143C255.709 77.8121 253.972 76.1157 251.629 76.0753C249.287 76.1157 247.59 77.8121 247.59 80.1143C247.59 82.4166 249.287 84.1533 251.629 84.1937C253.972 84.1533 255.709 82.4166 255.709 80.1143Z" fill="#F9A32C"/>
<path d="M281.437 77.8525V88.677H276.025V78.7411C276.025 77.2062 274.894 76.0753 273.318 76.0753C271.743 76.0753 270.491 77.2062 270.491 78.7411V88.677H264.998V71.592H270.491V73.6923C271.662 72.1979 273.359 71.2285 275.338 71.2285C278.731 71.2285 281.437 74.0962 281.437 77.8525Z" fill="#F9A32C"/>
<path d="M284.426 84.9207L288.424 82.9012C289.192 84.3553 290.404 84.6784 291.292 84.6784C292.181 84.6784 292.787 84.3149 292.787 83.6283C292.787 83.0224 292.302 82.6185 290.767 82.0127C288.788 81.2856 285.355 80.1143 285.355 76.7216C285.355 73.8135 287.859 71.2285 291.736 71.2285C294.119 71.2285 296.22 72.2383 297.472 73.4904L294.766 76.6004C294.241 75.9541 293.231 75.3483 292.1 75.3483C291.171 75.3483 290.767 75.7522 290.767 76.3177C290.767 76.9639 291.332 77.2062 292.585 77.7313C295.008 78.6603 297.835 80.0335 297.835 83.4667C297.835 86.6575 295.493 89.0001 291.656 89.0001C288.626 89.0001 285.436 87.5461 284.426 84.9207V84.9207Z" fill="#F9A32C"/>
<path fill-rule="evenodd" clip-rule="evenodd" d="M96.0067 34.2713H67.0874C67.5317 39.1989 70.359 42.2281 75.8521 42.2281C80.0122 42.2281 82.7588 40.5721 83.8089 37.8256H95.4412C93.5429 45.3382 86.5554 50.4273 76.054 50.4273C63.3716 50.4273 54.8896 43.2783 54.8896 32.4538C54.8896 21.6292 63.4927 14.3994 75.6905 14.3994C87.8883 14.3994 96.0067 21.5484 96.0067 32.373V34.2713ZM67.8145 27.607H83.5262C82.2741 24.5777 79.9315 22.8409 75.8521 22.8409C71.6111 22.8409 69.0665 24.6585 67.8145 27.607Z" fill="#2C3A8F"/>
<path d="M163.457 27.889V49.74H151.462V29.7065C151.462 26.6773 149.159 24.2539 145.888 24.2539C142.172 24.2539 140.476 27.162 140.476 29.7065V49.74H128.359V29.7065C128.359 26.6773 126.218 24.2539 122.906 24.2539C119.19 24.2539 117.494 27.162 117.494 29.7065V49.74H105.417V15.1661H117.494V19.4071C119.957 16.3778 123.471 14.4795 127.793 14.4795C132.64 14.4795 136.396 16.9029 138.577 20.538C140.96 16.7009 145.12 14.4795 150.492 14.4795C158.813 14.4795 163.457 19.811 163.457 27.889V27.889Z" fill="#2C3A8F"/>
<path fill-rule="evenodd" clip-rule="evenodd" d="M213.34 34.2713H184.38C184.865 39.1989 187.692 42.2281 193.185 42.2281C197.346 42.2281 200.092 40.5721 201.142 37.8256H212.775C210.876 45.3382 203.889 50.4273 193.387 50.4273C180.705 50.4273 172.183 43.2783 172.183 32.4538C172.183 21.6292 180.786 14.3994 192.983 14.3994C205.181 14.3994 213.34 21.5484 213.34 32.373V34.2713ZM185.148 27.607H200.86C199.607 24.5777 197.265 22.8409 193.185 22.8409C188.944 22.8409 186.36 24.6585 185.148 27.607V27.607Z" fill="#2C3A8F"/>
<path d="M236.524 23.7293V36.0886C236.524 38.9563 238.341 40.7335 240.886 40.7335H245.409V49.2962C244.48 49.902 241.936 50.4271 239.351 50.4271C231.313 50.4271 224.528 44.7321 224.528 37.3811V23.7293H218.187V15.1666H224.528V1.83789H236.524V15.1666H245.49V23.7293H236.524Z" fill="#2C3A8F"/>
<path fill-rule="evenodd" clip-rule="evenodd" d="M297.836 40.733V49.74C296.988 50.1035 295.857 50.4266 294.605 50.4266C289.516 50.4266 285.355 48.084 282.972 44.5701C279.943 48.2052 275.5 50.4266 270.048 50.4266C259.546 50.4266 251.307 42.4698 251.307 32.4531C251.307 22.4363 259.546 14.4795 270.048 14.4795C274.369 14.4795 277.964 15.8528 280.832 18.1954V15.1661H292.828V37.3806C292.828 40.2483 294.524 40.733 296.14 40.733H297.836ZM281.357 32.4531C281.357 27.889 277.318 24.2539 272.39 24.2539C267.382 24.2539 263.424 27.889 263.424 32.4531C263.424 37.0171 267.382 40.6522 272.39 40.6522C277.318 40.6522 281.357 37.0171 281.357 32.4531Z" fill="#2C3A8F"/>
<path d="M62.6853 75.5506C58.0405 75.5506 53.5168 75.6718 49.0335 75.5102C46.0446 75.389 43.7828 73.6119 41.8844 71.3904C39.3399 68.442 37.5627 65.0492 35.7856 61.6161C32.1505 54.6286 28.7577 47.5199 23.6686 41.3807C21.2855 38.4726 18.4582 36.8974 14.6616 36.7762C12.8036 36.7358 12.319 37.1801 12.319 38.9573C12.3997 48.1662 12.319 57.3347 12.3997 66.5032C12.4401 68.4824 11.9554 69.169 9.89555 69.0478C7.2702 68.8459 4.56407 68.9266 1.93872 69.0074C0.525071 69.0478 0 68.7247 0 67.2303C0.0538534 47.7623 0.0538534 28.2943 0 8.8263C0 7.37226 0.444291 6.92796 1.89833 6.96835C4.60446 7.08952 7.39137 7.12991 10.0975 6.96835C11.8747 6.88757 12.4401 7.37225 12.3997 9.18981C12.319 16.5004 12.4805 23.7706 12.319 31.0812C12.2382 33.4642 13.0056 33.9489 15.1866 33.8277C18.7006 33.6258 22.2145 33.8277 25.7284 33.7469C29.9694 33.6258 33.3622 35.3221 36.1895 38.3514C38.5321 40.896 40.2285 43.8848 41.9248 46.8737C42.5307 47.8834 43.0558 48.974 43.5808 50.0241C51.2953 64.8069 51.2953 64.8069 62.6853 75.5506V75.5506Z" fill="#2C3A8F"/>
<path d="M55.0119 0.0611825C49.2765 2.44419 46.2068 7.12944 43.5815 12.2186C42.0467 15.167 40.4311 18.0347 38.8962 20.9832C36.4728 25.6281 32.4742 27.8495 27.3851 28.0111C22.5383 28.1322 17.7319 28.0111 12.4004 28.0111C14.5411 26.2743 16.9645 25.83 18.6608 24.2144C21.6901 21.3467 23.6288 17.7116 25.7291 14.1573C27.1024 11.7743 28.516 9.35089 29.8085 6.8871C32.1511 2.44419 35.9478 0.263133 40.7946 0.101573C45.5606 -0.100378 50.2862 0.0611825 55.0119 0.0611825V0.0611825Z" fill="#F9A32C"/>
<g style="mix-blend-mode:multiply">
<path fill-rule="evenodd" clip-rule="evenodd" d="M318.92 81.7697C318.152 84.0316 317.748 86.4954 317.748 88.9995H310.195C310.195 85.0817 310.922 81.3254 312.296 77.8519C314.961 78.3366 317.264 79.7906 318.92 81.7697ZM325.342 62.7864C322.878 64.2001 320.656 65.9368 318.718 67.9563C317.775 68.9257 316.9 69.9489 316.092 71.026C318.556 71.8338 320.818 73.1667 322.716 74.8227C323.524 73.8533 324.399 72.9378 325.342 72.0761C327.24 70.3394 329.502 68.9257 331.925 67.9563C334.55 66.8658 337.459 66.3004 340.488 66.3004V58.707C334.954 58.707 329.784 60.2015 325.342 62.7864Z" fill="url(#paint0_linear_510_5891)"/>
<path d="M325.342 77.65C322.959 80.8408 321.545 84.7586 321.545 88.9996C321.545 86.253 320.576 83.7489 318.92 81.7697C317.264 79.7906 314.961 78.3366 312.296 77.8519C311.622 77.7173 310.922 77.65 310.195 77.65V70.0566C312.255 70.0566 314.234 70.4201 316.092 71.026C318.556 71.8338 320.818 73.1667 322.716 74.8227C323.686 75.6709 324.574 76.6402 325.342 77.65Z" fill="url(#paint1_linear_510_5891)"/>
<path fill-rule="evenodd" clip-rule="evenodd" d="M340.488 70.0566V77.65C339.734 77.65 339.02 77.7173 338.347 77.8519C337.378 75.3881 336.085 73.1263 334.55 71.026C336.408 70.4201 338.388 70.0566 340.488 70.0566V70.0566ZM327.927 74.8227C326.957 75.6709 326.109 76.6402 325.342 77.65C322.959 80.8408 321.545 84.7586 321.545 88.9996H329.098C329.098 86.253 330.108 83.7489 331.723 81.7697C330.875 79.2252 329.583 76.8826 327.927 74.8227V74.8227Z" fill="url(#paint2_linear_510_5891)"/>
<path fill-rule="evenodd" clip-rule="evenodd" d="M340.488 88.9995H332.895C332.895 86.4954 332.491 84.0316 331.723 81.7697C330.875 79.2252 329.583 76.8825 327.927 74.8227C327.146 73.8533 326.284 72.9378 325.342 72.0761C327.24 70.3394 329.502 68.9257 331.925 67.9563C332.868 68.9257 333.743 69.9489 334.55 71.026C336.085 73.1263 337.378 75.3881 338.347 77.8519C339.72 81.3254 340.488 85.0817 340.488 88.9995ZM325.342 62.7864C322.878 64.2001 320.656 65.9368 318.718 67.9563C316.092 66.8658 313.184 66.3004 310.195 66.3004V58.707C315.688 58.707 320.858 60.2015 325.342 62.7864Z" fill="url(#paint3_linear_510_5891)"/>
</g>
<defs>
<linearGradient id="paint0_linear_510_5891" x1="340.488" y1="89.8073" x2="310.195" y2="89.8073" gradientUnits="userSpaceOnUse">
<stop stop-color="#23282C" stop-opacity="0.1"/>
<stop offset="1" stop-color="#23282C" stop-opacity="0.5"/>
</linearGradient>
<linearGradient id="paint1_linear_510_5891" x1="314.679" y1="65.5733" x2="329.825" y2="80.7196" gradientUnits="userSpaceOnUse">
<stop stop-color="#23282C" stop-opacity="0.2"/>
<stop offset="1" stop-color="#23282C" stop-opacity="0.5"/>
</linearGradient>
<linearGradient id="paint2_linear_510_5891" x1="341.296" y1="70.0566" x2="341.296" y2="88.9996" gradientUnits="userSpaceOnUse">
<stop stop-color="#23282C" stop-opacity="0.1"/>
<stop offset="1" stop-color="#23282C" stop-opacity="0.5"/>
</linearGradient>
<linearGradient id="paint3_linear_510_5891" x1="324.089" y1="50.7098" x2="344.769" y2="86.5358" gradientUnits="userSpaceOnUse">
<stop stop-color="#23282C" stop-opacity="0.2"/>
<stop offset="1" stop-color="#23282C" stop-opacity="0.5"/>
</linearGradient>
</defs>
</svg>
