<svg width="323" height="88" viewBox="0 0 323 88" fill="none" xmlns="http://www.w3.org/2000/svg">
<path d="M90.0173 31.8075H63.1662C63.604 36.3811 66.2388 39.1878 71.3283 39.1878C75.1904 39.1878 77.7352 37.6632 78.6968 35.095H89.4897C87.7345 42.0726 81.2416 46.8065 71.5003 46.8065C59.7419 46.8065 51.8457 40.1494 51.8457 30.1188C51.8457 20.0922 59.8318 13.353 71.1523 13.353C82.4729 13.353 90.0173 20.0101 90.0173 30.0407V31.8075ZM63.866 25.6274H78.431C77.2896 22.8207 75.0966 21.2141 71.3244 21.2141C67.3763 21.218 65.0074 22.9028 63.866 25.6274Z" fill="#0046AD"/>
<path d="M152.613 25.8697V46.1653H141.468V27.5545C141.468 24.7478 139.361 22.5001 136.292 22.5001C132.872 22.5001 131.293 25.2286 131.293 27.5545V46.1653H120.062V27.5545C120.062 24.7478 118.045 22.5001 114.972 22.5001C111.552 22.5001 109.973 25.2286 109.973 27.5545V46.1653H98.7422V14.0761H109.973V18.0086C112.256 15.2019 115.5 13.4351 119.538 13.4351C124.014 13.4351 127.524 15.6827 129.541 19.0523C131.734 15.5225 135.597 13.4351 140.596 13.4351C148.313 13.4351 152.613 18.4073 152.613 25.8697Z" fill="#0046AD"/>
<path d="M198.884 31.8075H172.032C172.47 36.3811 175.105 39.1878 180.195 39.1878C184.057 39.1878 186.601 37.6632 187.567 35.095H198.36C196.605 42.0726 190.112 46.8065 180.37 46.8065C168.612 46.8065 160.716 40.1494 160.716 30.1188C160.716 20.0922 168.702 13.353 180.022 13.353C191.343 13.353 198.887 20.0101 198.887 30.0407V31.8075H198.884ZM172.736 25.6274H187.301C186.16 22.8207 183.967 21.2141 180.195 21.2141C176.246 21.218 173.878 22.9028 172.736 25.6274Z" fill="#0046AD"/>
<path d="M220.414 22.0193V33.4923C220.414 36.1387 222.084 37.8235 224.453 37.8235H228.663V45.7666C227.787 46.3295 225.414 46.8104 223.045 46.8104C215.587 46.8104 209.27 41.5136 209.27 34.6963V22.0193H203.391V14.0762H209.27V1.71973H220.414V14.0762H228.749V22.0193H220.414Z" fill="#0046AD"/>
<path d="M277.307 37.8235V46.1653C276.517 46.4859 275.466 46.8064 274.324 46.8064C269.587 46.8064 265.725 44.6408 263.532 41.3494C260.725 44.719 256.597 46.8064 251.511 46.8064C241.77 46.8064 234.136 39.4262 234.136 30.1188C234.136 20.8114 241.77 13.4312 251.511 13.4312C255.549 13.4312 258.884 14.7133 261.515 16.8789V14.0722H272.659V34.6884C272.659 37.3349 274.238 37.8157 275.732 37.8157H277.307V37.8235ZM262.038 30.1227C262.038 25.8697 258.266 22.5001 253.704 22.5001C249.053 22.5001 245.366 25.8697 245.366 30.1227C245.366 34.3757 249.053 37.7453 253.704 37.7453C258.262 37.7414 262.038 34.3718 262.038 30.1227Z" fill="#0046AD"/>
<path d="M105.478 65.1323H110.442V87.6991H105.478V65.1323Z" fill="#F7A41C"/>
<path d="M129.51 78.1843V87.6989H124.733V78.9739C124.733 77.6214 123.756 76.6051 122.364 76.6051C120.973 76.6051 119.843 77.6214 119.843 78.9739V87.6989H115.027V72.653H119.843V74.4942C120.899 73.1768 122.4 72.3521 124.131 72.3521C127.102 72.3521 129.51 74.8734 129.51 78.1843Z" fill="#F7A41C"/>
<path d="M148.126 78.1843V87.6989H143.349V78.9739C143.349 77.6214 142.371 76.6051 140.98 76.6051C139.588 76.6051 138.459 77.6214 138.459 78.9739V87.6989H133.643V72.653H138.459V74.4942C139.51 73.1768 141.015 72.3521 142.747 72.3521C145.721 72.3521 148.126 74.8734 148.126 78.1843Z" fill="#F7A41C"/>
<path d="M151.209 80.1779C151.209 75.663 154.559 72.356 159.598 72.356C164.636 72.356 167.947 75.6669 167.947 80.1779C167.947 84.6928 164.636 87.9999 159.598 87.9999C154.559 87.9999 151.209 84.6889 151.209 80.1779ZM163.171 80.1779C163.171 78.1491 161.627 76.6442 159.598 76.6051C157.53 76.6442 156.025 78.1491 156.025 80.1779C156.025 82.2106 157.53 83.7156 159.598 83.7508C161.627 83.7117 163.171 82.2067 163.171 80.1779Z" fill="#F7A41C"/>
<path d="M185.582 72.6572L179.488 87.7031H174.973L168.957 72.6572H174.074L177.272 82.5471L180.43 72.6572H185.582Z" fill="#F7A41C"/>
<path d="M205.064 83.786V87.6989C204.728 87.8474 204.274 87.9999 203.786 87.9999C201.753 87.9999 200.099 86.9836 199.157 85.4434C197.953 87.0226 196.186 87.9999 194.005 87.9999C189.83 87.9999 186.559 84.5404 186.559 80.1779C186.559 75.8154 189.83 72.356 194.005 72.356C195.737 72.356 197.164 72.958 198.293 73.9743V72.657H203.07V82.324C203.07 83.567 203.747 83.7899 204.388 83.7899H205.064V83.786ZM198.52 80.1779C198.52 78.1843 196.902 76.6051 194.947 76.6051C192.954 76.6051 191.374 78.1843 191.374 80.1779C191.374 82.1715 192.954 83.7508 194.947 83.7508C196.902 83.7508 198.52 82.1715 198.52 80.1779Z" fill="#F7A41C"/>
<path d="M213.335 76.3784V81.7572C213.335 83.0002 214.051 83.786 215.067 83.786H216.873V87.5113C216.498 87.7732 215.481 87.9999 214.465 87.9999C211.267 87.9999 208.562 85.5177 208.562 82.3201V76.3784H206.041V72.6569H208.562V66.8638H213.339V72.6569H216.912V76.3784H213.335Z" fill="#F7A41C"/>
<path d="M219.727 67.5009C219.727 66.035 220.931 64.8701 222.357 64.8701C223.788 64.8701 224.992 66.035 224.992 67.5009C224.992 68.9316 223.788 70.1317 222.357 70.1317C220.931 70.1356 219.727 68.9316 219.727 67.5009ZM219.953 72.6569H224.73V87.7027H219.953V72.6569Z" fill="#F7A41C"/>
<path d="M228.229 80.1779C228.229 75.663 231.575 72.356 236.617 72.356C241.66 72.356 244.967 75.6669 244.967 80.1779C244.967 84.6928 241.656 87.9999 236.617 87.9999C231.579 87.9999 228.229 84.6889 228.229 80.1779ZM240.186 80.1779C240.186 78.1491 238.646 76.6442 236.613 76.6051C234.545 76.6442 233.041 78.1491 233.041 80.1779C233.041 82.2106 234.545 83.7156 236.613 83.7508C238.646 83.7117 240.186 82.2067 240.186 80.1779Z" fill="#F7A41C"/>
<path d="M262.867 78.1843V87.6989H258.09V78.9739C258.09 77.6214 257.113 76.6051 255.721 76.6051C254.329 76.6051 253.2 77.6214 253.2 78.9739V87.6989H248.384V72.653H253.2V74.4942C254.251 73.1768 255.756 72.3521 257.488 72.3521C260.459 72.3521 262.867 74.8734 262.867 78.1843Z" fill="#F7A41C"/>
<path d="M265.498 84.3879L269.032 82.6211C269.708 83.8993 270.764 84.2003 271.553 84.2003C272.343 84.2003 272.87 83.8602 272.87 83.2582C272.87 82.7344 272.421 82.3553 271.064 81.8275C269.333 81.1904 266.327 80.174 266.327 77.1641C266.327 74.6076 268.508 72.3481 271.928 72.3481C274.035 72.3481 275.876 73.212 277.006 74.3417L274.598 77.0507C274.149 76.4878 273.246 75.9601 272.269 75.9601C271.44 75.9601 271.064 76.3353 271.064 76.824C271.064 77.3869 271.592 77.6136 272.683 78.0671C274.825 78.8958 277.311 80.0997 277.311 83.1058C277.311 85.9281 275.243 87.996 271.858 87.996C269.184 87.9999 266.397 86.7216 265.498 84.3879Z" fill="#F7A41C"/>
<path d="M59.1088 70.1082C54.7776 70.1082 50.5949 70.2254 46.424 70.0691C43.6447 69.9635 41.5572 68.31 39.7903 66.2578C37.437 63.5215 35.7835 60.3512 34.1378 57.181C30.7683 50.6998 27.602 44.1092 22.9072 38.406C20.683 35.7048 18.0561 34.2663 14.5263 34.1412C12.8102 34.0826 12.3607 34.493 12.3724 36.1739C12.4428 44.6838 12.3489 53.1977 12.4427 61.7077C12.4623 63.541 12.0401 64.2094 10.113 64.0609C7.66202 63.8772 5.18373 63.9515 2.72104 64.0414C1.43498 64.0883 0.930684 63.7912 0.934593 62.3761C0.977592 44.3164 0.977596 26.2606 0.938506 8.20091C0.934597 6.84839 1.34503 6.4223 2.68192 6.4692C5.22278 6.56302 7.7793 6.60212 10.3163 6.4653C11.9659 6.3754 12.474 6.83274 12.4506 8.5449C12.3528 15.3036 12.5209 22.0701 12.3568 28.8288C12.302 31.0414 13.0135 31.4909 15.0384 31.3853C18.2907 31.2173 21.5626 31.4127 24.8188 31.3189C28.7591 31.2094 31.894 32.777 34.5092 35.6071C36.6865 37.9643 38.2736 40.7162 39.8451 43.4799C40.3923 44.4454 40.877 45.45 41.393 46.4351C48.5465 60.1597 48.5466 60.1597 59.1088 70.1082Z" fill="#0046AD"/>
<path d="M51.9949 0.0506901C46.6513 2.27884 43.8015 6.61003 41.3584 11.3556C39.9551 14.0763 38.458 16.75 37.039 19.4668C34.7757 23.8058 31.066 25.8425 26.3243 25.9871C21.8485 26.1239 17.3648 26.0184 12.4512 26.0184C14.4252 24.3922 16.6573 23.9857 18.2366 22.4846C21.055 19.8069 22.857 16.4451 24.7881 13.1655C26.0976 10.9412 27.3915 8.70136 28.5837 6.41067C30.7493 2.2632 34.2792 0.265689 38.7942 0.0897828C43.1918 -0.0861234 47.5973 0.0506901 51.9949 0.0506901Z" fill="#F7A41C"/>
<path d="M299.397 80.3893C298.596 82.7777 298.158 85.342 298.158 88.0002H290.188C290.188 83.8566 290.985 79.8968 292.427 76.2575C295.211 76.7891 297.658 78.2863 299.397 80.3893ZM306.125 60.3986C303.56 61.8879 301.219 63.7212 299.17 65.8438C298.185 66.8563 297.267 67.9352 296.426 69.0766C299.022 69.9327 301.383 71.3125 303.384 73.0912C304.217 72.0513 305.132 71.078 306.125 70.1907C308.157 68.3691 310.507 66.8836 313.079 65.8438C315.854 64.7141 318.888 64.0887 322.066 64.0887V56.1182C316.261 56.1221 310.819 57.6818 306.125 60.3986Z" fill="url(#paint0_linear_257_2652)"/>
<path d="M306.125 76.0618C303.619 79.3884 302.141 83.5281 302.141 88C302.141 85.1112 301.109 82.457 299.397 80.3891C297.658 78.2861 295.215 76.7889 292.427 76.2573C291.704 76.1166 290.954 76.0423 290.188 76.0423V68.0718C292.365 68.0718 294.468 68.4197 296.43 69.0725C299.026 69.9286 301.387 71.3084 303.388 73.087C304.397 73.9822 305.319 74.979 306.125 76.0618Z" fill="url(#paint1_linear_257_2652)"/>
<path d="M322.066 68.0757V76.0462C321.3 76.0462 320.545 76.1205 319.826 76.2612C318.798 73.6851 317.449 71.2733 315.827 69.0764C317.786 68.4236 319.889 68.0757 322.066 68.0757ZM308.865 73.0909C307.853 73.9822 306.93 74.979 306.125 76.0618C303.619 79.3884 302.142 83.5281 302.142 88H310.112C310.112 85.1112 311.144 82.457 312.856 80.3891C311.953 77.7153 310.593 75.2487 308.865 73.0909Z" fill="url(#paint2_linear_257_2652)"/>
<path d="M322.066 88.0002H314.095C314.095 85.342 313.657 82.7777 312.856 80.3893C311.953 77.7116 310.593 75.2489 308.865 73.0911C308.032 72.0513 307.118 71.078 306.125 70.1907C308.157 68.369 310.507 66.8836 313.079 65.8438C314.064 66.8563 314.982 67.9352 315.823 69.0766C317.445 71.2735 318.798 73.6853 319.822 76.2614C321.268 79.8968 322.066 83.8566 322.066 88.0002ZM290.188 56.1221V64.0926C293.366 64.0926 296.399 64.7141 299.174 65.8477C301.223 63.7251 303.564 61.8918 306.129 60.4025C301.434 57.6818 295.988 56.1221 290.188 56.1221Z" fill="url(#paint3_linear_257_2652)"/>
<defs>
<linearGradient id="paint0_linear_257_2652" x1="322.066" y1="72.0605" x2="290.186" y2="72.0605" gradientUnits="userSpaceOnUse">
<stop stop-color="#2E2E30" stop-opacity="0.07"/>
<stop offset="1" stop-color="#2E2E30" stop-opacity="0.3"/>
</linearGradient>
<linearGradient id="paint1_linear_257_2652" x1="290.253" y1="68.0082" x2="306.193" y2="83.9483" gradientUnits="userSpaceOnUse">
<stop stop-color="#2E2E30" stop-opacity="0.21"/>
<stop offset="1" stop-color="#2E2E30" stop-opacity="0.3"/>
</linearGradient>
<linearGradient id="paint2_linear_257_2652" x1="312.104" y1="68.0754" x2="312.104" y2="88.0004" gradientUnits="userSpaceOnUse">
<stop stop-color="#2E2E30" stop-opacity="0.07"/>
<stop offset="1" stop-color="#2E2E30" stop-opacity="0.3"/>
</linearGradient>
<linearGradient id="paint3_linear_257_2652" x1="295.358" y1="53.134" x2="317.133" y2="90.8488" gradientUnits="userSpaceOnUse">
<stop stop-color="#2E2E30" stop-opacity="0.21"/>
<stop offset="1" stop-color="#2E2E30" stop-opacity="0.3"/>
</linearGradient>
</defs>
</svg>
