<svg width="287" height="52" viewBox="0 0 287 52" fill="none" xmlns="http://www.w3.org/2000/svg">
<path d="M43.5743 51.9693C40.3684 51.9693 37.2707 52.056 34.1816 51.939C32.1265 51.861 30.5819 50.6393 29.2754 49.1143C27.5448 47.0868 26.3074 44.7343 25.0873 42.3862C22.5953 37.5773 20.2503 32.6947 16.7762 28.4663C15.1278 26.4605 13.1852 25.3947 10.5677 25.3037C9.30004 25.2604 8.9669 25.5637 8.97555 26.8114C9.02747 33.1236 8.97555 39.4315 9.02747 45.7394C9.02747 47.0998 8.72894 47.5937 7.29688 47.4723C5.47397 47.3705 3.64681 47.3705 1.8239 47.4723C0.872075 47.507 0.5 47.2861 0.5 46.2376C0.534612 32.8507 0.534612 19.4652 0.5 6.08113C0.5 5.07602 0.798526 4.78142 1.79794 4.78142C3.67996 4.84641 5.57062 4.87673 7.44831 4.78142C8.6727 4.7121 9.04911 5.05435 9.0318 6.3194C8.95825 11.3319 9.08372 16.3488 8.96257 21.357C8.92364 22.9989 9.44714 23.3325 10.9441 23.2546C13.3539 23.1289 15.7768 23.2545 18.1866 23.2069C21.107 23.1246 23.426 24.2856 25.3642 26.3825C26.9737 28.1154 28.1505 30.1733 29.31 32.2225C29.7166 32.9373 30.0758 33.6782 30.4565 34.3887C35.7564 44.5957 35.7564 44.5957 43.5743 51.9693Z" fill="#0046AD"/>
<path d="M38.309 0.0329325C34.3546 1.68356 32.252 4.89384 30.4349 8.41604C29.3965 10.4306 28.2716 12.4148 27.2376 14.425C25.5589 17.6396 22.8159 19.1516 19.3072 19.2599C15.9931 19.3639 12.6747 19.2815 9.03613 19.2815C10.4942 18.0772 12.1469 17.7739 13.3193 16.6821C15.4047 14.6979 16.7373 12.2025 18.165 9.77206C19.1341 8.12144 20.0946 6.46215 20.9772 4.76387C22.5823 1.68791 25.1955 0.210579 28.5399 0.0806084C31.789 -0.0666914 35.0512 0.0329325 38.309 0.0329325Z" fill="#F7A41C"/>
<path d="M55.0959 24.1816V24.6798C55.0952 24.8335 55.0836 24.987 55.0613 25.1391H40.6931C40.7914 26.5494 41.3597 27.8858 42.3069 28.9342C43.2068 29.8844 44.4485 30.3581 46.032 30.3552C47.096 30.4088 48.1486 30.1137 49.0302 29.5147C49.8302 28.881 50.4445 28.0428 50.8084 27.0886L54.5984 27.6172C54.3498 28.5718 53.9496 29.4802 53.4129 30.3076C52.8885 31.1053 52.2315 31.8072 51.4703 32.3828C50.6648 32.9847 49.7618 33.4434 48.8009 33.7388C47.7209 34.0655 46.5977 34.2262 45.4695 34.2153C44.1967 34.2238 42.9334 33.9946 41.7444 33.5395C40.6081 33.1063 39.576 32.4375 38.7159 31.5769C37.8279 30.6749 37.1318 29.602 36.6695 28.423C36.1442 27.0719 35.887 25.6312 35.9124 24.1816C35.8957 22.7779 36.1468 21.384 36.6522 20.0746C37.1061 18.8965 37.797 17.8245 38.6819 16.925C39.5668 16.0254 40.6269 15.3176 41.7964 14.8454C43.005 14.3535 44.299 14.1061 45.6036 14.1176C47.0269 14.0869 48.4407 14.3571 49.7527 14.9104C50.8887 15.4058 51.9019 16.1454 52.7207 17.0766C53.5269 18.0035 54.1324 19.0877 54.4989 20.2608C54.9025 21.5282 55.104 22.8514 55.0959 24.1816ZM50.7695 22.1714C50.57 20.9394 50.0064 19.7956 49.1514 18.8875C48.2228 18.0485 47.0166 17.584 45.7659 17.584C44.5152 17.584 43.309 18.0485 42.3804 18.8875C41.5339 19.7993 40.9767 20.9422 40.7796 22.1714H50.7695Z" fill="#0046AD"/>
<path d="M87.9856 21.4434V33.9682H83.2264V22.5351C83.2454 21.7904 83.1386 21.0478 82.9106 20.3386C82.7375 19.8169 82.4641 19.3342 82.1059 18.9176C81.7945 18.5711 81.4042 18.3051 80.968 18.1421C80.5388 17.9896 80.0866 17.912 79.6312 17.9125C79.1296 17.9083 78.6299 17.9754 78.1472 18.1118C77.6801 18.2371 77.2508 18.4751 76.8968 18.805C76.5005 19.1901 76.2036 19.6659 76.0315 20.1913C75.7982 20.9201 75.6914 21.6835 75.7157 22.4485V33.9682H70.8701V22.4658C70.8859 21.7726 70.7865 21.0815 70.5758 20.4209C70.4069 19.8988 70.1264 19.4198 69.7538 19.0172C69.4116 18.6616 68.9949 18.3864 68.5337 18.2114C68.0596 18.0324 67.5565 17.9428 67.0498 17.9472C66.5573 17.9435 66.0676 18.021 65.6004 18.1768C65.1401 18.3305 64.7222 18.5901 64.3803 18.9349C63.9953 19.329 63.7001 19.802 63.5151 20.3213C63.2736 21.017 63.1621 21.7513 63.1862 22.4875V33.9682H58.3882V14.347H63.2684V17.4186C63.4016 17.0696 63.5837 16.7414 63.8093 16.4438C64.1167 16.0291 64.4842 15.6626 64.8995 15.3564C65.4001 14.9859 65.9488 14.6856 66.5306 14.464C67.2356 14.199 67.9842 14.0696 68.7371 14.0827C69.4465 14.0707 70.1533 14.1716 70.8311 14.3816C71.4099 14.5669 71.9549 14.8449 72.4449 15.2048C72.9229 15.5649 73.3507 15.9875 73.7169 16.4612C74.1041 16.9686 74.4458 17.5094 74.7379 18.0771C75.287 16.9383 76.1071 15.9519 77.1261 15.2048C78.3172 14.4082 79.732 14.0149 81.1627 14.0827C82.0669 14.08 82.9611 14.2721 83.7846 14.6459C84.5987 15.0186 85.3332 15.5452 85.9478 16.1969C86.5834 16.8718 87.0855 17.6612 87.4275 18.5234C87.8024 19.4508 87.992 20.4429 87.9856 21.4434Z" fill="#0046AD"/>
<path d="M103.643 29.7617V33.1583C103.264 33.4241 102.847 33.6301 102.406 33.7691C101.992 33.9066 101.568 34.0123 101.138 34.0854C100.027 34.2878 98.8863 34.2538 97.7894 33.9857C97.2796 33.8528 96.7915 33.647 96.3401 33.3749C95.9585 33.1456 95.619 32.8526 95.3363 32.5084C95.0807 32.1925 94.8602 31.8497 94.6787 31.486C94.2667 30.6321 94.0523 29.6962 94.0514 28.7479V17.9171H91.4814V15.0794C91.8051 15.0313 92.1248 14.9589 92.4376 14.8628C92.7981 14.7514 93.1416 14.591 93.4586 14.3862C94.0215 14.0423 94.5039 13.5813 94.8734 13.0345C95.2021 12.5552 95.4736 12.0391 95.6824 11.4965C95.8488 11.0773 95.9706 10.6416 96.0459 10.1968C96.0978 9.81126 96.1281 9.5643 96.1281 9.45166H98.8278C98.8278 10.3181 98.8624 11.1846 98.8624 12.0511C98.8624 12.9175 98.8624 13.784 98.897 14.6505H103.461V17.9517H98.9273C98.9965 23.9564 99.0297 27.4872 99.0268 28.5443C99.0334 28.7435 99.0551 28.9419 99.0917 29.1378C99.1435 29.4167 99.283 29.6718 99.4897 29.8657C99.7392 30.1348 100.08 30.3002 100.446 30.3292C100.846 30.3726 101.249 30.3726 101.649 30.3292C102.04 30.2893 102.426 30.2065 102.799 30.0823L103.643 29.7617Z" fill="#0046AD"/>
<path d="M124.471 24.1812V24.6794C124.47 24.8331 124.458 24.9866 124.436 25.1387H110.068C110.168 26.5485 110.736 27.8843 111.682 28.9338C112.584 29.884 113.826 30.3577 115.407 30.3548C116.471 30.4096 117.524 30.1145 118.405 29.5143C119.206 28.881 119.822 28.0428 120.187 27.0882L123.977 27.6168C123.727 28.5708 123.327 29.4789 122.792 30.3071C122.267 31.106 121.609 31.8081 120.845 32.3823C120.04 32.9851 119.137 33.4438 118.176 33.7383C117.097 34.0651 115.975 34.2258 114.849 34.2149C113.576 34.2234 112.312 33.9942 111.123 33.5391C109.987 33.1052 108.956 32.4365 108.095 31.5765C107.21 30.6739 106.517 29.601 106.057 28.4226C105.532 27.0715 105.275 25.6308 105.3 24.1812C105.283 22.7775 105.535 21.3835 106.04 20.0741C106.492 18.8957 107.182 17.8233 108.066 16.9236C108.95 16.0239 110.01 15.3163 111.18 14.845C112.388 14.3534 113.682 14.1061 114.987 14.1172C116.412 14.086 117.827 14.3562 119.14 14.91C120.276 15.4065 121.289 16.1459 122.108 17.0762C122.913 18.0042 123.518 19.0881 123.887 20.2604C124.284 21.529 124.481 22.8518 124.471 24.1812ZM120.144 22.171C119.946 20.9394 119.384 19.7955 118.53 18.8871C117.601 18.0477 116.394 17.5832 115.143 17.5832C113.891 17.5832 112.684 18.0477 111.755 18.8871C110.911 19.8003 110.356 20.9427 110.159 22.171H120.144Z" fill="#0046AD"/>
<path d="M136.862 30.5025C137.481 30.529 138.099 30.4272 138.678 30.2036C139.256 29.98 139.782 29.6393 140.223 29.2028C141.107 28.3 141.708 27.1587 141.954 25.9188L145.848 26.3521C145.661 27.4344 145.322 28.4847 144.84 29.4714C144.381 30.4105 143.743 31.2509 142.962 31.9452C142.148 32.6582 141.209 33.2135 140.193 33.5828C139.013 33.9969 137.77 34.1979 136.52 34.1763C135.184 34.1904 133.859 33.9309 132.626 33.4138C131.482 32.9273 130.451 32.2089 129.598 31.3039C128.733 30.3826 128.057 29.3009 127.607 28.1197C126.656 25.5703 126.656 22.7625 127.607 20.2132C128.057 19.0228 128.74 17.9343 129.615 17.0115C130.483 16.0964 131.523 15.3605 132.674 14.8454C133.9 14.3053 135.228 14.035 136.567 14.0526C137.777 14.0389 138.979 14.252 140.111 14.6807C141.143 15.0798 142.092 15.6674 142.91 16.4137C143.717 17.1564 144.387 18.0365 144.887 19.0131C145.408 20.0322 145.759 21.1298 145.926 22.2623L142.071 22.6263C141.915 21.2922 141.337 20.0429 140.422 19.0608C139.965 18.6054 139.418 18.2502 138.816 18.0175C138.214 17.7848 137.571 17.6798 136.927 17.709C136.122 17.6898 135.323 17.8527 134.59 18.1856C133.94 18.4976 133.37 18.9557 132.925 19.5243C132.46 20.1225 132.119 20.8073 131.921 21.5388C131.692 22.3653 131.58 23.2199 131.588 24.0776C131.581 24.9331 131.703 25.7846 131.951 26.6034C132.17 27.3419 132.529 28.0316 133.007 28.6352C133.437 29.2077 133.984 29.6818 134.612 30.0259C135.314 30.359 136.085 30.5222 136.862 30.5025Z" fill="#0046AD"/>
<path d="M166.494 33.9684H161.812V22.271C161.811 21.7755 161.727 21.2837 161.566 20.8154C161.407 20.3375 161.156 19.8957 160.826 19.5157C160.469 19.1247 160.036 18.8108 159.554 18.5929C158.978 18.3377 158.353 18.2134 157.724 18.2289C156.694 18.231 155.699 18.6065 154.925 19.286C154.544 19.6254 154.241 20.0418 154.033 20.5078C153.808 21.0163 153.696 21.5676 153.705 22.1237V33.9684H148.889V7.71436H153.7V18.0123C153.804 17.4722 154.042 16.967 154.392 16.5437C154.787 16.0503 155.261 15.6257 155.794 15.2873C156.367 14.9175 156.987 14.6261 157.637 14.4208C159.173 13.9497 160.824 14.0138 162.319 14.6028C163.133 14.9237 163.87 15.4139 164.482 16.0411C165.121 16.7042 165.62 17.4896 165.948 18.3503C166.326 19.3459 166.512 20.4045 166.494 21.4696V33.9684Z" fill="#0046AD"/>
<path d="M188.765 31.1826L195.817 11.1152H201.442L191.106 37.3692H186.39L175.976 11.1152H181.6L188.765 31.1826Z" fill="#0046AD"/>
<path d="M214.248 34.3367C213.91 34.7908 213.535 35.2167 213.128 35.6104C212.692 36.0316 212.198 36.3876 211.661 36.6675C211.055 36.9808 210.413 37.218 209.749 37.3737C208.945 37.5606 208.121 37.6494 207.296 37.638C206.527 37.6418 205.763 37.5143 205.037 37.2611C204.347 37.0217 203.709 36.651 203.16 36.1693C202.615 35.6986 202.173 35.1205 201.862 34.471C201.535 33.781 201.371 33.0251 201.381 32.2615C201.372 31.5604 201.52 30.866 201.814 30.2297C202.072 29.6696 202.428 29.1604 202.865 28.7263C203.292 28.3124 203.775 27.9622 204.302 27.6866C204.808 27.4213 205.336 27.201 205.881 27.0281C206.409 26.8634 206.898 26.7335 207.348 26.6338L208.455 26.3869C209.576 26.1443 210.588 25.9536 211.484 25.8063C212.379 25.659 213.27 25.5031 214.105 25.3298C214.102 24.862 214.041 24.3963 213.924 23.9434C213.806 23.4681 213.599 23.0195 213.314 22.6221C213.008 22.2101 212.613 21.8725 212.159 21.6343C211.587 21.349 210.953 21.2119 210.315 21.2357C209.735 21.2193 209.159 21.3379 208.633 21.5823C208.199 21.7987 207.809 22.0923 207.482 22.4488C207.175 22.7836 206.94 23.1771 206.789 23.6055C206.641 24.005 206.54 24.421 206.491 24.8446L204.328 24.6453C203.635 24.5803 202.917 24.524 202.164 24.4806C202.267 23.5232 202.535 22.5909 202.956 21.7253C203.369 20.8816 203.945 20.1289 204.652 19.5115C205.396 18.871 206.251 18.3732 207.174 18.0428C208.223 17.6775 209.327 17.4986 210.437 17.5142C211.619 17.4892 212.795 17.6968 213.898 18.1251C214.821 18.4887 215.663 19.0337 216.373 19.7281C217.013 20.3641 217.522 21.1209 217.87 21.9549C218.203 22.743 218.377 23.5899 218.38 24.446V32.7641C218.366 32.9453 218.391 33.1274 218.453 33.2979C218.516 33.4685 218.615 33.6233 218.743 33.7519C218.975 33.9747 219.267 34.1253 219.583 34.1851C219.899 34.2436 220.223 34.2436 220.539 34.1851C220.806 34.1418 221.06 34.0397 221.283 33.8862V36.6589H221.313C220.954 36.9815 220.541 37.2381 220.093 37.417C219.555 37.6106 218.986 37.7002 218.415 37.6813C217.818 37.6985 217.225 37.5754 216.684 37.3217C215.81 36.8951 215.089 36.208 214.62 35.3548C214.457 35.0314 214.332 34.6896 214.248 34.3367ZM206.14 31.4991C206.126 31.7971 206.17 32.0951 206.272 32.3756C206.374 32.6561 206.531 32.9134 206.733 33.1323C207.139 33.5443 207.654 33.8314 208.217 33.9598C208.84 34.102 209.485 34.1138 210.112 33.9945C210.763 33.8815 211.379 33.6157 211.908 33.219C212.699 32.6899 213.314 31.9353 213.673 31.0528C213.991 30.0746 214.138 29.0485 214.105 28.0202C213.237 28.2695 212.35 28.452 211.453 28.566C210.578 28.6747 209.711 28.8397 208.857 29.0599C208.157 29.2302 207.492 29.5236 206.893 29.9264C206.649 30.1023 206.451 30.3358 206.318 30.6064C206.186 30.8769 206.122 31.1761 206.132 31.4774L206.14 31.4991Z" fill="#0046AD"/>
<path d="M229.17 33.2275C229.42 33.4959 229.761 33.6612 230.126 33.6911C230.526 33.7344 230.929 33.7344 231.329 33.6911C231.722 33.6507 232.109 33.5679 232.484 33.4441L233.324 33.1625V36.5591C232.951 36.8239 232.539 37.0299 232.104 37.1699C231.696 37.3083 231.278 37.4141 230.853 37.4862C229.742 37.6886 228.602 37.6547 227.505 37.3866C226.995 37.2536 226.507 37.0479 226.055 36.7757C225.671 36.5431 225.326 36.2506 225.034 35.9092C224.772 35.5947 224.545 35.2518 224.359 34.8868C223.949 34.0323 223.735 33.0968 223.732 32.1488V11.1152H228.612C228.612 11.9528 228.612 13.0258 228.612 14.3342C228.612 15.6339 228.612 17.0419 228.647 18.5235C228.681 20.0052 228.668 21.5129 228.681 23.0292C228.694 24.5455 228.681 25.9405 228.681 27.2055V31.9062C228.69 32.1054 228.713 32.3038 228.751 32.4997C228.808 32.7816 228.955 33.0371 229.17 33.2275Z" fill="#0046AD"/>
<path d="M241.003 33.2275C241.253 33.4959 241.594 33.6612 241.959 33.6911C242.359 33.7344 242.762 33.7344 243.162 33.6911C243.555 33.6507 243.942 33.5679 244.317 33.4441L245.156 33.1625V36.5591C244.782 36.8223 244.371 37.0281 243.936 37.1699C243.528 37.3083 243.11 37.4141 242.686 37.4862C241.575 37.6823 240.436 37.6425 239.342 37.3692C238.832 37.2363 238.344 37.0305 237.892 36.7584C237.507 36.527 237.162 36.2343 236.871 35.8919C236.606 35.5796 236.379 35.2363 236.196 34.8695C235.784 34.0156 235.57 33.0797 235.569 32.1314V11.1152H240.449C240.449 11.9528 240.449 13.0258 240.449 14.3342C240.449 15.6339 240.449 17.0419 240.484 18.5235C240.518 20.0052 240.505 21.5129 240.518 23.0292C240.531 24.5455 240.518 25.9405 240.518 27.2055V31.9062C240.525 32.1056 240.548 32.3041 240.588 32.4997C240.643 32.781 240.789 33.0365 241.003 33.2275Z" fill="#0046AD"/>
<path d="M265.456 27.5825V28.0807C265.457 28.2343 265.446 28.3878 265.426 28.54H251.053C251.153 29.9507 251.723 31.2871 252.671 32.3351C253.571 33.2853 254.811 33.759 256.392 33.7561C257.457 33.8103 258.512 33.5152 259.395 32.9156C260.193 32.2807 260.807 31.4429 261.173 30.4895L264.963 31.0181C264.714 31.9727 264.314 32.8811 263.777 33.7084C263.253 34.5074 262.594 35.2094 261.83 35.7837C261.026 36.3875 260.123 36.8464 259.161 37.1397C258.082 37.4667 256.961 37.6274 255.834 37.6162C254.561 37.6247 253.298 37.3955 252.109 36.9404C250.973 36.5065 249.941 35.8378 249.08 34.9778C248.195 34.0744 247.501 33.0018 247.038 31.8239C246.513 30.4728 246.256 29.0321 246.281 27.5825C246.264 26.1788 246.515 24.7849 247.021 23.4755C247.473 22.2964 248.163 21.2234 249.048 20.3237C249.933 19.4239 250.994 18.7167 252.165 18.2463C253.372 17.7547 254.665 17.5074 255.968 17.5185C257.388 17.4878 258.799 17.7564 260.108 18.307C261.244 18.8024 262.258 19.5419 263.076 20.4731C263.883 21.4001 264.488 22.4843 264.855 23.6574C265.26 24.9259 265.463 26.2506 265.456 27.5825ZM261.129 25.5723C260.934 24.3401 260.371 23.1956 259.516 22.2884C258.587 21.4494 257.381 20.9849 256.13 20.9849C254.88 20.9849 253.673 21.4494 252.745 22.2884C251.898 23.2002 251.341 24.3431 251.144 25.5723H261.129Z" fill="#0046AD"/>
<path d="M268.623 39.7952C268.848 39.8967 269.087 39.9639 269.332 39.9945C269.762 40.0607 270.198 40.0709 270.63 40.0248C271.085 40.0098 271.531 39.8995 271.94 39.701C272.349 39.5025 272.712 39.2202 273.006 38.8724C273.565 38.1584 273.856 37.2707 273.828 36.364L266.382 17.7349H271.686L276.445 32.3912L281.126 17.7349H286.5L278.128 39.1237C277.584 40.5442 276.767 41.844 275.723 42.9491C275.252 43.4191 274.69 43.7876 274.072 44.0319C273.453 44.2763 272.792 44.3914 272.127 44.3701C271.6 44.3701 270.99 44.3398 270.302 44.2878C269.723 44.2546 269.157 44.1074 268.636 43.8546L268.623 39.7952Z" fill="#0046AD"/>
</svg>
