<svg width="575" height="338" viewBox="0 0 575 338" fill="none" xmlns="http://www.w3.org/2000/svg">
<g clip-path="url(#clip0_421_3331)">
<path d="M158.845 268.319H146.177C146.177 254.596 143.457 245.136 138.016 239.939C132.576 234.661 123.075 232.022 109.514 232.022H62.2541C51.8601 232.022 42.8466 231.007 35.2136 228.977C27.4993 226.947 21.1655 223.699 16.2121 219.232C11.1776 214.766 7.44226 208.92 5.00617 201.693C2.57009 194.384 1.35205 185.493 1.35205 175.018H19.8663C19.8663 184.112 21.3685 191.38 24.373 196.82C27.2963 202.18 31.8843 206.037 38.1369 208.392C44.3895 210.666 52.4285 211.802 62.2541 211.802H115.97C122.872 211.802 129.003 212.614 134.362 214.238C139.64 215.863 144.107 218.745 147.761 222.887C151.415 227.028 154.176 232.793 156.043 240.183C157.911 247.491 158.845 256.87 158.845 268.319ZM313.17 175.018C313.17 185.493 311.952 194.384 309.516 201.693C307.08 208.92 303.345 214.766 298.31 219.232C293.357 223.699 287.023 226.947 279.309 228.977C271.676 231.007 262.662 232.022 252.268 232.022H205.009C191.448 232.022 181.947 234.661 176.506 239.939C171.066 245.136 168.346 254.596 168.346 268.319H155.678C155.678 256.87 156.612 247.491 158.479 240.183C160.347 232.793 163.108 227.028 166.762 222.887C170.416 218.745 174.923 215.863 180.282 214.238C185.56 212.614 191.651 211.802 198.553 211.802H252.268C262.094 211.802 270.092 210.666 276.264 208.392C282.516 206.037 287.145 202.18 290.15 196.82C293.154 191.38 294.656 184.112 294.656 175.018H313.17ZM168.346 268.319H146.177V240.426H168.346V268.319Z" fill="#EDA122"/>
</g>
<g clip-path="url(#clip1_421_3331)">
<path d="M426.725 267.851H417.221C417.221 254.172 415.181 244.742 411.099 239.562C407.018 234.301 399.89 231.67 389.717 231.67H354.262C346.465 231.67 339.703 230.659 333.976 228.635C328.189 226.612 323.437 223.374 319.721 218.922C315.944 214.471 313.142 208.643 311.315 201.439C309.487 194.155 308.573 185.292 308.573 174.851H322.463C322.463 183.916 323.59 191.16 325.844 196.583C328.037 201.925 331.479 205.77 336.169 208.117C340.86 210.383 346.891 211.516 354.262 211.516H394.56C399.738 211.516 404.337 212.326 408.358 213.945C412.317 215.563 415.668 218.437 418.41 222.565C421.151 226.693 423.222 232.439 424.623 239.805C426.024 247.089 426.725 256.438 426.725 267.851ZM542.5 174.851C542.5 185.292 541.586 194.155 539.759 201.439C537.931 208.643 535.129 214.471 531.352 218.922C527.636 223.374 522.885 226.612 517.098 228.635C511.371 230.659 504.609 231.67 496.811 231.67H461.357C451.184 231.67 444.056 234.301 439.974 239.562C435.893 244.742 433.853 254.172 433.853 267.851H424.349C424.349 256.438 425.05 247.089 426.45 239.805C427.852 232.439 429.923 226.693 432.664 222.565C435.406 218.437 438.787 215.563 442.807 213.945C446.767 212.326 451.336 211.516 456.514 211.516H496.811C504.183 211.516 510.183 210.383 514.813 208.117C519.503 205.77 522.976 201.925 525.23 196.583C527.484 191.16 528.611 183.916 528.611 174.851H542.5ZM433.853 267.851H417.221V240.048H433.853V267.851Z" fill="#EDA122"/>
</g>
<path d="M47.7702 301V287.8H57.0302V289.3H49.3702V293.56H55.3302V295.06H49.3702V299.5H57.3302V301H47.7702ZM68.2441 289.16L68.6041 290.58C68.5907 290.58 68.5707 290.58 68.5441 290.58C68.5174 290.58 68.4907 290.58 68.4641 290.58C67.8107 290.58 67.3041 290.713 66.9441 290.98C66.5974 291.233 66.4241 291.647 66.4241 292.22L65.4441 291.72C65.4441 291.2 65.5641 290.747 65.8041 290.36C66.0441 289.973 66.3707 289.68 66.7841 289.48C67.1974 289.267 67.6507 289.16 68.1441 289.16C68.1574 289.16 68.1707 289.16 68.1841 289.16C68.2107 289.16 68.2307 289.16 68.2441 289.16ZM65.2041 299.72C66.1507 299.72 66.8907 299.94 67.4241 300.38C67.9574 300.807 68.2241 301.38 68.2241 302.1C68.2241 302.753 68.0041 303.32 67.5641 303.8C67.1374 304.28 66.5574 304.647 65.8241 304.9C65.1041 305.167 64.2907 305.3 63.3841 305.3C61.8107 305.3 60.6307 305.033 59.8441 304.5C59.0707 303.967 58.6841 303.327 58.6841 302.58C58.6841 302.047 58.8574 301.567 59.2041 301.14C59.5641 300.727 60.1641 300.493 61.0041 300.44L60.8641 300.74C60.4107 300.62 60.0241 300.42 59.7041 300.14C59.3974 299.847 59.2441 299.427 59.2441 298.88C59.2441 298.333 59.4441 297.867 59.8441 297.48C60.2574 297.08 60.8641 296.833 61.6641 296.74L62.7241 297.28H62.5241C61.8707 297.347 61.4041 297.513 61.1241 297.78C60.8574 298.033 60.7241 298.313 60.7241 298.62C60.7241 298.993 60.8574 299.273 61.1241 299.46C61.4041 299.633 61.7907 299.72 62.2841 299.72H65.2041ZM63.3641 303.96C64.1374 303.96 64.7707 303.88 65.2641 303.72C65.7707 303.56 66.1441 303.353 66.3841 303.1C66.6241 302.847 66.7441 302.573 66.7441 302.28C66.7441 301.92 66.5974 301.633 66.3041 301.42C66.0241 301.207 65.5107 301.1 64.7641 301.1H61.6841C61.2574 301.1 60.8974 301.207 60.6041 301.42C60.3107 301.647 60.1641 301.953 60.1641 302.34C60.1641 302.833 60.4441 303.227 61.0041 303.52C61.5774 303.813 62.3641 303.96 63.3641 303.96ZM63.2241 290.8C64.0241 290.8 64.7307 290.947 65.3441 291.24C65.9707 291.52 66.4574 291.913 66.8041 292.42C67.1507 292.927 67.3241 293.513 67.3241 294.18C67.3241 294.833 67.1507 295.42 66.8041 295.94C66.4574 296.447 65.9707 296.847 65.3441 297.14C64.7307 297.42 64.0241 297.56 63.2241 297.56C61.9041 297.56 60.8907 297.247 60.1841 296.62C59.4774 295.98 59.1241 295.167 59.1241 294.18C59.1241 293.513 59.2974 292.927 59.6441 292.42C60.0041 291.913 60.4907 291.52 61.1041 291.24C61.7174 290.947 62.4241 290.8 63.2241 290.8ZM63.2241 292.1C62.5307 292.1 61.9507 292.293 61.4841 292.68C61.0174 293.053 60.7841 293.553 60.7841 294.18C60.7841 294.793 61.0174 295.293 61.4841 295.68C61.9507 296.067 62.5307 296.26 63.2241 296.26C63.9174 296.26 64.4974 296.067 64.9641 295.68C65.4307 295.293 65.6641 294.793 65.6641 294.18C65.6641 293.553 65.4307 293.053 64.9641 292.68C64.4974 292.293 63.9174 292.1 63.2241 292.1ZM78.2886 291L73.5886 302.68C73.3353 303.333 73.0553 303.847 72.7486 304.22C72.4553 304.607 72.1219 304.88 71.7486 305.04C71.3886 305.213 70.9686 305.3 70.4886 305.3C70.0353 305.3 69.6153 305.233 69.2286 305.1C68.8553 304.98 68.5219 304.813 68.2286 304.6L68.6686 303.2C68.9353 303.44 69.2153 303.613 69.5086 303.72C69.8153 303.84 70.1153 303.9 70.4086 303.9C70.7553 303.9 71.0819 303.793 71.3886 303.58C71.6953 303.367 71.9753 302.933 72.2286 302.28L72.7486 300.98L71.7486 298.6L68.5686 291H70.3886L72.8886 297.52L73.5086 299.3L74.2286 297.32L76.5686 291H78.2886ZM79.9811 305.2V291H81.3811L81.5211 293.44L81.3011 293.16C81.4744 292.693 81.7344 292.287 82.0811 291.94C82.4278 291.58 82.8478 291.3 83.3411 291.1C83.8344 290.9 84.3678 290.8 84.9411 290.8C85.7544 290.8 86.5011 291.007 87.1811 291.42C87.8744 291.833 88.4278 292.427 88.8411 293.2C89.2544 293.973 89.4611 294.907 89.4611 296C89.4611 297.08 89.2478 298.013 88.8211 298.8C88.4078 299.573 87.8544 300.167 87.1611 300.58C86.4678 300.993 85.7078 301.2 84.8811 301.2C84.0544 301.2 83.3278 301 82.7011 300.6C82.0878 300.187 81.6478 299.667 81.3811 299.04L81.5811 298.74V305.2H79.9811ZM84.7211 299.8C85.7078 299.8 86.4744 299.453 87.0211 298.76C87.5811 298.067 87.8611 297.147 87.8611 296C87.8611 294.853 87.5878 293.933 87.0411 293.24C86.5078 292.547 85.7544 292.2 84.7811 292.2C84.1411 292.2 83.5811 292.36 83.1011 292.68C82.6211 292.987 82.2478 293.427 81.9811 294C81.7144 294.56 81.5811 295.227 81.5811 296C81.5811 296.76 81.7078 297.427 81.9611 298C82.2278 298.573 82.5944 299.02 83.0611 299.34C83.5411 299.647 84.0944 299.8 84.7211 299.8ZM94.3044 288.16V298.24C94.3044 298.733 94.4444 299.1 94.7244 299.34C95.0044 299.58 95.3644 299.7 95.8044 299.7C96.191 299.7 96.5244 299.633 96.8044 299.5C97.0844 299.367 97.3377 299.187 97.5644 298.96L98.1244 300.3C97.8177 300.58 97.451 300.8 97.0244 300.96C96.611 301.12 96.131 301.2 95.5844 301.2C95.0777 301.2 94.6044 301.113 94.1644 300.94C93.7244 300.753 93.371 300.467 93.1044 300.08C92.851 299.68 92.7177 299.16 92.7044 298.52V288.6L94.3044 288.16ZM97.9444 291V292.38H90.7044V291H97.9444ZM118.43 291H120.21L116.73 301H115.13L112.31 293.04L109.65 301H108.05L104.57 291H106.35L108.87 299.14L111.59 291H113.19L115.91 299.14L118.43 291ZM127.834 294.54C127.834 293.793 127.634 293.22 127.234 292.82C126.834 292.407 126.268 292.2 125.534 292.2C124.841 292.2 124.254 292.353 123.774 292.66C123.294 292.953 122.941 293.433 122.714 294.1L121.414 293.3C121.681 292.553 122.174 291.953 122.894 291.5C123.614 291.033 124.508 290.8 125.574 290.8C126.294 290.8 126.948 290.927 127.534 291.18C128.121 291.42 128.581 291.793 128.914 292.3C129.261 292.793 129.434 293.433 129.434 294.22V299.06C129.434 299.54 129.688 299.78 130.194 299.78C130.448 299.78 130.694 299.747 130.934 299.68L130.854 300.94C130.588 301.073 130.241 301.14 129.814 301.14C129.428 301.14 129.081 301.067 128.774 300.92C128.468 300.773 128.228 300.553 128.054 300.26C127.881 299.953 127.794 299.573 127.794 299.12V298.92L128.194 298.98C128.034 299.5 127.761 299.927 127.374 300.26C126.988 300.58 126.554 300.82 126.074 300.98C125.594 301.127 125.121 301.2 124.654 301.2C124.068 301.2 123.521 301.1 123.014 300.9C122.508 300.7 122.101 300.4 121.794 300C121.501 299.587 121.354 299.08 121.354 298.48C121.354 297.733 121.601 297.12 122.094 296.64C122.601 296.147 123.301 295.813 124.194 295.64L128.154 294.86V296.18L124.934 296.84C124.281 296.973 123.794 297.16 123.474 297.4C123.154 297.64 122.994 297.973 122.994 298.4C122.994 298.813 123.154 299.153 123.474 299.42C123.808 299.673 124.274 299.8 124.874 299.8C125.261 299.8 125.628 299.753 125.974 299.66C126.334 299.553 126.654 299.4 126.934 299.2C127.214 298.987 127.434 298.727 127.594 298.42C127.754 298.1 127.834 297.727 127.834 297.3V294.54ZM136.523 301.2C135.549 301.2 134.649 300.993 133.823 300.58C133.009 300.167 132.383 299.58 131.943 298.82L133.303 297.84C133.596 298.453 134.023 298.933 134.583 299.28C135.156 299.627 135.843 299.8 136.643 299.8C137.349 299.8 137.903 299.667 138.303 299.4C138.703 299.12 138.903 298.76 138.903 298.32C138.903 298.04 138.809 297.787 138.623 297.56C138.449 297.32 138.109 297.147 137.603 297.04L135.203 296.54C134.229 296.34 133.529 296.007 133.103 295.54C132.689 295.073 132.483 294.493 132.483 293.8C132.483 293.253 132.636 292.753 132.943 292.3C133.263 291.847 133.709 291.487 134.283 291.22C134.869 290.94 135.556 290.8 136.342 290.8C137.329 290.8 138.163 290.993 138.843 291.38C139.523 291.767 140.029 292.313 140.363 293.02L139.023 293.9C138.796 293.313 138.429 292.887 137.923 292.62C137.416 292.34 136.889 292.2 136.342 292.2C135.863 292.2 135.449 292.267 135.103 292.4C134.769 292.533 134.509 292.72 134.323 292.96C134.149 293.187 134.063 293.447 134.063 293.74C134.063 294.033 134.163 294.307 134.363 294.56C134.563 294.8 134.936 294.973 135.483 295.08L137.983 295.6C138.916 295.787 139.569 296.093 139.943 296.52C140.316 296.947 140.503 297.467 140.503 298.08C140.503 298.707 140.336 299.26 140.003 299.74C139.669 300.207 139.203 300.567 138.603 300.82C138.003 301.073 137.309 301.2 136.523 301.2ZM153.626 290.8C154.319 290.8 154.926 290.907 155.446 291.12C155.979 291.333 156.439 291.64 156.826 292.04C157.212 292.44 157.526 292.913 157.766 293.46L156.246 294.18C156.032 293.54 155.706 293.053 155.266 292.72C154.839 292.373 154.279 292.2 153.586 292.2C152.919 292.2 152.346 292.353 151.866 292.66C151.386 292.953 151.019 293.387 150.766 293.96C150.512 294.52 150.386 295.2 150.386 296C150.386 296.787 150.512 297.467 150.766 298.04C151.019 298.613 151.386 299.053 151.866 299.36C152.346 299.653 152.919 299.8 153.586 299.8C154.106 299.8 154.552 299.72 154.926 299.56C155.312 299.4 155.626 299.167 155.866 298.86C156.119 298.553 156.292 298.18 156.386 297.74L157.866 298.26C157.639 298.873 157.326 299.4 156.926 299.84C156.539 300.28 156.066 300.62 155.506 300.86C154.959 301.087 154.332 301.2 153.626 301.2C152.692 301.2 151.859 300.993 151.126 300.58C150.392 300.167 149.819 299.573 149.406 298.8C148.992 298.013 148.786 297.08 148.786 296C148.786 294.92 148.992 293.993 149.406 293.22C149.819 292.433 150.392 291.833 151.126 291.42C151.859 291.007 152.692 290.8 153.626 290.8ZM166.117 294.54C166.117 293.793 165.917 293.22 165.517 292.82C165.117 292.407 164.551 292.2 163.817 292.2C163.124 292.2 162.537 292.353 162.057 292.66C161.577 292.953 161.224 293.433 160.997 294.1L159.697 293.3C159.964 292.553 160.457 291.953 161.177 291.5C161.897 291.033 162.791 290.8 163.857 290.8C164.577 290.8 165.231 290.927 165.817 291.18C166.404 291.42 166.864 291.793 167.197 292.3C167.544 292.793 167.717 293.433 167.717 294.22V299.06C167.717 299.54 167.971 299.78 168.477 299.78C168.731 299.78 168.977 299.747 169.217 299.68L169.137 300.94C168.871 301.073 168.524 301.14 168.097 301.14C167.711 301.14 167.364 301.067 167.057 300.92C166.751 300.773 166.511 300.553 166.337 300.26C166.164 299.953 166.077 299.573 166.077 299.12V298.92L166.477 298.98C166.317 299.5 166.044 299.927 165.657 300.26C165.271 300.58 164.837 300.82 164.357 300.98C163.877 301.127 163.404 301.2 162.937 301.2C162.351 301.2 161.804 301.1 161.297 300.9C160.791 300.7 160.384 300.4 160.077 300C159.784 299.587 159.637 299.08 159.637 298.48C159.637 297.733 159.884 297.12 160.377 296.64C160.884 296.147 161.584 295.813 162.477 295.64L166.437 294.86V296.18L163.217 296.84C162.564 296.973 162.077 297.16 161.757 297.4C161.437 297.64 161.277 297.973 161.277 298.4C161.277 298.813 161.437 299.153 161.757 299.42C162.091 299.673 162.557 299.8 163.157 299.8C163.544 299.8 163.911 299.753 164.257 299.66C164.617 299.553 164.937 299.4 165.217 299.2C165.497 298.987 165.717 298.727 165.877 298.42C166.037 298.1 166.117 297.727 166.117 297.3V294.54ZM172.725 286.4V298.46C172.725 298.967 172.819 299.32 173.005 299.52C173.192 299.707 173.492 299.8 173.905 299.8C174.172 299.8 174.392 299.78 174.565 299.74C174.739 299.7 174.972 299.627 175.265 299.52L175.005 300.92C174.792 301.013 174.559 301.08 174.305 301.12C174.052 301.173 173.792 301.2 173.525 301.2C172.712 301.2 172.105 300.98 171.705 300.54C171.319 300.1 171.125 299.427 171.125 298.52V286.4H172.725ZM178.439 286.4V298.46C178.439 298.967 178.532 299.32 178.719 299.52C178.905 299.707 179.205 299.8 179.619 299.8C179.885 299.8 180.105 299.78 180.279 299.74C180.452 299.7 180.685 299.627 180.979 299.52L180.719 300.92C180.505 301.013 180.272 301.08 180.019 301.12C179.765 301.173 179.505 301.2 179.239 301.2C178.425 301.2 177.819 300.98 177.419 300.54C177.032 300.1 176.839 299.427 176.839 298.52V286.4H178.439ZM186.812 301.2C185.865 301.2 185.019 300.993 184.272 300.58C183.539 300.167 182.965 299.573 182.552 298.8C182.139 298.013 181.932 297.08 181.932 296C181.932 294.92 182.139 293.993 182.552 293.22C182.965 292.433 183.532 291.833 184.252 291.42C184.972 291.007 185.792 290.8 186.712 290.8C187.645 290.8 188.439 291 189.092 291.4C189.759 291.8 190.265 292.347 190.612 293.04C190.959 293.72 191.132 294.487 191.132 295.34C191.132 295.567 191.125 295.773 191.112 295.96C191.099 296.147 191.079 296.313 191.052 296.46H182.972V295.04H190.352L189.532 295.2C189.532 294.24 189.265 293.5 188.732 292.98C188.212 292.46 187.525 292.2 186.672 292.2C186.019 292.2 185.452 292.353 184.972 292.66C184.505 292.953 184.139 293.387 183.872 293.96C183.619 294.52 183.492 295.2 183.492 296C183.492 296.787 183.625 297.467 183.892 298.04C184.159 298.613 184.532 299.053 185.012 299.36C185.505 299.653 186.092 299.8 186.772 299.8C187.505 299.8 188.099 299.66 188.552 299.38C189.019 299.1 189.392 298.72 189.672 298.24L190.932 298.98C190.679 299.433 190.352 299.827 189.952 300.16C189.565 300.493 189.105 300.753 188.572 300.94C188.052 301.113 187.465 301.2 186.812 301.2ZM197.675 301.2C196.848 301.2 196.088 300.993 195.395 300.58C194.702 300.167 194.148 299.573 193.735 298.8C193.322 298.013 193.115 297.08 193.115 296C193.115 294.893 193.335 293.953 193.775 293.18C194.215 292.407 194.795 291.82 195.515 291.42C196.235 291.007 197.008 290.8 197.835 290.8C198.662 290.8 199.375 291.013 199.975 291.44C200.588 291.867 200.995 292.433 201.195 293.14L200.995 293.28V286.4H202.595V301H201.195L201.055 298.58L201.275 298.46C201.182 299.047 200.955 299.547 200.595 299.96C200.248 300.36 199.815 300.667 199.295 300.88C198.788 301.093 198.248 301.2 197.675 301.2ZM197.835 299.8C198.475 299.8 199.028 299.64 199.495 299.32C199.975 299 200.342 298.547 200.595 297.96C200.862 297.36 200.995 296.66 200.995 295.86C200.995 295.1 200.862 294.447 200.595 293.9C200.342 293.353 199.982 292.933 199.515 292.64C199.062 292.347 198.528 292.2 197.915 292.2C196.902 292.2 196.115 292.547 195.555 293.24C194.995 293.933 194.715 294.853 194.715 296C194.715 297.147 194.988 298.067 195.535 298.76C196.082 299.453 196.848 299.8 197.835 299.8ZM222.97 287.8L217.21 293.7L216.97 293.96L213.43 297.58V295.42L220.87 287.8H222.97ZM214.23 287.8V301H212.63V287.8H214.23ZM217.37 292.68L223.03 301H221.11L216.05 293.58L217.37 292.68ZM228.395 301.2C227.449 301.2 226.602 300.993 225.855 300.58C225.122 300.167 224.549 299.573 224.135 298.8C223.722 298.013 223.515 297.08 223.515 296C223.515 294.92 223.722 293.993 224.135 293.22C224.549 292.433 225.115 291.833 225.835 291.42C226.555 291.007 227.375 290.8 228.295 290.8C229.229 290.8 230.022 291 230.675 291.4C231.342 291.8 231.849 292.347 232.195 293.04C232.542 293.72 232.715 294.487 232.715 295.34C232.715 295.567 232.709 295.773 232.695 295.96C232.682 296.147 232.662 296.313 232.635 296.46H224.555V295.04H231.935L231.115 295.2C231.115 294.24 230.849 293.5 230.315 292.98C229.795 292.46 229.109 292.2 228.255 292.2C227.602 292.2 227.035 292.353 226.555 292.66C226.089 292.953 225.722 293.387 225.455 293.96C225.202 294.52 225.075 295.2 225.075 296C225.075 296.787 225.209 297.467 225.475 298.04C225.742 298.613 226.115 299.053 226.595 299.36C227.089 299.653 227.675 299.8 228.355 299.8C229.089 299.8 229.682 299.66 230.135 299.38C230.602 299.1 230.975 298.72 231.255 298.24L232.515 298.98C232.262 299.433 231.935 299.827 231.535 300.16C231.149 300.493 230.689 300.753 230.155 300.94C229.635 301.113 229.049 301.2 228.395 301.2ZM235.358 301V291H236.758L236.858 292.56C237.218 291.947 237.685 291.5 238.258 291.22C238.845 290.94 239.445 290.8 240.058 290.8C240.765 290.8 241.432 290.96 242.058 291.28C242.685 291.6 243.165 292.093 243.498 292.76C243.712 292.307 244.012 291.94 244.398 291.66C244.785 291.367 245.205 291.153 245.658 291.02C246.125 290.873 246.565 290.8 246.978 290.8C247.618 290.8 248.225 290.933 248.798 291.2C249.385 291.467 249.865 291.88 250.238 292.44C250.612 293 250.798 293.72 250.798 294.6V301H249.198V294.76C249.198 293.853 248.972 293.2 248.518 292.8C248.065 292.4 247.505 292.2 246.838 292.2C246.318 292.2 245.832 292.327 245.378 292.58C244.925 292.833 244.558 293.207 244.278 293.7C244.012 294.193 243.878 294.8 243.878 295.52V301H242.278V294.76C242.278 293.853 242.052 293.2 241.598 292.8C241.145 292.4 240.585 292.2 239.918 292.2C239.478 292.2 239.025 292.32 238.558 292.56C238.105 292.787 237.725 293.153 237.418 293.66C237.112 294.167 236.958 294.833 236.958 295.66V301H235.358ZM258.201 301.2C257.254 301.2 256.408 300.993 255.661 300.58C254.928 300.167 254.354 299.573 253.941 298.8C253.528 298.013 253.321 297.08 253.321 296C253.321 294.92 253.528 293.993 253.941 293.22C254.354 292.433 254.921 291.833 255.641 291.42C256.361 291.007 257.181 290.8 258.101 290.8C259.034 290.8 259.828 291 260.481 291.4C261.148 291.8 261.654 292.347 262.001 293.04C262.348 293.72 262.521 294.487 262.521 295.34C262.521 295.567 262.514 295.773 262.501 295.96C262.488 296.147 262.468 296.313 262.441 296.46H254.361V295.04H261.741L260.921 295.2C260.921 294.24 260.654 293.5 260.121 292.98C259.601 292.46 258.914 292.2 258.061 292.2C257.408 292.2 256.841 292.353 256.361 292.66C255.894 292.953 255.528 293.387 255.261 293.96C255.008 294.52 254.881 295.2 254.881 296C254.881 296.787 255.014 297.467 255.281 298.04C255.548 298.613 255.921 299.053 256.401 299.36C256.894 299.653 257.481 299.8 258.161 299.8C258.894 299.8 259.488 299.66 259.941 299.38C260.408 299.1 260.781 298.72 261.061 298.24L262.321 298.98C262.068 299.433 261.741 299.827 261.341 300.16C260.954 300.493 260.494 300.753 259.961 300.94C259.441 301.113 258.854 301.2 258.201 301.2ZM267.231 288.16V298.24C267.231 298.733 267.371 299.1 267.651 299.34C267.931 299.58 268.291 299.7 268.731 299.7C269.118 299.7 269.451 299.633 269.731 299.5C270.011 299.367 270.264 299.187 270.491 298.96L271.051 300.3C270.744 300.58 270.378 300.8 269.951 300.96C269.538 301.12 269.058 301.2 268.511 301.2C268.004 301.2 267.531 301.113 267.091 300.94C266.651 300.753 266.298 300.467 266.031 300.08C265.778 299.68 265.644 299.16 265.631 298.52V288.6L267.231 288.16ZM270.871 291V292.38H263.631V291H270.871ZM77.4655 318.08C77.1055 318.08 76.8121 317.973 76.5855 317.76C76.3721 317.533 76.2655 317.24 76.2655 316.88C76.2655 316.52 76.3721 316.233 76.5855 316.02C76.8121 315.793 77.1055 315.68 77.4655 315.68C77.8255 315.68 78.1121 315.793 78.3255 316.02C78.5521 316.233 78.6655 316.52 78.6655 316.88C78.6655 317.24 78.5521 317.533 78.3255 317.76C78.1121 317.973 77.8255 318.08 77.4655 318.08ZM78.2655 320V330H76.6655V320H78.2655ZM81.578 330V320H82.978L83.118 322.24L82.858 322.02C83.0713 321.487 83.358 321.06 83.718 320.74C84.078 320.407 84.4913 320.167 84.958 320.02C85.438 319.873 85.9313 319.8 86.438 319.8C87.158 319.8 87.8113 319.94 88.398 320.22C88.9846 320.487 89.4513 320.9 89.798 321.46C90.158 322.02 90.338 322.733 90.338 323.6V330H88.738V324.16C88.738 323.053 88.498 322.287 88.018 321.86C87.5513 321.42 86.9713 321.2 86.278 321.2C85.798 321.2 85.318 321.313 84.838 321.54C84.358 321.767 83.958 322.133 83.638 322.64C83.3313 323.147 83.178 323.827 83.178 324.68V330H81.578ZM101.947 317.16V327.24C101.947 327.733 102.087 328.1 102.367 328.34C102.647 328.58 103.007 328.7 103.447 328.7C103.833 328.7 104.167 328.633 104.447 328.5C104.727 328.367 104.98 328.187 105.207 327.96L105.767 329.3C105.46 329.58 105.093 329.8 104.667 329.96C104.253 330.12 103.773 330.2 103.227 330.2C102.72 330.2 102.247 330.113 101.807 329.94C101.367 329.753 101.013 329.467 100.747 329.08C100.493 328.68 100.36 328.16 100.347 327.52V317.6L101.947 317.16ZM105.587 320V321.38H98.3466V320H105.587ZM107.565 330V315.4H109.165V321.5C109.512 320.9 109.972 320.467 110.545 320.2C111.119 319.933 111.745 319.8 112.425 319.8C113.145 319.8 113.799 319.94 114.385 320.22C114.972 320.487 115.439 320.9 115.785 321.46C116.145 322.02 116.325 322.733 116.325 323.6V330H114.725V324.16C114.725 323.053 114.485 322.287 114.005 321.86C113.539 321.42 112.959 321.2 112.265 321.2C111.785 321.2 111.305 321.313 110.825 321.54C110.345 321.767 109.945 322.14 109.625 322.66C109.319 323.167 109.165 323.847 109.165 324.7V330H107.565ZM123.728 330.2C122.782 330.2 121.935 329.993 121.188 329.58C120.455 329.167 119.882 328.573 119.468 327.8C119.055 327.013 118.848 326.08 118.848 325C118.848 323.92 119.055 322.993 119.468 322.22C119.882 321.433 120.448 320.833 121.168 320.42C121.888 320.007 122.708 319.8 123.628 319.8C124.562 319.8 125.355 320 126.008 320.4C126.675 320.8 127.182 321.347 127.528 322.04C127.875 322.72 128.048 323.487 128.048 324.34C128.048 324.567 128.042 324.773 128.028 324.96C128.015 325.147 127.995 325.313 127.968 325.46H119.888V324.04H127.268L126.448 324.2C126.448 323.24 126.182 322.5 125.648 321.98C125.128 321.46 124.442 321.2 123.588 321.2C122.935 321.2 122.368 321.353 121.888 321.66C121.422 321.953 121.055 322.387 120.788 322.96C120.535 323.52 120.408 324.2 120.408 325C120.408 325.787 120.542 326.467 120.808 327.04C121.075 327.613 121.448 328.053 121.928 328.36C122.422 328.653 123.008 328.8 123.688 328.8C124.422 328.8 125.015 328.66 125.468 328.38C125.935 328.1 126.308 327.72 126.588 327.24L127.848 327.98C127.595 328.433 127.268 328.827 126.868 329.16C126.482 329.493 126.022 329.753 125.488 329.94C124.968 330.113 124.382 330.2 123.728 330.2ZM137.108 334.2V320H138.508L138.648 322.44L138.428 322.16C138.601 321.693 138.861 321.287 139.208 320.94C139.554 320.58 139.974 320.3 140.468 320.1C140.961 319.9 141.494 319.8 142.068 319.8C142.881 319.8 143.628 320.007 144.308 320.42C145.001 320.833 145.554 321.427 145.968 322.2C146.381 322.973 146.588 323.907 146.588 325C146.588 326.08 146.374 327.013 145.948 327.8C145.534 328.573 144.981 329.167 144.288 329.58C143.594 329.993 142.834 330.2 142.008 330.2C141.181 330.2 140.454 330 139.828 329.6C139.214 329.187 138.774 328.667 138.508 328.04L138.708 327.74V334.2H137.108ZM141.848 328.8C142.834 328.8 143.601 328.453 144.148 327.76C144.708 327.067 144.988 326.147 144.988 325C144.988 323.853 144.714 322.933 144.168 322.24C143.634 321.547 142.881 321.2 141.908 321.2C141.268 321.2 140.708 321.36 140.228 321.68C139.748 321.987 139.374 322.427 139.108 323C138.841 323.56 138.708 324.227 138.708 325C138.708 325.76 138.834 326.427 139.088 327C139.354 327.573 139.721 328.02 140.188 328.34C140.668 328.647 141.221 328.8 141.848 328.8ZM149.247 330V315.4H150.847V321.5C151.193 320.9 151.653 320.467 152.227 320.2C152.8 319.933 153.427 319.8 154.107 319.8C154.827 319.8 155.48 319.94 156.067 320.22C156.653 320.487 157.12 320.9 157.467 321.46C157.827 322.02 158.007 322.733 158.007 323.6V330H156.407V324.16C156.407 323.053 156.167 322.287 155.687 321.86C155.22 321.42 154.64 321.2 153.947 321.2C153.467 321.2 152.987 321.313 152.507 321.54C152.027 321.767 151.627 322.14 151.307 322.66C151 323.167 150.847 323.847 150.847 324.7V330H149.247ZM167.07 323.54C167.07 322.793 166.87 322.22 166.47 321.82C166.07 321.407 165.503 321.2 164.77 321.2C164.076 321.2 163.49 321.353 163.01 321.66C162.53 321.953 162.176 322.433 161.95 323.1L160.65 322.3C160.916 321.553 161.41 320.953 162.13 320.5C162.85 320.033 163.743 319.8 164.81 319.8C165.53 319.8 166.183 319.927 166.77 320.18C167.356 320.42 167.816 320.793 168.15 321.3C168.496 321.793 168.67 322.433 168.67 323.22V328.06C168.67 328.54 168.923 328.78 169.43 328.78C169.683 328.78 169.93 328.747 170.17 328.68L170.09 329.94C169.823 330.073 169.476 330.14 169.05 330.14C168.663 330.14 168.316 330.067 168.01 329.92C167.703 329.773 167.463 329.553 167.29 329.26C167.116 328.953 167.03 328.573 167.03 328.12V327.92L167.43 327.98C167.27 328.5 166.996 328.927 166.61 329.26C166.223 329.58 165.79 329.82 165.31 329.98C164.83 330.127 164.356 330.2 163.89 330.2C163.303 330.2 162.756 330.1 162.25 329.9C161.743 329.7 161.336 329.4 161.03 329C160.736 328.587 160.59 328.08 160.59 327.48C160.59 326.733 160.836 326.12 161.33 325.64C161.836 325.147 162.536 324.813 163.43 324.64L167.39 323.86V325.18L164.17 325.84C163.516 325.973 163.03 326.16 162.71 326.4C162.39 326.64 162.23 326.973 162.23 327.4C162.23 327.813 162.39 328.153 162.71 328.42C163.043 328.673 163.51 328.8 164.11 328.8C164.496 328.8 164.863 328.753 165.21 328.66C165.57 328.553 165.89 328.4 166.17 328.2C166.45 327.987 166.67 327.727 166.83 327.42C166.99 327.1 167.07 326.727 167.07 326.3V323.54ZM172.158 330V320H173.458L173.678 321.64C173.958 321.027 174.364 320.567 174.898 320.26C175.444 319.953 176.104 319.8 176.878 319.8C177.051 319.8 177.238 319.813 177.438 319.84C177.651 319.867 177.831 319.92 177.978 320L177.698 321.46C177.551 321.407 177.391 321.367 177.218 321.34C177.044 321.313 176.798 321.3 176.478 321.3C176.064 321.3 175.644 321.42 175.218 321.66C174.804 321.9 174.458 322.267 174.178 322.76C173.898 323.24 173.758 323.853 173.758 324.6V330H172.158ZM183.749 319.8C184.696 319.8 185.529 320.007 186.249 320.42C186.983 320.833 187.556 321.433 187.969 322.22C188.383 322.993 188.589 323.92 188.589 325C188.589 326.08 188.383 327.013 187.969 327.8C187.556 328.573 186.983 329.167 186.249 329.58C185.529 329.993 184.696 330.2 183.749 330.2C182.816 330.2 181.983 329.993 181.249 329.58C180.516 329.167 179.943 328.573 179.529 327.8C179.116 327.013 178.909 326.08 178.909 325C178.909 323.92 179.116 322.993 179.529 322.22C179.943 321.433 180.516 320.833 181.249 320.42C181.983 320.007 182.816 319.8 183.749 319.8ZM183.749 321.18C183.069 321.18 182.489 321.333 182.009 321.64C181.529 321.947 181.156 322.387 180.889 322.96C180.636 323.52 180.509 324.2 180.509 325C180.509 325.787 180.636 326.467 180.889 327.04C181.156 327.613 181.529 328.053 182.009 328.36C182.489 328.667 183.069 328.82 183.749 328.82C184.429 328.82 185.009 328.667 185.489 328.36C185.969 328.053 186.336 327.613 186.589 327.04C186.856 326.467 186.989 325.787 186.989 325C186.989 324.2 186.856 323.52 186.589 322.96C186.336 322.387 185.969 321.947 185.489 321.64C185.009 321.333 184.429 321.18 183.749 321.18ZM194.801 330.2C193.828 330.2 192.928 329.993 192.101 329.58C191.288 329.167 190.661 328.58 190.221 327.82L191.581 326.84C191.875 327.453 192.301 327.933 192.861 328.28C193.435 328.627 194.121 328.8 194.921 328.8C195.628 328.8 196.181 328.667 196.581 328.4C196.981 328.12 197.181 327.76 197.181 327.32C197.181 327.04 197.088 326.787 196.901 326.56C196.728 326.32 196.388 326.147 195.881 326.04L193.481 325.54C192.508 325.34 191.808 325.007 191.381 324.54C190.968 324.073 190.761 323.493 190.761 322.8C190.761 322.253 190.915 321.753 191.221 321.3C191.541 320.847 191.988 320.487 192.561 320.22C193.148 319.94 193.835 319.8 194.621 319.8C195.608 319.8 196.441 319.993 197.121 320.38C197.801 320.767 198.308 321.313 198.641 322.02L197.301 322.9C197.075 322.313 196.708 321.887 196.201 321.62C195.695 321.34 195.168 321.2 194.621 321.2C194.141 321.2 193.728 321.267 193.381 321.4C193.048 321.533 192.788 321.72 192.601 321.96C192.428 322.187 192.341 322.447 192.341 322.74C192.341 323.033 192.441 323.307 192.641 323.56C192.841 323.8 193.215 323.973 193.761 324.08L196.261 324.6C197.195 324.787 197.848 325.093 198.221 325.52C198.595 325.947 198.781 326.467 198.781 327.08C198.781 327.707 198.615 328.26 198.281 328.74C197.948 329.207 197.481 329.567 196.881 329.82C196.281 330.073 195.588 330.2 194.801 330.2ZM209.734 317.16V327.24C209.734 327.733 209.874 328.1 210.154 328.34C210.434 328.58 210.794 328.7 211.234 328.7C211.621 328.7 211.954 328.633 212.234 328.5C212.514 328.367 212.767 328.187 212.994 327.96L213.554 329.3C213.247 329.58 212.881 329.8 212.454 329.96C212.041 330.12 211.561 330.2 211.014 330.2C210.507 330.2 210.034 330.113 209.594 329.94C209.154 329.753 208.801 329.467 208.534 329.08C208.281 328.68 208.147 328.16 208.134 327.52V317.6L209.734 317.16ZM213.374 320V321.38H206.134V320H213.374ZM216.153 318.08C215.793 318.08 215.5 317.973 215.273 317.76C215.06 317.533 214.953 317.24 214.953 316.88C214.953 316.52 215.06 316.233 215.273 316.02C215.5 315.793 215.793 315.68 216.153 315.68C216.513 315.68 216.8 315.793 217.013 316.02C217.24 316.233 217.353 316.52 217.353 316.88C217.353 317.24 217.24 317.533 217.013 317.76C216.8 317.973 216.513 318.08 216.153 318.08ZM216.953 320V330H215.353V320H216.953ZM220.265 330V320H221.665L221.765 321.56C222.125 320.947 222.592 320.5 223.165 320.22C223.752 319.94 224.352 319.8 224.965 319.8C225.672 319.8 226.339 319.96 226.965 320.28C227.592 320.6 228.072 321.093 228.405 321.76C228.619 321.307 228.919 320.94 229.305 320.66C229.692 320.367 230.112 320.153 230.565 320.02C231.032 319.873 231.472 319.8 231.885 319.8C232.525 319.8 233.132 319.933 233.705 320.2C234.292 320.467 234.772 320.88 235.145 321.44C235.519 322 235.705 322.72 235.705 323.6V330H234.105V323.76C234.105 322.853 233.879 322.2 233.425 321.8C232.972 321.4 232.412 321.2 231.745 321.2C231.225 321.2 230.739 321.327 230.285 321.58C229.832 321.833 229.465 322.207 229.185 322.7C228.919 323.193 228.785 323.8 228.785 324.52V330H227.185V323.76C227.185 322.853 226.959 322.2 226.505 321.8C226.052 321.4 225.492 321.2 224.825 321.2C224.385 321.2 223.932 321.32 223.465 321.56C223.012 321.787 222.632 322.153 222.325 322.66C222.019 323.167 221.865 323.833 221.865 324.66V330H220.265ZM243.108 330.2C242.161 330.2 241.315 329.993 240.568 329.58C239.835 329.167 239.261 328.573 238.848 327.8C238.435 327.013 238.228 326.08 238.228 325C238.228 323.92 238.435 322.993 238.848 322.22C239.261 321.433 239.828 320.833 240.548 320.42C241.268 320.007 242.088 319.8 243.008 319.8C243.941 319.8 244.735 320 245.388 320.4C246.055 320.8 246.561 321.347 246.908 322.04C247.255 322.72 247.428 323.487 247.428 324.34C247.428 324.567 247.421 324.773 247.408 324.96C247.395 325.147 247.375 325.313 247.348 325.46H239.268V324.04H246.648L245.828 324.2C245.828 323.24 245.561 322.5 245.028 321.98C244.508 321.46 243.821 321.2 242.968 321.2C242.315 321.2 241.748 321.353 241.268 321.66C240.801 321.953 240.435 322.387 240.168 322.96C239.915 323.52 239.788 324.2 239.788 325C239.788 325.787 239.921 326.467 240.188 327.04C240.455 327.613 240.828 328.053 241.308 328.36C241.801 328.653 242.388 328.8 243.068 328.8C243.801 328.8 244.395 328.66 244.848 328.38C245.315 328.1 245.688 327.72 245.968 327.24L247.228 327.98C246.975 328.433 246.648 328.827 246.248 329.16C245.861 329.493 245.401 329.753 244.868 329.94C244.348 330.113 243.761 330.2 243.108 330.2Z" fill="#2E3D49"/>
<path d="M340.328 289.3H332.688V293.56H338.648V295.06H332.688V301H331.088V287.8H340.328V289.3ZM345.641 290.8C346.588 290.8 347.421 291.007 348.141 291.42C348.875 291.833 349.448 292.433 349.861 293.22C350.275 293.993 350.481 294.92 350.481 296C350.481 297.08 350.275 298.013 349.861 298.8C349.448 299.573 348.875 300.167 348.141 300.58C347.421 300.993 346.588 301.2 345.641 301.2C344.708 301.2 343.875 300.993 343.141 300.58C342.408 300.167 341.835 299.573 341.421 298.8C341.008 298.013 340.801 297.08 340.801 296C340.801 294.92 341.008 293.993 341.421 293.22C341.835 292.433 342.408 291.833 343.141 291.42C343.875 291.007 344.708 290.8 345.641 290.8ZM345.641 292.18C344.961 292.18 344.381 292.333 343.901 292.64C343.421 292.947 343.048 293.387 342.781 293.96C342.528 294.52 342.401 295.2 342.401 296C342.401 296.787 342.528 297.467 342.781 298.04C343.048 298.613 343.421 299.053 343.901 299.36C344.381 299.667 344.961 299.82 345.641 299.82C346.321 299.82 346.901 299.667 347.381 299.36C347.861 299.053 348.228 298.613 348.481 298.04C348.748 297.467 348.881 296.787 348.881 296C348.881 295.2 348.748 294.52 348.481 293.96C348.228 293.387 347.861 292.947 347.381 292.64C346.901 292.333 346.321 292.18 345.641 292.18ZM357.234 290.8C357.927 290.8 358.534 290.907 359.054 291.12C359.587 291.333 360.047 291.64 360.434 292.04C360.82 292.44 361.134 292.913 361.374 293.46L359.854 294.18C359.64 293.54 359.314 293.053 358.874 292.72C358.447 292.373 357.887 292.2 357.194 292.2C356.527 292.2 355.954 292.353 355.474 292.66C354.994 292.953 354.627 293.387 354.374 293.96C354.12 294.52 353.994 295.2 353.994 296C353.994 296.787 354.12 297.467 354.374 298.04C354.627 298.613 354.994 299.053 355.474 299.36C355.954 299.653 356.527 299.8 357.194 299.8C357.714 299.8 358.16 299.72 358.534 299.56C358.92 299.4 359.234 299.167 359.474 298.86C359.727 298.553 359.9 298.18 359.994 297.74L361.474 298.26C361.247 298.873 360.934 299.4 360.534 299.84C360.147 300.28 359.674 300.62 359.114 300.86C358.567 301.087 357.94 301.2 357.234 301.2C356.3 301.2 355.467 300.993 354.734 300.58C354 300.167 353.427 299.573 353.014 298.8C352.6 298.013 352.394 297.08 352.394 296C352.394 294.92 352.6 293.993 353.014 293.22C353.427 292.433 354 291.833 354.734 291.42C355.467 291.007 356.3 290.8 357.234 290.8ZM367.505 301.2C366.865 301.2 366.258 301.08 365.685 300.84C365.125 300.6 364.665 300.213 364.305 299.68C363.958 299.133 363.785 298.427 363.785 297.56V291H365.385V297.14C365.385 298.153 365.605 298.853 366.045 299.24C366.485 299.613 367.105 299.8 367.905 299.8C368.278 299.8 368.645 299.74 369.005 299.62C369.365 299.487 369.685 299.287 369.965 299.02C370.258 298.74 370.485 298.387 370.645 297.96C370.818 297.533 370.905 297.027 370.905 296.44V291H372.505V301H371.105L371.005 299.48C370.658 300.08 370.185 300.52 369.585 300.8C368.998 301.067 368.305 301.2 367.505 301.2ZM379.429 301.2C378.455 301.2 377.555 300.993 376.729 300.58C375.915 300.167 375.289 299.58 374.849 298.82L376.209 297.84C376.502 298.453 376.929 298.933 377.489 299.28C378.062 299.627 378.749 299.8 379.549 299.8C380.255 299.8 380.809 299.667 381.209 299.4C381.609 299.12 381.809 298.76 381.809 298.32C381.809 298.04 381.715 297.787 381.529 297.56C381.355 297.32 381.015 297.147 380.509 297.04L378.109 296.54C377.135 296.34 376.435 296.007 376.009 295.54C375.595 295.073 375.389 294.493 375.389 293.8C375.389 293.253 375.542 292.753 375.849 292.3C376.169 291.847 376.615 291.487 377.189 291.22C377.775 290.94 378.462 290.8 379.249 290.8C380.235 290.8 381.069 290.993 381.749 291.38C382.429 291.767 382.935 292.313 383.269 293.02L381.929 293.9C381.702 293.313 381.335 292.887 380.829 292.62C380.322 292.34 379.795 292.2 379.249 292.2C378.769 292.2 378.355 292.267 378.009 292.4C377.675 292.533 377.415 292.72 377.229 292.96C377.055 293.187 376.969 293.447 376.969 293.74C376.969 294.033 377.069 294.307 377.269 294.56C377.469 294.8 377.842 294.973 378.389 295.08L380.889 295.6C381.822 295.787 382.475 296.093 382.849 296.52C383.222 296.947 383.409 297.467 383.409 298.08C383.409 298.707 383.242 299.26 382.909 299.74C382.575 300.207 382.109 300.567 381.509 300.82C380.909 301.073 380.215 301.2 379.429 301.2ZM396.532 290.8C397.479 290.8 398.312 291.007 399.032 291.42C399.765 291.833 400.339 292.433 400.752 293.22C401.165 293.993 401.372 294.92 401.372 296C401.372 297.08 401.165 298.013 400.752 298.8C400.339 299.573 399.765 300.167 399.032 300.58C398.312 300.993 397.479 301.2 396.532 301.2C395.599 301.2 394.765 300.993 394.032 300.58C393.299 300.167 392.725 299.573 392.312 298.8C391.899 298.013 391.692 297.08 391.692 296C391.692 294.92 391.899 293.993 392.312 293.22C392.725 292.433 393.299 291.833 394.032 291.42C394.765 291.007 395.599 290.8 396.532 290.8ZM396.532 292.18C395.852 292.18 395.272 292.333 394.792 292.64C394.312 292.947 393.939 293.387 393.672 293.96C393.419 294.52 393.292 295.2 393.292 296C393.292 296.787 393.419 297.467 393.672 298.04C393.939 298.613 394.312 299.053 394.792 299.36C395.272 299.667 395.852 299.82 396.532 299.82C397.212 299.82 397.792 299.667 398.272 299.36C398.752 299.053 399.119 298.613 399.372 298.04C399.639 297.467 399.772 296.787 399.772 296C399.772 295.2 399.639 294.52 399.372 293.96C399.119 293.387 398.752 292.947 398.272 292.64C397.792 292.333 397.212 292.18 396.532 292.18ZM403.984 301V291H405.384L405.524 293.24L405.264 293.02C405.478 292.487 405.764 292.06 406.124 291.74C406.484 291.407 406.898 291.167 407.364 291.02C407.844 290.873 408.338 290.8 408.844 290.8C409.564 290.8 410.218 290.94 410.804 291.22C411.391 291.487 411.858 291.9 412.204 292.46C412.564 293.02 412.744 293.733 412.744 294.6V301H411.144V295.16C411.144 294.053 410.904 293.287 410.424 292.86C409.958 292.42 409.378 292.2 408.684 292.2C408.204 292.2 407.724 292.313 407.244 292.54C406.764 292.767 406.364 293.133 406.044 293.64C405.738 294.147 405.584 294.827 405.584 295.68V301H403.984ZM426.563 301.2C425.617 301.2 424.77 300.993 424.023 300.58C423.29 300.167 422.717 299.573 422.303 298.8C421.89 298.013 421.683 297.08 421.683 296C421.683 294.92 421.89 293.993 422.303 293.22C422.717 292.433 423.283 291.833 424.003 291.42C424.723 291.007 425.543 290.8 426.463 290.8C427.397 290.8 428.19 291 428.843 291.4C429.51 291.8 430.017 292.347 430.363 293.04C430.71 293.72 430.883 294.487 430.883 295.34C430.883 295.567 430.877 295.773 430.863 295.96C430.85 296.147 430.83 296.313 430.803 296.46H422.723V295.04H430.103L429.283 295.2C429.283 294.24 429.017 293.5 428.483 292.98C427.963 292.46 427.277 292.2 426.423 292.2C425.77 292.2 425.203 292.353 424.723 292.66C424.257 292.953 423.89 293.387 423.623 293.96C423.37 294.52 423.243 295.2 423.243 296C423.243 296.787 423.377 297.467 423.643 298.04C423.91 298.613 424.283 299.053 424.763 299.36C425.257 299.653 425.843 299.8 426.523 299.8C427.257 299.8 427.85 299.66 428.303 299.38C428.77 299.1 429.143 298.72 429.423 298.24L430.683 298.98C430.43 299.433 430.103 299.827 429.703 300.16C429.317 300.493 428.857 300.753 428.323 300.94C427.803 301.113 427.217 301.2 426.563 301.2ZM439.873 291H441.553L437.393 301H435.793L431.633 291H433.453L436.613 299.38L439.873 291ZM447.424 301.2C446.477 301.2 445.63 300.993 444.884 300.58C444.15 300.167 443.577 299.573 443.164 298.8C442.75 298.013 442.544 297.08 442.544 296C442.544 294.92 442.75 293.993 443.164 293.22C443.577 292.433 444.144 291.833 444.864 291.42C445.584 291.007 446.404 290.8 447.324 290.8C448.257 290.8 449.05 291 449.704 291.4C450.37 291.8 450.877 292.347 451.224 293.04C451.57 293.72 451.744 294.487 451.744 295.34C451.744 295.567 451.737 295.773 451.724 295.96C451.71 296.147 451.69 296.313 451.664 296.46H443.584V295.04H450.964L450.144 295.2C450.144 294.24 449.877 293.5 449.344 292.98C448.824 292.46 448.137 292.2 447.284 292.2C446.63 292.2 446.064 292.353 445.584 292.66C445.117 292.953 444.75 293.387 444.484 293.96C444.23 294.52 444.104 295.2 444.104 296C444.104 296.787 444.237 297.467 444.504 298.04C444.77 298.613 445.144 299.053 445.624 299.36C446.117 299.653 446.704 299.8 447.384 299.8C448.117 299.8 448.71 299.66 449.164 299.38C449.63 299.1 450.004 298.72 450.284 298.24L451.544 298.98C451.29 299.433 450.964 299.827 450.564 300.16C450.177 300.493 449.717 300.753 449.184 300.94C448.664 301.113 448.077 301.2 447.424 301.2ZM454.387 301V291H455.687L455.907 292.64C456.187 292.027 456.593 291.567 457.127 291.26C457.673 290.953 458.333 290.8 459.107 290.8C459.28 290.8 459.467 290.813 459.667 290.84C459.88 290.867 460.06 290.92 460.207 291L459.927 292.46C459.78 292.407 459.62 292.367 459.447 292.34C459.273 292.313 459.027 292.3 458.707 292.3C458.293 292.3 457.873 292.42 457.447 292.66C457.033 292.9 456.687 293.267 456.407 293.76C456.127 294.24 455.987 294.853 455.987 295.6V301H454.387ZM470.371 291L465.671 302.68C465.417 303.333 465.137 303.847 464.831 304.22C464.537 304.607 464.204 304.88 463.831 305.04C463.471 305.213 463.051 305.3 462.571 305.3C462.117 305.3 461.697 305.233 461.311 305.1C460.937 304.98 460.604 304.813 460.311 304.6L460.751 303.2C461.017 303.44 461.297 303.613 461.591 303.72C461.897 303.84 462.197 303.9 462.491 303.9C462.837 303.9 463.164 303.793 463.471 303.58C463.777 303.367 464.057 302.933 464.311 302.28L464.831 300.98L463.831 298.6L460.651 291H462.471L464.971 297.52L465.591 299.3L466.311 297.32L468.651 291H470.371ZM479.941 288.16V298.24C479.941 298.733 480.081 299.1 480.361 299.34C480.641 299.58 481.001 299.7 481.441 299.7C481.828 299.7 482.161 299.633 482.441 299.5C482.721 299.367 482.974 299.187 483.201 298.96L483.761 300.3C483.454 300.58 483.088 300.8 482.661 300.96C482.248 301.12 481.768 301.2 481.221 301.2C480.714 301.2 480.241 301.113 479.801 300.94C479.361 300.753 479.008 300.467 478.741 300.08C478.488 299.68 478.354 299.16 478.341 298.52V288.6L479.941 288.16ZM483.581 291V292.38H476.341V291H483.581ZM489.74 301.2C488.793 301.2 487.947 300.993 487.2 300.58C486.467 300.167 485.893 299.573 485.48 298.8C485.067 298.013 484.86 297.08 484.86 296C484.86 294.92 485.067 293.993 485.48 293.22C485.893 292.433 486.46 291.833 487.18 291.42C487.9 291.007 488.72 290.8 489.64 290.8C490.573 290.8 491.367 291 492.02 291.4C492.687 291.8 493.193 292.347 493.54 293.04C493.887 293.72 494.06 294.487 494.06 295.34C494.06 295.567 494.053 295.773 494.04 295.96C494.027 296.147 494.007 296.313 493.98 296.46H485.9V295.04H493.28L492.46 295.2C492.46 294.24 492.193 293.5 491.66 292.98C491.14 292.46 490.453 292.2 489.6 292.2C488.947 292.2 488.38 292.353 487.9 292.66C487.433 292.953 487.067 293.387 486.8 293.96C486.547 294.52 486.42 295.2 486.42 296C486.42 296.787 486.553 297.467 486.82 298.04C487.087 298.613 487.46 299.053 487.94 299.36C488.433 299.653 489.02 299.8 489.7 299.8C490.433 299.8 491.027 299.66 491.48 299.38C491.947 299.1 492.32 298.72 492.6 298.24L493.86 298.98C493.607 299.433 493.28 299.827 492.88 300.16C492.493 300.493 492.033 300.753 491.5 300.94C490.98 301.113 490.393 301.2 489.74 301.2ZM500.843 290.8C501.536 290.8 502.143 290.907 502.663 291.12C503.196 291.333 503.656 291.64 504.043 292.04C504.43 292.44 504.743 292.913 504.983 293.46L503.463 294.18C503.25 293.54 502.923 293.053 502.483 292.72C502.056 292.373 501.496 292.2 500.803 292.2C500.136 292.2 499.563 292.353 499.083 292.66C498.603 292.953 498.236 293.387 497.983 293.96C497.73 294.52 497.603 295.2 497.603 296C497.603 296.787 497.73 297.467 497.983 298.04C498.236 298.613 498.603 299.053 499.083 299.36C499.563 299.653 500.136 299.8 500.803 299.8C501.323 299.8 501.77 299.72 502.143 299.56C502.53 299.4 502.843 299.167 503.083 298.86C503.336 298.553 503.51 298.18 503.603 297.74L505.083 298.26C504.856 298.873 504.543 299.4 504.143 299.84C503.756 300.28 503.283 300.62 502.723 300.86C502.176 301.087 501.55 301.2 500.843 301.2C499.91 301.2 499.076 300.993 498.343 300.58C497.61 300.167 497.036 299.573 496.623 298.8C496.21 298.013 496.003 297.08 496.003 296C496.003 294.92 496.21 293.993 496.623 293.22C497.036 292.433 497.61 291.833 498.343 291.42C499.076 291.007 499.91 290.8 500.843 290.8ZM507.494 301V291H508.894L509.034 293.24L508.774 293.02C508.988 292.487 509.274 292.06 509.634 291.74C509.994 291.407 510.408 291.167 510.874 291.02C511.354 290.873 511.848 290.8 512.354 290.8C513.074 290.8 513.728 290.94 514.314 291.22C514.901 291.487 515.368 291.9 515.714 292.46C516.074 293.02 516.254 293.733 516.254 294.6V301H514.654V295.16C514.654 294.053 514.414 293.287 513.934 292.86C513.468 292.42 512.888 292.2 512.194 292.2C511.714 292.2 511.234 292.313 510.754 292.54C510.274 292.767 509.874 293.133 509.554 293.64C509.248 294.147 509.094 294.827 509.094 295.68V301H507.494ZM523.617 290.8C524.564 290.8 525.397 291.007 526.117 291.42C526.851 291.833 527.424 292.433 527.837 293.22C528.251 293.993 528.457 294.92 528.457 296C528.457 297.08 528.251 298.013 527.837 298.8C527.424 299.573 526.851 300.167 526.117 300.58C525.397 300.993 524.564 301.2 523.617 301.2C522.684 301.2 521.851 300.993 521.117 300.58C520.384 300.167 519.811 299.573 519.397 298.8C518.984 298.013 518.777 297.08 518.777 296C518.777 294.92 518.984 293.993 519.397 293.22C519.811 292.433 520.384 291.833 521.117 291.42C521.851 291.007 522.684 290.8 523.617 290.8ZM523.617 292.18C522.937 292.18 522.357 292.333 521.877 292.64C521.397 292.947 521.024 293.387 520.757 293.96C520.504 294.52 520.377 295.2 520.377 296C520.377 296.787 520.504 297.467 520.757 298.04C521.024 298.613 521.397 299.053 521.877 299.36C522.357 299.667 522.937 299.82 523.617 299.82C524.297 299.82 524.877 299.667 525.357 299.36C525.837 299.053 526.204 298.613 526.457 298.04C526.724 297.467 526.857 296.787 526.857 296C526.857 295.2 526.724 294.52 526.457 293.96C526.204 293.387 525.837 292.947 525.357 292.64C524.877 292.333 524.297 292.18 523.617 292.18ZM532.589 286.4V298.46C532.589 298.967 532.683 299.32 532.869 299.52C533.056 299.707 533.356 299.8 533.769 299.8C534.036 299.8 534.256 299.78 534.429 299.74C534.603 299.7 534.836 299.627 535.129 299.52L534.869 300.92C534.656 301.013 534.423 301.08 534.169 301.12C533.916 301.173 533.656 301.2 533.389 301.2C532.576 301.2 531.969 300.98 531.569 300.54C531.183 300.1 530.989 299.427 530.989 298.52V286.4H532.589ZM540.923 290.8C541.869 290.8 542.703 291.007 543.423 291.42C544.156 291.833 544.729 292.433 545.143 293.22C545.556 293.993 545.763 294.92 545.763 296C545.763 297.08 545.556 298.013 545.143 298.8C544.729 299.573 544.156 300.167 543.423 300.58C542.703 300.993 541.869 301.2 540.923 301.2C539.989 301.2 539.156 300.993 538.423 300.58C537.689 300.167 537.116 299.573 536.703 298.8C536.289 298.013 536.083 297.08 536.083 296C536.083 294.92 536.289 293.993 536.703 293.22C537.116 292.433 537.689 291.833 538.423 291.42C539.156 291.007 539.989 290.8 540.923 290.8ZM540.923 292.18C540.243 292.18 539.663 292.333 539.183 292.64C538.703 292.947 538.329 293.387 538.063 293.96C537.809 294.52 537.683 295.2 537.683 296C537.683 296.787 537.809 297.467 538.063 298.04C538.329 298.613 538.703 299.053 539.183 299.36C539.663 299.667 540.243 299.82 540.923 299.82C541.603 299.82 542.183 299.667 542.663 299.36C543.143 299.053 543.509 298.613 543.763 298.04C544.029 297.467 544.163 296.787 544.163 296C544.163 295.2 544.029 294.52 543.763 293.96C543.509 293.387 543.143 292.947 542.663 292.64C542.183 292.333 541.603 292.18 540.923 292.18ZM556.795 289.16L557.155 290.58C557.141 290.58 557.121 290.58 557.095 290.58C557.068 290.58 557.041 290.58 557.015 290.58C556.361 290.58 555.855 290.713 555.495 290.98C555.148 291.233 554.975 291.647 554.975 292.22L553.995 291.72C553.995 291.2 554.115 290.747 554.355 290.36C554.595 289.973 554.921 289.68 555.335 289.48C555.748 289.267 556.201 289.16 556.695 289.16C556.708 289.16 556.721 289.16 556.735 289.16C556.761 289.16 556.781 289.16 556.795 289.16ZM553.755 299.72C554.701 299.72 555.441 299.94 555.975 300.38C556.508 300.807 556.775 301.38 556.775 302.1C556.775 302.753 556.555 303.32 556.115 303.8C555.688 304.28 555.108 304.647 554.375 304.9C553.655 305.167 552.841 305.3 551.935 305.3C550.361 305.3 549.181 305.033 548.395 304.5C547.621 303.967 547.235 303.327 547.235 302.58C547.235 302.047 547.408 301.567 547.755 301.14C548.115 300.727 548.715 300.493 549.555 300.44L549.415 300.74C548.961 300.62 548.575 300.42 548.255 300.14C547.948 299.847 547.795 299.427 547.795 298.88C547.795 298.333 547.995 297.867 548.395 297.48C548.808 297.08 549.415 296.833 550.215 296.74L551.275 297.28H551.075C550.421 297.347 549.955 297.513 549.675 297.78C549.408 298.033 549.275 298.313 549.275 298.62C549.275 298.993 549.408 299.273 549.675 299.46C549.955 299.633 550.341 299.72 550.835 299.72H553.755ZM551.915 303.96C552.688 303.96 553.321 303.88 553.815 303.72C554.321 303.56 554.695 303.353 554.935 303.1C555.175 302.847 555.295 302.573 555.295 302.28C555.295 301.92 555.148 301.633 554.855 301.42C554.575 301.207 554.061 301.1 553.315 301.1H550.235C549.808 301.1 549.448 301.207 549.155 301.42C548.861 301.647 548.715 301.953 548.715 302.34C548.715 302.833 548.995 303.227 549.555 303.52C550.128 303.813 550.915 303.96 551.915 303.96ZM551.775 290.8C552.575 290.8 553.281 290.947 553.895 291.24C554.521 291.52 555.008 291.913 555.355 292.42C555.701 292.927 555.875 293.513 555.875 294.18C555.875 294.833 555.701 295.42 555.355 295.94C555.008 296.447 554.521 296.847 553.895 297.14C553.281 297.42 552.575 297.56 551.775 297.56C550.455 297.56 549.441 297.247 548.735 296.62C548.028 295.98 547.675 295.167 547.675 294.18C547.675 293.513 547.848 292.927 548.195 292.42C548.555 291.913 549.041 291.52 549.655 291.24C550.268 290.947 550.975 290.8 551.775 290.8ZM551.775 292.1C551.081 292.1 550.501 292.293 550.035 292.68C549.568 293.053 549.335 293.553 549.335 294.18C549.335 294.793 549.568 295.293 550.035 295.68C550.501 296.067 551.081 296.26 551.775 296.26C552.468 296.26 553.048 296.067 553.515 295.68C553.981 295.293 554.215 294.793 554.215 294.18C554.215 293.553 553.981 293.053 553.515 292.68C553.048 292.293 552.468 292.1 551.775 292.1ZM566.839 291L562.139 302.68C561.886 303.333 561.606 303.847 561.299 304.22C561.006 304.607 560.673 304.88 560.299 305.04C559.939 305.213 559.519 305.3 559.039 305.3C558.586 305.3 558.166 305.233 557.779 305.1C557.406 304.98 557.073 304.813 556.779 304.6L557.219 303.2C557.486 303.44 557.766 303.613 558.059 303.72C558.366 303.84 558.666 303.9 558.959 303.9C559.306 303.9 559.633 303.793 559.939 303.58C560.246 303.367 560.526 302.933 560.779 302.28L561.299 300.98L560.299 298.6L557.119 291H558.939L561.439 297.52L562.059 299.3L562.779 297.32L565.119 291H566.839ZM330.853 318.16V328.24C330.853 328.733 330.993 329.1 331.273 329.34C331.553 329.58 331.913 329.7 332.353 329.7C332.74 329.7 333.073 329.633 333.353 329.5C333.633 329.367 333.887 329.187 334.113 328.96L334.673 330.3C334.367 330.58 334 330.8 333.573 330.96C333.16 331.12 332.68 331.2 332.133 331.2C331.627 331.2 331.153 331.113 330.713 330.94C330.273 330.753 329.92 330.467 329.653 330.08C329.4 329.68 329.267 329.16 329.253 328.52V318.6L330.853 318.16ZM334.493 321V322.38H327.253V321H334.493ZM336.472 331V316.4H338.072V322.5C338.419 321.9 338.879 321.467 339.452 321.2C340.025 320.933 340.652 320.8 341.332 320.8C342.052 320.8 342.705 320.94 343.292 321.22C343.879 321.487 344.345 321.9 344.692 322.46C345.052 323.02 345.232 323.733 345.232 324.6V331H343.632V325.16C343.632 324.053 343.392 323.287 342.912 322.86C342.445 322.42 341.865 322.2 341.172 322.2C340.692 322.2 340.212 322.313 339.732 322.54C339.252 322.767 338.852 323.14 338.532 323.66C338.225 324.167 338.072 324.847 338.072 325.7V331H336.472ZM354.295 324.54C354.295 323.793 354.095 323.22 353.695 322.82C353.295 322.407 352.728 322.2 351.995 322.2C351.302 322.2 350.715 322.353 350.235 322.66C349.755 322.953 349.402 323.433 349.175 324.1L347.875 323.3C348.142 322.553 348.635 321.953 349.355 321.5C350.075 321.033 350.968 320.8 352.035 320.8C352.755 320.8 353.408 320.927 353.995 321.18C354.582 321.42 355.042 321.793 355.375 322.3C355.722 322.793 355.895 323.433 355.895 324.22V329.06C355.895 329.54 356.148 329.78 356.655 329.78C356.908 329.78 357.155 329.747 357.395 329.68L357.315 330.94C357.048 331.073 356.702 331.14 356.275 331.14C355.888 331.14 355.542 331.067 355.235 330.92C354.928 330.773 354.688 330.553 354.515 330.26C354.342 329.953 354.255 329.573 354.255 329.12V328.92L354.655 328.98C354.495 329.5 354.222 329.927 353.835 330.26C353.448 330.58 353.015 330.82 352.535 330.98C352.055 331.127 351.582 331.2 351.115 331.2C350.528 331.2 349.982 331.1 349.475 330.9C348.968 330.7 348.562 330.4 348.255 330C347.962 329.587 347.815 329.08 347.815 328.48C347.815 327.733 348.062 327.12 348.555 326.64C349.062 326.147 349.762 325.813 350.655 325.64L354.615 324.86V326.18L351.395 326.84C350.742 326.973 350.255 327.16 349.935 327.4C349.615 327.64 349.455 327.973 349.455 328.4C349.455 328.813 349.615 329.153 349.935 329.42C350.268 329.673 350.735 329.8 351.335 329.8C351.722 329.8 352.088 329.753 352.435 329.66C352.795 329.553 353.115 329.4 353.395 329.2C353.675 328.987 353.895 328.727 354.055 328.42C354.215 328.1 354.295 327.727 354.295 327.3V324.54ZM361.352 318.16V328.24C361.352 328.733 361.492 329.1 361.772 329.34C362.052 329.58 362.412 329.7 362.852 329.7C363.239 329.7 363.572 329.633 363.852 329.5C364.132 329.367 364.386 329.187 364.612 328.96L365.172 330.3C364.866 330.58 364.499 330.8 364.072 330.96C363.659 331.12 363.179 331.2 362.632 331.2C362.126 331.2 361.652 331.113 361.212 330.94C360.772 330.753 360.419 330.467 360.152 330.08C359.899 329.68 359.766 329.16 359.752 328.52V318.6L361.352 318.16ZM364.992 321V322.38H357.752V321H364.992ZM374.188 319.08C373.828 319.08 373.534 318.973 373.308 318.76C373.094 318.533 372.988 318.24 372.988 317.88C372.988 317.52 373.094 317.233 373.308 317.02C373.534 316.793 373.828 316.68 374.188 316.68C374.548 316.68 374.834 316.793 375.048 317.02C375.274 317.233 375.388 317.52 375.388 317.88C375.388 318.24 375.274 318.533 375.048 318.76C374.834 318.973 374.548 319.08 374.188 319.08ZM374.988 321V331H373.388V321H374.988ZM378.3 331V321H379.7L379.8 322.56C380.16 321.947 380.627 321.5 381.2 321.22C381.787 320.94 382.387 320.8 383 320.8C383.707 320.8 384.374 320.96 385 321.28C385.627 321.6 386.107 322.093 386.44 322.76C386.654 322.307 386.954 321.94 387.34 321.66C387.727 321.367 388.147 321.153 388.6 321.02C389.067 320.873 389.507 320.8 389.92 320.8C390.56 320.8 391.167 320.933 391.74 321.2C392.327 321.467 392.807 321.88 393.18 322.44C393.554 323 393.74 323.72 393.74 324.6V331H392.14V324.76C392.14 323.853 391.914 323.2 391.46 322.8C391.007 322.4 390.447 322.2 389.78 322.2C389.26 322.2 388.774 322.327 388.32 322.58C387.867 322.833 387.5 323.207 387.22 323.7C386.954 324.193 386.82 324.8 386.82 325.52V331H385.22V324.76C385.22 323.853 384.994 323.2 384.54 322.8C384.087 322.4 383.527 322.2 382.86 322.2C382.42 322.2 381.967 322.32 381.5 322.56C381.047 322.787 380.667 323.153 380.36 323.66C380.054 324.167 379.9 324.833 379.9 325.66V331H378.3ZM396.963 335.2V321H398.363L398.503 323.44L398.283 323.16C398.456 322.693 398.716 322.287 399.063 321.94C399.409 321.58 399.829 321.3 400.323 321.1C400.816 320.9 401.349 320.8 401.923 320.8C402.736 320.8 403.483 321.007 404.163 321.42C404.856 321.833 405.409 322.427 405.823 323.2C406.236 323.973 406.443 324.907 406.443 326C406.443 327.08 406.229 328.013 405.803 328.8C405.389 329.573 404.836 330.167 404.143 330.58C403.449 330.993 402.689 331.2 401.863 331.2C401.036 331.2 400.309 331 399.683 330.6C399.069 330.187 398.629 329.667 398.363 329.04L398.563 328.74V335.2H396.963ZM401.703 329.8C402.689 329.8 403.456 329.453 404.003 328.76C404.563 328.067 404.843 327.147 404.843 326C404.843 324.853 404.569 323.933 404.023 323.24C403.489 322.547 402.736 322.2 401.763 322.2C401.123 322.2 400.563 322.36 400.083 322.68C399.603 322.987 399.229 323.427 398.963 324C398.696 324.56 398.563 325.227 398.563 326C398.563 326.76 398.689 327.427 398.943 328C399.209 328.573 399.576 329.02 400.043 329.34C400.523 329.647 401.076 329.8 401.703 329.8ZM409.102 331V321H410.402L410.622 322.64C410.902 322.027 411.308 321.567 411.842 321.26C412.388 320.953 413.048 320.8 413.822 320.8C413.995 320.8 414.182 320.813 414.382 320.84C414.595 320.867 414.775 320.92 414.922 321L414.642 322.46C414.495 322.407 414.335 322.367 414.162 322.34C413.988 322.313 413.742 322.3 413.422 322.3C413.008 322.3 412.588 322.42 412.162 322.66C411.748 322.9 411.402 323.267 411.122 323.76C410.842 324.24 410.702 324.853 410.702 325.6V331H409.102ZM420.693 320.8C421.64 320.8 422.473 321.007 423.193 321.42C423.927 321.833 424.5 322.433 424.913 323.22C425.327 323.993 425.533 324.92 425.533 326C425.533 327.08 425.327 328.013 424.913 328.8C424.5 329.573 423.927 330.167 423.193 330.58C422.473 330.993 421.64 331.2 420.693 331.2C419.76 331.2 418.927 330.993 418.193 330.58C417.46 330.167 416.887 329.573 416.473 328.8C416.06 328.013 415.853 327.08 415.853 326C415.853 324.92 416.06 323.993 416.473 323.22C416.887 322.433 417.46 321.833 418.193 321.42C418.927 321.007 419.76 320.8 420.693 320.8ZM420.693 322.18C420.013 322.18 419.433 322.333 418.953 322.64C418.473 322.947 418.1 323.387 417.833 323.96C417.58 324.52 417.453 325.2 417.453 326C417.453 326.787 417.58 327.467 417.833 328.04C418.1 328.613 418.473 329.053 418.953 329.36C419.433 329.667 420.013 329.82 420.693 329.82C421.373 329.82 421.953 329.667 422.433 329.36C422.913 329.053 423.28 328.613 423.533 328.04C423.8 327.467 423.933 326.787 423.933 326C423.933 325.2 423.8 324.52 423.533 323.96C423.28 323.387 422.913 322.947 422.433 322.64C421.953 322.333 421.373 322.18 420.693 322.18ZM434.766 321H436.446L432.286 331H430.686L426.526 321H428.346L431.506 329.38L434.766 321ZM442.316 331.2C441.37 331.2 440.523 330.993 439.776 330.58C439.043 330.167 438.47 329.573 438.056 328.8C437.643 328.013 437.436 327.08 437.436 326C437.436 324.92 437.643 323.993 438.056 323.22C438.47 322.433 439.036 321.833 439.756 321.42C440.476 321.007 441.296 320.8 442.216 320.8C443.15 320.8 443.943 321 444.596 321.4C445.263 321.8 445.77 322.347 446.116 323.04C446.463 323.72 446.636 324.487 446.636 325.34C446.636 325.567 446.63 325.773 446.616 325.96C446.603 326.147 446.583 326.313 446.556 326.46H438.476V325.04H445.856L445.036 325.2C445.036 324.24 444.77 323.5 444.236 322.98C443.716 322.46 443.03 322.2 442.176 322.2C441.523 322.2 440.956 322.353 440.476 322.66C440.01 322.953 439.643 323.387 439.376 323.96C439.123 324.52 438.996 325.2 438.996 326C438.996 326.787 439.13 327.467 439.396 328.04C439.663 328.613 440.036 329.053 440.516 329.36C441.01 329.653 441.596 329.8 442.276 329.8C443.01 329.8 443.603 329.66 444.056 329.38C444.523 329.1 444.896 328.72 445.176 328.24L446.436 328.98C446.183 329.433 445.856 329.827 445.456 330.16C445.07 330.493 444.61 330.753 444.076 330.94C443.556 331.113 442.97 331.2 442.316 331.2ZM452.879 331.2C451.906 331.2 451.006 330.993 450.179 330.58C449.366 330.167 448.739 329.58 448.299 328.82L449.659 327.84C449.952 328.453 450.379 328.933 450.939 329.28C451.512 329.627 452.199 329.8 452.999 329.8C453.706 329.8 454.259 329.667 454.659 329.4C455.059 329.12 455.259 328.76 455.259 328.32C455.259 328.04 455.166 327.787 454.979 327.56C454.806 327.32 454.466 327.147 453.959 327.04L451.559 326.54C450.586 326.34 449.886 326.007 449.459 325.54C449.046 325.073 448.839 324.493 448.839 323.8C448.839 323.253 448.992 322.753 449.299 322.3C449.619 321.847 450.066 321.487 450.639 321.22C451.226 320.94 451.912 320.8 452.699 320.8C453.686 320.8 454.519 320.993 455.199 321.38C455.879 321.767 456.386 322.313 456.719 323.02L455.379 323.9C455.152 323.313 454.786 322.887 454.279 322.62C453.772 322.34 453.246 322.2 452.699 322.2C452.219 322.2 451.806 322.267 451.459 322.4C451.126 322.533 450.866 322.72 450.679 322.96C450.506 323.187 450.419 323.447 450.419 323.74C450.419 324.033 450.519 324.307 450.719 324.56C450.919 324.8 451.292 324.973 451.839 325.08L454.339 325.6C455.272 325.787 455.926 326.093 456.299 326.52C456.672 326.947 456.859 327.467 456.859 328.08C456.859 328.707 456.692 329.26 456.359 329.74C456.026 330.207 455.559 330.567 454.959 330.82C454.359 331.073 453.666 331.2 452.879 331.2ZM465.842 331V316.4H467.442V322.5C467.789 321.9 468.249 321.467 468.822 321.2C469.396 320.933 470.022 320.8 470.702 320.8C471.422 320.8 472.076 320.94 472.662 321.22C473.249 321.487 473.716 321.9 474.062 322.46C474.422 323.02 474.602 323.733 474.602 324.6V331H473.002V325.16C473.002 324.053 472.762 323.287 472.282 322.86C471.816 322.42 471.236 322.2 470.542 322.2C470.062 322.2 469.582 322.313 469.102 322.54C468.622 322.767 468.222 323.14 467.902 323.66C467.596 324.167 467.442 324.847 467.442 325.7V331H465.842ZM481.445 331.2C480.805 331.2 480.199 331.08 479.625 330.84C479.065 330.6 478.605 330.213 478.245 329.68C477.899 329.133 477.725 328.427 477.725 327.56V321H479.325V327.14C479.325 328.153 479.545 328.853 479.985 329.24C480.425 329.613 481.045 329.8 481.845 329.8C482.219 329.8 482.585 329.74 482.945 329.62C483.305 329.487 483.625 329.287 483.905 329.02C484.199 328.74 484.425 328.387 484.585 327.96C484.759 327.533 484.845 327.027 484.845 326.44V321H486.445V331H485.045L484.945 329.48C484.599 330.08 484.125 330.52 483.525 330.8C482.939 331.067 482.245 331.2 481.445 331.2ZM489.769 331V321H491.169L491.269 322.56C491.629 321.947 492.096 321.5 492.669 321.22C493.256 320.94 493.856 320.8 494.469 320.8C495.176 320.8 495.842 320.96 496.469 321.28C497.096 321.6 497.576 322.093 497.909 322.76C498.122 322.307 498.422 321.94 498.809 321.66C499.196 321.367 499.616 321.153 500.069 321.02C500.536 320.873 500.976 320.8 501.389 320.8C502.029 320.8 502.636 320.933 503.209 321.2C503.796 321.467 504.276 321.88 504.649 322.44C505.022 323 505.209 323.72 505.209 324.6V331H503.609V324.76C503.609 323.853 503.382 323.2 502.929 322.8C502.476 322.4 501.916 322.2 501.249 322.2C500.729 322.2 500.242 322.327 499.789 322.58C499.336 322.833 498.969 323.207 498.689 323.7C498.422 324.193 498.289 324.8 498.289 325.52V331H496.689V324.76C496.689 323.853 496.462 323.2 496.009 322.8C495.556 322.4 494.996 322.2 494.329 322.2C493.889 322.2 493.436 322.32 492.969 322.56C492.516 322.787 492.136 323.153 491.829 323.66C491.522 324.167 491.369 324.833 491.369 325.66V331H489.769ZM514.271 324.54C514.271 323.793 514.071 323.22 513.671 322.82C513.271 322.407 512.705 322.2 511.971 322.2C511.278 322.2 510.691 322.353 510.211 322.66C509.731 322.953 509.378 323.433 509.151 324.1L507.851 323.3C508.118 322.553 508.611 321.953 509.331 321.5C510.051 321.033 510.945 320.8 512.011 320.8C512.731 320.8 513.385 320.927 513.971 321.18C514.558 321.42 515.018 321.793 515.351 322.3C515.698 322.793 515.871 323.433 515.871 324.22V329.06C515.871 329.54 516.125 329.78 516.631 329.78C516.885 329.78 517.131 329.747 517.371 329.68L517.291 330.94C517.025 331.073 516.678 331.14 516.251 331.14C515.865 331.14 515.518 331.067 515.211 330.92C514.905 330.773 514.665 330.553 514.491 330.26C514.318 329.953 514.231 329.573 514.231 329.12V328.92L514.631 328.98C514.471 329.5 514.198 329.927 513.811 330.26C513.425 330.58 512.991 330.82 512.511 330.98C512.031 331.127 511.558 331.2 511.091 331.2C510.505 331.2 509.958 331.1 509.451 330.9C508.945 330.7 508.538 330.4 508.231 330C507.938 329.587 507.791 329.08 507.791 328.48C507.791 327.733 508.038 327.12 508.531 326.64C509.038 326.147 509.738 325.813 510.631 325.64L514.591 324.86V326.18L511.371 326.84C510.718 326.973 510.231 327.16 509.911 327.4C509.591 327.64 509.431 327.973 509.431 328.4C509.431 328.813 509.591 329.153 509.911 329.42C510.245 329.673 510.711 329.8 511.311 329.8C511.698 329.8 512.065 329.753 512.411 329.66C512.771 329.553 513.091 329.4 513.371 329.2C513.651 328.987 513.871 328.727 514.031 328.42C514.191 328.1 514.271 327.727 514.271 327.3V324.54ZM519.36 331V321H520.76L520.9 323.24L520.64 323.02C520.853 322.487 521.14 322.06 521.5 321.74C521.86 321.407 522.273 321.167 522.74 321.02C523.22 320.873 523.713 320.8 524.22 320.8C524.94 320.8 525.593 320.94 526.18 321.22C526.766 321.487 527.233 321.9 527.58 322.46C527.94 323.02 528.12 323.733 528.12 324.6V331H526.52V325.16C526.52 324.053 526.28 323.287 525.8 322.86C525.333 322.42 524.753 322.2 524.06 322.2C523.58 322.2 523.1 322.313 522.62 322.54C522.14 322.767 521.74 323.133 521.42 323.64C521.113 324.147 520.96 324.827 520.96 325.68V331H519.36ZM534.942 331.2C533.969 331.2 533.069 330.993 532.242 330.58C531.429 330.167 530.802 329.58 530.362 328.82L531.722 327.84C532.016 328.453 532.442 328.933 533.002 329.28C533.576 329.627 534.262 329.8 535.062 329.8C535.769 329.8 536.322 329.667 536.722 329.4C537.122 329.12 537.322 328.76 537.322 328.32C537.322 328.04 537.229 327.787 537.042 327.56C536.869 327.32 536.529 327.147 536.022 327.04L533.622 326.54C532.649 326.34 531.949 326.007 531.522 325.54C531.109 325.073 530.902 324.493 530.902 323.8C530.902 323.253 531.056 322.753 531.362 322.3C531.682 321.847 532.129 321.487 532.702 321.22C533.289 320.94 533.976 320.8 534.762 320.8C535.749 320.8 536.582 320.993 537.262 321.38C537.942 321.767 538.449 322.313 538.782 323.02L537.442 323.9C537.216 323.313 536.849 322.887 536.342 322.62C535.836 322.34 535.309 322.2 534.762 322.2C534.282 322.2 533.869 322.267 533.522 322.4C533.189 322.533 532.929 322.72 532.742 322.96C532.569 323.187 532.482 323.447 532.482 323.74C532.482 324.033 532.582 324.307 532.782 324.56C532.982 324.8 533.356 324.973 533.902 325.08L536.402 325.6C537.336 325.787 537.989 326.093 538.362 326.52C538.736 326.947 538.922 327.467 538.922 328.08C538.922 328.707 538.756 329.26 538.422 329.74C538.089 330.207 537.622 330.567 537.022 330.82C536.422 331.073 535.729 331.2 534.942 331.2ZM549.426 316.4V328.46C549.426 328.967 549.519 329.32 549.706 329.52C549.892 329.707 550.192 329.8 550.606 329.8C550.872 329.8 551.092 329.78 551.266 329.74C551.439 329.7 551.672 329.627 551.966 329.52L551.706 330.92C551.492 331.013 551.259 331.08 551.006 331.12C550.752 331.173 550.492 331.2 550.226 331.2C549.412 331.2 548.806 330.98 548.406 330.54C548.019 330.1 547.826 329.427 547.826 328.52V316.4H549.426ZM554.419 319.08C554.059 319.08 553.766 318.973 553.539 318.76C553.326 318.533 553.219 318.24 553.219 317.88C553.219 317.52 553.326 317.233 553.539 317.02C553.766 316.793 554.059 316.68 554.419 316.68C554.779 316.68 555.066 316.793 555.279 317.02C555.506 317.233 555.619 317.52 555.619 317.88C555.619 318.24 555.506 318.533 555.279 318.76C555.066 318.973 554.779 319.08 554.419 319.08ZM555.219 321V331H553.619V321H555.219ZM562.591 316.3C562.938 316.3 563.265 316.34 563.571 316.42C563.878 316.5 564.118 316.613 564.291 316.76L563.871 318.06C563.711 317.953 563.538 317.88 563.351 317.84C563.165 317.787 562.958 317.76 562.731 317.76C562.158 317.76 561.711 317.9 561.391 318.18C561.071 318.447 560.911 318.88 560.911 319.48V321V321.52V331H559.311V319.32C559.311 318.88 559.378 318.473 559.511 318.1C559.645 317.727 559.845 317.407 560.111 317.14C560.391 316.873 560.738 316.667 561.151 316.52C561.565 316.373 562.045 316.3 562.591 316.3ZM564.251 321V322.38H557.311V321H564.251ZM569.89 331.2C568.943 331.2 568.096 330.993 567.35 330.58C566.616 330.167 566.043 329.573 565.63 328.8C565.216 328.013 565.01 327.08 565.01 326C565.01 324.92 565.216 323.993 565.63 323.22C566.043 322.433 566.61 321.833 567.33 321.42C568.05 321.007 568.87 320.8 569.79 320.8C570.723 320.8 571.516 321 572.17 321.4C572.836 321.8 573.343 322.347 573.69 323.04C574.036 323.72 574.21 324.487 574.21 325.34C574.21 325.567 574.203 325.773 574.19 325.96C574.176 326.147 574.156 326.313 574.13 326.46H566.05V325.04H573.43L572.61 325.2C572.61 324.24 572.343 323.5 571.81 322.98C571.29 322.46 570.603 322.2 569.75 322.2C569.096 322.2 568.53 322.353 568.05 322.66C567.583 322.953 567.216 323.387 566.95 323.96C566.696 324.52 566.57 325.2 566.57 326C566.57 326.787 566.703 327.467 566.97 328.04C567.236 328.613 567.61 329.053 568.09 329.36C568.583 329.653 569.17 329.8 569.85 329.8C570.583 329.8 571.176 329.66 571.63 329.38C572.096 329.1 572.47 328.72 572.75 328.24L574.01 328.98C573.756 329.433 573.43 329.827 573.03 330.16C572.643 330.493 572.183 330.753 571.65 330.94C571.13 331.113 570.543 331.2 569.89 331.2Z" fill="#2E3D49"/>
<path d="M140.455 164.328C130.373 164.328 120.632 164.601 110.918 164.232C104.455 163.987 99.598 160.133 95.4892 155.324C90.047 148.929 86.1559 141.51 82.3192 134.104C74.4825 118.938 67.1084 103.539 56.1833 90.2034C50.9997 83.8771 44.8909 80.5159 36.6596 80.229C32.6733 80.0924 31.6257 81.0488 31.6529 84.9839C31.8161 104.892 31.6529 124.786 31.8161 144.68C31.8161 148.97 30.8774 150.528 26.374 150.145C20.6415 149.824 14.8957 149.824 9.16323 150.145C6.17006 150.255 5 149.558 5 146.251C5.10884 104.031 5.10884 61.8151 5 19.6038C5 16.4339 5.93877 15.5047 9.08161 15.5047C14.9999 15.7097 20.9455 15.8053 26.8502 15.5047C30.7005 15.2861 31.8842 16.3655 31.8298 20.3553C31.5985 36.164 31.993 51.9864 31.6121 67.7815C31.4896 72.96 33.1359 74.0121 37.8433 73.7662C45.4215 73.3699 53.0405 73.7661 60.6187 73.6158C69.8023 73.3562 77.0947 77.018 83.1899 83.6312C88.2511 89.0966 91.9518 95.5868 95.598 102.05C96.8769 104.304 98.0062 106.641 99.2035 108.881C115.87 141.073 115.87 141.073 140.455 164.328Z" fill="#0046AD"/>
<path d="M123.897 0.529157C111.462 5.73497 104.85 15.8597 99.1353 26.9682C95.87 33.3217 92.3327 39.5796 89.081 45.9195C83.8021 56.0579 75.1763 60.8264 64.1424 61.168C53.7207 61.4959 43.2854 61.2363 31.8433 61.2363C36.4283 57.4378 41.6255 56.4814 45.3126 53.0382C51.8703 46.7803 56.0608 38.9101 60.5506 31.2449C63.5982 26.0391 66.6185 20.8059 69.394 15.4498C74.4416 5.74869 82.6592 1.08943 93.1762 0.679519C103.394 0.214959 113.652 0.529157 123.897 0.529157Z" fill="#F7A41C"/>
<path d="M176.686 76.6897V78.261C176.684 78.7458 176.647 79.2298 176.577 79.7094H131.394C131.703 84.1573 133.49 88.3722 136.469 91.6787C139.298 94.6755 143.203 96.1694 148.183 96.1603C151.529 96.3292 154.839 95.3986 157.611 93.5095C160.127 91.5108 162.059 88.8674 163.203 85.858L175.121 87.525C174.34 90.5357 173.081 93.4006 171.394 96.01C169.744 98.526 167.678 100.74 165.285 102.555C162.751 104.453 159.912 105.9 156.89 106.831C153.494 107.862 149.962 108.369 146.414 108.335C142.411 108.361 138.439 107.638 134.7 106.203C131.126 104.837 127.881 102.728 125.176 100.013C122.384 97.1686 120.194 93.7848 118.741 90.0664C117.089 85.8053 116.28 81.2616 116.36 76.6897C116.308 72.2627 117.097 67.8663 118.686 63.7367C120.114 60.0214 122.286 56.6403 125.069 53.8033C127.852 50.9664 131.186 48.734 134.863 47.2448C138.664 45.6933 142.733 44.9132 146.836 44.9493C151.312 44.8526 155.758 45.7046 159.883 47.4497C163.456 49.0122 166.642 51.3446 169.217 54.2815C171.752 57.2049 173.656 60.6244 174.808 64.3242C176.078 68.3213 176.711 72.4944 176.686 76.6897V76.6897ZM163.081 70.3499C162.454 66.4644 160.681 62.8568 157.992 59.9929C155.072 57.3467 151.279 55.882 147.346 55.882C143.413 55.882 139.62 57.3467 136.7 59.9929C134.038 62.8684 132.286 66.4731 131.666 70.3499H163.081Z" fill="#0046AD"/>
<path d="M280.114 68.0545V107.556H265.148V71.4977C265.207 69.1489 264.872 66.8068 264.155 64.5703C263.61 62.9249 262.751 61.4025 261.624 60.0887C260.645 58.9959 259.417 58.1568 258.046 57.6428C256.696 57.1619 255.274 56.917 253.842 56.9187C252.265 56.9056 250.693 57.1172 249.175 57.5473C247.706 57.9424 246.356 58.693 245.243 59.7334C243.997 60.948 243.063 62.4485 242.522 64.1057C241.789 66.4042 241.453 68.8119 241.529 71.2244V107.556H226.291V71.2791C226.341 69.0927 226.028 66.9132 225.366 64.8299C224.835 63.1831 223.952 61.6724 222.781 60.4029C221.705 59.2813 220.394 58.4134 218.944 57.8615C217.453 57.2968 215.871 57.0143 214.277 57.028C212.729 57.0163 211.189 57.261 209.72 57.7522C208.272 58.2369 206.958 59.0559 205.883 60.1433C204.672 61.3862 203.744 62.8779 203.162 64.5156C202.403 66.7099 202.052 69.0257 202.128 71.3474V107.556H187.04V45.6736H202.386V55.361C202.805 54.2604 203.378 53.2253 204.087 52.2867C205.054 50.9789 206.209 49.823 207.516 48.8572C209.09 47.6886 210.815 46.7417 212.645 46.0425C214.862 45.2068 217.216 44.7988 219.584 44.8401C221.814 44.8023 224.037 45.1205 226.169 45.7829C227.989 46.3672 229.702 47.244 231.243 48.379C232.747 49.5148 234.092 50.8475 235.243 52.3414C236.461 53.9419 237.536 55.6473 238.454 57.4379C240.181 53.8461 242.76 50.7353 245.964 48.379C249.71 45.8665 254.159 44.6262 258.658 44.8401C261.501 44.8315 264.313 45.4373 266.903 46.6164C269.463 47.7916 271.773 49.4525 273.706 51.5079C275.704 53.6364 277.283 56.1261 278.359 58.8452C279.538 61.7702 280.134 64.8991 280.114 68.0545V68.0545Z" fill="#0046AD"/>
<path d="M329.352 94.2886V105.001C328.16 105.839 326.848 106.489 325.46 106.927C324.159 107.361 322.826 107.694 321.474 107.925C317.981 108.563 314.393 108.456 310.944 107.611C309.34 107.191 307.805 106.542 306.386 105.684C305.186 104.961 304.118 104.037 303.229 102.951C302.425 101.955 301.732 100.874 301.161 99.7268C299.866 97.0338 299.191 94.0822 299.189 91.0914V56.9325H291.107V47.9829C292.125 47.8312 293.13 47.6029 294.114 47.2997C295.247 46.9485 296.328 46.4427 297.325 45.7967C299.094 44.712 300.612 43.2583 301.774 41.5337C302.807 40.022 303.661 38.3941 304.318 36.6831C304.841 35.3608 305.224 33.9869 305.461 32.5841C305.624 31.368 305.719 30.5891 305.719 30.2339H314.209C314.209 32.9666 314.318 35.6993 314.318 38.432C314.318 41.1647 314.318 43.8974 314.427 46.6301H328.78V57.0419H314.522C314.739 75.9795 314.844 87.1153 314.835 90.4492C314.855 91.0774 314.924 91.7032 315.039 92.3211C315.202 93.2007 315.64 94.0051 316.29 94.6166C317.075 95.4653 318.148 95.987 319.297 96.0785C320.554 96.2152 321.822 96.2152 323.08 96.0785C324.311 95.9527 325.524 95.6916 326.699 95.2998L329.352 94.2886Z" fill="#0046AD"/>
<path d="M394.848 76.6899V78.2613C394.845 78.746 394.809 79.23 394.739 79.7096H349.556C349.871 84.156 351.657 88.369 354.63 91.6789C357.469 94.6758 361.374 96.1696 366.345 96.1605C369.691 96.3334 373.002 95.4025 375.773 93.5098C378.293 91.5123 380.23 88.8689 381.379 85.8582L393.297 87.5252C392.509 90.5339 391.251 93.3979 389.569 96.0102C387.919 98.5298 385.848 100.744 383.447 102.555C380.915 104.456 378.075 105.903 375.052 106.832C371.661 107.862 368.133 108.369 364.59 108.335C360.587 108.362 356.614 107.639 352.875 106.203C349.303 104.835 346.058 102.726 343.352 100.014C340.568 97.1668 338.388 93.783 336.943 90.0666C335.291 85.8056 334.483 81.2618 334.563 76.6899C334.51 72.2629 335.3 67.8666 336.889 63.7369C338.311 60.0204 340.48 56.638 343.26 53.8006C346.041 50.9631 349.375 48.7315 353.052 47.245C356.853 45.6946 360.922 44.9145 365.025 44.9495C369.505 44.8513 373.956 45.7034 378.086 47.45C381.656 49.0159 384.842 51.3478 387.419 54.2817C389.95 57.2085 391.853 60.627 393.011 64.3244C394.26 68.3252 394.88 72.4972 394.848 76.6899V76.6899ZM381.242 70.3501C380.62 66.4659 378.852 62.8582 376.168 59.9931C373.246 57.3459 369.45 55.8808 365.515 55.8808C361.579 55.8808 357.784 57.3459 354.862 59.9931C352.209 62.8732 350.462 66.4764 349.841 70.3501H381.242Z" fill="#0046AD"/>
<path d="M433.814 96.6247C435.762 96.7083 437.706 96.3874 439.525 95.6821C441.344 94.9768 442.998 93.9023 444.385 92.5257C447.163 89.6783 449.055 86.0791 449.827 82.1687L462.072 83.535C461.485 86.9485 460.417 90.2608 458.902 93.3728C457.459 96.3348 455.453 98.9851 452.997 101.175C450.439 103.423 447.486 105.175 444.29 106.339C440.58 107.646 436.669 108.279 432.739 108.211C428.537 108.256 424.37 107.438 420.494 105.807C416.896 104.272 413.654 102.007 410.97 99.1524C408.252 96.2466 406.126 92.8351 404.712 89.1098C401.719 81.0695 401.719 72.2141 404.712 64.1738C406.126 60.4196 408.272 56.9867 411.025 54.0764C413.756 51.1901 417.024 48.8691 420.644 47.2446C424.5 45.5413 428.676 44.6887 432.889 44.7442C436.693 44.7012 440.473 45.3731 444.031 46.7254C447.277 47.9841 450.262 49.8373 452.834 52.1908C455.372 54.5333 457.478 57.3089 459.052 60.389C460.689 63.6032 461.792 67.0648 462.317 70.6366L450.195 71.7844C449.705 67.5769 447.888 63.6368 445.011 60.5393C443.572 59.1033 441.852 57.9828 439.96 57.249C438.068 56.5152 436.044 56.1839 434.018 56.2762C431.487 56.2155 428.976 56.7294 426.671 57.7792C424.625 58.7633 422.832 60.208 421.433 62.0012C419.972 63.8879 418.899 66.0477 418.276 68.3548C417.556 70.9614 417.203 73.6566 417.229 76.3616C417.207 79.0596 417.593 81.7454 418.372 84.3275C419.061 86.6567 420.188 88.8319 421.691 90.7357C423.045 92.5413 424.765 94.0365 426.739 95.1218C428.948 96.1722 431.371 96.6869 433.814 96.6247V96.6247Z" fill="#0046AD"/>
<path d="M526.996 107.556H512.275V70.6644C512.27 69.1017 512.008 67.5505 511.5 66.0734C511.002 64.5662 510.211 63.173 509.173 61.9744C508.051 60.7415 506.69 59.7512 505.173 59.064C503.363 58.2592 501.398 57.8672 499.418 57.9163C496.179 57.9227 493.052 59.1071 490.616 61.2502C489.42 62.3204 488.465 63.6339 487.813 65.1033C487.106 66.7071 486.753 68.4459 486.779 70.1998V107.556H471.636V24.7549H486.765V57.2331C487.091 55.5295 487.839 53.9362 488.942 52.6012C490.184 51.0451 491.673 49.7062 493.35 48.6387C495.152 47.4725 497.102 46.5535 499.146 45.906C503.977 44.4202 509.166 44.6225 513.867 46.4799C516.429 47.492 518.747 49.0382 520.67 51.0162C522.679 53.1075 524.248 55.5845 525.282 58.2989C526.471 61.4389 527.053 64.7778 526.996 68.1367V107.556Z" fill="#0046AD"/>
<defs>
<clipPath id="clip0_421_3331">
<rect width="313" height="94" fill="white" transform="translate(0.5 174.851)"/>
</clipPath>
<clipPath id="clip1_421_3331">
<rect width="235" height="94" fill="white" transform="translate(307.5 174.851)"/>
</clipPath>
</defs>
</svg>
