<svg width="303" height="89" viewBox="0 0 303 89" fill="none" xmlns="http://www.w3.org/2000/svg">
<g style="mix-blend-mode:multiply">
<path style="mix-blend-mode:multiply" d="M281.025 81.4749C280.229 83.8469 279.823 86.3322 279.824 88.8338H272.098C272.096 84.9513 272.833 81.1037 274.269 77.495C276.917 77.9958 279.307 79.4035 281.025 81.4749ZM287.551 62.1461C285.07 63.5808 282.801 65.3528 280.809 67.4111C279.855 68.3914 278.968 69.4357 278.157 70.5368C280.647 71.3582 282.943 72.6791 284.902 74.4184C287.382 71.3195 290.618 68.9069 294.299 67.4111C297.067 66.2866 300.027 65.7102 303.015 65.7141V58.0113C297.584 58.0029 292.249 59.4296 287.551 62.1461Z" fill="url(#paint0_linear_236_3052)"/>
<path style="mix-blend-mode:multiply" d="M287.551 77.291C285.037 80.6164 283.68 84.6692 283.685 88.8339C283.679 86.1475 282.736 83.5471 281.018 81.4783C279.3 79.4095 276.914 78.0013 274.269 77.4951C273.554 77.3566 272.826 77.287 272.098 77.2872V69.5693C275.097 69.5745 278.054 70.2747 280.736 71.6147C283.418 72.9547 285.751 74.8979 287.551 77.291Z" fill="url(#paint1_linear_236_3052)"/>
<path style="mix-blend-mode:multiply" d="M303 69.5694V77.2759C302.271 77.2756 301.544 77.3453 300.829 77.4838C299.841 75.0116 298.538 72.6767 296.952 70.5369C298.903 69.8925 300.945 69.5658 303 69.5694ZM290.207 74.4186C289.225 75.2811 288.336 76.2439 287.555 77.291C285.041 80.6164 283.684 84.6692 283.689 88.8339H291.401C291.396 86.1473 292.335 83.5438 294.053 81.475C293.195 78.9165 291.893 76.5282 290.207 74.4186Z" fill="url(#paint2_linear_236_3052)"/>
<path style="mix-blend-mode:multiply" d="M303 88.8337H295.277C295.281 83.5931 293.492 78.508 290.207 74.4184C289.401 73.4128 288.514 72.4749 287.554 71.614C289.542 69.8358 291.822 68.4139 294.296 67.4111C295.249 68.3924 296.135 69.4366 296.948 70.5368C300.887 75.8281 303.013 82.2436 303.011 88.8337H303ZM272.098 58.0113V65.714C275.086 65.711 278.046 66.2874 280.813 67.4111C282.805 65.3528 285.073 63.5808 287.554 62.1461C282.858 59.4314 277.525 58.0048 272.098 58.0113Z" fill="url(#paint3_linear_236_3052)"/>
</g>
<path d="M87.7084 34.9028H62.3993C62.8124 39.2002 65.2944 41.8422 70.0917 41.8422C73.7295 41.8422 76.1281 40.4059 77.0376 37.9945H87.212C85.5598 44.5559 79.4362 49.0082 70.2584 49.0082C59.1746 49.0082 51.7285 42.7455 51.7285 33.3154C51.7285 23.8854 59.2579 17.5508 69.9174 17.5508C80.5768 17.5508 87.7008 23.8135 87.7008 33.2436L87.7084 34.9028ZM63.0776 29.0936H76.8064C75.7302 26.4479 73.665 24.9361 70.1068 24.9361C66.3706 24.9436 64.1348 26.5348 63.0625 29.0936H63.0776Z" fill="#0046AD"/>
<path d="M146.715 29.3202V48.4033H136.211V30.9038C136.211 28.2581 134.226 26.1529 131.331 26.1529C128.106 26.1529 126.617 28.7154 126.617 30.9038V48.4033H116.029V30.9038C116.049 30.2719 115.938 29.6426 115.704 29.0553C115.469 28.4679 115.116 27.935 114.666 27.4897C114.216 27.0444 113.679 26.6963 113.088 26.4669C112.497 26.2376 111.865 26.132 111.232 26.1567C107.996 26.1567 106.518 28.7154 106.518 30.9038V48.4033H95.9307V18.2196H106.518V21.916C107.59 20.5583 108.96 19.4643 110.523 18.7186C112.087 17.9728 113.8 17.5952 115.533 17.6148C117.434 17.5827 119.309 18.0559 120.966 18.9858C122.623 19.9157 124.002 21.2689 124.961 22.9062C127.03 19.5878 130.668 17.6148 135.385 17.6148C142.661 17.6262 146.715 22.3053 146.715 29.3202Z" fill="#0046AD"/>
<path d="M168.751 25.6993V36.4862C168.751 38.9732 170.324 40.5569 172.541 40.5569H176.512V48.0253C175.682 48.5544 173.45 49.008 171.207 49.008C164.174 49.008 158.221 44.0265 158.221 37.6163V25.6993H152.711V18.2195H158.255V6.61621H168.759V18.2195H176.614V25.6993H168.751Z" fill="#0046AD"/>
<path d="M183.674 7.89786C183.674 4.95735 186.326 2.60645 189.46 2.60645C192.594 2.60645 195.25 4.94601 195.25 7.89786C195.25 10.7628 192.598 13.1893 189.46 13.1893C186.323 13.1893 183.674 10.7628 183.674 7.89786ZM184.163 18.2199H194.671V48.3923H184.163V18.2199Z" fill="#0046AD"/>
<path d="M217.948 40.4059H231.347V48.4035H202.396L216.212 26.2287H204.136V18.2197H231.844L217.948 40.4059Z" fill="#0046AD"/>
<path d="M272.405 34.9028H247.096C247.509 39.2002 249.991 41.8422 254.788 41.8422C258.426 41.8422 260.824 40.4059 261.734 37.9945H271.908C270.256 44.5559 264.133 49.0082 254.951 49.0082C243.867 49.0082 236.425 42.7455 236.425 33.3154C236.425 23.8854 243.95 17.5508 254.614 17.5508C265.277 17.5508 272.397 23.8135 272.397 33.2436L272.405 34.9028ZM247.774 29.0936H261.506C260.43 26.4479 258.361 24.9361 254.807 24.9361C251.063 24.9436 248.831 26.5348 247.755 29.0936H247.774Z" fill="#0046AD"/>
<path d="M58.8183 71.5343C54.4378 71.5343 50.2126 71.6515 45.9951 71.4927C43.1834 71.3869 41.0689 69.7201 39.288 67.6489C36.9082 64.8898 35.2409 61.6847 33.5698 58.4947C30.1594 51.9561 26.965 45.3116 22.2207 39.559C19.9699 36.834 17.2946 35.4015 13.744 35.2579C12.0084 35.1974 11.5537 35.6132 11.5689 37.3102C11.6409 45.8936 11.5424 54.4771 11.6409 63.0605C11.6598 64.9125 11.2316 65.5815 9.2839 65.4341C6.79369 65.2961 4.29773 65.2961 1.80752 65.4341C0.507773 65.4643 0 65.1619 0 63.737C0.0454722 45.527 0.0454722 27.317 0 9.10695C0 7.74252 0.40925 7.31165 1.76205 7.36079C4.33122 7.45528 6.91556 7.49685 9.48095 7.36079C11.1483 7.27008 11.6636 7.73874 11.6371 9.45845C11.5386 16.2617 11.7091 23.0952 11.5461 29.9098C11.4893 32.1435 12.2093 32.5971 14.2555 32.4912C17.5447 32.3211 20.849 32.5177 24.1457 32.427C28.1321 32.3098 31.3 33.8897 33.945 36.7395C36.1466 39.1131 37.7343 41.891 39.341 44.6766C39.8942 45.6479 40.3831 46.6609 40.9022 47.6549C48.1247 61.5033 48.1247 61.5033 58.8183 71.5343Z" fill="#0046AD"/>
<path d="M51.6263 0.882997C46.2303 3.12807 43.3466 7.49727 40.8721 12.2822C39.4549 15.03 37.9392 17.7248 36.5068 20.4612C34.2332 24.838 30.4666 26.8865 25.6768 27.0377C21.1296 27.1775 16.6165 27.0679 11.6562 27.0679C13.6419 25.4276 15.9155 25.0232 17.4956 23.5114C20.3452 20.8127 22.1679 17.4224 24.1194 14.1153C25.4419 11.8702 26.753 9.61005 27.958 7.31207C30.1483 3.10161 33.7254 1.09843 38.2726 0.920793C42.7251 0.750712 47.1776 0.882997 51.6263 0.882997Z" fill="#F7A41C"/>
<defs>
<linearGradient id="paint0_linear_236_3052" x1="303" y1="73.4206" x2="272.098" y2="73.4206" gradientUnits="userSpaceOnUse">
<stop stop-color="#2E2E30" stop-opacity="0.07"/>
<stop offset="0.93" stop-color="#2E2E30" stop-opacity="0.28"/>
<stop offset="1" stop-color="#2E2E30" stop-opacity="0.3"/>
</linearGradient>
<linearGradient id="paint1_linear_236_3052" x1="272.162" y1="69.5051" x2="287.575" y2="84.958" gradientUnits="userSpaceOnUse">
<stop stop-color="#2E2E30" stop-opacity="0.21"/>
<stop offset="1" stop-color="#2E2E30" stop-opacity="0.3"/>
</linearGradient>
<linearGradient id="paint2_linear_236_3052" x1="293.345" y1="69.5694" x2="293.345" y2="88.8339" gradientUnits="userSpaceOnUse">
<stop stop-color="#2E2E30" stop-opacity="0.07"/>
<stop offset="0.93" stop-color="#2E2E30" stop-opacity="0.28"/>
<stop offset="1" stop-color="#2E2E30" stop-opacity="0.3"/>
</linearGradient>
<linearGradient id="paint3_linear_236_3052" x1="277.111" y1="55.1237" x2="298.136" y2="91.636" gradientUnits="userSpaceOnUse">
<stop stop-color="#2E2E30" stop-opacity="0.21"/>
<stop offset="1" stop-color="#2E2E30" stop-opacity="0.3"/>
</linearGradient>
</defs>
</svg>
