<svg width="333" height="89" viewBox="0 0 333 89" fill="none" xmlns="http://www.w3.org/2000/svg">
<g clip-path="url(#clip0_506_3522)">
<path d="M93.2719 36.8275H66.602C67.0372 41.3676 69.6527 44.1588 74.708 44.1588C78.5414 44.1588 81.069 42.6414 82.0274 40.0938H92.7488C91.0078 47.0258 84.555 51.7297 74.8837 51.7297C63.2039 51.7297 55.3574 45.1131 55.3574 35.1503C55.3574 25.1876 63.2917 18.4951 74.5243 18.4951C85.7569 18.4951 93.264 25.1117 93.264 35.0745L93.2719 36.8275ZM67.3168 30.6901H81.7838C80.6497 27.8949 78.4735 26.2976 74.724 26.2976C70.7868 26.3056 68.4308 27.9867 67.3008 30.6901H67.3168Z" fill="#2C3A8F"/>
<path d="M155.453 30.9298V51.091H144.384V32.6029C144.384 29.8077 142.292 27.5836 139.241 27.5836C135.843 27.5836 134.274 30.2909 134.274 32.6029V51.091H123.117V32.6029C123.138 31.9352 123.021 31.2705 122.774 30.6499C122.526 30.0294 122.154 29.4664 121.68 28.9959C121.206 28.5255 120.64 28.1576 120.017 27.9154C119.395 27.6731 118.729 27.5615 118.062 27.5876C114.652 27.5876 113.094 30.2909 113.094 32.6029V51.091H101.938V19.202H113.094V23.1073C114.224 21.6729 115.668 20.5171 117.315 19.7293C118.962 18.9414 120.768 18.5424 122.594 18.5631C124.597 18.5292 126.573 19.0291 128.319 20.0116C130.065 20.994 131.518 22.4236 132.529 24.1535C134.709 20.6475 138.542 18.5631 143.514 18.5631C151.18 18.5751 155.453 23.5186 155.453 30.9298Z" fill="#2C3A8F"/>
<path d="M178.672 27.104V38.5004C178.672 41.1278 180.329 42.8009 182.665 42.8009H186.85V50.6913C185.976 51.2503 183.624 51.7295 181.26 51.7295C173.849 51.7295 167.576 46.4666 167.576 39.6943V27.104H161.77V19.2017H167.611V6.94287H178.68V19.2017H186.958V27.104H178.672Z" fill="#2C3A8F"/>
<path d="M194.397 8.29689C194.397 5.19025 197.193 2.70654 200.495 2.70654C203.797 2.70654 206.596 5.17827 206.596 8.29689C206.596 11.3237 203.801 13.8872 200.495 13.8872C197.189 13.8872 194.397 11.3237 194.397 8.29689ZM194.913 19.2021H205.985V51.079H194.913V19.2021Z" fill="#2C3A8F"/>
<path d="M230.515 42.6417H244.634V51.0911H214.127L228.686 27.6635H215.96V19.2021H245.157L230.515 42.6417Z" fill="#2C3A8F"/>
<path d="M287.9 36.8275H261.23C261.665 41.3676 264.281 44.1588 269.336 44.1588C273.169 44.1588 275.697 42.6414 276.655 40.0938H287.377C285.636 47.0258 279.183 51.7297 269.508 51.7297C257.828 51.7297 249.985 45.1131 249.985 35.1503C249.985 25.1876 257.916 18.4951 269.152 18.4951C280.389 18.4951 287.892 25.1117 287.892 35.0745L287.9 36.8275ZM261.945 30.6901H276.416C275.282 27.8949 273.101 26.2976 269.356 26.2976C265.411 26.3056 263.059 27.9867 261.925 30.6901H261.945Z" fill="#2C3A8F"/>
<path d="M62.8286 75.5284C58.2126 75.5284 53.7603 75.6522 49.3159 75.4845C46.3531 75.3727 44.1249 73.6118 42.2481 71.4235C39.7405 68.5086 37.9835 65.1224 36.2226 61.7522C32.6288 54.8442 29.2626 47.8243 24.2632 41.7468C21.8913 38.8678 19.0722 37.3544 15.3306 37.2026C13.5018 37.1388 13.0226 37.578 13.0386 39.3709C13.1145 48.4392 13.0106 57.5076 13.1145 66.5759C13.1344 68.5325 12.6832 69.2393 10.6308 69.0836C8.00665 68.9378 5.37647 68.9378 2.75237 69.0836C1.38273 69.1155 0.847656 68.7961 0.847656 67.2907C0.895573 48.0519 0.895573 28.8131 0.847656 9.57437C0.847656 8.13286 1.27891 7.67764 2.70445 7.72955C5.41177 7.82938 8.13507 7.87331 10.8384 7.72955C12.5954 7.63372 13.1384 8.12886 13.1105 9.94573C13.0067 17.1333 13.1863 24.3528 13.0146 31.5524C12.9547 33.9123 13.7134 34.3915 15.8697 34.2797C19.3357 34.1 22.8177 34.3076 26.2917 34.2118C30.4925 34.088 33.8307 35.7571 36.6179 38.7679C38.9379 41.2756 40.611 44.2105 42.3041 47.1535C42.887 48.1797 43.4022 49.2498 43.9492 50.3C51.5601 64.9308 51.5601 64.9308 62.8286 75.5284Z" fill="#2C3A8F"/>
<path d="M55.2501 0.885766C49.5639 3.25767 46.5252 7.8737 43.9177 12.929C42.4243 15.832 40.827 18.679 39.3176 21.57C36.9218 26.1941 32.9526 28.3583 27.9053 28.518C23.1136 28.6658 18.3578 28.55 13.1309 28.55C15.2232 26.817 17.6191 26.3897 19.2842 24.7925C22.287 21.9414 24.2077 18.3596 26.2642 14.8656C27.6578 12.4937 29.0394 10.1058 30.3092 7.67803C32.6172 3.22972 36.3867 1.11337 41.1784 0.925697C45.8703 0.746008 50.5622 0.885766 55.2501 0.885766Z" fill="#F7A41D"/>
<path d="M150.034 71.0163C150.034 75.233 146.779 78.3636 142.566 78.3636H137.435V88.5021H131.925V63.4654H142.566C143.555 63.4631 144.534 63.6576 145.446 64.0373C146.358 64.417 147.186 64.9745 147.881 65.6772C148.576 66.3799 149.124 67.2139 149.494 68.1305C149.863 69.0471 150.047 70.0281 150.034 71.0163V71.0163ZM144.779 71.0602C144.779 69.431 143.441 68.305 141.688 68.305H137.435V73.8155H141.688C143.441 73.8155 144.779 72.7293 144.779 71.0602Z" fill="#F7A41D"/>
<path d="M152.665 59.9316H158.004V88.5143H152.665V59.9316Z" fill="#F7A41D"/>
<path d="M182.29 84.1619V88.5025C181.846 88.7102 181.363 88.8231 180.873 88.8339C179.844 88.8504 178.829 88.5974 177.928 88.1C177.027 87.6026 176.272 86.8783 175.738 85.9988C175.078 86.8909 174.217 87.6134 173.223 88.1064C172.229 88.5994 171.133 88.8487 170.023 88.8339C165.391 88.8339 161.762 84.9965 161.762 80.1569C161.762 75.3172 165.391 71.4759 170.023 71.4759C171.779 71.4497 173.479 72.0921 174.779 73.2728V71.8113H180.078V82.5328C180.078 83.9104 180.829 84.1619 181.54 84.1619H182.29ZM175.031 80.1688C175.031 79.3846 174.798 78.618 174.363 77.9659C173.927 77.3139 173.308 76.8056 172.583 76.5055C171.859 76.2054 171.061 76.1269 170.292 76.2799C169.523 76.4329 168.816 76.8105 168.262 77.3651C167.707 77.9196 167.33 78.6261 167.177 79.3953C167.024 80.1644 167.102 80.9617 167.402 81.6862C167.702 82.4108 168.211 83.0301 168.863 83.4658C169.515 83.9014 170.281 84.134 171.066 84.134C171.587 84.134 172.104 84.031 172.586 83.831C173.068 83.631 173.505 83.3379 173.874 82.9684C174.242 82.5989 174.534 82.1604 174.732 81.6779C174.931 81.1955 175.032 80.6786 175.031 80.1569V80.1688Z" fill="#F7A41D"/>
<path d="M191.47 75.94V81.8937C191.47 83.2713 192.269 84.1458 193.387 84.1458H195.383V88.2827C194.984 88.5742 193.838 88.8218 192.712 88.8218C189.166 88.8218 186.163 86.0705 186.163 82.5206V75.94H183.368V71.8111H186.163V65.3862H191.462V71.8111H195.423V75.94H191.47Z" fill="#F7A41D"/>
<path d="M208.829 75.9398H204.863V88.5021H199.525V75.9398H196.729V71.8109H199.525V66.1766C199.525 62.6307 202.527 59.9194 206.073 59.9194C207.199 59.9194 208.325 60.1271 208.745 60.4186V64.5914H206.748C205.622 64.5914 204.871 65.4259 204.871 66.8035V71.8109H208.837L208.829 75.9398Z" fill="#F7A41D"/>
<path d="M210.122 80.1566C210.122 75.1492 213.836 71.4756 219.426 71.4756C225.016 71.4756 228.69 75.1492 228.69 80.1566C228.69 85.1639 225.016 88.8336 219.426 88.8336C213.836 88.8336 210.122 85.1639 210.122 80.1566ZM223.391 80.1566C223.391 79.3724 223.159 78.6057 222.723 77.9537C222.287 77.3016 221.668 76.7934 220.943 76.4933C220.219 76.1932 219.422 76.1146 218.652 76.2676C217.883 76.4206 217.177 76.7983 216.622 77.3528C216.068 77.9073 215.69 78.6139 215.537 79.383C215.384 80.1522 215.463 80.9494 215.763 81.674C216.063 82.3985 216.571 83.0178 217.223 83.4535C217.875 83.8892 218.642 84.1217 219.426 84.1217C219.949 84.1287 220.467 84.0309 220.952 83.8341C221.436 83.6373 221.876 83.3455 222.245 82.9759C222.615 82.6063 222.907 82.1664 223.104 81.6822C223.3 81.198 223.398 80.6792 223.391 80.1566V80.1566Z" fill="#F7A41D"/>
<path d="M243.88 71.6431V76.359C243.372 76.2476 242.854 76.1913 242.334 76.1913C239.707 76.1913 237.826 77.7885 237.826 80.5318V88.518H232.487V71.8268H237.826V74.1229C238.319 73.324 239.006 72.6634 239.824 72.2031C240.642 71.7428 241.563 71.4979 242.502 71.4914C242.966 71.4731 243.431 71.5243 243.88 71.6431V71.6431Z" fill="#F7A41D"/>
<path d="M271.876 77.9443V88.502H266.577V78.8228C266.577 77.3613 265.574 76.1913 264.117 76.1913C262.488 76.1913 261.721 77.6089 261.721 78.8228V88.502H256.406V78.8228C256.406 77.3613 255.448 76.1913 253.987 76.1913C252.361 76.1913 251.611 77.6089 251.611 78.8228V88.502H246.256V71.8109H251.615V73.8553C252.122 73.1176 252.801 72.5142 253.593 72.0969C254.386 71.6795 255.267 71.4608 256.163 71.4595C257.148 71.4591 258.115 71.7321 258.954 72.2481C259.794 72.7641 260.474 73.503 260.919 74.3824C261.961 72.5456 263.798 71.4595 266.177 71.4595C269.831 71.4754 271.876 74.063 271.876 77.9443Z" fill="#F7A41D"/>
<path d="M274.799 84.8285L278.72 82.8679C278.969 83.3973 279.365 83.8441 279.86 84.1549C280.356 84.4657 280.93 84.6274 281.515 84.6209C282.394 84.6209 282.977 84.2455 282.977 83.5787C282.977 82.9917 282.478 82.5764 280.98 81.9814C279.063 81.2707 275.725 80.1446 275.725 76.7904C275.725 73.9513 278.145 71.4476 281.942 71.4476C284.035 71.4275 286.054 72.2207 287.573 73.6598L284.897 76.7026C284.575 76.3316 284.178 76.0331 283.732 75.8266C283.286 75.6201 282.801 75.5104 282.31 75.5046C281.391 75.5046 280.972 75.9039 280.972 76.463C280.972 77.0899 281.559 77.3375 282.769 77.8406C285.165 78.759 287.9 80.0927 287.9 83.4309C287.9 86.5615 285.604 88.8536 281.851 88.8536C278.888 88.8336 275.801 87.4161 274.799 84.8285Z" fill="#F7A41D"/>
<g style="mix-blend-mode:multiply">
<path style="mix-blend-mode:multiply" d="M310.856 81.6859C310.082 83.9894 309.689 86.4035 309.69 88.8335H302.203C302.206 85.0563 302.926 81.3138 304.323 77.8046C306.886 78.2992 309.196 79.6717 310.856 81.6859V81.6859ZM317.177 62.9183C314.774 64.3135 312.575 66.0349 310.645 68.0335C309.718 68.9863 308.856 70.0001 308.065 71.0682C310.479 71.8684 312.705 73.1524 314.606 74.8417C316.706 72.2037 319.375 70.0733 322.413 68.609C325.45 67.1448 328.779 66.3843 332.151 66.3843V58.8853C326.892 58.8794 321.726 60.2668 317.177 62.9063V62.9183Z" fill="url(#paint0_linear_506_3522)"/>
<path style="mix-blend-mode:multiply" d="M317.177 77.6207C314.743 80.8514 313.429 84.7882 313.435 88.8334C313.431 86.2235 312.52 83.6963 310.858 81.6843C309.195 79.6724 306.885 78.3008 304.323 77.8044C303.629 77.6726 302.925 77.6057 302.219 77.6047V70.1177C305.126 70.1212 307.992 70.801 310.591 72.1032C313.19 73.4054 315.45 75.2944 317.193 77.6207H317.177Z" fill="url(#paint1_linear_506_3522)"/>
<path style="mix-blend-mode:multiply" d="M332.151 70.1177V77.6048C331.445 77.606 330.741 77.6728 330.047 77.8044C329.088 75.4034 327.826 73.1354 326.289 71.0561C328.181 70.4318 330.16 70.115 332.151 70.1177V70.1177ZM319.753 74.8296C318.8 75.6697 317.937 76.6064 317.177 77.6247C314.743 80.8555 313.429 84.7922 313.436 88.8374H320.923C320.921 86.2272 321.832 83.6986 323.498 81.6897C322.661 79.2015 321.393 76.8796 319.753 74.8296V74.8296Z" fill="url(#paint2_linear_506_3522)"/>
<path style="mix-blend-mode:multiply" d="M332.151 88.8335H324.664C324.669 83.7426 322.936 78.8025 319.753 74.8297C318.971 73.8527 318.109 72.9418 317.177 72.1064C319.102 70.3771 321.312 68.9949 323.71 68.0215C324.638 68.9733 325.5 69.9872 326.29 71.0562C327.826 73.1356 329.089 75.4036 330.047 77.8046C331.439 81.3149 332.153 85.0573 332.151 88.8335V88.8335ZM302.203 58.8853V66.3723C305.097 66.3691 307.964 66.9292 310.645 68.0215C312.575 66.0229 314.774 64.3015 317.177 62.9063C312.629 60.2668 307.462 58.8794 302.203 58.8853V58.8853Z" fill="url(#paint3_linear_506_3522)"/>
</g>
</g>
<defs>
<linearGradient id="paint0_linear_506_3522" x1="332.151" y1="73.8594" x2="302.203" y2="73.8594" gradientUnits="userSpaceOnUse">
<stop stop-color="#2E2E30" stop-opacity="0.07"/>
<stop offset="0.58" stop-color="#2E2E30" stop-opacity="0.28"/>
<stop offset="1" stop-color="#2E2E30" stop-opacity="0.5"/>
</linearGradient>
<linearGradient id="paint1_linear_506_3522" x1="302.267" y1="70.0538" x2="317.241" y2="85.0279" gradientUnits="userSpaceOnUse">
<stop stop-color="#2E2E30" stop-opacity="0.21"/>
<stop offset="0.78" stop-color="#2E2E30" stop-opacity="0.42"/>
<stop offset="1" stop-color="#2E2E30" stop-opacity="0.5"/>
</linearGradient>
<linearGradient id="paint2_linear_506_3522" x1="322.791" y1="70.1177" x2="322.791" y2="88.8334" gradientUnits="userSpaceOnUse">
<stop stop-color="#2E2E30" stop-opacity="0.07"/>
<stop offset="0.58" stop-color="#2E2E30" stop-opacity="0.28"/>
<stop offset="1" stop-color="#2E2E30" stop-opacity="0.5"/>
</linearGradient>
<linearGradient id="paint3_linear_506_3522" x1="307.063" y1="56.0821" x2="327.519" y2="91.5089" gradientUnits="userSpaceOnUse">
<stop stop-color="#2E2E30" stop-opacity="0.21"/>
<stop offset="0.78" stop-color="#2E2E30" stop-opacity="0.42"/>
<stop offset="1" stop-color="#2E2E30" stop-opacity="0.5"/>
</linearGradient>
<clipPath id="clip0_506_3522">
<rect width="331.304" height="88" fill="white" transform="translate(0.847656 0.833496)"/>
</clipPath>
</defs>
</svg>
