<svg width="760" height="494" viewBox="0 0 760 494" fill="none" xmlns="http://www.w3.org/2000/svg">
<path d="M151.5 341.4C151.5 233.3 151.8 127.9 151.2 22.4998C151.1 10.1998 154.4 7.39981 166.3 7.49981C223 8.09981 279.7 7.79981 336.5 7.79981C333.4 31.8998 332.4 32.7998 309.8 32.7998C270.8 32.7998 231.9 33.5998 193 32.3998C178.8 31.9998 176.6 36.6998 176.7 49.4998C177.4 122 175.7 194.4 177.7 266.8C178.4 295.2 169.8 317.9 151.5 341.4Z" fill="white"/>
<path d="M555.9 266.8C557.8 194.4 556.2 122 556.8 49.4998C556.9 36.6998 554.7 31.9998 540.5 32.3998C501.6 33.5998 462.7 32.7998 423.8 32.7998C401.1 32.7998 400.1 31.8998 397 7.79981C453.8 7.79981 510.5 8.09981 567.3 7.49981C579.2 7.39981 582.4 10.1998 582.3 22.4998C581.8 127.9 582 233.3 582 341.4C563.8 317.9 555.1 295.2 555.9 266.8V266.8Z" fill="white"/>
<path d="M556.2 326C543.3 326 530.9 325.9 518.4 326C515.5 326 514.5 324.5 513.2 322.3C484.8 273.2 456.2 224.2 427.9 174.9C424.9 169.6 421.8 167.4 415.5 167.7C408.3 168.1 402.3 167.9 395.2 167.7C392.933 166.3 390.833 164.733 388.9 163C383.3 158.1 376.5 156.8 369.7 160.7C362.8 164.5 359.9 170.3 360.6 177.9C361.2 185.4 366.2 189.7 372.9 192C378.9 194 384.7 193.1 389 188.2C390.6 186.4 392.4 184.9 394.5 183.8C398.8 183.8 403.1 183.8 407.4 183.7C411.7 183.6 414.5 184.9 416.7 188.6C442.8 234.1 469 279.6 495.9 326.2C481.9 326.2 468.8 326.4 455.7 326.1C453.1 326.1 452.5 322.9 451.3 320.9C432.9 289.3 414.5 257.6 396.4 225.8C393.9 221.4 391.2 220.1 386.4 220C378.5 219.8 370.2 219.6 355.4 219.9C354 218.9 352.633 217.8 351.3 216.6C345.7 211.8 339 210.5 332.1 214.3C325.2 218.1 322.3 223.9 323 231.5C323.6 239.1 328.6 243.3 335.3 245.6C341.3 247.6 347.1 246.7 351.4 241.9C353 240 354.9 238.5 357.1 237.4C358.1 237.4 359 237.4 360 237.3C377.5 236.5 387 240.7 394.7 256.5C406.3 280 420.5 302.1 433.8 325.1C431.1 327.1 428.2 326.4 425.6 326.4C346.2 326.6 266.833 326.733 187.5 326.8C179.7 326.8 179.7 326.8 183.3 320.5C243.833 215.566 304.367 110.666 364.9 5.7998C365.8 4.0998 366.9 2.5998 368.3 0.299805L433.7 113.7C420.5 113.7 408.5 114 396.6 113.6C391.9 113.5 389.5 109.5 387.3 105.6C381.3 94.9998 375.2 84.2998 368.5 72.1998C361.9 83.4998 355.9 93.4998 350.1 103.6C315.5 163.6 280.867 223.633 246.2 283.7C242.4 290.4 242.4 290.4 249.7 290.4C281.5 290.6 313.3 290.1 345.1 290.6C346.8 291.7 348.3 292.9 349.6 294.4C353.8 299.3 359.7 300.2 365.7 298.2C372.4 295.9 377.4 291.7 378 284.1C378.7 276.5 375.7 270.6 368.9 266.9C362.2 263.2 355.3 264.3 349.7 269.2C348.167 270.6 346.533 271.9 344.8 273.1C323.2 273.1 301.6 273.1 280 273.1H271.3C303.9 216.7 335.8 161.4 368.4 105.1C372.5 112.2 376.4 118 379.4 124.4C382 129.9 385.8 131.5 391.7 131.4C407.1 131 422.5 131.3 437.9 131.2C442.1 131.2 445 132.3 447.2 136.1C483.133 198.633 519.1 261.1 555.1 323.5C555.5 324.1 555.7 324.7 556.2 326V326Z" fill="#F3B737"/>
<path d="M556.2 326C543.3 326 530.9 325.9 518.4 326C515.5 326 514.5 324.5 513.2 322.3C484.8 273.2 456.2 224.2 427.9 174.9C424.9 169.6 421.8 167.4 415.5 167.7C408.3 168.1 402.3 167.9 395.2 167.7C392.933 166.3 390.833 164.733 388.9 163C383.3 158.1 376.5 156.8 369.7 160.7C362.8 164.5 359.9 170.3 360.6 177.9C361.2 185.4 366.2 189.7 372.9 192C378.9 194 384.7 193.1 389 188.2C390.6 186.4 392.4 184.9 394.5 183.8C398.8 183.8 403.1 183.8 407.4 183.7C411.7 183.6 414.5 184.9 416.7 188.6C442.8 234.1 469 279.6 495.9 326.2C481.9 326.2 468.8 326.4 455.7 326.1C453.1 326.1 452.5 322.9 451.3 320.9C432.9 289.3 414.5 257.6 396.4 225.8C393.9 221.4 391.2 220.1 386.4 220C378.5 219.8 370.2 219.6 355.4 219.9C354 218.9 352.633 217.8 351.3 216.6C345.7 211.8 339 210.5 332.1 214.3C325.2 218.1 322.3 223.9 323 231.5C323.6 239.1 328.6 243.3 335.3 245.6C341.3 247.6 347.1 246.7 351.4 241.9C353 240 354.9 238.5 357.1 237.4C358.1 237.4 359 237.4 360 237.3C377.5 236.5 387 240.7 394.7 256.5C406.3 280 420.5 302.1 433.8 325.1C431.1 327.1 428.2 326.4 425.6 326.4C346.2 326.6 266.833 326.733 187.5 326.8C179.7 326.8 179.7 326.8 183.3 320.5C243.833 215.566 304.367 110.666 364.9 5.7998C365.8 4.0998 366.9 2.5998 368.3 0.299805L433.7 113.7C420.5 113.7 408.5 114 396.6 113.6C391.9 113.5 389.5 109.5 387.3 105.6C381.3 94.9998 375.2 84.2998 368.5 72.1998C361.9 83.4998 355.9 93.4998 350.1 103.6C315.5 163.6 280.867 223.633 246.2 283.7C242.4 290.4 242.4 290.4 249.7 290.4C281.5 290.6 313.3 290.1 345.1 290.6C346.8 291.7 348.3 292.9 349.6 294.4C353.8 299.3 359.7 300.2 365.7 298.2C372.4 295.9 377.4 291.7 378 284.1C378.7 276.5 375.7 270.6 368.9 266.9C362.2 263.2 355.3 264.3 349.7 269.2C348.167 270.6 346.533 271.9 344.8 273.1C323.2 273.1 301.6 273.1 280 273.1H271.3C303.9 216.7 335.8 161.4 368.4 105.1C372.5 112.2 376.4 118 379.4 124.4C382 129.9 385.8 131.5 391.7 131.4C407.1 131 422.5 131.3 437.9 131.2C442.1 131.2 445 132.3 447.2 136.1C483.133 198.633 519.1 261.1 555.1 323.5C555.5 324.1 555.7 324.7 556.2 326V326Z" fill="#F9A32C"/>
<path d="M556.2 326C543.3 326 530.9 325.9 518.4 326C515.5 326 514.5 324.5 513.2 322.3C484.8 273.2 456.2 224.2 427.9 174.9C424.9 169.6 421.8 167.4 415.5 167.7C408.3 168.1 402.3 167.9 395.2 167.7C392.933 166.3 390.833 164.733 388.9 163C383.3 158.1 376.5 156.8 369.7 160.7C362.8 164.5 359.9 170.3 360.6 177.9C361.2 185.4 366.2 189.7 372.9 192C378.9 194 384.7 193.1 389 188.2C390.6 186.4 392.4 184.9 394.5 183.8C398.8 183.8 403.1 183.8 407.4 183.7C411.7 183.6 414.5 184.9 416.7 188.6C442.8 234.1 469 279.6 495.9 326.2C481.9 326.2 468.8 326.4 455.7 326.1C453.1 326.1 452.5 322.9 451.3 320.9C432.9 289.3 414.5 257.6 396.4 225.8C393.9 221.4 391.2 220.1 386.4 220C378.5 219.8 370.2 219.6 355.4 219.9C354 218.9 352.633 217.8 351.3 216.6C345.7 211.8 339 210.5 332.1 214.3C325.2 218.1 322.3 223.9 323 231.5C323.6 239.1 328.6 243.3 335.3 245.6C341.3 247.6 347.1 246.7 351.4 241.9C353 240 354.9 238.5 357.1 237.4C358.1 237.4 359 237.4 360 237.3C377.5 236.5 387 240.7 394.7 256.5C406.3 280 420.5 302.1 433.8 325.1C431.1 327.1 428.2 326.4 425.6 326.4C346.2 326.6 266.833 326.733 187.5 326.8C179.7 326.8 179.7 326.8 183.3 320.5C243.833 215.566 304.367 110.666 364.9 5.7998C365.8 4.0998 366.9 2.5998 368.3 0.299805L433.7 113.7C420.5 113.7 408.5 114 396.6 113.6C391.9 113.5 389.5 109.5 387.3 105.6C381.3 94.9998 375.2 84.2998 368.5 72.1998C361.9 83.4998 355.9 93.4998 350.1 103.6C315.5 163.6 280.867 223.633 246.2 283.7C242.4 290.4 242.4 290.4 249.7 290.4C281.5 290.6 313.3 290.1 345.1 290.6C346.8 291.7 348.3 292.9 349.6 294.4C353.8 299.3 359.7 300.2 365.7 298.2C372.4 295.9 377.4 291.7 378 284.1C378.7 276.5 375.7 270.6 368.9 266.9C362.2 263.2 355.3 264.3 349.7 269.2C348.167 270.6 346.533 271.9 344.8 273.1C323.2 273.1 301.6 273.1 280 273.1H271.3C303.9 216.7 335.8 161.4 368.4 105.1C372.5 112.2 376.4 118 379.4 124.4C382 129.9 385.8 131.5 391.7 131.4C407.1 131 422.5 131.3 437.9 131.2C442.1 131.2 445 132.3 447.2 136.1C483.133 198.633 519.1 261.1 555.1 323.5C555.5 324.1 555.7 324.7 556.2 326V326Z" fill="#F9A32C"/>
<path d="M112.9 493C104.5 493 96.4 493.3 88.3 493C82.9 492.8 78.9 489.6 75.5 485.6C70.9 480.3 67.7 474.1 64.5 467.9C57.9 455.4 51.8 442.6 42.7 431.5C38.4 426.2 33.3 423.5 26.4 423.2C23.1 423.1 22.2 423.9 22.2 427.2C22.4 443.7 22.2 460.2 22.4 476.7C22.4 480.3 21.6 481.6 17.8 481.3C13 481.034 8.23333 481.034 3.5 481.3C1 481.4 0 480.8 0 478C0.0666667 442.934 0.0666667 407.9 0 372.9C0 370.2 0.8 369.5 3.4 369.5C8.3 369.6 13.3 369.7 18.2 369.5C21.4 369.3 22.4 370.2 22.4 373.5C22.2 386.6 22.5 399.8 22.2 412.9C22.1 417.2 23.5 418.1 27.4 417.8C33.7 417.5 40.1 417.8 46.4 417.7C54 417.5 60.1 420.5 65.2 426C69.4 430.6 72.5 436 75.5 441.3C76.6 443.2 77.5 445.1 78.5 447C92.4 473.7 92.4 473.7 112.9 493Z" fill="white"/>
<path d="M99.0999 357C88.7999 361.4 83.2999 369.8 78.4999 379C75.7999 384.3 72.7999 389.5 70.0999 394.7C65.6999 403.1 58.4999 407.1 49.2999 407.4C40.5999 407.7 31.8999 407.4 22.3999 407.4C26.1999 404.3 30.4999 403.5 33.5999 400.6C39.0999 395.4 42.5999 388.9 46.2999 382.5C48.8999 378.2 51.3999 373.9 53.6999 369.4C57.8999 361.4 64.7999 357.5 73.4999 357.2C81.9999 356.8 90.5999 357 99.0999 357V357Z" fill="#F9A32C"/>
<path fill-rule="evenodd" clip-rule="evenodd" d="M143.2 420.3V421.6C143.2 422 143.167 422.4 143.1 422.8H105.4C105.6 426.5 107.1 430 109.6 432.7C112 435.234 115.267 436.467 119.4 436.4C122.2 436.6 124.9 435.8 127.2 434.2C129.3 432.6 131 430.4 131.9 427.9L141.8 429.3C141.2 431.8 140.1 434.2 138.7 436.3C137.4 438.4 135.6 440.2 133.6 441.8C131.5 443.3 129.2 444.5 126.6 445.3C123.8 446.2 120.9 446.6 117.9 446.5C114.6 446.6 111.3 446 108.1 444.8C105.2 443.6 102.5 441.9 100.2 439.6C97.9 437.3 96.1001 434.5 94.8001 431.4C93.5001 427.8 92.8 424.1 92.9 420.3C92.8 416.6 93.5001 412.9 94.8001 409.5C97.2001 403.3 102.1 398.3 108.3 395.8C111.5 394.5 114.8 393.9 118.3 393.9C122 393.8 125.7 394.5 129.1 396C132.1 397.3 134.8 399.2 136.9 401.7C139 404.1 140.6 406.9 141.6 410C142.6 413.3 143.2 416.8 143.2 420.3ZM131.8 415C131.3 411.8 129.8 408.8 127.6 406.4C122.5 401.9 114.9 401.9 109.8 406.4C107.6 408.8 106.1 411.8 105.6 415H131.8Z" fill="white"/>
<path fill-rule="evenodd" clip-rule="evenodd" d="M143.2 420.3V421.6C143.2 422 143.167 422.4 143.1 422.8H105.4C105.6 426.5 107.1 430 109.6 432.7C112 435.234 115.267 436.467 119.4 436.4C122.2 436.6 124.9 435.8 127.2 434.2C129.3 432.6 131 430.4 131.9 427.9L141.8 429.3C141.2 431.8 140.1 434.2 138.7 436.3C137.4 438.4 135.6 440.2 133.6 441.8C131.5 443.3 129.2 444.5 126.6 445.3C123.8 446.2 120.9 446.6 117.9 446.5C114.6 446.6 111.3 446 108.1 444.8C105.2 443.6 102.5 441.9 100.2 439.6C97.9 437.3 96.1001 434.5 94.8001 431.4C93.5001 427.8 92.8 424.1 92.9 420.3C92.8 416.6 93.5001 412.9 94.8001 409.5C97.2001 403.3 102.1 398.3 108.3 395.8C111.5 394.5 114.8 393.9 118.3 393.9C122 393.8 125.7 394.5 129.1 396C132.1 397.3 134.8 399.2 136.9 401.7C139 404.1 140.6 406.9 141.6 410C142.6 413.3 143.2 416.8 143.2 420.3ZM131.8 415C131.3 411.8 129.8 408.8 127.6 406.4C122.5 401.9 114.9 401.9 109.8 406.4C107.6 408.8 106.1 411.8 105.6 415H131.8Z" fill="white"/>
<path d="M229.4 413.1V445.9H216.9V416C217 414 216.7 412.1 216.1 410.2C215.6 408.8 214.9 407.6 214 406.5C213.2 405.6 212.1 404.9 211 404.5C209.867 404.1 208.7 403.9 207.5 403.9C206.167 403.834 204.867 404 203.6 404.4C202.4 404.7 201.2 405.3 200.3 406.2C199.3 407.2 198.5 408.5 198 409.8C197.4 411.7 197.2 413.7 197.2 415.7V445.9H184.5V415.8C184.6 414 184.3 412.2 183.7 410.4C183.3 409.1 182.6 407.8 181.6 406.8C180.7 405.8 179.6 405.1 178.4 404.6C177.1 404.2 175.8 403.9 174.5 404C173.167 403.934 171.9 404.134 170.7 404.6C169.5 405 168.4 405.6 167.5 406.5C166.5 407.6 165.7 408.8 165.2 410.2C164.6 412 164.3 413.9 164.4 415.8V445.9H151.8V394.5H164.6V402.6C164.933 401.667 165.4 400.8 166 400C166.8 398.934 167.767 398 168.9 397.2C170.167 396.2 171.567 395.4 173.1 394.8C175 394.1 176.9 393.8 178.9 393.8C180.8 393.8 182.6 394.1 184.4 394.6C185.933 395.067 187.333 395.8 188.6 396.8C189.867 397.734 191 398.834 192 400.1C193 401.434 193.9 402.834 194.7 404.3C196.1 401.3 198.2 398.7 200.9 396.8C204 394.7 207.8 393.7 211.5 393.8C213.9 393.8 216.2 394.3 218.4 395.3C220.5 396.3 222.4 397.7 224 399.4C225.7 401.1 227 403.2 227.9 405.5C228.9 407.9 229.4 410.5 229.4 413.1V413.1Z" fill="white"/>
<path d="M229.4 413.1V445.9H216.9V416C217 414 216.7 412.1 216.1 410.2C215.6 408.8 214.9 407.6 214 406.5C213.2 405.6 212.1 404.9 211 404.5C209.867 404.1 208.7 403.9 207.5 403.9C206.167 403.834 204.867 404 203.6 404.4C202.4 404.7 201.2 405.3 200.3 406.2C199.3 407.2 198.5 408.5 198 409.8C197.4 411.7 197.2 413.7 197.2 415.7V445.9H184.5V415.8C184.6 414 184.3 412.2 183.7 410.4C183.3 409.1 182.6 407.8 181.6 406.8C180.7 405.8 179.6 405.1 178.4 404.6C177.1 404.2 175.8 403.9 174.5 404C173.167 403.934 171.9 404.134 170.7 404.6C169.5 405 168.4 405.6 167.5 406.5C166.5 407.6 165.7 408.8 165.2 410.2C164.6 412 164.3 413.9 164.4 415.8V445.9H151.8V394.5H164.6V402.6C164.933 401.667 165.4 400.8 166 400C166.8 398.934 167.767 398 168.9 397.2C170.167 396.2 171.567 395.4 173.1 394.8C175 394.1 176.9 393.8 178.9 393.8C180.8 393.8 182.6 394.1 184.4 394.6C185.933 395.067 187.333 395.8 188.6 396.8C189.867 397.734 191 398.834 192 400.1C193 401.434 193.9 402.834 194.7 404.3C196.1 401.3 198.2 398.7 200.9 396.8C204 394.7 207.8 393.7 211.5 393.8C213.9 393.8 216.2 394.3 218.4 395.3C220.5 396.3 222.4 397.7 224 399.4C225.7 401.1 227 403.2 227.9 405.5C228.9 407.9 229.4 410.5 229.4 413.1V413.1Z" fill="white"/>
<path d="M270.4 434.9V443.8C269.4 444.467 268.333 445 267.2 445.4C266.133 445.734 265.033 446 263.9 446.2C261 446.7 258 446.6 255.1 445.9C253.767 445.567 252.5 445.034 251.3 444.3C250.3 443.7 249.433 442.967 248.7 442.1C248.033 441.234 247.433 440.334 246.9 439.4C245.9 437.2 245.3 434.7 245.3 432.2V403.9H238.6V396.4C239.4 396.334 240.233 396.167 241.1 395.9C242.033 395.567 242.9 395.134 243.7 394.6C245.2 393.7 246.5 392.5 247.5 391.1C248.3 389.834 249 388.5 249.6 387.1C250 385.967 250.3 384.834 250.5 383.7C250.633 382.634 250.7 381.967 250.7 381.7H257.8C257.8 384 257.9 386.2 257.9 388.5C257.9 390.8 257.9 393 258 395.3H270V404H258.1C258.3 419.667 258.367 428.9 258.3 431.7C258.367 432.234 258.433 432.767 258.5 433.3C258.6 434 259 434.7 259.6 435.2C260.2 435.9 261.1 436.3 262.1 436.4C263.1 436.467 264.133 436.467 265.2 436.4C266.267 436.267 267.267 436.034 268.2 435.7L270.4 434.9Z" fill="white"/>
<path d="M270.4 434.9V443.8C269.4 444.467 268.333 445 267.2 445.4C266.133 445.734 265.033 446 263.9 446.2C261 446.7 258 446.6 255.1 445.9C253.767 445.567 252.5 445.034 251.3 444.3C250.3 443.7 249.433 442.967 248.7 442.1C248.033 441.234 247.433 440.334 246.9 439.4C245.9 437.2 245.3 434.7 245.3 432.2V403.9H238.6V396.4C239.4 396.334 240.233 396.167 241.1 395.9C242.033 395.567 242.9 395.134 243.7 394.6C245.2 393.7 246.5 392.5 247.5 391.1C248.3 389.834 249 388.5 249.6 387.1C250 385.967 250.3 384.834 250.5 383.7C250.633 382.634 250.7 381.967 250.7 381.7H257.8C257.8 384 257.9 386.2 257.9 388.5C257.9 390.8 257.9 393 258 395.3H270V404H258.1C258.3 419.667 258.367 428.9 258.3 431.7C258.367 432.234 258.433 432.767 258.5 433.3C258.6 434 259 434.7 259.6 435.2C260.2 435.9 261.1 436.3 262.1 436.4C263.1 436.467 264.133 436.467 265.2 436.4C266.267 436.267 267.267 436.034 268.2 435.7L270.4 434.9Z" fill="white"/>
<path fill-rule="evenodd" clip-rule="evenodd" d="M325.1 420.3V421.6C325.1 422 325.067 422.4 325 422.8H287.3C287.6 426.5 289 430 291.5 432.7C293.9 435.234 297.167 436.467 301.3 436.4C304.1 436.6 306.8 435.8 309.2 434.2C311.3 432.6 312.9 430.4 313.8 427.9L323.8 429.3C323.1 431.8 322.1 434.1 320.7 436.3C319.3 438.4 317.6 440.2 315.6 441.8C313.4 443.3 311.1 444.5 308.6 445.3C305.7 446.2 302.8 446.6 299.8 446.5C296.5 446.6 293.2 446 290.1 444.8C287.1 443.6 284.4 441.9 282.1 439.6C279.8 437.3 278 434.5 276.8 431.4C275.4 427.8 274.7 424.1 274.8 420.3C274.7 416.6 275.4 413 276.7 409.5C279.1 403.3 284 398.3 290.2 395.8C293.4 394.5 296.8 393.9 300.2 393.9C303.9 393.8 307.6 394.5 311.1 396C314.1 397.3 316.7 399.2 318.9 401.7C321 404.1 322.6 406.9 323.5 410C324.6 413.3 325.1 416.8 325.1 420.3V420.3ZM313.7 415C313.2 411.8 311.7 408.8 309.5 406.4C304.4 401.9 296.8 401.9 291.7 406.4C289.5 408.8 288 411.8 287.5 415H313.7Z" fill="white"/>
<path fill-rule="evenodd" clip-rule="evenodd" d="M325.1 420.3V421.6C325.1 422 325.067 422.4 325 422.8H287.3C287.6 426.5 289 430 291.5 432.7C293.9 435.234 297.167 436.467 301.3 436.4C304.1 436.6 306.8 435.8 309.2 434.2C311.3 432.6 312.9 430.4 313.8 427.9L323.8 429.3C323.1 431.8 322.1 434.1 320.7 436.3C319.3 438.4 317.6 440.2 315.6 441.8C313.4 443.3 311.1 444.5 308.6 445.3C305.7 446.2 302.8 446.6 299.8 446.5C296.5 446.6 293.2 446 290.1 444.8C287.1 443.6 284.4 441.9 282.1 439.6C279.8 437.3 278 434.5 276.8 431.4C275.4 427.8 274.7 424.1 274.8 420.3C274.7 416.6 275.4 413 276.7 409.5C279.1 403.3 284 398.3 290.2 395.8C293.4 394.5 296.8 393.9 300.2 393.9C303.9 393.8 307.6 394.5 311.1 396C314.1 397.3 316.7 399.2 318.9 401.7C321 404.1 322.6 406.9 323.5 410C324.6 413.3 325.1 416.8 325.1 420.3V420.3ZM313.7 415C313.2 411.8 311.7 408.8 309.5 406.4C304.4 401.9 296.8 401.9 291.7 406.4C289.5 408.8 288 411.8 287.5 415H313.7Z" fill="white"/>
<path d="M357.5 436.8C360.8 437 364 435.7 366.4 433.4C368.7 431.1 370.3 428.1 370.9 424.8L381.1 426C380.6 428.8 379.7 431.5 378.5 434.1C377.3 436.6 375.6 438.8 373.5 440.6C371.4 442.5 368.9 443.9 366.3 444.9C363.2 446 359.9 446.5 356.7 446.4C353.1 446.5 349.7 445.8 346.4 444.5C343.4 443.2 340.7 441.3 338.5 438.9C336.2 436.5 334.5 433.7 333.3 430.6C330.8 423.9 330.8 416.6 333.3 409.9C334.5 406.8 336.3 403.9 338.5 401.5C340.8 399.1 343.5 397.2 346.6 395.8C349.8 394.4 353.3 393.7 356.8 393.8C360 393.7 363.1 394.3 366.1 395.4C368.8 396.4 371.3 398 373.4 399.9C375.5 401.9 377.3 404.2 378.6 406.7C380 409.4 380.9 412.3 381.3 415.3L371.2 416.2C370.8 412.7 369.3 409.4 366.9 406.9C364.5 404.5 361.1 403.2 357.7 403.3C355.6 403.3 353.5 403.7 351.6 404.6C349.9 405.4 348.4 406.6 347.2 408.1C346 409.6 345.1 411.4 344.6 413.4C344 415.5 343.7 417.8 343.7 420C343.7 422.2 344 424.5 344.7 426.6C345.2 428.6 346.2 430.4 347.4 431.9C348.6 433.4 350 434.7 351.7 435.6C353.5 436.5 355.5 436.9 357.5 436.8V436.8Z" fill="white"/>
<path d="M357.5 436.8C360.8 437 364 435.7 366.4 433.4C368.7 431.1 370.3 428.1 370.9 424.8L381.1 426C380.6 428.8 379.7 431.5 378.5 434.1C377.3 436.6 375.6 438.8 373.5 440.6C371.4 442.5 368.9 443.9 366.3 444.9C363.2 446 359.9 446.5 356.7 446.4C353.1 446.5 349.7 445.8 346.4 444.5C343.4 443.2 340.7 441.3 338.5 438.9C336.2 436.5 334.5 433.7 333.3 430.6C330.8 423.9 330.8 416.6 333.3 409.9C334.5 406.8 336.3 403.9 338.5 401.5C340.8 399.1 343.5 397.2 346.6 395.8C349.8 394.4 353.3 393.7 356.8 393.8C360 393.7 363.1 394.3 366.1 395.4C368.8 396.4 371.3 398 373.4 399.9C375.5 401.9 377.3 404.2 378.6 406.7C380 409.4 380.9 412.3 381.3 415.3L371.2 416.2C370.8 412.7 369.3 409.4 366.9 406.9C364.5 404.5 361.1 403.2 357.7 403.3C355.6 403.3 353.5 403.7 351.6 404.6C349.9 405.4 348.4 406.6 347.2 408.1C346 409.6 345.1 411.4 344.6 413.4C344 415.5 343.7 417.8 343.7 420C343.7 422.2 344 424.5 344.7 426.6C345.2 428.6 346.2 430.4 347.4 431.9C348.6 433.4 350 434.7 351.7 435.6C353.5 436.5 355.5 436.9 357.5 436.8V436.8Z" fill="white"/>
<path d="M435.2 445.9H423V415.3C423 413.967 422.767 412.7 422.3 411.5C421.9 410.2 421.3 409.1 420.4 408.1C419.4 407 418.3 406.2 417.1 405.6C415.5 405 413.9 404.6 412.3 404.7C409.6 404.7 406.9 405.7 404.9 407.5C403.9 408.3 403.1 409.4 402.6 410.7C402 412 401.7 413.4 401.7 414.9V445.9H389.1V377.2H401.7V404.1C402 402.7 402.6 401.4 403.5 400.3C404.6 399 405.8 397.9 407.2 397C408.733 396 410.333 395.234 412 394.7C416.1 393.5 420.4 393.7 424.3 395.2C426.4 396 428.4 397.3 430 399C431.6 400.7 433 402.8 433.8 405C434.8 407.6 435.3 410.4 435.2 413.2V445.9Z" fill="white"/>
<path d="M435.2 445.9H423V415.3C423 413.967 422.767 412.7 422.3 411.5C421.9 410.2 421.3 409.1 420.4 408.1C419.4 407 418.3 406.2 417.1 405.6C415.5 405 413.9 404.6 412.3 404.7C409.6 404.7 406.9 405.7 404.9 407.5C403.9 408.3 403.1 409.4 402.6 410.7C402 412 401.7 413.4 401.7 414.9V445.9H389.1V377.2H401.7V404.1C402 402.7 402.6 401.4 403.5 400.3C404.6 399 405.8 397.9 407.2 397C408.733 396 410.333 395.234 412 394.7C416.1 393.5 420.4 393.7 424.3 395.2C426.4 396 428.4 397.3 430 399C431.6 400.7 433 402.8 433.8 405C434.8 407.6 435.3 410.4 435.2 413.2V445.9Z" fill="white"/>
<path d="M503.8 429.7L522.3 377.2H537L509.9 445.9H497.5L470.2 377.2H485L503.8 429.7Z" fill="white"/>
<path d="M503.8 429.7L522.3 377.2H537L509.9 445.9H497.5L470.2 377.2H485L503.8 429.7Z" fill="white"/>
<path fill-rule="evenodd" clip-rule="evenodd" d="M570.6 438C569.733 439.134 568.767 440.233 567.7 441.3C566.5 442.433 565.2 443.367 563.8 444.1C562.2 444.9 560.533 445.5 558.8 445.9C556.667 446.367 554.533 446.6 552.4 446.6C550.3 446.6 548.3 446.3 546.4 445.6C544.6 445 543 444 541.5 442.8C540.1 441.5 538.9 440 538.1 438.3C537.3 436.5 536.8 434.5 536.9 432.5C536.8 430.7 537.2 428.9 538 427.2C538.7 425.7 539.6 424.4 540.7 423.3C541.833 422.167 543.1 421.234 544.5 420.5C545.833 419.834 547.233 419.267 548.7 418.8C550.033 418.4 551.3 418.067 552.5 417.8L555.4 417.1C558.333 416.5 560.967 416 563.3 415.6C565.7 415.2 568 414.8 570.2 414.4C570.2 413.133 570.033 411.9 569.7 410.7C569.4 409.5 568.9 408.3 568.1 407.3C567.3 406.2 566.3 405.3 565.1 404.7C563.6 404 562 403.6 560.3 403.7C558.8 403.6 557.3 403.9 555.9 404.6C554.767 405.134 553.767 405.867 552.9 406.8C552 407.7 551.4 408.7 551 409.9C550.667 410.9 550.433 411.967 550.3 413.1L544.6 412.6C542.8 412.4 540.9 412.267 538.9 412.2C539.2 409.6 539.9 407.2 541 404.9C542.1 402.7 543.6 400.8 545.4 399.1C547.4 397.5 549.6 396.2 552 395.3C554.8 394.3 557.7 393.9 560.6 393.9C563.7 393.8 566.8 394.4 569.7 395.5C572.1 396.5 574.3 397.9 576.2 399.7C577.8 401.4 579.2 403.4 580.1 405.5C581 407.6 581.4 409.8 581.4 412.1V433.8C581.4 434.8 581.7 435.7 582.4 436.4C583 437 583.8 437.4 584.6 437.6C585.4 437.734 586.233 437.734 587.1 437.6C587.833 437.467 588.467 437.2 589 436.8V444H589.1C588.167 444.867 587.1 445.534 585.9 446C584.5 446.5 583 446.8 581.5 446.7C580 446.8 578.4 446.4 577 445.8C574.7 444.7 572.8 442.9 571.6 440.6C571.133 439.8 570.8 438.934 570.6 438V438ZM549.3 430.5C549.3 432.1 549.8 433.6 550.9 434.8C552 435.9 553.3 436.6 554.8 437C556.4 437.3 558.1 437.4 559.8 437.1C561.5 436.8 563.1 436.1 564.5 435C566.5 433.6 568.1 431.7 569.1 429.4C569.9 426.8 570.3 424.1 570.2 421.4C567.933 422.067 565.633 422.567 563.3 422.9C560.967 423.167 558.7 423.567 556.5 424.1C554.6 424.6 552.9 425.4 551.3 426.4C550 427.3 549.3 428.9 549.3 430.5V430.5Z" fill="white"/>
<path fill-rule="evenodd" clip-rule="evenodd" d="M570.6 438C569.733 439.134 568.767 440.233 567.7 441.3C566.5 442.433 565.2 443.367 563.8 444.1C562.2 444.9 560.533 445.5 558.8 445.9C556.667 446.367 554.533 446.6 552.4 446.6C550.3 446.6 548.3 446.3 546.4 445.6C544.6 445 543 444 541.5 442.8C540.1 441.5 538.9 440 538.1 438.3C537.3 436.5 536.8 434.5 536.9 432.5C536.8 430.7 537.2 428.9 538 427.2C538.7 425.7 539.6 424.4 540.7 423.3C541.833 422.167 543.1 421.234 544.5 420.5C545.833 419.834 547.233 419.267 548.7 418.8C550.033 418.4 551.3 418.067 552.5 417.8L555.4 417.1C558.333 416.5 560.967 416 563.3 415.6C565.7 415.2 568 414.8 570.2 414.4C570.2 413.133 570.033 411.9 569.7 410.7C569.4 409.5 568.9 408.3 568.1 407.3C567.3 406.2 566.3 405.3 565.1 404.7C563.6 404 562 403.6 560.3 403.7C558.8 403.6 557.3 403.9 555.9 404.6C554.767 405.134 553.767 405.867 552.9 406.8C552 407.7 551.4 408.7 551 409.9C550.667 410.9 550.433 411.967 550.3 413.1L544.6 412.6C542.8 412.4 540.9 412.267 538.9 412.2C539.2 409.6 539.9 407.2 541 404.9C542.1 402.7 543.6 400.8 545.4 399.1C547.4 397.5 549.6 396.2 552 395.3C554.8 394.3 557.7 393.9 560.6 393.9C563.7 393.8 566.8 394.4 569.7 395.5C572.1 396.5 574.3 397.9 576.2 399.7C577.8 401.4 579.2 403.4 580.1 405.5C581 407.6 581.4 409.8 581.4 412.1V433.8C581.4 434.8 581.7 435.7 582.4 436.4C583 437 583.8 437.4 584.6 437.6C585.4 437.734 586.233 437.734 587.1 437.6C587.833 437.467 588.467 437.2 589 436.8V444H589.1C588.167 444.867 587.1 445.534 585.9 446C584.5 446.5 583 446.8 581.5 446.7C580 446.8 578.4 446.4 577 445.8C574.7 444.7 572.8 442.9 571.6 440.6C571.133 439.8 570.8 438.934 570.6 438V438ZM549.3 430.5C549.3 432.1 549.8 433.6 550.9 434.8C552 435.9 553.3 436.6 554.8 437C556.4 437.3 558.1 437.4 559.8 437.1C561.5 436.8 563.1 436.1 564.5 435C566.5 433.6 568.1 431.7 569.1 429.4C569.9 426.8 570.3 424.1 570.2 421.4C567.933 422.067 565.633 422.567 563.3 422.9C560.967 423.167 558.7 423.567 556.5 424.1C554.6 424.6 552.9 425.4 551.3 426.4C550 427.3 549.3 428.9 549.3 430.5V430.5Z" fill="white"/>
<path d="M609.7 435.1C610.4 435.8 611.3 436.2 612.2 436.3C613.267 436.367 614.333 436.367 615.4 436.3C616.4 436.167 617.4 435.934 618.4 435.6L620.6 434.9V443.8C619.6 444.467 618.533 445 617.4 445.4C616.333 445.734 615.233 446 614.1 446.2C611.2 446.7 608.2 446.6 605.4 445.9C604 445.567 602.733 445.034 601.6 444.3C600.533 443.7 599.633 442.967 598.9 442.1C598.167 441.234 597.567 440.334 597.1 439.4C596 437.2 595.5 434.7 595.5 432.2V377.2H608.3C608.3 379.334 608.3 382.134 608.3 385.6C608.3 389 608.3 392.7 608.3 396.6C608.4 400.4 608.4 404.4 608.4 408.4C608.5 412.3 608.4 416 608.4 419.3V431.6C608.467 432.134 608.533 432.667 608.6 433.2C608.8 433.9 609.2 434.6 609.7 435.1V435.1Z" fill="white"/>
<path d="M609.7 435.1C610.4 435.8 611.3 436.2 612.2 436.3C613.267 436.367 614.333 436.367 615.4 436.3C616.4 436.167 617.4 435.934 618.4 435.6L620.6 434.9V443.8C619.6 444.467 618.533 445 617.4 445.4C616.333 445.734 615.233 446 614.1 446.2C611.2 446.7 608.2 446.6 605.4 445.9C604 445.567 602.733 445.034 601.6 444.3C600.533 443.7 599.633 442.967 598.9 442.1C598.167 441.234 597.567 440.334 597.1 439.4C596 437.2 595.5 434.7 595.5 432.2V377.2H608.3C608.3 379.334 608.3 382.134 608.3 385.6C608.3 389 608.3 392.7 608.3 396.6C608.4 400.4 608.4 404.4 608.4 408.4C608.5 412.3 608.4 416 608.4 419.3V431.6C608.467 432.134 608.533 432.667 608.6 433.2C608.8 433.9 609.2 434.6 609.7 435.1V435.1Z" fill="white"/>
<path d="M640.7 435.1C641.4 435.8 642.3 436.2 643.3 436.3C644.3 436.367 645.333 436.367 646.4 436.3C647.467 436.167 648.467 435.934 649.4 435.6L651.6 434.9V443.8C650.667 444.467 649.6 445 648.4 445.4C647.333 445.734 646.267 446 645.2 446.2C642.2 446.7 639.3 446.6 636.4 445.9C635.067 445.567 633.8 445.034 632.6 444.3C631.6 443.7 630.7 442.934 629.9 442C629.233 441.2 628.633 440.334 628.1 439.4C627.1 437.1 626.5 434.7 626.5 432.2V377.2H639.3C639.3 379.334 639.3 382.134 639.3 385.6C639.3 389 639.3 392.7 639.4 396.6C639.5 400.4 639.4 404.4 639.5 408.4C639.5 412.3 639.5 416 639.5 419.3V431.6C639.5 432.134 639.567 432.667 639.7 433.2C639.8 433.9 640.2 434.6 640.7 435.1V435.1Z" fill="white"/>
<path d="M640.7 435.1C641.4 435.8 642.3 436.2 643.3 436.3C644.3 436.367 645.333 436.367 646.4 436.3C647.467 436.167 648.467 435.934 649.4 435.6L651.6 434.9V443.8C650.667 444.467 649.6 445 648.4 445.4C647.333 445.734 646.267 446 645.2 446.2C642.2 446.7 639.3 446.6 636.4 445.9C635.067 445.567 633.8 445.034 632.6 444.3C631.6 443.7 630.7 442.934 629.9 442C629.233 441.2 628.633 440.334 628.1 439.4C627.1 437.1 626.5 434.7 626.5 432.2V377.2H639.3C639.3 379.334 639.3 382.134 639.3 385.6C639.3 389 639.3 392.7 639.4 396.6C639.5 400.4 639.4 404.4 639.5 408.4C639.5 412.3 639.5 416 639.5 419.3V431.6C639.5 432.134 639.567 432.667 639.7 433.2C639.8 433.9 640.2 434.6 640.7 435.1V435.1Z" fill="white"/>
<path fill-rule="evenodd" clip-rule="evenodd" d="M704.9 420.3V421.6C704.9 422 704.867 422.4 704.8 422.8H667.1C667.4 426.5 668.9 430 671.3 432.7C673.7 435.234 676.967 436.467 681.1 436.4C683.9 436.6 686.7 435.8 689 434.2C691.1 432.6 692.7 430.4 693.6 427.9L703.6 429.3C702.9 431.8 701.9 434.2 700.5 436.3C699.1 438.4 697.4 440.2 695.4 441.8C693.3 443.3 690.9 444.5 688.4 445.3C685.5 446.2 682.6 446.6 679.6 446.5C676.3 446.6 673 446 669.9 444.8C666.9 443.6 664.2 441.9 661.9 439.6C659.6 437.3 657.8 434.5 656.6 431.4C655.2 427.8 654.5 424.1 654.6 420.3C654.5 416.6 655.2 412.9 656.5 409.5C658.9 403.3 663.8 398.3 670 395.8C673.2 394.5 676.6 393.9 680 393.9C683.7 393.8 687.4 394.5 690.8 396C693.8 397.3 696.5 399.2 698.6 401.7C700.7 404.1 702.3 406.9 703.3 410C704.4 413.3 704.9 416.8 704.9 420.3V420.3ZM693.5 415C693 411.8 691.5 408.8 689.3 406.4C684.2 401.9 676.6 401.9 671.5 406.4C669.3 408.8 667.9 411.8 667.3 415H693.5Z" fill="white"/>
<path fill-rule="evenodd" clip-rule="evenodd" d="M704.9 420.3V421.6C704.9 422 704.867 422.4 704.8 422.8H667.1C667.4 426.5 668.9 430 671.3 432.7C673.7 435.234 676.967 436.467 681.1 436.4C683.9 436.6 686.7 435.8 689 434.2C691.1 432.6 692.7 430.4 693.6 427.9L703.6 429.3C702.9 431.8 701.9 434.2 700.5 436.3C699.1 438.4 697.4 440.2 695.4 441.8C693.3 443.3 690.9 444.5 688.4 445.3C685.5 446.2 682.6 446.6 679.6 446.5C676.3 446.6 673 446 669.9 444.8C666.9 443.6 664.2 441.9 661.9 439.6C659.6 437.3 657.8 434.5 656.6 431.4C655.2 427.8 654.5 424.1 654.6 420.3C654.5 416.6 655.2 412.9 656.5 409.5C658.9 403.3 663.8 398.3 670 395.8C673.2 394.5 676.6 393.9 680 393.9C683.7 393.8 687.4 394.5 690.8 396C693.8 397.3 696.5 399.2 698.6 401.7C700.7 404.1 702.3 406.9 703.3 410C704.4 413.3 704.9 416.8 704.9 420.3V420.3ZM693.5 415C693 411.8 691.5 408.8 689.3 406.4C684.2 401.9 676.6 401.9 671.5 406.4C669.3 408.8 667.9 411.8 667.3 415H693.5Z" fill="white"/>
<path d="M713.2 452.3C713.8 452.567 714.4 452.734 715 452.8C716.133 452.934 717.267 452.967 718.4 452.9C720.8 452.8 723.1 451.7 724.7 449.8C726.1 448 726.9 445.6 726.8 443.3L707.3 394.5H721.2L733.7 432.9L746 394.5H760L738.1 450.5C736.7 454.2 734.5 457.6 731.8 460.5C729.3 463 725.9 464.3 722.4 464.2C721 464.2 719.4 464.134 717.6 464C716.1 463.9 714.6 463.5 713.2 462.9V452.3Z" fill="white"/>
<path d="M713.2 452.3C713.8 452.567 714.4 452.734 715 452.8C716.133 452.934 717.267 452.967 718.4 452.9C720.8 452.8 723.1 451.7 724.7 449.8C726.1 448 726.9 445.6 726.8 443.3L707.3 394.5H721.2L733.7 432.9L746 394.5H760L738.1 450.5C736.7 454.2 734.5 457.6 731.8 460.5C729.3 463 725.9 464.3 722.4 464.2C721 464.2 719.4 464.134 717.6 464C716.1 463.9 714.6 463.5 713.2 462.9V452.3Z" fill="white"/>
<path fill-rule="evenodd" clip-rule="evenodd" d="M609.4 300.1C608.3 303.4 607.8 306.9 607.8 310.5H596.9C596.9 304.8 598 299.4 599.9 294.5C603.7 295.2 607.1 297.2 609.4 300.1ZM618.6 272.9C615.1 274.9 611.9 277.4 609.1 280.3C607.767 281.633 606.533 283.1 605.4 284.7C608.9 285.9 612.2 287.7 614.9 290.2C616.033 288.733 617.267 287.4 618.6 286.2C621.4 283.7 624.6 281.7 628.1 280.3C631.9 278.7 636 277.9 640.3 277.9V267C632.4 267 625 269.1 618.6 272.9Z" fill="url(#paint0_linear_509_11108)"/>
<path d="M618.6 294.2C615.2 298.7 613.2 304.4 613.2 310.5C613.2 306.5 611.8 302.9 609.4 300.1C607.1 297.2 603.7 295.2 599.9 294.5C598.967 294.3 597.967 294.2 596.9 294.2V283.3C599.9 283.3 602.7 283.8 605.4 284.7C608.9 285.9 612.2 287.7 614.9 290.2C616.3 291.4 617.533 292.733 618.6 294.2V294.2Z" fill="url(#paint1_linear_509_11108)"/>
<path fill-rule="evenodd" clip-rule="evenodd" d="M640.3 283.3V294.2C639.3 294.2 638.3 294.3 637.3 294.5C635.9 291 634.1 287.7 631.8 284.7C634.5 283.8 637.4 283.3 640.3 283.3ZM622.4 290.2C621 291.4 619.733 292.733 618.6 294.2C615.2 298.7 613.2 304.4 613.2 310.5H624.1C624.1 306.5 625.5 302.9 627.8 300.1C626.6 296.5 624.7 293.1 622.4 290.2V290.2Z" fill="url(#paint2_linear_509_11108)"/>
<path fill-rule="evenodd" clip-rule="evenodd" d="M640.3 310.5H629.5C629.5 306.9 628.9 303.4 627.8 300.1C626.6 296.5 624.7 293.1 622.4 290.2C621.2 288.733 619.933 287.4 618.6 286.2C621.4 283.7 624.6 281.7 628.1 280.3C629.433 281.633 630.667 283.1 631.8 284.7C634.1 287.7 635.9 291 637.3 294.5C639.3 299.4 640.3 304.8 640.3 310.5V310.5ZM618.6 272.9C615.1 274.9 611.9 277.4 609.1 280.3C605.4 278.7 601.2 277.9 596.9 277.9V267C604.8 267 612.2 269.1 618.6 272.9Z" fill="url(#paint3_linear_509_11108)"/>
<path fill-rule="evenodd" clip-rule="evenodd" d="M648.1 310.5V267H664.3C676 267 681.7 271.8 681.7 281.5C681.7 291.4 676 296.4 664.5 296.4H659.4V310.5H648.1ZM664.4 287C669 287 670.9 285.4 670.9 281.6C670.9 277.7 669 276.3 664.4 276.3H659.4V287H664.4Z" fill="white"/>
<path d="M697.2 310.5V276.9H684.7V267H721.4V276.9H708.9V310.5H697.2Z" fill="white"/>
<path d="M738.8 292.6C729.3 290.8 725.3 287 725.3 280C725.3 271.7 731.3 267 741.9 267C752.3 267 758.4 271.5 759.2 279.7L748.5 280.8C747.7 277.3 745.8 275.8 741.9 275.8C738.3 275.8 736.3 277 736.3 279.4C736.3 281.3 737.7 282.4 740.9 283L746.6 284.1C755.8 285.9 760 289.9 760 296.9C760 305.7 753.7 310.5 742.6 310.5C731.3 310.5 725.1 305.6 724.5 295.8H735.5C736 299.8 738.4 301.6 743 301.6C746.8 301.6 748.9 300.2 748.9 297.6C748.9 295.4 747.4 294.2 744.3 293.7L738.8 292.6Z" fill="white"/>
<path fill-rule="evenodd" clip-rule="evenodd" d="M601.6 331.4V340.2H596.9V316.5H605.5C608.3 316.5 610.4 317.167 611.8 318.5C613.267 319.833 614 321.667 614 324C614 326.2 613.267 328 611.8 329.4C610.333 330.733 608.233 331.4 605.5 331.4H601.6ZM609.2 324C609.2 322.8 608.867 321.867 608.2 321.2C607.533 320.6 606.467 320.3 605 320.3H601.6V327.6H605C607.8 327.6 609.2 326.4 609.2 324Z" fill="white"/>
<path fill-rule="evenodd" clip-rule="evenodd" d="M629.4 340.2L623.9 330.9H621.8V340.2H617.1V316.5H626.1C628.833 316.5 630.933 317.167 632.4 318.5C633.867 319.833 634.6 321.6 634.6 323.8C634.6 325.6 634.1 327.1 633.1 328.3C632.1 329.5 630.633 330.3 628.7 330.7L634.7 340.2H629.4ZM621.7 327.7H625.6C628.333 327.7 629.7 326.5 629.7 324.1C629.7 322.967 629.367 322.067 628.7 321.4C628.033 320.8 627 320.5 625.6 320.5H621.7V327.7Z" fill="white"/>
<path fill-rule="evenodd" clip-rule="evenodd" d="M654.9 317.7C656.7 318.7 658.133 320.133 659.2 322C660.2 323.867 660.7 325.967 660.7 328.3C660.7 330.567 660.2 332.633 659.2 334.5C658.133 336.367 656.7 337.833 654.9 338.9C653.1 339.9 651.1 340.4 648.9 340.4C646.633 340.4 644.6 339.9 642.8 338.9C641 337.833 639.6 336.367 638.6 334.5C637.533 332.633 637 330.567 637 328.3C637 325.967 637.533 323.867 638.6 322C639.6 320.133 641 318.7 642.8 317.7C644.6 316.633 646.633 316.1 648.9 316.1C651.1 316.1 653.1 316.633 654.9 317.7ZM645.2 321.4C644.133 322.067 643.3 322.967 642.7 324.1C642.1 325.3 641.8 326.7 641.8 328.3C641.8 329.833 642.1 331.2 642.7 332.4C643.3 333.533 644.133 334.433 645.2 335.1C646.267 335.7 647.5 336 648.9 336C650.233 336 651.433 335.7 652.5 335.1C653.567 334.433 654.4 333.533 655 332.4C655.6 331.2 655.9 329.833 655.9 328.3C655.9 326.7 655.6 325.3 655 324.1C654.4 322.967 653.567 322.067 652.5 321.4C651.433 320.8 650.233 320.5 648.9 320.5C647.5 320.5 646.267 320.8 645.2 321.4Z" fill="white"/>
<path d="M677.7 316.5V333.2C677.7 335.467 677.067 337.233 675.8 338.5C674.533 339.767 672.8 340.4 670.6 340.4C668.2 340.4 666.267 339.7 664.8 338.3C663.4 336.9 662.7 334.933 662.7 332.4H667.4C667.4 333.6 667.667 334.533 668.2 335.2C668.667 335.8 669.4 336.1 670.4 336.1C671.267 336.1 671.933 335.867 672.4 335.4C672.8 334.867 673 334.133 673 333.2V316.5H677.7Z" fill="white"/>
<path d="M686.6 320.2V326.4H695V330H686.6V336.4H696V340.2H681.9V316.5H696V320.2H686.6Z" fill="white"/>
<path d="M717.6 318.5C719.533 320.033 720.8 322.1 721.4 324.7H716.5C715.966 323.433 715.166 322.433 714.1 321.7C712.966 320.967 711.633 320.6 710.1 320.6C708.9 320.6 707.766 320.9 706.7 321.5C705.7 322.167 704.933 323.067 704.4 324.2C703.867 325.4 703.6 326.767 703.6 328.3C703.6 329.833 703.867 331.2 704.4 332.4C704.933 333.533 705.7 334.433 706.7 335.1C707.766 335.7 708.9 336 710.1 336C711.633 336 712.966 335.633 714.1 334.9C715.166 334.167 715.966 333.167 716.5 331.9H721.4C720.8 334.5 719.533 336.567 717.6 338.1C715.6 339.633 713.133 340.4 710.2 340.4C707.933 340.4 705.933 339.867 704.2 338.8C702.466 337.8 701.133 336.4 700.2 334.6C699.266 332.733 698.8 330.633 698.8 328.3C698.8 325.967 699.266 323.867 700.2 322C701.133 320.2 702.466 318.8 704.2 317.8C705.933 316.733 707.933 316.2 710.2 316.2C713.133 316.2 715.6 316.967 717.6 318.5V318.5Z" fill="white"/>
<path d="M741.1 316.5V320.2H734.5V340.2H729.8V320.2H723.3V316.5H741.1Z" fill="white"/>
<path d="M759.1 337C758.5 338.067 757.6 338.9 756.4 339.5C755.2 340.1 753.767 340.4 752.1 340.4C750.433 340.4 748.933 340.133 747.6 339.6C746.267 339 745.2 338.167 744.4 337.1C743.6 336.033 743.133 334.767 743 333.3H748.1C748.167 334.3 748.533 335.1 749.2 335.7C749.867 336.367 750.767 336.7 751.9 336.7C752.9 336.7 753.633 336.433 754.1 335.9C754.633 335.367 754.9 334.7 754.9 333.9C754.9 333.167 754.7 332.533 754.3 332C753.9 331.533 753.367 331.167 752.7 330.9C752.033 330.567 751.133 330.233 750 329.9C748.533 329.367 747.333 328.867 746.4 328.4C745.467 327.933 744.667 327.233 744 326.3C743.333 325.367 743 324.167 743 322.7C743 320.7 743.733 319.1 745.2 317.9C746.667 316.7 748.6 316.1 751 316.1C753.533 316.1 755.533 316.7 757 317.9C758.467 319.167 759.3 320.8 759.5 322.8H754.4C754.267 321.933 753.933 321.233 753.4 320.7C752.8 320.167 752 319.9 751 319.9C750.133 319.9 749.433 320.1 748.9 320.5C748.3 320.967 748 321.633 748 322.5C748 323.233 748.233 323.833 748.7 324.3C749.1 324.767 749.6 325.133 750.2 325.4C750.867 325.667 751.733 326 752.8 326.4C754.333 326.933 755.6 327.433 756.6 327.9C757.533 328.367 758.333 329.067 759 330C759.667 330.933 760 332.167 760 333.7C760 334.9 759.7 336 759.1 337V337Z" fill="white"/>
<path d="M598.057 256V247.273H601.006C601.69 247.273 602.25 247.396 602.685 247.643C603.122 247.888 603.446 248.219 603.656 248.636C603.866 249.054 603.972 249.52 603.972 250.034C603.972 250.548 603.866 251.016 603.656 251.436C603.449 251.857 603.128 252.192 602.693 252.442C602.259 252.689 601.702 252.812 601.023 252.812H598.909V251.875H600.989C601.457 251.875 601.834 251.794 602.118 251.632C602.402 251.47 602.608 251.251 602.736 250.976C602.866 250.697 602.932 250.384 602.932 250.034C602.932 249.685 602.866 249.372 602.736 249.097C602.608 248.821 602.401 248.605 602.114 248.449C601.827 248.29 601.446 248.21 600.972 248.21H599.114V256H598.057ZM608.126 256.136C607.536 256.136 607.017 255.996 606.571 255.714C606.128 255.433 605.781 255.04 605.531 254.534C605.284 254.028 605.161 253.437 605.161 252.761C605.161 252.08 605.284 251.484 605.531 250.976C605.781 250.467 606.128 250.072 606.571 249.791C607.017 249.51 607.536 249.369 608.126 249.369C608.717 249.369 609.234 249.51 609.678 249.791C610.124 250.072 610.47 250.467 610.717 250.976C610.967 251.484 611.092 252.08 611.092 252.761C611.092 253.437 610.967 254.028 610.717 254.534C610.47 255.04 610.124 255.433 609.678 255.714C609.234 255.996 608.717 256.136 608.126 256.136ZM608.126 255.233C608.575 255.233 608.945 255.118 609.234 254.888C609.524 254.658 609.739 254.355 609.878 253.98C610.017 253.605 610.087 253.199 610.087 252.761C610.087 252.324 610.017 251.916 609.878 251.538C609.739 251.161 609.524 250.855 609.234 250.622C608.945 250.389 608.575 250.273 608.126 250.273C607.678 250.273 607.308 250.389 607.018 250.622C606.729 250.855 606.514 251.161 606.375 251.538C606.236 251.916 606.166 252.324 606.166 252.761C606.166 253.199 606.236 253.605 606.375 253.98C606.514 254.355 606.729 254.658 607.018 254.888C607.308 255.118 607.678 255.233 608.126 255.233ZM613.888 256L611.893 249.455H612.95L614.365 254.466H614.433L615.831 249.455H616.905L618.286 254.449H618.354L619.768 249.455H620.825L618.831 256H617.842L616.411 250.972H616.308L614.876 256H613.888ZM624.676 256.136C624.046 256.136 623.502 255.997 623.044 255.719C622.59 255.438 622.239 255.045 621.992 254.543C621.748 254.037 621.625 253.449 621.625 252.778C621.625 252.108 621.748 251.517 621.992 251.006C622.239 250.491 622.583 250.091 623.023 249.804C623.466 249.514 623.983 249.369 624.574 249.369C624.915 249.369 625.252 249.426 625.584 249.54C625.917 249.653 626.219 249.838 626.492 250.094C626.765 250.347 626.982 250.682 627.144 251.099C627.306 251.517 627.387 252.031 627.387 252.642V253.068H622.341V252.199H626.364C626.364 251.83 626.29 251.5 626.142 251.21C625.998 250.92 625.79 250.692 625.52 250.524C625.253 250.357 624.938 250.273 624.574 250.273C624.174 250.273 623.827 250.372 623.534 250.571C623.245 250.767 623.022 251.023 622.865 251.338C622.709 251.653 622.631 251.991 622.631 252.352V252.932C622.631 253.426 622.716 253.845 622.887 254.189C623.06 254.53 623.3 254.79 623.607 254.969C623.914 255.145 624.27 255.233 624.676 255.233C624.941 255.233 625.179 255.196 625.392 255.122C625.608 255.045 625.794 254.932 625.951 254.781C626.107 254.628 626.228 254.437 626.313 254.21L627.284 254.483C627.182 254.812 627.01 255.102 626.769 255.352C626.527 255.599 626.229 255.793 625.874 255.932C625.519 256.068 625.12 256.136 624.676 256.136ZM628.917 256V249.455H629.888V250.443H629.956C630.076 250.119 630.292 249.857 630.604 249.655C630.917 249.453 631.269 249.352 631.661 249.352C631.735 249.352 631.827 249.354 631.938 249.357C632.049 249.359 632.132 249.364 632.189 249.369V250.392C632.155 250.384 632.077 250.371 631.955 250.354C631.836 250.334 631.709 250.324 631.576 250.324C631.257 250.324 630.973 250.391 630.723 250.524C630.476 250.655 630.28 250.837 630.135 251.07C629.993 251.3 629.922 251.562 629.922 251.858V256H628.917ZM635.926 256.136C635.296 256.136 634.752 255.997 634.294 255.719C633.84 255.438 633.489 255.045 633.242 254.543C632.998 254.037 632.875 253.449 632.875 252.778C632.875 252.108 632.998 251.517 633.242 251.006C633.489 250.491 633.833 250.091 634.273 249.804C634.716 249.514 635.233 249.369 635.824 249.369C636.165 249.369 636.502 249.426 636.834 249.54C637.167 249.653 637.469 249.838 637.742 250.094C638.015 250.347 638.232 250.682 638.394 251.099C638.556 251.517 638.637 252.031 638.637 252.642V253.068H633.591V252.199H637.614C637.614 251.83 637.54 251.5 637.392 251.21C637.248 250.92 637.04 250.692 636.77 250.524C636.503 250.357 636.188 250.273 635.824 250.273C635.424 250.273 635.077 250.372 634.784 250.571C634.495 250.767 634.272 251.023 634.115 251.338C633.959 251.653 633.881 251.991 633.881 252.352V252.932C633.881 253.426 633.966 253.845 634.137 254.189C634.31 254.53 634.55 254.79 634.857 254.969C635.164 255.145 635.52 255.233 635.926 255.233C636.191 255.233 636.429 255.196 636.642 255.122C636.858 255.045 637.044 254.932 637.201 254.781C637.357 254.628 637.478 254.437 637.563 254.21L638.534 254.483C638.432 254.812 638.26 255.102 638.019 255.352C637.777 255.599 637.479 255.793 637.124 255.932C636.769 256.068 636.37 256.136 635.926 256.136ZM642.638 256.136C642.093 256.136 641.611 255.999 641.194 255.723C640.776 255.445 640.449 255.053 640.213 254.547C639.978 254.038 639.86 253.438 639.86 252.744C639.86 252.057 639.978 251.46 640.213 250.955C640.449 250.449 640.777 250.058 641.198 249.783C641.618 249.507 642.104 249.369 642.655 249.369C643.081 249.369 643.418 249.44 643.665 249.582C643.915 249.722 644.105 249.881 644.236 250.06C644.37 250.236 644.473 250.381 644.547 250.494H644.632V247.273H645.638V256H644.667V254.994H644.547C644.473 255.114 644.368 255.264 644.232 255.446C644.096 255.625 643.901 255.786 643.648 255.928C643.395 256.067 643.059 256.136 642.638 256.136ZM642.775 255.233C643.178 255.233 643.519 255.128 643.797 254.918C644.076 254.705 644.287 254.411 644.432 254.036C644.577 253.658 644.65 253.222 644.65 252.727C644.65 252.239 644.578 251.811 644.436 251.445C644.294 251.075 644.084 250.788 643.806 250.584C643.527 250.376 643.184 250.273 642.775 250.273C642.348 250.273 641.993 250.382 641.709 250.601C641.428 250.817 641.216 251.111 641.074 251.483C640.935 251.852 640.865 252.267 640.865 252.727C640.865 253.193 640.936 253.616 641.078 253.997C641.223 254.375 641.436 254.676 641.718 254.901C642.002 255.122 642.354 255.233 642.775 255.233ZM651.131 256V247.273H652.137V250.494H652.222C652.296 250.381 652.398 250.236 652.529 250.06C652.662 249.881 652.853 249.722 653.1 249.582C653.35 249.44 653.688 249.369 654.114 249.369C654.665 249.369 655.151 249.507 655.571 249.783C655.992 250.058 656.32 250.449 656.556 250.955C656.792 251.46 656.909 252.057 656.909 252.744C656.909 253.438 656.792 254.038 656.556 254.547C656.32 255.053 655.993 255.445 655.576 255.723C655.158 255.999 654.676 256.136 654.131 256.136C653.711 256.136 653.374 256.067 653.121 255.928C652.868 255.786 652.674 255.625 652.537 255.446C652.401 255.264 652.296 255.114 652.222 254.994H652.103V256H651.131ZM652.12 252.727C652.12 253.222 652.192 253.658 652.337 254.036C652.482 254.411 652.694 254.705 652.972 254.918C653.25 255.128 653.591 255.233 653.995 255.233C654.415 255.233 654.766 255.122 655.047 254.901C655.331 254.676 655.544 254.375 655.686 253.997C655.831 253.616 655.904 253.193 655.904 252.727C655.904 252.267 655.833 251.852 655.691 251.483C655.551 251.111 655.34 250.817 655.056 250.601C654.775 250.382 654.421 250.273 653.995 250.273C653.586 250.273 653.242 250.376 652.963 250.584C652.685 250.788 652.475 251.075 652.333 251.445C652.191 251.811 652.12 252.239 652.12 252.727ZM658.861 258.455C658.691 258.455 658.539 258.44 658.405 258.412C658.272 258.386 658.179 258.361 658.128 258.335L658.384 257.449C658.628 257.511 658.844 257.534 659.032 257.517C659.219 257.5 659.385 257.416 659.53 257.266C659.678 257.118 659.813 256.878 659.935 256.545L660.123 256.034L657.702 249.455H658.793L660.6 254.67H660.668L662.475 249.455H663.566L660.787 256.955C660.662 257.293 660.507 257.572 660.323 257.794C660.138 258.018 659.924 258.185 659.679 258.293C659.438 258.401 659.165 258.455 658.861 258.455Z" fill="white"/>
<defs>
<linearGradient id="paint0_linear_509_11108" x1="640.3" y1="312.5" x2="596.9" y2="312.5" gradientUnits="userSpaceOnUse">
<stop stop-color="#ED1C41"/>
<stop offset="1" stop-color="#737373"/>
</linearGradient>
<linearGradient id="paint1_linear_509_11108" x1="604" y1="276.2" x2="625.7" y2="298" gradientUnits="userSpaceOnUse">
<stop stop-color="#ED1C41"/>
<stop offset="1" stop-color="#ED1C41"/>
</linearGradient>
<linearGradient id="paint2_linear_509_11108" x1="642.3" y1="283.3" x2="642.3" y2="310.5" gradientUnits="userSpaceOnUse">
<stop stop-color="#ED1C41"/>
<stop offset="1" stop-color="#19436F"/>
</linearGradient>
<linearGradient id="paint3_linear_509_11108" x1="617.5" y1="255.1" x2="647.2" y2="306.5" gradientUnits="userSpaceOnUse">
<stop stop-color="#ED1C41"/>
<stop offset="1" stop-color="#ED1C41"/>
</linearGradient>
</defs>
</svg>
