<svg width="162" height="107" viewBox="0 0 162 107" fill="none" xmlns="http://www.w3.org/2000/svg">
<g clip-path="url(#clip0_494_4635)">
<path d="M31.6929 65.9446C31.6929 45.065 31.741 24.6804 31.6293 4.30348C31.6159 1.91393 32.2398 1.37648 34.5352 1.40354C45.4577 1.52534 56.384 1.45768 67.3199 1.45768C66.7249 6.10918 66.5266 6.29091 62.1649 6.29091C54.6721 6.29091 47.1715 6.4359 39.6806 6.21551C36.9461 6.13818 36.5225 7.03329 36.5456 9.52337C36.6708 23.5281 36.353 37.5387 36.7382 51.5338C36.8787 57.0205 35.2073 61.4091 31.6929 65.9446Z" fill="#FBFBFB"/>
<path d="M114.594 65.9446C114.594 45.065 114.543 24.6804 114.657 4.30348C114.669 1.91393 114.047 1.37648 111.753 1.40354C100.831 1.52534 89.9043 1.45768 78.9645 1.45768C79.5615 6.10918 79.7618 6.29091 84.1196 6.29091C91.6143 6.29091 99.1149 6.4359 106.604 6.21551C109.338 6.13818 109.764 7.03329 109.739 9.52337C109.614 23.5281 109.931 37.5387 109.546 51.5338C109.41 57.0205 111.089 61.4091 114.594 65.9446Z" fill="#FBFBFB"/>
<path d="M21.119 100.458C19.5476 100.458 18.0379 100.5 16.5127 100.444C15.5056 100.406 14.7488 99.8043 14.1076 99.0542C13.2603 98.0585 12.6537 96.9024 12.0548 95.7482C10.832 93.3838 9.68233 90.9846 7.98003 88.9044C7.17124 87.9184 6.21996 87.3945 4.93553 87.3577C4.31546 87.3365 4.15177 87.4853 4.15562 88.1001C4.18066 91.1934 4.15562 94.3021 4.18066 97.4031C4.18066 98.072 4.03431 98.3156 3.33143 98.2557C2.43797 98.2054 1.54241 98.2054 0.648955 98.2557C0.192568 98.2654 0 98.1571 0 97.6409C0.017973 91.0613 0.017973 84.4849 0 77.9117C0 77.4168 0.146352 77.2718 0.635475 77.2718C1.5598 77.3046 2.48606 77.3201 3.40653 77.2718C4.00735 77.2389 4.19221 77.4071 4.17681 78.0277C4.14022 80.4926 4.20184 82.9595 4.14407 85.4206C4.12481 86.2268 4.38093 86.3872 5.10691 86.3524C6.28928 86.2906 7.4755 86.3524 8.65787 86.3292C10.0906 86.2886 11.2267 86.8609 12.1761 87.8913C12.9656 88.742 13.5433 89.7531 14.1018 90.7623C14.2943 91.1122 14.4869 91.4776 14.6641 91.8256C17.2849 96.8328 17.2849 96.8328 21.119 100.458Z" fill="#FBFBFB"/>
<path d="M18.5366 74.9286C16.5975 75.7406 15.5672 77.3182 14.6756 79.0504C14.1672 80.0402 13.6165 81.0146 13.1081 82.0025C12.2859 83.584 10.9417 84.3225 9.22017 84.3805C7.59682 84.4308 5.96962 84.3902 4.18451 84.3902C4.90086 83.7986 5.70965 83.6497 6.28543 83.1122C7.30797 82.1456 7.96077 80.9102 8.66172 79.7155C9.13544 78.9054 9.60723 78.0896 10.0405 77.2544C10.8262 75.7425 12.1087 75.0156 13.7475 74.9518C15.34 74.8803 16.946 74.9286 18.5366 74.9286Z" fill="#F7A41E"/>
<path d="M26.767 86.8048V87.0504C26.767 87.1261 26.7612 87.2017 26.7497 87.2765H19.7055C19.7535 87.9694 20.0322 88.6258 20.497 89.1402C20.9386 89.6081 21.5471 89.8414 22.3225 89.8401C22.8446 89.8653 23.3607 89.7201 23.7937 89.4264C24.1858 89.1144 24.4871 88.7025 24.6661 88.2335L26.5224 88.4945C26.4009 88.9633 26.2059 89.4097 25.9447 89.8169C25.6869 90.2084 25.3645 90.5529 24.9915 90.8357C24.5965 91.132 24.1535 91.3576 23.6821 91.5027C23.1527 91.6633 22.6021 91.7422 22.0491 91.7367C21.4252 91.741 20.8061 91.6282 20.2235 91.4041C19.6664 91.1904 19.1604 90.861 18.7388 90.4375C18.3033 89.9957 17.9619 89.4694 17.7355 88.8908C17.2464 87.5674 17.2464 86.1118 17.7355 84.7884C17.9582 84.2092 18.2969 83.6821 18.7309 83.2398C19.1648 82.7974 19.6847 82.4494 20.2582 82.2171C20.8506 81.9754 21.4848 81.8538 22.1242 81.8595C22.8222 81.8428 23.5159 81.9746 24.1596 82.2461C24.7164 82.4896 25.2128 82.8533 25.6135 83.3114C26.0098 83.7659 26.307 84.2987 26.4858 84.8754C26.6802 85.4997 26.7751 86.1508 26.767 86.8048ZM24.6487 85.8169C24.5495 85.2118 24.2734 84.6499 23.8554 84.2026C23.4002 83.7899 22.8087 83.5614 22.1954 83.5614C21.5821 83.5614 20.9906 83.7899 20.5355 84.2026C20.1196 84.6504 19.8461 85.2124 19.7498 85.8169H24.6487Z" fill="#FBFBFB"/>
<path d="M26.767 86.8048V87.0504C26.767 87.1261 26.7612 87.2017 26.7497 87.2765H19.7055C19.7535 87.9694 20.0322 88.6258 20.497 89.1402C20.9386 89.6081 21.5471 89.8414 22.3225 89.8401C22.8446 89.8653 23.3607 89.7201 23.7937 89.4264C24.1858 89.1144 24.4871 88.7025 24.6661 88.2335L26.5224 88.4945C26.4009 88.9633 26.2059 89.4097 25.9447 89.8169C25.6869 90.2084 25.3645 90.5529 24.9915 90.8357C24.5965 91.132 24.1535 91.3576 23.6821 91.5027C23.1527 91.6633 22.6021 91.7422 22.0491 91.7367C21.4252 91.741 20.8061 91.6282 20.2235 91.4041C19.6664 91.1904 19.1604 90.861 18.7388 90.4375C18.3033 89.9957 17.9619 89.4694 17.7355 88.8908C17.2464 87.5674 17.2464 86.1118 17.7355 84.7884C17.9582 84.2092 18.2969 83.6821 18.7309 83.2398C19.1648 82.7974 19.6847 82.4494 20.2582 82.2171C20.8506 81.9754 21.4848 81.8538 22.1242 81.8595C22.8222 81.8428 23.5159 81.9746 24.1596 82.2461C24.7164 82.4896 25.2128 82.8533 25.6135 83.3114C26.0098 83.7659 26.307 84.2987 26.4858 84.8754C26.6802 85.4997 26.7751 86.1508 26.767 86.8048ZM24.6487 85.8169C24.5495 85.2118 24.2734 84.6499 23.8554 84.2026C23.4002 83.7899 22.8087 83.5614 22.1954 83.5614C21.5821 83.5614 20.9906 83.7899 20.5355 84.2026C20.1196 84.6504 19.8461 85.2124 19.7498 85.8169H24.6487Z" fill="#FBFBFB"/>
<path d="M42.8927 85.4515V91.6071H40.5587V85.9909C40.5685 85.6245 40.5165 85.2591 40.4047 84.9102C40.3226 84.6547 40.1918 84.4176 40.0195 84.2123C39.8676 84.0396 39.6758 83.9069 39.4611 83.8256C39.251 83.7501 39.0295 83.7115 38.8064 83.7115C38.5603 83.7094 38.3152 83.7426 38.0784 83.8101C37.8497 83.8715 37.6394 83.9884 37.4661 84.1504C37.2713 84.3399 37.1252 84.5741 37.0405 84.8328C36.927 85.1907 36.8749 85.5653 36.8864 85.9406V91.6032H34.5005V85.9561C34.5085 85.6152 34.4597 85.2755 34.3561 84.9508C34.2738 84.6939 34.1365 84.4583 33.9536 84.2606C33.7844 84.0895 33.58 83.9575 33.3547 83.8739C33.1227 83.7865 32.8766 83.7426 32.6288 83.7444C32.3874 83.7428 32.1474 83.7806 31.9182 83.8565C31.6919 83.9315 31.4867 84.0594 31.3193 84.2297C31.1305 84.4237 30.986 84.6565 30.8956 84.9121C30.7768 85.2535 30.7219 85.614 30.7339 85.9754V91.6187H28.3807V81.9716H30.7743V83.4815C30.8391 83.3095 30.9286 83.1479 31.0401 83.002C31.1899 82.7975 31.3698 82.6169 31.5735 82.4665C31.8193 82.2852 32.088 82.1376 32.3726 82.0276C32.7183 81.8962 33.0853 81.8307 33.4549 81.8343C33.8026 81.8287 34.149 81.8783 34.4813 81.9812C34.7653 82.0726 35.0326 82.2097 35.2727 82.3872C35.5075 82.5636 35.7173 82.7711 35.8966 83.004C36.0869 83.2532 36.2545 83.5192 36.3973 83.7985C36.6667 83.239 37.0688 82.7544 37.5681 82.3872C38.1521 81.995 38.8459 81.8012 39.5477 81.8343C39.9908 81.8342 40.4287 81.9291 40.8322 82.1127C41.2322 82.2943 41.5927 82.5532 41.8932 82.8744C42.2049 83.2059 42.4512 83.5935 42.6192 84.017C42.8025 84.4727 42.8954 84.96 42.8927 85.4515Z" fill="#FBFBFB"/>
<path d="M42.8927 85.4515V91.6071H40.5587V85.9909C40.5685 85.6245 40.5165 85.2591 40.4047 84.9102C40.3226 84.6547 40.1918 84.4176 40.0195 84.2123C39.8676 84.0396 39.6758 83.9069 39.4611 83.8256C39.251 83.7501 39.0295 83.7115 38.8064 83.7115C38.5603 83.7094 38.3152 83.7426 38.0784 83.8101C37.8497 83.8715 37.6394 83.9884 37.4661 84.1504C37.2713 84.3399 37.1252 84.5741 37.0405 84.8328C36.927 85.1907 36.8749 85.5653 36.8864 85.9406V91.6032H34.5005V85.9561C34.5085 85.6152 34.4597 85.2755 34.3561 84.9508C34.2738 84.6939 34.1365 84.4583 33.9536 84.2606C33.7844 84.0895 33.58 83.9575 33.3547 83.8739C33.1227 83.7865 32.8766 83.7426 32.6288 83.7444C32.3874 83.7428 32.1474 83.7806 31.9182 83.8565C31.6919 83.9315 31.4867 84.0594 31.3193 84.2297C31.1305 84.4237 30.986 84.6565 30.8956 84.9121C30.7768 85.2535 30.7219 85.614 30.7339 85.9754V91.6187H28.3807V81.9716H30.7743V83.4815C30.8391 83.3095 30.9286 83.1479 31.0401 83.002C31.1899 82.7975 31.3698 82.6169 31.5735 82.4665C31.8193 82.2852 32.088 82.1376 32.3726 82.0276C32.7183 81.8962 33.0853 81.8307 33.4549 81.8343C33.8026 81.8287 34.149 81.8783 34.4813 81.9812C34.7653 82.0726 35.0326 82.2097 35.2727 82.3872C35.5075 82.5636 35.7173 82.7711 35.8966 83.004C36.0869 83.2532 36.2545 83.5192 36.3973 83.7985C36.6667 83.239 37.0688 82.7544 37.5681 82.3872C38.1521 81.995 38.8459 81.8012 39.5477 81.8343C39.9908 81.8342 40.4287 81.9291 40.8322 82.1127C41.2322 82.2943 41.5927 82.5532 41.8932 82.8744C42.2049 83.2059 42.4512 83.5935 42.6192 84.017C42.8025 84.4727 42.8954 84.96 42.8927 85.4515Z" fill="#FBFBFB"/>
<path d="M50.5684 89.5424V91.2108C50.3829 91.3421 50.1783 91.4438 49.9618 91.5124C49.7595 91.5803 49.5522 91.632 49.3418 91.6671C48.7969 91.7672 48.2372 91.7507 47.6992 91.6187C47.4493 91.5533 47.21 91.4524 46.9886 91.3191C46.8013 91.2058 46.6346 91.0613 46.4956 90.8918C46.3701 90.7368 46.2622 90.5682 46.174 90.3892C45.9713 89.967 45.866 89.5045 45.8659 89.0358V83.7116H44.6065V82.3177C44.7649 82.2939 44.9213 82.2584 45.0744 82.2113C45.2511 82.1564 45.4195 82.0777 45.5751 81.9774C45.8516 81.8082 46.0887 81.5814 46.2703 81.3123C46.4303 81.0761 46.5634 80.8225 46.667 80.5564C46.7479 80.3498 46.8073 80.1354 46.8441 79.9165C46.8692 79.7232 46.8846 79.6072 46.8846 79.5511H48.2075C48.2075 79.9764 48.2249 80.4037 48.2249 80.829C48.2249 81.2543 48.2249 81.6797 48.2422 82.1069H50.4798V83.729H48.2576C48.291 86.6805 48.307 88.4159 48.3057 88.9353C48.3089 89.0333 48.3199 89.131 48.3385 89.2272C48.3625 89.3642 48.4301 89.4897 48.531 89.5849C48.6523 89.7181 48.8197 89.7997 48.999 89.813C49.1955 89.8343 49.3937 89.8343 49.5902 89.813C49.7822 89.7935 49.9714 89.7526 50.1544 89.6912L50.5684 89.5424Z" fill="#FBFBFB"/>
<path d="M50.5684 89.5424V91.2108C50.3829 91.3421 50.1783 91.4438 49.9618 91.5124C49.7595 91.5803 49.5522 91.632 49.3418 91.6671C48.7969 91.7672 48.2372 91.7507 47.6992 91.6187C47.4493 91.5533 47.21 91.4524 46.9886 91.3191C46.8013 91.2058 46.6346 91.0613 46.4956 90.8918C46.3701 90.7368 46.2622 90.5682 46.174 90.3892C45.9713 89.967 45.866 89.5045 45.8659 89.0358V83.7116H44.6065V82.3177C44.7649 82.2939 44.9213 82.2584 45.0744 82.2113C45.2511 82.1564 45.4195 82.0777 45.5751 81.9774C45.8516 81.8082 46.0887 81.5814 46.2703 81.3123C46.4303 81.0761 46.5634 80.8225 46.667 80.5564C46.7479 80.3498 46.8073 80.1354 46.8441 79.9165C46.8692 79.7232 46.8846 79.6072 46.8846 79.5511H48.2075C48.2075 79.9764 48.2249 80.4037 48.2249 80.829C48.2249 81.2543 48.2249 81.6797 48.2422 82.1069H50.4798V83.729H48.2576C48.291 86.6805 48.307 88.4159 48.3057 88.9353C48.3089 89.0333 48.3199 89.131 48.3385 89.2272C48.3625 89.3642 48.4301 89.4897 48.531 89.5849C48.6523 89.7181 48.8197 89.7997 48.999 89.813C49.1955 89.8343 49.3937 89.8343 49.5902 89.813C49.7822 89.7935 49.9714 89.7526 50.1544 89.6912L50.5684 89.5424Z" fill="#FBFBFB"/>
<path d="M60.7803 86.8048V87.0504C60.7803 87.1261 60.7745 87.2017 60.763 87.2766H53.7265C53.7758 87.9691 54.0544 88.6251 54.518 89.1402C54.9609 89.6081 55.5694 89.8414 56.3435 89.8401C56.8658 89.8671 57.3825 89.7218 57.8148 89.4264C58.2079 89.1151 58.51 88.703 58.689 88.2335L60.5473 88.4945C60.4249 88.963 60.23 89.4092 59.9696 89.8169C59.7093 90.2095 59.3836 90.5541 59.0068 90.8357C58.6122 91.1327 58.1691 91.3584 57.6973 91.5027C57.1686 91.6635 56.6186 91.7424 56.0662 91.7367C55.4424 91.741 54.8233 91.6282 54.2407 91.4041C53.6835 91.1904 53.1776 90.861 52.756 90.4375C52.3216 89.9955 51.9816 89.4692 51.7566 88.8909C51.4973 88.2267 51.3698 87.5181 51.3811 86.8048C51.3731 86.1149 51.4967 85.4298 51.745 84.7865C51.9663 84.2071 52.3042 83.6797 52.7375 83.2373C53.1709 82.7949 53.6905 82.447 54.2638 82.2152C54.8568 81.9733 55.4917 81.8518 56.1317 81.8575C56.8297 81.8411 57.5234 81.9729 58.1672 82.2442C58.7242 82.4881 59.2211 82.8518 59.623 83.3094C60.0176 83.7648 60.314 84.2974 60.4934 84.8735C60.6898 85.4981 60.7867 86.1499 60.7803 86.8048ZM58.6621 85.8169C58.5641 85.2118 58.2885 84.6497 57.8706 84.2026C57.415 83.7902 56.8232 83.5619 56.2097 83.5619C55.5962 83.5619 55.0045 83.7902 54.5488 84.2026C54.1352 84.6517 53.8627 85.2132 53.7651 85.8169H58.6621Z" fill="#FBFBFB"/>
<path d="M60.7803 86.8048V87.0504C60.7803 87.1261 60.7745 87.2017 60.763 87.2766H53.7265C53.7758 87.9691 54.0544 88.6251 54.518 89.1402C54.9609 89.6081 55.5694 89.8414 56.3435 89.8401C56.8658 89.8671 57.3825 89.7218 57.8148 89.4264C58.2079 89.1151 58.51 88.703 58.689 88.2335L60.5473 88.4945C60.4249 88.963 60.23 89.4092 59.9696 89.8169C59.7093 90.2095 59.3836 90.5541 59.0068 90.8357C58.6122 91.1327 58.1691 91.3584 57.6973 91.5027C57.1686 91.6635 56.6186 91.7424 56.0662 91.7367C55.4424 91.741 54.8233 91.6282 54.2407 91.4041C53.6835 91.1904 53.1776 90.861 52.756 90.4375C52.3216 89.9955 51.9816 89.4692 51.7566 88.8909C51.4973 88.2267 51.3698 87.5181 51.3811 86.8048C51.3731 86.1149 51.4967 85.4298 51.745 84.7865C51.9663 84.2071 52.3042 83.6797 52.7375 83.2373C53.1709 82.7949 53.6905 82.447 54.2638 82.2152C54.8568 81.9733 55.4917 81.8518 56.1317 81.8575C56.8297 81.8411 57.5234 81.9729 58.1672 82.2442C58.7242 82.4881 59.2211 82.8518 59.623 83.3094C60.0176 83.7648 60.314 84.2974 60.4934 84.8735C60.6898 85.4981 60.7867 86.1499 60.7803 86.8048ZM58.6621 85.8169C58.5641 85.2118 58.2885 84.6497 57.8706 84.2026C57.415 83.7902 56.8232 83.5619 56.2097 83.5619C55.5962 83.5619 55.0045 83.7902 54.5488 84.2026C54.1352 84.6517 53.8627 85.2132 53.7651 85.8169H58.6621Z" fill="#FBFBFB"/>
<path d="M66.8558 89.8981C67.1595 89.9114 67.4627 89.8615 67.7463 89.7518C68.03 89.642 68.288 89.4746 68.5042 89.2601C68.9372 88.8163 69.2317 88.2553 69.3515 87.6458L71.2618 87.8585C71.1698 88.3904 71.0032 88.9066 70.7669 89.3916C70.5418 89.8532 70.2291 90.2663 69.8464 90.6076C69.4509 90.9576 68.9937 91.2303 68.4985 91.4119C67.9205 91.6166 67.3107 91.7155 66.6979 91.7038C66.0423 91.7114 65.3921 91.5838 64.7877 91.3287C64.2269 91.0898 63.7214 90.737 63.303 90.2925C62.8789 89.8398 62.5478 89.3077 62.3286 88.7265C61.8606 87.4738 61.8606 86.0933 62.3286 84.8406C62.5485 84.2553 62.8831 83.7202 63.3126 83.2669C63.7384 82.8167 64.2481 82.4548 64.8127 82.2017C65.4139 81.937 66.0647 81.8051 66.7211 81.815C67.3128 81.8078 67.9007 81.9121 68.4542 82.1224C68.9605 82.3188 69.426 82.6079 69.8272 82.975C70.2204 83.3409 70.5463 83.7734 70.79 84.2529C71.0457 84.7537 71.2181 85.2931 71.3003 85.8498L69.4093 86.0296C69.3331 85.3734 69.0497 84.7589 68.6005 84.2761C68.3763 84.0521 68.1082 83.8774 67.8131 83.7629C67.5181 83.6484 67.2026 83.5967 66.8867 83.611C66.4926 83.6027 66.1017 83.6833 65.7428 83.8469C65.4231 83.9996 65.143 84.2246 64.9244 84.5042C64.6968 84.7981 64.5299 85.1346 64.4333 85.4941C64.3213 85.9007 64.2662 86.321 64.2697 86.743C64.2665 87.1634 64.3269 87.5819 64.4487 87.9841C64.5554 88.3468 64.7306 88.6855 64.9648 88.9817C65.1756 89.2637 65.4442 89.4971 65.7524 89.6661C66.097 89.8293 66.475 89.9088 66.8558 89.8981Z" fill="#FBFBFB"/>
<path d="M66.8558 89.8981C67.1595 89.9114 67.4627 89.8615 67.7463 89.7518C68.03 89.642 68.288 89.4746 68.5042 89.2601C68.9372 88.8163 69.2317 88.2553 69.3515 87.6458L71.2618 87.8585C71.1698 88.3904 71.0032 88.9066 70.7669 89.3916C70.5418 89.8532 70.2291 90.2663 69.8464 90.6076C69.4509 90.9576 68.9937 91.2303 68.4985 91.4119C67.9205 91.6166 67.3107 91.7155 66.6979 91.7038C66.0423 91.7114 65.3921 91.5838 64.7877 91.3287C64.2269 91.0898 63.7214 90.737 63.303 90.2925C62.8789 89.8398 62.5478 89.3077 62.3286 88.7265C61.8606 87.4738 61.8606 86.0933 62.3286 84.8406C62.5485 84.2553 62.8831 83.7202 63.3126 83.2669C63.7384 82.8167 64.2481 82.4548 64.8127 82.2017C65.4139 81.937 66.0647 81.8051 66.7211 81.815C67.3128 81.8078 67.9007 81.9121 68.4542 82.1224C68.9605 82.3188 69.426 82.6079 69.8272 82.975C70.2204 83.3409 70.5463 83.7734 70.79 84.2529C71.0457 84.7537 71.2181 85.2931 71.3003 85.8498L69.4093 86.0296C69.3331 85.3734 69.0497 84.7589 68.6005 84.2761C68.3763 84.0521 68.1082 83.8774 67.8131 83.7629C67.5181 83.6484 67.2026 83.5967 66.8867 83.611C66.4926 83.6027 66.1017 83.6833 65.7428 83.8469C65.4231 83.9996 65.143 84.2246 64.9244 84.5042C64.6968 84.7981 64.5299 85.1346 64.4333 85.4941C64.3213 85.9007 64.2662 86.321 64.2697 86.743C64.2665 87.1634 64.3269 87.5819 64.4487 87.9841C64.5554 88.3468 64.7306 88.6855 64.9648 88.9817C65.1756 89.2637 65.4442 89.4971 65.7524 89.6661C66.097 89.8293 66.475 89.9088 66.8558 89.8981Z" fill="#FBFBFB"/>
<path d="M81.3832 91.6091H79.0878V85.8595C79.0878 85.616 79.0474 85.3743 78.9684 85.1441C78.8898 84.9096 78.7662 84.6929 78.6045 84.5062C78.4294 84.3137 78.2171 84.1591 77.9806 84.0518C77.6084 83.8909 77.1988 83.8374 76.798 83.8975C76.3973 83.9577 76.0212 84.1289 75.7121 84.3921C75.5261 84.5596 75.3772 84.7645 75.275 84.9933C75.1647 85.2434 75.1095 85.5145 75.1132 85.7879V91.6091H72.7523V78.7043H75.1113V83.7676C75.1616 83.5018 75.2782 83.253 75.4502 83.0446C75.6442 82.8026 75.8764 82.5943 76.1377 82.4279C76.4189 82.2465 76.7225 82.1029 77.0408 82.0006C77.7942 81.7699 78.6032 81.8019 79.3362 82.0915C79.7358 82.2485 80.0974 82.489 80.3973 82.7971C80.7105 83.1229 80.9548 83.5089 81.1156 83.932C81.302 84.4217 81.3929 84.9428 81.3832 85.467V91.6091Z" fill="#FBFBFB"/>
<path d="M81.3832 91.6091H79.0878V85.8595C79.0878 85.616 79.0474 85.3743 78.9684 85.1441C78.8898 84.9096 78.7662 84.6929 78.6045 84.5062C78.4294 84.3137 78.2171 84.1591 77.9806 84.0518C77.6084 83.8909 77.1988 83.8374 76.798 83.8975C76.3973 83.9577 76.0212 84.1289 75.7121 84.3921C75.5261 84.5596 75.3772 84.7645 75.275 84.9933C75.1647 85.2434 75.1095 85.5145 75.1132 85.7879V91.6091H72.7523V78.7043H75.1113V83.7676C75.1616 83.5018 75.2782 83.253 75.4502 83.0446C75.6442 82.8026 75.8764 82.5943 76.1377 82.4279C76.4189 82.2465 76.7225 82.1029 77.0408 82.0006C77.7942 81.7699 78.6032 81.8019 79.3362 82.0915C79.7358 82.2485 80.0974 82.489 80.3973 82.7971C80.7105 83.1229 80.9548 83.5089 81.1156 83.932C81.302 84.4217 81.3929 84.9428 81.3832 85.467V91.6091Z" fill="#FBFBFB"/>
<path d="M94.1986 88.568L97.6552 78.7082H100.413L95.3444 91.6129H93.0336L87.9267 78.7043H90.6843L94.1986 88.568Z" fill="#FBFBFB"/>
<path d="M94.1986 88.568L97.6552 78.7082H100.413L95.3444 91.6129H93.0336L87.9267 78.7043H90.6843L94.1986 88.568Z" fill="#FBFBFB"/>
<path d="M106.692 90.1185C106.526 90.3419 106.342 90.5513 106.142 90.7449C105.928 90.952 105.687 91.1272 105.423 91.2649C105.126 91.4192 104.811 91.5361 104.486 91.6129C104.091 91.7043 103.687 91.7478 103.282 91.7424C102.905 91.7412 102.53 91.6759 102.175 91.5491C101.836 91.4311 101.524 91.2486 101.254 91.0117C100.988 90.7808 100.771 90.4972 100.619 90.1784C100.459 89.839 100.378 89.4673 100.384 89.0919C100.378 88.7469 100.451 88.4052 100.596 88.0924C100.721 87.8171 100.896 87.5669 101.11 87.3539C101.319 87.1509 101.557 86.979 101.815 86.8435C102.061 86.7128 102.319 86.6041 102.585 86.5187C102.845 86.4375 103.084 86.3737 103.305 86.3254L103.848 86.2036C104.397 86.0837 104.894 85.9909 105.333 85.9174C105.772 85.844 106.209 85.7686 106.617 85.6835C106.616 85.4539 106.586 85.2253 106.529 85.003C106.471 84.7695 106.37 84.5492 106.23 84.3534C106.08 84.1504 105.886 83.9844 105.662 83.8681C105.391 83.7421 105.097 83.6746 104.798 83.67C104.5 83.6653 104.204 83.7236 103.929 83.8411C103.717 83.9476 103.525 84.0924 103.365 84.2683C103.215 84.4327 103.099 84.6261 103.026 84.8367C102.952 85.0328 102.903 85.2374 102.88 85.4457L101.819 85.3471C101.478 85.3162 101.127 85.2872 100.757 85.2659C100.806 84.7957 100.937 84.3377 101.143 83.9126C101.344 83.4977 101.626 83.1276 101.973 82.8242C102.338 82.5094 102.757 82.2649 103.211 82.103C103.724 81.9229 104.265 81.8346 104.809 81.842C105.389 81.8306 105.965 81.9324 106.506 82.1417C106.959 82.3205 107.371 82.5887 107.719 82.9305C108.034 83.2429 108.284 83.6148 108.454 84.0247C108.617 84.4128 108.702 84.8294 108.703 85.2504V89.3394C108.696 89.4284 108.709 89.5179 108.74 89.6016C108.771 89.6854 108.819 89.7614 108.882 89.8246C108.996 89.934 109.139 90.0078 109.294 90.0373C109.449 90.0663 109.607 90.0663 109.762 90.0373C109.9 90.0213 110.032 89.9737 110.149 89.8981V91.261C109.973 91.4195 109.771 91.5458 109.552 91.6342C109.288 91.7292 109.008 91.7732 108.728 91.7637C108.435 91.7721 108.145 91.7111 107.881 91.5858C107.452 91.3763 107.098 91.0386 106.868 90.6192C106.79 90.4597 106.731 90.2917 106.692 90.1185ZM102.716 88.7246C102.709 88.871 102.731 89.0173 102.781 89.155C102.831 89.2928 102.908 89.4192 103.007 89.5269C103.206 89.7296 103.458 89.8711 103.735 89.9348C104.04 90.0047 104.356 90.0099 104.663 89.9503C104.983 89.8938 105.286 89.7612 105.545 89.5636C105.933 89.3038 106.234 88.9326 106.409 88.4984C106.565 88.0176 106.637 87.5132 106.621 87.0078C106.195 87.131 105.761 87.2209 105.321 87.2765C104.892 87.3305 104.467 87.4118 104.048 87.5201C103.705 87.6038 103.379 87.7478 103.086 87.9455C102.966 88.0318 102.869 88.1465 102.804 88.2794C102.739 88.4122 102.707 88.5592 102.712 88.7072L102.716 88.7246Z" fill="#FBFBFB"/>
<path d="M106.692 90.1185C106.526 90.3419 106.342 90.5513 106.142 90.7449C105.928 90.952 105.687 91.1272 105.423 91.2649C105.126 91.4192 104.811 91.5361 104.486 91.6129C104.091 91.7043 103.687 91.7478 103.282 91.7424C102.905 91.7412 102.53 91.6759 102.175 91.5491C101.836 91.4311 101.524 91.2486 101.254 91.0117C100.988 90.7808 100.771 90.4972 100.619 90.1784C100.459 89.839 100.378 89.4673 100.384 89.0919C100.378 88.7469 100.451 88.4052 100.596 88.0924C100.721 87.8171 100.896 87.5669 101.11 87.3539C101.319 87.1509 101.557 86.979 101.815 86.8435C102.061 86.7128 102.319 86.6041 102.585 86.5187C102.845 86.4375 103.084 86.3737 103.305 86.3254L103.848 86.2036C104.397 86.0837 104.894 85.9909 105.333 85.9174C105.772 85.844 106.209 85.7686 106.617 85.6835C106.616 85.4539 106.586 85.2253 106.529 85.003C106.471 84.7695 106.37 84.5492 106.23 84.3534C106.08 84.1504 105.886 83.9844 105.662 83.8681C105.391 83.7421 105.097 83.6746 104.798 83.67C104.5 83.6653 104.204 83.7236 103.929 83.8411C103.717 83.9476 103.525 84.0924 103.365 84.2683C103.215 84.4327 103.099 84.6261 103.026 84.8367C102.952 85.0328 102.903 85.2374 102.88 85.4457L101.819 85.3471C101.478 85.3162 101.127 85.2872 100.757 85.2659C100.806 84.7957 100.937 84.3377 101.143 83.9126C101.344 83.4977 101.626 83.1276 101.973 82.8242C102.338 82.5094 102.757 82.2649 103.211 82.103C103.724 81.9229 104.265 81.8346 104.809 81.842C105.389 81.8306 105.965 81.9324 106.506 82.1417C106.959 82.3205 107.371 82.5887 107.719 82.9305C108.034 83.2429 108.284 83.6148 108.454 84.0247C108.617 84.4128 108.702 84.8294 108.703 85.2504V89.3394C108.696 89.4284 108.709 89.5179 108.74 89.6016C108.771 89.6854 108.819 89.7614 108.882 89.8246C108.996 89.934 109.139 90.0078 109.294 90.0373C109.449 90.0663 109.607 90.0663 109.762 90.0373C109.9 90.0213 110.032 89.9737 110.149 89.8981V91.261C109.973 91.4195 109.771 91.5458 109.552 91.6342C109.288 91.7292 109.008 91.7732 108.728 91.7637C108.435 91.7721 108.145 91.7111 107.881 91.5858C107.452 91.3763 107.098 91.0386 106.868 90.6192C106.79 90.4597 106.731 90.2917 106.692 90.1185ZM102.716 88.7246C102.709 88.871 102.731 89.0173 102.781 89.155C102.831 89.2928 102.908 89.4192 103.007 89.5269C103.206 89.7296 103.458 89.8711 103.735 89.9348C104.04 90.0047 104.356 90.0099 104.663 89.9503C104.983 89.8938 105.286 89.7612 105.545 89.5636C105.933 89.3038 106.234 88.9326 106.409 88.4984C106.565 88.0176 106.637 87.5132 106.621 87.0078C106.195 87.131 105.761 87.2209 105.321 87.2765C104.892 87.3305 104.467 87.4118 104.048 87.5201C103.705 87.6038 103.379 87.7478 103.086 87.9455C102.966 88.0318 102.869 88.1465 102.804 88.2794C102.739 88.4122 102.707 88.5592 102.712 88.7072L102.716 88.7246Z" fill="#FBFBFB"/>
<path d="M114 89.5733C114.122 89.7065 114.289 89.7881 114.468 89.8014C114.664 89.8227 114.862 89.8227 115.058 89.8014C115.25 89.7823 115.44 89.7414 115.624 89.6796L116.036 89.5424V91.2108C115.853 91.3413 115.652 91.443 115.439 91.5124C115.239 91.5803 115.033 91.632 114.825 91.6671C114.28 91.7671 113.721 91.7507 113.184 91.6187C112.934 91.5533 112.695 91.4524 112.473 91.3191C112.285 91.2042 112.116 91.06 111.973 90.8918C111.843 90.7375 111.732 90.5689 111.641 90.3892C111.439 89.967 111.333 89.5045 111.333 89.0359V78.7043H113.727V80.2877C113.727 80.9257 113.727 81.6178 113.742 82.3467C113.758 83.0755 113.754 83.816 113.76 84.5603C113.766 85.3046 113.76 85.9929 113.76 86.6134V88.9315C113.763 89.0295 113.775 89.1272 113.794 89.2234C113.823 89.3595 113.895 89.4824 114 89.5733Z" fill="#FBFBFB"/>
<path d="M114 89.5733C114.122 89.7065 114.289 89.7881 114.468 89.8014C114.664 89.8227 114.862 89.8227 115.058 89.8014C115.25 89.7823 115.44 89.7414 115.624 89.6796L116.036 89.5424V91.2108C115.853 91.3413 115.652 91.443 115.439 91.5124C115.239 91.5803 115.033 91.632 114.825 91.6671C114.28 91.7671 113.721 91.7507 113.184 91.6187C112.934 91.5533 112.695 91.4524 112.473 91.3191C112.285 91.2042 112.116 91.06 111.973 90.8918C111.843 90.7375 111.732 90.5689 111.641 90.3892C111.439 89.967 111.333 89.5045 111.333 89.0359V78.7043H113.727V80.2877C113.727 80.9257 113.727 81.6178 113.742 82.3467C113.758 83.0755 113.754 83.816 113.76 84.5603C113.766 85.3046 113.76 85.9929 113.76 86.6134V88.9315C113.763 89.0295 113.775 89.1272 113.794 89.2234C113.823 89.3595 113.895 89.4824 114 89.5733Z" fill="#FBFBFB"/>
<path d="M119.808 89.5733C119.931 89.7061 120.098 89.7876 120.278 89.8014C120.474 89.8227 120.672 89.8227 120.867 89.8014C121.06 89.7823 121.25 89.7414 121.434 89.6796L121.846 89.5424V91.2108C121.662 91.3409 121.46 91.4426 121.247 91.5124C120.52 91.7577 119.739 91.7912 118.994 91.6091C118.744 91.5441 118.504 91.4432 118.283 91.3094C118.095 91.1953 117.926 91.0517 117.782 90.8841C117.653 90.7302 117.543 90.5615 117.453 90.3814C117.25 89.9596 117.144 89.4968 117.145 89.0281V78.7043H119.537V80.2877C119.537 80.9257 119.537 81.6178 119.554 82.3467C119.571 83.0755 119.566 83.816 119.571 84.5603C119.577 85.3046 119.571 85.9929 119.571 86.6134V88.9315C119.575 89.0295 119.587 89.1272 119.606 89.2234C119.634 89.3589 119.705 89.4816 119.808 89.5733Z" fill="#FBFBFB"/>
<path d="M119.808 89.5733C119.931 89.7061 120.098 89.7876 120.278 89.8014C120.474 89.8227 120.672 89.8227 120.867 89.8014C121.06 89.7823 121.25 89.7414 121.434 89.6796L121.846 89.5424V91.2108C121.662 91.3409 121.46 91.4426 121.247 91.5124C120.52 91.7577 119.739 91.7912 118.994 91.6091C118.744 91.5441 118.504 91.4432 118.283 91.3094C118.095 91.1953 117.926 91.0517 117.782 90.8841C117.653 90.7302 117.543 90.5615 117.453 90.3814C117.25 89.9596 117.144 89.4968 117.145 89.0281V78.7043H119.537V80.2877C119.537 80.9257 119.537 81.6178 119.554 82.3467C119.571 83.0755 119.566 83.816 119.571 84.5603C119.577 85.3046 119.571 85.9929 119.571 86.6134V88.9315C119.575 89.0295 119.587 89.1272 119.606 89.2234C119.634 89.3589 119.705 89.4816 119.808 89.5733Z" fill="#FBFBFB"/>
<path d="M131.798 86.8048V87.0503C131.798 87.126 131.793 87.2017 131.782 87.2765H124.736C124.786 87.9692 125.065 88.6253 125.529 89.1402C125.97 89.6081 126.578 89.8414 127.353 89.8401C127.876 89.8674 128.393 89.7221 128.826 89.4264C129.218 89.1144 129.52 88.7025 129.699 88.2335L131.557 88.4945C131.434 88.963 131.24 89.4092 130.979 89.8169C130.719 90.2099 130.394 90.5547 130.016 90.8357C129.622 91.1327 129.179 91.3584 128.707 91.5027C128.178 91.6635 127.628 91.7424 127.076 91.7367C126.452 91.741 125.833 91.6282 125.25 91.4041C124.693 91.1904 124.187 90.861 123.766 90.4375C123.332 89.9944 122.992 89.4685 122.764 88.8908C122.508 88.2262 122.383 87.5176 122.396 86.8048C122.388 86.1149 122.512 85.4298 122.76 84.7865C122.982 84.2069 123.32 83.6793 123.754 83.2369C124.187 82.7945 124.707 82.4467 125.281 82.2152C125.873 81.9735 126.508 81.8519 127.147 81.8575C127.843 81.8422 128.535 81.9739 129.177 82.2442C129.733 82.4876 130.229 82.8506 130.631 83.3075C131.027 83.763 131.324 84.2963 131.503 84.8735C131.702 85.4977 131.801 86.1495 131.798 86.8048ZM129.679 85.8169C129.583 85.2112 129.307 84.6487 128.888 84.2026C128.433 83.7899 127.841 83.5614 127.228 83.5614C126.615 83.5614 126.023 83.7899 125.568 84.2026C125.153 84.6508 124.879 85.2126 124.782 85.8169H129.679Z" fill="#FBFBFB"/>
<path d="M131.798 86.8048V87.0503C131.798 87.126 131.793 87.2017 131.782 87.2765H124.736C124.786 87.9692 125.065 88.6253 125.529 89.1402C125.97 89.6081 126.578 89.8414 127.353 89.8401C127.876 89.8674 128.393 89.7221 128.826 89.4264C129.218 89.1144 129.52 88.7025 129.699 88.2335L131.557 88.4945C131.434 88.963 131.24 89.4092 130.979 89.8169C130.719 90.2099 130.394 90.5547 130.016 90.8357C129.622 91.1327 129.179 91.3584 128.707 91.5027C128.178 91.6635 127.628 91.7424 127.076 91.7367C126.452 91.741 125.833 91.6282 125.25 91.4041C124.693 91.1904 124.187 90.861 123.766 90.4375C123.332 89.9944 122.992 89.4685 122.764 88.8908C122.508 88.2262 122.383 87.5176 122.396 86.8048C122.388 86.1149 122.512 85.4298 122.76 84.7865C122.982 84.2069 123.32 83.6793 123.754 83.2369C124.187 82.7945 124.707 82.4467 125.281 82.2152C125.873 81.9735 126.508 81.8519 127.147 81.8575C127.843 81.8422 128.535 81.9739 129.177 82.2442C129.733 82.4876 130.229 82.8506 130.631 83.3075C131.027 83.763 131.324 84.2963 131.503 84.8735C131.702 85.4977 131.801 86.1495 131.798 86.8048ZM129.679 85.8169C129.583 85.2112 129.307 84.6487 128.888 84.2026C128.433 83.7899 127.841 83.5614 127.228 83.5614C126.615 83.5614 126.023 83.7899 125.568 84.2026C125.153 84.6508 124.879 85.2126 124.782 85.8169H129.679Z" fill="#FBFBFB"/>
<path d="M133.35 92.798C133.46 92.8478 133.578 92.8811 133.698 92.8966C133.909 92.9288 134.123 92.934 134.336 92.9121C134.557 92.9031 134.774 92.8482 134.973 92.7507C135.171 92.6531 135.348 92.5152 135.491 92.3456C135.766 91.9948 135.909 91.5582 135.895 91.1122L132.237 81.9542H134.836L137.186 89.1634L139.481 81.9581H142.115L138.012 92.4732C137.744 93.171 137.343 93.8094 136.831 94.3524C136.601 94.5835 136.325 94.7648 136.022 94.8851C135.719 95.0055 135.395 95.0624 135.069 95.0522C134.809 95.0522 134.511 95.0368 134.174 95.0117C133.89 94.9948 133.613 94.9219 133.357 94.7971L133.35 92.798Z" fill="#FBFBFB"/>
<path d="M133.35 92.798C133.46 92.8478 133.578 92.8811 133.698 92.8966C133.909 92.9288 134.123 92.934 134.336 92.9121C134.557 92.9031 134.774 92.8482 134.973 92.7507C135.171 92.6531 135.348 92.5152 135.491 92.3456C135.766 91.9948 135.909 91.5582 135.895 91.1122L132.237 81.9542H134.836L137.186 89.1634L139.481 81.9581H142.115L138.012 92.4732C137.744 93.171 137.343 93.8094 136.831 94.3524C136.601 94.5835 136.325 94.7648 136.022 94.8851C135.719 95.0055 135.395 95.0624 135.069 95.0522C134.809 95.0522 134.511 95.0368 134.174 95.0117C133.89 94.9948 133.613 94.9219 133.357 94.7971L133.35 92.798Z" fill="#FBFBFB"/>
<path d="M109.625 62.9673C107.139 62.9673 104.746 62.9499 102.346 62.9809C101.768 62.9809 101.576 62.6773 101.339 62.2559C95.874 52.7595 90.3627 43.2864 84.9245 33.7688C84.3314 32.7306 83.7345 32.3034 82.5251 32.3691C81.1483 32.4445 79.9794 32.4078 78.6141 32.3691C78.182 32.1048 77.7764 31.7992 77.4028 31.4566C76.3244 30.517 75.0265 30.2696 73.6978 31.0081C72.3691 31.7466 71.8164 32.8737 71.9474 34.3372C72.0783 35.8007 73.0354 36.6224 74.3294 37.0651C75.4848 37.4517 76.6037 37.2777 77.4279 36.3382C77.725 35.99 78.085 35.7014 78.4889 35.4875C79.315 35.4875 80.145 35.4875 80.9692 35.4643C81.7934 35.4411 82.3422 35.6963 82.7562 36.4155C87.788 45.212 92.8314 54.0085 98.0019 63.0157C95.3059 63.0157 92.789 63.0408 90.2702 62.9963C89.7599 62.9963 89.6521 62.3777 89.421 61.9968C85.8854 55.8722 82.3249 49.7533 78.8394 43.5996C78.3618 42.747 77.8534 42.5034 76.931 42.4822C75.404 42.4493 73.796 42.3971 70.9518 42.4667C70.678 42.2669 70.4145 42.0533 70.1623 41.8268C69.0819 40.8872 67.786 40.6417 66.4592 41.3802C65.1324 42.1187 64.5778 43.2439 64.7068 44.7074C64.8358 46.1709 65.7948 46.9925 67.0889 47.4333C68.2443 47.82 69.365 47.6479 70.1854 46.7103C70.4875 46.3533 70.8574 46.0602 71.2734 45.848C71.4659 45.848 71.6585 45.8345 71.8511 45.8248C75.2114 45.6663 77.0408 46.488 78.5332 49.531C80.7554 54.0723 83.5015 58.3487 86.0626 62.7991C85.5273 63.1858 84.9804 63.0543 84.472 63.0563C69.1949 63.0872 53.9114 63.1123 38.6215 63.1317C37.1272 63.1317 37.1252 63.1317 37.8243 61.906C49.4721 41.6244 61.1225 21.3442 72.7754 1.06524C72.9583 0.750118 73.1605 0.446591 73.4455 0L86.026 21.9351C83.4822 21.9351 81.1868 21.9815 78.901 21.9081C77.9979 21.881 77.5261 21.1077 77.112 20.3711C75.9489 18.3063 74.7723 16.2397 73.4686 13.9197C72.1958 16.1005 71.0577 18.0376 69.935 19.9883C63.267 31.5881 56.5997 43.1917 49.9329 54.7992C49.1896 56.0945 49.1858 56.0945 50.6069 56.1041C56.7268 56.1447 62.8485 56.05 68.9703 56.1409C69.2933 56.3411 69.5842 56.5895 69.833 56.8775C70.6533 57.817 71.7798 57.993 72.9314 57.6044C74.2254 57.1636 75.1825 56.3419 75.3135 54.8765C75.4444 53.4111 74.8571 52.2646 73.5611 51.5493C72.2651 50.834 70.9364 51.0583 69.858 51.9978C69.5577 52.2665 69.2413 52.5163 68.9106 52.746H54.7645C61.0364 41.8558 67.189 31.1589 73.4552 20.2667C74.2428 21.62 74.9957 22.7684 75.5734 23.9941C76.0818 25.0593 76.802 25.3706 77.942 25.3474C80.9114 25.2739 83.8808 25.3474 86.8348 25.3107C87.6397 25.3107 88.2078 25.533 88.6257 26.2773C95.544 38.3604 102.476 50.4383 109.423 62.5111C109.501 62.6583 109.568 62.8108 109.625 62.9673Z" fill="#F4BA2D"/>
<path d="M109.625 62.9673C107.139 62.9673 104.746 62.9499 102.346 62.9809C101.768 62.9809 101.576 62.6773 101.339 62.2559C95.874 52.7595 90.3627 43.2864 84.9245 33.7688C84.3314 32.7306 83.7345 32.3034 82.5251 32.3691C81.1483 32.4445 79.9794 32.4078 78.6141 32.3691C78.182 32.1048 77.7764 31.7992 77.4028 31.4566C76.3244 30.517 75.0265 30.2696 73.6978 31.0081C72.3691 31.7466 71.8164 32.8737 71.9474 34.3372C72.0783 35.8007 73.0354 36.6224 74.3294 37.0651C75.4848 37.4517 76.6037 37.2777 77.4279 36.3382C77.725 35.99 78.085 35.7014 78.4889 35.4875C79.315 35.4875 80.145 35.4875 80.9692 35.4643C81.7934 35.4411 82.3422 35.6963 82.7562 36.4155C87.788 45.212 92.8314 54.0085 98.0019 63.0157C95.3059 63.0157 92.789 63.0408 90.2702 62.9963C89.7599 62.9963 89.6521 62.3777 89.421 61.9968C85.8854 55.8722 82.3249 49.7533 78.8394 43.5996C78.3618 42.747 77.8534 42.5034 76.931 42.4822C75.404 42.4493 73.796 42.3971 70.9518 42.4667C70.678 42.2669 70.4145 42.0533 70.1623 41.8268C69.0819 40.8872 67.786 40.6417 66.4592 41.3802C65.1324 42.1187 64.5778 43.2439 64.7068 44.7074C64.8358 46.1709 65.7948 46.9925 67.0889 47.4333C68.2443 47.82 69.365 47.6479 70.1854 46.7103C70.4875 46.3533 70.8574 46.0602 71.2734 45.848C71.4659 45.848 71.6585 45.8345 71.8511 45.8248C75.2114 45.6663 77.0408 46.488 78.5332 49.531C80.7554 54.0723 83.5015 58.3487 86.0626 62.7991C85.5273 63.1858 84.9804 63.0543 84.472 63.0563C69.1949 63.0872 53.9114 63.1123 38.6215 63.1317C37.1272 63.1317 37.1252 63.1317 37.8243 61.906C49.4721 41.6244 61.1225 21.3442 72.7754 1.06524C72.9583 0.750118 73.1605 0.446591 73.4455 0L86.026 21.9351C83.4822 21.9351 81.1868 21.9815 78.901 21.9081C77.9979 21.881 77.5261 21.1077 77.112 20.3711C75.9489 18.3063 74.7723 16.2397 73.4686 13.9197C72.1958 16.1005 71.0577 18.0376 69.935 19.9883C63.267 31.5881 56.5997 43.1917 49.9329 54.7992C49.1896 56.0945 49.1858 56.0945 50.6069 56.1041C56.7268 56.1447 62.8485 56.05 68.9703 56.1409C69.2933 56.3411 69.5842 56.5895 69.833 56.8775C70.6533 57.817 71.7798 57.993 72.9314 57.6044C74.2254 57.1636 75.1825 56.3419 75.3135 54.8765C75.4444 53.4111 74.8571 52.2646 73.5611 51.5493C72.2651 50.834 70.9364 51.0583 69.858 51.9978C69.5577 52.2665 69.2413 52.5163 68.9106 52.746H54.7645C61.0364 41.8558 67.189 31.1589 73.4552 20.2667C74.2428 21.62 74.9957 22.7684 75.5734 23.9941C76.0818 25.0593 76.802 25.3706 77.942 25.3474C80.9114 25.2739 83.8808 25.3474 86.8348 25.3107C87.6397 25.3107 88.2078 25.533 88.6257 26.2773C95.544 38.3604 102.476 50.4383 109.423 62.5111C109.501 62.6583 109.568 62.8108 109.625 62.9673Z" fill="#F7A41E"/>
<path d="M109.625 62.9673C107.139 62.9673 104.746 62.9499 102.346 62.9809C101.768 62.9809 101.576 62.6773 101.339 62.2559C95.874 52.7595 90.3627 43.2864 84.9245 33.7688C84.3314 32.7306 83.7345 32.3034 82.5251 32.3691C81.1483 32.4445 79.9794 32.4078 78.6141 32.3691C78.182 32.1048 77.7764 31.7992 77.4028 31.4566C76.3244 30.517 75.0265 30.2696 73.6978 31.0081C72.3691 31.7466 71.8164 32.8737 71.9474 34.3372C72.0783 35.8007 73.0354 36.6224 74.3294 37.0651C75.4848 37.4517 76.6037 37.2777 77.4279 36.3382C77.725 35.99 78.085 35.7014 78.4889 35.4875C79.315 35.4875 80.145 35.4875 80.9692 35.4643C81.7934 35.4411 82.3422 35.6963 82.7562 36.4155C87.788 45.212 92.8314 54.0085 98.0019 63.0157C95.3059 63.0157 92.789 63.0408 90.2702 62.9963C89.7599 62.9963 89.6521 62.3777 89.421 61.9968C85.8854 55.8722 82.3249 49.7533 78.8394 43.5996C78.3618 42.747 77.8534 42.5034 76.931 42.4822C75.404 42.4493 73.796 42.3971 70.9518 42.4667C70.678 42.2669 70.4145 42.0533 70.1623 41.8268C69.0819 40.8872 67.786 40.6417 66.4592 41.3802C65.1324 42.1187 64.5778 43.2439 64.7068 44.7074C64.8358 46.1709 65.7948 46.9925 67.0889 47.4333C68.2443 47.82 69.365 47.6479 70.1854 46.7103C70.4875 46.3533 70.8574 46.0602 71.2734 45.848C71.4659 45.848 71.6585 45.8345 71.8511 45.8248C75.2114 45.6663 77.0408 46.488 78.5332 49.531C80.7554 54.0723 83.5015 58.3487 86.0626 62.7991C85.5273 63.1858 84.9804 63.0543 84.472 63.0563C69.1949 63.0872 53.9114 63.1123 38.6215 63.1317C37.1272 63.1317 37.1252 63.1317 37.8243 61.906C49.4721 41.6244 61.1225 21.3442 72.7754 1.06524C72.9583 0.750118 73.1605 0.446591 73.4455 0L86.026 21.9351C83.4822 21.9351 81.1868 21.9815 78.901 21.9081C77.9979 21.881 77.5261 21.1077 77.112 20.3711C75.9489 18.3063 74.7723 16.2397 73.4686 13.9197C72.1958 16.1005 71.0577 18.0376 69.935 19.9883C63.267 31.5881 56.5997 43.1917 49.9329 54.7992C49.1896 56.0945 49.1858 56.0945 50.6069 56.1041C56.7268 56.1447 62.8485 56.05 68.9703 56.1409C69.2933 56.3411 69.5842 56.5895 69.833 56.8775C70.6533 57.817 71.7798 57.993 72.9314 57.6044C74.2254 57.1636 75.1825 56.3419 75.3135 54.8765C75.4444 53.4111 74.8571 52.2646 73.5611 51.5493C72.2651 50.834 70.9364 51.0583 69.858 51.9978C69.5577 52.2665 69.2413 52.5163 68.9106 52.746H54.7645C61.0364 41.8558 67.189 31.1589 73.4552 20.2667C74.2428 21.62 74.9957 22.7684 75.5734 23.9941C76.0818 25.0593 76.802 25.3706 77.942 25.3474C80.9114 25.2739 83.8808 25.3474 86.8348 25.3107C87.6397 25.3107 88.2078 25.533 88.6257 26.2773C95.544 38.3604 102.476 50.4383 109.423 62.5111C109.501 62.6583 109.568 62.8108 109.625 62.9673Z" fill="#F7A41E"/>
<g style="mix-blend-mode:multiply">
<path style="mix-blend-mode:multiply" d="M151.728 88.2703C151.357 89.3859 151.168 90.5545 151.168 91.7309H147.557C147.556 89.9025 147.9 88.0904 148.572 86.3911C149.81 86.6287 150.927 87.2934 151.728 88.2703ZM154.779 79.1838C153.619 79.8583 152.559 80.6918 151.628 81.6603C151.181 82.1212 150.765 82.6121 150.384 83.1296C151.548 83.5171 152.621 84.1387 153.537 84.9566C154.551 83.6778 155.84 82.6455 157.307 81.9365C158.774 81.2275 160.381 80.8602 162.01 80.8619V77.2312C159.47 77.2263 156.975 77.8981 154.779 79.178V79.1838Z" fill="url(#paint0_linear_494_4635)"/>
<path style="mix-blend-mode:multiply" d="M154.779 86.3022C153.603 87.8657 152.969 89.772 152.972 91.7308C152.97 90.4665 152.529 89.2425 151.727 88.2684C150.924 87.2942 149.809 86.6306 148.572 86.3911C148.238 86.3274 147.898 86.295 147.557 86.2944V82.6695C149.759 82.6682 151.884 83.4803 153.527 84.9508C153.99 85.3564 154.409 85.8093 154.779 86.3022Z" fill="url(#paint1_linear_494_4635)"/>
<path style="mix-blend-mode:multiply" d="M162 82.6695V86.2944C161.659 86.2949 161.318 86.3273 160.983 86.3911C160.522 85.2282 159.913 84.1301 159.171 83.1238C160.084 82.8214 161.039 82.6681 162 82.6695ZM156.019 84.9508C155.559 85.357 155.144 85.8106 154.779 86.3041C153.603 87.8676 152.969 89.7739 152.972 91.7328H156.583C156.583 90.4688 157.023 89.2445 157.827 88.2722C157.424 87.0669 156.811 85.9425 156.019 84.9508Z" fill="url(#paint2_linear_494_4635)"/>
<path style="mix-blend-mode:multiply" d="M162 91.7309H158.389C158.387 90.2023 158.064 88.6913 157.442 87.2961C156.82 85.9009 155.913 84.6526 154.779 83.6323C155.707 82.7954 156.772 82.1263 157.927 81.6546C158.375 82.1149 158.791 82.6058 159.171 83.1239C161.01 85.6138 162.002 88.6315 162 91.7309ZM147.557 77.2312V80.8561C148.953 80.855 150.336 81.1261 151.628 81.6546C152.559 80.6861 153.619 79.8525 154.779 79.178C152.585 77.9001 150.094 77.2284 147.557 77.2312Z" fill="url(#paint3_linear_494_4635)"/>
</g>
</g>
<defs>
<linearGradient id="paint0_linear_494_4635" x1="162" y1="84.481" x2="147.557" y2="84.481" gradientUnits="userSpaceOnUse">
<stop stop-color="#2E2E30" stop-opacity="0.07"/>
<stop offset="0.58" stop-color="#2E2E30" stop-opacity="0.28"/>
<stop offset="1" stop-color="#2E2E30" stop-opacity="0.5"/>
</linearGradient>
<linearGradient id="paint1_linear_494_4635" x1="147.586" y1="82.6386" x2="154.836" y2="89.8598" gradientUnits="userSpaceOnUse">
<stop stop-color="#2E2E30" stop-opacity="0.21"/>
<stop offset="0.78" stop-color="#2E2E30" stop-opacity="0.42"/>
<stop offset="1" stop-color="#2E2E30" stop-opacity="0.5"/>
</linearGradient>
<linearGradient id="paint2_linear_494_4635" x1="157.486" y1="82.6695" x2="157.486" y2="91.7308" gradientUnits="userSpaceOnUse">
<stop stop-color="#2E2E30" stop-opacity="0.07"/>
<stop offset="0.58" stop-color="#2E2E30" stop-opacity="0.28"/>
<stop offset="1" stop-color="#2E2E30" stop-opacity="0.5"/>
</linearGradient>
<linearGradient id="paint3_linear_494_4635" x1="149.899" y1="75.874" x2="159.823" y2="92.9923" gradientUnits="userSpaceOnUse">
<stop stop-color="#2E2E30" stop-opacity="0.21"/>
<stop offset="0.78" stop-color="#2E2E30" stop-opacity="0.42"/>
<stop offset="1" stop-color="#2E2E30" stop-opacity="0.5"/>
</linearGradient>
<clipPath id="clip0_494_4635">
<rect width="162" height="107" fill="white"/>
</clipPath>
</defs>
</svg>
