<svg width="469" height="89" viewBox="0 0 469 89" fill="none" xmlns="http://www.w3.org/2000/svg">
<path d="M255.103 61.8984H260.999V88.6366H255.103V61.8984Z" fill="#F9A32C"/>
<path d="M283.618 77.3676V88.6364H277.923V78.2966C277.923 76.681 276.792 75.5097 275.136 75.5097C273.48 75.5097 272.147 76.681 272.147 78.2966V88.6364H266.412V70.8244H272.147V73.0055C273.4 71.4303 275.177 70.4609 277.237 70.4609C280.751 70.4609 283.618 73.4498 283.618 77.3676Z" fill="#F9A32C"/>
<path fill-rule="evenodd" clip-rule="evenodd" d="M306.842 58.1016V88.6364L301.187 88.6768V87.1016C299.855 88.2729 298.158 88.9999 296.098 88.9999C291.13 88.9999 287.253 84.9205 287.253 79.7102C287.253 74.5403 291.13 70.4609 296.098 70.4609C298.158 70.4609 299.855 71.1475 301.187 72.3592V58.1016H306.842ZM301.43 79.7102C301.43 77.3676 299.532 75.5097 297.189 75.5097C294.846 75.5097 292.948 77.3676 292.948 79.7102C292.948 82.0932 294.846 83.9512 297.189 83.9512C299.532 83.9512 301.43 82.0932 301.43 79.7102Z" fill="#F9A32C"/>
<path d="M311.688 81.8103V70.8242H317.424V81.0833C317.424 82.7797 318.555 83.951 320.09 83.951C321.624 83.951 322.796 82.7797 322.796 81.0833V70.8242H328.45V81.8103C328.45 86.2128 325.461 88.9997 320.09 88.9997C314.677 88.9997 311.688 86.2128 311.688 81.8103V81.8103Z" fill="#F9A32C"/>
<path d="M331.602 84.7186L335.762 82.6183C336.57 84.1532 337.822 84.5167 338.751 84.5167C339.72 84.5167 340.326 84.1128 340.326 83.3857C340.326 82.7799 339.801 82.2952 338.185 81.6894C336.125 80.922 332.571 79.7103 332.571 76.1559C332.571 73.1267 335.156 70.4609 339.195 70.4609C341.699 70.4609 343.88 71.4707 345.253 72.8036L342.386 76.0348C341.861 75.3481 340.77 74.7423 339.599 74.7423C338.629 74.7423 338.185 75.1866 338.185 75.752C338.185 76.4387 338.831 76.681 340.124 77.2465C342.668 78.2158 345.576 79.6295 345.576 83.2242C345.576 86.5362 343.153 89 339.114 89C335.964 89 332.652 87.5055 331.602 84.7186V84.7186Z" fill="#F9A32C"/>
<path d="M355.593 75.2268V81.6085C355.593 83.0625 356.441 83.9915 357.653 83.9915H359.794V88.4344C359.349 88.7575 358.138 88.9998 356.926 88.9998C353.129 88.9998 349.898 86.0513 349.898 82.2547V75.2268H346.909V70.8243H349.898V63.958H355.593V70.8243H359.834V75.2268H355.593Z" fill="#F9A32C"/>
<path d="M375.505 70.6225V75.6712C375.101 75.5905 374.536 75.5097 373.849 75.5097C371.062 75.5097 369.043 77.1657 369.043 80.1141V88.6364H363.348V70.8244H369.043V73.2478C370.214 71.5111 371.951 70.4609 374.051 70.4609C374.576 70.4609 375.101 70.5013 375.505 70.6225Z" fill="#F9A32C"/>
<path d="M377.889 64.6852C377.889 62.9485 379.302 61.5752 380.999 61.5752C382.695 61.5752 384.109 62.9485 384.109 64.6852C384.109 66.3816 382.695 67.8356 380.999 67.8356C379.302 67.8356 377.889 66.3816 377.889 64.6852ZM378.131 70.8245H383.826V88.6365H378.131V70.8245Z" fill="#F9A32C"/>
<path fill-rule="evenodd" clip-rule="evenodd" d="M407.373 80.68H393.721C393.923 83.2245 395.256 84.7594 397.841 84.7594C399.82 84.7594 401.112 83.9112 401.597 82.4975H407.09C406.202 86.375 402.89 89.0003 397.962 89.0003C391.984 89.0003 387.945 85.2844 387.945 79.7106C387.945 74.1368 392.025 70.4209 397.76 70.4209C403.536 70.4209 407.373 74.0964 407.373 79.6702V80.68ZM394.085 77.2468H401.476C400.911 75.712 399.78 74.8234 397.841 74.8234C395.862 74.8234 394.65 75.7524 394.085 77.2468Z" fill="#F9A32C"/>
<path d="M409.554 84.7186L413.754 82.6183C414.522 84.1532 415.774 84.5167 416.743 84.5167C417.672 84.5167 418.278 84.1128 418.278 83.3857C418.278 82.7799 417.753 82.2952 416.137 81.6894C414.077 80.922 410.523 79.7103 410.523 76.1559C410.523 73.1267 413.108 70.4609 417.187 70.4609C419.651 70.4609 421.873 71.4707 423.206 72.8036L420.338 76.0348C419.813 75.3481 418.722 74.7423 417.591 74.7423C416.582 74.7423 416.137 75.1866 416.137 75.752C416.137 76.4387 416.784 76.681 418.076 77.2465C420.621 78.2158 423.569 79.6295 423.569 83.2242C423.569 86.5362 421.105 89 417.066 89C413.916 89 410.604 87.5055 409.554 84.7186V84.7186Z" fill="#F9A32C"/>
<path fill-rule="evenodd" clip-rule="evenodd" d="M94.2698 37.9872H66.0371C66.4814 42.7936 69.2683 45.7421 74.5998 45.7421C78.6792 45.7421 81.3449 44.1265 82.3547 41.4203H93.7043C91.8867 48.7713 85.0204 53.7797 74.8018 53.7797C62.402 53.7797 54.1221 46.7518 54.1221 36.21C54.1221 25.6682 62.5232 18.5596 74.4383 18.5596C86.3129 18.5596 94.2698 25.5874 94.2698 36.1292V37.9872ZM66.7641 31.4844H82.072C80.9007 28.5359 78.558 26.8395 74.5998 26.8395C70.4396 26.8395 67.9758 28.6167 66.7641 31.4844Z" fill="#2C3A8F"/>
<path d="M160.105 31.726V53.0923H148.392V33.5032C148.392 30.5547 146.17 28.1717 142.939 28.1717C139.345 28.1717 137.689 31.0394 137.689 33.5032V53.0923H125.854V33.5032C125.854 30.5547 123.714 28.1717 120.482 28.1717C116.888 28.1717 115.232 31.0394 115.232 33.5032V53.0923H103.397V19.3263H115.232V23.4461C117.615 20.4976 121.048 18.6396 125.289 18.6396C130.014 18.6396 133.69 21.0227 135.831 24.577C138.133 20.8611 142.212 18.6396 147.463 18.6396C155.581 18.6396 160.105 23.8904 160.105 31.726Z" fill="#2C3A8F"/>
<path d="M184.662 27.6876V39.7642C184.662 42.5511 186.439 44.3283 188.903 44.3283H193.346V52.6486C192.417 53.2545 189.913 53.7796 187.449 53.7796C179.573 53.7796 172.949 48.2057 172.949 41.0163V27.6876H166.77V19.3269H172.949V6.32129H184.662V19.3269H193.427V27.6876H184.662Z" fill="#2C3A8F"/>
<path d="M226.87 19.0032V28.5352C226.022 28.3736 224.851 28.1717 223.437 28.1717C217.621 28.1717 213.461 31.4029 213.461 36.9767V53.0923H201.667V19.3263H213.461V23.9711C215.884 20.6592 219.479 18.6396 223.801 18.6396C224.932 18.6396 226.022 18.7204 226.87 19.0032V19.0032Z" fill="#2C3A8F"/>
<path fill-rule="evenodd" clip-rule="evenodd" d="M230.465 36.2093C230.465 26.0714 238.704 18.6396 251.064 18.6396C263.423 18.6396 271.541 26.0714 271.541 36.2093C271.541 46.3472 263.423 53.779 251.064 53.779C238.704 53.779 230.465 46.3472 230.465 36.2093V36.2093ZM259.828 36.2093C259.828 31.6452 256.032 28.2525 251.064 28.1717C245.975 28.2525 242.299 31.6452 242.299 36.2093C242.299 40.7734 245.975 44.1258 251.064 44.2065C256.032 44.1258 259.828 40.7734 259.828 36.2093V36.2093Z" fill="#2C3A8F"/>
<path d="M316.415 31.726V53.0923H304.702V33.5032C304.702 30.4739 302.319 28.1717 298.886 28.1717C295.493 28.1717 292.706 30.4739 292.706 33.5032V53.0923H280.872V19.3263H292.706V23.4461C295.291 20.4976 298.967 18.6396 303.248 18.6396C310.518 18.6396 316.415 24.2943 316.415 31.726V31.726Z" fill="#2C3A8F"/>
<path d="M327.158 7.77522C327.158 4.46324 330.107 1.83789 333.621 1.83789C337.135 1.83789 340.083 4.46324 340.083 7.77522C340.083 10.966 337.135 13.6722 333.621 13.6722C330.107 13.6722 327.158 10.966 327.158 7.77522ZM327.683 19.3268H339.437V53.0928H327.683V19.3268Z" fill="#2C3A8F"/>
<path d="M348.929 36.2093C348.929 26.0714 357.168 18.6396 369.528 18.6396C380.594 18.6396 388.188 24.577 389.763 33.0185H377.565C376.354 30.1104 373.324 28.2525 369.528 28.1717C364.438 28.2525 360.763 31.6452 360.763 36.2093C360.763 40.7734 364.438 44.1258 369.528 44.2065C373.324 44.1258 376.354 42.2678 377.565 39.4001H389.763C388.188 47.8416 380.594 53.779 369.528 53.779C357.168 53.779 348.929 46.3472 348.929 36.2093V36.2093Z" fill="#2C3A8F"/>
<path d="M394.569 45.6606L403.253 41.7024C404.909 44.57 407.494 45.2567 409.433 45.2567C411.372 45.2567 412.664 44.4893 412.664 43.116C412.664 41.9447 411.533 41.0965 408.221 39.9252C403.98 38.4711 396.589 36.2093 396.589 29.4642C396.589 23.7288 401.961 18.6396 410.362 18.6396C415.532 18.6396 420.055 20.5784 422.802 23.1229L416.905 29.1814C415.774 27.9294 413.593 26.758 411.17 26.758C409.15 26.758 408.221 27.6062 408.221 28.6968C408.221 29.9489 409.514 30.4739 412.179 31.4837C417.47 33.3416 423.569 36.0477 423.569 42.7929C423.569 49.1341 418.48 53.779 410.16 53.779C403.617 53.779 396.791 50.9113 394.569 45.6606V45.6606Z" fill="#2C3A8F"/>
<path d="M62.6853 75.5506C58.0405 75.5506 53.5168 75.6718 49.0335 75.5102C46.0446 75.389 43.7828 73.6119 41.8844 71.3904C39.3399 68.442 37.5627 65.0492 35.7856 61.6161C32.1505 54.6286 28.7577 47.5199 23.6685 41.3807C21.2855 38.4726 18.4582 36.8974 14.6616 36.7762C12.8036 36.7358 12.319 37.1801 12.319 38.9573C12.3997 48.1662 12.319 57.3347 12.3997 66.5032C12.4401 68.4824 11.9554 69.169 9.89556 69.0478C7.2702 68.8459 4.56407 68.9266 1.93872 69.0074C0.525071 69.0478 0 68.7247 0 67.2303C0.0538534 47.7623 0.0538534 28.2943 0 8.8263C0 7.37226 0.444291 6.92796 1.89833 6.96835C4.60446 7.08952 7.39137 7.12991 10.0975 6.96835C11.8747 6.88757 12.4401 7.37225 12.3997 9.18981C12.319 16.5004 12.4805 23.7706 12.319 31.0812C12.2382 33.4642 13.0056 33.9489 15.1866 33.8277C18.7006 33.6258 22.2145 33.8277 25.7284 33.7469C29.9694 33.6258 33.3622 35.3221 36.1895 38.3514C38.5321 40.896 40.2285 43.8848 41.9248 46.8737C42.5307 47.8834 43.0558 48.974 43.5808 50.0241C51.2953 64.8069 51.2953 64.8069 62.6853 75.5506V75.5506Z" fill="#2C3A8F"/>
<path d="M55.0119 0.0611829C49.2765 2.44419 46.2068 7.12944 43.5815 12.2186C42.0467 15.167 40.4311 18.0347 38.8962 20.9832C36.4728 25.6281 32.4742 27.8495 27.3851 28.0111C22.5383 28.1322 17.7319 28.0111 12.4004 28.0111C14.5411 26.2743 16.9645 25.83 18.6608 24.2144C21.6901 21.3467 23.6288 17.7116 25.7291 14.1573C27.1024 11.7743 28.516 9.35089 29.8085 6.88709C32.1511 2.44419 35.9478 0.263132 40.7946 0.101572C45.5606 -0.100378 50.2862 0.0611829 55.0119 0.0611829Z" fill="#F9A32C"/>
<g style="mix-blend-mode:multiply">
<path fill-rule="evenodd" clip-rule="evenodd" d="M446.512 81.7697C445.745 84.0316 445.341 86.4954 445.341 88.9995H437.788C437.788 85.0817 438.515 81.3254 439.888 77.8519C442.554 78.3366 444.856 79.7906 446.512 81.7697ZM452.934 62.7864C450.471 64.2001 448.249 65.9368 446.31 67.9563C445.368 68.9257 444.493 69.9489 443.685 71.026C446.149 71.8338 448.411 73.1667 450.309 74.8227C451.117 73.8533 451.992 72.9378 452.934 72.0761C454.833 70.3394 457.094 68.9257 459.518 67.9563C462.143 66.8658 465.051 66.3004 468.081 66.3004V58.707C462.547 58.707 457.377 60.2015 452.934 62.7864Z" fill="url(#paint0_linear_510_3726)"/>
<path d="M452.934 77.65C450.551 80.8408 449.138 84.7586 449.138 88.9996C449.138 86.253 448.168 83.7489 446.512 81.7697C444.856 79.7906 442.554 78.3366 439.888 77.8519C439.215 77.7173 438.515 77.65 437.788 77.65V70.0566C439.848 70.0566 441.827 70.4201 443.685 71.026C446.149 71.8338 448.411 73.1667 450.309 74.8227C451.278 75.6709 452.167 76.6402 452.934 77.65V77.65Z" fill="url(#paint1_linear_510_3726)"/>
<path fill-rule="evenodd" clip-rule="evenodd" d="M468.081 70.0566V77.65C467.327 77.65 466.613 77.7173 465.94 77.8519C464.971 75.3881 463.678 73.1263 462.143 71.026C464.001 70.4201 465.98 70.0566 468.081 70.0566ZM455.519 74.8227C454.55 75.6709 453.702 76.6402 452.934 77.65C450.551 80.8408 449.138 84.7586 449.138 88.9996H456.691C456.691 86.253 457.7 83.7489 459.316 81.7697C458.468 79.2252 457.175 76.8826 455.519 74.8227V74.8227Z" fill="url(#paint2_linear_510_3726)"/>
<path fill-rule="evenodd" clip-rule="evenodd" d="M468.081 88.9995H460.487C460.487 86.4954 460.083 84.0316 459.316 81.7697C458.468 79.2252 457.175 76.8825 455.519 74.8227C454.738 73.8533 453.877 72.9378 452.934 72.0761C454.833 70.3394 457.094 68.9257 459.518 67.9563C460.46 68.9257 461.335 69.9489 462.143 71.026C463.678 73.1263 464.971 75.3881 465.94 77.8519C467.313 81.3254 468.081 85.0817 468.081 88.9995V88.9995ZM452.934 62.7864C450.471 64.2001 448.249 65.9368 446.31 67.9563C443.685 66.8658 440.777 66.3004 437.788 66.3004V58.707C443.281 58.707 448.451 60.2015 452.934 62.7864Z" fill="url(#paint3_linear_510_3726)"/>
</g>
<defs>
<linearGradient id="paint0_linear_510_3726" x1="468.081" y1="89.8073" x2="437.788" y2="89.8073" gradientUnits="userSpaceOnUse">
<stop stop-color="#23282C" stop-opacity="0.1"/>
<stop offset="1" stop-color="#23282C" stop-opacity="0.5"/>
</linearGradient>
<linearGradient id="paint1_linear_510_3726" x1="442.271" y1="65.5733" x2="457.418" y2="80.7196" gradientUnits="userSpaceOnUse">
<stop stop-color="#23282C" stop-opacity="0.2"/>
<stop offset="1" stop-color="#23282C" stop-opacity="0.5"/>
</linearGradient>
<linearGradient id="paint2_linear_510_3726" x1="468.888" y1="70.0566" x2="468.888" y2="88.9996" gradientUnits="userSpaceOnUse">
<stop stop-color="#23282C" stop-opacity="0.1"/>
<stop offset="1" stop-color="#23282C" stop-opacity="0.5"/>
</linearGradient>
<linearGradient id="paint3_linear_510_3726" x1="451.682" y1="50.7098" x2="472.362" y2="86.5358" gradientUnits="userSpaceOnUse">
<stop stop-color="#23282C" stop-opacity="0.2"/>
<stop offset="1" stop-color="#23282C" stop-opacity="0.5"/>
</linearGradient>
</defs>
</svg>
