<svg xmlns="http://www.w3.org/2000/svg" xmlns:xlink="http://www.w3.org/1999/xlink" viewBox="0 0 842.95 220.38"><defs><style>.cls-1{isolation:isolate;}.cls-2{fill:#f7a41d;}.cls-3{fill:#2c3a8f;}.cls-4{mix-blend-mode:multiply;}.cls-5{fill:url(#linear-gradient);}.cls-6{fill:url(#linear-gradient-2);}.cls-7{fill:url(#linear-gradient-3);}.cls-8{fill:url(#linear-gradient-4);}</style><linearGradient id="linear-gradient" x1="842.95" y1="182.88" x2="767.95" y2="182.88" gradientUnits="userSpaceOnUse"><stop offset="0" stop-color="#2e2e30" stop-opacity="0.07"/><stop offset="0.58" stop-color="#2e2e30" stop-opacity="0.28"/><stop offset="1" stop-color="#2e2e30" stop-opacity="0.5"/></linearGradient><linearGradient id="linear-gradient-2" x1="768.11" y1="173.35" x2="805.61" y2="210.85" gradientUnits="userSpaceOnUse"><stop offset="0" stop-color="#2e2e30" stop-opacity="0.21"/><stop offset="0.78" stop-color="#2e2e30" stop-opacity="0.42"/><stop offset="1" stop-color="#2e2e30" stop-opacity="0.5"/></linearGradient><linearGradient id="linear-gradient-3" x1="819.51" y1="173.51" x2="819.51" y2="220.38" xlink:href="#linear-gradient"/><linearGradient id="linear-gradient-4" x1="780.12" y1="138.36" x2="831.35" y2="227.08" xlink:href="#linear-gradient-2"/></defs><g class="cls-1"><g id="Layer_2" data-name="Layer 2"><g id="Layer_1-2" data-name="Layer 1"><path class="cls-2" d="M254.54,156.12h14v63.42h-14Z"/><path class="cls-2" d="M322.08,192.8v26.74H308.65V195a6.44,6.44,0,0,0-6.65-6.66,6.8,6.8,0,0,0-7.09,6.66v24.52H281.38V177.26h13.53v5.18a15.32,15.32,0,0,1,12-6C315.31,176.42,322.08,183.5,322.08,192.8Z"/><path class="cls-2" d="M374.38,192.8v26.74H361V195a6.44,6.44,0,0,0-6.66-6.66,6.8,6.8,0,0,0-7.08,6.66v24.52H333.7V177.26h13.52v5.18a15.32,15.32,0,0,1,12-6C367.62,176.42,374.38,183.5,374.38,192.8Z"/><path class="cls-2" d="M383,198.4c0-12.68,9.41-22,23.58-22s23.46,9.3,23.46,22-9.3,22-23.46,22S383,211.08,383,198.4Zm33.62,0a10,10,0,1,0-10,10A9.9,9.9,0,0,0,416.66,198.4Z"/><path class="cls-2" d="M479.64,177.26l-17.12,42.28H449.84l-16.91-42.28H447.3l9,27.8,8.88-27.8Z"/><path class="cls-2" d="M534.38,208.54v11a9,9,0,0,1-3.59.84,14.9,14.9,0,0,1-13-7.19,17.7,17.7,0,0,1-14.48,7.19c-11.73,0-20.92-9.72-20.92-22s9.19-22,20.92-22A17.53,17.53,0,0,1,515.36,181v-3.7h13.43v27.16c0,3.49,1.9,4.12,3.69,4.12ZM516,198.4a10,10,0,1,0-10,10A10,10,0,0,0,516,198.4Z"/><path class="cls-2" d="M557.63,187.72v15.12c0,3.49,2,5.7,4.86,5.7h5.07V219c-1,.74-3.91,1.37-6.76,1.37-9,0-16.59-7-16.59-16v-16.7h-7.09V177.26h7.09V161h13.42v16.27h10v10.46Z"/><path class="cls-2" d="M575.59,162.78a7.4,7.4,0,1,1,7.4,7.4A7.42,7.42,0,0,1,575.59,162.78Zm.64,14.48h13.42v42.28H576.23Z"/><path class="cls-2" d="M599.48,198.4c0-12.68,9.4-22,23.57-22s23.46,9.3,23.46,22-9.3,22-23.46,22S599.48,211.08,599.48,198.4Zm33.61,0a10,10,0,1,0-10,10A9.9,9.9,0,0,0,633.09,198.4Z"/><path class="cls-2" d="M696.81,192.8v26.74H683.39V195a6.44,6.44,0,0,0-6.66-6.66,6.8,6.8,0,0,0-7.08,6.66v24.52H656.12V177.26h13.53v5.18a15.32,15.32,0,0,1,12.05-6C690.05,176.42,696.81,183.5,696.81,192.8Z"/><path class="cls-2" d="M704.2,210.24l9.94-5a7.72,7.72,0,0,0,7.08,4.44c2.22,0,3.7-1,3.7-2.65,0-1.47-1.27-2.53-5.07-4-4.87-1.8-13.32-4.65-13.32-13.11,0-7.18,6.13-13.52,15.75-13.52a20.46,20.46,0,0,1,14.27,5.6l-6.77,7.61a8.79,8.79,0,0,0-6.55-3.07c-2.33,0-3.38,1.06-3.38,2.43,0,1.59,1.48,2.22,4.54,3.49,6,2.33,13,5.71,13,14.16,0,7.93-5.81,13.74-15.32,13.74C714.56,220.38,706.74,216.79,704.2,210.24Z"/><path class="cls-3" d="M237.69,84.86H166.05c1.17,12.2,8.19,19.7,21.77,19.7,10.3,0,17.09-4.07,19.67-10.92h28.79c-4.68,18.62-22,31.25-48,31.25-31.37,0-52.44-17.77-52.44-44.52s21.3-44.74,51.5-44.74,50.34,17.77,50.34,44.53ZM167.92,68.38h38.87c-3-7.49-8.9-11.77-19-11.77C177.29,56.61,171,61.1,167.92,68.38Z"/><path class="cls-3" d="M404.7,69v54.15H375V73.52C375,66,369.34,60,361.15,60c-9.13,0-13.34,7.27-13.34,13.48v49.66h-30V73.52C317.84,66,312.45,60,304.26,60c-9.13,0-13.34,7.27-13.34,13.48v49.66H261V37.56h30V48.05a32,32,0,0,1,25.51-12.2,30.3,30.3,0,0,1,26.69,15c5.86-9.42,16.16-15,29.5-15C393.23,35.85,404.7,49.12,404.7,69Z"/><path class="cls-3" d="M528.16,84.86H456.52c1.17,12.2,8.19,19.7,21.77,19.7,10.31,0,17.09-4.07,19.67-10.92h28.8c-4.69,18.62-22,31.25-48,31.25-31.37,0-52.44-17.77-52.44-44.52s21.3-44.74,51.51-44.74,50.33,17.77,50.33,44.53ZM458.39,68.38h38.87c-3.05-7.49-8.9-11.77-19-11.77C467.76,56.61,461.44,61.1,458.39,68.38Z"/><path class="cls-3" d="M585.6,58.75V89.36c0,7.06,4.45,11.56,10.77,11.56h11.24v21.19c-2.34,1.5-8.66,2.78-15,2.78-19.9,0-36.75-14.13-36.75-32.32V58.75H540.18V37.56h15.69V4.6H585.6v33h22.24V58.75Z"/><path class="cls-3" d="M737.39,100.92v22.26a21.58,21.58,0,0,1-8,1.71c-12.64,0-22.94-5.78-28.8-14.55-7.49,9-18.49,14.55-32.07,14.55-26,0-46.36-19.69-46.36-44.52s20.37-44.52,46.36-44.52c10.77,0,19.67,3.42,26.69,9.2V37.56H725v55c0,7.06,4.22,8.35,8.2,8.35ZM696.65,80.37C696.65,69,686.59,60,674.41,60c-12.4,0-22.24,9-22.24,20.33S662,100.7,674.41,100.7C686.59,100.7,696.65,91.71,696.65,80.37Z"/><path class="cls-3" d="M155.22,187.06c-11.56,0-22.71.31-33.84-.11-7.42-.28-13-4.69-17.7-10.17C97.4,169.48,93,161,88.59,152.56c-9-17.3-17.43-34.88-29.95-50.1-5.94-7.21-13-11-22.37-11.38-4.58-.15-5.78.94-5.74,5.43.19,22.71-.07,45.42.19,68.13.05,4.9-1.08,6.67-6.22,6.28a177.88,177.88,0,0,0-19.73,0C1.34,171,0,170.2,0,166.43Q.18,94.16,0,21.89c0-3.61,1.08-4.75,4.65-4.62,6.78.25,13.6.36,20.37,0,4.4-.24,5.76,1,5.69,5.55-.26,18,.19,36.08-.24,54.11-.15,5.91,1.75,7.11,7.15,6.83,8.68-.45,17.4.07,26.1-.17C74.24,83.28,82.6,87.46,89.58,95c5.81,6.28,10,13.63,14.24,21,1.46,2.57,2.75,5.25,4.12,7.88C127,160.52,127,160.52,155.22,187.06Z"/><path class="cls-2" d="M136.24.13C122,6.07,114.39,17.63,107.86,30.29c-3.74,7.27-7.74,14.4-11.52,21.64-6,11.58-15.94,17-28.58,17.4-12,.37-23.91.08-37,.08C36,65.07,42,64,46.17,60c7.52-7.14,12.33-16.11,17.48-24.86,3.5-5.94,6.95-11.92,10.13-18C79.56,6,89,.7,101,.23,112.75-.22,124.51.13,136.24.13Z"/><g class="cls-4"><path class="cls-5" d="M789.62,202.48a56.11,56.11,0,0,0-2.92,17.9H768a74.63,74.63,0,0,1,5.28-27.62A28.11,28.11,0,0,1,789.62,202.48Zm15.83-47a75.35,75.35,0,0,0-16.36,12.81,74.49,74.49,0,0,0-6.46,7.6A46.85,46.85,0,0,1,799,185.31,56.17,56.17,0,0,1,843,164.13V145.38A74.55,74.55,0,0,0,805.45,155.45Z"/><path class="cls-6" d="M805.45,192.3a46.54,46.54,0,0,0-9.37,28.08,28.19,28.19,0,0,0-22.85-27.62,28.64,28.64,0,0,0-5.28-.5V173.51a46.93,46.93,0,0,1,37.5,18.79Z"/><path class="cls-7" d="M843,173.51v18.75a28.54,28.54,0,0,0-5.27.5,75.22,75.22,0,0,0-9.41-16.9A46.63,46.63,0,0,1,843,173.51Zm-31.05,11.8a46,46,0,0,0-6.45,7,46.54,46.54,0,0,0-9.37,28.08h18.75a28,28,0,0,1,6.45-17.9A56.21,56.21,0,0,0,811.9,185.31Z"/><path class="cls-8" d="M843,220.38H824.2a56,56,0,0,0-12.3-35.07,57,57,0,0,0-6.45-6.82,56,56,0,0,1,16.36-10.23,73.24,73.24,0,0,1,6.46,7.6A74.62,74.62,0,0,1,843,220.38Zm-75-75v18.75a55.85,55.85,0,0,1,21.14,4.13,75.35,75.35,0,0,1,16.36-12.81A74.55,74.55,0,0,0,768,145.38Z"/></g></g></g></g></svg>