<svg width="379" height="89" viewBox="0 0 379 89" fill="none" xmlns="http://www.w3.org/2000/svg">
<path d="M165.923 60.7051H171.992V88.2893H165.923V60.7051Z" fill="#F7A41C"/>
<path d="M195.302 76.657V88.2893H189.464V77.6244C189.464 75.9691 188.269 74.7296 186.569 74.7296C184.868 74.7296 183.489 75.9729 183.489 77.6244V88.2893H177.604V69.8998H183.489V72.1522C184.777 70.5422 186.614 69.5332 188.73 69.5332C192.358 69.5332 195.302 72.6132 195.302 76.657Z" fill="#F7A41C"/>
<path d="M219.251 56.7972V88.2892L213.412 88.3345V86.6792C212.033 87.9226 210.287 88.6558 208.17 88.6558C203.069 88.6558 199.066 84.4268 199.066 79.0906C199.066 73.7544 203.065 69.5293 208.17 69.5293C210.287 69.5293 212.033 70.2625 213.412 71.5058V56.7935H219.251V56.7972ZM213.688 79.0944C213.688 76.6569 211.712 74.7257 209.319 74.7257C206.882 74.7257 204.951 76.6569 204.951 79.0944C204.951 81.532 206.882 83.4632 209.319 83.4632C211.712 83.4632 213.688 81.532 213.688 79.0944Z" fill="#F7A41C"/>
<path d="M224.259 81.2563V69.8999H230.143V80.4741C230.143 82.22 231.337 83.4596 232.902 83.4596C234.512 83.4596 235.706 82.22 235.706 80.4741V69.8999H241.545V81.2563C241.545 85.7611 238.465 88.6598 232.902 88.6598C227.343 88.6598 224.259 85.7611 224.259 81.2563Z" fill="#F7A41C"/>
<path d="M244.761 84.2457L249.08 82.084C249.908 83.6486 251.197 84.0152 252.16 84.0152C253.124 84.0152 253.77 83.5995 253.77 82.8663C253.77 82.2238 253.219 81.7628 251.563 81.1203C249.447 80.338 245.77 79.0984 245.77 75.4213C245.77 72.2959 248.438 69.5371 252.618 69.5371C255.195 69.5371 257.447 70.5953 258.823 71.9747L255.879 75.2853C255.327 74.5974 254.224 73.9512 253.03 73.9512C252.017 73.9512 251.559 74.4122 251.559 75.0094C251.559 75.701 252.202 75.9768 253.536 76.5286C256.155 77.5414 259.19 79.0115 259.19 82.6887C259.19 86.1353 256.661 88.6673 252.523 88.6673C249.269 88.6598 245.864 87.0952 244.761 84.2457Z" fill="#F7A41C"/>
<path d="M269.495 74.45V81.0257C269.495 82.545 270.368 83.5087 271.611 83.5087H273.818V88.0626C273.357 88.3838 272.118 88.6597 270.874 88.6597C266.967 88.6597 263.656 85.625 263.656 81.7173V74.4538H260.576V69.9036H263.656V62.8252H269.495V69.9036H273.864V74.4538H269.495V74.45Z" fill="#F7A41C"/>
<path d="M290.043 69.7146V74.911C289.631 74.8203 289.034 74.7258 288.342 74.7258C285.447 74.7258 283.376 76.4718 283.376 79.5065V88.2893H277.492V69.8998H283.376V72.428C284.571 70.6367 286.366 69.5332 288.524 69.5332C289.079 69.5332 289.631 69.5785 290.043 69.7146Z" fill="#F7A41C"/>
<path d="M292.477 63.5997C292.477 61.8084 293.947 60.3799 295.696 60.3799C297.446 60.3799 298.916 61.8046 298.916 63.5997C298.916 65.3457 297.446 66.8196 295.696 66.8196C293.95 66.8196 292.477 65.3495 292.477 63.5997ZM292.752 69.8996H298.591V88.2891H292.752V69.8996Z" fill="#F7A41C"/>
<path d="M322.868 80.0619H308.799C309.029 82.6809 310.408 84.2908 313.073 84.2908C315.098 84.2908 316.429 83.4179 316.935 81.9478H322.589C321.67 85.9461 318.269 88.6596 313.164 88.6596C307.003 88.6596 302.865 84.8426 302.865 79.0945C302.865 73.3463 307.049 69.4878 312.982 69.4878C318.912 69.4878 322.865 73.3048 322.865 79.0491V80.0619H322.868ZM309.165 76.5208H316.795C316.198 74.9109 315.049 73.9926 313.069 73.9926C311.006 73.9926 309.766 74.9563 309.165 76.5208Z" fill="#F7A41C"/>
<path d="M325.117 84.2457L329.437 82.084C330.264 83.6486 331.553 84.0152 332.517 84.0152C333.481 84.0152 334.127 83.5995 334.127 82.8663C334.127 82.2238 333.575 81.7628 331.92 81.1203C329.803 80.338 326.126 79.0984 326.126 75.4213C326.126 72.2959 328.794 69.5371 332.974 69.5371C335.552 69.5371 337.804 70.5953 339.18 71.9747L336.236 75.2853C335.684 74.5974 334.58 73.9512 333.386 73.9512C332.373 73.9512 331.916 74.4122 331.916 75.0094C331.916 75.701 332.558 75.9768 333.892 76.5286C336.511 77.5414 339.546 79.0115 339.546 82.6887C339.546 86.1353 337.018 88.6673 332.88 88.6673C329.626 88.6598 326.221 87.0952 325.117 84.2457Z" fill="#F7A41C"/>
<path d="M76.239 31.1668H53.5526C53.9229 35.0291 56.1489 37.4024 60.4496 37.4024C63.711 37.4024 65.8614 36.1137 66.6777 33.9445H75.7968C74.3154 39.8438 68.828 43.8384 60.5969 43.8384C50.6615 43.8384 43.9912 38.2112 43.9912 29.742C43.9912 21.2691 50.7371 15.5776 60.2984 15.5776C69.8597 15.5776 76.2352 21.2048 76.2352 29.674V31.1668H76.239ZM54.1497 25.9477H66.4547C65.491 23.5744 63.6392 22.2177 60.4496 22.2177C57.1126 22.2214 55.1133 23.6424 54.1497 25.9477Z" fill="#0046AD"/>
<path d="M129.102 26.1516V43.3016H119.688V27.5764C119.688 25.2031 117.908 23.3059 115.316 23.3059C112.425 23.3059 111.091 25.6112 111.091 27.5764V43.3016H101.597V27.5764C101.597 25.2031 99.893 23.3059 97.2967 23.3059C94.4056 23.3059 93.0716 25.6112 93.0716 27.5764V43.3016H83.582V16.1897H93.0716V19.5116C94.999 17.1383 97.7426 15.6455 101.151 15.6455C104.934 15.6455 107.897 17.5427 109.602 20.3922C111.454 17.4104 114.719 15.6455 118.944 15.6455C125.467 15.6455 129.102 19.848 129.102 26.1516Z" fill="#0046AD"/>
<path d="M148.822 22.8976V32.5912C148.822 34.8285 150.232 36.2533 152.231 36.2533H155.787V42.9651C155.046 43.4375 153.043 43.8456 151.044 43.8456C144.744 43.8456 139.404 39.3749 139.404 33.6116V22.9014H134.438V16.1896H139.404V5.75146H148.818V16.1896H155.866V22.9014H148.822V22.8976Z" fill="#0046AD"/>
<path d="M182.706 15.9179V23.5783C182.037 23.4422 181.074 23.3062 179.962 23.3062C175.291 23.3062 171.954 25.8836 171.954 30.3544V43.3019H162.465V16.19H171.954V19.92C173.882 17.2746 176.773 15.6496 180.257 15.6496C181.149 15.6458 182.037 15.7138 182.706 15.9179Z" fill="#0046AD"/>
<path d="M185.601 29.7456C185.601 21.6128 192.199 15.6455 202.131 15.6455C212.066 15.6455 218.589 21.6128 218.589 29.7456C218.589 37.8784 212.066 43.842 202.131 43.842C192.199 43.842 185.601 37.8784 185.601 29.7456ZM209.175 29.7456C209.175 26.0836 206.137 23.3739 202.131 23.3059C198.053 23.3739 195.09 26.0836 195.09 29.7456C195.09 33.4077 198.057 36.1173 202.131 36.1854C206.137 36.1136 209.175 33.4039 209.175 29.7456Z" fill="#0046AD"/>
<path d="M254.624 26.1516V43.3016H245.21V27.5764C245.21 25.135 243.283 23.3059 240.539 23.3059C237.796 23.3059 235.574 25.135 235.574 27.5764V43.3016H226.084V16.1897H235.574V19.5116C237.648 17.1383 240.615 15.6455 244.024 15.6455C249.878 15.6455 254.624 20.1881 254.624 26.1516Z" fill="#0046AD"/>
<path d="M263.226 6.90059C263.226 4.25516 265.599 2.15771 268.414 2.15771C271.23 2.15771 273.603 4.25894 273.603 6.90059C273.603 9.47799 271.23 11.6435 268.414 11.6435C265.599 11.6472 263.226 9.47799 263.226 6.90059ZM263.672 16.186H273.086V43.2979H263.672V16.186Z" fill="#0046AD"/>
<path d="M280.727 29.7456C280.727 21.6128 287.325 15.6455 297.257 15.6455C306.153 15.6455 312.234 20.3922 313.492 27.1682H303.708C302.744 24.8629 300.299 23.3739 297.257 23.3059C293.179 23.3739 290.216 26.0836 290.216 29.7456C290.216 33.4077 293.183 36.1173 297.257 36.1854C300.295 36.1173 302.744 34.6283 303.708 32.323H313.492C312.23 39.0991 306.153 43.8458 297.257 43.8458C287.325 43.842 280.727 37.8784 280.727 29.7456Z" fill="#0046AD"/>
<path d="M317.351 37.3341L324.319 34.1483C325.653 36.4536 327.728 36.994 329.285 36.994C330.842 36.994 331.882 36.3855 331.882 35.3009C331.882 34.3523 330.993 33.6759 328.322 32.7235C324.913 31.5709 318.979 29.7417 318.979 24.3186C318.979 19.7118 323.28 15.6416 330.026 15.6416C334.179 15.6416 337.811 17.2024 340.033 19.2356L335.29 24.1145C334.398 23.0979 332.622 22.1494 330.695 22.1494C329.062 22.1494 328.322 22.8296 328.322 23.7102C328.322 24.7268 329.361 25.1349 331.507 25.9474C335.733 27.4364 340.627 29.6057 340.627 35.0288C340.627 40.1118 336.549 43.8381 329.879 43.8381C324.618 43.8419 319.131 41.5366 317.351 37.3341Z" fill="#0046AD"/>
<path d="M50.8845 61.3321C47.1356 61.3321 43.5189 61.4304 39.9098 61.2981C37.5062 61.2074 35.6998 59.7751 34.1692 57.9989C32.1322 55.6331 30.7037 52.8894 29.2752 50.1419C26.3614 44.5336 23.6215 38.8308 19.5589 33.8952C17.6353 31.5559 15.3602 30.3126 12.3066 30.2067C10.8214 30.1538 10.4321 30.5129 10.4435 31.9678C10.5039 39.3335 10.4246 46.6991 10.5039 54.061C10.5228 55.6482 10.1563 56.2227 8.48586 56.0979C6.36573 55.9392 4.21916 56.0034 2.0877 56.0828C0.976621 56.1244 0.538237 55.8674 0.542016 54.6429C0.579808 39.0198 0.579812 23.3929 0.545799 7.76595C0.54202 6.59441 0.89726 6.22783 2.05369 6.2694C4.25317 6.34876 6.464 6.38277 8.65971 6.26562C10.0882 6.19003 10.5266 6.58685 10.5077 8.06451C10.4208 13.9147 10.5682 19.7686 10.4284 25.615C10.383 27.5311 10.999 27.9203 12.7488 27.8296C15.5643 27.6822 18.3911 27.8523 21.2142 27.773C24.6268 27.6785 27.3364 29.0314 29.6002 31.4841C31.486 33.5249 32.8578 35.9057 34.2145 38.298C34.6907 39.1332 35.1064 40.0024 35.5524 40.8527C41.7465 52.7231 41.7465 52.7231 50.8845 61.3321Z" fill="#0046AD"/>
<path d="M44.7323 0.710279C40.1104 2.63766 37.6426 6.3866 35.53 10.4908C34.3169 12.8452 33.0207 15.1581 31.7924 17.5087C29.8348 21.2615 26.6225 23.0263 22.5221 23.1511C18.6484 23.272 14.771 23.1775 10.5156 23.1775C12.2238 21.7679 14.155 21.4164 15.523 20.1202C17.9606 17.8035 19.5214 14.8935 21.1918 12.0554C22.3256 10.128 23.4442 8.19306 24.4759 6.21277C26.3504 2.62254 29.404 0.895457 33.3117 0.74429C37.1135 0.593123 40.9267 0.710279 44.7323 0.710279Z" fill="#F7A41C"/>
<path d="M358.839 82.0722C358.144 84.1394 357.766 86.3578 357.766 88.6593H350.869C350.869 85.0729 351.557 81.6489 352.808 78.5009C355.219 78.9544 357.335 80.2544 358.839 82.0722ZM364.663 64.7749C362.445 66.0636 360.419 67.6509 358.647 69.4875C357.793 70.3605 356.999 71.2978 356.273 72.2841C358.518 73.0249 360.563 74.2191 362.294 75.7572C363.012 74.8578 363.805 74.015 364.663 73.2478C366.42 71.6719 368.457 70.387 370.68 69.4875C373.079 68.5087 375.706 67.9683 378.457 67.9683V61.0713C373.435 61.0713 368.722 62.4205 364.663 64.7749Z" fill="url(#paint0_linear_257_2700)"/>
<path d="M364.663 78.3268C362.494 81.2066 361.217 84.7854 361.217 88.6591C361.217 86.161 360.325 83.8633 358.843 82.072C357.339 80.2542 355.223 78.9542 352.812 78.4969C352.184 78.3759 351.534 78.3117 350.873 78.3117V71.4185C352.755 71.4185 354.577 71.7208 356.274 72.2839C358.518 73.0246 360.563 74.2188 362.294 75.757C363.167 76.5279 363.964 77.3896 364.663 78.3268Z" fill="url(#paint1_linear_257_2700)"/>
<path d="M378.457 71.4185V78.3155C377.792 78.3155 377.142 78.3797 376.519 78.5006C375.631 76.2709 374.463 74.1848 373.057 72.2839C374.754 71.7208 376.572 71.4185 378.457 71.4185ZM367.033 75.757C366.156 76.5279 365.359 77.3896 364.663 78.3268C362.494 81.2066 361.217 84.7854 361.217 88.6591H368.114C368.114 86.161 369.006 83.8633 370.487 82.072C369.705 79.7553 368.53 77.6239 367.033 75.757Z" fill="url(#paint2_linear_257_2700)"/>
<path d="M378.457 88.6593H371.56C371.56 86.3578 371.182 84.1432 370.487 82.0722C369.708 79.7556 368.529 77.6241 367.036 75.7572C366.318 74.8578 365.525 74.015 364.667 73.2478C366.424 71.6719 368.461 70.387 370.683 69.4875C371.538 70.3605 372.331 71.2978 373.057 72.2841C374.463 74.1851 375.63 76.2712 376.518 78.5009C377.766 81.6452 378.457 85.0729 378.457 88.6593ZM350.869 61.0713V67.9683C353.62 67.9683 356.243 68.5087 358.643 69.4875C360.415 67.6509 362.441 66.0636 364.659 64.7749C360.604 62.4205 355.892 61.0713 350.869 61.0713Z" fill="url(#paint3_linear_257_2700)"/>
<defs>
<linearGradient id="paint0_linear_257_2700" x1="378.455" y1="74.8652" x2="350.87" y2="74.8652" gradientUnits="userSpaceOnUse">
<stop stop-color="#2E2E30" stop-opacity="0.07"/>
<stop offset="1" stop-color="#2E2E30" stop-opacity="0.3"/>
</linearGradient>
<linearGradient id="paint1_linear_257_2700" x1="350.929" y1="71.3587" x2="364.721" y2="85.1513" gradientUnits="userSpaceOnUse">
<stop stop-color="#2E2E30" stop-opacity="0.21"/>
<stop offset="1" stop-color="#2E2E30" stop-opacity="0.3"/>
</linearGradient>
<linearGradient id="paint2_linear_257_2700" x1="369.835" y1="71.4169" x2="369.835" y2="88.6574" gradientUnits="userSpaceOnUse">
<stop stop-color="#2E2E30" stop-opacity="0.07"/>
<stop offset="1" stop-color="#2E2E30" stop-opacity="0.3"/>
</linearGradient>
<linearGradient id="paint3_linear_257_2700" x1="355.346" y1="58.4886" x2="374.187" y2="91.1221" gradientUnits="userSpaceOnUse">
<stop stop-color="#2E2E30" stop-opacity="0.21"/>
<stop offset="1" stop-color="#2E2E30" stop-opacity="0.3"/>
</linearGradient>
</defs>
</svg>
