<svg xmlns="http://www.w3.org/2000/svg" xmlns:xlink="http://www.w3.org/1999/xlink" viewBox="0 0 829.69 220.38"><defs><style>.cls-1{isolation:isolate;}.cls-2{fill:#2c3a8f;}.cls-3{fill:#f7a41d;}.cls-4{mix-blend-mode:multiply;}.cls-5{fill:url(#linear-gradient);}.cls-6{fill:url(#linear-gradient-2);}.cls-7{fill:url(#linear-gradient-3);}.cls-8{fill:url(#linear-gradient-4);}</style><linearGradient id="linear-gradient" x1="829.69" y1="182.88" x2="754.69" y2="182.88" gradientUnits="userSpaceOnUse"><stop offset="0" stop-color="#2e2e30" stop-opacity="0.07"/><stop offset="0.58" stop-color="#2e2e30" stop-opacity="0.28"/><stop offset="1" stop-color="#2e2e30" stop-opacity="0.5"/></linearGradient><linearGradient id="linear-gradient-2" x1="754.85" y1="173.35" x2="792.35" y2="210.85" gradientUnits="userSpaceOnUse"><stop offset="0" stop-color="#2e2e30" stop-opacity="0.21"/><stop offset="0.78" stop-color="#2e2e30" stop-opacity="0.42"/><stop offset="1" stop-color="#2e2e30" stop-opacity="0.5"/></linearGradient><linearGradient id="linear-gradient-3" x1="806.25" y1="173.51" x2="806.25" y2="220.38" xlink:href="#linear-gradient"/><linearGradient id="linear-gradient-4" x1="766.86" y1="138.36" x2="818.09" y2="227.08" xlink:href="#linear-gradient-2"/></defs><g class="cls-1"><g id="Layer_2" data-name="Layer 2"><g id="Layer_1-2" data-name="Layer 1"><path class="cls-2" d="M231.46,90.14H164.67c1.09,11.37,7.64,18.36,20.3,18.36,9.6,0,15.93-3.8,18.33-10.18h26.85c-4.36,17.36-20.52,29.14-44.74,29.14-29.25,0-48.9-16.57-48.9-41.52s19.87-41.71,48-41.71,46.93,16.57,46.93,41.52Zm-65-15.37h36.23c-2.84-7-8.29-11-17.68-11C175.15,63.79,169.25,68,166.42,74.77Z"/><path class="cls-2" d="M387.18,75.37v50.49H359.46V79.56c0-7-5.24-12.57-12.88-12.57-8.51,0-12.44,6.78-12.44,12.57v46.3H306.2V79.56A12.19,12.19,0,0,0,293.54,67C285,67,281.1,73.77,281.1,79.56v46.3H253.16V46H281.1v9.78a29.85,29.85,0,0,1,23.79-11.38,28.26,28.26,0,0,1,24.88,14c5.46-8.78,15.06-14,27.51-14C376.48,44.43,387.18,56.81,387.18,75.37Z"/><path class="cls-2" d="M445.33,65.79V94.33c0,6.58,4.15,10.77,10,10.77h10.48v19.76c-2.19,1.4-8.08,2.6-14,2.6-18.56,0-34.27-13.18-34.27-30.14V65.79H403V46h14.63V15.3h27.72V46h20.73V65.79Z"/><path class="cls-2" d="M484.71,18.69c0-7.78,7-14,15.27-14s15.28,6.19,15.28,14c0,7.58-7,14-15.28,14S484.71,26.27,484.71,18.69ZM486,46h27.73v79.83H486Z"/><path class="cls-2" d="M575.16,104.7h35.36v21.16h-76.4l36.46-58.67H538.71V46h73.12Z"/><path class="cls-2" d="M718.87,90.14H652.08c1.09,11.37,7.64,18.36,20.3,18.36,9.6,0,15.93-3.8,18.33-10.18h26.85c-4.36,17.36-20.52,29.14-44.75,29.14-29.25,0-48.89-16.57-48.89-41.52s19.86-41.71,48-41.71,46.93,16.57,46.93,41.52Zm-65-15.37h36.24c-2.84-7-8.3-11-17.68-11C662.55,63.79,656.66,68,653.82,74.77Z"/><path class="cls-2" d="M155.22,187.06c-11.56,0-22.71.31-33.84-.11-7.42-.28-13-4.69-17.7-10.17C97.4,169.48,93,161,88.59,152.56c-9-17.3-17.43-34.88-29.95-50.1-5.94-7.21-13-11-22.37-11.38-4.58-.16-5.78.94-5.74,5.43.19,22.71-.07,45.42.19,68.13.05,4.9-1.08,6.67-6.22,6.28a177.88,177.88,0,0,0-19.73,0C1.34,171,0,170.2,0,166.43Q.18,94.16,0,21.89c0-3.61,1.08-4.75,4.65-4.62,6.78.25,13.6.36,20.37,0,4.4-.24,5.76,1,5.69,5.55-.26,18,.19,36.08-.24,54.11-.15,5.91,1.75,7.11,7.15,6.83,8.68-.45,17.4.07,26.1-.17C74.24,83.28,82.6,87.46,89.58,95c5.81,6.28,10,13.63,14.24,21,1.46,2.57,2.75,5.25,4.12,7.88C127,160.52,127,160.52,155.22,187.06Z"/><path class="cls-3" d="M136.24.13C122,6.07,114.39,17.63,107.86,30.29c-3.74,7.27-7.74,14.4-11.52,21.64-6,11.58-15.94,17-28.58,17.4-12,.37-23.91.08-37,.08C36,65.07,42,64,46.17,60c7.52-7.14,12.33-16.11,17.48-24.86,3.49-5.94,6.95-11.92,10.13-18C79.56,6,89,.7,101,.23,112.75-.22,124.5.13,136.24.13Z"/><path class="cls-3" d="M373.61,175.76c0,10.56-8.15,18.4-18.7,18.4H342.06v25.39h-13.8v-62.7h26.65A18.66,18.66,0,0,1,373.61,175.76Zm-13.16.11c0-4.08-3.35-6.9-7.74-6.9H342.06v13.8h10.65C357.1,182.77,360.45,180.05,360.45,175.87Z"/><path class="cls-3" d="M380.2,148h13.37v71.58H380.2Z"/><path class="cls-3" d="M454.39,208.68v10.87a8.84,8.84,0,0,1-3.55.83,14.77,14.77,0,0,1-12.86-7.1,17.5,17.5,0,0,1-14.31,7.1c-11.6,0-20.69-9.61-20.69-21.73s9.09-21.74,20.69-21.74a17.33,17.33,0,0,1,11.91,4.5v-3.66h13.27V204.6c0,3.45,1.88,4.08,3.66,4.08Zm-18.18-10a9.93,9.93,0,1,0-9.93,9.93A9.93,9.93,0,0,0,436.21,198.65Z"/><path class="cls-3" d="M477.38,188.09V203c0,3.45,2,5.64,4.8,5.64h5V219c-1,.73-3.87,1.35-6.69,1.35-8.88,0-16.4-6.89-16.4-15.78V188.09h-7V177.75h7V161.66h13.27v16.09h9.92v10.34Z"/><path class="cls-3" d="M520.85,188.09h-9.93v31.46H497.55V188.09h-7V177.75h7V163.64c0-8.88,7.52-15.67,16.4-15.67,2.82,0,5.64.52,6.69,1.25v10.45h-5c-2.82,0-4.7,2.09-4.7,5.54v12.54h9.93Z"/><path class="cls-3" d="M524.09,198.65c0-12.54,9.3-21.74,23.3-21.74s23.2,9.2,23.2,21.74-9.2,21.73-23.2,21.73S524.09,211.19,524.09,198.65Zm33.23,0a9.93,9.93,0,1,0-9.93,9.93A9.8,9.8,0,0,0,557.32,198.65Z"/><path class="cls-3" d="M608.63,177.33v11.81a18.06,18.06,0,0,0-3.87-.42c-6.58,0-11.29,4-11.29,10.87v20H580.1v-41.8h13.37v5.75a13.87,13.87,0,0,1,11.71-6.59A11.69,11.69,0,0,1,608.63,177.33Z"/><path class="cls-3" d="M678.74,193.11v26.44H665.47V195.31c0-3.66-2.51-6.59-6.16-6.59-4.08,0-6,3.55-6,6.59v24.24H640V195.31c0-3.66-2.4-6.59-6.06-6.59-4.07,0-5.95,3.55-5.95,6.59v24.24H614.58v-41.8H628v5.12a13.85,13.85,0,0,1,11.39-6,13.34,13.34,0,0,1,11.91,7.32c2.61-4.6,7.21-7.32,13.17-7.32C673.62,176.91,678.74,183.39,678.74,193.11Z"/><path class="cls-3" d="M686.06,210.35l9.82-4.91a7.64,7.64,0,0,0,7,4.39c2.2,0,3.66-.94,3.66-2.61,0-1.47-1.25-2.51-5-4-4.8-1.78-13.16-4.6-13.16-13,0-7.11,6.06-13.38,15.57-13.38a20.22,20.22,0,0,1,14.1,5.54L711.35,190a8.72,8.72,0,0,0-6.48-3c-2.3,0-3.35,1-3.35,2.4,0,1.57,1.47,2.19,4.5,3.45,6,2.3,12.85,5.64,12.85,14,0,7.84-5.75,13.58-15.15,13.58C696.3,220.38,688.57,216.83,686.06,210.35Z"/><g class="cls-4"><path class="cls-5" d="M776.36,202.48a56.11,56.11,0,0,0-2.92,17.9H754.69A74.83,74.83,0,0,1,760,192.76,28.1,28.1,0,0,1,776.36,202.48Zm15.83-47a75.35,75.35,0,0,0-16.36,12.81,74.49,74.49,0,0,0-6.46,7.6,46.85,46.85,0,0,1,16.38,9.45,56.17,56.17,0,0,1,43.94-21.18V145.38A74.55,74.55,0,0,0,792.19,155.45Z"/><path class="cls-6" d="M792.19,192.3a46.54,46.54,0,0,0-9.37,28.08A28.18,28.18,0,0,0,760,192.76a28.45,28.45,0,0,0-5.27-.5V173.51a46.93,46.93,0,0,1,37.5,18.79Z"/><path class="cls-7" d="M829.69,173.51v18.75a28.54,28.54,0,0,0-5.27.5,75.62,75.62,0,0,0-9.41-16.9A46.63,46.63,0,0,1,829.69,173.51Zm-31.05,11.8a46,46,0,0,0-6.45,7,46.54,46.54,0,0,0-9.37,28.08h18.75a28,28,0,0,1,6.45-17.9A56.21,56.21,0,0,0,798.64,185.31Z"/><path class="cls-8" d="M829.69,220.38H810.94a56,56,0,0,0-12.3-35.07,57,57,0,0,0-6.45-6.82,56,56,0,0,1,16.36-10.23,73.24,73.24,0,0,1,6.46,7.6,75.62,75.62,0,0,1,9.41,16.9A74.83,74.83,0,0,1,829.69,220.38Zm-75-75v18.75a55.85,55.85,0,0,1,21.14,4.13,75.35,75.35,0,0,1,16.36-12.81A74.55,74.55,0,0,0,754.69,145.38Z"/></g></g></g></g></svg>