<svg width="80" height="80" viewBox="0 0 80 80" fill="none" xmlns="http://www.w3.org/2000/svg">
<path d="M53.9653 4L52.1443 5.99345C48.0666 10.4766 44.7051 12.4812 41.907 13.7926C39.109 15.1012 36.7578 15.4922 34.4483 17.2583C31.9861 19.1436 28.408 22.759 26.9008 29.2134C23.6697 29.9177 21.3046 31.1542 19.4393 32.7651C17.5961 34.3565 16.2082 36.167 14.4983 38.1382C14.4844 38.1604 14.5066 38.202 14.4983 38.2242C12.0444 41.0411 9.89868 44.0742 5.73491 45.6768L4 46.3699V76H56.916C59.95 75.8364 62.0541 73.7376 63.3338 71.6665C64.6107 69.5982 65.3185 67.358 65.6766 65.517C66.5982 60.8259 68.2776 47.3209 68.2776 47.3209L68.3664 47.063V46.8024C68.2776 44.9282 67.5059 43.3368 66.5427 41.8618L69.6655 32.5932L74.6121 25.1406L76 23.1471L74.1763 21.503L55.9611 5.73284L53.9653 4ZM54.1402 11.6245L68.6246 24.1896L64.8078 29.8179L64.5496 30.0812L64.4608 30.5138L61.9459 37.9636C60.6329 37.4229 59.2811 37.0431 57.7821 37.0985H57.6072L40.0861 37.1845H37.3102V47.9281C36.9216 50.9501 35.2394 52.1201 33.1464 52.9547C32.4525 53.2347 32.3664 53.0822 31.7585 53.2125V37.1013C31.3033 26.8235 34.9674 23.8652 37.8321 21.6777C38.6232 21.0705 40.941 20.3691 44.2498 18.8192C47.0146 17.5189 50.4511 15.19 54.1402 11.6272V11.6245ZM26.3817 35.4517C26.3706 36.081 26.1735 36.5246 26.2068 37.1845V59.3648H28.9827C28.9827 59.3648 31.9528 59.3315 35.1423 58.0645C38.3289 56.7974 42.179 53.8308 42.8619 48.6212V42.7296L57.7821 42.6436H57.8681C59.0867 42.577 60.282 42.9953 61.1925 43.8069C62.1029 44.6186 62.6543 45.7575 62.7259 46.9743C62.7148 47.0187 62.5871 48.0473 62.5538 48.2746H51.1894V53.8197H61.8598C61.5656 55.9629 61.2963 57.3076 60.991 59.3648H51.1894V64.9099H60.1249C59.7969 66.2512 59.2701 67.5361 58.5621 68.7221C57.8043 69.9559 57.152 70.4217 56.569 70.4549H9.5517V49.7469C14.0514 47.3625 16.8494 43.9328 18.6593 41.8645C20.5357 39.7186 21.8237 38.0939 23.084 37.0126C23.9084 36.3084 25.1992 35.9063 26.3817 35.4517Z" fill="#EDA122"/>
</svg>
