<svg width="80" height="80" viewBox="0 0 80 80" fill="none" xmlns="http://www.w3.org/2000/svg">
<path d="M4 48L14.9372 58.9372L16.4997 57.3748C18.3606 55.5139 20.8887 55.5139 22.7495 57.3748C24.6104 59.2357 24.6104 61.7637 22.7495 63.6246L21.1871 65.1871L32.1243 76.1243L75.8733 32.3754L64.936 21.4381L63.3736 23.0006C61.5127 24.8615 58.9846 24.8615 57.1237 23.0006C55.2628 21.1397 55.2628 18.6117 57.1237 16.7508L58.6862 15.1883L47.7489 4.25106L4 48ZM10.2498 48L47.7489 10.5009L52.7301 15.482C50.752 18.8632 51.1004 23.2272 53.9988 26.1255C56.8972 29.0239 61.2611 29.3723 64.6438 27.3958L69.6234 32.3754L32.1243 69.8745L27.1432 64.8933C29.1213 61.5122 28.7728 57.1482 25.8745 54.2498C22.9761 51.3515 18.6121 51.0031 15.2294 52.9796L10.2498 48Z" fill="#EDA122"/>
</svg>
