<svg xmlns="http://www.w3.org/2000/svg" viewBox="0 0 31.5 31.5"><defs><style>.cls-1{fill:#fff;}</style></defs><g id="Layer_2" data-name="Layer 2"><g id="Layer_1-2" data-name="Layer 1"><path class="cls-1" d="M21.8,31.5H9.7A9.71,9.71,0,0,1,0,21.8V9.7A9.71,9.71,0,0,1,9.7,0H21.8a9.71,9.71,0,0,1,9.7,9.7V21.8A9.71,9.71,0,0,1,21.8,31.5ZM9.7,1.5A8.21,8.21,0,0,0,1.5,9.7V21.8A8.21,8.21,0,0,0,9.7,30H21.8A8.21,8.21,0,0,0,30,21.8V9.7a8.21,8.21,0,0,0-8.2-8.2Z"/><path class="cls-1" d="M24.38,17.62v6.1a.28.28,0,0,1-.27.28H21a.28.28,0,0,1-.27-.28V18.05c0-1.5-.54-2.52-1.88-2.52a2,2,0,0,0-1.89,1.35,2.51,2.51,0,0,0-.12.91v5.93a.29.29,0,0,1-.28.28H13.37a.28.28,0,0,1-.27-.28c0-1.51,0-8.84,0-10.57a.26.26,0,0,1,.27-.27h3.14a.28.28,0,0,1,.28.27v1.3l0,0h0v0a3.67,3.67,0,0,1,3.33-1.84c2.43,0,4.25,1.59,4.25,5ZM7.63,24h3.15a.28.28,0,0,0,.27-.28V13.15a.27.27,0,0,0-.27-.27H7.63a.27.27,0,0,0-.27.27V23.72A.28.28,0,0,0,7.63,24Z"/><circle class="cls-1" cx="9.1" cy="9.48" r="1.98"/></g></g></svg>