<svg width="36" height="36" viewBox="0 0 36 36" fill="none" xmlns="http://www.w3.org/2000/svg">
<path d="M30.6737 30.6742H25.3396V22.3206C25.3396 20.3287 25.3041 17.7644 22.5654 17.7644C19.7872 17.7644 19.3621 19.9348 19.3621 22.1757V30.6736H14.0282V13.4954H19.1488V15.843H19.2205C19.7329 14.9668 20.4735 14.246 21.3632 13.7573C22.2529 13.2686 23.2585 13.0304 24.2729 13.0681C29.6792 13.0681 30.6759 16.6242 30.6759 21.2505L30.6737 30.6742ZM8.00944 11.1474C6.29986 11.1477 4.91372 9.76199 4.91344 8.05241C4.91316 6.34284 6.29873 4.9567 8.00831 4.95642C9.71789 4.95599 11.104 6.34171 11.1043 8.05129C11.1045 8.87226 10.7785 9.65967 10.1981 10.2403C9.61769 10.8209 8.83041 11.1472 8.00944 11.1474ZM10.6765 30.6743H5.33686V13.4954H10.6764V30.6742L10.6765 30.6743ZM33.3329 0.00262011H2.65655C1.2067 -0.0136924 0.0177188 1.14773 0 2.59757V33.4019C0.0171563 34.8524 1.206 36.015 2.65641 35.9998H33.3329C34.7864 36.0178 35.9799 34.8552 36 33.4019V2.59518C35.9793 1.14253 34.7857 -0.0187549 33.3329 0.000229485" fill="#0A66C2"/>
</svg>
