<svg width="16" height="16" viewBox="0 0 16 16" fill="none" xmlns="http://www.w3.org/2000/svg">
<path d="M13.0004 13.2809H10.7779V9.80027C10.7779 8.97029 10.7631 7.90183 9.62197 7.90183C8.4644 7.90183 8.28727 8.80617 8.28727 9.73986V13.2807H6.0648V6.1231H8.19838V7.10127H8.22826C8.44178 6.73617 8.75033 6.43582 9.12105 6.23221C9.49176 6.0286 9.91076 5.92935 10.3334 5.94504C12.5861 5.94504 13.0014 7.42675 13.0014 9.35437L13.0004 13.2809V13.2809ZM3.55699 5.14476C2.84467 5.14488 2.26711 4.5675 2.26699 3.85517C2.26687 3.14285 2.8442 2.56529 3.55652 2.56517C4.26885 2.565 4.84641 3.14238 4.84652 3.8547C4.84659 4.19678 4.71076 4.52486 4.46893 4.76679C4.2271 5.00873 3.89906 5.14468 3.55699 5.14476M4.66828 13.281H2.44342V6.1231H4.66822V13.2809L4.66828 13.281ZM14.1084 0.501092H1.32662C0.722519 0.494295 0.227109 0.97822 0.219727 1.58232V14.4175C0.226875 15.0218 0.722227 15.5062 1.32656 15.4999H14.1084C14.7141 15.5074 15.2113 15.023 15.2197 14.4175V1.58133C15.2111 0.976052 14.7138 0.492185 14.1084 0.500096" fill="#FBFBFB"/>
</svg>
