<svg width="233" height="315" viewBox="0 0 233 315" fill="none" xmlns="http://www.w3.org/2000/svg">
<path d="M116.397 0C52.216 0 0 52.215 0 116.397C0 178.535 106.113 306.863 110.63 312.295C112.055 314.008 114.168 315 116.397 315C118.625 315 120.739 314.009 122.164 312.295C126.682 306.862 232.794 178.535 232.794 116.397C232.794 52.215 180.579 0 116.397 0ZM116.397 295.598C106.988 283.849 87.439 258.817 68.094 230.201C33.36 178.822 15 139.469 15 116.397C15 60.486 60.487 15 116.397 15C172.307 15 217.794 60.486 217.794 116.397C217.794 139.468 199.435 178.821 164.7 230.201C145.354 258.817 125.806 283.849 116.397 295.598Z" fill="#FBFBFB"/>
<path d="M154.554 213.956C151.122 211.637 146.459 212.541 144.141 215.973C134.02 230.955 122.682 246.657 110.442 262.643C107.924 265.932 108.548 270.639 111.837 273.157C113.197 274.199 114.8 274.703 116.391 274.703C118.645 274.703 120.875 273.69 122.351 271.762C134.771 255.542 146.284 239.597 156.57 224.37C158.889 220.938 157.987 216.275 154.554 213.956Z" fill="#FBFBFB"/>
<path d="M116.396 57.5C82.4855 57.5 54.8965 85.089 54.8965 119C54.8965 152.911 82.4855 180.5 116.396 180.5C150.307 180.5 177.896 152.911 177.896 119C177.896 85.089 150.307 57.5 116.396 57.5ZM116.396 165.5C90.7565 165.5 69.8965 144.64 69.8965 119C69.8965 93.36 90.7565 72.5 116.396 72.5C142.037 72.5 162.896 93.36 162.896 119C162.896 144.64 142.037 165.5 116.396 165.5Z" fill="#FBFBFB"/>
</svg>
