<svg width="32" height="32" viewBox="0 0 32 32" fill="none" xmlns="http://www.w3.org/2000/svg">
<path d="M21.8 31.5H9.7C7.12821 31.4974 4.66252 30.4745 2.84399 28.656C1.02546 26.8375 0.00264724 24.3718 0 21.8L0 9.7C0.00264724 7.12821 1.02546 4.66252 2.84399 2.84399C4.66252 1.02546 7.12821 0.00264724 9.7 0L21.8 0C24.3718 0.00264724 26.8375 1.02546 28.656 2.84399C30.4745 4.66252 31.4974 7.12821 31.5 9.7V21.8C31.4974 24.3718 30.4745 26.8375 28.656 28.656C26.8375 30.4745 24.3718 31.4974 21.8 31.5ZM9.7 1.5C7.52604 1.50265 5.44187 2.36742 3.90465 3.90465C2.36742 5.44187 1.50265 7.52604 1.5 9.7V21.8C1.50265 23.974 2.36742 26.0581 3.90465 27.5954C5.44187 29.1326 7.52604 29.9974 9.7 30H21.8C23.974 29.9974 26.0581 29.1326 27.5954 27.5954C29.1326 26.0581 29.9974 23.974 30 21.8V9.7C29.9974 7.52604 29.1326 5.44187 27.5954 3.90465C26.0581 2.36742 23.974 1.50265 21.8 1.5H9.7Z" fill="white"/>
<path d="M15.9929 5C11.5856 5 8 8.481 8 12.7598C8 16.9023 15.2867 25.4575 15.5969 25.8197C15.6948 25.9339 15.8399 26 15.9929 26C16.1459 26 16.2911 25.9339 16.3889 25.8197C16.6992 25.4575 23.9859 16.9023 23.9859 12.7598C23.9859 8.481 20.4003 5 15.9929 5ZM15.9929 24.7065C15.3468 23.9233 14.0044 22.2545 12.676 20.3467C10.2908 16.9215 9.03004 14.2979 9.03004 12.7598C9.03004 9.0324 12.1536 6 15.9929 6C19.8322 6 22.9558 9.0324 22.9558 12.7598C22.9558 14.2979 21.6951 16.9214 19.3099 20.3467C17.9814 22.2545 16.639 23.9233 15.9929 24.7065Z" fill="#FBFBFB"/>
<path d="M18.6128 19.2635C18.3772 19.1089 18.0569 19.1691 17.8978 19.3979C17.2028 20.3967 16.4242 21.4435 15.5837 22.5093C15.4108 22.7285 15.4536 23.0423 15.6795 23.2102C15.7729 23.2797 15.8829 23.3133 15.9922 23.3133C16.147 23.3133 16.3001 23.2457 16.4015 23.1172C17.2543 22.0359 18.0449 20.9729 18.7513 19.9577C18.9105 19.7289 18.8486 19.4181 18.6128 19.2635Z" fill="#FBFBFB"/>
<path d="M15.9927 8.83301C13.6641 8.83301 11.7695 10.6723 11.7695 12.933C11.7695 15.1937 13.6641 17.033 15.9927 17.033C18.3213 17.033 20.2158 15.1937 20.2158 12.933C20.2158 10.6723 18.3213 8.83301 15.9927 8.83301ZM15.9927 16.033C14.232 16.033 12.7996 14.6423 12.7996 12.933C12.7996 11.2237 14.232 9.83301 15.9927 9.83301C17.7534 9.83301 19.1858 11.2237 19.1858 12.933C19.1858 14.6423 17.7534 16.033 15.9927 16.033Z" fill="#FBFBFB"/>
</svg>
