<svg width="474" height="291" viewBox="0 0 474 291" fill="none" xmlns="http://www.w3.org/2000/svg">
<path opacity="0.3" d="M96.0258 15.0916C46.9681 26.7934 8.21315 54.0497 1.99965 104.132C-3.23125 146.323 8.84895 218.034 92.0954 225.667C260.38 241.092 439.661 256.545 463.908 183.823C480.352 134.52 485.771 46.3013 394.953 19.1894C333.353 0.778064 201.178 -9.97148 96.0258 15.0916Z" fill="#D0D5DD"/>
<path opacity="0.45" d="M241.884 290.626C367.657 290.626 469.616 281.905 469.616 271.147C469.616 260.389 367.657 251.668 241.884 251.668C116.111 251.668 14.1521 260.389 14.1521 271.147C14.1521 281.905 116.111 290.626 241.884 290.626Z" fill="#D0D5DD"/>
<path d="M209.545 165.571C210.823 165.945 212.194 165.826 213.389 165.239C214.582 164.771 215.63 163.994 216.423 162.988C217.215 161.967 217.573 160.677 217.42 159.395C217.403 159.11 217.321 158.831 217.181 158.582C217.041 158.332 216.846 158.117 216.611 157.952C216.235 157.736 215.744 157.722 215.383 157.491C215.02 157.175 214.721 156.793 214.501 156.365C214.156 155.927 213.718 155.57 213.218 155.32C212.719 155.071 212.17 154.935 211.611 154.922C210.477 154.91 209.355 155.156 208.331 155.644C207.591 155.891 206.914 156.299 206.349 156.838C205.785 157.376 205.346 158.033 205.065 158.76C204.926 159.586 205.029 160.434 205.362 161.203C205.696 161.971 206.245 162.626 206.944 163.089C208.387 163.988 209.992 164.596 211.669 164.878" fill="#24285B"/>
<path d="M180.775 155.11C181.271 154.576 181.894 154.176 182.586 153.946C183.278 153.717 184.017 153.665 184.734 153.796C185.203 153.935 185.691 153.994 186.179 153.97C186.564 153.864 186.933 153.709 187.278 153.508C189.156 152.642 191.353 153.421 193.274 154.215C193.908 154.532 194.603 154.709 195.312 154.734C195.909 154.684 196.495 154.538 197.046 154.302C198.361 153.843 199.715 153.505 201.092 153.291C201.421 153.204 201.765 153.183 202.102 153.23C202.44 153.278 202.764 153.392 203.057 153.566C203.326 153.817 203.577 154.087 203.808 154.374C204.36 154.825 205.034 155.102 205.745 155.167C207.217 155.228 208.638 155.731 209.82 156.61C210.195 156.985 210.47 157.447 210.831 157.808C211.192 158.168 211.554 158.399 211.872 158.746C212.248 159.319 212.507 159.96 212.634 160.634C212.76 161.308 212.752 162 212.608 162.67C212.603 163.065 212.499 163.452 212.305 163.796C211.892 164.237 211.32 164.496 210.716 164.517L202.797 165.787C197.537 166.624 192.277 167.475 186.974 168.11C184.294 168.535 181.57 168.622 178.868 168.37C175.978 167.995 175.197 166.768 174.952 164.041C174.562 159.842 178.348 157.736 180.775 155.11Z" fill="#D0D5DD"/>
<path d="M219.92 159.438H173.29V179.336H219.92V159.438Z" fill="#FFD200"/>
<path d="M134.405 157.043L138.191 147.477L146.557 126.31L155.054 104.767C157.25 99.2411 159.476 93.9601 162.178 88.6503C162.978 86.87 164.029 85.2131 165.299 83.73C165.937 82.989 166.726 82.3921 167.613 81.9791C168.5 81.5661 169.465 81.3465 170.443 81.3348C170.693 81.319 170.942 81.3849 171.151 81.5224C171.312 81.6668 171.432 81.8509 171.498 82.0563C172.333 84.3441 172.399 86.8411 171.686 89.1697C171.171 90.9242 170.533 92.6406 169.779 94.3064C169.264 95.617 168.957 96.9994 168.868 98.4042C168.868 98.5774 168.796 98.8948 168.767 99.0968L168.03 104.017L165.14 123.078L161.86 145.067C161.176 149.656 160.492 154.235 159.808 158.804C159.808 159.006 161.253 151.431 159.693 159.655C158.132 167.879 143.696 182.395 134.405 157.043Z" fill="#F4A28C"/>
<path d="M215.238 210.43C215.238 210.43 227.911 222.348 211.496 221.872C195.081 221.396 201.121 208.641 215.238 210.43Z" fill="#0046AD"/>
<path d="M120.634 76.3564C120.634 76.3564 145.199 94.6956 133.639 101.766C122.079 108.836 113.135 74.6538 113.135 74.6538L120.634 76.3564Z" fill="#24285B"/>
<path d="M120.519 60.7301C120.519 60.7301 122.368 68.4928 121.805 73.9325C121.751 74.4586 121.593 74.9688 121.34 75.4334C121.087 75.8981 120.745 76.3081 120.332 76.6395C119.919 76.971 119.445 77.2175 118.936 77.3646C118.428 77.5117 117.895 77.5565 117.369 77.4965C115.664 77.4149 114.019 76.8449 112.63 75.8547C111.241 74.8645 110.167 73.4959 109.537 71.9125L106.155 65.3473C105.625 63.9625 105.534 62.448 105.896 61.0099C106.258 59.5718 107.055 58.2801 108.178 57.3104C112.167 53.4579 119.637 55.9252 120.519 60.7301Z" fill="#F4A28C"/>
<path d="M106.82 69.4165L109.277 95.4751L123.568 93.0944L116.039 75.0871L106.82 69.4165Z" fill="#F4A28C"/>
<path d="M113.106 68.7236C113.106 68.7236 112.6 65.6935 110.346 66.2562C108.091 66.8189 108.799 71.2198 111.964 71.1765L113.106 68.7236Z" fill="#F4A28C"/>
<path d="M121.4 65.6792L124.059 68.4063C124.209 68.5615 124.318 68.7522 124.375 68.9605C124.432 69.1688 124.435 69.3881 124.385 69.5981C124.334 69.8081 124.232 70.002 124.086 70.1619C123.941 70.3218 123.758 70.4425 123.553 70.5129L120.663 71.5229L121.4 65.6792Z" fill="#F4A28C"/>
<path d="M167.987 189.104C167.987 189.104 216.871 176.724 223.244 198.295C229.616 219.867 154.895 217.745 154.895 217.745L137.887 204.312L167.987 189.104Z" fill="#24285B"/>
<path d="M117.585 91.7954C117.585 91.7954 146.037 94.6812 165.863 117.32C177.64 130.754 173.189 141.95 167.626 148.833C165.292 151.78 163.73 155.261 163.082 158.962C162.433 162.662 162.719 166.466 163.912 170.029L169.808 188.368C169.808 188.368 138.336 208.569 118.452 206.491C98.5691 204.413 36.0006 94.9121 117.585 91.7954Z" fill="#0046AD"/>
<path opacity="0.08" d="M78.8304 114.795C78.8304 114.795 75.3046 125.574 77.2264 135.991C79.1483 146.409 88.9887 215.596 154.23 196.91L169.808 188.253L153.277 174.358L121.646 141.316L107.803 114.781L78.8304 114.795Z" fill="black"/>
<path d="M101.17 161.545C87.1823 119.239 24.7439 126.165 19.3974 170.404C13.8919 216.072 20.1343 260.744 93.7571 268.925C210.802 281.911 229.269 247.44 212.753 219.621C196.236 191.802 114.059 206.419 101.791 163.522C101.603 162.815 101.401 162.18 101.17 161.545Z" fill="#D0D5DD"/>
<path d="M197.739 185.381C197.739 185.381 214.068 189.335 215.238 178.96L197.739 177.07V185.381Z" fill="#F4A28C"/>
<path d="M98.5113 115.979C98.3379 106.181 109.32 99.8759 117.499 105.272C123.105 108.966 128.625 116.57 131.949 131.518C138.451 160.723 154.635 173.362 197.739 177.071V185.382C197.739 185.382 100.26 210.127 98.5113 115.979Z" fill="#F4A28C"/>
<path d="M118.9 62.6201C119.841 62.2448 120.667 61.6291 121.294 60.8347C121.922 60.0403 122.329 59.0952 122.475 58.0941C122.622 57.0929 122.502 56.071 122.128 55.1306C121.754 54.1903 121.139 53.3646 120.345 52.7363C119.463 52.053 118.49 51.4946 117.455 51.077C110.649 48.1912 94.3351 50.2257 95.4189 65.6791C96.5026 81.1324 70.666 116.267 93.9739 125.804C117.282 135.342 136.717 122.745 136.717 111.375C136.717 100.005 114.58 97.3361 113.135 87.4379C112.542 83.3978 111.979 79.1268 111.502 75.4763C111.175 72.8225 111.72 70.1345 113.054 67.8163C114.388 65.498 116.44 63.6747 118.9 62.6201Z" fill="#24285B"/>
<path opacity="0.45" d="M62.1549 209.622C53.9184 202.119 41.0146 210.343 44.5693 220.891C49.6123 235.81 61.2012 250.441 86.6621 254.77C143.87 264.495 138.292 243.357 134.593 234.137C131.515 226.605 93.6848 238.35 62.1549 209.622Z" fill="white"/>
<path d="M172.625 68.3774C172.625 68.3774 170.877 61.3938 176.628 58.6812L177.379 60.7301C177.379 60.7301 174.229 60.8455 173.738 68.5505L172.625 68.3774Z" fill="#0046AD"/>
<path opacity="0.08" d="M172.625 68.3774C172.625 68.3774 170.877 61.3938 176.628 58.6812L177.379 60.7301C177.379 60.7301 174.229 60.8455 173.738 68.5505L172.625 68.3774Z" fill="black"/>
<path d="M167.972 87.4812C169.358 87.1905 170.802 87.3682 172.076 87.9862L172.524 88.2027C173.157 88.5145 173.863 88.6508 174.567 88.5975C175.271 88.5443 175.948 88.3032 176.527 87.8997C178.692 86.4858 180.523 84.6195 181.896 82.4298C183.268 80.2401 184.147 77.779 184.474 75.2166C185.168 67.7425 180.674 66.2274 176.715 67.1653C174.794 67.6184 172.772 67.2914 171.093 66.2563C170.219 65.6208 169.203 65.2084 168.132 65.055C167.062 64.9016 165.97 65.0118 164.952 65.3761C160.95 67.1365 158.811 79.6175 164.75 86.4135C165.141 86.8643 165.647 87.2013 166.214 87.3892C166.781 87.5771 167.389 87.6089 167.972 87.4812Z" fill="#FFD200"/>
<path opacity="0.43" d="M182.09 72.3745C182.194 75.494 181.401 78.578 179.807 81.2627C179.699 81.4341 179.538 81.566 179.349 81.6385C179.159 81.7111 178.951 81.7205 178.756 81.6653C178.561 81.61 178.389 81.4932 178.266 81.3322C178.142 81.1712 178.075 80.9747 178.073 80.7721V72.4466C178.069 72.1275 178.143 71.8121 178.287 71.5272C178.431 71.2423 178.641 70.9961 178.9 70.8094C179.16 70.6227 179.46 70.5009 179.776 70.4544C180.092 70.4078 180.415 70.4379 180.717 70.542C181.109 70.6657 181.453 70.909 181.699 71.2377C181.945 71.5664 182.082 71.964 182.09 72.3745Z" fill="white"/>
<path d="M173.203 61.9997C173.203 61.9997 173.391 54.6266 165.357 56.2282C165.357 56.156 165.444 63.6302 173.203 61.9997Z" fill="#0046AD"/>
<path opacity="0.46" d="M173.203 61.9997C173.203 61.9997 173.391 54.6266 165.357 56.2282C165.357 56.156 165.444 63.6302 173.203 61.9997Z" fill="white"/>
<path d="M326.258 166.912C319.567 174.819 310.955 181.457 300.912 184.011C299.512 184.167 298.217 184.829 297.271 185.872C296.941 186.568 296.779 187.331 296.799 188.1C296.819 188.87 297.02 189.624 297.386 190.302C299.915 196.424 304.411 201.532 310.166 204.823C315.921 208.115 322.609 209.402 329.176 208.482C334.551 207.454 339.66 205.343 344.19 202.278C348.504 199.721 352.188 196.23 354.97 192.062C358.207 186.795 359.117 180.447 359.464 174.285C359.782 168.722 359.709 163.144 359.247 157.591C358.727 151.473 354.276 136.482 344.913 139.454C341.054 140.666 338.497 148.833 336.575 152.079C333.565 157.308 330.114 162.271 326.258 166.912Z" fill="#0046AD"/>
<path opacity="0.08" d="M326.258 166.912C319.567 174.819 310.955 181.457 300.912 184.011C299.512 184.167 298.217 184.829 297.271 185.872C296.941 186.568 296.779 187.331 296.799 188.1C296.819 188.87 297.02 189.624 297.386 190.302C299.915 196.424 304.411 201.532 310.166 204.823C315.921 208.115 322.609 209.402 329.176 208.482C334.551 207.454 339.66 205.343 344.19 202.278C348.504 199.721 352.188 196.23 354.97 192.062C358.207 186.795 359.117 180.447 359.464 174.285C359.782 168.722 359.709 163.144 359.247 157.591C358.727 151.473 354.276 136.482 344.913 139.454C341.054 140.666 338.497 148.833 336.575 152.079C333.565 157.308 330.114 162.271 326.258 166.912Z" fill="black"/>
<path d="M315.131 176.407C316.413 176.782 317.79 176.663 318.989 176.075C320.183 175.607 321.23 174.83 322.024 173.824C322.418 173.32 322.708 172.743 322.877 172.126C323.045 171.51 323.089 170.865 323.006 170.231C322.987 169.946 322.904 169.669 322.764 169.419C322.624 169.17 322.43 168.954 322.197 168.788C321.821 168.572 321.345 168.558 320.969 168.327C320.61 168.011 320.316 167.629 320.102 167.201C319.758 166.761 319.32 166.403 318.82 166.154C318.32 165.904 317.771 165.769 317.212 165.758C316.082 165.744 314.964 165.991 313.946 166.48C313.207 166.727 312.533 167.135 311.97 167.674C311.408 168.213 310.973 168.869 310.695 169.596C310.557 170.424 310.662 171.273 310.998 172.041C311.334 172.81 311.886 173.464 312.588 173.925C314.023 174.828 315.625 175.437 317.299 175.714" fill="#24285B"/>
<path d="M286.405 165.946C286.905 165.417 287.528 165.021 288.219 164.792C288.91 164.563 289.647 164.508 290.364 164.633C290.833 164.77 291.321 164.828 291.809 164.806C292.186 164.699 292.55 164.549 292.893 164.358C294.786 163.493 296.982 164.272 298.904 165.051C299.538 165.369 300.232 165.551 300.941 165.585C301.535 165.528 302.115 165.377 302.661 165.138C303.975 164.677 305.329 164.344 306.707 164.142C307.035 164.052 307.378 164.028 307.716 164.073C308.053 164.117 308.379 164.229 308.672 164.402C308.945 164.65 309.196 164.92 309.423 165.21C309.979 165.664 310.659 165.941 311.374 166.003C312.842 166.069 314.256 166.571 315.435 167.446C315.81 167.821 316.085 168.283 316.446 168.658C316.807 169.033 317.183 169.235 317.487 169.582C317.864 170.157 318.124 170.801 318.251 171.477C318.377 172.154 318.368 172.848 318.223 173.521C318.226 173.91 318.126 174.293 317.934 174.632C317.519 175.071 316.949 175.329 316.345 175.353L308.426 176.623C303.152 177.474 297.892 178.311 292.604 178.961C289.918 179.381 287.189 179.463 284.483 179.206C281.593 178.831 280.812 177.604 280.581 174.877C280.206 170.693 283.977 168.586 286.405 165.946Z" fill="#D0D5DD"/>
<path d="M325.55 170.289H278.919V190.187H325.55V170.289Z" fill="#FFD200"/>
<path d="M277.055 114.564H263.299C263.066 114.564 262.835 114.611 262.62 114.703C262.406 114.795 262.212 114.929 262.051 115.098C261.89 115.266 261.766 115.466 261.684 115.684C261.603 115.903 261.568 116.135 261.579 116.368L262.706 139.05C262.754 139.833 263.1 140.567 263.672 141.103C264.244 141.64 265 141.938 265.784 141.936H274.787C275.583 141.937 276.349 141.629 276.923 141.077C277.497 140.526 277.835 139.773 277.864 138.978L278.775 116.31C278.777 116.083 278.734 115.857 278.648 115.647C278.563 115.436 278.437 115.244 278.277 115.082C278.118 114.92 277.927 114.791 277.718 114.702C277.508 114.613 277.283 114.566 277.055 114.564Z" fill="#0046AD"/>
<path d="M273.125 135.891L272.114 135.818L273.905 109.933C273.911 109.863 273.93 109.795 273.962 109.733C273.995 109.672 274.039 109.617 274.093 109.572C274.211 109.489 274.355 109.453 274.498 109.471L282.835 110.914L282.676 111.91L274.873 110.597L273.125 135.891Z" fill="#24285B"/>
<path opacity="0.44" d="M276.578 122.847H263.891L264.455 138.286C264.474 138.782 264.684 139.252 265.043 139.596C265.401 139.941 265.879 140.133 266.377 140.133H273.992C274.487 140.133 274.963 139.943 275.321 139.601C275.679 139.26 275.891 138.794 275.914 138.3L276.578 122.847Z" fill="white"/>
<path d="M357.585 58.9266C357.585 58.9266 357.369 68.0457 359.276 73.9904C359.665 75.1344 360.49 76.079 361.572 76.6193C362.654 77.1595 363.906 77.2519 365.056 76.8762C366.946 76.3848 368.653 75.3575 369.971 73.9186C371.289 72.4796 372.161 70.6905 372.483 68.7672L374.709 60.6437C374.983 58.9691 374.73 57.2508 373.984 55.7259C373.239 54.2011 372.038 52.9448 370.547 52.1306C365.2 48.8264 357.441 53.3282 357.585 58.9266Z" fill="#F4A28C"/>
<path d="M374.333 62.144L380.907 91.3337L364.536 93.8011L366.327 71.5661L374.333 62.144Z" fill="#F4A28C"/>
<path d="M359.825 59.1283C362.65 59.0604 365.457 58.6683 368.192 57.9596C367.455 59.2472 367.113 60.7225 367.208 62.2024C367.303 63.6824 367.831 65.1019 368.726 66.2851C369.565 67.4542 370.786 68.2943 372.179 68.6604C373.572 69.0266 375.049 68.8958 376.356 68.2907L375.474 56.5888C375.403 54.9117 374.879 53.2851 373.958 51.8806C373.038 50.4762 371.754 49.3461 370.243 48.6096C368.93 47.975 367.579 47.4209 366.197 46.9503C362.744 45.8104 357.947 48.3932 354.768 46.2866C354.448 46.0817 354.08 45.9626 353.701 45.9407C353.322 45.9188 352.943 45.9949 352.602 46.1617C352.261 46.3285 351.968 46.5803 351.753 46.8928C351.537 47.2053 351.406 47.568 351.372 47.9459C351.068 51.5387 352.065 57.1083 357.007 58.7532C357.92 59.0291 358.872 59.1558 359.825 59.1283Z" fill="#24285B"/>
<path d="M367.773 66.1409C367.773 66.1409 367.614 62.6203 370.272 62.7357C372.931 62.8511 373.162 67.9012 369.622 68.6083L367.773 66.1409Z" fill="#F4A28C"/>
<path d="M357.744 64.6982L355.49 68.3199C355.351 68.5278 355.269 68.7681 355.251 69.0173C355.234 69.2664 355.281 69.5159 355.389 69.7413C355.497 69.9667 355.661 70.1603 355.866 70.3032C356.071 70.4461 356.31 70.5333 356.559 70.5564L360.085 70.9893L357.744 64.6982Z" fill="#F4A28C"/>
<path opacity="0.31" d="M365.735 76.4144C367.752 75.7725 369.536 74.5533 370.865 72.9082C370.865 72.9082 370.98 78.3768 365.316 84.1483L365.735 76.4144Z" fill="#CE8172"/>
<path d="M388.855 206.722L344.609 203.836C344.609 203.836 343.973 199.508 343.005 192.466C342.312 187.402 341.43 180.923 340.491 173.853C338.945 162.122 337.24 148.516 335.881 136.02C332.543 105.474 364.536 93.7725 364.536 93.7725L380.908 91.3052C455.296 102.848 388.855 206.722 388.855 206.722Z" fill="#0046AD"/>
<path opacity="0.08" d="M385.084 162.122C364.464 187.185 358.192 202.393 358.192 202.393L343.005 192.495C342.312 187.43 341.43 180.952 340.491 173.882L352.6 156.033L388.003 116.354L389.115 116.613C389.115 116.613 405.704 137.059 385.084 162.122Z" fill="black"/>
<path d="M387.656 109.557C386.633 105.927 384.286 102.811 381.076 100.823C377.866 98.8361 374.027 98.1221 370.316 98.8222C361.906 100.438 351.877 106.037 348.352 123.106C345.58 136.895 340.577 150.141 333.54 162.324C332.844 163.508 331.895 164.525 330.761 165.302C329.626 166.079 328.334 166.596 326.977 166.818C325.62 167.04 324.23 166.96 322.907 166.585C321.584 166.21 320.36 165.548 319.322 164.647L284.121 134.346L276.232 143.595L317.385 186.521C320.1 189.355 323.713 191.164 327.611 191.64C331.51 192.116 335.453 191.23 338.771 189.133C359.42 176.075 398.132 146.106 387.656 109.557Z" fill="#0046AD"/>
<path opacity="0.46" d="M387.656 109.557C386.633 105.927 384.286 102.811 381.076 100.823C377.866 98.8361 374.027 98.1221 370.316 98.8222C361.906 100.438 351.877 106.037 348.352 123.106C345.58 136.895 340.577 150.141 333.54 162.324C332.844 163.508 331.895 164.525 330.761 165.302C329.626 166.079 328.334 166.596 326.977 166.818C325.62 167.04 324.23 166.96 322.907 166.585C321.584 166.21 320.36 165.548 319.322 164.647L284.121 134.346L276.232 143.595L317.385 186.521C320.1 189.355 323.713 191.164 327.611 191.64C331.51 192.116 335.453 191.23 338.771 189.133C359.42 176.075 398.132 146.106 387.656 109.557Z" fill="white"/>
<path d="M284.107 134.317C284.107 134.317 273.313 122.947 267.706 130.753C262.1 138.56 276.217 143.566 276.217 143.566L284.107 134.317Z" fill="#F4A28C"/>
<path d="M287.488 210.43C287.488 210.43 274.816 222.348 291.245 221.872C307.675 221.396 301.62 208.641 287.488 210.43Z" fill="#0046AD"/>
<path d="M340.216 191.875C340.216 191.875 285.87 176.724 279.526 198.296C273.183 219.867 347.875 217.746 347.875 217.746L364.868 204.312L340.216 191.875Z" fill="#24285B"/>
<path d="M382.569 161.545C396.557 119.239 459.01 126.165 464.342 170.404C469.847 216.072 463.605 260.744 389.982 268.925C272.937 281.911 254.47 247.44 270.986 219.621C287.503 191.802 369.68 206.419 381.963 163.522C382.15 162.815 382.353 162.18 382.569 161.545Z" fill="#D0D5DD"/>
<path opacity="0.45" d="M421.613 209.622C429.85 202.119 442.754 210.343 439.199 220.891C434.17 235.81 422.567 250.441 397.106 254.77C339.913 264.495 345.491 243.357 349.175 234.137C352.181 226.605 390.069 238.35 421.613 209.622Z" fill="white"/>
<path opacity="0.58" d="M58.557 253.226C58.557 253.226 44.396 249.36 41.3181 236.2C41.3181 236.2 63.2532 231.785 63.8746 254.395L58.557 253.226Z" fill="#0046AD"/>
<path opacity="0.73" d="M60.291 251.826C60.291 251.826 50.3928 236.2 59.1061 221.612C59.1061 221.612 75.7815 232.189 68.3686 251.913L60.291 251.826Z" fill="#0046AD"/>
<path d="M62.8342 251.841C62.8342 251.841 68.0651 235.349 83.8301 232.218C83.8301 232.218 86.7201 242.924 73.5995 251.884L62.8342 251.841Z" fill="#0046AD"/>
<path d="M52.5747 251.466L55.4358 271.075L73.5128 271.147L76.186 251.567L52.5747 251.466Z" fill="#24285B"/>
</svg>
