<svg width="32" height="32" viewBox="0 0 32 32" fill="none" xmlns="http://www.w3.org/2000/svg">
<path d="M21.8 31.5H9.7C7.12821 31.4974 4.66252 30.4745 2.84399 28.656C1.02546 26.8375 0.00264724 24.3718 0 21.8L0 9.7C0.00264724 7.12821 1.02546 4.66252 2.84399 2.84399C4.66252 1.02546 7.12821 0.00264724 9.7 0L21.8 0C24.3718 0.00264724 26.8375 1.02546 28.656 2.84399C30.4745 4.66252 31.4974 7.12821 31.5 9.7V21.8C31.4974 24.3718 30.4745 26.8375 28.656 28.656C26.8375 30.4745 24.3718 31.4974 21.8 31.5ZM9.7 1.5C7.52604 1.50265 5.44187 2.36742 3.90465 3.90465C2.36742 5.44187 1.50265 7.52604 1.5 9.7V21.8C1.50265 23.974 2.36742 26.0581 3.90465 27.5954C5.44187 29.1326 7.52604 29.9974 9.7 30H21.8C23.974 29.9974 26.0581 29.1326 27.5954 27.5954C29.1326 26.0581 29.9974 23.974 30 21.8V9.7C29.9974 7.52604 29.1326 5.44187 27.5954 3.90465C26.0581 2.36742 23.974 1.50265 21.8 1.5H9.7Z" fill="white"/>
<path d="M21.5105 9.48957C19.905 7.88417 17.7705 7 15.5 7C13.2295 7 11.095 7.88417 9.48957 9.48957C7.88417 11.095 7 13.2295 7 15.5C7 17.7705 7.88417 19.905 9.48957 21.5105C11.095 23.1158 13.2295 24 15.5 24C16.6473 24 17.7605 23.7752 18.8088 23.3318L18.3991 22.3633C17.4812 22.7516 16.5058 22.9484 15.5 22.9484C11.3929 22.9484 8.05155 19.6071 8.05155 15.5C8.05155 11.3929 11.3929 8.05155 15.5 8.05155C19.6071 8.05155 22.9484 11.3929 22.9484 15.5C22.9484 17.299 21.8431 18.1183 20.8161 18.1183C19.7892 18.1183 18.6838 17.299 18.6838 15.5C18.6838 13.7444 17.2556 12.3162 15.5 12.3162C13.7444 12.3162 12.3162 13.7444 12.3162 15.5C12.3162 17.2556 13.7444 18.6838 15.5 18.6838C16.5394 18.6838 17.4641 18.1831 18.0455 17.4102C18.1944 17.7109 18.3818 17.9828 18.6077 18.2204C19.19 18.8327 19.9743 19.1698 20.8161 19.1698C21.658 19.1698 22.4422 18.8327 23.0245 18.2204C23.6627 17.5495 24 16.6087 24 15.5C24 13.2295 23.1158 11.095 21.5105 9.48957ZM15.5 17.6323C14.3243 17.6323 13.3677 16.6757 13.3677 15.5C13.3677 14.3243 14.3243 13.3677 15.5 13.3677C16.6757 13.3677 17.6323 14.3243 17.6323 15.5C17.6323 16.6757 16.6757 17.6323 15.5 17.6323Z" fill="#FBFBFB"/>
</svg>
