<svg width="313" height="313" viewBox="0 0 313 313" fill="none" xmlns="http://www.w3.org/2000/svg">
<path d="M267.163 45.8374C237.603 16.2792 198.303 0 156.5 0C114.697 0 75.3969 16.2792 45.8374 45.8374C16.2792 75.3969 0 114.697 0 156.5C0 198.303 16.2792 237.603 45.8374 267.163C75.3969 296.721 114.697 313 156.5 313C177.623 313 198.12 308.861 217.42 300.697L209.877 282.866C192.977 290.015 175.018 293.639 156.5 293.639C80.8811 293.639 19.3608 232.119 19.3608 156.5C19.3608 80.8811 80.8811 19.3608 156.5 19.3608C232.119 19.3608 293.639 80.8811 293.639 156.5C293.639 189.622 273.288 204.708 254.379 204.708C235.471 204.708 215.12 189.623 215.12 156.5C215.12 124.176 188.824 97.8799 156.5 97.8799C124.176 97.8799 97.8799 124.177 97.8799 156.5C97.8799 188.823 124.176 215.12 156.5 215.12C175.638 215.12 192.662 205.9 203.367 191.671C206.109 197.206 209.559 202.213 213.719 206.587C224.44 217.86 238.88 224.068 254.379 224.068C269.879 224.068 284.319 217.86 295.04 206.587C306.79 194.234 313 176.914 313 156.5C313 114.697 296.721 75.3969 267.163 45.8374ZM156.5 195.759C134.853 195.759 117.241 178.147 117.241 156.5C117.241 134.853 134.853 117.241 156.5 117.241C178.147 117.241 195.759 134.853 195.759 156.5C195.759 178.147 178.147 195.759 156.5 195.759Z" fill="#FBFBFB"/>
</svg>
