<svg width="455" height="520" viewBox="0 0 455 520" fill="none" xmlns="http://www.w3.org/2000/svg">
<path d="M400.433 144.06C388.369 129.626 375.677 115.507 364.114 100.645C330.25 57.0448 285.707 15.0579 229.458 3.32268C172.51 -8.55529 104.725 11.6458 70.362 60.1856C47.5198 92.4361 38.597 132.51 37.7975 171.542C37.4406 189.359 40.4958 207.361 37.6262 225.078C34.4569 244.566 23.5211 261.654 13.9559 278.543C1.30703 300.886 -4.14656 325.484 3.53415 350.668C20.9085 407.559 99.3574 433.999 153.251 424.477C182.632 419.28 209.557 405.047 238.024 396.067C261.495 388.657 285.65 386.502 309.506 393.583C363.871 409.715 419.549 381.905 442.577 330.767C470.373 269.035 444.361 198.938 404.544 149.128C403.188 147.386 401.832 145.716 400.433 144.06Z" fill="#F7A31C"/>
<path opacity="0.7" d="M400.433 144.06C388.369 129.626 375.677 115.507 364.114 100.645C330.25 57.0448 285.707 15.0579 229.458 3.32268C172.51 -8.55529 104.725 11.6458 70.362 60.1856C47.5198 92.4361 38.597 132.51 37.7975 171.542C37.4406 189.359 40.4958 207.361 37.6262 225.078C34.4569 244.566 23.5211 261.654 13.9559 278.543C1.30703 300.886 -4.14656 325.484 3.53415 350.668C20.9085 407.559 99.3574 433.999 153.251 424.477C182.632 419.28 209.557 405.047 238.024 396.067C261.495 388.657 285.65 386.502 309.506 393.583C363.871 409.715 419.549 381.905 442.577 330.767C470.373 269.035 444.361 198.938 404.544 149.128C403.188 147.386 401.832 145.716 400.433 144.06Z" fill="white"/>
<path d="M219.804 520C332.42 520 423.714 502.359 423.714 480.597C423.714 458.836 332.42 441.194 219.804 441.194C107.187 441.194 15.8936 458.836 15.8936 480.597C15.8936 502.359 107.187 520 219.804 520Z" fill="#F7A31C"/>
<path opacity="0.5" d="M219.804 520C332.42 520 423.714 502.359 423.714 480.597C423.714 458.836 332.42 441.194 219.804 441.194C107.187 441.194 15.8936 458.836 15.8936 480.597C15.8936 502.359 107.187 520 219.804 520Z" fill="white"/>
<path d="M308.448 311.921H155.219C151.537 311.921 148.552 314.906 148.552 318.588V330.951C148.552 334.634 151.537 337.618 155.219 337.618H308.448C312.13 337.618 315.115 334.634 315.115 330.951V318.588C315.115 314.906 312.13 311.921 308.448 311.921Z" fill="white"/>
<path d="M308.449 338.333H155.22C153.265 338.333 151.39 337.558 150.006 336.176C148.622 334.795 147.843 332.922 147.839 330.967V318.589C147.843 316.633 148.621 314.757 150.005 313.374C151.388 311.991 153.263 311.212 155.22 311.208H308.449C310.405 311.212 312.28 311.991 313.663 313.374C315.047 314.757 315.826 316.633 315.829 318.589V330.967C315.826 332.922 315.046 334.795 313.663 336.176C312.279 337.558 310.404 338.333 308.449 338.333ZM155.22 312.636C153.641 312.636 152.127 313.263 151.01 314.379C149.894 315.496 149.267 317.01 149.267 318.589V330.967C149.27 332.543 149.899 334.054 151.015 335.167C152.131 336.28 153.643 336.906 155.22 336.906H308.449C310.025 336.906 311.537 336.28 312.653 335.167C313.769 334.054 314.398 332.543 314.402 330.967V318.589C314.402 317.01 313.775 315.496 312.658 314.379C311.542 313.263 310.027 312.636 308.449 312.636H155.22Z" fill="#263238"/>
<path d="M165.683 314.606H155.219V335.721H165.683V314.606Z" fill="#F7A31C"/>
<path d="M178.735 314.606H168.271V335.721H178.735V314.606Z" fill="#F7A31C"/>
<path d="M191.781 314.606H181.316V335.721H191.781V314.606Z" fill="#F7A31C"/>
<path d="M204.828 314.606H194.363V335.721H204.828V314.606Z" fill="#F7A31C"/>
<path d="M217.88 314.606H207.415V335.721H217.88V314.606Z" fill="#F7A31C"/>
<path d="M230.927 314.606H220.462V335.721H230.927V314.606Z" fill="#F7A31C"/>
<path d="M243.978 314.606H233.514V335.721H243.978V314.606Z" fill="#F7A31C"/>
<path d="M257.024 314.606H246.56V335.721H257.024V314.606Z" fill="#F7A31C"/>
<path d="M254.739 137.277L268.459 131.024L265.604 114.549L250.471 113.378C248.54 108.326 245.994 103.531 242.89 99.1019L250.699 85.9248L238.864 74.0896L225.587 81.9845C217.939 76.7783 209.28 73.2418 200.175 71.6055L196.349 56.4297H179.617L175.762 71.6912C170.578 72.6803 165.531 74.2859 160.729 76.4738L148.765 66.1234L135.074 75.7171L140.785 90.5218C137.1 94.2813 133.875 98.465 131.177 102.985L115.473 101.358L109.762 117.062L122.797 125.899C122.171 129.568 121.856 133.284 121.854 137.006C121.854 138.59 121.854 140.147 122.04 141.703L108.32 149.355L112.603 165.516L128.136 165.316C130.437 170.164 133.313 174.717 136.702 178.878L129.992 192.798L142.841 203.548L155.261 194.654C159.964 197.369 164.985 199.493 170.209 200.978L172.707 215.954L189.368 217.382L194.393 203.205C199.861 202.718 205.247 201.548 210.425 199.722L220.933 210.415L235.423 202.049L231.44 187.644C235.64 184.076 239.381 180 242.576 175.509L257.295 178.222L264.433 163.075L252.883 153.538C254.176 148.216 254.799 142.753 254.739 137.277V137.277ZM229.998 136.991C229.998 145.251 227.549 153.324 222.961 160.191C218.372 167.058 211.85 172.411 204.22 175.571C196.59 178.732 188.193 179.559 180.093 177.948C171.993 176.336 164.552 172.359 158.712 166.519C152.872 160.679 148.895 153.239 147.284 145.138C145.672 137.038 146.499 128.642 149.66 121.011C152.82 113.381 158.173 106.859 165.04 102.271C171.907 97.6821 179.981 95.233 188.24 95.233C193.725 95.233 199.156 96.3136 204.223 98.413C209.291 100.512 213.895 103.59 217.772 107.469C221.65 111.348 224.726 115.953 226.824 121.021C228.921 126.089 230 131.521 229.998 137.006V136.991Z" fill="#F7A31C"/>
<path d="M189.223 218.182L172.562 216.754C172.391 216.741 172.229 216.67 172.102 216.554C171.975 216.437 171.891 216.282 171.863 216.112L169.379 201.521C164.405 200.079 159.614 198.067 155.102 195.525L143.082 204.091C142.948 204.198 142.782 204.256 142.611 204.256C142.439 204.256 142.273 204.198 142.139 204.091L129.291 193.341C129.159 193.231 129.067 193.08 129.031 192.912C128.995 192.743 129.016 192.568 129.091 192.413L135.572 178.922C132.401 174.956 129.686 170.646 127.478 166.073L112.445 166.259C112.272 166.267 112.101 166.214 111.963 166.11C111.825 166.005 111.728 165.856 111.688 165.688L107.405 149.527C107.357 149.363 107.367 149.187 107.432 149.029C107.496 148.871 107.613 148.739 107.762 148.656L121.053 141.232C120.953 139.633 120.91 138.277 120.91 136.949C120.912 133.348 121.203 129.753 121.781 126.199L109.147 117.633C109.005 117.534 108.9 117.39 108.849 117.225C108.797 117.06 108.801 116.882 108.861 116.72L114.572 101.016C114.636 100.856 114.749 100.721 114.896 100.631C115.042 100.541 115.214 100.501 115.385 100.516L130.647 102.086C133.233 97.8186 136.288 93.8536 139.755 90.2654L134.287 75.9176C134.223 75.7578 134.217 75.5808 134.269 75.4167C134.321 75.2526 134.428 75.1117 134.573 75.0182L148.264 65.4244C148.4 65.3167 148.569 65.2581 148.742 65.2581C148.916 65.2581 149.084 65.3167 149.221 65.4244L160.799 75.4179C165.374 73.3824 170.163 71.8644 175.075 70.8923L178.801 56.1019C178.847 55.9358 178.946 55.7891 179.082 55.6836C179.219 55.5781 179.386 55.5195 179.558 55.5166H196.29C196.461 55.5179 196.627 55.5761 196.761 55.6821C196.896 55.7881 196.991 55.9358 197.032 56.1019L200.744 70.7924C209.6 72.4504 218.026 75.8891 225.514 80.9001L238.362 73.2622C238.509 73.1709 238.682 73.1324 238.854 73.1532C239.025 73.174 239.184 73.2527 239.305 73.3764L251.126 85.1973C251.245 85.3203 251.321 85.4791 251.341 85.6492C251.362 85.8193 251.326 85.9915 251.24 86.1395L243.73 99.0168C246.648 103.275 249.067 107.855 250.94 112.665L265.588 113.793C265.759 113.807 265.921 113.877 266.048 113.994C266.175 114.11 266.259 114.266 266.287 114.435L269.142 130.91C269.169 131.08 269.14 131.253 269.06 131.405C268.98 131.556 268.854 131.678 268.7 131.753L255.423 137.792C255.371 143.014 254.71 148.212 253.453 153.281L264.617 162.504C264.748 162.612 264.84 162.759 264.879 162.925C264.918 163.09 264.901 163.263 264.831 163.418L257.764 178.579C257.692 178.735 257.57 178.863 257.418 178.943C257.266 179.023 257.091 179.05 256.922 179.022L242.645 176.395C239.565 180.635 236.011 184.51 232.052 187.945L235.893 201.864C235.939 202.03 235.929 202.207 235.864 202.367C235.8 202.527 235.684 202.661 235.536 202.749L221.045 211.115C220.897 211.196 220.727 211.228 220.56 211.205C220.393 211.181 220.238 211.105 220.117 210.987L209.938 200.651C204.997 202.342 199.875 203.449 194.677 203.948L189.823 217.668C189.777 217.799 189.698 217.916 189.592 218.006C189.487 218.096 189.36 218.157 189.223 218.182V218.182ZM173.219 215.241L188.695 216.583L193.52 202.963C193.568 202.824 193.656 202.703 193.773 202.614C193.89 202.525 194.03 202.473 194.177 202.464C199.582 201.981 204.905 200.825 210.024 199.023C210.163 198.974 210.313 198.966 210.457 198.999C210.601 199.032 210.733 199.104 210.838 199.209L220.931 209.473L234.379 201.707L230.553 187.873C230.512 187.733 230.513 187.584 230.556 187.444C230.599 187.304 230.683 187.18 230.796 187.088C234.942 183.556 238.639 179.529 241.803 175.096C241.888 174.975 242.006 174.881 242.143 174.826C242.279 174.77 242.429 174.755 242.574 174.782L256.693 177.38L263.261 163.318L252.182 154.167C252.064 154.075 251.976 153.949 251.93 153.807C251.884 153.664 251.882 153.511 251.925 153.367C253.266 148.109 253.951 142.704 253.967 137.278C253.968 137.129 254.011 136.985 254.092 136.861C254.173 136.737 254.288 136.638 254.423 136.578L267.601 130.568L264.902 115.278L250.355 114.15C250.209 114.139 250.069 114.086 249.952 113.997C249.836 113.909 249.747 113.788 249.698 113.65C247.795 108.64 245.283 103.884 242.217 99.488C242.137 99.3621 242.095 99.216 242.095 99.0668C242.095 98.9176 242.137 98.7715 242.217 98.6457L249.712 85.9825L238.734 75.0039L225.971 82.5847C225.847 82.6651 225.704 82.708 225.557 82.708C225.41 82.708 225.266 82.6651 225.143 82.5847C217.592 77.4631 209.052 73.9809 200.073 72.3628C199.927 72.337 199.791 72.2693 199.682 72.168C199.573 72.0667 199.496 71.936 199.459 71.7917L195.762 57.2012H180.215L176.517 71.8916C176.479 72.0351 176.401 72.1649 176.293 72.266C176.184 72.367 176.049 72.4352 175.903 72.4627C170.78 73.4374 165.791 75.019 161.041 77.1739C160.907 77.2365 160.757 77.259 160.611 77.2388C160.464 77.2185 160.326 77.1563 160.213 77.0597L148.721 67.0662L136.001 75.9604L141.44 90.2368C141.492 90.3747 141.504 90.5246 141.473 90.6688C141.443 90.813 141.372 90.9455 141.269 91.0506C137.633 94.7722 134.447 98.9073 131.775 103.371C131.698 103.496 131.588 103.597 131.457 103.663C131.325 103.728 131.178 103.756 131.032 103.742L115.885 102.186L110.574 116.777L123.109 125.343C123.234 125.424 123.331 125.541 123.39 125.678C123.448 125.816 123.465 125.967 123.437 126.113C122.826 129.741 122.516 133.413 122.509 137.092C122.509 138.52 122.509 139.947 122.695 141.732C122.701 141.878 122.668 142.024 122.597 142.152C122.527 142.28 122.422 142.387 122.295 142.46L109.104 149.827L113.13 164.817L128.091 164.546C128.238 164.545 128.382 164.587 128.506 164.665C128.63 164.743 128.729 164.855 128.791 164.988C131.048 169.78 133.876 174.281 137.214 178.394C137.306 178.506 137.364 178.642 137.381 178.786C137.399 178.93 137.376 179.076 137.314 179.207L130.861 192.599L142.753 202.592L154.688 194.026C154.814 193.946 154.96 193.904 155.11 193.904C155.259 193.904 155.405 193.946 155.531 194.026C160.184 196.699 165.146 198.794 170.307 200.265C170.448 200.304 170.576 200.382 170.675 200.491C170.773 200.6 170.839 200.734 170.864 200.879L173.219 215.241ZM188.238 179.55C179.827 179.547 171.606 177.051 164.614 172.376C157.622 167.701 152.173 161.058 148.956 153.286C145.739 145.515 144.899 136.964 146.542 128.715C148.184 120.466 152.236 112.889 158.184 106.943C164.133 100.996 171.711 96.9472 179.96 95.3074C188.21 93.6675 196.76 94.5106 204.531 97.7299C212.301 100.949 218.943 106.4 223.615 113.394C228.288 120.388 230.782 128.61 230.782 137.021C230.763 148.296 226.274 159.103 218.298 167.073C210.323 175.042 199.513 179.525 188.238 179.536V179.55ZM188.238 96.0331C180.131 96.0331 172.207 98.4369 165.467 102.941C158.726 107.444 153.473 113.846 150.37 121.335C147.268 128.825 146.456 137.066 148.038 145.017C149.619 152.968 153.523 160.271 159.255 166.003C164.988 171.735 172.291 175.639 180.242 177.221C188.193 178.802 196.434 177.99 203.923 174.888C211.413 171.786 217.814 166.533 222.318 159.792C226.822 153.052 229.226 145.127 229.226 137.021C229.218 126.151 224.898 115.729 217.213 108.041C209.529 100.354 199.108 96.0301 188.238 96.0188V96.0331Z" fill="#263238"/>
<path d="M96.7714 169.886C96.2813 169.884 95.8042 169.728 95.4091 169.438C95.0139 169.148 94.7211 168.74 94.5729 168.272C93.025 163.459 91.8508 158.533 91.0608 153.539C90.9662 152.931 91.1168 152.311 91.4796 151.814C91.8424 151.318 92.3876 150.986 92.9953 150.891C93.603 150.796 94.2234 150.947 94.7201 151.31C95.2167 151.672 95.5489 152.218 95.6436 152.825C96.3985 157.581 97.5153 162.273 98.9843 166.859C99.1516 167.436 99.089 168.056 98.8095 168.588C98.5301 169.121 98.0555 169.524 97.4852 169.714C97.2594 169.814 97.0177 169.872 96.7714 169.886Z" fill="#263238"/>
<path d="M92.2147 142.987C91.6097 142.987 91.0284 142.752 90.594 142.331C90.1596 141.91 89.9063 141.336 89.8877 140.731C89.8877 139.832 89.8877 138.933 89.8877 138.033C89.8927 117.848 96.0763 98.1474 107.608 81.5798C119.139 65.0123 135.465 52.3715 154.392 45.3562C173.32 38.3408 193.941 37.2872 213.484 42.3369C233.028 47.3867 250.558 58.2977 263.717 73.6037C263.916 73.8343 264.067 74.1017 264.163 74.3908C264.258 74.6799 264.296 74.985 264.273 75.2886C264.251 75.5922 264.168 75.8883 264.031 76.1602C263.894 76.432 263.705 76.6742 263.475 76.873C263.244 77.0717 262.977 77.223 262.687 77.3184C262.398 77.4138 262.093 77.4512 261.79 77.4287C261.486 77.4062 261.19 77.3241 260.918 77.1871C260.646 77.0501 260.404 76.8609 260.205 76.6303C247.667 62.0305 230.959 51.6201 212.328 46.799C193.697 41.9779 174.037 42.9773 155.99 49.6628C137.944 56.3482 122.378 68.3992 111.385 84.1951C100.392 99.9909 94.499 118.774 94.499 138.019C94.499 138.875 94.499 139.732 94.499 140.589C94.5085 140.894 94.4576 141.197 94.3492 141.482C94.2408 141.768 94.077 142.029 93.8673 142.25C93.6577 142.472 93.4062 142.65 93.1275 142.774C92.8488 142.898 92.5483 142.965 92.2433 142.973L92.2147 142.987Z" fill="#263238"/>
<path d="M268.443 66.3506L270.999 87.4797L251.426 79.1423L268.443 66.3506Z" fill="#263238"/>
<path d="M368.248 212.502L379.969 209.004L376.943 191.872L364.651 192.615C363.046 188.395 360.932 184.387 358.355 180.68L366.078 170.943L353.772 158.694L343.95 166.489C337.592 162.192 330.404 159.274 322.849 157.923L321.422 145.303H304.004L302.577 158.009C298.26 158.829 294.057 160.161 290.056 161.978L281.49 152.37L267.214 162.363L273.339 173.684C270.274 176.811 267.59 180.29 265.344 184.049L252.838 181.065L246.927 197.24L258.348 202.951C257.825 206.002 257.563 209.092 257.563 212.188C257.563 213.501 257.563 214.8 257.72 216.099L245.856 220.782L250.354 237.585L262.817 235.744C264.731 239.778 267.128 243.565 269.955 247.022L263.045 257.487L276.379 268.665L285.374 260.099C289.292 262.354 293.473 264.119 297.823 265.353L298.151 277.659L315.483 279.173L317.938 267.223C322.484 266.826 326.963 265.867 331.272 264.368L338.51 274.119L353.572 265.424L348.761 254.317C352.247 251.341 355.359 247.952 358.026 244.224L369.533 248.05L376.885 232.346L366.506 226.036C367.647 221.614 368.232 217.068 368.248 212.502ZM347.662 212.259C347.662 219.132 345.623 225.851 341.804 231.566C337.985 237.281 332.558 241.735 326.207 244.364C319.857 246.994 312.869 247.681 306.128 246.339C299.387 244.997 293.196 241.686 288.337 236.825C283.477 231.964 280.169 225.771 278.83 219.03C277.491 212.288 278.181 205.301 280.813 198.951C283.445 192.602 287.901 187.176 293.618 183.36C299.334 179.543 306.054 177.507 312.927 177.51C317.49 177.51 322.008 178.409 326.223 180.156C330.438 181.902 334.268 184.462 337.493 187.689C340.719 190.916 343.277 194.747 345.022 198.962C346.766 203.178 347.663 207.697 347.662 212.259V212.259Z" fill="#F7A31C"/>
<path d="M315.469 280.044H315.397L298.08 278.616C297.891 278.602 297.713 278.519 297.581 278.382C297.449 278.244 297.373 278.064 297.366 277.874L297.052 266.124C293.021 264.938 289.137 263.3 285.474 261.242L276.908 269.365C276.767 269.491 276.584 269.561 276.394 269.561C276.205 269.561 276.022 269.491 275.88 269.365L262.546 258.186C262.401 258.062 262.307 257.889 262.281 257.699C262.255 257.51 262.298 257.318 262.403 257.159L268.999 247.165C266.426 243.925 264.219 240.411 262.418 236.686L250.511 238.456C250.323 238.487 250.13 238.445 249.971 238.339C249.812 238.233 249.699 238.071 249.655 237.885L245.157 221.054C245.11 220.87 245.132 220.675 245.219 220.507C245.305 220.338 245.451 220.208 245.629 220.14L256.964 215.657C256.878 214.386 256.85 213.301 256.85 212.259C256.851 209.309 257.085 206.364 257.549 203.451L246.585 197.983C246.414 197.899 246.28 197.755 246.209 197.579C246.138 197.402 246.134 197.205 246.2 197.026L252.153 180.68C252.223 180.504 252.353 180.358 252.521 180.269C252.688 180.181 252.882 180.154 253.067 180.194L265.016 183.05C267.132 179.589 269.616 176.367 272.425 173.442L266.572 162.62C266.483 162.453 266.458 162.258 266.503 162.074C266.547 161.89 266.658 161.728 266.815 161.621L281.091 151.627C281.248 151.517 281.44 151.469 281.63 151.493C281.82 151.517 281.994 151.611 282.119 151.756L290.257 160.936C293.97 159.292 297.853 158.062 301.835 157.267L303.263 145.132C303.287 144.944 303.378 144.771 303.52 144.645C303.661 144.519 303.844 144.448 304.033 144.446H321.436C321.624 144.449 321.805 144.52 321.944 144.646C322.084 144.772 322.172 144.945 322.193 145.132L323.621 157.195C330.892 158.575 337.814 161.395 343.979 165.49L353.358 158.052C353.501 157.928 353.684 157.86 353.872 157.86C354.061 157.86 354.244 157.928 354.386 158.052L366.678 170.358C366.805 170.499 366.875 170.682 366.875 170.872C366.875 171.062 366.805 171.245 366.678 171.386L359.312 180.666C361.676 184.132 363.644 187.853 365.179 191.758L376.9 191.059C377.091 191.049 377.278 191.108 377.428 191.227C377.578 191.345 377.68 191.514 377.714 191.701L380.726 208.833C380.762 209.02 380.726 209.213 380.625 209.374C380.525 209.536 380.367 209.653 380.184 209.704L369.02 213.03C368.963 217.279 368.426 221.508 367.421 225.636L377.271 231.689C377.432 231.79 377.55 231.945 377.605 232.126C377.66 232.307 377.648 232.502 377.571 232.675L370.219 248.379C370.138 248.549 369.998 248.685 369.825 248.761C369.652 248.838 369.457 248.849 369.277 248.793L358.298 245.138C355.805 248.581 352.932 251.732 349.732 254.532L354.315 265.125C354.39 265.297 354.399 265.491 354.341 265.67C354.284 265.848 354.163 266 354.001 266.096L338.925 274.79C338.763 274.887 338.571 274.92 338.387 274.884C338.202 274.847 338.037 274.742 337.926 274.59L331.016 265.282C326.996 266.646 322.834 267.546 318.61 267.966L316.268 279.387C316.24 279.576 316.143 279.748 315.995 279.869C315.847 279.991 315.66 280.053 315.469 280.044V280.044ZM298.894 277.031L314.855 278.459L317.153 267.181C317.189 267.017 317.277 266.869 317.402 266.759C317.528 266.648 317.686 266.581 317.853 266.567C322.337 266.162 326.754 265.203 331.002 263.711C331.159 263.657 331.329 263.654 331.488 263.703C331.647 263.752 331.787 263.85 331.887 263.983L338.711 273.177L352.588 265.168L348.033 254.689C347.971 254.535 347.959 254.366 347.997 254.205C348.036 254.044 348.123 253.899 348.247 253.789C351.696 250.855 354.761 247.497 357.37 243.796C357.471 243.664 357.61 243.565 357.768 243.514C357.926 243.463 358.096 243.462 358.255 243.51L369.105 247.137L375.872 232.617L366.122 226.621C365.981 226.533 365.873 226.403 365.811 226.249C365.75 226.095 365.738 225.925 365.779 225.765C366.897 221.403 367.468 216.919 367.478 212.416C367.478 212.251 367.533 212.09 367.633 211.958C367.734 211.827 367.875 211.732 368.035 211.688L379.085 208.39L376.301 192.615L364.708 193.314C364.543 193.327 364.378 193.285 364.238 193.195C364.099 193.105 363.993 192.971 363.937 192.815C362.352 188.656 360.267 184.706 357.727 181.051C357.627 180.92 357.574 180.759 357.574 180.594C357.574 180.429 357.627 180.269 357.727 180.137L365.008 170.943L353.658 159.679L344.379 167.046C344.247 167.145 344.087 167.199 343.922 167.199C343.757 167.199 343.596 167.145 343.465 167.046C337.204 162.79 330.116 159.9 322.664 158.566C322.501 158.536 322.352 158.455 322.239 158.334C322.126 158.213 322.055 158.059 322.036 157.895L320.608 145.945H304.69L303.263 157.966C303.249 158.13 303.181 158.285 303.07 158.407C302.959 158.528 302.811 158.609 302.649 158.637C298.395 159.449 294.254 160.767 290.314 162.563C290.162 162.629 289.993 162.645 289.832 162.609C289.67 162.573 289.524 162.487 289.414 162.363L281.348 153.283L268.228 162.463L274.024 173.17C274.1 173.317 274.128 173.484 274.105 173.648C274.082 173.811 274.009 173.964 273.896 174.084C270.87 177.165 268.225 180.596 266.015 184.306C265.926 184.446 265.796 184.555 265.643 184.619C265.49 184.682 265.321 184.698 265.159 184.663L253.324 181.808L247.856 196.855L258.677 202.266C258.825 202.342 258.945 202.463 259.019 202.612C259.094 202.761 259.119 202.93 259.091 203.094C258.581 206.103 258.324 209.15 258.32 212.202C258.32 213.359 258.32 214.586 258.477 216.057C258.487 216.22 258.445 216.382 258.358 216.52C258.271 216.658 258.143 216.766 257.992 216.828L246.771 221.268L250.911 236.729L262.689 234.987C262.854 234.963 263.023 234.993 263.17 235.073C263.316 235.153 263.433 235.278 263.503 235.43C265.382 239.403 267.73 243.137 270.498 246.551C270.596 246.684 270.648 246.844 270.648 247.008C270.648 247.172 270.596 247.332 270.498 247.465L263.974 257.358L276.237 267.652L284.803 259.614C284.922 259.497 285.075 259.423 285.241 259.402C285.406 259.381 285.573 259.416 285.717 259.5C289.575 261.728 293.694 263.468 297.98 264.682C298.139 264.725 298.28 264.817 298.383 264.945C298.486 265.074 298.545 265.232 298.551 265.396L298.894 277.031ZM312.928 247.736C305.903 247.736 299.035 245.653 293.194 241.75C287.353 237.847 282.8 232.3 280.112 225.809C277.423 219.319 276.72 212.177 278.09 205.287C279.461 198.397 282.844 192.068 287.811 187.1C292.779 182.133 299.108 178.75 305.998 177.379C312.888 176.009 320.03 176.712 326.52 179.4C333.011 182.089 338.558 186.642 342.461 192.483C346.364 198.324 348.447 205.191 348.447 212.216C348.447 221.641 344.706 230.68 338.046 237.348C331.386 244.016 322.352 247.768 312.928 247.779V247.736ZM312.928 178.239C306.207 178.236 299.636 180.226 294.047 183.958C288.457 187.69 284.1 192.995 281.526 199.204C278.952 205.412 278.277 212.244 279.587 218.836C280.896 225.428 284.131 231.484 288.882 236.237C293.634 240.991 299.688 244.228 306.279 245.54C312.871 246.853 319.703 246.181 325.913 243.609C332.122 241.038 337.43 236.683 341.164 231.095C344.898 225.507 346.891 218.937 346.891 212.216C346.869 203.218 343.282 194.596 336.917 188.236C330.551 181.876 321.926 178.296 312.928 178.281V178.239Z" fill="#263238"/>
<path d="M312.369 296.676C293.175 296.629 274.59 289.934 259.775 277.731C259.302 277.339 259.003 276.775 258.946 276.163C258.888 275.552 259.076 274.942 259.468 274.469C259.86 273.996 260.424 273.697 261.035 273.64C261.647 273.582 262.257 273.77 262.73 274.162C276.452 285.507 293.64 291.82 311.443 292.054C329.246 292.288 346.594 286.43 360.61 275.45C374.626 264.471 384.468 249.03 388.503 231.689C392.538 214.348 390.524 196.148 382.795 180.109C382.636 179.831 382.536 179.524 382.501 179.207C382.466 178.889 382.497 178.567 382.591 178.262C382.686 177.957 382.843 177.674 383.052 177.432C383.26 177.19 383.517 176.994 383.805 176.855C384.093 176.717 384.406 176.639 384.726 176.627C385.045 176.615 385.364 176.668 385.661 176.785C385.959 176.901 386.23 177.078 386.456 177.303C386.683 177.529 386.86 177.799 386.978 178.096C393.051 190.71 395.823 204.66 395.033 218.639C394.243 232.617 389.917 246.166 382.462 258.016C375.006 269.866 364.664 279.629 352.404 286.391C340.145 293.152 326.37 296.691 312.369 296.676Z" fill="#263238"/>
<path d="M377.041 187.276L376.97 165.99L395.429 176.569L377.041 187.276Z" fill="#263238"/>
<path d="M116.201 498.941C156.941 498.941 189.967 490.632 189.967 480.382C189.967 470.132 156.941 461.822 116.201 461.822C75.4608 461.822 42.4346 470.132 42.4346 480.382C42.4346 490.632 75.4608 498.941 116.201 498.941Z" fill="#263238"/>
<path d="M271.601 464.936C271.601 464.108 271.701 463.28 271.701 462.423C271.701 442.436 252.928 426.275 229.757 426.275C206.587 426.275 187.799 442.465 187.799 462.423C187.799 463.28 187.799 464.108 187.913 464.936H271.601Z" fill="white"/>
<path d="M271.6 465.72H187.911C187.717 465.72 187.529 465.647 187.386 465.514C187.243 465.382 187.155 465.2 187.141 465.006C187.069 464.035 187.026 463.207 187.026 462.422C187.026 442.064 206.2 425.503 229.756 425.503C253.312 425.503 272.485 442.064 272.485 462.422C272.485 463.207 272.485 464.021 272.371 465.006C272.353 465.199 272.265 465.379 272.122 465.511C271.98 465.642 271.794 465.717 271.6 465.72V465.72ZM188.625 464.206H270.857C270.857 463.578 270.857 463.007 270.857 462.465C270.857 442.963 252.384 427.088 229.684 427.088C206.985 427.088 188.497 442.963 188.497 462.465C188.568 462.978 188.597 463.535 188.625 464.206Z" fill="#263238"/>
<path d="M271.601 468.374C271.601 467.546 271.701 466.704 271.701 465.862C271.701 445.875 252.928 429.714 229.757 429.714C206.587 429.714 187.799 445.903 187.799 465.862C187.799 466.704 187.799 467.546 187.913 468.374H271.601Z" fill="#263238"/>
<path d="M271.6 469.147H187.911C187.719 469.148 187.533 469.076 187.39 468.947C187.247 468.817 187.158 468.639 187.141 468.447C187.069 467.462 187.026 466.648 187.026 465.863C187.026 445.505 206.2 428.944 229.756 428.944C253.312 428.944 272.485 445.505 272.485 465.863C272.485 466.648 272.485 467.462 272.371 468.447C272.353 468.639 272.264 468.817 272.121 468.947C271.979 469.076 271.793 469.148 271.6 469.147ZM188.625 467.605H270.857C270.857 466.977 270.857 466.406 270.857 465.863C270.857 446.362 252.384 430.486 229.684 430.486C206.985 430.486 188.497 446.362 188.497 465.863C188.568 466.406 188.597 466.977 188.625 467.605V467.605Z" fill="#263238"/>
<path d="M139.616 235.141L168.469 280.754L200.176 262.909L202.104 278.384C202.104 278.384 171.567 302.411 167.312 304.31C163.058 306.209 155.32 305.095 153.393 302.768C151.465 300.441 135.233 242.922 135.233 242.922C135.233 242.922 132.378 232.057 139.616 235.141Z" fill="white"/>
<path d="M161.871 306.095C158.13 306.095 154.261 305.067 152.791 303.24C150.806 300.856 136.13 248.99 134.474 243.022C134.289 242.351 132.875 236.555 135.288 234.456C136.359 233.542 137.915 233.5 139.913 234.356C140.058 234.415 140.179 234.521 140.256 234.656L168.723 279.655L199.789 262.224C199.901 262.164 200.026 262.132 200.153 262.132C200.28 262.132 200.405 262.164 200.517 262.224C200.63 262.283 200.728 262.368 200.803 262.472C200.877 262.576 200.926 262.697 200.945 262.823L202.872 278.285C202.89 278.416 202.873 278.55 202.823 278.673C202.773 278.795 202.692 278.903 202.587 278.984C201.331 279.969 171.907 303.04 167.624 304.996C165.802 305.753 163.844 306.127 161.871 306.095V306.095ZM137.358 235.356C136.976 235.34 136.601 235.461 136.302 235.698C135.031 236.797 135.416 240.566 135.959 242.679C142.426 265.607 152.562 300.442 153.99 302.312C155.675 304.325 163.07 305.424 166.982 303.64C170.893 301.855 197.904 280.797 201.245 278.099L199.503 264.208L168.837 281.468C168.664 281.564 168.461 281.589 168.269 281.538C168.078 281.488 167.913 281.366 167.81 281.197L139.085 235.784C138.54 235.539 137.955 235.394 137.358 235.356V235.356Z" fill="#263238"/>
<path d="M198.632 260.653L176.589 274.572L188.31 297.386L206.741 277.285L204.813 256.013L198.632 260.653Z" fill="#F7A31C"/>
<path d="M188.312 298.158H188.212C188.09 298.136 187.975 298.088 187.873 298.017C187.772 297.945 187.688 297.852 187.627 297.744L175.906 274.902C175.815 274.73 175.792 274.53 175.843 274.342C175.893 274.154 176.012 273.992 176.177 273.888L198.192 260.054L204.345 255.443C204.454 255.358 204.585 255.304 204.722 255.286C204.86 255.269 205 255.289 205.127 255.345C205.254 255.4 205.364 255.489 205.445 255.602C205.526 255.715 205.575 255.847 205.587 255.986L207.514 277.257C207.528 277.364 207.517 277.472 207.482 277.573C207.448 277.675 207.39 277.767 207.314 277.843L188.883 297.958C188.807 298.028 188.716 298.082 188.618 298.117C188.52 298.151 188.416 298.165 188.312 298.158V298.158ZM177.605 274.845L188.498 296.045L205.944 277.015L204.173 257.47L199.091 261.268L177.605 274.845Z" fill="#263238"/>
<path d="M107.678 341.885L161.5 395.978C161.5 395.978 147.966 408.741 138.301 419.577C128.636 430.413 112.789 444.318 112.789 444.318L118.199 450.885C118.199 450.885 180.844 403.773 183.871 400.618C186.898 397.463 186.969 391.338 186.198 383.229C185.427 375.12 162.613 311.305 162.613 311.305L107.678 341.885Z" fill="#263238"/>
<path d="M118.197 451.67C118.082 451.669 117.969 451.643 117.865 451.594C117.762 451.545 117.67 451.473 117.597 451.385L112.186 444.803C112.058 444.649 111.996 444.451 112.012 444.251C112.028 444.051 112.121 443.865 112.272 443.733C112.429 443.604 128.204 429.728 137.727 419.063C146.178 409.598 157.714 398.534 160.398 395.964L107.132 342.427C107.048 342.344 106.984 342.243 106.945 342.132C106.905 342.021 106.891 341.902 106.904 341.785C106.923 341.666 106.969 341.552 107.038 341.453C107.108 341.355 107.198 341.273 107.304 341.214L162.354 310.634C162.457 310.588 162.569 310.564 162.682 310.564C162.795 310.564 162.907 310.588 163.01 310.634C163.114 310.677 163.209 310.741 163.287 310.822C163.366 310.903 163.427 310.999 163.467 311.105C164.395 313.703 186.309 375.092 187.095 383.201C187.923 391.938 187.78 397.991 184.553 401.232C181.327 404.473 121.295 449.643 118.739 451.57C118.575 451.664 118.384 451.699 118.197 451.67V451.67ZM113.914 444.404L118.382 449.829C124.778 445.003 180.585 402.931 183.44 400.075C186.295 397.22 186.295 391.338 185.538 383.301C184.825 375.877 165.023 320.056 162.296 312.418L109.003 342.07L162.111 395.436C162.253 395.587 162.334 395.785 162.339 395.992C162.328 396.201 162.242 396.399 162.097 396.549C161.954 396.678 148.477 409.398 138.94 420.091C130.317 429.67 116.769 441.82 113.814 444.404H113.914Z" fill="#263238"/>
<path d="M136.458 412.184L149.507 434.954L123.067 448.788C122.136 451.836 122.136 455.092 123.067 458.139C124.695 462.622 128.778 467.091 129.163 469.561C129.549 472.03 129.977 473.215 124.695 473.215C119.412 473.215 113.716 468.747 110.861 465.492C108.006 462.237 107.606 453.285 105.15 449.631C102.695 445.976 98.6402 440.679 101.895 435.797C105.15 430.914 111.646 430.086 111.646 430.086L136.458 412.184Z" fill="#F7A31C"/>
<path d="M124.668 473.958C118.814 473.958 112.861 468.947 110.263 465.977C108.607 464.093 107.75 460.595 106.922 457.212C106.471 454.727 105.658 452.322 104.509 450.073L103.981 449.288C101.426 445.519 97.9279 440.365 101.254 435.383C104.367 430.7 110.177 429.573 111.348 429.387L136.003 411.599C136.091 411.518 136.195 411.457 136.308 411.42C136.421 411.383 136.541 411.371 136.66 411.384C136.765 411.406 136.864 411.451 136.95 411.515C137.037 411.579 137.108 411.661 137.16 411.756L150.18 434.598C150.23 434.688 150.263 434.788 150.275 434.89C150.287 434.993 150.279 435.098 150.251 435.197C150.223 435.297 150.174 435.388 150.107 435.467C150.041 435.546 149.958 435.61 149.866 435.654L123.711 449.331C122.913 452.135 122.943 455.11 123.797 457.897C124.733 460.147 125.905 462.291 127.294 464.293C128.461 465.838 129.354 467.571 129.936 469.418V469.675C130.135 470.903 130.321 471.959 129.607 472.802C128.893 473.644 127.523 473.958 124.668 473.958ZM136.217 413.312L112.104 430.7C112.002 430.782 111.878 430.832 111.747 430.843C111.747 430.843 105.552 431.685 102.539 436.197C99.7981 440.308 102.825 444.763 105.252 448.375L105.794 449.174C107.061 451.579 107.952 454.165 108.435 456.84C109.206 460.038 110.02 463.351 111.419 464.949C114.56 468.547 120.056 472.416 124.668 472.416C126.823 472.416 128.094 472.202 128.437 471.788C128.779 471.374 128.565 470.803 128.437 469.918V469.661C127.871 468.032 127.057 466.501 126.024 465.121C124.567 463.023 123.342 460.773 122.369 458.411C121.371 455.198 121.371 451.758 122.369 448.546C122.395 448.45 122.442 448.36 122.506 448.284C122.57 448.207 122.65 448.146 122.74 448.103L148.438 434.641L136.217 413.312Z" fill="#263238"/>
<path d="M128.209 472.773C122.499 471.131 117.202 466.563 113.576 461.58C109.521 456.012 110.535 446.376 106.438 442.835C103.954 440.651 103.754 436.368 103.968 433.398C103.156 434.075 102.445 434.863 101.855 435.74C98.5999 440.622 102.669 445.919 105.11 449.574C107.551 453.228 107.965 462.18 110.821 465.435C113.676 468.69 119.386 473.158 124.654 473.158C125.852 473.223 127.053 473.093 128.209 472.773Z" fill="#263238"/>
<path d="M124.668 473.957C118.814 473.957 112.861 468.946 110.263 465.976C108.607 464.092 107.75 460.594 106.922 457.211C106.471 454.726 105.658 452.321 104.509 450.072L103.981 449.287C101.426 445.518 97.9279 440.365 101.254 435.382C101.885 434.439 102.65 433.593 103.524 432.869C103.64 432.774 103.781 432.714 103.931 432.696C104.08 432.678 104.231 432.704 104.367 432.769C104.504 432.838 104.618 432.948 104.692 433.083C104.766 433.218 104.797 433.373 104.781 433.526C104.609 435.939 104.652 440.279 106.993 442.32C109.335 444.362 110.049 447.917 110.862 451.729C111.59 455.126 112.29 458.638 114.203 461.194C118.2 466.69 123.383 470.659 128.479 472.101C128.639 472.141 128.782 472.233 128.885 472.362C128.988 472.491 129.046 472.65 129.05 472.815C129.053 472.978 129.004 473.139 128.912 473.274C128.821 473.409 128.689 473.513 128.537 473.571C127.277 473.914 125.97 474.044 124.668 473.957V473.957ZM103.253 435.411C103.018 435.675 102.803 435.956 102.611 436.253C99.8695 440.365 102.896 444.819 105.323 448.431L105.866 449.23C107.133 451.636 108.024 454.221 108.507 456.897C109.278 460.095 110.091 463.407 111.49 465.006C114.631 468.603 120.128 472.472 124.739 472.472H125.053C120.239 470.083 116.101 466.524 113.018 462.122C110.962 459.267 110.163 455.626 109.42 452.128C108.678 448.631 107.993 445.219 106.037 443.562C103.824 441.535 103.196 438.266 103.182 435.354L103.253 435.411Z" fill="#263238"/>
<path d="M103.253 335.534C103.253 335.534 113.689 354.75 121.812 365.957C132.634 380.905 152.221 403.718 152.221 403.718L149.137 476.028L158.802 477.185C158.802 477.185 176.205 406.045 176.591 400.235C176.976 394.424 151.45 339.917 151.45 339.917" fill="#263238"/>
<path d="M158.804 477.953H158.704L149.039 476.796C148.845 476.771 148.667 476.673 148.542 476.522C148.418 476.371 148.355 476.178 148.368 475.983L151.437 403.987C149.353 401.531 131.322 380.402 121.186 366.411C113.134 355.29 102.626 336.102 102.626 335.903C102.53 335.723 102.509 335.512 102.568 335.317C102.627 335.121 102.761 334.957 102.94 334.86C103.028 334.81 103.125 334.778 103.225 334.766C103.326 334.754 103.428 334.762 103.525 334.79C103.622 334.818 103.712 334.865 103.791 334.929C103.87 334.992 103.935 335.071 103.983 335.16C104.097 335.36 114.504 354.462 122.542 365.497C133.221 380.259 152.722 402.987 152.922 403.216C153.039 403.367 153.105 403.552 153.108 403.744L149.938 475.34L158.219 476.34C159.975 469.087 175.465 405.557 175.821 400.189C176.121 395.592 157.833 355.361 150.752 340.228C150.668 340.042 150.66 339.831 150.729 339.639C150.799 339.447 150.94 339.29 151.123 339.2C151.215 339.157 151.315 339.132 151.416 339.127C151.517 339.123 151.619 339.138 151.714 339.172C151.81 339.207 151.898 339.26 151.973 339.328C152.048 339.397 152.108 339.48 152.151 339.572C154.778 345.168 177.749 394.45 177.363 400.275C176.978 406.1 160.232 474.441 159.546 477.368C159.507 477.535 159.413 477.684 159.278 477.79C159.143 477.897 158.976 477.954 158.804 477.953V477.953Z" fill="#263238"/>
<path d="M176.417 404.243C176.211 404.243 176.014 404.163 175.867 404.018C175.72 403.874 175.636 403.678 175.632 403.472C175.546 383.086 167.066 366.839 158.043 349.636L156.373 346.438C156.324 346.333 156.298 346.219 156.298 346.103C156.298 345.987 156.324 345.872 156.373 345.767L160.927 335.431C160.968 335.337 161.026 335.252 161.099 335.181C161.172 335.11 161.259 335.054 161.353 335.016C161.448 334.978 161.55 334.96 161.652 334.961C161.754 334.962 161.854 334.984 161.948 335.024C162.042 335.064 162.127 335.123 162.198 335.196C162.269 335.269 162.325 335.355 162.363 335.45C162.401 335.545 162.419 335.646 162.418 335.748C162.417 335.85 162.395 335.951 162.355 336.045L158.072 346.038L159.5 348.894C168.594 366.268 177.174 382.672 177.274 403.43C177.274 403.635 177.193 403.833 177.049 403.98C176.905 404.127 176.709 404.211 176.503 404.215L176.417 404.243Z" fill="white"/>
<path d="M157.715 437.082H157.629C157.427 437.061 157.242 436.96 157.113 436.802C156.985 436.645 156.924 436.442 156.944 436.24C156.944 436.24 157.13 434.341 157.472 431.643C157.483 431.542 157.514 431.444 157.563 431.355C157.612 431.266 157.678 431.188 157.758 431.126C157.838 431.063 157.93 431.017 158.028 430.991C158.126 430.965 158.228 430.958 158.329 430.972C158.43 430.983 158.528 431.013 158.617 431.062C158.705 431.112 158.784 431.178 158.846 431.258C158.909 431.338 158.955 431.43 158.981 431.528C159.007 431.626 159.014 431.728 159 431.829C158.672 434.513 158.486 436.383 158.486 436.397C158.462 436.585 158.371 436.758 158.229 436.884C158.087 437.01 157.905 437.08 157.715 437.082V437.082Z" fill="white"/>
<path d="M158.914 427.274H158.814C158.713 427.261 158.615 427.229 158.527 427.178C158.438 427.127 158.361 427.059 158.3 426.978C158.239 426.897 158.194 426.804 158.17 426.705C158.145 426.606 158.141 426.503 158.157 426.403C159.128 419.479 160.041 415.11 160.884 413.425C161.136 413.058 161.309 412.643 161.392 412.206C161.476 411.768 161.468 411.318 161.369 410.884C160.984 410.071 159.556 409.714 158.171 409.371C157.904 409.331 157.653 409.216 157.448 409.039C157.243 408.862 157.093 408.631 157.015 408.372C156.729 407.258 158.014 406.087 159.87 404.317C161.217 403.192 162.416 401.902 163.439 400.477C163.653 400.12 163.596 399.949 163.568 399.891C163.311 399.106 161.255 398.25 159.285 397.436C156.433 396.416 153.763 394.946 151.376 393.082C147.236 389.455 128.748 360.674 120.995 348.468C120.887 348.295 120.85 348.086 120.892 347.886C120.935 347.686 121.054 347.511 121.224 347.397C121.31 347.342 121.406 347.305 121.507 347.287C121.607 347.269 121.71 347.272 121.81 347.294C121.91 347.317 122.004 347.359 122.087 347.418C122.17 347.478 122.241 347.553 122.295 347.64C138.37 372.938 149.62 389.498 152.389 391.897C154.645 393.654 157.172 395.033 159.87 395.98C162.611 397.122 164.596 397.936 165.067 399.392C165.164 399.704 165.191 400.034 165.144 400.358C165.097 400.681 164.978 400.99 164.796 401.262C163.704 402.814 162.413 404.216 160.955 405.431C160.087 406.164 159.293 406.982 158.585 407.872C160.298 408.3 162.069 408.757 162.74 410.228C162.958 410.87 163.026 411.554 162.939 412.227C162.853 412.9 162.614 413.544 162.24 414.111C161.712 415.153 160.812 418.18 159.656 426.603C159.63 426.783 159.541 426.949 159.406 427.072C159.27 427.194 159.096 427.266 158.914 427.274V427.274Z" fill="white"/>
<path d="M120.156 346.411C120.024 346.412 119.893 346.379 119.778 346.313C119.663 346.248 119.567 346.154 119.499 346.04L117.729 343.185C117.67 343.1 117.628 343.003 117.607 342.902C117.586 342.8 117.585 342.695 117.606 342.593C117.626 342.491 117.667 342.395 117.726 342.309C117.784 342.223 117.86 342.15 117.947 342.094C118.035 342.039 118.133 342.001 118.235 341.984C118.338 341.967 118.443 341.971 118.544 341.995C118.645 342.02 118.739 342.065 118.823 342.127C118.906 342.189 118.976 342.267 119.028 342.357L120.798 345.212C120.854 345.297 120.892 345.393 120.911 345.493C120.93 345.593 120.928 345.695 120.907 345.795C120.886 345.895 120.845 345.989 120.787 346.073C120.729 346.156 120.656 346.228 120.57 346.283C120.448 346.366 120.304 346.411 120.156 346.411V346.411Z" fill="white"/>
<path d="M147.752 437.966L173.107 440.107L166.226 475.798C167.18 477.841 168.555 479.66 170.26 481.136C171.964 482.612 173.961 483.712 176.119 484.364C183.415 486.506 186.427 487.791 186.427 491.231C186.427 494.672 183.415 495.514 171.394 496.813C159.373 498.112 146.895 493.387 146.895 493.387C146.895 493.387 141.313 492.516 140.885 488.661C140.457 484.807 146.467 474.042 146.467 474.042L147.752 437.966Z" fill="#F7A31C"/>
<path d="M167.008 497.811C160.071 497.709 153.196 496.485 146.65 494.185C145.879 494.056 140.54 492.971 140.069 488.803C139.64 484.948 144.708 475.597 145.651 473.898L146.936 437.993C146.94 437.886 146.966 437.782 147.013 437.686C147.06 437.59 147.126 437.505 147.207 437.436C147.284 437.368 147.375 437.316 147.473 437.284C147.571 437.252 147.675 437.241 147.778 437.25L173.133 439.392C173.239 439.4 173.343 439.431 173.437 439.482C173.53 439.534 173.612 439.606 173.675 439.692C173.739 439.779 173.785 439.878 173.81 439.984C173.834 440.089 173.837 440.199 173.818 440.306L167.037 475.625C167.96 477.516 169.261 479.197 170.86 480.564C172.458 481.932 174.32 482.958 176.331 483.577C183.269 485.619 187.195 486.975 187.195 491.187C187.195 495.398 183.112 496.298 171.491 497.54C170.003 497.709 168.506 497.8 167.008 497.811V497.811ZM148.449 438.792L147.178 474.069C147.181 474.195 147.146 474.32 147.078 474.426C145.451 477.281 141.268 485.605 141.596 488.574C141.953 491.801 146.907 492.614 146.964 492.614H147.107C147.235 492.614 159.542 497.254 171.248 495.998C183.183 494.727 185.525 493.913 185.525 491.187C185.525 488.46 183.083 487.218 175.76 485.062C173.486 484.378 171.384 483.217 169.594 481.656C167.804 480.095 166.368 478.171 165.381 476.011C165.339 475.871 165.339 475.722 165.381 475.583L172.091 440.762L148.449 438.792Z" fill="#263238"/>
<path d="M171.395 496.814C182.816 495.601 186.1 494.758 186.4 491.717C179.473 493.322 172.328 493.766 165.256 493.031C156.914 491.987 148.801 489.575 141.243 485.893C140.956 486.786 140.835 487.725 140.886 488.662C141.315 492.517 146.897 493.388 146.897 493.388C146.897 493.388 159.36 498.113 171.395 496.814Z" fill="#263238"/>
<path d="M167.011 497.814C160.073 497.713 153.198 496.488 146.653 494.188C145.882 494.06 140.542 492.975 140.071 488.806C140.016 487.774 140.142 486.74 140.442 485.751C140.473 485.641 140.528 485.54 140.602 485.454C140.676 485.368 140.767 485.298 140.871 485.251C140.975 485.198 141.09 485.171 141.206 485.171C141.323 485.171 141.438 485.198 141.542 485.251C149.026 488.886 157.056 491.268 165.312 492.304C172.293 493.053 179.35 492.614 186.184 491.004C186.305 490.977 186.43 490.98 186.55 491.012C186.669 491.044 186.779 491.105 186.869 491.19C186.959 491.27 187.029 491.369 187.074 491.481C187.119 491.592 187.136 491.713 187.126 491.832C186.755 495.63 182.529 496.444 171.422 497.629C169.956 497.767 168.483 497.829 167.011 497.814V497.814ZM141.77 487.05C141.654 487.56 141.616 488.084 141.656 488.606C142.013 491.832 146.967 492.646 147.024 492.646H147.167C147.295 492.646 159.601 497.286 171.308 496.03C180.73 495.03 184.157 494.288 185.256 492.732C178.657 494.169 171.867 494.521 165.155 493.774C157.053 492.783 149.161 490.513 141.77 487.05V487.05Z" fill="#263238"/>
<path d="M102.936 244.535C102.936 244.535 73.5983 259.497 66.8455 266.835C60.0928 274.173 65.4179 280.911 68.0162 288.535C70.6145 296.158 105.035 339.83 107.676 341.886C110.317 343.942 123.808 337.489 142.011 329.565C160.213 321.642 164.596 318.415 164.596 314.018C164.596 309.621 141.069 238.353 139.612 235.141C138.156 231.929 110.56 240.066 102.936 244.535Z" fill="white"/>
<path d="M109.207 343.044C108.499 343.09 107.796 342.899 107.208 342.502C105.138 340.889 70.0897 296.817 67.2344 288.794C66.7205 287.366 66.0923 285.853 65.4927 284.425C63.0229 278.601 60.4674 272.562 66.2208 266.309C72.9593 258.985 101.07 244.58 102.511 243.852C109.735 239.697 134.005 232.259 139.059 233.858C139.317 233.92 139.558 234.038 139.765 234.204C139.972 234.369 140.14 234.577 140.258 234.815C141.886 238.384 165.313 309.566 165.313 314.006C165.313 318.946 160.574 322.286 142.257 330.267C139.744 331.352 137.317 332.423 135.005 333.451C121.156 339.575 113.076 343.03 109.207 343.044ZM137.303 235.1C131.236 235.1 110.578 241.011 103.325 245.208C103.04 245.351 74.03 260.184 67.4629 267.337C62.3805 272.862 64.5219 277.93 67.0203 283.812C67.6342 285.239 68.2624 286.752 68.7906 288.28C71.5459 296.246 106.152 339.675 108.193 341.26C110.235 342.844 121.942 337.548 134.476 332.023L141.743 328.839C158.875 321.373 163.872 318.032 163.872 314.006C163.872 310.237 140.901 239.769 138.945 235.486C138.702 235.215 138.088 235.1 137.303 235.1V235.1Z" fill="#263238"/>
<path d="M94.8772 302.882L114.536 303.667L88.1244 298.499C88.1244 298.499 69.6365 290.233 69.6365 280.397C69.6365 270.56 81.0576 267.034 81.0576 267.034L108.997 259.553L110.967 242.25C110.524 242.25 109.254 242.25 107.483 242.364C105.917 242.991 104.391 243.716 102.915 244.534C102.915 244.534 73.5768 259.496 66.824 266.834C60.0713 274.172 65.3964 280.911 67.9947 288.534C70.593 296.158 105.013 339.829 107.655 341.885C110.296 343.941 123.787 337.488 141.989 329.565L142.56 329.308C137.335 330.364 120.56 334.476 115.292 329.964C109.796 325.239 98.3892 313.446 98.3892 313.446L140.862 313.832L94.8772 302.882Z" fill="#F7A31C"/>
<path opacity="0.5" d="M94.8772 302.882L114.536 303.667L88.1244 298.499C88.1244 298.499 69.6365 290.233 69.6365 280.397C69.6365 270.56 81.0576 267.034 81.0576 267.034L108.997 259.553L110.967 242.25C110.524 242.25 109.254 242.25 107.483 242.364C105.917 242.991 104.391 243.716 102.915 244.534C102.915 244.534 73.5768 259.496 66.824 266.834C60.0713 274.172 65.3964 280.911 67.9947 288.534C70.593 296.158 105.013 339.829 107.655 341.885C110.296 343.941 123.787 337.488 141.989 329.565L142.56 329.308C137.335 330.364 120.56 334.476 115.292 329.964C109.796 325.239 98.3892 313.446 98.3892 313.446L140.862 313.832L94.8772 302.882Z" fill="white"/>
<path d="M94.7285 248.875C98.2736 254.17 102.865 258.684 108.22 262.138C117.599 268.006 123.767 266.835 126.993 260.953C129.634 256.156 125.409 241.937 123.781 236.926C115.686 239.124 106.778 242.308 102.937 244.535C102.937 244.535 99.5397 246.277 94.7285 248.875Z" fill="#263238"/>
<path d="M118.971 266.762C115.773 266.762 112.033 265.434 107.807 262.793C102.371 259.267 97.7047 254.678 94.0875 249.302C94.025 249.214 93.9824 249.114 93.9627 249.008C93.943 248.902 93.9466 248.792 93.9733 248.688C94.0003 248.583 94.0484 248.484 94.1146 248.399C94.1809 248.313 94.264 248.241 94.3587 248.188C99.0985 245.619 102.553 243.905 102.582 243.834C106.322 241.678 114.974 238.523 123.568 236.168C123.761 236.118 123.966 236.143 124.141 236.238C124.316 236.334 124.448 236.492 124.511 236.682C126.381 242.392 130.421 256.34 127.666 261.337C127.058 262.572 126.198 263.665 125.14 264.546C124.082 265.426 122.851 266.074 121.527 266.448C120.692 266.662 119.833 266.768 118.971 266.762V266.762ZM95.8435 249.145C99.2894 254.048 103.653 258.237 108.692 261.48C113.746 264.635 117.958 265.763 121.213 264.949C122.332 264.624 123.371 264.067 124.262 263.315C125.152 262.562 125.874 261.63 126.381 260.58C128.793 256.226 124.953 242.892 123.34 237.867C115.202 240.122 106.908 243.163 103.353 245.205C103.253 245.233 100.169 246.804 95.8435 249.145V249.145Z" fill="#263238"/>
<path d="M121.412 233.384C120.754 234.143 120.258 235.028 119.956 235.986C119.654 236.944 119.552 237.953 119.656 238.952C120.241 241.893 123.182 253.328 122.882 257.14C122.583 260.952 119.071 261.552 111.732 258.568C104.394 255.584 99.7117 247.147 98.5268 245.077C97.3418 243.007 92.6592 230.7 92.6592 230.7L95.8857 228.645C95.8857 228.645 99.1264 233.627 107.036 233.627C114.945 233.627 120.541 229.515 121.412 231.286C122.283 233.056 121.412 233.384 121.412 233.384Z" fill="white"/>
<path d="M119.039 261.252C116.412 261.071 113.839 260.418 111.444 259.325C106.533 257.369 102.007 252.772 97.9526 245.676L97.8527 245.505C96.6677 243.421 92.1421 231.514 91.9422 231.014C91.8803 230.849 91.8762 230.667 91.9306 230.498C91.985 230.33 92.0948 230.185 92.242 230.086L95.4685 228.031C95.6416 227.922 95.8503 227.885 96.0502 227.927C96.2502 227.97 96.4256 228.089 96.5392 228.259C96.6677 228.445 99.6658 232.899 107.032 232.899C110.446 232.8 113.821 232.149 117.026 230.972C119.539 230.144 121.309 229.544 122.08 230.972C122.301 231.315 122.446 231.701 122.505 232.105C122.564 232.509 122.536 232.921 122.422 233.313C122.316 233.58 122.132 233.809 121.894 233.97C121.331 234.628 120.907 235.394 120.647 236.221C120.387 237.048 120.296 237.918 120.381 238.781C120.509 239.409 120.738 240.408 121.023 241.636C122.08 246.29 123.879 254.071 123.622 257.183C123.623 257.848 123.459 258.502 123.145 259.087C122.832 259.673 122.377 260.171 121.823 260.538C120.983 261.04 120.016 261.287 119.039 261.252V261.252ZM93.6126 231.057C94.5548 233.527 98.2096 243.007 99.1946 244.734L99.2946 244.905C103.163 251.701 107.446 256.07 112.015 257.897C117.654 260.138 120.024 259.867 121.038 259.239C121.381 258.997 121.659 258.673 121.846 258.297C122.033 257.92 122.123 257.503 122.108 257.083C122.337 254.228 120.509 246.262 119.539 241.993C119.253 240.751 119.025 239.737 118.896 239.138C118.766 238.02 118.871 236.887 119.206 235.812C119.54 234.738 120.096 233.745 120.838 232.899C120.889 232.835 120.952 232.782 121.023 232.742C121.03 232.372 120.926 232.009 120.723 231.7C119.622 231.777 118.541 232.037 117.526 232.471C114.159 233.701 110.615 234.376 107.032 234.469C104.913 234.567 102.799 234.193 100.842 233.376C98.8844 232.559 97.1322 231.319 95.7112 229.744L93.6126 231.057Z" fill="#263238"/>
<path d="M107.907 246.207L121.413 233.358L120.985 230.945C119.357 230.36 114.146 233.644 107.037 233.644C99.1274 233.644 95.8866 228.661 95.8866 228.661L92.6602 230.717C92.6602 230.717 97.3571 243.037 98.5278 245.093C99.6984 247.149 104.395 255.658 111.733 258.585C112.476 258.884 113.161 259.141 113.846 259.355L107.907 246.207Z" fill="#F7A31C"/>
<path opacity="0.5" d="M107.907 246.207L121.413 233.358L120.985 230.945C119.357 230.36 114.146 233.644 107.037 233.644C99.1274 233.644 95.8866 228.661 95.8866 228.661L92.6602 230.717C92.6602 230.717 97.3571 243.037 98.5278 245.093C99.6984 247.149 104.395 255.658 111.733 258.585C112.476 258.884 113.161 259.141 113.846 259.355L107.907 246.207Z" fill="white"/>
<path d="M80.6396 221.049L86.7928 228.972L94.7162 225.746L88.8486 214.896L80.6396 221.049Z" fill="#263238"/>
<path d="M86.7924 229.747C86.6774 229.748 86.5635 229.723 86.4596 229.674C86.3557 229.624 86.2645 229.552 86.1928 229.461L80.0254 221.509C79.9618 221.427 79.9151 221.333 79.8882 221.233C79.8612 221.132 79.8545 221.027 79.8684 220.924C79.9012 220.722 80.008 220.538 80.1682 220.41L88.3914 214.257C88.4791 214.189 88.5809 214.14 88.6895 214.115C88.7981 214.091 88.9108 214.09 89.0196 214.114C89.1279 214.138 89.2299 214.184 89.3186 214.251C89.4073 214.317 89.4806 214.402 89.5335 214.5L95.4011 225.35C95.486 225.556 95.486 225.787 95.4011 225.992C95.3664 226.093 95.3101 226.185 95.2361 226.261C95.1621 226.338 95.0722 226.397 94.9728 226.435L87.0494 229.661C86.9697 229.705 86.8826 229.734 86.7924 229.747V229.747ZM81.7243 221.181L87.0494 228.02L93.6308 225.336L88.5913 216.027L81.7243 221.181Z" fill="#263238"/>
<path d="M91.2036 224.363C91.2036 224.363 82.395 212.613 82.6377 209.101C82.8804 205.589 101.268 192.241 106.265 193.126C111.262 194.011 119.114 208.944 119.114 208.944L123.525 213.356L122.098 217.467C122.098 217.467 129.621 227.875 128.736 229.345C127.851 230.816 121.113 234.913 112.889 236.683C104.666 238.454 96.7571 233.157 96.7571 233.157C96.7571 233.157 91.1893 235.498 88.8337 234.042C86.4781 232.586 83.2659 227.289 83.8512 226.119C84.4366 224.948 91.2036 224.363 91.2036 224.363Z" fill="white"/>
<path d="M109.405 237.74C104.915 237.594 100.538 236.291 96.6993 233.957C95.2716 234.499 90.7603 236.07 88.4475 234.628C86.1347 233.186 82.2516 227.49 83.1652 225.705C83.722 224.577 86.82 223.978 89.7752 223.649C87.491 220.509 81.652 212.128 81.9232 208.959C82.0945 206.817 86.6772 202.991 89.3898 200.893C93.6727 197.623 102.653 191.613 106.521 192.327C111.632 193.226 118.813 206.461 119.856 208.445L124.139 212.728C124.245 212.831 124.318 212.964 124.349 213.109C124.379 213.254 124.366 213.404 124.31 213.542L122.982 217.268C128.007 224.249 130.12 228.418 129.435 229.66C128.407 231.359 121.44 235.556 113.089 237.355C111.877 237.609 110.643 237.738 109.405 237.74ZM96.7707 232.315C96.9231 232.314 97.0724 232.359 97.199 232.444C97.2846 232.444 104.951 237.526 112.746 235.856C121.155 234.057 127.436 229.96 128.093 228.875C128.193 227.904 124.752 222.364 121.483 217.853C121.408 217.752 121.36 217.634 121.343 217.509C121.325 217.384 121.339 217.257 121.383 217.139L122.682 213.485L118.614 209.43C118.558 209.369 118.51 209.302 118.471 209.23C116.344 205.176 109.905 194.483 106.179 193.812C103.866 193.412 96.8992 197.052 90.332 202.121C85.7065 205.675 83.5364 208.231 83.4651 209.087C83.2652 211.443 88.4761 219.381 91.8167 223.821C91.8991 223.932 91.9505 224.064 91.9655 224.202C91.9806 224.34 91.9588 224.479 91.9024 224.606C91.8469 224.732 91.7575 224.84 91.644 224.918C91.5306 224.996 91.3976 225.042 91.26 225.048C88.0478 225.334 84.9498 225.962 84.5215 226.476C84.3787 227.304 87.0199 231.958 89.2613 233.357C90.9031 234.385 95.1289 232.986 96.3995 232.415C96.5123 232.35 96.6403 232.315 96.7707 232.315V232.315Z" fill="#263238"/>
<path d="M112.901 236.611C116.118 235.905 119.248 234.852 122.238 233.47C121.96 233.458 121.684 233.43 121.41 233.385C117.94 232.685 107.904 230.429 104.021 225.575C102.309 223.267 100.357 221.147 98.1961 219.251L119.925 209.643L119.154 208.872C119.154 208.872 111.302 193.939 106.305 193.054C101.308 192.169 82.9632 205.503 82.6777 209.029C82.3921 212.555 91.2435 224.276 91.2435 224.276C91.2435 224.276 84.4908 224.876 83.9054 226.047C83.3201 227.217 86.5466 232.5 88.8879 233.97C91.2292 235.44 96.8113 233.085 96.8113 233.085C96.8113 233.085 104.692 238.367 112.901 236.611Z" fill="#F7A31C"/>
<path opacity="0.5" d="M112.901 236.611C116.118 235.905 119.248 234.852 122.238 233.47C121.96 233.458 121.684 233.43 121.41 233.385C117.94 232.685 107.904 230.429 104.021 225.575C102.309 223.267 100.357 221.147 98.1961 219.251L119.925 209.643L119.154 208.872C119.154 208.872 111.302 193.939 106.305 193.054C101.308 192.169 82.9632 205.503 82.6777 209.029C82.3921 212.555 91.2435 224.276 91.2435 224.276C91.2435 224.276 84.4908 224.876 83.9054 226.047C83.3201 227.217 86.5466 232.5 88.8879 233.97C91.2292 235.44 96.8113 233.085 96.8113 233.085C96.8113 233.085 104.692 238.367 112.901 236.611Z" fill="white"/>
<path d="M192.12 226.632L224.699 440.521L228.796 439.936L197.388 226.332C195.652 225.807 193.786 225.913 192.12 226.632V226.632Z" fill="#263238"/>
<path d="M224.701 441.365C224.515 441.367 224.335 441.302 224.193 441.181C224.051 441.06 223.958 440.892 223.93 440.708L191.366 226.747C191.341 226.571 191.377 226.392 191.468 226.239C191.559 226.086 191.699 225.968 191.866 225.905C193.719 225.107 195.8 225.011 197.719 225.634C197.84 225.686 197.946 225.769 198.026 225.874C198.106 225.979 198.157 226.103 198.176 226.234L229.584 439.823C229.6 439.925 229.595 440.029 229.571 440.13C229.546 440.23 229.502 440.325 229.441 440.408C229.313 440.568 229.13 440.675 228.927 440.708L224.815 441.293L224.701 441.365ZM192.993 227.219L225.344 439.652L227.928 439.28L196.72 226.933C195.474 226.702 194.189 226.8 192.993 227.219Z" fill="#263238"/>
<path d="M193.009 253.045C193.009 253.045 186.556 251.617 186.556 255.386C186.556 259.155 185.971 265.651 188.312 267.121C190.654 268.592 193.595 268.006 193.894 264.48C194.194 260.954 193.894 252.159 193.009 253.045Z" fill="#F7A31C"/>
<path d="M190.738 268.618C189.723 268.602 188.734 268.3 187.883 267.747C185.527 266.319 185.627 261.508 185.727 257.311C185.727 256.612 185.727 255.955 185.727 255.355C185.71 254.89 185.802 254.427 185.995 254.003C186.189 253.579 186.478 253.206 186.84 252.914C188.596 251.486 191.851 252 192.865 252.2C193.055 252.137 193.26 252.137 193.45 252.2C195.164 252.985 194.607 264.349 194.607 264.464C194.6 265.218 194.395 265.957 194.012 266.606C193.628 267.255 193.08 267.792 192.422 268.161C191.904 268.442 191.327 268.598 190.738 268.618V268.618ZM190.41 253.499C189.514 253.431 188.62 253.646 187.854 254.113C187.67 254.261 187.526 254.451 187.434 254.668C187.342 254.885 187.305 255.121 187.326 255.355C187.326 255.955 187.326 256.64 187.326 257.34C187.254 260.566 187.154 265.434 188.753 266.434C189.191 266.752 189.701 266.956 190.237 267.026C190.773 267.096 191.319 267.029 191.823 266.833C192.24 266.58 192.582 266.22 192.815 265.791C193.048 265.363 193.164 264.88 193.151 264.392C193.393 260.838 193.264 257.269 192.765 253.742C191.989 253.591 191.2 253.519 190.41 253.528V253.499Z" fill="#263238"/>
<path d="M196.793 269.004C196.793 269.004 196.565 273.616 197.45 274.073C198.335 274.529 210.17 273.616 210.613 272.645C211.055 271.674 210.841 268.034 209.956 267.805C209.071 267.577 197.892 267.862 196.793 269.004Z" fill="#F7A31C"/>
<path d="M199.131 274.972C198.443 275.02 197.752 274.947 197.089 274.758C196.218 274.301 195.847 272.359 196.018 268.976C196.02 268.79 196.091 268.612 196.218 268.476C197.731 266.892 209.538 266.949 210.152 267.049C210.368 267.12 210.564 267.24 210.727 267.398C210.89 267.556 211.016 267.749 211.094 267.962C211.687 269.569 211.761 271.322 211.308 272.973C211.196 273.15 211.05 273.303 210.879 273.423C210.707 273.543 210.513 273.628 210.309 273.673C206.637 274.485 202.891 274.92 199.131 274.972V274.972ZM197.86 273.387C201.926 273.454 205.987 273.066 209.966 272.231C210.165 271.01 210.057 269.759 209.652 268.59C208.225 268.405 199.316 268.733 197.546 269.447C197.44 270.769 197.546 272.099 197.86 273.387Z" fill="#263238"/>
<path d="M193.309 263.008C193.309 263.008 193.024 268.875 194.137 269.46C195.251 270.046 210.37 268.875 210.926 267.704C211.483 266.534 211.198 261.837 210.084 261.551C208.97 261.266 194.708 261.551 193.309 263.008Z" fill="#F7A31C"/>
<path d="M196.189 270.39C195.376 270.449 194.56 270.367 193.776 270.147C192.491 269.476 192.348 265.864 192.52 263.009C192.53 262.822 192.606 262.645 192.734 262.509C194.547 260.61 209.509 260.625 210.28 260.824C210.523 260.906 210.746 261.042 210.929 261.223C211.112 261.404 211.251 261.624 211.336 261.867C212.057 263.855 212.156 266.016 211.621 268.063C211.357 268.472 210.941 268.759 210.465 268.862C205.767 269.835 200.986 270.347 196.189 270.39V270.39ZM194.062 263.423C193.872 265.236 194.036 267.069 194.547 268.819C195.818 269.19 208.595 268.191 210.251 267.263C210.636 266.164 210.322 262.737 209.78 262.252C208.409 261.967 196.132 262.423 194.062 263.423V263.423Z" fill="#263238"/>
<path d="M192.722 256.556C192.722 256.556 192.422 262.423 193.593 263.009C194.763 263.594 210.61 262.423 211.196 261.253C211.781 260.082 211.495 255.385 210.325 255.085C209.154 254.785 194.178 255.085 192.722 256.556Z" fill="#F7A31C"/>
<path d="M195.724 263.865C194.897 263.908 194.068 263.856 193.254 263.708C191.912 263.037 191.826 259.425 191.941 256.57C191.953 256.377 192.034 256.194 192.169 256.056C194.068 254.157 209.715 254.185 210.514 254.385C210.774 254.469 211.011 254.612 211.207 254.803C211.403 254.993 211.552 255.227 211.642 255.485C212.373 257.457 212.463 259.611 211.899 261.638C211.142 263.122 200.649 263.865 195.724 263.865ZM193.468 256.984C193.382 259.511 193.611 261.966 193.996 262.352C195.267 262.737 208.858 261.709 210.557 260.795C210.942 259.725 210.628 256.255 210.057 255.813C208.844 255.556 195.667 255.956 193.468 256.984Z" fill="#263238"/>
<path d="M191.836 250.061C191.836 250.061 191.536 255.928 192.721 256.514C193.906 257.099 209.738 255.928 210.324 254.758C210.909 253.587 210.609 248.89 209.438 248.59C208.268 248.29 193.306 248.633 191.836 250.061Z" fill="#F7A31C"/>
<path d="M194.838 257.414C193.999 257.44 193.161 257.368 192.339 257.199C190.997 256.528 190.912 252.916 191.04 250.061C191.05 249.872 191.131 249.693 191.269 249.561C193.153 247.663 208.8 247.691 209.599 247.891C209.86 247.975 210.097 248.118 210.292 248.308C210.488 248.499 210.637 248.733 210.727 248.99C211.459 250.963 211.548 253.117 210.984 255.144C210.256 256.657 199.763 257.414 194.838 257.414ZM192.596 250.532C192.401 252.338 192.576 254.164 193.11 255.9C194.395 256.286 207.986 255.244 209.685 254.344C210.071 253.273 209.685 249.804 209.185 249.362C208.043 249.105 194.795 249.49 192.596 250.532Z" fill="#263238"/>
<path d="M64.0654 277.286C64.4652 286.137 72.1316 292.433 76.9142 295.503C79.0873 296.902 81.6254 297.627 84.2095 297.587L169.497 296.459V277.686L77.3711 264.837C77.3711 264.837 70.0473 265.122 68.0771 270.633" fill="white"/>
<path d="M84.0086 298.358C81.3347 298.366 78.716 297.597 76.4707 296.145C71.7309 293.09 63.7218 286.58 63.2935 277.315C63.2857 277.109 63.3592 276.908 63.4981 276.756C63.637 276.604 63.8301 276.512 64.0359 276.501C64.1376 276.495 64.2395 276.51 64.3353 276.544C64.4312 276.579 64.5191 276.633 64.5937 276.702C64.6684 276.771 64.7283 276.855 64.7698 276.948C64.8113 277.041 64.8336 277.141 64.8354 277.243C65.2351 285.809 72.8159 291.962 77.313 294.846C79.3483 296.186 81.7438 296.873 84.1799 296.816L168.768 295.703V278.357L77.2987 265.508C77.3701 265.508 70.6173 265.865 68.8471 270.805C68.8134 270.9 68.7613 270.988 68.6935 271.064C68.6258 271.139 68.5438 271.201 68.4523 271.245C68.3608 271.288 68.2615 271.314 68.1602 271.319C68.0589 271.324 67.9576 271.31 67.862 271.276C67.6699 271.202 67.5138 271.057 67.426 270.871C67.3383 270.684 67.3257 270.472 67.3909 270.276C69.5038 264.352 77.056 263.98 77.3843 263.98L169.639 276.829C169.824 276.857 169.994 276.949 170.117 277.091C170.24 277.232 170.308 277.413 170.31 277.6V296.459C170.31 296.661 170.23 296.855 170.089 296.999C169.947 297.144 169.755 297.227 169.553 297.23L84.1942 298.358H84.0086Z" fill="#263238"/>
<path d="M77.4139 264.78C77.4139 264.78 70.0901 265.066 68.1199 270.576L64.0654 277.286C64.4652 286.138 72.1316 292.434 76.9142 295.503C79.0873 296.902 81.6254 297.627 84.2095 297.587L169.497 296.46V282.183C167.726 280.156 166.042 278.3 164.885 277.029L162.93 276.744L158.547 291.791C158.547 291.791 107.409 290.621 92.0758 287.865C76.7429 285.11 72.0174 281.969 71.6177 274.888C71.5362 272.829 72.0368 270.788 73.062 269C74.0872 267.213 75.5955 265.75 77.4139 264.78V264.78Z" fill="#F7A31C"/>
<path opacity="0.5" d="M77.4139 264.78C77.4139 264.78 70.0901 265.066 68.1199 270.576L64.0654 277.286C64.4652 286.138 72.1316 292.434 76.9142 295.503C79.0873 296.902 81.6254 297.627 84.2095 297.587L169.497 296.46V282.183C167.726 280.156 166.042 278.3 164.885 277.029L162.93 276.744L158.547 291.791C158.547 291.791 107.409 290.621 92.0758 287.865C76.7429 285.11 72.0174 281.969 71.6177 274.888C71.5362 272.829 72.0368 270.788 73.062 269C74.0872 267.213 75.5955 265.75 77.4139 264.78V264.78Z" fill="white"/>
<path d="M163.371 275.343L162.786 302.882L190.911 297.057C190.911 297.057 205.287 298.228 208.513 297.942C211.74 297.657 214.381 292.946 214.381 290.604V285.322C215.023 284.846 215.543 284.226 215.9 283.512C216.258 282.798 216.441 282.009 216.437 281.21C216.151 278.869 211.454 277.399 211.454 277.399C211.454 277.399 197.963 274.458 194.137 275.343C190.311 276.228 163.371 275.343 163.371 275.343Z" fill="#F7A31C"/>
<path d="M162.785 303.697C162.608 303.7 162.435 303.639 162.299 303.526C162.21 303.45 162.139 303.356 162.09 303.25C162.04 303.144 162.014 303.029 162.014 302.912L162.599 275.33C162.61 275.126 162.696 274.932 162.842 274.788C162.911 274.711 162.998 274.651 163.094 274.614C163.191 274.577 163.295 274.563 163.398 274.574C172.707 274.873 191.066 275.273 194.007 274.574C197.947 273.66 211.139 276.515 211.653 276.629C212.167 276.744 216.906 278.343 217.249 281.098C217.298 281.982 217.136 282.866 216.776 283.675C216.416 284.484 215.869 285.196 215.179 285.752V290.677C215.179 293.247 212.324 298.429 208.598 298.786C205.471 299.072 192.422 298.03 190.981 297.916L162.913 303.755L162.785 303.697ZM164.127 276.144L163.584 301.97L190.795 296.259H191.023C191.166 296.259 205.3 297.416 208.483 297.145C211.267 296.888 213.651 292.576 213.651 290.577V285.295C213.651 285.175 213.68 285.057 213.735 284.95C213.789 284.844 213.868 284.751 213.966 284.681C213.966 284.681 215.95 283.139 215.722 281.283C215.536 279.856 212.638 278.542 211.267 278.114C207.627 277.329 197.348 275.373 194.364 276.073C190.809 276.915 168.681 276.287 164.127 276.144Z" fill="#263238"/>
<path d="M76.8252 224.576L126.107 201.991C126.107 201.991 128.163 200.563 124.937 200.221C121.689 200.209 118.448 200.505 115.257 201.106C115.257 201.106 104.85 186.301 102.794 185.716C100.738 185.13 99.5675 185.716 99.282 186.901L98.9822 188.071C98.9822 188.071 82.1075 192.882 75.6402 201.391C69.173 209.9 76.8252 224.576 76.8252 224.576Z" fill="#F7A31C"/>
<path d="M76.8273 225.348C76.6861 225.348 76.5475 225.31 76.4267 225.237C76.3059 225.164 76.2074 225.059 76.142 224.934C75.8137 224.32 68.3614 209.729 75.0285 200.935C81.0674 192.983 95.5865 188.286 98.3419 187.458L98.5274 186.701C98.6034 186.371 98.7465 186.06 98.9479 185.787C99.1493 185.515 99.4047 185.286 99.6981 185.117C100.213 184.874 100.771 184.736 101.34 184.712C101.908 184.687 102.476 184.777 103.01 184.974C105.08 185.574 112.832 196.395 115.602 200.264C118.703 199.677 121.855 199.404 125.01 199.45C125.952 199.536 127.223 199.764 127.494 200.75C127.766 201.735 126.766 202.477 126.566 202.62H126.438L77.1414 225.205C77.052 225.281 76.9433 225.33 76.8273 225.348V225.348ZM101.34 186.259C101.042 186.247 100.746 186.316 100.483 186.459C100.366 186.524 100.265 186.614 100.186 186.723C100.107 186.831 100.053 186.955 100.026 187.087L99.7409 188.258C99.7066 188.39 99.6385 188.51 99.5434 188.608C99.4483 188.705 99.3294 188.777 99.1984 188.814C99.0271 188.814 82.4807 193.668 76.2705 201.863C70.9311 208.901 75.8422 220.651 77.1842 223.563L125.724 201.321L125.881 201.178C125.555 201.082 125.22 201.02 124.882 200.992C121.706 200.986 118.537 201.277 115.416 201.863C115.271 201.89 115.122 201.875 114.985 201.819C114.848 201.763 114.73 201.67 114.646 201.549C109.663 194.411 103.795 186.901 102.596 186.459C102.188 186.337 101.766 186.27 101.34 186.259V186.259Z" fill="#263238"/>
<path d="M100.624 210.087C100.494 210.086 100.366 210.052 100.251 209.99C100.137 209.928 100.039 209.839 99.9672 209.73C99.5103 209.016 95.4844 202.592 95.4844 199.594C95.4844 196.867 99.182 194.554 100.809 193.669L98.9678 189.986C98.877 189.797 98.865 189.579 98.9346 189.381C99.0042 189.183 99.1497 189.02 99.339 188.93C99.5283 188.839 99.746 188.827 99.9441 188.896C100.142 188.966 100.305 189.111 100.395 189.301L102.594 193.669C102.673 193.861 102.673 194.077 102.594 194.269C102.563 194.367 102.512 194.458 102.443 194.534C102.374 194.61 102.289 194.671 102.194 194.711C100.867 195.354 97.0548 197.567 97.0548 199.594C97.0548 201.793 100.124 207.046 101.338 208.888C101.445 209.063 101.48 209.273 101.435 209.473C101.389 209.673 101.267 209.847 101.095 209.959C100.953 210.045 100.79 210.089 100.624 210.087Z" fill="#263238"/>
<path d="M84.6072 216.881C84.4684 216.878 84.3325 216.84 84.2126 216.77C84.0926 216.7 83.9926 216.601 83.922 216.481C83.7649 216.181 79.9531 209.214 79.9531 205.417C80.0834 202.807 81.0893 200.318 82.8084 198.35C82.9528 198.207 83.1477 198.127 83.3509 198.127C83.5541 198.127 83.749 198.207 83.8934 198.35C84.0373 198.497 84.1179 198.694 84.1179 198.9C84.1179 199.105 84.0373 199.303 83.8934 199.449C82.4318 201.132 81.564 203.249 81.4236 205.474C81.4236 208.872 85.1783 215.71 85.2069 215.782C85.2573 215.871 85.2896 215.969 85.3018 216.07C85.314 216.171 85.3059 216.274 85.278 216.373C85.2501 216.471 85.2029 216.563 85.1393 216.643C85.0756 216.723 84.9966 216.789 84.907 216.838C84.8105 216.87 84.7089 216.885 84.6072 216.881V216.881Z" fill="#263238"/>
<path d="M77.3257 221.009C77.164 220.994 77.0111 220.928 76.8888 220.822C76.7665 220.715 76.681 220.572 76.6446 220.414C76.6082 220.255 76.6227 220.09 76.6861 219.94C76.7494 219.791 76.8584 219.665 76.9974 219.581L105.393 206.475C105.582 206.388 105.799 206.38 105.994 206.452C106.19 206.524 106.348 206.671 106.435 206.861C106.522 207.05 106.531 207.266 106.458 207.462C106.386 207.657 106.239 207.816 106.05 207.903L77.6398 221.023C77.5352 221.038 77.4286 221.033 77.3257 221.009V221.009Z" fill="#263238"/>
<path d="M271.601 471.347C271.601 470.519 271.701 469.676 271.701 468.834C271.701 448.847 252.928 432.672 229.757 432.672C206.587 432.672 187.799 448.861 187.799 468.834C187.799 469.676 187.799 470.519 187.913 471.347H271.601Z" fill="white"/>
<path d="M271.6 472.159H187.911C187.717 472.16 187.529 472.086 187.386 471.954C187.243 471.821 187.155 471.64 187.141 471.445C187.069 470.474 187.026 469.661 187.026 468.875C187.026 448.517 206.2 431.942 229.756 431.942C253.312 431.942 272.485 448.517 272.485 468.875C272.485 469.646 272.485 470.474 272.371 471.445C272.353 471.638 272.265 471.818 272.122 471.95C271.98 472.082 271.794 472.156 271.6 472.159V472.159ZM188.625 470.617H270.857C270.857 469.975 270.857 469.418 270.857 468.875C270.857 449.36 252.384 433.499 229.684 433.499C206.985 433.499 188.497 449.36 188.497 468.875C188.568 469.418 188.597 469.989 188.625 470.617V470.617Z" fill="#263238"/>
<path d="M271.601 474.828C271.601 473.986 271.701 473.158 271.701 472.315C271.701 452.328 252.928 436.153 229.757 436.153C206.587 436.153 187.799 452.343 187.799 472.315C187.799 473.158 187.799 473.986 187.913 474.828H271.601Z" fill="white"/>
<path d="M271.6 475.628H187.911C187.717 475.628 187.529 475.555 187.386 475.423C187.243 475.29 187.155 475.108 187.141 474.914C187.069 473.943 187.026 473.115 187.026 472.344C187.026 451.972 206.2 435.411 229.756 435.411C253.312 435.411 272.485 451.972 272.485 472.344C272.485 473.115 272.485 473.929 272.371 474.914C272.353 475.107 272.265 475.287 272.122 475.419C271.98 475.551 271.794 475.625 271.6 475.628V475.628ZM188.625 474.072H270.857C270.857 473.444 270.857 472.872 270.857 472.344C270.857 452.828 252.384 436.953 229.684 436.953C206.985 436.953 188.568 452.786 188.568 472.316C188.568 472.858 188.597 473.415 188.625 474.043V474.072Z" fill="#263238"/>
<path d="M229.755 436.153C215.479 436.153 202.873 442.306 195.292 451.7L205.128 459.467C207.945 455.972 211.509 453.152 215.558 451.215C219.607 449.278 224.039 448.272 228.527 448.272C233.016 448.272 237.448 449.278 241.497 451.215C245.546 453.152 249.11 455.972 251.927 459.467L264.775 452.328C257.209 442.578 244.346 436.153 229.755 436.153Z" fill="#F7A31C"/>
<path d="M251.926 460.253C251.81 460.255 251.694 460.229 251.59 460.177C251.486 460.124 251.395 460.048 251.327 459.953C248.583 456.548 245.11 453.8 241.165 451.913C237.219 450.025 232.901 449.045 228.527 449.045C224.154 449.045 219.836 450.025 215.89 451.913C211.945 453.8 208.472 456.548 205.728 459.953C205.602 460.111 205.419 460.212 205.219 460.236C205.019 460.26 204.817 460.205 204.657 460.082L194.807 452.301C194.647 452.174 194.545 451.99 194.521 451.787C194.505 451.582 194.566 451.379 194.692 451.216C202.687 441.308 215.793 435.384 229.755 435.384C244.032 435.384 257.38 441.551 265.332 451.859C265.397 451.949 265.442 452.051 265.467 452.158C265.492 452.266 265.494 452.378 265.475 452.487C265.453 452.598 265.407 452.703 265.341 452.794C265.274 452.885 265.188 452.961 265.089 453.015L252.241 460.153C252.143 460.207 252.037 460.241 251.926 460.253V460.253ZM228.527 447.504C233.024 447.497 237.467 448.477 241.543 450.377C245.618 452.276 249.227 455.049 252.112 458.497L263.533 452.116C255.81 442.593 243.261 436.94 229.741 436.94C216.535 436.94 204.129 442.408 196.377 451.602L204.943 458.412C207.839 454.982 211.451 452.228 215.526 450.343C219.6 448.459 224.038 447.49 228.527 447.504V447.504Z" fill="#263238"/>
<path d="M241.206 473.759C241.095 470.453 239.705 467.32 237.327 465.021C234.95 462.722 231.772 461.437 228.464 461.437C225.157 461.437 221.979 462.722 219.602 465.021C217.224 467.32 215.833 470.453 215.723 473.759C215.723 474.116 215.723 474.473 215.723 474.83H241.092C241.177 474.473 241.206 474.116 241.206 473.759Z" fill="#263238"/>
<path d="M241.15 475.626H215.781C215.587 475.624 215.401 475.549 215.258 475.417C215.116 475.285 215.027 475.106 215.01 474.912C215.01 474.541 215.01 474.17 215.01 473.785C215.124 470.277 216.597 466.951 219.119 464.51C221.641 462.069 225.013 460.704 228.522 460.704C232.032 460.704 235.404 462.069 237.926 464.51C240.447 466.951 241.921 470.277 242.035 473.785C242.035 474.17 242.035 474.541 242.035 474.912C242.028 475.019 241.999 475.123 241.95 475.218C241.901 475.313 241.833 475.397 241.75 475.464C241.666 475.531 241.57 475.58 241.467 475.608C241.364 475.636 241.256 475.642 241.15 475.626V475.626ZM216.509 474.07H240.436V473.785C240.436 470.612 239.176 467.569 236.932 465.325C234.688 463.081 231.645 461.821 228.472 461.821C225.299 461.821 222.256 463.081 220.013 465.325C217.769 467.569 216.509 470.612 216.509 473.785V474.07Z" fill="#263238"/>
</svg>
