<svg width="127" height="127" viewBox="0 0 127 127" fill="none" xmlns="http://www.w3.org/2000/svg">
<path d="M86.5187 125.016H38.4969C28.2901 125.005 18.5044 120.946 11.2871 113.729C4.06979 106.511 0.0105062 96.7255 0 86.5187L0 38.4969C0.0105062 28.2901 4.06979 18.5044 11.2871 11.2871C18.5044 4.06979 28.2901 0.0105062 38.4969 0L86.5187 0C96.7255 0.0105062 106.511 4.06979 113.729 11.2871C120.946 18.5044 125.005 28.2901 125.016 38.4969V86.5187C125.005 96.7255 120.946 106.511 113.729 113.729C106.511 120.946 96.7255 125.005 86.5187 125.016ZM38.4969 5.95312C29.869 5.96363 21.5974 9.39571 15.4966 15.4966C9.39571 21.5974 5.96363 29.869 5.95312 38.4969V86.5187C5.96363 95.1467 9.39571 103.418 15.4966 109.519C21.5974 115.62 29.869 119.052 38.4969 119.062H86.5187C95.1467 119.052 103.418 115.62 109.519 109.519C115.62 103.418 119.052 95.1467 119.062 86.5187V38.4969C119.052 29.869 115.62 21.5974 109.519 15.4966C103.418 9.39571 95.1467 5.96363 86.5187 5.95312H38.4969Z" fill="white"/>
<path d="M86.5187 125.016H38.4969C28.2901 125.005 18.5044 120.946 11.2871 113.729C4.06979 106.511 0.0105062 96.7255 0 86.5187L0 38.4969C0.0105062 28.2901 4.06979 18.5044 11.2871 11.2871C18.5044 4.06979 28.2901 0.0105062 38.4969 0L86.5187 0C96.7255 0.0105062 106.511 4.06979 113.729 11.2871C120.946 18.5044 125.005 28.2901 125.016 38.4969V86.5187C125.005 96.7255 120.946 106.511 113.729 113.729C106.511 120.946 96.7255 125.005 86.5187 125.016ZM38.4969 5.95312C29.869 5.96363 21.5974 9.39571 15.4966 15.4966C9.39571 21.5974 5.96363 29.869 5.95312 38.4969V86.5187C5.96363 95.1467 9.39571 103.418 15.4966 109.519C21.5974 115.62 29.869 119.052 38.4969 119.062H86.5187C95.1467 119.052 103.418 115.62 109.519 109.519C115.62 103.418 119.052 95.1467 119.062 86.5187V38.4969C119.052 29.869 115.62 21.5974 109.519 15.4966C103.418 9.39571 95.1467 5.96363 86.5187 5.95312H38.4969Z" fill="white"/>
<path d="M28 91H98" stroke="white" stroke-width="11" stroke-linecap="round"/>
<path d="M28 63H98" stroke="white" stroke-width="11" stroke-linecap="round"/>
<path d="M28 35H98" stroke="white" stroke-width="11" stroke-linecap="round"/>
</svg>
