<svg xmlns="http://www.w3.org/2000/svg" xmlns:xlink="http://www.w3.org/1999/xlink" viewBox="0 0 770.47 370.96"><defs><style>.cls-1{isolation:isolate;}.cls-2{fill:url(#linear-gradient);}.cls-3{fill:url(#linear-gradient-2);}.cls-4{fill:url(#linear-gradient-3);}.cls-5{fill:url(#linear-gradient-4);}.cls-6{fill:url(#linear-gradient-5);}.cls-7{fill:url(#linear-gradient-6);}.cls-8{fill:url(#linear-gradient-7);}.cls-9{fill:url(#linear-gradient-8);}.cls-10{fill:url(#linear-gradient-9);}.cls-11{fill:url(#linear-gradient-10);}.cls-12{fill:url(#linear-gradient-11);}.cls-13{mix-blend-mode:multiply;}.cls-14{fill:url(#linear-gradient-12);}.cls-15{fill:url(#linear-gradient-13);}.cls-16{fill:url(#linear-gradient-14);}.cls-17{fill:url(#linear-gradient-15);}.cls-18,.cls-19{fill:#2e2e30;}.cls-18,.cls-19,.cls-20{stroke-miterlimit:10;stroke-width:2.89px;}.cls-18{stroke:url(#Degradado_sin_nombre_3);}.cls-19{stroke:url(#Degradado_sin_nombre_3-2);}.cls-20{fill:url(#New_Gradient_Swatch_1);stroke:url(#Degradado_sin_nombre_3-3);}.cls-21{fill:url(#New_Gradient_Swatch_1-2);}</style><linearGradient id="linear-gradient" x1="116.59" y1="306.86" x2="116.59" y2="370.11" gradientUnits="userSpaceOnUse"><stop offset="0" stop-color="#a47c47"/><stop offset="0.23" stop-color="#e1c17c"/><stop offset="0.72" stop-color="#8d683a"/><stop offset="1" stop-color="#e1c17c"/></linearGradient><linearGradient id="linear-gradient-2" x1="166.09" y1="326.99" x2="166.09" y2="370.96" xlink:href="#linear-gradient"/><linearGradient id="linear-gradient-3" x1="218.7" y1="327.1" x2="218.7" y2="370.11" xlink:href="#linear-gradient"/><linearGradient id="linear-gradient-4" x1="260.76" y1="311.71" x2="260.76" y2="370.96" xlink:href="#linear-gradient"/><linearGradient id="linear-gradient-5" x1="303.2" y1="327.94" x2="303.2" y2="370.96" xlink:href="#linear-gradient"/><linearGradient id="linear-gradient-6" x1="349.01" y1="327.1" x2="349.01" y2="370.11" xlink:href="#linear-gradient"/><linearGradient id="linear-gradient-7" x1="389.39" y1="326.99" x2="389.39" y2="370.96" xlink:href="#linear-gradient"/><linearGradient id="linear-gradient-8" x1="434.04" y1="327.1" x2="434.04" y2="370.96" xlink:href="#linear-gradient"/><linearGradient id="linear-gradient-9" x1="501.56" y1="306.86" x2="501.56" y2="370.11" xlink:href="#linear-gradient"/><linearGradient id="linear-gradient-10" x1="546.95" y1="327.1" x2="546.95" y2="370.96" xlink:href="#linear-gradient"/><linearGradient id="linear-gradient-11" x1="603.83" y1="297.9" x2="603.83" y2="370.96" xlink:href="#linear-gradient"/><linearGradient id="linear-gradient-12" x1="770.47" y1="318.44" x2="665.44" y2="318.44" gradientUnits="userSpaceOnUse"><stop offset="0" stop-color="#2e2e30" stop-opacity="0.07"/><stop offset="0.58" stop-color="#2e2e30" stop-opacity="0.28"/><stop offset="1" stop-color="#2e2e30" stop-opacity="0.5"/></linearGradient><linearGradient id="linear-gradient-13" x1="665.67" y1="305.09" x2="718.18" y2="357.61" gradientUnits="userSpaceOnUse"><stop offset="0" stop-color="#2e2e30" stop-opacity="0.21"/><stop offset="0.78" stop-color="#2e2e30" stop-opacity="0.42"/><stop offset="1" stop-color="#2e2e30" stop-opacity="0.5"/></linearGradient><linearGradient id="linear-gradient-14" x1="737.65" y1="305.31" x2="737.65" y2="370.96" xlink:href="#linear-gradient-12"/><linearGradient id="linear-gradient-15" x1="682.48" y1="256.09" x2="754.22" y2="380.34" xlink:href="#linear-gradient-13"/><linearGradient id="Degradado_sin_nombre_3" y1="141.94" x2="282.53" y2="141.94" gradientUnits="userSpaceOnUse"><stop offset="0" stop-color="#ecd088"/><stop offset="0.23" stop-color="#a47c47"/><stop offset="0.33" stop-color="#e1c17c"/><stop offset="0.46" stop-color="#f7e1ab"/><stop offset="0.58" stop-color="#e1c17c"/><stop offset="0.69" stop-color="#8d683a"/><stop offset="1" stop-color="#e1c17c"/></linearGradient><linearGradient id="Degradado_sin_nombre_3-2" x1="345.89" y1="141.94" x2="628.42" y2="141.94" xlink:href="#Degradado_sin_nombre_3"/><linearGradient id="New_Gradient_Swatch_1" x1="200.8" y1="131.76" x2="429.32" y2="131.76" gradientUnits="userSpaceOnUse"><stop offset="0" stop-color="#a47c47"/><stop offset="0.32" stop-color="#e1c17c"/><stop offset="0.46" stop-color="#f7e1ab"/><stop offset="0.58" stop-color="#e1c17c"/><stop offset="0.77" stop-color="#8d683a"/><stop offset="1" stop-color="#e1c17c"/></linearGradient><linearGradient id="Degradado_sin_nombre_3-3" x1="199.35" y1="131.76" x2="432.19" y2="131.76" xlink:href="#Degradado_sin_nombre_3"/><linearGradient id="New_Gradient_Swatch_1-2" x1="131.27" y1="152.36" x2="150.95" y2="132.67" xlink:href="#New_Gradient_Swatch_1"/></defs><g class="cls-1"><g id="Layer_2" data-name="Layer 2"><g id="Layer_1-2" data-name="Layer 1"><path class="cls-2" d="M147.16,306.86l-22.77,63.25H108.78L86,306.86h15.5l15.08,45.23,15.07-45.23Z"/><path class="cls-3" d="M189,351.24H156.76c.52,6,3.69,9.7,9.8,9.7,4.64,0,7.7-2,8.86-5.38h13c-2.11,9.18-9.91,15.4-21.61,15.4-14.13,0-23.61-8.75-23.61-21.93s9.59-22,23.19-22S189,335.74,189,348.92Zm-31.42-8.12h17.5c-1.37-3.69-4-5.79-8.54-5.79C161.82,337.33,159,339.54,157.6,343.12Z"/><path class="cls-4" d="M239,343.44v26.67H225.6V345.65A6.42,6.42,0,0,0,219,339a6.78,6.78,0,0,0-7.06,6.64v24.46H198.4V327.94h13.5v5.17a15.26,15.26,0,0,1,12-6C232.24,327.1,239,334.16,239,343.44Z"/><path class="cls-5" d="M266,338.38v15.08c0,3.47,2,5.69,4.85,5.69h5.06v10.44c-1.05.73-3.9,1.37-6.75,1.37-9,0-16.55-7-16.55-15.92V338.38h-7.06V327.94h7.06V311.71H266v16.23h10v10.44Z"/><path class="cls-6" d="M283.38,354v-26h13.49v24.25c0,4,2.74,6.85,6.33,6.85s6.43-2.84,6.43-6.85V327.94H323v26c0,10.33-7.06,17-19.82,17S283.38,364.31,283.38,354Z"/><path class="cls-7" d="M363.4,327.52v11.91a18.37,18.37,0,0,0-3.9-.42c-6.64,0-11.39,4-11.39,11v20.13H334.62V327.94h13.49v5.8a14,14,0,0,1,11.81-6.64A11.57,11.57,0,0,1,363.4,327.52Z"/><path class="cls-8" d="M412.32,351.24H380.06c.52,6,3.69,9.7,9.8,9.7,4.64,0,7.7-2,8.86-5.38h13c-2.1,9.18-9.91,15.4-21.61,15.4-14.13,0-23.61-8.75-23.61-21.93s9.59-22,23.19-22,22.67,8.75,22.67,21.93Zm-31.42-8.12h17.5c-1.37-3.69-4-5.79-8.54-5.79C385.12,337.33,382.27,339.54,380.9,343.12Z"/><path class="cls-9" d="M417.49,360.83l9.91-4.95a7.7,7.7,0,0,0,7.06,4.43c2.21,0,3.69-.95,3.69-2.64,0-1.47-1.27-2.53-5.06-4-4.85-1.8-13.28-4.64-13.28-13.08,0-7.17,6.11-13.49,15.7-13.49a20.39,20.39,0,0,1,14.24,5.59L443,340.28a8.81,8.81,0,0,0-6.54-3.06c-2.32,0-3.37,1-3.37,2.42,0,1.59,1.47,2.22,4.53,3.48,6,2.32,13,5.7,13,14.13,0,7.91-5.8,13.71-15.29,13.71C427.82,371,420,367.37,417.49,360.83Z"/><path class="cls-10" d="M519,357.78v12.33H484.12V306.86H498v50.92Z"/><path class="cls-11" d="M572.89,359.15v11a9,9,0,0,1-3.59.85,14.87,14.87,0,0,1-13-7.17A17.72,17.72,0,0,1,541.89,371C530.19,371,521,361.26,521,349s9.17-21.93,20.87-21.93a17.5,17.5,0,0,1,12,4.53v-3.69H567.3V355c0,3.48,1.9,4.11,3.69,4.11ZM554.54,349a10,10,0,1,0-10,10A10,10,0,0,0,554.54,349Z"/><path class="cls-12" d="M627,349C627,361.26,617.8,371,606.2,371a17.48,17.48,0,0,1-12-4.54v3.8l-13.49-.11V297.9h13.49v33.73a17.52,17.52,0,0,1,12-4.53C617.8,327.1,627,336.8,627,349Zm-13.39,0a10,10,0,1,0-10,10A9.94,9.94,0,0,0,613.58,349Z"/><g class="cls-13"><path class="cls-14" d="M695.79,345.88A78.53,78.53,0,0,0,691.7,371H665.44a104.49,104.49,0,0,1,7.39-38.68A39.39,39.39,0,0,1,695.79,345.88ZM718,280A105,105,0,0,0,695.05,298a102.12,102.12,0,0,0-9,10.65,65.45,65.45,0,0,1,22.92,13.23,78.61,78.61,0,0,1,61.54-29.65V265.93A104.39,104.39,0,0,0,718,280Z"/><path class="cls-15" d="M718,331.62A65.22,65.22,0,0,0,704.83,371a39.45,39.45,0,0,0-39.39-39.39V305.31A65.89,65.89,0,0,1,718,331.62Z"/><path class="cls-16" d="M770.47,305.31v26.26a38.8,38.8,0,0,0-7.38.71,105.47,105.47,0,0,0-13.18-23.67A65.11,65.11,0,0,1,770.47,305.31ZM727,321.84A65.65,65.65,0,0,0,704.83,371h26.26a39.16,39.16,0,0,1,9-25.08A78.55,78.55,0,0,0,727,321.84Z"/><path class="cls-17" d="M770.47,371H744.22A78.94,78.94,0,0,0,718,312.29,78.32,78.32,0,0,1,740.87,298a103.35,103.35,0,0,1,9,10.65A104.5,104.5,0,0,1,770.47,371Zm-105-105v26.26A78.38,78.38,0,0,1,695.05,298,105,105,0,0,1,718,280,104.42,104.42,0,0,0,665.44,265.93Z"/></g><path class="cls-18" d="M141,281.76C64.22,281.68,1.38,218.77,1.44,142,1.51,64.89,64,2.21,140.79,2.12,218.21,2,281.24,65,281.08,142.29,280.93,218.92,217.75,281.84,141,281.76Zm.22-213.23c-41.21,0-73.46,32.12-73.47,73.26s32.18,73.53,73.3,73.56S214.7,182.92,214.67,142C214.64,100.76,182.47,68.58,141.26,68.53Z"/><path class="cls-19" d="M486.93,281.76c-76.82-.08-139.66-63-139.6-139.75C347.4,64.89,409.84,2.21,486.68,2.12,564.1,2,627.13,65,627,142.29,626.81,218.92,563.64,281.84,486.93,281.76Zm.22-213.23c-41.21,0-73.46,32.12-73.48,73.26s32.19,73.53,73.31,73.56,73.61-32.43,73.58-73.38C560.53,100.76,528.35,68.58,487.15,68.53Z"/><path class="cls-20" d="M349.5,154.78C383.23,145.66,407,117,407,81.37c0-44.31-36.11-79.93-85-79.93H200.8V9.66a141,141,0,0,1,62.71,50.53V52.27h48.93c20,0,34.68,13,34.68,30.84,0,18.24-14.72,30.84-34.68,30.84H285.79a140.49,140.49,0,0,1,2.3,25.54,138.8,138.8,0,0,1-1.78,21.8h2.38L359,262.07h70.32Z"/><path class="cls-21" d="M141.5,156.15c-8,.21-14.19-5.58-14.35-13.36-.15-7.49,6.47-14.54,13.91-14,7.8.58,13.12,4.53,13.54,13.05C155,150,149.52,156,141.5,156.15Z"/></g></g></g></svg>