<svg width="149" height="69" viewBox="0 0 149 69" fill="none" xmlns="http://www.w3.org/2000/svg">
<path d="M84.5771 49.3834H74.2551L63.9332 34.582H60.2329V49.3834H51.0293V11.1279H68.8136C76.0087 11.1279 81.2981 16.3557 81.2981 22.8601C81.2981 28.0899 77.8034 32.298 72.8593 33.6363L84.5771 49.3834ZM72.5098 23.1109C72.5098 20.498 70.3492 18.5882 67.4198 18.5882H60.2247V27.6438H67.4198C70.3492 27.6438 72.5098 25.7936 72.5098 23.115V23.1109Z" fill="#2E2E30" stroke="url(#paint0_linear_229_2739)" stroke-width="0.8" stroke-miterlimit="10"/>
<path d="M87.5322 30.2645C87.5322 19.4246 97.1572 10.626 109.015 10.626C120.938 10.626 130.495 19.4246 130.495 30.2645C130.495 41.1045 120.94 49.8969 109.015 49.8969C97.1572 49.8969 87.5322 41.0963 87.5322 30.2645ZM121.499 30.2645C121.499 23.8239 116.128 18.851 109.015 18.851C101.97 18.851 96.6001 23.8239 96.6001 30.2645C96.6001 36.7052 101.97 41.6801 109.015 41.6801C116.128 41.6719 121.499 36.697 121.499 30.2645Z" fill="#2E2E30" stroke="url(#paint1_linear_229_2739)" stroke-width="0.5" stroke-miterlimit="10"/>
<path d="M58.7503 59.8555L55.5064 68.8679H53.2841L50.0381 59.8555H52.246L54.3942 66.3002L56.5425 59.8555H58.7503Z" fill="url(#paint2_linear_229_2739)"/>
<path d="M64.7143 66.1783H60.1279C60.204 67.0355 60.6542 67.5618 61.5258 67.5618C62.1857 67.5618 62.6215 67.276 62.7881 66.795H64.6382C64.3381 68.1024 63.2259 68.9885 61.5546 68.9885C59.542 68.9885 58.1914 67.7406 58.1914 65.8637C58.1914 63.9868 59.5585 62.7246 61.495 62.7246C63.4315 62.7246 64.7246 63.9704 64.7246 65.8493L64.7143 66.1783ZM60.2389 65.0229H62.7326C62.6532 64.7681 62.4894 64.5478 62.2682 64.3984C62.0471 64.249 61.7816 64.1792 61.5156 64.2006C60.8392 64.1965 60.4342 64.5111 60.2389 65.0229Z" fill="url(#paint3_linear_229_2739)"/>
<path d="M71.8453 65.0686V68.8676H69.9376V65.3831C69.9419 65.2576 69.9203 65.1325 69.8742 65.0157C69.8281 64.8989 69.7584 64.7928 69.6695 64.7041C69.5806 64.6154 69.4744 64.5459 69.3574 64.5001C69.2405 64.4542 69.1154 64.4329 68.9899 64.4375C68.8614 64.432 68.7331 64.4522 68.6126 64.4971C68.492 64.5419 68.3817 64.6104 68.288 64.6985C68.1943 64.7866 68.1192 64.8926 68.0671 65.0102C68.015 65.1277 67.987 65.2546 67.9846 65.3831V68.8676H66.0625V62.8607H67.9846V63.5967C68.1855 63.3353 68.443 63.1229 68.7379 62.9755C69.0327 62.8281 69.3572 62.7495 69.6868 62.7456C70.873 62.7456 71.8453 63.7468 71.8453 65.0686Z" fill="url(#paint4_linear_229_2739)"/>
<path d="M75.6796 64.347V66.4952C75.6796 66.9907 75.9654 67.3052 76.3703 67.3052H77.0919V68.7936C76.7932 68.9386 76.4638 69.0092 76.1319 68.9991C75.5196 69.0102 74.9279 68.7786 74.4857 68.355C74.0436 67.9313 73.787 67.35 73.7719 66.7378V64.347H72.7666V62.8607H73.7719V60.5459H75.6796V62.8607H77.1186V64.347H75.6796Z" fill="url(#paint5_linear_229_2739)"/>
<path d="M78.1582 66.5695V62.8691H80.0824V66.3228C80.074 66.4473 80.0913 66.5721 80.1332 66.6896C80.175 66.8072 80.2406 66.9148 80.3258 67.0059C80.411 67.097 80.514 67.1697 80.6284 67.2194C80.7429 67.269 80.8663 67.2947 80.991 67.2947C81.1158 67.2947 81.2392 67.269 81.3536 67.2194C81.468 67.1697 81.5711 67.097 81.6563 67.0059C81.7414 66.9148 81.807 66.8072 81.8489 66.6896C81.8908 66.5721 81.908 66.4473 81.8997 66.3228V62.8691H83.8074V66.5695C83.8074 68.0414 82.8001 68.9891 80.9828 68.9891C79.1655 68.9891 78.1582 68.0414 78.1582 66.5695Z" fill="url(#paint6_linear_229_2739)"/>
<path d="M89.5592 62.7987V64.4967C89.3769 64.4567 89.1908 64.4367 89.0042 64.4371C88.0565 64.4371 87.3822 65.0065 87.3822 65.9995V68.8672H85.458V62.8603H87.3822V63.6826C87.5593 63.3953 87.8066 63.1578 88.1007 62.9924C88.3949 62.827 88.7263 62.7391 89.0638 62.737C89.2311 62.7322 89.3982 62.753 89.5592 62.7987Z" fill="url(#paint7_linear_229_2739)"/>
<path d="M96.5284 66.1783H91.9338C92.0078 67.0355 92.458 67.5618 93.3296 67.5618C93.9916 67.5618 94.4274 67.276 94.5919 66.795H96.442C96.1419 68.1024 95.0297 68.9885 93.3584 68.9885C91.3458 68.9885 89.9932 67.7406 89.9932 65.8637C89.9932 63.9868 91.3602 62.7246 93.2988 62.7246C95.2374 62.7246 96.5263 63.9704 96.5263 65.8493L96.5284 66.1783ZM92.053 65.0229H94.5466C94.4672 64.7681 94.3035 64.5478 94.0823 64.3984C93.8611 64.249 93.5957 64.1792 93.3296 64.2006C92.6533 64.1965 92.2483 64.5111 92.053 65.0229Z" fill="url(#paint8_linear_229_2739)"/>
<path d="M97.2666 67.5457L98.6789 66.8406C98.7684 67.0311 98.9107 67.1919 99.0889 67.3038C99.2671 67.4156 99.4737 67.4739 99.6842 67.4717C100.001 67.4717 100.21 67.336 100.21 67.0955C100.21 66.8899 100.03 66.7358 99.4889 66.524C98.7981 66.2691 97.5976 65.8641 97.5976 64.6615C97.5976 63.6336 98.4672 62.7394 99.8342 62.7394C100.588 62.7323 101.315 63.0174 101.863 63.535L100.901 64.6163C100.785 64.4824 100.642 64.3746 100.482 64.2998C100.321 64.2251 100.147 64.1851 99.9699 64.1825C99.6389 64.1825 99.4889 64.3326 99.4889 64.5279C99.4889 64.7232 99.6944 64.8424 100.134 65.0233C100.992 65.3523 101.985 65.8333 101.985 67.0359C101.985 68.1625 101.162 68.9889 99.8075 68.9889C98.7385 68.9889 97.6264 68.477 97.2666 67.5457Z" fill="url(#paint9_linear_229_2739)"/>
<path d="M111.726 67.1102V68.8679H106.76V59.8555H108.741V67.1102H111.726Z" fill="url(#paint10_linear_229_2739)"/>
<path d="M119.407 67.3049V68.8673C119.247 68.9424 119.074 68.9836 118.897 68.9886C118.526 68.994 118.16 68.9019 117.835 68.7215C117.51 68.5412 117.239 68.2788 117.047 67.9607C116.811 68.2828 116.501 68.5441 116.143 68.7228C115.786 68.9016 115.391 68.9926 114.991 68.9886C113.324 68.9886 112.017 67.605 112.017 65.8638C112.017 64.1226 113.324 62.7391 114.991 62.7391C115.623 62.7292 116.235 62.96 116.704 63.3846V62.8604H118.611V66.719C118.611 67.2165 118.883 67.3049 119.138 67.3049H119.407ZM116.794 65.8659C116.794 65.5837 116.71 65.3079 116.554 65.0732C116.397 64.8386 116.174 64.6558 115.913 64.5478C115.653 64.4398 115.366 64.4115 115.089 64.4666C114.812 64.5216 114.558 64.6575 114.359 64.8571C114.159 65.0566 114.023 65.3108 113.968 65.5875C113.913 65.8643 113.941 66.1511 114.049 66.4118C114.157 66.6725 114.34 66.8954 114.575 67.0521C114.809 67.2089 115.085 67.2926 115.367 67.2926C115.555 67.2926 115.741 67.2556 115.914 67.1838C116.087 67.1119 116.245 67.0067 116.377 66.874C116.51 66.7413 116.615 66.5838 116.686 66.4104C116.758 66.2371 116.794 66.0513 116.794 65.8638V65.8659Z" fill="url(#paint11_linear_229_2739)"/>
<path d="M127.113 65.8642C127.113 67.6054 125.806 68.9889 124.153 68.9889C123.521 68.9986 122.908 68.767 122.441 68.3413V68.884L120.519 68.8676V58.5889H122.441V63.3952C122.909 62.971 123.521 62.7403 124.153 62.7497C125.806 62.7456 127.113 64.1209 127.113 65.8642ZM125.206 65.8642C125.206 65.582 125.122 65.3061 124.965 65.0715C124.808 64.8369 124.586 64.6541 124.325 64.5461C124.064 64.4381 123.777 64.4098 123.501 64.4649C123.224 64.5199 122.97 64.6558 122.77 64.8553C122.571 65.0549 122.435 65.3091 122.38 65.5858C122.325 65.8626 122.353 66.1494 122.461 66.4101C122.569 66.6708 122.752 66.8936 122.986 67.0504C123.221 67.2072 123.497 67.2908 123.779 67.2908C123.967 67.2922 124.153 67.2562 124.327 67.185C124.5 67.1138 124.658 67.0088 124.791 66.876C124.924 66.7433 125.029 66.5855 125.1 66.4117C125.171 66.238 125.207 66.0519 125.206 65.8642Z" fill="url(#paint12_linear_229_2739)"/>
<path d="M22.1761 5.6388C18.5641 5.6388 14.9501 5.6388 11.3361 5.6388C9.40989 5.6388 8.35735 4.83706 8.32034 3.39187C8.28128 1.89117 9.38111 1.00925 11.3793 1.0072C18.4881 0.997602 25.5969 0.997602 32.7056 1.0072C34.6606 1.0072 35.6618 1.78633 35.7029 3.25208C35.744 4.79594 34.6915 5.63469 32.6625 5.6388C29.1677 5.64497 25.6729 5.6388 22.1761 5.6388Z" fill="url(#paint13_linear_229_2739)" stroke="url(#paint14_linear_229_2739)" stroke-width="0.5" stroke-miterlimit="10"/>
<path d="M21.4938 51.8662C10.2159 51.8539 0.991782 42.6153 1.00001 31.3519C1.01028 20.0309 10.1769 10.8273 21.4568 10.815C32.823 10.8026 42.0759 20.0473 42.0513 31.393C42.0369 42.6421 32.7552 51.8785 21.4938 51.8662ZM21.5267 20.5654C15.4766 20.5654 10.7422 25.2792 10.7401 31.319C10.7381 37.3588 15.4684 42.1137 21.4999 42.1178C22.9198 42.131 24.3281 41.8614 25.6429 41.325C26.9576 40.7886 28.1524 39.9959 29.1578 38.9932C30.1632 37.9905 30.9591 36.7977 31.499 35.4844C32.039 34.1712 32.3122 32.7636 32.3029 31.3437C32.2988 25.2956 27.5747 20.5715 21.5267 20.5654Z" fill="url(#paint15_linear_229_2739)" stroke="url(#paint16_linear_229_2739)" stroke-width="0.5" stroke-miterlimit="10"/>
<path d="M21.5821 33.3234C21.3134 33.3387 21.0445 33.2995 20.7914 33.2081C20.5383 33.1167 20.3064 32.975 20.1095 32.7915C19.9126 32.6081 19.7549 32.3867 19.6458 32.1408C19.5368 31.8948 19.4787 31.6293 19.4749 31.3602C19.4544 30.2604 20.4247 29.2263 21.5183 29.3045C22.6634 29.3887 23.4446 29.9685 23.5042 31.2204C23.5638 32.4251 22.76 33.2926 21.5821 33.3234Z" fill="url(#paint17_linear_229_2739)" stroke="url(#paint18_linear_229_2739)" stroke-width="2.06" stroke-miterlimit="10"/>
<path style="mix-blend-mode:multiply" d="M137.593 65.4819C137.211 66.6118 137.015 67.7963 137.013 68.989H133.35C133.346 67.1372 133.695 65.3017 134.378 63.5803C135.639 63.819 136.776 64.4918 137.593 65.4819ZM140.693 56.2742C139.515 56.9585 138.437 57.8025 137.49 58.7822C137.036 59.2495 136.613 59.7467 136.226 60.2706C137.409 60.6629 138.499 61.2924 139.431 62.1208C139.814 61.6412 140.236 61.1942 140.693 60.7845C142.71 58.9738 145.325 57.9729 148.036 57.9743V54.3027C145.457 54.2996 142.923 54.9799 140.693 56.2742Z" fill="url(#paint19_linear_229_2739)"/>
<path style="mix-blend-mode:multiply" d="M140.692 63.4873C139.501 65.0733 138.858 67.0046 138.863 68.9885C138.862 67.5282 138.281 66.128 137.249 65.0954C136.216 64.0628 134.816 63.4822 133.355 63.4811V59.8096C134.781 59.8127 136.185 60.1464 137.46 60.7846C138.734 61.4228 139.843 62.348 140.699 63.4873H140.692Z" fill="url(#paint20_linear_229_2739)"/>
<path style="mix-blend-mode:multiply" d="M148.036 59.8096V63.4812C147.691 63.4818 147.347 63.5148 147.008 63.5798C146.537 62.4014 145.915 61.2889 145.158 60.2701C146.086 59.9633 147.058 59.8078 148.036 59.8096ZM141.947 62.1285C140.977 62.9889 140.201 64.0452 139.669 65.2277C139.138 66.4102 138.863 67.692 138.863 68.9885H142.535C142.533 67.7079 142.98 66.4671 143.797 65.4814C143.381 64.2642 142.755 63.1293 141.947 62.1285Z" fill="url(#paint21_linear_229_2739)"/>
<path style="mix-blend-mode:multiply" d="M148.036 68.989H144.364C144.362 67.4404 144.034 65.9095 143.402 64.4959C142.769 63.0824 141.846 61.8178 140.693 60.7845C141.637 59.9369 142.72 59.2594 143.896 58.7822C144.35 59.2495 144.772 59.7467 145.16 60.2706C147.029 62.7929 148.038 65.8494 148.038 68.989H148.036ZM133.35 54.3027V57.9743C134.769 57.9731 136.175 58.2475 137.49 58.7822C138.437 57.8025 139.515 56.9585 140.693 56.2742C138.462 54.9799 135.929 54.2996 133.35 54.3027Z" fill="url(#paint22_linear_229_2739)"/>
<defs>
<linearGradient id="paint0_linear_229_2739" x1="50.8176" y1="30.2567" x2="84.9985" y2="30.2567" gradientUnits="userSpaceOnUse">
<stop stop-color="#ECD089"/>
<stop offset="0.23" stop-color="#A47C47"/>
<stop offset="0.33" stop-color="#E0C17C"/>
<stop offset="0.46" stop-color="#F7E1AB"/>
<stop offset="0.58" stop-color="#E0C17C"/>
<stop offset="0.69" stop-color="#8D683A"/>
<stop offset="1" stop-color="#E0C17C"/>
</linearGradient>
<linearGradient id="paint1_linear_229_2739" x1="87.3205" y1="30.2563" x2="130.707" y2="30.2563" gradientUnits="userSpaceOnUse">
<stop stop-color="#ECD089"/>
<stop offset="0.23" stop-color="#A47C47"/>
<stop offset="0.33" stop-color="#E0C17C"/>
<stop offset="0.46" stop-color="#F7E1AB"/>
<stop offset="0.58" stop-color="#E0C17C"/>
<stop offset="0.69" stop-color="#8D683A"/>
<stop offset="1" stop-color="#E0C17C"/>
</linearGradient>
<linearGradient id="paint2_linear_229_2739" x1="54.3942" y1="59.8555" x2="54.3942" y2="68.8679" gradientUnits="userSpaceOnUse">
<stop stop-color="#A47C47"/>
<stop offset="0.52" stop-color="#E0C17C"/>
<stop offset="0.72" stop-color="#8D683A"/>
<stop offset="1" stop-color="#E0C17C"/>
</linearGradient>
<linearGradient id="paint3_linear_229_2739" x1="61.4477" y1="62.7246" x2="61.4477" y2="68.9885" gradientUnits="userSpaceOnUse">
<stop stop-color="#A47C47"/>
<stop offset="0.52" stop-color="#E0C17C"/>
<stop offset="0.72" stop-color="#8D683A"/>
<stop offset="1" stop-color="#E0C17C"/>
</linearGradient>
<linearGradient id="paint4_linear_229_2739" x1="68.9426" y1="62.7394" x2="68.9426" y2="68.8676" gradientUnits="userSpaceOnUse">
<stop stop-color="#A47C47"/>
<stop offset="0.52" stop-color="#E0C17C"/>
<stop offset="0.72" stop-color="#8D683A"/>
<stop offset="1" stop-color="#E0C17C"/>
</linearGradient>
<linearGradient id="paint5_linear_229_2739" x1="74.9375" y1="60.5459" x2="74.9375" y2="68.9889" gradientUnits="userSpaceOnUse">
<stop stop-color="#A47C47"/>
<stop offset="0.52" stop-color="#E0C17C"/>
<stop offset="0.72" stop-color="#8D683A"/>
<stop offset="1" stop-color="#E0C17C"/>
</linearGradient>
<linearGradient id="paint6_linear_229_2739" x1="80.9828" y1="62.8609" x2="80.9828" y2="68.9891" gradientUnits="userSpaceOnUse">
<stop stop-color="#A47C47"/>
<stop offset="0.52" stop-color="#E0C17C"/>
<stop offset="0.72" stop-color="#8D683A"/>
<stop offset="1" stop-color="#E0C17C"/>
</linearGradient>
<linearGradient id="paint7_linear_229_2739" x1="87.5096" y1="62.7391" x2="87.5096" y2="68.8672" gradientUnits="userSpaceOnUse">
<stop stop-color="#A47C47"/>
<stop offset="0.52" stop-color="#E0C17C"/>
<stop offset="0.72" stop-color="#8D683A"/>
<stop offset="1" stop-color="#E0C17C"/>
</linearGradient>
<linearGradient id="paint8_linear_229_2739" x1="93.2618" y1="62.7246" x2="93.2618" y2="68.9885" gradientUnits="userSpaceOnUse">
<stop stop-color="#A47C47"/>
<stop offset="0.52" stop-color="#E0C17C"/>
<stop offset="0.72" stop-color="#8D683A"/>
<stop offset="1" stop-color="#E0C17C"/>
</linearGradient>
<linearGradient id="paint9_linear_229_2739" x1="99.6245" y1="62.7394" x2="99.6245" y2="68.9889" gradientUnits="userSpaceOnUse">
<stop stop-color="#A47C47"/>
<stop offset="0.52" stop-color="#E0C17C"/>
<stop offset="0.72" stop-color="#8D683A"/>
<stop offset="1" stop-color="#E0C17C"/>
</linearGradient>
<linearGradient id="paint10_linear_229_2739" x1="109.245" y1="59.8555" x2="109.245" y2="68.8679" gradientUnits="userSpaceOnUse">
<stop stop-color="#A47C47"/>
<stop offset="0.52" stop-color="#E0C17C"/>
<stop offset="0.72" stop-color="#8D683A"/>
<stop offset="1" stop-color="#E0C17C"/>
</linearGradient>
<linearGradient id="paint11_linear_229_2739" x1="115.713" y1="62.7391" x2="115.713" y2="68.9886" gradientUnits="userSpaceOnUse">
<stop stop-color="#A47C47"/>
<stop offset="0.52" stop-color="#E0C17C"/>
<stop offset="0.72" stop-color="#8D683A"/>
<stop offset="1" stop-color="#E0C17C"/>
</linearGradient>
<linearGradient id="paint12_linear_229_2739" x1="123.816" y1="58.5786" x2="123.816" y2="68.9889" gradientUnits="userSpaceOnUse">
<stop stop-color="#A47C47"/>
<stop offset="0.52" stop-color="#E0C17C"/>
<stop offset="0.72" stop-color="#8D683A"/>
<stop offset="1" stop-color="#E0C17C"/>
</linearGradient>
<linearGradient id="paint13_linear_229_2739" x1="14.6932" y1="10.6569" x2="29.3589" y2="-4.00883" gradientUnits="userSpaceOnUse">
<stop stop-color="#A47C47"/>
<stop offset="0.32" stop-color="#E0C17C"/>
<stop offset="0.46" stop-color="#F7E1AB"/>
<stop offset="0.58" stop-color="#E0C17C"/>
<stop offset="0.77" stop-color="#8D683A"/>
<stop offset="1" stop-color="#E0C17C"/>
</linearGradient>
<linearGradient id="paint14_linear_229_2739" x1="8.1086" y1="3.31991" x2="35.9147" y2="3.31991" gradientUnits="userSpaceOnUse">
<stop stop-color="#ECD089"/>
<stop offset="0.23" stop-color="#A47C47"/>
<stop offset="0.33" stop-color="#E0C17C"/>
<stop offset="0.46" stop-color="#F7E1AB"/>
<stop offset="0.58" stop-color="#E0C17C"/>
<stop offset="0.69" stop-color="#8D683A"/>
<stop offset="1" stop-color="#E0C17C"/>
</linearGradient>
<linearGradient id="paint15_linear_229_2739" x1="7.01307" y1="45.8285" x2="36.0115" y2="16.8301" gradientUnits="userSpaceOnUse">
<stop stop-color="#A47C47"/>
<stop offset="0.32" stop-color="#E0C17C"/>
<stop offset="0.46" stop-color="#F7E1AB"/>
<stop offset="0.58" stop-color="#E0C17C"/>
<stop offset="0.77" stop-color="#8D683A"/>
<stop offset="1" stop-color="#E0C17C"/>
</linearGradient>
<linearGradient id="paint16_linear_229_2739" x1="0.788263" y1="31.3416" x2="42.2651" y2="31.3416" gradientUnits="userSpaceOnUse">
<stop stop-color="#ECD089"/>
<stop offset="0.23" stop-color="#A47C47"/>
<stop offset="0.33" stop-color="#E0C17C"/>
<stop offset="0.46" stop-color="#F7E1AB"/>
<stop offset="0.58" stop-color="#E0C17C"/>
<stop offset="0.69" stop-color="#8D683A"/>
<stop offset="1" stop-color="#E0C17C"/>
</linearGradient>
<linearGradient id="paint17_linear_229_2739" x1="20.0814" y1="32.7643" x2="22.9697" y2="29.876" gradientUnits="userSpaceOnUse">
<stop stop-color="#A47C47"/>
<stop offset="0.32" stop-color="#E0C17C"/>
<stop offset="0.46" stop-color="#F7E1AB"/>
<stop offset="0.58" stop-color="#E0C17C"/>
<stop offset="0.77" stop-color="#8D683A"/>
<stop offset="1" stop-color="#E0C17C"/>
</linearGradient>
<linearGradient id="paint18_linear_229_2739" x1="19.2632" y1="31.3129" x2="23.7201" y2="31.3129" gradientUnits="userSpaceOnUse">
<stop stop-color="#ECD089"/>
<stop offset="0.23" stop-color="#A47C47"/>
<stop offset="0.33" stop-color="#E0C17C"/>
<stop offset="0.46" stop-color="#F7E1AB"/>
<stop offset="0.58" stop-color="#E0C17C"/>
<stop offset="0.69" stop-color="#8D683A"/>
<stop offset="1" stop-color="#E0C17C"/>
</linearGradient>
<linearGradient id="paint19_linear_229_2739" x1="148.036" y1="61.6459" x2="133.35" y2="61.6459" gradientUnits="userSpaceOnUse">
<stop stop-color="#2E2E30" stop-opacity="0.07"/>
<stop offset="0.93" stop-color="#2E2E30" stop-opacity="0.28"/>
<stop offset="1" stop-color="#2E2E30" stop-opacity="0.3"/>
</linearGradient>
<linearGradient id="paint20_linear_229_2739" x1="133.38" y1="59.7787" x2="140.723" y2="67.1219" gradientUnits="userSpaceOnUse">
<stop stop-color="#2E2E30" stop-opacity="0.21"/>
<stop offset="1" stop-color="#2E2E30" stop-opacity="0.3"/>
</linearGradient>
<linearGradient id="paint21_linear_229_2739" x1="143.446" y1="59.8096" x2="143.446" y2="68.9885" gradientUnits="userSpaceOnUse">
<stop stop-color="#2E2E30" stop-opacity="0.07"/>
<stop offset="0.93" stop-color="#2E2E30" stop-opacity="0.28"/>
<stop offset="1" stop-color="#2E2E30" stop-opacity="0.3"/>
</linearGradient>
<linearGradient id="paint22_linear_229_2739" x1="135.732" y1="52.9274" x2="145.762" y2="70.3006" gradientUnits="userSpaceOnUse">
<stop stop-color="#2E2E30" stop-opacity="0.21"/>
<stop offset="1" stop-color="#2E2E30" stop-opacity="0.3"/>
</linearGradient>
</defs>
</svg>
