<svg width="119" height="60" viewBox="0 0 119 60" fill="none" xmlns="http://www.w3.org/2000/svg">
<path d="M32.9825 49.0723L28.9447 59.8645H26.1589L22.1211 49.0723H24.8717L27.5518 56.7858L30.2319 49.0723H32.9825Z" fill="url(#paint0_linear_376_3603)"/>
<path fill-rule="evenodd" clip-rule="evenodd" d="M40.4234 56.6505H34.6929C34.7811 57.6654 35.3453 58.2913 36.4385 58.2913C37.2672 58.2913 37.7962 57.953 38.0078 57.3779H40.3176C39.9473 58.951 38.5544 59.9998 36.4738 59.9998C33.97 59.9998 32.2773 58.5112 32.2773 56.2614C32.2773 54.0116 33.9877 52.5061 36.4033 52.5061C38.8189 52.5061 40.4234 53.9947 40.4234 56.2445V56.6505ZM34.834 55.2634H37.9549C37.708 54.6375 37.2496 54.2823 36.4385 54.2823C35.5922 54.2823 35.0809 54.6544 34.834 55.2634Z" fill="url(#paint1_linear_376_3603)"/>
<path d="M49.3092 55.3143V59.8646H46.9289V55.6865C46.9289 55.0437 46.4352 54.5531 45.7475 54.5531C45.0599 54.5531 44.4956 55.0437 44.4956 55.6865V59.8646H42.0977V52.6754H44.4956V53.5551C45.0246 52.9292 45.7651 52.5232 46.6291 52.5232C48.1102 52.5232 49.3092 53.7242 49.3092 55.3143Z" fill="url(#paint2_linear_376_3603)"/>
<path d="M54.1049 54.4515V57.0226C54.1049 57.6147 54.4575 57.9868 54.9689 57.9868H55.8681V59.763C55.6741 59.8983 55.1628 59.9998 54.6691 59.9998C53.0646 59.9998 51.7245 58.8157 51.7245 57.2933V54.4515H50.4727V52.6753H51.7245V49.9011H54.1049V52.6753H55.8857V54.4515H54.1049Z" fill="url(#paint3_linear_376_3603)"/>
<path d="M57.1914 57.1075V52.6755H59.5894V56.803C59.5894 57.4965 60.0831 57.9702 60.7178 57.9702C61.3702 57.9702 61.8639 57.4965 61.8639 56.803V52.6755H64.2443V57.1075C64.2443 58.8667 62.9924 60.0001 60.7178 60.0001C58.4433 60.0001 57.1914 58.8667 57.1914 57.1075Z" fill="url(#paint4_linear_376_3603)"/>
<path d="M71.4219 52.5908V54.6377C71.2456 54.5869 70.9987 54.5531 70.7166 54.5531C69.5529 54.5531 68.7066 55.2466 68.7066 56.4307V59.8646H66.3086V52.6754H68.7066V53.6566C69.1826 52.963 69.9232 52.5232 70.8048 52.5232C71.0164 52.5232 71.2456 52.5401 71.4219 52.5908Z" fill="url(#paint5_linear_376_3603)"/>
<path fill-rule="evenodd" clip-rule="evenodd" d="M80.1128 56.6505H74.3824C74.4706 57.6654 75.0348 58.2913 76.1103 58.2913C76.9391 58.2913 77.4857 57.953 77.6972 57.3779H79.9894C79.6191 58.951 78.2438 59.9998 76.1632 59.9998C73.6418 59.9998 71.9668 58.5112 71.9668 56.2614C71.9668 54.0116 73.6595 52.5061 76.0751 52.5061C78.4907 52.5061 80.1128 53.9947 80.1128 56.2445V56.6505ZM74.5235 55.2634H77.6443C77.3975 54.6375 76.9214 54.2823 76.1103 54.2823C75.2816 54.2823 74.7703 54.6544 74.5235 55.2634Z" fill="url(#paint6_linear_376_3603)"/>
<path d="M81.0312 58.2745L82.7945 57.4287C83.1295 58.0377 83.6584 58.1899 84.0464 58.1899C84.4343 58.1899 84.6987 58.0208 84.6987 57.7332C84.6987 57.4964 84.4695 57.3103 83.7995 57.0566C82.9355 56.7521 81.4368 56.2616 81.4368 54.8237C81.4368 53.6058 82.53 52.5232 84.2403 52.5232C85.2806 52.5232 86.1975 52.9461 86.7617 53.4874L85.5627 54.773C85.3335 54.5023 84.8927 54.2486 84.399 54.2486C83.9935 54.2486 83.7995 54.4347 83.7995 54.6715C83.7995 54.9422 84.064 55.0437 84.6106 55.2636C85.6685 55.6526 86.9204 56.2277 86.9204 57.6656C86.9204 59.0188 85.8801 60 84.205 60C82.865 60 81.4721 59.391 81.0312 58.2745Z" fill="url(#paint7_linear_376_3603)"/>
<path d="M99.0678 57.75V59.8645H92.8789V49.0723H95.3474V57.75H99.0678Z" fill="url(#paint8_linear_376_3603)"/>
<path fill-rule="evenodd" clip-rule="evenodd" d="M108.642 57.987V59.8646C108.483 59.9323 108.254 60 108.007 60C107.002 60 106.173 59.5263 105.697 58.782C105.097 59.5432 104.216 60 103.14 60C101.06 60 99.4199 58.3591 99.4199 56.2616C99.4199 54.1809 101.06 52.5232 103.14 52.5232C104.004 52.5232 104.71 52.8108 105.274 53.3013V52.6754H107.654V57.2934C107.654 57.8855 107.989 57.987 108.307 57.987H108.642ZM105.38 56.2616C105.38 55.3143 104.586 54.5531 103.599 54.5531C102.611 54.5531 101.818 55.3143 101.818 56.2616C101.818 57.2258 102.611 57.9701 103.599 57.9701C104.586 57.9701 105.38 57.2258 105.38 56.2616Z" fill="url(#paint9_linear_376_3603)"/>
<path fill-rule="evenodd" clip-rule="evenodd" d="M118.252 56.2616C118.252 58.3592 116.63 60 114.567 60C113.703 60 112.997 59.7124 112.433 59.2388V59.8816L110.035 59.8647V47.55H112.433V53.3014C112.997 52.8108 113.703 52.5232 114.567 52.5232C116.63 52.5232 118.252 54.181 118.252 56.2616ZM115.871 56.2616C115.871 55.3143 115.096 54.5531 114.091 54.5531C113.103 54.5531 112.327 55.3143 112.327 56.2616C112.327 57.2258 113.103 57.9701 114.091 57.9701C115.096 57.9701 115.871 57.2258 115.871 56.2616Z" fill="url(#paint10_linear_376_3603)"/>
<path fill-rule="evenodd" clip-rule="evenodd" d="M25.0604 47.6684C11.3955 47.6515 0.234342 36.9269 0.251974 23.8511C0.251974 10.6907 11.3602 0.0169356 25.0075 1.99517e-05C38.7606 -0.0168957 49.9746 10.7246 49.9393 23.885C49.9217 36.9608 38.69 47.6853 25.0604 47.6684ZM25.0957 11.3166C17.7607 11.3166 12.0302 16.7973 12.0302 23.8173C12.0302 30.8373 17.7607 36.3518 25.0604 36.3518C32.3601 36.3518 38.1434 30.8203 38.1434 23.8342C38.1258 16.8142 32.413 11.3335 25.0957 11.3166Z" fill="#FEFEFE"/>
<path fill-rule="evenodd" clip-rule="evenodd" d="M85.6463 47.6684C71.9991 47.6515 60.8203 36.9269 60.8379 23.8511C60.8555 10.6907 71.9462 0.0169356 85.5934 1.99517e-05C99.3641 -0.0168957 110.561 10.7246 110.525 23.885C110.508 36.9608 99.276 47.6853 85.6463 47.6684ZM85.6816 11.3166C78.3643 11.3166 72.6338 16.7973 72.6338 23.8173C72.6162 30.8373 78.3466 36.3518 85.6463 36.3518C92.946 36.3518 98.7294 30.8203 98.7294 23.8342C98.7294 16.8142 92.9989 11.3335 85.6816 11.3166Z" fill="#FEFEFE"/>
<path d="M75.3998 44.7416H62.8986L50.415 27.5553H49.9919C50.1858 26.3373 50.3093 25.1025 50.3093 23.8338C50.3093 22.3452 50.1682 20.8905 49.9037 19.4865H54.6291C58.1732 19.4865 60.8004 17.3382 60.8004 14.2258C60.8004 11.1809 58.1732 8.96497 54.6291 8.96497H45.9365V10.3182C43.2035 6.49528 39.3244 3.48431 34.793 1.70817V0.304199H56.3218C65.0145 0.304199 71.4326 6.37692 71.4326 13.9213C71.4326 19.994 67.2185 24.8827 61.2235 26.4389L75.3998 44.7416Z" fill="url(#paint11_linear_376_3603)"/>
<path fill-rule="evenodd" clip-rule="evenodd" d="M75.9119 44.9787H62.776L50.2748 27.8093H49.6929L49.7282 27.5218C49.9398 26.3039 50.0456 25.069 50.0456 23.8341C50.0456 22.3963 49.9222 20.9416 49.64 19.5206L49.5871 19.2331H54.6299C58.1035 19.2331 60.5367 17.1694 60.5367 14.2261C60.5367 11.3166 58.0506 9.21902 54.6299 9.21902H46.2018V11.1136L45.7257 10.4539C42.9751 6.63098 39.1665 3.68758 34.688 1.92835L34.5293 1.87764V0.0507812H56.3226C60.5543 0.0507812 64.4687 1.48861 67.3251 4.11054C70.1462 6.68172 71.6978 10.1833 71.6978 13.9216C71.6978 19.8252 67.6777 24.866 61.6475 26.5914L75.9119 44.9787ZM63.0405 44.4713H74.8893L60.7836 26.2869L61.1538 26.2023C67.1488 24.6461 71.1689 19.7068 71.1689 13.9216C71.1689 6.41107 64.645 0.541319 56.3226 0.541319H35.0406V1.52239C39.29 3.21396 42.9398 5.9712 45.6728 9.5404V8.71155H54.6299C58.3503 8.71155 61.048 11.029 61.048 14.2091C61.048 17.4062 58.3503 19.7237 54.6299 19.7237H50.2043C50.4335 21.0769 50.5569 22.4471 50.5569 23.8341C50.5569 24.9844 50.4687 26.1516 50.2924 27.3019H50.5393L63.0405 44.4713Z" fill="url(#paint12_linear_376_3603)"/>
<path d="M25.2014 26.1686C23.7908 26.2024 22.68 25.2213 22.6447 23.8849C22.6271 22.6163 23.8084 21.4152 25.1309 21.4998C26.5062 21.6013 27.4583 22.278 27.5288 23.7327C27.5994 25.1198 26.6296 26.1347 25.2014 26.1686Z" fill="url(#paint13_linear_376_3603)"/>
<defs>
<linearGradient id="paint0_linear_376_3603" x1="21.7685" y1="59.8645" x2="21.7685" y2="49.0723" gradientUnits="userSpaceOnUse">
<stop stop-color="#C39625"/>
<stop offset="0.9" stop-color="#FEC821"/>
<stop offset="1" stop-color="#FEC821"/>
</linearGradient>
<linearGradient id="paint1_linear_376_3603" x1="31.9247" y1="59.9998" x2="31.9247" y2="52.5061" gradientUnits="userSpaceOnUse">
<stop stop-color="#C39625"/>
<stop offset="0.9" stop-color="#FEC821"/>
<stop offset="1" stop-color="#FEC821"/>
</linearGradient>
<linearGradient id="paint2_linear_376_3603" x1="41.745" y1="59.8646" x2="41.745" y2="52.5232" gradientUnits="userSpaceOnUse">
<stop stop-color="#C39625"/>
<stop offset="0.9" stop-color="#FEC821"/>
<stop offset="1" stop-color="#FEC821"/>
</linearGradient>
<linearGradient id="paint3_linear_376_3603" x1="50.12" y1="59.9998" x2="50.12" y2="49.9011" gradientUnits="userSpaceOnUse">
<stop stop-color="#C39625"/>
<stop offset="0.9" stop-color="#FEC821"/>
<stop offset="1" stop-color="#FEC821"/>
</linearGradient>
<linearGradient id="paint4_linear_376_3603" x1="56.8388" y1="60.0001" x2="56.8388" y2="52.6755" gradientUnits="userSpaceOnUse">
<stop stop-color="#C39625"/>
<stop offset="0.9" stop-color="#FEC821"/>
<stop offset="1" stop-color="#FEC821"/>
</linearGradient>
<linearGradient id="paint5_linear_376_3603" x1="65.956" y1="59.8646" x2="65.956" y2="52.5232" gradientUnits="userSpaceOnUse">
<stop stop-color="#C39625"/>
<stop offset="0.9" stop-color="#FEC821"/>
<stop offset="1" stop-color="#FEC821"/>
</linearGradient>
<linearGradient id="paint6_linear_376_3603" x1="71.6142" y1="59.9998" x2="71.6142" y2="52.5061" gradientUnits="userSpaceOnUse">
<stop stop-color="#C39625"/>
<stop offset="0.9" stop-color="#FEC821"/>
<stop offset="1" stop-color="#FEC821"/>
</linearGradient>
<linearGradient id="paint7_linear_376_3603" x1="80.6786" y1="60" x2="80.6786" y2="52.5232" gradientUnits="userSpaceOnUse">
<stop stop-color="#C39625"/>
<stop offset="0.9" stop-color="#FEC821"/>
<stop offset="1" stop-color="#FEC821"/>
</linearGradient>
<linearGradient id="paint8_linear_376_3603" x1="92.5263" y1="59.8645" x2="92.5263" y2="49.0723" gradientUnits="userSpaceOnUse">
<stop stop-color="#C39625"/>
<stop offset="0.9" stop-color="#FEC821"/>
<stop offset="1" stop-color="#FEC821"/>
</linearGradient>
<linearGradient id="paint9_linear_376_3603" x1="99.0673" y1="60" x2="99.0673" y2="52.5232" gradientUnits="userSpaceOnUse">
<stop stop-color="#C39625"/>
<stop offset="0.9" stop-color="#FEC821"/>
<stop offset="1" stop-color="#FEC821"/>
</linearGradient>
<linearGradient id="paint10_linear_376_3603" x1="109.683" y1="60" x2="109.683" y2="47.55" gradientUnits="userSpaceOnUse">
<stop stop-color="#C39625"/>
<stop offset="0.9" stop-color="#FEC821"/>
<stop offset="1" stop-color="#FEC821"/>
</linearGradient>
<linearGradient id="paint11_linear_376_3603" x1="25.4479" y1="8.79585" x2="47.6898" y2="-14.3881" gradientUnits="userSpaceOnUse">
<stop stop-color="#C39625"/>
<stop offset="0.3" stop-color="#FEC821"/>
<stop offset="0.5" stop-color="#EBEC7E"/>
<stop offset="0.6" stop-color="#FEC821"/>
<stop offset="1" stop-color="#C39625"/>
</linearGradient>
<linearGradient id="paint12_linear_376_3603" x1="49.7811" y1="-14.5813" x2="92.0676" y2="29.4964" gradientUnits="userSpaceOnUse">
<stop stop-color="#C39625"/>
<stop offset="0.3" stop-color="#FEC821"/>
<stop offset="0.5" stop-color="#C39625"/>
<stop offset="0.6" stop-color="#FEC821"/>
<stop offset="1" stop-color="#C39625"/>
</linearGradient>
<linearGradient id="paint13_linear_376_3603" x1="21.2518" y1="23.479" x2="24.5475" y2="20.0437" gradientUnits="userSpaceOnUse">
<stop stop-color="#C39625"/>
<stop offset="0.5" stop-color="#FEC821"/>
<stop offset="1" stop-color="#C39625"/>
</linearGradient>
</defs>
</svg>
