<svg width="101" height="100" viewBox="0 0 101 100" fill="none" xmlns="http://www.w3.org/2000/svg">
<g clip-path="url(#clip0_243_2177)">
<path d="M10.7497 24.9998H35.7497C36.6697 24.9998 37.4163 24.2548 37.4163 23.3332C37.4163 22.4115 36.6697 21.6665 35.7497 21.6665H10.7497C9.82967 21.6665 9.08301 22.4115 9.08301 23.3332C9.08301 24.2548 9.82967 24.9998 10.7497 24.9998Z" fill="#EDA122"/>
<path d="M10.7497 18.3333H25.7497C26.6697 18.3333 27.4163 17.5883 27.4163 16.6667C27.4163 15.745 26.6697 15 25.7497 15H10.7497C9.82967 15 9.08301 15.745 9.08301 16.6667C9.08301 17.5883 9.82967 18.3333 10.7497 18.3333Z" fill="#EDA122"/>
<path d="M37.4163 30.0002C37.4163 29.0785 36.6697 28.3335 35.7497 28.3335H10.7497C9.82967 28.3335 9.08301 29.0785 9.08301 30.0002C9.08301 30.9218 9.82967 31.6668 10.7497 31.6668H35.7497C36.6697 31.6668 37.4163 30.9218 37.4163 30.0002Z" fill="#EDA122"/>
<path d="M100.75 6.66667H52.4167V1.66667C52.4167 0.745 51.67 0 50.75 0C49.83 0 49.0833 0.745 49.0833 1.66667V6.66667H0.75V76.6667H46.7267L26.2383 97.155C25.5867 97.8067 25.5867 98.86 26.2383 99.5117C26.5633 99.8367 26.99 100 27.4167 100C27.8433 100 28.27 99.8367 28.595 99.5117L49.0833 79.0233V95C49.0833 95.9217 49.83 96.6667 50.75 96.6667C51.67 96.6667 52.4167 95.9217 52.4167 95V79.0233L72.905 99.5117C73.23 99.8367 73.6567 100 74.0833 100C74.51 100 74.9367 99.8367 75.2617 99.5117C75.9133 98.86 75.9133 97.8067 75.2617 97.155L54.7733 76.6667H100.75V6.66667ZM97.4167 73.3333H4.08333V10H97.4167V73.3333Z" fill="#EDA122"/>
<path d="M47.448 52.6115C46.4563 52.0248 45.3163 51.6665 44.083 51.6665C43.2963 51.6665 42.553 51.8282 41.853 52.0782L38.6713 48.8982C38.9213 48.1965 39.083 47.4532 39.083 46.6665C39.083 42.9898 36.093 39.9998 32.4163 39.9998C28.7397 39.9998 25.7497 42.9898 25.7497 46.6665C25.7497 47.4532 25.9113 48.1965 26.1613 48.8982L22.9797 52.0782C22.2797 51.8282 21.5363 51.6665 20.7497 51.6665C17.073 51.6665 14.083 54.6565 14.083 58.3332C14.083 62.0098 17.073 64.9998 20.7497 64.9998C24.4263 64.9998 27.4163 62.0098 27.4163 58.3332C27.4163 56.6715 26.783 55.1682 25.773 53.9998L28.0813 51.6915C29.2513 52.6998 30.7547 53.3332 32.4163 53.3332C34.078 53.3332 35.5813 52.6998 36.7497 51.6915L39.058 53.9998C38.0497 55.1682 37.4163 56.6715 37.4163 58.3332C37.4163 62.0098 40.4063 64.9998 44.083 64.9998C47.7597 64.9998 50.7497 62.0098 50.7497 58.3332C50.7497 57.0998 50.3913 55.9598 49.8047 54.9682L61.4163 43.3582C62.5847 44.3665 64.088 44.9998 65.7497 44.9998C67.4113 44.9998 68.9147 44.3665 70.083 43.3582L77.393 50.6665C76.383 51.8348 75.7497 53.3382 75.7497 54.9998C75.7497 58.6765 78.7397 61.6665 82.4163 61.6665C86.093 61.6665 89.083 58.6765 89.083 54.9998C89.083 51.3232 86.093 48.3332 82.4163 48.3332C81.6297 48.3332 80.8863 48.4948 80.1863 48.7448L72.0047 40.5648C72.2547 39.8632 72.4163 39.1198 72.4163 38.3332C72.4163 34.6565 69.4263 31.6665 65.7497 31.6665C62.073 31.6665 59.083 34.6565 59.083 38.3332C59.083 39.1198 59.2447 39.8632 59.4947 40.5648L47.448 52.6115ZM20.7497 61.6665C18.9113 61.6665 17.4163 60.1715 17.4163 58.3332C17.4163 56.4948 18.9113 54.9998 20.7497 54.9998C22.588 54.9998 24.083 56.4948 24.083 58.3332C24.083 60.1715 22.588 61.6665 20.7497 61.6665ZM32.4163 49.9998C30.578 49.9998 29.083 48.5048 29.083 46.6665C29.083 44.8282 30.578 43.3332 32.4163 43.3332C34.2547 43.3332 35.7497 44.8282 35.7497 46.6665C35.7497 48.5048 34.2547 49.9998 32.4163 49.9998ZM44.083 61.6665C42.2447 61.6665 40.7497 60.1715 40.7497 58.3332C40.7497 56.4948 42.2447 54.9998 44.083 54.9998C45.9213 54.9998 47.4163 56.4948 47.4163 58.3332C47.4163 60.1715 45.9213 61.6665 44.083 61.6665ZM85.7497 54.9998C85.7497 56.8382 84.2547 58.3332 82.4163 58.3332C80.578 58.3332 79.083 56.8382 79.083 54.9998C79.083 53.1615 80.578 51.6665 82.4163 51.6665C84.2547 51.6665 85.7497 53.1615 85.7497 54.9998ZM65.7497 34.9998C67.588 34.9998 69.083 36.4948 69.083 38.3332C69.083 40.1715 67.588 41.6665 65.7497 41.6665C63.9113 41.6665 62.4163 40.1715 62.4163 38.3332C62.4163 36.4948 63.9113 34.9998 65.7497 34.9998Z" fill="#EDA122"/>
</g>
<defs>
<clipPath id="clip0_243_2177">
<rect width="100" height="100" fill="white" transform="translate(0.75)"/>
</clipPath>
</defs>
</svg>
