<svg width="101" height="100" viewBox="0 0 101 100" fill="none" xmlns="http://www.w3.org/2000/svg">
<g clip-path="url(#clip0_243_2202)">
<path d="M100.734 4.2197C100.729 4.14788 100.724 4.07606 100.716 4.00515C100.707 3.93273 100.695 3.86091 100.683 3.78909C100.67 3.71273 100.657 3.63636 100.641 3.56121C100.626 3.49455 100.607 3.42909 100.59 3.36303C100.569 3.28636 100.549 3.20939 100.524 3.13455C100.503 3.06848 100.477 3.00364 100.453 2.93848C100.426 2.86697 100.4 2.79515 100.369 2.72545C100.339 2.65727 100.305 2.59091 100.272 2.52394C100.24 2.46 100.209 2.39545 100.175 2.33333C100.137 2.26576 100.095 2.20061 100.054 2.13455C100.017 2.07515 99.9804 2.01545 99.9401 1.95788C99.8974 1.89606 99.8507 1.83667 99.8047 1.77667C99.7592 1.71727 99.7135 1.65818 99.6653 1.60152C99.6201 1.54818 99.5714 1.49697 99.5235 1.44545C99.4671 1.38545 99.4108 1.32636 99.3514 1.26909C99.3314 1.25 99.3141 1.22879 99.2938 1.21C99.2638 1.18242 99.2317 1.15939 99.2014 1.13303C99.1392 1.07818 99.0762 1.02515 99.0111 0.973636C98.9556 0.93 98.8995 0.888182 98.8423 0.847576C98.7798 0.802727 98.7159 0.759394 98.651 0.717879C98.5886 0.677879 98.5259 0.639697 98.462 0.60303C98.3983 0.566364 98.3335 0.531818 98.268 0.498182C98.2011 0.463939 98.1341 0.431212 98.0659 0.400909C97.9989 0.370909 97.9317 0.34303 97.8635 0.316364C97.7941 0.289091 97.7244 0.263333 97.6541 0.239697C97.5844 0.216364 97.5138 0.194848 97.4429 0.174848C97.3711 0.154545 97.2986 0.135758 97.2259 0.119091C97.1553 0.102727 97.0841 0.0884849 97.0123 0.0754545C96.9356 0.0615152 96.8586 0.05 96.7811 0.04C96.7123 0.0312121 96.6435 0.0239394 96.5738 0.0181818C96.4908 0.0115152 96.4074 0.00757576 96.3244 0.00545455C96.2844 0.00515152 96.2453 0 96.205 0H78.0232C75.5129 0 73.4777 2.03515 73.4777 4.54545C73.4777 7.05576 75.5129 9.09091 78.0232 9.09091H85.8017L58.2001 38.9003L46.3886 27.0888C45.5153 26.2152 44.3268 25.7409 43.088 25.7582C41.8529 25.7818 40.6805 26.307 39.8405 27.213L1.96166 68.0821C0.2553 69.9233 0.364391 72.7991 2.2056 74.5058C3.08075 75.3167 4.18894 75.7176 5.29439 75.7176C6.5156 75.7176 7.73378 75.2282 8.62954 74.2621L43.2989 36.8558L55.112 48.6688C55.9859 49.5427 57.1868 50.0273 58.4135 49.9994C59.6489 49.9758 60.822 49.4497 61.6614 48.543L91.6595 16.1448V22.7273C91.6595 25.2376 93.6947 27.2727 96.205 27.2727C98.7153 27.2727 100.75 25.2376 100.75 22.7273V4.54545C100.75 4.51697 100.747 4.4897 100.746 4.46151C100.745 4.38091 100.74 4.3003 100.734 4.2197Z" fill="#EDA122"/>
<path d="M96.2045 90.9092H5.29545C2.78515 90.9092 0.75 92.9443 0.75 95.4546C0.75 97.9649 2.78515 100 5.29545 100H96.2045C98.7149 100 100.75 97.9649 100.75 95.4546C100.75 92.9443 98.7149 90.9092 96.2045 90.9092Z" fill="#EDA122"/>
</g>
<defs>
<clipPath id="clip0_243_2202">
<rect width="100" height="100" fill="white" transform="translate(0.75)"/>
</clipPath>
</defs>
</svg>
