<svg width="115" height="114" viewBox="0 0 115 114" fill="none" xmlns="http://www.w3.org/2000/svg">
<g clip-path="url(#clip0_243_2134)">
<path d="M71.5016 61.2821L76.8876 17.95C76.9869 17.1483 77.0371 16.332 77.0371 15.5233C77.0371 9.87135 74.5907 4.49938 70.3245 0.784872C69.4191 -0.00345866 68.1485 -0.214698 67.0363 0.237049C65.9248 0.689433 65.1625 1.72909 65.0645 2.92526C64.7458 6.8281 61.4226 9.88535 57.4994 9.88535C53.5774 9.88472 50.2561 6.82683 49.938 2.92272C49.8407 1.72654 49.0778 0.686887 47.9662 0.234504C46.8553 -0.218516 45.5834 -0.00600368 44.678 0.781054C40.4106 4.4962 37.9629 9.86881 37.9629 15.522C37.9629 16.3307 38.0132 17.1477 38.1124 17.9494L43.5423 61.6842C44.1843 66.8583 47.6144 71.0863 52.2076 72.9582C51.7145 73.303 51.39 73.8737 51.39 74.5208C51.39 75.5751 52.2445 76.4296 53.2988 76.4296H54.3187V90.8671C48.033 92.2643 41.8842 98.0047 41.8842 110.817C41.8842 112.574 43.3081 113.998 45.0655 113.998H69.9345C71.6919 113.998 73.1158 112.574 73.1158 110.817C73.1158 98.0053 66.967 92.2643 60.6813 90.8671V76.4296H61.7013C62.7555 76.4296 63.61 75.5751 63.61 74.5208C63.61 73.882 63.2932 73.3196 62.8115 72.9734C67.5422 71.0659 70.9907 66.6712 71.5016 61.2821ZM66.5852 107.637H48.4154C49.1726 100.838 52.4493 96.8785 57.5 96.8785C62.5507 96.8785 65.8274 100.838 66.5852 107.637ZM65.1702 60.6503C64.8075 64.6358 61.5097 67.6409 57.5 67.6409C53.6194 67.6409 50.3338 64.7434 49.8566 60.901L44.4267 17.1674C44.3599 16.624 44.3255 16.0711 44.3255 15.5226C44.3255 13.4758 44.8015 11.483 45.6884 9.68875C48.1781 13.6304 52.583 16.2474 57.5 16.2474C62.4177 16.2474 66.8225 13.6323 69.3129 9.69065C70.1992 11.4843 70.6745 13.4764 70.6745 15.5226C70.6745 16.0711 70.6401 16.624 70.5733 17.1661L65.181 60.5466C65.1772 60.5809 65.1733 60.6153 65.1702 60.6503Z" fill="#EDA122"/>
<path d="M56.1507 60.2325C55.7938 60.5888 55.5908 61.0787 55.5908 61.5814C55.5908 62.084 55.7938 62.5803 56.1507 62.9366C56.507 63.2866 56.997 63.4902 57.4996 63.4902C58.0023 63.4902 58.4979 63.2866 58.8485 62.9366C59.2048 62.5803 59.4084 62.084 59.4084 61.5814C59.4084 61.0787 59.2048 60.5888 58.8485 60.2325C58.1422 59.5256 56.864 59.5199 56.1507 60.2325Z" fill="#EDA122"/>
</g>
<defs>
<clipPath id="clip0_243_2134">
<rect width="114" height="114" fill="white" transform="translate(0.5)"/>
</clipPath>
</defs>
</svg>
