<svg width="130" height="60" viewBox="0 0 130 60" fill="none" xmlns="http://www.w3.org/2000/svg">
<path fill-rule="evenodd" clip-rule="evenodd" d="M9.93799 27.0579C9.08127 29.7106 8.59839 32.5723 8.59839 35.5305H0C0 30.9164 0.856725 26.4952 2.41441 22.4437C5.42073 23.0386 8.06878 24.7106 9.93799 27.0579ZM17.2124 4.77495C14.4397 6.4309 11.9162 8.47269 9.70434 10.836C8.62954 11.9614 7.64821 13.1672 6.72917 14.4373C9.533 15.4019 12.0876 16.9293 14.2528 18.9229C15.1562 17.7492 16.1376 16.672 17.2124 15.6913C19.4087 13.6495 21.9477 11.9936 24.7204 10.836C27.7111 9.58201 30.9979 8.89068 34.4248 8.89068V0C28.1629 0 22.2748 1.73636 17.2124 4.77495Z" fill="url(#paint0_linear_376_3274)"/>
<path d="M17.2124 22.2349C14.502 25.9326 12.9132 30.5467 12.9132 35.5307C12.9132 32.3152 11.7916 29.357 9.93799 27.058C8.06878 24.7107 5.42073 23.0387 2.41441 22.4439C1.63557 22.2992 0.825571 22.2027 0 22.2027V13.3281C2.3521 13.3281 4.61073 13.714 6.72917 14.4374C9.533 15.4021 12.0876 16.9294 14.2528 18.923C15.3432 19.9198 16.3401 21.0291 17.2124 22.2349Z" fill="url(#paint1_linear_376_3274)"/>
<path fill-rule="evenodd" clip-rule="evenodd" d="M34.4257 13.3281V22.2027C33.6001 22.2027 32.7901 22.2992 32.0112 22.4439C30.8897 19.5821 29.4411 16.8972 27.6809 14.4374C29.7993 13.714 32.0736 13.3281 34.4257 13.3281ZM20.1729 18.923C19.0825 19.9198 18.0856 21.0291 17.2133 22.2349C14.5029 25.9326 12.9141 30.5467 12.9141 35.5307H21.5125C21.5125 32.3152 22.634 29.357 24.4721 27.058C23.5063 24.0677 22.0421 21.3185 20.1729 18.923Z" fill="url(#paint2_linear_376_3274)"/>
<path fill-rule="evenodd" clip-rule="evenodd" d="M34.4248 35.5305H25.8108C25.8108 32.5723 25.3435 29.7106 24.4712 27.0579C23.5054 24.0675 22.0412 21.3183 20.172 18.9229C19.2685 17.7492 18.2872 16.672 17.2124 15.6913C19.4087 13.6495 21.9477 11.9936 24.7204 10.836C25.7796 11.9614 26.7765 13.1672 27.68 14.4373C29.4402 16.8971 30.8888 19.582 32.0103 22.4437C33.568 26.4952 34.4248 30.9164 34.4248 35.5305ZM17.2124 4.77495C14.4397 6.4309 11.9162 8.47269 9.70434 10.836C6.69802 9.58201 3.4269 8.89068 0 8.89068V0C6.26188 0 12.1343 1.73636 17.2124 4.77495Z" fill="url(#paint3_linear_376_3274)"/>
<path fill-rule="evenodd" clip-rule="evenodd" d="M40.5449 35.5305V0H53.4114C62.6796 0 67.2124 3.87463 67.2124 11.8489C67.2124 19.9518 62.6328 23.9872 53.5204 23.9872H49.5172V35.5305H40.5449ZM53.4581 16.3666C57.0875 16.3666 58.6296 15.0321 58.6296 11.8971C58.6296 8.76205 57.1342 7.57236 53.4114 7.57236H49.5172V16.3666H53.4581Z" fill="white"/>
<path d="M79.4556 35.5305V8.11897H69.5176V0H98.6462V8.11897H88.7082V35.5305H79.4556Z" fill="white"/>
<path d="M112.402 20.9486C104.91 19.4695 101.701 16.3505 101.701 10.6109C101.701 3.79421 106.437 0 114.879 0C123.088 0 127.917 3.64955 128.602 10.3216L120.066 11.2219C119.474 8.39229 117.948 7.20258 114.832 7.20258C112.029 7.20258 110.424 8.19936 110.424 10.0965C110.424 11.656 111.53 12.5563 114.1 13.0707L118.555 13.9711C125.845 15.4502 129.194 18.7138 129.194 24.4534C129.194 31.6077 124.241 35.5305 115.378 35.5305C106.437 35.5305 101.561 31.5112 101.062 23.553H109.832C110.191 26.7685 112.075 28.2315 115.705 28.2315C118.773 28.2315 120.393 27.1061 120.393 24.9678C120.393 23.2154 119.194 22.2187 116.764 21.8006L112.402 20.9486Z" fill="white"/>
<path d="M15.2964 40.7556V59.8071H11.5736V51.5273H3.67612V59.8071H0V40.7556H3.67612V48.4727H11.5736V40.7556H15.2964Z" fill="white"/>
<path fill-rule="evenodd" clip-rule="evenodd" d="M31.994 41.7204C33.3959 42.5456 34.5019 43.7032 35.3119 45.193C36.1219 46.6829 36.5269 48.3602 36.5269 50.2252C36.5269 52.1009 36.1219 53.7836 35.3119 55.2734C34.5019 56.7739 33.3959 57.9369 31.994 58.7621C30.5921 59.5874 29.0292 60.0001 27.3054 60.0001C25.5712 60.0001 24.0031 59.5874 22.6012 58.7621C21.1993 57.9369 20.0933 56.7739 19.2833 55.2734C18.4733 53.7836 18.0684 52.1009 18.0684 50.2252C18.0684 48.3602 18.4733 46.6829 19.2833 45.193C20.0933 43.7032 21.1993 42.5456 22.6012 41.7204C24.0031 40.8951 25.5712 40.4824 27.3054 40.4824C29.0292 40.4824 30.5921 40.8951 31.994 41.7204ZM24.4549 44.7429C23.6345 45.2466 22.9906 45.9701 22.5233 46.9133C22.0664 47.8672 21.8379 48.9712 21.8379 50.2252C21.8379 51.4899 22.0664 52.5939 22.5233 53.5371C22.9906 54.4803 23.6345 55.2037 24.4549 55.7075C25.2648 56.2112 26.215 56.4631 27.3054 56.4631C28.3854 56.4631 29.3356 56.2112 30.156 55.7075C30.9763 55.2037 31.615 54.4803 32.0719 53.5371C32.5392 52.5939 32.7729 51.4899 32.7729 50.2252C32.7729 48.9712 32.5392 47.8672 32.0719 46.9133C31.615 45.9701 30.9763 45.2466 30.156 44.7429C29.3356 44.2391 28.3854 43.9873 27.3054 43.9873C26.215 43.9873 25.2648 44.2391 24.4549 44.7429Z" fill="white"/>
<path d="M42.9925 56.8971H49.1921V59.8071H39.3008V40.7556H42.9925V56.8971Z" fill="white"/>
<path fill-rule="evenodd" clip-rule="evenodd" d="M66.4807 55.2412C65.7122 56.6881 64.601 57.8081 63.1472 58.6013C61.6934 59.4051 59.9644 59.8071 57.9601 59.8071H51.3867V40.7556H57.9601C59.9644 40.7556 61.6934 41.1468 63.1472 41.9293C64.601 42.7117 65.7122 43.8157 66.4807 45.2412C67.2491 46.6774 67.6333 48.3494 67.6333 50.2572C67.6333 52.1436 67.2491 53.8049 66.4807 55.2412ZM62.2593 54.791C63.3497 53.7085 63.8949 52.1972 63.8949 50.2572C63.8949 48.2958 63.3497 46.7739 62.2593 45.6913C61.169 44.6088 59.6269 44.0675 57.633 44.0675H55.0784V56.4148H57.633C59.6269 56.4148 61.169 55.8735 62.2593 54.791Z" fill="white"/>
<path d="M74.0979 40.7556V59.8071H70.4062V40.7556H74.0979Z" fill="white"/>
<path d="M93.0883 59.8071H89.3966L81.1253 46.8489V59.8071H77.4336V40.7556H81.1253L89.3966 53.8103V40.7556H93.0883V59.8071Z" fill="white"/>
<path d="M110.579 42.2832C112.064 43.4194 113.015 44.9628 113.43 46.9135H109.551C109.188 46.0453 108.612 45.354 107.822 44.8395C107.023 44.3251 106.083 44.0678 105.003 44.0678C103.944 44.0678 103.004 44.3197 102.184 44.8234C101.363 45.3272 100.725 46.0507 100.268 46.9939C99.8211 47.9263 99.5978 49.0196 99.5978 50.2736C99.5978 52.2779 100.117 53.8374 101.155 54.952C102.184 56.0667 103.596 56.6241 105.392 56.6241C106.722 56.6241 107.864 56.2222 108.819 55.4183C109.764 54.6037 110.377 53.4783 110.657 52.0421H104.411V49.309H113.742V52.9745C113.482 54.2393 112.973 55.4022 112.215 56.4633C111.457 57.5244 110.46 58.3765 109.224 59.0196C107.999 59.6519 106.592 59.9681 105.003 59.9681C103.196 59.9681 101.597 59.5609 100.205 58.7463C98.8242 57.9317 97.7546 56.7902 96.9965 55.3218C96.2384 53.8535 95.8594 52.1707 95.8594 50.2736C95.8594 48.3872 96.2384 46.7098 96.9965 45.2415C97.7546 43.7838 98.819 42.6369 100.19 41.8009C101.571 40.9756 103.17 40.563 104.987 40.563C107.23 40.563 109.094 41.1364 110.579 42.2832Z" fill="white"/>
<path d="M128.492 57.2831C128.025 58.1084 127.329 58.7675 126.405 59.2606C125.481 59.7536 124.354 60.0001 123.025 60.0001C121.716 60.0001 120.548 59.7697 119.52 59.3088C118.492 58.8479 117.667 58.1887 117.043 57.3313C116.431 56.4631 116.078 55.4556 115.984 54.3088H119.91C120.003 55.0805 120.304 55.7236 120.813 56.238C121.332 56.7525 122.018 57.0098 122.869 57.0098C123.638 57.0098 124.224 56.7954 124.629 56.3667C125.045 55.9487 125.252 55.4074 125.252 54.7429C125.252 54.1426 125.086 53.6496 124.754 53.2638C124.422 52.8779 124.001 52.5671 123.492 52.3313C122.994 52.0955 122.298 51.8275 121.405 51.5274C120.252 51.1309 119.312 50.7397 118.586 50.3538C117.848 49.968 117.225 49.4053 116.716 48.6657C116.197 47.9262 115.938 46.9615 115.938 45.7718C115.938 44.132 116.509 42.8404 117.651 41.8972C118.793 40.954 120.304 40.4824 122.184 40.4824C124.136 40.4824 125.694 40.9701 126.857 41.9455C128.02 42.9101 128.679 44.2016 128.835 45.82H124.863C124.759 45.1448 124.479 44.5821 124.022 44.1319C123.565 43.6925 122.947 43.4728 122.168 43.4728C121.483 43.4728 120.932 43.6604 120.517 44.0355C120.102 44.3999 119.894 44.9358 119.894 45.6432C119.894 46.2005 120.055 46.6614 120.377 47.0258C120.699 47.401 121.109 47.7011 121.607 47.9262C122.096 48.162 122.771 48.4245 123.632 48.7139C124.816 49.1426 125.777 49.5499 126.514 49.9358C127.262 50.3109 127.895 50.8736 128.415 51.6239C128.934 52.3849 129.193 53.3763 129.193 54.5982C129.193 55.5735 128.96 56.4685 128.492 57.2831Z" fill="white"/>
<defs>
<linearGradient id="paint0_linear_376_3274" x1="34.4248" y1="35.8521" x2="0" y2="35.8521" gradientUnits="userSpaceOnUse">
<stop stop-color="#ED1C41"/>
<stop offset="1" stop-color="#19436F"/>
</linearGradient>
<linearGradient id="paint1_linear_376_3274" x1="4.7042" y1="8.47283" x2="22.4606" y2="25.6766" gradientUnits="userSpaceOnUse">
<stop stop-color="#ED1C41"/>
<stop offset="1" stop-color="#ED1C41"/>
</linearGradient>
<linearGradient id="paint2_linear_376_3274" x1="34.7372" y1="13.3281" x2="34.7372" y2="35.5307" gradientUnits="userSpaceOnUse">
<stop stop-color="#ED1C41"/>
<stop offset="1" stop-color="#19436F"/>
</linearGradient>
<linearGradient id="paint3_linear_376_3274" x1="15.2653" y1="-9.09967" x2="39.9032" y2="32.2676" gradientUnits="userSpaceOnUse">
<stop stop-color="#ED1C41"/>
<stop offset="1" stop-color="#ED1C41"/>
</linearGradient>
</defs>
</svg>
