<svg width="115" height="114" viewBox="0 0 115 114" fill="none" xmlns="http://www.w3.org/2000/svg">
<g clip-path="url(#clip0_243_1986)">
<path d="M112.072 107.937H102.371V42.2071C104.845 39.6604 105.5 35.8767 103.996 32.6508L91.7959 6.21362C89.8069 1.89626 84.7135 0.0287406 80.3964 1.99335C80.1537 2.11454 79.9113 2.23597 79.6931 2.35716L75.1333 5.00097C71.0101 7.37783 69.6276 12.6654 72.0045 16.7643C72.1257 16.9826 72.2712 17.2009 72.4167 17.3948L76.2975 22.9248L20.6091 55.0378C17.6258 56.7598 16.5828 60.5678 18.305 63.5754V63.5997C18.7172 64.2789 19.2509 64.861 19.8814 65.346V100.661H15.0547C13.7207 100.661 12.6292 101.752 12.6292 103.086V107.937H3.00036C1.78772 107.937 0.696271 108.81 0.526414 109.999C0.308124 111.502 1.47234 112.788 2.9276 112.788H112C113.212 112.788 114.304 111.915 114.474 110.726C114.692 109.222 113.528 107.937 112.072 107.937ZM22.3797 60.0825C22.4768 59.7187 22.7192 59.4033 23.0346 59.2337L79.1107 26.9268L80.6872 29.1581L24.4655 61.6592C23.7863 62.0474 22.9132 61.8291 22.5252 61.1499C22.3311 60.8345 22.2826 60.4463 22.3797 60.0825ZM43.0202 73.9803L46.2217 54.6737L68.9239 41.552L74.3568 73.9801H43.0202V73.9803ZM71.034 78.8313L58.7127 88.4118L46.3673 78.8313H71.034ZM27.1821 107.937H17.4802V105.511H27.1821V107.937ZM32.0329 107.937V103.086C32.0329 101.752 30.9415 100.66 29.6074 100.66H24.7566V66.5585C25.5085 66.4614 26.2118 66.219 26.891 65.8551L40.7888 57.8269L32.4454 107.937H32.0329ZM41.7591 81.4022L54.7353 91.4919L37.8785 104.589L41.7591 81.4022ZM41.5165 107.937L58.7129 94.5725L75.9094 107.937H41.5165ZM62.6662 91.4921L75.5938 81.4508L79.4502 104.541L62.6662 91.4921ZM97.5442 107.937H84.9561L73.4352 38.9571L83.5008 33.136L89.2007 41.2371C91.0441 43.9536 94.3185 45.3361 97.5442 44.7781V107.937ZM97.7868 39.6361C96.1376 40.388 94.197 39.8787 93.1543 38.3991L76.3944 14.5814C75.7638 13.7567 75.5455 12.6895 75.7638 11.6465C75.9821 10.6278 76.637 9.73036 77.5586 9.19691L82.1183 6.5531C82.6761 6.21362 83.331 6.04376 83.9859 6.04376C84.374 6.04376 84.7619 6.09219 85.1257 6.21362C86.1444 6.529 86.9692 7.25663 87.4057 8.22666L99.6056 34.6641C100.479 36.5316 99.6543 38.7629 97.7868 39.6361Z" fill="#EDA122"/>
</g>
<defs>
<clipPath id="clip0_243_1986">
<rect width="114" height="114" fill="white" transform="translate(0.5)"/>
</clipPath>
</defs>
</svg>
