<svg width="650" height="520" viewBox="0 0 650 520" fill="none" xmlns="http://www.w3.org/2000/svg">
<path d="M626.053 478.045H37.9324C37.9324 478.045 14.5497 485.758 1.65178 424.953C-11.2462 364.149 55.1351 347.957 70.9191 295.517C86.7032 243.078 17.8435 254.117 23.6321 182.354C29.4207 110.592 123.995 109.206 169.896 118.876C215.797 128.545 210.057 95.4115 263.133 40.1999C316.208 -15.0118 396.547 -9.48415 436.692 33.3025C476.838 76.0891 463.956 120.245 514.162 120.245C564.368 120.245 610.269 129.915 640.386 222.369C670.502 314.823 615.454 357.088 616.448 398.766C617.29 425.425 620.504 451.956 626.053 478.045V478.045Z" fill="#F7A31C"/>
<path opacity="0.7" d="M626.053 478.045H37.9324C37.9324 478.045 14.5497 485.758 1.65178 424.953C-11.2462 364.149 55.1351 347.957 70.9191 295.517C86.7032 243.078 17.8435 254.117 23.6321 182.354C29.4207 110.592 123.995 109.206 169.896 118.876C215.797 128.545 210.057 95.4115 263.133 40.1999C316.208 -15.0118 396.547 -9.48415 436.692 33.3025C476.838 76.0891 463.956 120.245 514.162 120.245C564.368 120.245 610.269 129.915 640.386 222.369C670.502 314.823 615.454 357.088 616.448 398.766C617.29 425.425 620.504 451.956 626.053 478.045V478.045Z" fill="white"/>
<path opacity="0.07" d="M142.549 97.0733V478.027H128.2V80.1641L142.549 97.0733ZM343.976 255.664L338.807 250.12V478.027H353.156V252.436L343.976 255.664ZM254.554 159.753V478.027H268.92V175.146L254.554 159.753ZM212.436 157.65V478.027H226.786V153.117L212.436 157.65ZM170.318 129.685V478.027H184.667V146.594L170.318 129.685ZM296.689 204.937V478.027H311.038V220.395L296.689 204.937ZM549.43 300.783V478.027H563.779V313.941L549.43 300.783ZM507.312 262.154V478.027H521.661V275.313L507.312 262.154ZM380.958 242.685V478.027H395.307V237.63L380.958 242.685ZM465.194 223.509V478.027H479.543V236.7L465.194 223.509ZM423.076 227.879V478.027H437.425V222.84L423.076 227.879Z" fill="black"/>
<path d="M596.486 343.29L456.94 215.974L337.402 262.821L243.333 147.701L198.068 162.279L124.268 73.3301" stroke="#F7A31C" stroke-width="3" stroke-linecap="round" stroke-linejoin="round"/>
<path d="M140.593 66.2714L108.585 54.417L114.325 88.0723L140.593 66.2714Z" fill="#F7A31C"/>
<path d="M178.977 427.627L184.88 424.937L183.625 417.86L177.102 417.354C176.271 415.169 175.176 413.094 173.841 411.175L177.2 405.516L172.113 400.429L166.406 403.821C163.119 401.593 159.404 400.076 155.497 399.369L153.866 392.847H146.676L145.045 399.369C142.797 399.793 140.607 400.482 138.523 401.424L133.37 396.972L127.5 401.13L129.929 407.506C128.366 409.125 127.003 410.926 125.869 412.87L119.086 412.169L116.559 418.903L122.168 422.719C121.9 424.292 121.764 425.885 121.76 427.48C121.76 428.165 121.76 428.834 121.76 429.502L115.857 432.763L117.733 439.726L124.402 439.628C125.383 441.716 126.615 443.676 128.071 445.466L125.266 451.515L130.777 456.146L136.126 452.314C138.148 453.48 140.306 454.394 142.55 455.037L143.626 461.56L150.785 462.196L152.953 456.081C155.305 455.875 157.622 455.377 159.851 454.597L164.367 459.195L170.596 455.592L168.966 449.395C170.765 447.858 172.369 446.105 173.743 444.178L180.07 445.352L183.119 438.829L178.227 434.72C178.768 432.396 179.02 430.013 178.977 427.627ZM168.33 427.497C168.33 431.044 167.278 434.512 165.307 437.462C163.336 440.411 160.535 442.71 157.257 444.068C153.98 445.425 150.373 445.781 146.894 445.088C143.415 444.396 140.219 442.688 137.71 440.18C135.202 437.671 133.494 434.475 132.801 430.996C132.109 427.517 132.465 423.91 133.822 420.633C135.18 417.355 137.479 414.554 140.428 412.583C143.378 410.612 146.846 409.56 150.393 409.56C155.139 409.577 159.684 411.475 163.034 414.837C166.384 418.199 168.265 422.751 168.265 427.497H168.33Z" fill="white"/>
<path d="M135.196 361.229L141.099 358.538L139.843 351.445L133.321 350.94C132.493 348.758 131.398 346.688 130.06 344.776L133.419 339.102L128.331 334.014L122.608 337.373C119.321 335.147 115.606 333.631 111.699 332.922L110.069 326.399H102.878L101.247 332.922C98.9978 333.339 96.8075 334.029 94.7251 334.976L89.5724 330.525L83.686 334.65L86.1156 341.01C84.5292 342.629 83.1391 344.43 81.9739 346.374L75.3211 345.755L72.8589 352.521L78.4681 356.321C78.1995 357.899 78.0631 359.497 78.0605 361.098C78.0605 361.783 78.0605 362.452 78.142 363.12L72.2393 366.381L74.0981 373.328L80.7835 373.246C81.7689 375.327 83.0006 377.281 84.4524 379.067L81.5662 385.068L87.0776 389.683L92.4259 385.867C94.446 387.034 96.6043 387.943 98.8504 388.574L99.9266 395.096L107.085 395.716L109.254 389.617C111.606 389.406 113.923 388.902 116.151 388.117L120.668 392.715L126.897 389.112L125.184 382.916C126.993 381.388 128.603 379.641 129.978 377.714L136.305 378.872L139.354 372.349L134.381 368.257C134.937 365.956 135.211 363.596 135.196 361.229V361.229ZM124.549 361.098C124.549 364.646 123.497 368.114 121.526 371.063C119.555 374.013 116.753 376.312 113.476 377.669C110.199 379.027 106.592 379.382 103.113 378.69C99.6335 377.998 96.4375 376.29 93.929 373.781C91.4206 371.273 89.7123 368.077 89.0202 364.598C88.3281 361.118 88.6833 357.512 90.0409 354.234C91.3985 350.957 93.6974 348.156 96.6471 346.185C99.5967 344.214 103.065 343.162 106.612 343.162C111.369 343.162 115.931 345.052 119.295 348.415C122.659 351.779 124.549 356.341 124.549 361.098Z" fill="white"/>
<path d="M227.506 247.056L241.806 240.533L238.773 223.347L222.989 222.124C220.986 216.833 218.335 211.811 215.097 207.172L223.25 193.426L210.906 181.082L197.046 189.235C189.078 183.834 180.07 180.158 170.598 178.441L166.587 162.624H149.14L145.128 178.555C139.717 179.571 134.45 181.241 129.442 183.528L116.968 172.734L102.668 182.745L108.571 198.171C104.723 202.107 101.357 206.486 98.5424 211.216L82.1224 209.585L76.1544 225.891L89.7535 235.12C89.0986 238.95 88.7658 242.828 88.7589 246.713C88.7589 248.344 88.7589 249.975 88.9546 251.605L74.6543 259.595L79.171 276.455L95.3628 276.243C97.7403 281.299 100.724 286.046 104.249 290.381L97.2705 304.909L110.625 316.128L123.67 306.849C128.583 309.657 133.824 311.848 139.274 313.372L141.867 328.993L159.249 330.526L164.483 315.72C170.189 315.217 175.81 314.001 181.213 312.1L192.187 323.253L207.286 314.53L203.145 299.496C207.518 295.769 211.418 291.52 214.754 286.842L230.098 289.679L237.468 273.863L225.337 263.998C226.747 258.46 227.476 252.77 227.506 247.056V247.056ZM201.693 246.762C201.693 255.38 199.138 263.803 194.351 270.968C189.563 278.133 182.759 283.717 174.797 287.015C166.836 290.313 158.076 291.176 149.624 289.494C141.173 287.813 133.409 283.664 127.316 277.57C121.223 271.477 117.073 263.714 115.392 255.262C113.711 246.811 114.574 238.05 117.871 230.089C121.169 222.128 126.753 215.323 133.918 210.536C141.083 205.748 149.507 203.193 158.124 203.193C163.846 203.191 169.513 204.316 174.8 206.505C180.087 208.694 184.891 211.903 188.937 215.949C192.983 219.996 196.192 224.8 198.381 230.087C200.57 235.374 201.696 241.04 201.693 246.762V246.762Z" fill="white"/>
<path d="M587.615 195.187L593.518 192.496L592.214 185.403L585.691 184.898C584.857 182.719 583.762 180.649 582.43 178.734L585.773 173.076L580.8 167.988L575.093 171.38C571.81 169.145 568.093 167.629 564.184 166.929L562.553 160.406H555.362L553.732 166.929C551.482 167.345 549.292 168.034 547.209 168.983L542.041 164.532L536.138 168.657L538.567 175.033C536.986 176.647 535.602 178.442 534.442 180.381L527.675 179.68L525.213 186.447L530.822 190.246C530.554 191.825 530.418 193.423 530.414 195.024C530.414 195.708 530.414 196.377 530.414 197.046L524.512 200.307L526.371 207.253L533.056 207.171C534.032 209.259 535.258 211.219 536.708 213.009L533.839 218.993L539.35 223.624L544.682 219.792C546.735 220.967 548.926 221.882 551.204 222.515L552.264 229.038L559.439 229.657L561.591 223.559C563.943 223.353 566.26 222.855 568.489 222.075L573.022 226.657L579.251 223.07L577.538 216.873C579.343 215.336 580.953 213.584 582.332 211.656L588.659 212.813L591.692 206.291L586.8 202.182C587.363 199.893 587.636 197.543 587.615 195.187V195.187ZM576.984 195.056C576.984 198.604 575.932 202.072 573.961 205.021C571.99 207.971 569.189 210.27 565.912 211.627C562.634 212.985 559.028 213.34 555.548 212.648C552.069 211.956 548.873 210.248 546.365 207.739C543.856 205.231 542.148 202.035 541.456 198.555C540.764 195.076 541.119 191.47 542.476 188.192C543.834 184.915 546.133 182.113 549.083 180.143C552.032 178.172 555.5 177.12 559.048 177.12C563.805 177.12 568.367 179.009 571.731 182.373C575.094 185.737 576.984 190.299 576.984 195.056V195.056Z" fill="white"/>
<path d="M466.812 350.076C463.551 358.229 460.094 351.707 460.632 317.383C460.876 301.305 462.018 268.465 479.791 275.689C496.88 282.635 474.361 331.129 474.361 331.129L466.812 350.076ZM491.271 354.968C491.271 354.968 528.35 316.339 514.441 304.224C499.978 291.603 488.238 322.307 482.775 337.423C471.117 369.708 472.193 377.03 477.998 370.361L491.271 354.968ZM499.097 389.634C499.097 389.634 533.03 365.469 524.16 354.185C514.914 342.445 501.494 364.213 495.135 374.991C481.552 397.983 481.308 403.739 486.705 399.45L499.097 389.634ZM508.278 424.186C508.278 424.186 542.21 400.037 533.34 388.754C524.111 377.013 510.691 398.782 504.315 409.56C490.733 432.535 490.504 438.307 495.885 434.019L508.278 424.186ZM449.006 354.707C449.006 354.707 401.523 329.987 393.794 346.733C385.755 364.164 418.53 366.806 434.559 367.784C468.801 369.904 475.535 366.806 467.513 363.121L449.006 354.707ZM455.691 381.905C455.691 381.905 404.246 367.132 400.007 385.068C395.588 403.755 428.232 399.825 444.147 397.608C478.128 392.863 484.112 388.493 475.519 386.487L455.691 381.905ZM467.48 411.582C467.48 411.582 423.618 400.266 420.454 415.544C417.193 431.442 444.652 427.366 458.072 425.116C486.705 420.322 491.662 416.49 484.341 414.99L467.48 411.582ZM474.345 436.041C474.345 436.041 431.95 420.126 427.156 434.981C422.264 450.439 449.984 449.314 463.551 448.498C492.526 446.77 497.793 443.492 490.749 441.21L474.345 436.041ZM445.94 311.969C445.94 311.969 426.585 251.801 404.621 262.725C381.793 274.14 408.16 301.24 421.384 314.219C449.593 341.939 458.316 343.88 454.599 334.21L445.94 311.969Z" fill="white"/>
<path d="M413.755 284.184C413.755 284.184 462.379 343.504 474.087 373.197C487.441 407.326 496.556 445.758 498.35 477.555" stroke="#CCCCCC" stroke-width="1.25197" stroke-linecap="round" stroke-linejoin="round"/>
<path d="M464.33 353.825L471.097 297.26" stroke="#CCCCCC" stroke-width="1.25197" stroke-linecap="round" stroke-linejoin="round"/>
<path d="M474.022 373.196L498.481 325.648" stroke="#CCCCCC" stroke-width="1.25197" stroke-linecap="round" stroke-linejoin="round"/>
<path d="M470.449 366.154L419.216 355.718" stroke="#CCCCCC" stroke-width="1.25197" stroke-linecap="round" stroke-linejoin="round"/>
<path d="M483.639 400.184L513.756 365.86" stroke="#CCCCCC" stroke-width="1.25197" stroke-linecap="round" stroke-linejoin="round"/>
<path d="M479.432 388.884L440.755 388.542" stroke="#CCCCCC" stroke-width="1.25197" stroke-linecap="round" stroke-linejoin="round"/>
<path d="M486.87 416.947L457.21 418.121" stroke="#CCCCCC" stroke-width="1.25197" stroke-linecap="round" stroke-linejoin="round"/>
<path d="M492.968 434.865L508.85 413.7" stroke="#CCCCCC" stroke-width="1.25197" stroke-linecap="round" stroke-linejoin="round"/>
<path d="M494.124 442.743L459.441 441.015" stroke="#CCCCCC" stroke-width="1.25197" stroke-linecap="round" stroke-linejoin="round"/>
<path d="M590.755 396.939C584.771 399.189 586.613 394.15 605.12 377.567C613.795 369.806 631.829 354.266 636.721 367.278C641.417 379.769 604.517 391.737 604.517 391.737L590.755 396.939ZM600.18 412.315C600.18 412.315 638.939 413.049 638.547 399.694C638.156 385.802 616.045 394.64 605.316 399.173C582.488 408.842 579.064 413.016 585.456 412.821L600.18 412.315ZM585.504 433.513C585.504 433.513 615.051 439.693 616.681 429.42C618.312 418.74 600.212 422.311 591.358 424.218C572.443 428.279 569.264 430.985 574.188 431.768L585.504 433.513ZM571.644 455.395C571.644 455.395 601.174 461.559 602.821 451.302C604.452 440.622 586.336 444.177 577.482 446.085C558.583 450.161 555.404 452.868 560.312 453.65L571.644 455.395ZM579.471 389.699C579.471 389.699 569.28 352.293 556.643 356.419C543.419 360.707 558.127 379.442 565.481 388.46C581.183 407.717 586.14 409.771 584.167 403.689L579.471 389.699ZM568.285 406.641C568.285 406.641 550.854 372.007 539.228 378.562C527.129 385.41 545.262 400.836 554.262 408.206C573.487 423.957 578.721 424.985 575.607 419.424L568.285 406.641ZM558.29 427.48C558.29 427.48 542.75 398.602 533.081 404.423C522.988 410.473 538.69 423.11 546.468 429.143C563.1 442.008 567.568 442.758 564.78 438.127L558.29 427.48ZM548.637 443.166C548.637 443.166 536.261 412.804 526.004 417.566C515.34 422.457 529.608 436.741 536.717 443.557C551.865 458.135 556.284 459.341 553.953 454.449L548.637 443.166ZM600.685 367.083C600.685 367.083 623.171 327.215 606.555 320.904C589.255 314.382 587.82 341.711 587.412 355.147C586.532 383.78 589.777 389.389 593.103 382.638L600.685 367.083Z" fill="white"/>
<path d="M599.737 336.329C599.737 336.329 592.073 391.345 581.996 412.135C570.419 436.007 552.955 461.428 536.91 478.027" stroke="#CCCCCC" stroke-width="1.25197" stroke-linecap="round" stroke-linejoin="round"/>
<path d="M587.54 397.462L620.967 373.248" stroke="#CCCCCC" stroke-width="1.25197" stroke-linecap="round" stroke-linejoin="round"/>
<path d="M581.997 412.137L619.321 401.767" stroke="#CCCCCC" stroke-width="1.25197" stroke-linecap="round" stroke-linejoin="round"/>
<path d="M583.986 406.771L564.37 374.388" stroke="#CCCCCC" stroke-width="1.25197" stroke-linecap="round" stroke-linejoin="round"/>
<path d="M572.376 430.512L605.444 429.664" stroke="#CCCCCC" stroke-width="1.25197" stroke-linecap="round" stroke-linejoin="round"/>
<path d="M576.321 422.719L557.487 401.978" stroke="#CCCCCC" stroke-width="1.25197" stroke-linecap="round" stroke-linejoin="round"/>
<path d="M565.056 440.477L549.843 425.28" stroke="#CCCCCC" stroke-width="1.25197" stroke-linecap="round" stroke-linejoin="round"/>
<path d="M558.514 452.528L577.575 450.571" stroke="#CCCCCC" stroke-width="1.25197" stroke-linecap="round" stroke-linejoin="round"/>
<path d="M554.895 457.009L538.769 437.719" stroke="#CCCCCC" stroke-width="1.25197" stroke-linecap="round" stroke-linejoin="round"/>
<path d="M349.731 520C408.527 520 456.192 512.057 456.192 502.259C456.192 492.461 408.527 484.519 349.731 484.519C290.934 484.519 243.27 492.461 243.27 502.259C243.27 512.057 290.934 520 349.731 520Z" fill="#F7A31C"/>
<path opacity="0.5" d="M349.731 520C408.527 520 456.192 512.057 456.192 502.259C456.192 492.461 408.527 484.519 349.731 484.519C290.934 484.519 243.27 492.461 243.27 502.259C243.27 512.057 290.934 520 349.731 520Z" fill="white"/>
<path d="M340.53 113.985C328.5 136.004 325.271 161.767 331.497 186.074C341.949 226.936 370.957 274.223 370.957 274.223L407.091 262.809C407.091 262.809 404.238 194.862 389.024 162.724C373.811 130.585 345.765 113.056 340.53 113.985Z" fill="#263238" stroke="#263238" stroke-linecap="round" stroke-linejoin="round"/>
<path d="M365.255 111.586C353.202 134.529 349.987 161.096 356.222 186.251C366.69 228.646 395.698 277.564 395.698 277.564L431.832 265.628C431.832 265.628 428.978 195.268 413.765 161.972C398.552 128.675 370.457 110.722 365.255 111.586Z" fill="#F7A31C"/>
<path opacity="0.29" d="M363.934 130.288C353.243 150.635 350.394 174.198 355.927 196.506C365.205 234.01 390.936 277.481 390.936 277.481L422.993 266.948C422.993 266.948 420.466 204.513 406.965 174.999C393.464 145.485 368.532 129.489 363.934 130.288Z" fill="black"/>
<path d="M365.255 111.586C353.202 134.529 349.987 161.096 356.222 186.251C366.69 228.646 395.698 277.564 395.698 277.564L431.832 265.628C431.832 265.628 428.978 195.268 413.765 161.972C398.552 128.675 370.457 110.722 365.255 111.586Z" stroke="#263238" stroke-linecap="round" stroke-linejoin="round"/>
<path d="M365.256 111.587C357.746 125.692 353.621 141.351 353.206 157.325C360.099 157.62 367.003 157.127 373.784 155.858C384.417 153.984 394.597 150.111 403.787 144.444C388.573 122.463 369.479 110.821 365.256 111.587Z" fill="#263238" stroke="#263238" stroke-linecap="round" stroke-linejoin="round"/>
<path d="M431.393 257.785L392.178 271.368C394.363 275.281 395.7 277.532 395.7 277.532L431.834 265.628C431.834 265.628 431.703 262.71 431.393 257.785Z" fill="#263238" stroke="#263238" stroke-linecap="round" stroke-linejoin="round"/>
<path d="M275.016 481.404C275.016 481.404 261.319 491.367 250.116 494.449C238.914 497.531 246.382 503.776 255.09 503.776C263.797 503.776 278.13 500.662 284.978 500.662C291.827 500.662 298.023 503.156 300.551 496.928C303.078 490.699 301.17 486.965 301.17 486.965C301.17 486.965 283.739 482.024 275.016 481.404Z" fill="white" stroke="#263238" stroke-linecap="round" stroke-linejoin="round"/>
<path d="M286.188 496.715C275.377 496.715 270.811 500.139 259.707 500.987C254.492 501.565 249.243 500.264 244.901 497.318C242.814 500.368 248.619 503.841 255.092 503.841C263.816 503.841 278.133 500.726 284.981 500.726C291.829 500.726 298.026 503.221 300.553 496.992C301.122 495.596 301.511 494.133 301.711 492.639C296.874 495.055 291.588 496.443 286.188 496.715V496.715Z" fill="white" stroke="#263238" stroke-linecap="round" stroke-linejoin="round"/>
<path d="M379.914 484.47C379.914 484.47 371.663 498.151 366.869 502.13C362.075 506.108 358.896 510.674 364.293 510.967C369.69 511.261 380.827 508.114 391.083 503.842C401.34 499.57 411.303 488.465 411.303 486.753C411.303 485.041 406.183 477.345 406.183 477.345C406.183 477.345 387.039 480.492 379.914 484.47Z" fill="white" stroke="#263238" stroke-linecap="round" stroke-linejoin="round"/>
<path d="M410.191 484.127C403.491 491.414 395.306 497.18 386.189 501.036C373.601 506.433 365.383 507.901 361.583 508.309C361.078 509.809 361.714 510.885 364.241 511.015C369.655 511.293 380.775 508.162 391.032 503.89C401.288 499.618 411.251 488.513 411.251 486.801C411.062 485.853 410.703 484.947 410.191 484.127V484.127Z" fill="white" stroke="#263238" stroke-linecap="round" stroke-linejoin="round"/>
<path d="M304.287 270.341L296.819 294.62C296.819 294.62 269.36 353.762 263.816 369.334C258.272 384.906 271.284 412.3 272.539 429.666C273.795 447.031 273.159 470.756 273.159 470.756C272.469 471.274 271.892 471.927 271.463 472.676C271.034 473.425 270.762 474.253 270.664 475.11V483.263L303.031 490.731C303.031 490.731 304.287 475.175 303.031 467.088C301.776 459 300.553 408.55 300.553 401.081C300.553 393.613 298.058 378.677 298.058 378.677L321.718 347.549C321.718 347.549 314.869 384.27 317.364 391.119C319.859 397.967 341.643 424.122 347.236 429.095C352.829 434.068 381.479 472.681 381.479 472.681C381.479 472.681 377.125 476.415 377.125 479.529C377.305 482.465 377.719 485.382 378.364 488.253L407.633 480.1C407.633 480.1 403.899 468.278 397.67 452.706C391.442 437.134 356.58 382.362 356.58 382.362C356.58 382.362 384.593 312.622 384.593 297.066C384.593 281.51 385.213 270.292 385.213 270.292C385.213 270.292 336.654 283.418 304.287 270.341Z" fill="#263238" stroke="#263238" stroke-linecap="round" stroke-linejoin="round"/>
<path d="M321.715 347.55L329.183 310.813L319.22 297.735" stroke="white" stroke-linecap="round" stroke-linejoin="round"/>
<path d="M274.657 261.78C274.026 261.909 273.369 261.793 272.819 261.456C272.27 261.12 271.868 260.587 271.697 259.966C271.525 259.344 271.595 258.681 271.893 258.11C272.192 257.538 272.696 257.102 273.304 256.888L338.022 232.429C338.335 232.311 338.667 232.256 339.001 232.267C339.335 232.278 339.664 232.354 339.968 232.492C340.272 232.63 340.547 232.826 340.775 233.07C341.003 233.314 341.182 233.6 341.299 233.913C341.417 234.225 341.472 234.558 341.461 234.892C341.451 235.226 341.374 235.554 341.236 235.859C341.099 236.163 340.902 236.437 340.658 236.666C340.415 236.894 340.128 237.072 339.816 237.19L275.114 261.649C274.966 261.706 274.813 261.75 274.657 261.78V261.78Z" fill="#263238" stroke="#263238" stroke-linecap="round" stroke-linejoin="round"/>
<path d="M277.381 229.755C277.381 229.755 284.328 231.842 302.965 221.325L308.085 241.463C308.085 241.463 294.861 247.17 275.311 244.48L277.381 229.755Z" fill="white"/>
<path opacity="0.15" d="M277.381 229.756C277.381 229.756 284.328 231.843 302.965 221.326L308.085 241.464C308.085 241.464 294.861 247.171 275.311 244.481L277.381 229.756Z" fill="black"/>
<path d="M277.381 229.755C277.381 229.755 284.328 231.842 302.965 221.325L308.085 241.463C308.085 241.463 294.861 247.17 275.311 244.48L277.381 229.755Z" stroke="#263238" stroke-linecap="round" stroke-linejoin="round"/>
<path d="M276.535 257.344C275.613 257.34 274.718 257.033 273.987 256.47C273.256 255.907 272.731 255.12 272.491 254.229L262.528 216.726C262.387 216.191 262.353 215.633 262.427 215.084C262.501 214.535 262.683 214.007 262.961 213.528C263.24 213.05 263.61 212.631 264.051 212.295C264.491 211.96 264.993 211.715 265.529 211.573C266.064 211.432 266.622 211.397 267.171 211.472C267.719 211.546 268.248 211.728 268.726 212.006C269.205 212.285 269.624 212.655 269.959 213.095C270.295 213.536 270.54 214.038 270.681 214.574L280.644 252.077C280.787 252.608 280.823 253.162 280.751 253.707C280.679 254.252 280.5 254.778 280.224 255.254C279.949 255.73 279.582 256.146 279.144 256.48C278.707 256.813 278.208 257.057 277.677 257.197C277.305 257.3 276.921 257.349 276.535 257.344V257.344Z" fill="#F7A31C" stroke="#263238" stroke-miterlimit="10"/>
<path d="M280.378 222.041C275.617 219.987 272.062 234.548 278.161 238.836C281.422 241.119 283.476 236.782 283.786 233.944C284.096 231.107 283.998 226.183 282.384 223.851C281.891 223.078 281.198 222.452 280.378 222.041V222.041Z" fill="white" stroke="#263238" stroke-linecap="round" stroke-linejoin="round"/>
<path d="M278.835 243.761C278.835 243.761 271.775 243.501 269.051 245.865C266.328 248.229 268.35 251.05 269.965 250.757C271.579 250.463 279.08 249.762 280.563 248.213C282.047 246.664 282.064 245.8 278.835 243.761Z" fill="white" stroke="#263238" stroke-linecap="round" stroke-linejoin="round"/>
<path d="M276.924 237.273C276.924 237.273 268.771 236.817 265.624 239.638C262.477 242.459 264.907 245.981 266.782 245.72C268.657 245.459 277.365 244.676 279.06 242.801C280.756 240.926 280.772 239.817 276.924 237.273Z" fill="white" stroke="#263238" stroke-linecap="round" stroke-linejoin="round"/>
<path d="M276.174 230.636C276.174 230.636 266.228 228.81 262.021 231.777C257.814 234.745 260.162 239.392 262.494 239.376C264.825 239.36 275.538 239.735 277.903 237.745C280.267 235.756 280.397 234.337 276.174 230.636Z" fill="white" stroke="#263238" stroke-linecap="round" stroke-linejoin="round"/>
<path d="M275.635 222.727C275.635 222.727 265.704 220.901 261.481 223.868C257.258 226.836 259.638 231.467 261.97 231.45C264.302 231.434 275.015 231.809 277.379 229.82C279.744 227.831 279.858 226.493 275.635 222.727Z" fill="white" stroke="#263238" stroke-linecap="round" stroke-linejoin="round"/>
<path d="M301.626 151.65C301.626 151.65 289.429 174.054 291.745 192.839C294.06 211.623 301.626 230.342 303.599 238.625C305.572 246.909 299.31 266.345 300.631 272.216C301.952 278.086 329.623 281.119 353.348 282.113C377.073 283.108 387.59 276.83 388.928 270.243C390.265 263.655 390.901 264.65 389.906 252.453C388.911 240.256 378.052 175.701 371.464 163.178C364.876 150.655 333.585 139.796 328.302 138.442C323.019 137.089 308.491 139.143 301.626 151.65Z" fill="white"/>
<path opacity="0.15" d="M360.933 167.188L348.426 186.755C348.426 186.755 347.35 196 352.242 203.061C355.102 207.233 358.188 211.244 361.487 215.078L337.55 202.572C337.55 202.572 353.334 227.031 357.672 231.922C362.009 236.814 368.548 244.967 362.025 254.229C355.715 263.164 327.033 274.66 324.163 279.829C333.148 280.97 343.583 281.72 353.351 282.128C377.059 283.106 387.593 276.845 388.93 270.257C390.267 263.67 390.903 264.664 389.908 252.468C388.979 241.054 379.391 183.722 372.771 166.193C367.83 165.003 363.591 165.052 360.933 167.188Z" fill="black"/>
<path d="M301.626 151.65C301.626 151.65 289.429 174.054 291.745 192.839C294.06 211.623 301.626 230.342 303.599 238.625C305.572 246.909 299.31 266.345 300.631 272.216C301.952 278.086 329.623 281.119 353.348 282.113C377.073 283.108 387.59 276.83 388.928 270.243C390.265 263.655 390.901 264.65 389.906 252.453C388.911 240.256 378.052 175.701 371.464 163.178C364.876 150.655 333.585 139.796 328.302 138.442C323.019 137.089 308.491 139.143 301.626 151.65Z" stroke="#263238" stroke-linecap="round" stroke-linejoin="round"/>
<path d="M327.328 131.562L303.603 161.532L316.207 179.321L337.127 140.089L327.328 131.562Z" fill="white" stroke="#263238" stroke-linecap="round" stroke-linejoin="round"/>
<path d="M294.16 159.543L293.899 173.061L304.71 166.571L294.16 159.543Z" fill="white" stroke="#263238" stroke-linecap="round" stroke-linejoin="round"/>
<path d="M297.963 148.454L294.164 159.542L309.035 172.782L297.963 148.454Z" fill="white" stroke="#263238" stroke-linecap="round" stroke-linejoin="round"/>
<path d="M291.929 133.061C291.929 133.061 303.996 166.178 307.452 165.135C310.909 164.091 324.704 140.676 325.389 136.159C326.074 131.643 321.247 120.979 321.247 120.979C314.685 122.57 308.32 124.883 302.267 127.876C291.57 133.061 291.929 133.061 291.929 133.061Z" fill="white"/>
<path d="M302.267 127.875L301.81 128.103C301.528 129.044 301.11 129.94 300.571 130.761C297.44 135.441 294.782 136.908 293.543 137.365C293.641 137.626 293.739 137.887 293.853 138.164L317.757 151.486C321.605 145.078 325.046 138.441 325.388 136.207C326.073 131.723 321.247 121.026 321.247 121.026C314.687 122.602 308.321 124.899 302.267 127.875V127.875Z" fill="#F7A31C"/>
<path opacity="0.5" d="M302.267 127.875L301.81 128.103C301.528 129.044 301.11 129.94 300.571 130.761C297.44 135.441 294.782 136.908 293.543 137.365C293.641 137.626 293.739 137.887 293.853 138.164L317.757 151.486C321.605 145.078 325.046 138.441 325.388 136.207C326.073 131.723 321.247 121.026 321.247 121.026C314.687 122.602 308.321 124.899 302.267 127.875V127.875Z" fill="white"/>
<path d="M291.929 133.061C291.929 133.061 303.996 166.178 307.452 165.135C310.909 164.091 324.704 140.676 325.389 136.159C326.074 131.643 321.247 120.979 321.247 120.979C314.685 122.57 308.32 124.883 302.267 127.876C291.57 133.061 291.929 133.061 291.929 133.061Z" stroke="#263238" stroke-linecap="round" stroke-linejoin="round"/>
<path d="M291.75 192.84C291.75 192.84 298.664 202.395 333.248 202.053L339.51 211.282C339.51 211.282 312.165 217.217 293.397 201.4L291.75 192.84Z" fill="#263238" stroke="#263238" stroke-linecap="round" stroke-linejoin="round"/>
<path d="M344.77 144.737C344.77 144.737 333.911 146.71 328.644 167.794C323.377 188.877 335.884 216.548 355.646 224.131C375.409 231.713 385.633 218.195 385.633 218.195L382.665 210.955C382.665 210.955 375.751 224.457 358.614 217.217C341.476 209.977 334.889 192.253 336.21 174.708C337.53 157.162 353.347 149.026 353.347 149.026L344.77 144.737Z" fill="#263238" stroke="#263238" stroke-linecap="round" stroke-linejoin="round"/>
<path d="M311.753 275.623C311.042 275.646 310.35 275.396 309.817 274.925C309.284 274.454 308.951 273.797 308.887 273.089C308.822 272.381 309.03 271.675 309.469 271.115C309.908 270.556 310.544 270.185 311.248 270.079L431.503 227.781C432.234 227.643 432.99 227.801 433.605 228.22C434.219 228.639 434.643 229.284 434.781 230.015C434.919 230.746 434.762 231.502 434.343 232.117C433.924 232.731 433.278 233.154 432.547 233.293L312.275 275.59C312.102 275.617 311.928 275.628 311.753 275.623V275.623Z" fill="#263238" stroke="#263238" stroke-linecap="round" stroke-linejoin="round"/>
<path d="M315.896 270.815C314.868 270.815 313.868 270.477 313.052 269.852C312.235 269.227 311.648 268.351 311.379 267.359L300.34 225.567C300.144 224.962 300.073 224.323 300.133 223.69C300.192 223.057 300.379 222.443 300.683 221.885C300.988 221.327 301.402 220.836 301.903 220.444C302.403 220.051 302.977 219.765 303.592 219.602C304.206 219.439 304.848 219.403 305.476 219.496C306.105 219.589 306.709 219.809 307.25 220.143C307.791 220.476 308.258 220.917 308.623 221.437C308.988 221.958 309.243 222.547 309.373 223.17L320.494 264.945C320.814 266.137 320.652 267.406 320.041 268.478C319.43 269.55 318.421 270.337 317.233 270.669C316.795 270.775 316.346 270.825 315.896 270.815V270.815Z" fill="#F7A31C" stroke="#263238" stroke-miterlimit="10"/>
<path d="M339.476 247.837C339.476 247.837 324.98 236.651 320.708 233.684C316.435 230.716 306.538 234.662 303.244 234.662C299.95 234.662 295.662 237.923 296.33 240.271C296.978 241.895 298.119 243.275 299.591 244.217C299.591 244.217 297.276 248.18 299.249 251.147C300.343 252.568 301.031 254.258 301.238 256.039C302.043 258.039 303.279 259.838 304.858 261.306C306.831 262.627 311.12 263.279 316.387 263.279C321.653 263.279 330.882 259.659 330.882 259.659L340.112 259.333L339.476 247.837Z" fill="white"/>
<path d="M330.945 259.708L340.174 259.382L340.044 257.116L338.641 250.398C338.641 250.398 322.873 240.614 316.335 241.152C309.796 241.69 306.013 241.641 305.459 251.49C305.313 253.583 305.614 255.684 306.342 257.652C307.07 259.62 308.209 261.41 309.682 262.904C311.923 263.223 314.185 263.375 316.449 263.361C321.716 263.328 330.945 259.708 330.945 259.708Z" fill="#F7A31C"/>
<path opacity="0.5" d="M330.945 259.708L340.174 259.382L340.044 257.116L338.641 250.398C338.641 250.398 322.873 240.614 316.335 241.152C309.796 241.69 306.013 241.641 305.459 251.49C305.313 253.583 305.614 255.684 306.342 257.652C307.07 259.62 308.209 261.41 309.682 262.904C311.923 263.223 314.185 263.375 316.449 263.361C321.716 263.328 330.945 259.708 330.945 259.708Z" fill="white"/>
<path d="M339.476 247.837C339.476 247.837 324.98 236.651 320.708 233.684C316.435 230.716 306.538 234.662 303.244 234.662C299.95 234.662 295.662 237.923 296.33 240.271C296.978 241.895 298.119 243.275 299.591 244.217C299.591 244.217 297.276 248.18 299.249 251.147C300.343 252.568 301.031 254.258 301.238 256.039C302.043 258.039 303.279 259.838 304.858 261.306C306.831 262.627 311.12 263.279 316.387 263.279C321.653 263.279 330.882 259.659 330.882 259.659L340.112 259.333L339.476 247.837Z" stroke="#263238" stroke-linecap="round" stroke-linejoin="round"/>
<path d="M349.062 155.287C349.062 155.287 337.207 166.146 341.822 180.642C346.436 195.138 365.563 208.64 370.455 215.227C374.053 219.828 378.023 224.126 382.326 228.076C382.326 228.076 367.487 235.332 356.954 239.947C350.976 242.573 344.812 244.754 338.512 246.469L338.838 258.976C338.838 258.976 375.069 260.606 391.865 254.084C408.66 247.562 420.856 239.262 420.856 229.381C420.856 219.499 399.805 201.074 388.587 183.284C377.369 165.494 369.15 156.265 357.965 154.618" fill="white"/>
<path opacity="0.15" d="M391.882 254.1C408.693 247.577 420.873 239.278 420.873 229.396C420.873 219.515 399.806 201.073 388.588 183.283C380.549 170.499 374.027 162.167 366.836 157.862C369.967 160.993 379.522 170.989 379.978 176.435C380.516 182.957 353.335 180.25 358.226 183.511C363.118 186.773 385.408 194.387 395.208 203.078C405.008 211.77 417.498 219.384 412.068 225.907C406.638 232.429 381.087 240.582 362.58 252.55C359.874 254.119 357.626 256.367 356.058 259.073C367.7 258.845 382.701 257.703 391.882 254.1Z" fill="black"/>
<path d="M349.062 155.287C349.062 155.287 337.207 166.146 341.822 180.642C346.436 195.138 365.563 208.64 370.455 215.227C374.053 219.828 378.023 224.126 382.326 228.076C382.326 228.076 367.487 235.332 356.954 239.947C350.976 242.573 344.812 244.754 338.512 246.469L338.838 258.976C338.838 258.976 375.069 260.606 391.865 254.084C408.66 247.562 420.856 239.262 420.856 229.381C420.856 219.499 399.805 201.074 388.587 183.284C377.369 165.494 369.15 156.265 357.965 154.618" stroke="#263238" stroke-linecap="round" stroke-linejoin="round"/>
<path d="M345.442 244.545L346.763 259.041" stroke="#263238" stroke-linecap="round" stroke-linejoin="round"/>
<path d="M382.34 228.125C382.34 228.125 394.194 220.216 401.776 218.243" stroke="#263238" stroke-linecap="round" stroke-linejoin="round"/>
<path d="M288.258 80.3592C286.96 83.5582 285.834 86.824 284.883 90.1427C284.084 93.5017 279.828 99.5838 277.333 101.133C274.838 102.682 269.017 104.851 271.577 107.655C273.853 109.72 276.446 111.405 279.257 112.645C279.257 112.645 277.252 124.222 278.523 130.891C279.795 137.56 284.491 138.685 288.747 138.62C293.003 138.555 309.064 136.647 314.494 130.125C319.924 123.602 328.664 102.975 324.376 89.572C320.087 76.1685 295.857 67.6243 288.258 80.3592Z" fill="white"/>
<path d="M298.402 103.566C300.57 112.274 304.924 124.226 300.57 130.764C296.217 137.303 292.76 137.58 292.76 137.58L293.836 138.167C300.358 137.303 310.419 135.004 314.495 130.112C319.925 123.59 328.665 102.963 324.377 89.5595C323.716 87.577 322.699 85.7316 321.377 84.1133L303.293 87.7984C303.293 87.7984 296.217 94.8589 298.402 103.566Z" fill="#F7A31C"/>
<path opacity="0.5" d="M298.402 103.566C300.57 112.274 304.924 124.226 300.57 130.764C296.217 137.303 292.76 137.58 292.76 137.58L293.836 138.167C300.358 137.303 310.419 135.004 314.495 130.112C319.925 123.59 328.665 102.963 324.377 89.5595C323.716 87.577 322.699 85.7316 321.377 84.1133L303.293 87.7984C303.293 87.7984 296.217 94.8589 298.402 103.566Z" fill="white"/>
<path d="M288.258 80.3592C286.96 83.5582 285.834 86.824 284.883 90.1427C284.084 93.5017 279.828 99.5838 277.333 101.133C274.838 102.682 269.017 104.851 271.577 107.655C273.853 109.72 276.446 111.405 279.257 112.645C279.257 112.645 277.252 124.222 278.523 130.891C279.795 137.56 284.491 138.685 288.747 138.62C293.003 138.555 309.064 136.647 314.494 130.125C319.924 123.602 328.664 102.975 324.376 89.572C320.087 76.1685 295.857 67.6243 288.258 80.3592Z" stroke="#263238" stroke-linecap="round" stroke-linejoin="round"/>
<path d="M310.125 127.764C310.125 127.764 300.342 136.178 292.841 137.547C292.841 137.547 305.886 139.406 319.468 128.204L310.125 127.764Z" fill="#263238" stroke="#263238" stroke-linecap="round" stroke-linejoin="round"/>
<path d="M289.843 91.7265C289.843 91.7265 293.414 85.3509 297.327 93.4876" stroke="#263238" stroke-linecap="round" stroke-linejoin="round"/>
<path d="M282.501 116.937C282.501 116.937 288.909 119.856 294.029 116.105" stroke="#263238" stroke-linecap="round" stroke-linejoin="round"/>
<path d="M291.145 98.2342C290.77 99.8648 289.955 100.974 289.302 100.811C288.65 100.648 288.422 99.2615 288.797 97.6799C289.172 96.0982 289.987 94.9568 290.639 95.1035C291.292 95.2503 291.52 96.6526 291.145 98.2342Z" fill="#263238"/>
<path d="M281.556 84.9917C281.556 84.9917 308.183 92.2967 308.754 97.4005C309.325 102.504 304.628 113.266 307.123 124.109C309.618 134.953 324.391 138.1 336.718 133.893C349.046 129.686 357.916 106.988 356.285 88.2366C354.655 69.4848 335.561 58.5436 320.625 55.7226C305.688 52.9017 283.007 63.7125 281.556 84.9917Z" fill="#F7A31C"/>
<path opacity="0.29" d="M332.119 70.9372C329.621 70.5013 327.088 70.2993 324.553 70.3339C325.574 71.3637 326.158 72.7482 326.183 74.1984C326.183 75.9282 325.496 77.5872 324.273 78.8104C323.05 80.0335 321.391 80.7207 319.661 80.7207C317.931 80.7207 316.272 80.0335 315.049 78.8104C313.826 77.5872 313.139 75.9282 313.139 74.1984C313.137 73.7863 313.186 73.3755 313.285 72.9754C306.6 76.3345 301.871 82.5307 296.979 90.0151C303.013 92.3468 308.573 95.1025 308.834 97.4016C309.421 102.505 304.708 113.267 307.203 124.111C309.698 134.954 324.471 138.101 336.798 133.894C348.441 129.932 357.001 109.435 356.561 91.3196C354.311 86.4115 347.446 73.5625 332.119 70.9372Z" fill="black"/>
<path d="M281.556 84.9917C281.556 84.9917 308.183 92.2967 308.754 97.4005C309.325 102.504 304.628 113.266 307.123 124.109C309.618 134.953 324.391 138.1 336.718 133.893C349.046 129.686 357.916 106.988 356.285 88.2366C354.655 69.4848 335.561 58.5436 320.625 55.7226C305.688 52.9017 283.007 63.7125 281.556 84.9917Z" stroke="#263238" stroke-linecap="round" stroke-linejoin="round"/>
<path d="M314.559 124.876C308.036 114.457 316.499 98.7869 312.602 94.2865C309.341 90.5851 289.448 83.4431 282.11 80.8994C281.839 82.2506 281.654 83.6176 281.556 84.9922C281.556 84.9922 308.183 92.2972 308.754 97.401C309.325 102.505 304.628 113.267 307.123 124.11C309.618 134.953 324.391 138.1 336.718 133.894H336.882C328.142 134.317 318.831 131.708 314.559 124.876Z" fill="#263238" stroke="#263238" stroke-linecap="round" stroke-linejoin="round"/>
</svg>
