<svg width="314" height="315" viewBox="0 0 314 315" fill="none" xmlns="http://www.w3.org/2000/svg">
<path d="M63.5923 209.391C94.6615 246.53 132.062 275.772 174.75 296.463C191.002 304.165 212.738 313.303 236.953 314.869C238.454 314.935 239.89 315 241.392 315C257.644 315 270.699 309.387 281.338 297.834C281.403 297.768 281.534 297.638 281.599 297.507C285.385 292.938 289.693 288.826 294.196 284.453C297.264 281.516 300.397 278.448 303.4 275.315C317.302 260.825 317.302 242.418 303.269 228.385L264.041 189.157C257.383 182.238 249.42 178.583 241.065 178.583C232.711 178.583 224.682 182.238 217.829 189.091L194.462 212.459C192.308 211.218 190.088 210.109 188 209.064C185.389 207.759 182.974 206.519 180.82 205.148C159.541 191.637 140.221 174.014 121.749 151.364C112.415 139.55 106.149 129.629 101.776 119.512C107.912 113.964 113.655 108.155 119.204 102.476C121.162 100.453 123.185 98.4293 125.209 96.4059C132.258 89.3566 136.044 81.1977 136.044 72.9082C136.044 64.6187 132.323 56.4598 125.209 49.4105L105.758 29.9596C103.473 27.6751 101.319 25.4559 99.0999 23.1714C94.792 18.7329 90.2883 14.1639 85.8498 10.0518C79.1269 3.45939 71.229 0 62.8743 0C54.5848 0 46.6217 3.45939 39.6376 10.1171L15.2261 34.5286C6.34921 43.4055 1.32331 54.1753 0.278965 66.6421C-0.961193 82.242 1.91075 98.821 9.3517 118.859C20.7742 149.863 38.0059 178.648 63.5923 209.391ZM16.2052 68.0128C16.9885 59.3317 20.3173 52.0866 26.5834 45.8206L50.8643 21.5396C54.6501 17.8844 58.8275 15.9915 62.8743 15.9915C66.8558 15.9915 70.9027 17.8844 74.6231 21.6701C78.9963 25.7169 83.1084 29.9596 87.5469 34.4633C89.7661 36.7478 92.0506 39.0323 94.3351 41.3821L113.786 60.833C117.833 64.8798 119.922 68.9919 119.922 73.0387C119.922 77.0856 117.833 81.1977 113.786 85.2445C111.763 87.2679 109.739 89.3566 107.716 91.38C101.646 97.5155 95.9669 103.325 89.7009 108.873C89.5703 109.003 89.505 109.069 89.3745 109.199C83.957 114.617 84.8055 119.773 86.1109 123.689C86.1762 123.885 86.2415 124.016 86.3067 124.212C91.3326 136.287 98.3167 147.775 109.217 161.482C128.798 185.632 149.424 204.365 172.139 218.79C174.945 220.617 177.948 222.053 180.755 223.489C183.365 224.795 185.78 226.035 187.934 227.406C188.195 227.536 188.391 227.667 188.652 227.797C190.806 228.907 192.895 229.429 194.984 229.429C200.205 229.429 203.6 226.1 204.709 224.991L229.121 200.579C232.906 196.793 237.019 194.77 241.065 194.77C246.026 194.77 250.073 197.838 252.618 200.579L291.977 239.873C299.81 247.705 299.744 256.19 291.781 264.48C289.04 267.417 286.168 270.224 283.1 273.161C278.531 277.599 273.766 282.168 269.458 287.325C261.952 295.419 253.01 299.204 241.457 299.204C240.347 299.204 239.172 299.139 238.063 299.074C216.654 297.703 196.746 289.348 181.799 282.234C141.2 262.587 105.562 234.716 75.9938 199.339C51.6476 170.032 35.2645 142.749 24.4294 113.507C17.7064 95.5574 15.1609 81.1324 16.2052 68.0128Z" fill="#FBFBFB"/>
</svg>
