<svg width="32" height="32" viewBox="0 0 32 32" fill="none" xmlns="http://www.w3.org/2000/svg">
<path d="M21.8 31.5H9.7C7.12821 31.4974 4.66252 30.4745 2.84399 28.656C1.02546 26.8375 0.00264724 24.3718 0 21.8L0 9.7C0.00264724 7.12821 1.02546 4.66252 2.84399 2.84399C4.66252 1.02546 7.12821 0.00264724 9.7 0L21.8 0C24.3718 0.00264724 26.8375 1.02546 28.656 2.84399C30.4745 4.66252 31.4974 7.12821 31.5 9.7V21.8C31.4974 24.3718 30.4745 26.8375 28.656 28.656C26.8375 30.4745 24.3718 31.4974 21.8 31.5ZM9.7 1.5C7.52604 1.50265 5.44187 2.36742 3.90465 3.90465C2.36742 5.44187 1.50265 7.52604 1.5 9.7V21.8C1.50265 23.974 2.36742 26.0581 3.90465 27.5954C5.44187 29.1326 7.52604 29.9974 9.7 30H21.8C23.974 29.9974 26.0581 29.1326 27.5954 27.5954C29.1326 26.0581 29.9974 23.974 30 21.8V9.7C29.9974 7.52604 29.1326 5.44187 27.5954 3.90465C26.0581 2.36742 23.974 1.50265 21.8 1.5H9.7Z" fill="white"/>
<path d="M10.6454 18.6299C12.4265 20.8701 14.5704 22.6339 17.0175 23.8819C17.9492 24.3465 19.1952 24.8976 20.5833 24.9921C20.6693 24.9961 20.7517 25 20.8378 25C21.7694 25 22.5178 24.6614 23.1277 23.9646C23.1314 23.9606 23.1389 23.9528 23.1426 23.9449C23.3596 23.6693 23.6066 23.4213 23.8647 23.1575C24.0406 22.9803 24.2202 22.7953 24.3924 22.6063C25.1893 21.7323 25.1893 20.622 24.3848 19.7756L22.1361 17.4095C21.7544 16.9921 21.298 16.7717 20.819 16.7717C20.3401 16.7717 19.8799 16.9921 19.487 17.4055L18.1475 18.815C18.024 18.7401 17.8968 18.6732 17.7771 18.6102C17.6274 18.5315 17.489 18.4567 17.3655 18.374C16.1457 17.5591 15.0381 16.4961 13.9792 15.1299C13.4442 14.4173 13.085 13.8189 12.8343 13.2087C13.186 12.874 13.5153 12.5236 13.8334 12.1811C13.9456 12.0591 14.0616 11.937 14.1776 11.815C14.5817 11.3898 14.7987 10.8976 14.7987 10.3976C14.7987 9.89764 14.5854 9.40551 14.1776 8.98032L13.0626 7.80709C12.9316 7.66929 12.8081 7.53544 12.6809 7.39764C12.4339 7.12992 12.1758 6.85433 11.9213 6.6063C11.5359 6.20866 11.0832 6 10.6043 6C10.1291 6 9.67258 6.20866 9.27222 6.61024L7.87283 8.08268C7.36397 8.61811 7.07586 9.26772 7.01599 10.0197C6.9449 10.9606 7.10953 11.9606 7.53608 13.1693C8.19088 15.0394 9.17868 16.7756 10.6454 18.6299ZM7.92896 10.1024C7.97386 9.57874 8.16469 9.14173 8.52389 8.76378L9.91579 7.29921C10.1328 7.07874 10.3723 6.96457 10.6043 6.96457C10.8325 6.96457 11.0645 7.07874 11.2778 7.30709C11.5285 7.55118 11.7642 7.80709 12.0186 8.07874C12.1458 8.21653 12.2768 8.35433 12.4077 8.49606L13.5228 9.66929C13.7548 9.91338 13.8745 10.1614 13.8745 10.4055C13.8745 10.6496 13.7548 10.8976 13.5228 11.1417C13.4068 11.2638 13.2908 11.3898 13.1748 11.5118C12.8268 11.8819 12.5013 12.2323 12.1421 12.5669C12.1346 12.5748 12.1309 12.5788 12.1234 12.5866C11.8128 12.9134 11.8615 13.2244 11.9363 13.4606C11.94 13.4724 11.9438 13.4803 11.9475 13.4922C12.2356 14.2205 12.636 14.9134 13.2608 15.7402C14.3833 17.1969 15.5657 18.3268 16.8678 19.1969C17.0287 19.3071 17.2008 19.3937 17.3618 19.4803C17.5114 19.5591 17.6498 19.6339 17.7733 19.7166C17.7882 19.7244 17.7995 19.7323 17.8144 19.7401C17.9379 19.8071 18.0577 19.8386 18.1774 19.8386C18.4767 19.8386 18.6713 19.6378 18.7349 19.5709L20.1343 18.0984C20.3513 17.8701 20.5871 17.748 20.819 17.748C21.1034 17.748 21.3354 17.9331 21.4813 18.0984L23.7375 20.4685C24.1866 20.9409 24.1828 21.4527 23.7263 21.9528C23.5692 22.1299 23.4045 22.2992 23.2287 22.4764C22.9667 22.7441 22.6936 23.0197 22.4466 23.3307C22.0164 23.8189 21.5038 24.0472 20.8415 24.0472C20.7779 24.0472 20.7105 24.0433 20.6469 24.0394C19.4197 23.9567 18.2784 23.4527 17.4216 23.0236C15.0943 21.8386 13.0513 20.1575 11.3563 18.0236C9.96069 16.2559 9.02153 14.6103 8.40041 12.8465C8.01502 11.7638 7.8691 10.8937 7.92896 10.1024Z" fill="#FBFBFB"/>
</svg>
