<svg width="91" height="90" viewBox="0 0 91 90" fill="none" xmlns="http://www.w3.org/2000/svg">
<path fill-rule="evenodd" clip-rule="evenodd" d="M2.39964e-06 43.5512C0.00506752 37.0002 1.48682 30.5345 4.33507 24.6351C7.18333 18.7356 11.3248 13.5541 16.4516 9.47584C21.5784 5.39757 27.5585 2.52744 33.9474 1.07887C40.3363 -0.369692 46.9695 -0.359427 53.3539 1.1089C59.7382 2.57723 65.7095 5.46586 70.8236 9.55998C75.9377 13.6541 80.0632 18.8484 82.8931 24.7566C85.7231 30.6649 87.1849 37.1351 87.1696 43.6861C87.1544 50.2371 85.6627 56.7004 82.8053 62.5955C82.8567 62.8784 82.9339 63.2557 83.0539 63.7359C83.4827 65.4251 84.2544 67.6202 85.1805 70.0297C85.9265 71.9418 86.7067 73.8282 87.427 75.5689L87.9415 76.8208C88.3616 77.8326 88.7475 78.7929 89.0648 79.6161C89.322 80.3192 89.6993 81.331 89.8965 82.24C90.0944 83.1767 90.0806 84.1459 89.8561 85.0767C89.6317 86.0075 89.2022 86.8764 88.5991 87.62C87.996 88.3636 87.2344 88.9632 86.37 89.3749C85.5056 89.7867 84.5602 90.0002 83.6027 90C82.1536 90 80.7559 89.657 79.7699 89.3826C78.6279 89.048 77.5007 88.6646 76.3915 88.2336C74.7794 87.6162 72.9445 86.8445 71.1952 86.1071L69.3431 85.3354C67.3667 84.479 65.3492 83.7206 63.298 83.0631C63.0286 82.9811 62.757 82.9068 62.4834 82.8402C55.8381 86.0378 48.4901 87.497 41.1273 87.0812C33.7644 86.6654 26.6274 84.3881 20.3844 80.4626C14.1415 76.537 8.9966 71.0916 5.43148 64.636C1.86636 58.1804 -0.00244443 50.9258 2.39964e-06 43.5512ZM82.7453 62.0724L82.7367 61.9695V62.081L82.7453 62.0724Z" fill="white"/>
<g filter="url(#filter0_d_253_2167)">
<path d="M41.0215 61.002C40.1738 60.1452 39.75 59.1107 39.75 57.8984C39.75 56.6862 40.1738 55.6562 41.0215 54.8086C41.8783 53.9518 42.9128 53.5234 44.125 53.5234C45.3372 53.5234 46.3672 53.9518 47.2148 54.8086C48.0716 55.6562 48.5 56.6862 48.5 57.8984C48.5 59.1107 48.0716 60.1452 47.2148 61.002C46.3672 61.8496 45.3372 62.2734 44.125 62.2734C42.9128 62.2734 41.8783 61.8496 41.0215 61.002ZM38.1094 32.7832C38.9206 33.1113 39.5768 33.6445 40.0781 34.3828C40.5885 35.1211 40.8438 35.9414 40.8438 36.8438C40.8438 38.056 40.4154 39.0905 39.5586 39.9473C38.7109 40.7949 37.681 41.2188 36.4688 41.2188C35.2565 41.2188 34.222 40.7949 33.3652 39.9473C32.5176 39.0905 32.0938 38.056 32.0938 36.8438C32.0938 35.4492 32.3398 34.1641 32.832 32.9883C33.3242 31.8125 34.0534 30.778 35.0195 29.8848C35.9857 28.9824 37.2435 28.276 38.793 27.7656C40.3516 27.2552 42.1289 27 44.125 27C48.2083 27 51.2344 27.8158 53.2031 29.4473C55.1719 31.0788 56.1562 33.5443 56.1562 36.8438C56.1562 37.7826 56.0286 38.6576 55.7734 39.4688C55.5273 40.2799 55.1947 40.9863 54.7754 41.5879C54.3561 42.1895 53.873 42.75 53.3262 43.2695C52.7793 43.7799 52.2005 44.2311 51.5898 44.623C50.9883 45.0059 50.3822 45.3659 49.7715 45.7031C49.1699 46.0404 48.5957 46.3594 48.0488 46.6602C47.502 46.9518 47.0189 47.2389 46.5996 47.5215C46.1803 47.7949 45.8431 48.0957 45.5879 48.4238C45.3418 48.7428 45.2188 49.0755 45.2188 49.4219H42.4844C41.9922 48.6016 41.7461 47.7995 41.7461 47.0156C41.7461 46.3958 41.8965 45.7715 42.1973 45.1426C42.5072 44.5137 42.89 43.944 43.3457 43.4336C43.8105 42.9232 44.3118 42.3854 44.8496 41.8203C45.3874 41.2552 45.8841 40.7266 46.3398 40.2344C46.8047 39.7422 47.1875 39.1999 47.4883 38.6074C47.7982 38.0059 47.9531 37.418 47.9531 36.8438C47.9531 36.1328 47.8438 35.4629 47.625 34.834C47.4062 34.196 47.0827 33.6172 46.6543 33.0977C46.235 32.569 45.6654 32.1497 44.9453 31.8398C44.2253 31.5299 43.4049 31.375 42.4844 31.375C40.6432 31.375 39.1849 31.8444 38.1094 32.7832Z" fill="#0046AD"/>
</g>
<defs>
<filter id="filter0_d_253_2167" x="27.0938" y="22" width="34.0625" height="45.2734" filterUnits="userSpaceOnUse" color-interpolation-filters="sRGB">
<feFlood flood-opacity="0" result="BackgroundImageFix"/>
<feColorMatrix in="SourceAlpha" type="matrix" values="0 0 0 0 0 0 0 0 0 0 0 0 0 0 0 0 0 0 127 0" result="hardAlpha"/>
<feOffset/>
<feGaussianBlur stdDeviation="2.5"/>
<feComposite in2="hardAlpha" operator="out"/>
<feColorMatrix type="matrix" values="0 0 0 0 0.513139 0 0 0 0 0.513139 0 0 0 0 0.966667 0 0 0 0.45 0"/>
<feBlend mode="normal" in2="BackgroundImageFix" result="effect1_dropShadow_253_2167"/>
<feBlend mode="normal" in="SourceGraphic" in2="effect1_dropShadow_253_2167" result="shape"/>
</filter>
</defs>
</svg>
