<svg width="116" height="116" viewBox="0 0 116 116" fill="none" xmlns="http://www.w3.org/2000/svg">
<g filter="url(#filter0_d_220_2123)">
<rect x="26" y="26" width="64" height="64" rx="10" fill="#F7A41C"/>
<rect x="27" y="27" width="62" height="62" rx="9" stroke="#F9A32C" stroke-width="2"/>
</g>
<g filter="url(#filter1_d_220_2123)">
<path d="M61.916 41.0565C61.6523 40.9935 61.3789 40.9831 61.1112 41.0258C60.8435 41.0686 60.5869 41.1637 60.356 41.3057C60.1252 41.4477 59.9245 41.6338 59.7656 41.8534C59.6067 42.073 59.4927 42.3218 59.43 42.5855L52.5551 71.4601C52.4282 71.9925 52.518 72.5536 52.8047 73.0198C53.0914 73.486 53.5516 73.8192 54.0841 73.9461C54.6165 74.073 55.1775 73.9832 55.6437 73.6965C56.1099 73.4097 56.4431 72.9495 56.57 72.4171L63.4449 43.5425C63.5079 43.2788 63.5184 43.0054 63.4756 42.7377C63.4328 42.47 63.3377 42.2134 63.1957 41.9825C63.0537 41.7517 62.8676 41.551 62.648 41.3921C62.4284 41.2332 62.1797 41.1192 61.916 41.0565V41.0565ZM66.7999 47.1614C66.9841 46.9628 67.2056 46.8024 67.4517 46.6893C67.6979 46.5763 67.9639 46.5128 68.2346 46.5026C68.5053 46.4924 68.7753 46.5356 69.0293 46.6298C69.2833 46.7239 69.5163 46.8672 69.7149 47.0514L79.3397 55.9888C79.548 56.1819 79.7141 56.4159 79.8277 56.6761C79.9414 56.9364 80 57.2173 80 57.5013C80 57.7853 79.9414 58.0662 79.8277 58.3265C79.7141 58.5867 79.548 58.8207 79.3397 59.0138L69.7149 67.9512C69.5162 68.1353 69.2833 68.2786 69.0293 68.3727C68.7753 68.4669 68.5053 68.5101 68.2346 68.4999C67.6879 68.4792 67.1719 68.2423 66.7999 67.8412C66.4279 67.44 66.2306 66.9076 66.2512 66.3609C66.2718 65.8142 66.5088 65.2982 66.9099 64.9262L74.9068 57.5013L66.9099 50.0764C66.7113 49.8922 66.5508 49.6707 66.4378 49.4246C66.3248 49.1784 66.2613 48.9124 66.2511 48.6417C66.2409 48.371 66.2841 48.101 66.3783 47.847C66.4724 47.593 66.6157 47.36 66.7999 47.1614ZM49.0901 50.0764C49.4912 49.7044 49.7282 49.1883 49.7488 48.6417C49.7694 48.095 49.5721 47.5626 49.2001 47.1614C48.8281 46.7603 48.3121 46.5233 47.7654 46.5027C47.2187 46.4821 46.6863 46.6795 46.2851 47.0514L36.6603 55.9888C36.452 56.1819 36.2859 56.4159 36.1723 56.6761C36.0586 56.9364 36 57.2173 36 57.5013C36 57.7853 36.0586 58.0662 36.1723 58.3265C36.2859 58.5867 36.452 58.8207 36.6603 59.0138L46.2851 67.9512C46.6863 68.3231 47.2187 68.5205 47.7654 68.4999C48.3121 68.4792 48.8281 68.2423 49.2001 67.8412C49.5721 67.44 49.7694 66.9076 49.7488 66.3609C49.7282 65.8142 49.4912 65.2982 49.0901 64.9262L41.0932 57.5013L49.0901 50.0764Z" fill="white"/>
</g>
<defs>
<filter id="filter0_d_220_2123" x="0" y="0" width="116" height="116" filterUnits="userSpaceOnUse" color-interpolation-filters="sRGB">
<feFlood flood-opacity="0" result="BackgroundImageFix"/>
<feColorMatrix in="SourceAlpha" type="matrix" values="0 0 0 0 0 0 0 0 0 0 0 0 0 0 0 0 0 0 127 0" result="hardAlpha"/>
<feOffset/>
<feGaussianBlur stdDeviation="13"/>
<feComposite in2="hardAlpha" operator="out"/>
<feColorMatrix type="matrix" values="0 0 0 0 0.968627 0 0 0 0 0.643137 0 0 0 0 0.109804 0 0 0 0.58 0"/>
<feBlend mode="normal" in2="BackgroundImageFix" result="effect1_dropShadow_220_2123"/>
<feBlend mode="normal" in="SourceGraphic" in2="effect1_dropShadow_220_2123" result="shape"/>
</filter>
<filter id="filter1_d_220_2123" x="26" y="33" width="64" height="53.0024" filterUnits="userSpaceOnUse" color-interpolation-filters="sRGB">
<feFlood flood-opacity="0" result="BackgroundImageFix"/>
<feColorMatrix in="SourceAlpha" type="matrix" values="0 0 0 0 0 0 0 0 0 0 0 0 0 0 0 0 0 0 127 0" result="hardAlpha"/>
<feOffset dy="2"/>
<feGaussianBlur stdDeviation="5"/>
<feComposite in2="hardAlpha" operator="out"/>
<feColorMatrix type="matrix" values="0 0 0 0 0 0 0 0 0 0 0 0 0 0 0 0 0 0 0.25 0"/>
<feBlend mode="normal" in2="BackgroundImageFix" result="effect1_dropShadow_220_2123"/>
<feBlend mode="normal" in="SourceGraphic" in2="effect1_dropShadow_220_2123" result="shape"/>
</filter>
</defs>
</svg>
