<svg width="128" height="90" viewBox="0 0 128 90" fill="none" xmlns="http://www.w3.org/2000/svg">
<path d="M35.6906 54.3077H24.6619C23.3458 54.3077 22.293 55.3606 22.293 56.6767V61.2566V81.4189V85.9989C22.293 87.315 23.3458 88.3678 24.6619 88.3678H35.6906C37.0067 88.3678 38.0596 87.315 38.0596 85.9989V81.4189V61.2566V56.6767C38.0859 55.3606 37.0067 54.3077 35.6906 54.3077Z" fill="white"/>
<path d="M57.9875 41.1208H46.9588C45.6427 41.1208 44.5898 42.1737 44.5898 43.4898V61.2568V68.2057V85.9728C44.5898 87.2889 45.6427 88.3417 46.9588 88.3417H57.9875C59.3036 88.3417 60.3565 87.2889 60.3565 85.9728V68.2057V61.2568V43.4898C60.3565 42.1737 59.3036 41.1208 57.9875 41.1208Z" fill="white"/>
<path d="M82.649 48.1487V28.5128H90.2822C91.6773 28.5128 92.5459 26.9599 91.8089 25.7754L76.2792 0.84887C75.5685 -0.282957 73.9366 -0.282957 73.2259 0.84887L57.6961 25.7754C56.9591 26.9599 57.8014 28.5128 59.2228 28.5128H66.8561V85.9991C66.8561 87.3152 67.9089 88.3681 69.225 88.3681H80.2537C81.5698 88.3681 82.6227 87.3152 82.6227 85.9991C78.2006 80.9191 75.4895 74.3124 75.4895 67.0476C75.5422 59.8352 78.227 53.2025 82.649 48.1487Z" fill="white"/>
<path d="M104.337 44.2004C91.7029 44.2004 81.4375 54.4395 81.4375 67.1002C81.4375 79.7345 91.6766 90 104.337 90C116.972 90 127.237 79.7609 127.237 67.1002C127.237 54.4395 116.998 44.2004 104.337 44.2004Z" fill="white"/>
<path d="M13.3977 70.2323H2.36894C1.05286 70.2323 0 71.2852 0 72.6012V73.0487V77.1812V81.419V82.9983V85.9989C0 87.315 1.05286 88.3679 2.36894 88.3679H13.3977C14.7138 88.3679 15.7666 87.315 15.7666 85.9989V82.9983V81.419V77.1812V73.6278V72.6012C15.7929 71.2852 14.7138 70.2323 13.3977 70.2323Z" fill="white"/>
<g filter="url(#filter0_d_256_2198)">
<path d="M101.448 51.824L101.768 58.224H106.056L106.376 51.824H101.448ZM101.768 75.76L101.448 81.584H106.344L106.024 75.76H101.768ZM107.528 62.832L112.744 59.952C112.211 59.12 111.581 58.352 110.856 57.648C110.131 56.9227 109.213 56.3467 108.104 55.92C106.995 55.4933 105.565 55.28 103.816 55.28C102.067 55.28 100.531 55.5787 99.208 56.176C97.9067 56.7733 96.8827 57.5627 96.136 58.544C95.4107 59.504 95.048 60.5493 95.048 61.68C95.048 62.8107 95.2613 63.792 95.688 64.624C96.136 65.4347 96.6907 66.128 97.352 66.704C98.0347 67.28 98.728 67.76 99.432 68.144C100.157 68.5067 100.797 68.7947 101.352 69.008C102.248 69.3493 103.005 69.648 103.624 69.904C104.264 70.1387 104.755 70.384 105.096 70.64C105.437 70.8747 105.608 71.184 105.608 71.568C105.608 71.888 105.533 72.1547 105.384 72.368C105.256 72.56 105.043 72.7093 104.744 72.816C104.445 72.9013 104.051 72.944 103.56 72.944C102.856 72.944 102.216 72.8267 101.64 72.592C101.064 72.3573 100.509 71.984 99.976 71.472C99.464 70.96 98.9307 70.2987 98.376 69.488L93.64 72.944C94.1093 73.8613 94.8347 74.7253 95.816 75.536C96.8187 76.3467 97.9707 77.0187 99.272 77.552C100.595 78.064 101.971 78.32 103.4 78.32C105.32 78.32 107.005 78.0747 108.456 77.584C109.907 77.072 111.037 76.3147 111.848 75.312C112.659 74.3093 113.064 73.072 113.064 71.6C113.064 70.6613 112.925 69.8187 112.648 69.072C112.392 68.3253 112.008 67.664 111.496 67.088C110.984 66.4907 110.376 65.9787 109.672 65.552C108.989 65.1253 108.211 64.752 107.336 64.432C106.44 64.0907 105.597 63.8027 104.808 63.568C104.04 63.3333 103.421 63.0667 102.952 62.768C102.483 62.4693 102.248 62.064 102.248 61.552C102.248 61.3173 102.312 61.0933 102.44 60.88C102.568 60.6667 102.76 60.4853 103.016 60.336C103.293 60.1867 103.645 60.112 104.072 60.112C104.477 60.112 104.883 60.208 105.288 60.4C105.693 60.592 106.088 60.8907 106.472 61.296C106.856 61.7013 107.208 62.2133 107.528 62.832Z" fill="#0046AD"/>
</g>
<defs>
<filter id="filter0_d_256_2198" x="88.6406" y="46.824" width="29.4238" height="39.76" filterUnits="userSpaceOnUse" color-interpolation-filters="sRGB">
<feFlood flood-opacity="0" result="BackgroundImageFix"/>
<feColorMatrix in="SourceAlpha" type="matrix" values="0 0 0 0 0 0 0 0 0 0 0 0 0 0 0 0 0 0 127 0" result="hardAlpha"/>
<feOffset/>
<feGaussianBlur stdDeviation="2.5"/>
<feComposite in2="hardAlpha" operator="out"/>
<feColorMatrix type="matrix" values="0 0 0 0 0.513139 0 0 0 0 0.513139 0 0 0 0 0.966667 0 0 0 0.45 0"/>
<feBlend mode="normal" in2="BackgroundImageFix" result="effect1_dropShadow_256_2198"/>
<feBlend mode="normal" in="SourceGraphic" in2="effect1_dropShadow_256_2198" result="shape"/>
</filter>
</defs>
</svg>
