<svg width="116" height="116" viewBox="0 0 116 116" fill="none" xmlns="http://www.w3.org/2000/svg">
<g filter="url(#filter0_d_220_2120)">
<rect x="26" y="26" width="64" height="64" rx="10" fill="#F7A41C"/>
<rect x="27" y="27" width="62" height="62" rx="9" stroke="#F9A32C" stroke-width="2"/>
</g>
<g filter="url(#filter1_d_220_2120)">
<path d="M72.7322 61.0505C72.7322 61.0513 72.732 61.0522 72.7315 61.0529L72.7041 61.0942L69.7817 66.1758L66.8593 71.2575C66.6387 71.595 66.3423 71.8759 65.9938 72.0775C65.6453 72.2791 65.2545 72.3958 64.8528 72.4181H51.1821C50.7804 72.3958 50.3896 72.2791 50.0411 72.0775C49.6927 71.8759 49.3962 71.595 49.1756 71.2575L43.2689 60.9925C43.0843 60.7483 42.9896 60.4476 43.0009 60.1413C43.0066 59.9878 43.0387 59.8377 43.0947 59.6972C43.2065 59.4168 43.4505 59.2187 43.6882 59.0327V59.0327L43.7417 58.9903C49.2741 54.6217 52.758 47.0197 53.7851 38.0792V37.3365C53.7873 37 53.9156 36.6766 54.1443 36.4305C54.3731 36.1844 54.6857 36.0336 55.0201 36.0081C55.3545 35.9825 55.6862 36.0839 55.9496 36.2924V36.2924C56.4699 36.7042 56.4416 37.4666 56.4416 38.1301V54.5429C56.4416 56.2097 55.229 57.6406 54.4425 59.1102V59.1102C54.0047 59.9283 53.8623 60.8731 54.0395 61.7845C54.2166 62.6959 54.7024 63.5178 55.4145 64.1108C56.1266 64.7038 57.0211 65.0314 57.9464 65.0381C58.8717 65.0448 59.7709 64.7302 60.4914 64.1475C61.2119 63.5649 61.7095 62.7501 61.8997 61.8414C62.09 60.9327 61.9612 59.9858 61.5352 59.1615V59.1615C60.7679 57.6768 59.5624 56.2366 59.5624 54.5653V38.15C59.5624 37.4824 59.5278 36.7155 60.0472 36.2962V36.2962C60.31 36.084 60.6431 35.9794 60.9795 36.0034C61.316 36.0273 61.631 36.178 61.8614 36.4253C62.0918 36.6725 62.2205 36.998 62.2217 37.3365V38.1074C63.2516 47.079 66.6961 54.7008 72.2679 59.0553V59.0553C72.5356 59.2657 72.8144 59.4896 72.9262 59.8112C72.9693 59.9353 72.9942 60.066 72.9991 60.1992C73.0104 60.5044 72.9164 60.8041 72.7331 61.0478C72.7326 61.0486 72.7322 61.0495 72.7322 61.0505V61.0505ZM70.6864 76.4704C70.6849 76.1244 70.5471 75.793 70.303 75.5486C70.0589 75.3041 69.7283 75.1665 69.3835 75.1658H46.5867C46.2421 75.1665 45.9119 75.3042 45.6682 75.5487C45.4245 75.7932 45.2873 76.1246 45.2866 76.4704V79.6953C45.2873 80.0411 45.4245 80.3725 45.6682 80.6171C45.9119 80.8616 46.2421 80.9993 46.5867 81H69.3835C69.7283 80.9993 70.0589 80.8617 70.303 80.6172C70.5471 80.3728 70.6849 80.0414 70.6864 79.6953V76.4704Z" fill="white"/>
</g>
<defs>
<filter id="filter0_d_220_2120" x="0" y="0" width="116" height="116" filterUnits="userSpaceOnUse" color-interpolation-filters="sRGB">
<feFlood flood-opacity="0" result="BackgroundImageFix"/>
<feColorMatrix in="SourceAlpha" type="matrix" values="0 0 0 0 0 0 0 0 0 0 0 0 0 0 0 0 0 0 127 0" result="hardAlpha"/>
<feOffset/>
<feGaussianBlur stdDeviation="13"/>
<feComposite in2="hardAlpha" operator="out"/>
<feColorMatrix type="matrix" values="0 0 0 0 0.968627 0 0 0 0 0.643137 0 0 0 0 0.109804 0 0 0 0.58 0"/>
<feBlend mode="normal" in2="BackgroundImageFix" result="effect1_dropShadow_220_2120"/>
<feBlend mode="normal" in="SourceGraphic" in2="effect1_dropShadow_220_2120" result="shape"/>
</filter>
<filter id="filter1_d_220_2120" x="33" y="28" width="50" height="65" filterUnits="userSpaceOnUse" color-interpolation-filters="sRGB">
<feFlood flood-opacity="0" result="BackgroundImageFix"/>
<feColorMatrix in="SourceAlpha" type="matrix" values="0 0 0 0 0 0 0 0 0 0 0 0 0 0 0 0 0 0 127 0" result="hardAlpha"/>
<feOffset dy="2"/>
<feGaussianBlur stdDeviation="5"/>
<feComposite in2="hardAlpha" operator="out"/>
<feColorMatrix type="matrix" values="0 0 0 0 0 0 0 0 0 0 0 0 0 0 0 0 0 0 0.25 0"/>
<feBlend mode="normal" in2="BackgroundImageFix" result="effect1_dropShadow_220_2120"/>
<feBlend mode="normal" in="SourceGraphic" in2="effect1_dropShadow_220_2120" result="shape"/>
</filter>
</defs>
</svg>
