<svg width="96" height="90" viewBox="0 0 96 90" fill="none" xmlns="http://www.w3.org/2000/svg">
<path fill-rule="evenodd" clip-rule="evenodd" d="M0 4.73685C0 2.12078 2.12772 0 4.75234 0H90.2944C92.9191 0 95.0467 2.12078 95.0467 4.73685C95.0467 7.35292 92.9191 9.4737 90.2944 9.4737C87.6697 9.4737 90.2944 61.579 90.2944 61.579C90.2944 66.8114 86.0391 71.0527 80.7897 71.0527H56.7681L67.6647 81.9138C69.5205 83.7636 69.5205 86.763 67.6647 88.6127C65.8085 90.4624 62.7998 90.4624 60.944 88.6127L47.502 75.215L34.0605 88.6127C32.2045 90.4624 29.1956 90.4624 27.3396 88.6127C25.4837 86.763 25.4837 83.7636 27.3396 81.9138L38.2364 71.0527H14.257C9.00772 71.0527 4.75234 66.8114 4.75234 61.579C4.75234 61.579 7.37696 9.4737 4.75234 9.4737C2.12772 9.4737 0 7.35292 0 4.73685Z" fill="white"/>
<g filter="url(#filter0_d_256_2197)">
<path d="M31 8H42.53H31ZM31 28.125H65.5899H31ZM31 39.625H65.5899H31ZM31 51.125H42.53H31Z" fill="white"/>
<path d="M31 28.125H65.5899M31 39.625H65.5899M31 51.125H42.53" stroke="#0046AD" stroke-width="6" stroke-linecap="round" stroke-linejoin="round"/>
</g>
<defs>
<filter id="filter0_d_256_2197" x="23" y="3" width="50.5898" height="56.125" filterUnits="userSpaceOnUse" color-interpolation-filters="sRGB">
<feFlood flood-opacity="0" result="BackgroundImageFix"/>
<feColorMatrix in="SourceAlpha" type="matrix" values="0 0 0 0 0 0 0 0 0 0 0 0 0 0 0 0 0 0 127 0" result="hardAlpha"/>
<feOffset/>
<feGaussianBlur stdDeviation="2.5"/>
<feComposite in2="hardAlpha" operator="out"/>
<feColorMatrix type="matrix" values="0 0 0 0 0.513139 0 0 0 0 0.513139 0 0 0 0 0.966667 0 0 0 0.45 0"/>
<feBlend mode="normal" in2="BackgroundImageFix" result="effect1_dropShadow_256_2197"/>
<feBlend mode="normal" in="SourceGraphic" in2="effect1_dropShadow_256_2197" result="shape"/>
</filter>
</defs>
</svg>
