<svg width="116" height="116" viewBox="0 0 116 116" fill="none" xmlns="http://www.w3.org/2000/svg">
<g filter="url(#filter0_d_220_2124)">
<rect x="26" y="26" width="64" height="64" rx="10" fill="#F7A41C"/>
<rect x="27" y="27" width="62" height="62" rx="9" stroke="#F9A32C" stroke-width="2"/>
</g>
<g filter="url(#filter1_d_220_2124)">
<path d="M57.4905 77C57.7935 77 58.2669 76.8883 58.7593 76.6464C69.3452 70.7837 73 68.3269 73 61.6453V47.6122C73 45.6952 72.1478 45.081 70.5761 44.4296C68.3604 43.5362 61.2591 41.0237 59.0623 40.2606C58.551 40.1117 58.0397 40 57.4905 40C56.9603 40 56.449 40.1117 55.9377 40.2606C53.7409 41.0423 46.6396 43.5549 44.4239 44.4296C42.8522 45.0624 42 45.6952 42 47.6122V61.6453C42 68.3269 45.6738 70.7651 56.2407 76.6464C56.7331 76.8883 57.1876 77 57.4905 77Z" fill="white"/>
</g>
<defs>
<filter id="filter0_d_220_2124" x="0" y="0" width="116" height="116" filterUnits="userSpaceOnUse" color-interpolation-filters="sRGB">
<feFlood flood-opacity="0" result="BackgroundImageFix"/>
<feColorMatrix in="SourceAlpha" type="matrix" values="0 0 0 0 0 0 0 0 0 0 0 0 0 0 0 0 0 0 127 0" result="hardAlpha"/>
<feOffset/>
<feGaussianBlur stdDeviation="13"/>
<feComposite in2="hardAlpha" operator="out"/>
<feColorMatrix type="matrix" values="0 0 0 0 0.968627 0 0 0 0 0.643137 0 0 0 0 0.109804 0 0 0 0.58 0"/>
<feBlend mode="normal" in2="BackgroundImageFix" result="effect1_dropShadow_220_2124"/>
<feBlend mode="normal" in="SourceGraphic" in2="effect1_dropShadow_220_2124" result="shape"/>
</filter>
<filter id="filter1_d_220_2124" x="32" y="32" width="51" height="57" filterUnits="userSpaceOnUse" color-interpolation-filters="sRGB">
<feFlood flood-opacity="0" result="BackgroundImageFix"/>
<feColorMatrix in="SourceAlpha" type="matrix" values="0 0 0 0 0 0 0 0 0 0 0 0 0 0 0 0 0 0 127 0" result="hardAlpha"/>
<feOffset dy="2"/>
<feGaussianBlur stdDeviation="5"/>
<feComposite in2="hardAlpha" operator="out"/>
<feColorMatrix type="matrix" values="0 0 0 0 0 0 0 0 0 0 0 0 0 0 0 0 0 0 0.25 0"/>
<feBlend mode="normal" in2="BackgroundImageFix" result="effect1_dropShadow_220_2124"/>
<feBlend mode="normal" in="SourceGraphic" in2="effect1_dropShadow_220_2124" result="shape"/>
</filter>
</defs>
</svg>
